<svg width="234" height="178" viewBox="0 0 234 178" fill="none" xmlns="http://www.w3.org/2000/svg">
<path d="M136.627 95.5991L133.823 121.879C133.823 121.879 128.332 113.528 124.594 117.265C121.03 120.827 114.78 146.581 114.78 146.581C114.78 146.581 114.722 154.991 119.161 157.21C133.472 164.335 149.477 150.903 149.477 150.903L147.199 75.6851C141.241 80.7658 137.444 87.8904 136.627 95.5991Z" fill="#85BC91"/>
<path d="M185.05 77.3202L160.225 75.3347C160.05 72.4147 160.283 61.2021 160.283 61.2021C160.283 61.2021 149.944 59.567 149.827 49.2887C149.711 39.0105 151.463 15.2421 151.463 15.2421C163.437 10.103 177.223 11.855 187.562 19.7973L189.081 20.9652L185.05 77.3202Z" fill="#FFBE9D"/>
<path d="M160.225 61.0853C160.225 61.0853 166.767 61.6109 173.718 57.231C173.718 57.231 170.564 64.6477 160.225 63.7133V61.0853Z" fill="#EB996E"/>
<path d="M187.795 31.6523C187.97 31.5939 194.921 29.5499 194.688 36.6162C194.454 43.6825 187.445 41.9889 187.386 41.8137C187.386 41.5801 187.795 31.6523 187.795 31.6523Z" fill="#FFBE9D"/>
<path d="M189.606 39.1857C189.664 39.1857 189.723 39.3025 189.956 39.3609C190.132 39.4777 190.482 39.5361 190.891 39.4193C191.65 39.1857 192.293 38.0177 192.41 36.733C192.468 36.0906 192.351 35.4482 192.118 34.981C191.942 34.4554 191.592 34.105 191.242 33.9882C190.891 33.8714 190.599 34.105 190.482 34.2802C190.365 34.4554 190.424 34.6306 190.365 34.6306C190.365 34.6306 190.19 34.5138 190.307 34.2218C190.365 34.105 190.424 33.9298 190.599 33.813C190.774 33.6962 191.008 33.6378 191.3 33.6378C191.826 33.6962 192.293 34.2218 192.527 34.7474C192.76 35.3314 192.935 36.0322 192.877 36.733C192.76 38.1345 192.001 39.4777 191.008 39.7113C190.482 39.8281 190.073 39.6529 189.898 39.4777C189.606 39.3609 189.606 39.1857 189.606 39.1857Z" fill="#EB996E"/>
<path d="M153.74 31.2434C153.74 32.0026 154.324 32.7034 155.142 32.7034C155.96 32.7618 156.661 32.1778 156.661 31.3602C156.661 30.6011 156.077 29.9003 155.259 29.9003C154.441 29.9003 153.74 30.4843 153.74 31.2434Z" fill="#263238"/>
<path d="M153.39 29.7835C153.565 29.9587 154.675 29.1411 156.252 29.1411C157.829 29.1411 158.998 29.9587 159.173 29.7251C159.231 29.6667 159.056 29.3163 158.589 28.9075C158.063 28.5571 157.245 28.2067 156.252 28.2067C155.259 28.2067 154.442 28.5571 153.974 28.9659C153.449 29.3747 153.332 29.7251 153.39 29.7835Z" fill="#263238"/>
<path d="M169.278 31.8275C169.278 32.5867 169.862 33.2875 170.68 33.2875C171.498 33.3459 172.199 32.7619 172.199 31.9443C172.199 31.1851 171.615 30.4843 170.797 30.4843C169.979 30.4259 169.278 31.0099 169.278 31.8275Z" fill="#263238"/>
<path d="M168.986 30.0755C169.161 30.2507 170.271 29.4331 171.848 29.4331C173.425 29.4331 174.594 30.2507 174.769 30.0171C174.827 29.9587 174.652 29.6083 174.185 29.1995C173.659 28.8491 172.841 28.4987 171.848 28.4987C170.855 28.4987 170.037 28.8491 169.57 29.2579C169.103 29.6667 168.928 30.0171 168.986 30.0755Z" fill="#263238"/>
<path d="M163.262 41.8721C163.262 41.7553 162.269 41.6385 160.691 41.4049C160.283 41.3465 159.874 41.2881 159.815 40.9961C159.698 40.7041 159.874 40.2953 160.107 39.7697C160.516 38.7769 160.867 37.7842 161.334 36.6746C163.028 32.2947 164.196 28.6739 164.021 28.6155C163.846 28.5571 162.327 32.0611 160.691 36.441C160.283 37.5506 159.932 38.5433 159.523 39.5361C159.348 40.0033 159.114 40.5289 159.29 41.1129C159.406 41.4049 159.698 41.6385 159.932 41.6969C160.166 41.7553 160.399 41.7553 160.633 41.8137C162.269 41.9305 163.262 41.9305 163.262 41.8721Z" fill="#263238"/>
<path d="M168.578 23.8852C168.753 24.294 170.33 24.1188 172.199 24.3524C174.068 24.5276 175.587 25.1116 175.821 24.7028C175.938 24.5276 175.645 24.1188 175.061 23.71C174.477 23.3012 173.484 22.8924 172.374 22.7756C171.265 22.6588 170.213 22.834 169.571 23.126C168.87 23.3012 168.519 23.6516 168.578 23.8852Z" fill="#263238"/>
<path d="M153.974 25.17C154.266 25.5204 155.376 25.17 156.661 25.1116C157.946 25.0532 159.114 25.3452 159.348 24.9948C159.465 24.8196 159.29 24.4692 158.822 24.1188C158.355 23.7684 157.537 23.4764 156.661 23.5348C155.785 23.5348 154.967 23.8852 154.5 24.2356C154.032 24.6444 153.857 24.9948 153.974 25.17Z" fill="#263238"/>
<path d="M146.439 8.75987C146.323 7.47509 146.79 6.13191 147.841 5.37273C148.893 4.61354 150.528 4.67194 151.346 5.60632C150.879 3.85435 152.281 1.86879 154.033 1.75199C155.727 1.63519 157.129 2.91997 158.764 3.38716C160.342 3.79596 162.036 3.44556 163.613 2.80317C165.131 2.16078 166.592 1.3432 168.11 0.75921C171.323 -0.408769 175.003 -0.291971 178.157 1.168C181.253 2.62798 183.823 5.31433 184.992 8.52627C187.27 7.82548 189.84 8.99346 191.183 10.8622C192.585 12.7894 192.936 15.3005 192.644 17.6365C192.468 19.2133 192.001 20.7316 191.475 22.25C191.475 22.3668 191.475 22.542 191.475 22.6588C191.359 28.3235 190.716 34.981 188.321 35.0394C184.115 35.0978 185.108 27.1555 185.108 27.1555C179.91 25.17 181.837 17.4029 180.552 16.2349C179.267 15.067 176.522 12.3222 165.715 17.8701C161.51 20.0309 155.902 19.9725 152.865 19.2717C152.748 19.2717 152.69 19.2133 152.573 19.2133H152.514C152.456 19.2133 152.456 19.2133 152.397 19.1549C151.404 18.9213 150.47 18.5125 149.594 17.9869C148.601 17.3445 147.724 16.5269 147.316 15.4173C146.907 14.3078 147.082 12.9646 147.9 12.2054C147.14 11.2126 146.498 10.0446 146.439 8.75987Z" fill="#263238"/>
<path d="M205.319 142.143L206.079 156.801L207.831 177.825H141.475L144.337 146.698L138.671 97.5847C139.138 80.2402 145.856 72.9987 159.466 71.3635C159.583 71.3635 158.297 71.5387 158.414 71.4803C160.283 71.2467 158.414 71.4803 159.466 71.3635C168.286 74.1083 177.106 74.0499 185.927 71.3635C190.015 71.5387 193.403 72.8235 196.908 73.4659C207.89 75.5683 216.885 84.0361 219.105 91.3944C220.916 97.4679 233.942 150.085 233.942 150.085H207.948L205.319 142.143Z" fill="#85BC91"/>
<path d="M161.919 46.7192C162.153 47.3615 162.445 48.0039 162.854 48.5295C163.263 49.0551 163.905 49.4639 164.548 49.5223C165.249 49.5807 165.95 49.1135 166.359 48.5295C166.768 47.9455 166.884 47.1864 166.884 46.4856C166.826 45.8432 166.534 45.084 165.891 44.9672C165.599 44.9088 165.366 45.0256 165.132 45.1424C164.022 45.6096 162.854 46.0768 161.744 46.544" fill="#EB996E"/>
<path d="M163.263 49.5223C163.263 49.4055 164.022 49.6975 165.074 49.2887C165.599 49.0551 166.125 48.7048 166.475 48.0624C166.768 47.42 166.826 46.6024 166.534 45.8432C166.475 45.668 166.359 45.4928 166.242 45.3176C166.125 45.2008 166.125 45.2008 166.008 45.2008C165.891 45.2592 165.658 45.3176 165.482 45.4344C165.307 45.4928 165.132 45.6096 164.898 45.668C164.197 45.96 163.496 46.1936 162.971 46.4272C161.861 46.836 161.16 47.0696 161.102 47.0112C161.043 46.9528 161.744 46.6024 162.796 46.0768C163.321 45.8432 163.964 45.4928 164.665 45.2008C164.84 45.1424 165.015 45.0256 165.19 44.9672C165.366 44.9088 165.541 44.792 165.833 44.7336C165.95 44.6752 166.183 44.6752 166.359 44.7336C166.534 44.792 166.651 44.9088 166.709 45.0256C166.884 45.2008 167.001 45.4344 167.118 45.668C167.527 46.6024 167.41 47.6536 167.001 48.4128C166.592 49.1719 165.891 49.6391 165.249 49.8143C164.665 49.9895 164.081 49.9311 163.789 49.8727C163.38 49.6975 163.263 49.5807 163.263 49.5223Z" fill="#263238"/>
<path d="M138.613 139.223L122.958 91.2192L121.556 83.1601C121.556 83.1601 117.292 65.1732 117.117 63.4213C116.883 61.3773 115.832 60.9685 115.131 61.0853C113.963 61.3189 113.262 62.8373 113.437 64.5892C113.495 65.1732 114.605 74.8091 114.605 74.8091C114.605 74.8091 114.08 74.0499 112.444 72.4147C110.808 70.7795 107.362 70.0787 103.974 70.6043C100.528 71.0715 99.6517 71.5387 99.7685 72.8819C99.827 73.4075 100.177 73.8163 100.586 74.1083C101.287 74.5755 102.105 74.7507 102.923 74.6339C108.414 73.9331 110.224 76.7362 110.224 76.7362L110.4 77.7874C110.4 77.7874 106.778 75.7434 104.266 77.0282C103.857 77.2618 103.507 77.4954 103.273 77.7874C101.813 77.9626 100.469 78.897 99.827 80.2402C99.1844 81.6417 99.3597 83.3353 100.236 84.6201C100.645 85.2041 101.404 85.7297 102.105 85.4961C102.456 85.3793 102.748 85.0873 103.04 84.7953C103.156 84.6201 103.332 84.5033 103.507 84.3865L104.442 87.248C104.442 87.248 106.895 93.6135 107.654 96.4751L115.248 144.771C116.299 151.487 122.666 155.984 129.325 154.816C136.452 153.648 140.891 146.231 138.613 139.223Z" fill="#FFBE9D"/>
<path d="M121.323 90.7519C120.33 91.1607 119.22 90.5183 118.578 89.7008C117.935 88.8832 117.585 87.832 117.001 86.956C115.248 84.3281 111.685 83.3937 110.05 80.6489C109.816 80.2985 109.641 79.7145 109.991 79.4226C110.283 79.1306 110.751 79.3058 111.159 79.4226C114.372 80.7657 117.585 82.1089 120.739 83.4521" fill="#FFBE9D"/>
<path d="M120.797 83.5105C120.797 83.4521 120.447 83.2769 119.804 82.9849C119.162 82.6929 118.169 82.2257 117 81.7001C115.774 81.1745 114.372 80.5321 112.853 79.8897C112.444 79.7145 112.035 79.5393 111.626 79.3641C111.218 79.2473 110.75 78.897 110.108 79.0722C109.757 79.1889 109.582 79.5977 109.582 79.8897C109.582 80.1817 109.699 80.4737 109.816 80.7073C110.108 81.1745 110.4 81.5833 110.75 81.9337C112.152 83.4521 113.905 84.2697 115.19 85.3209C115.832 85.8464 116.416 86.4304 116.825 87.0144C117.234 87.5984 117.526 88.2408 117.877 88.8248C118.461 89.9928 119.454 90.752 120.213 90.8688C120.972 90.9856 121.381 90.6936 121.323 90.6936C121.323 90.6352 120.914 90.8103 120.271 90.6352C119.571 90.46 118.753 89.7592 118.227 88.6496C117.935 88.0656 117.643 87.4232 117.234 86.7224C116.825 86.08 116.183 85.4376 115.54 84.9121C114.197 83.8025 112.503 82.9265 111.159 81.5249C110.809 81.1745 110.575 80.8241 110.341 80.4153C110.108 80.0649 110.108 79.6561 110.341 79.5977C110.575 79.4809 111.042 79.6561 111.451 79.8313C111.86 80.0065 112.269 80.1817 112.678 80.3569C114.255 80.9993 115.657 81.5833 116.884 82.0505C118.11 82.5177 119.045 82.9265 119.746 83.1601C120.388 83.3937 120.797 83.5105 120.797 83.5105Z" fill="#EB996E"/>
<path d="M110.458 77.7874C110.4 77.7874 110.4 76.9698 109.64 75.977C109.231 75.5098 108.647 75.101 107.83 74.9258C107.07 74.7507 106.136 74.7507 105.201 74.8091C104.266 74.8675 103.332 74.9842 102.456 74.8674C101.579 74.7506 100.879 74.5171 100.353 74.0499C99.8271 73.6411 99.6519 73.0571 99.6519 72.7067C99.6519 72.3563 99.7687 72.1811 99.7687 72.1811C99.8271 72.1811 99.7687 72.3563 99.7687 72.7067C99.8271 73.0571 100.002 73.5243 100.47 73.8747C100.937 74.2251 101.696 74.4587 102.456 74.5171C103.273 74.5755 104.15 74.5171 105.143 74.4587C106.077 74.4003 107.07 74.4003 107.888 74.5755C108.706 74.809 109.407 75.2762 109.816 75.8018C110.224 76.3274 110.4 76.853 110.458 77.2034C110.517 77.6122 110.517 77.7874 110.458 77.7874Z" fill="#EB996E"/>
<path d="M113.379 63.9468C113.437 63.9468 113.496 64.6476 113.613 65.874C113.729 67.1588 113.905 68.7355 114.08 70.4875C114.255 72.2395 114.43 73.7579 114.606 75.101C114.722 76.269 114.839 77.0282 114.781 77.0282C114.722 77.0282 114.547 76.3274 114.372 75.1594C114.138 73.9914 113.905 72.3563 113.729 70.5459C113.554 68.7356 113.437 67.1004 113.379 65.9324C113.262 64.706 113.321 63.9468 113.379 63.9468Z" fill="#EB996E"/>
<path d="M108.531 80.2402C108.531 80.2402 108.297 80.1818 107.946 80.065C107.596 79.9482 107.012 79.8314 106.486 80.1818C106.194 80.357 106.077 80.649 106.077 81.0578C106.077 81.4082 106.194 81.8169 106.311 82.2841C106.428 82.7513 106.486 83.2769 106.252 83.8025C105.96 84.3281 105.435 84.6201 104.851 84.7369C104.266 84.7953 103.682 84.5617 103.273 84.2697C102.865 83.9193 102.572 83.5105 102.397 82.9849C102.164 82.0505 102.164 81.2329 102.164 80.5322C102.222 79.8314 102.339 79.2474 102.456 78.897C102.631 78.5466 102.806 78.3714 102.806 78.3714C102.806 78.3714 102.689 78.5466 102.631 78.9554C102.514 79.3058 102.456 79.8898 102.456 80.5322C102.456 81.2329 102.514 82.0505 102.748 82.8681C102.981 83.6273 103.858 84.4449 104.792 84.3281C105.259 84.2697 105.668 83.9777 105.902 83.6273C106.077 83.2185 106.077 82.8097 105.96 82.3425C105.844 81.9337 105.727 81.4665 105.785 80.9994C105.785 80.5906 106.019 80.1234 106.369 79.9482C107.07 79.5394 107.713 79.8314 108.063 79.9482C108.355 80.065 108.531 80.1818 108.531 80.2402Z" fill="#EB996E"/>
<path d="M103.39 83.8609C103.39 83.8609 103.507 84.0361 103.39 84.3865C103.332 84.7369 103.04 85.2625 102.397 85.4961C101.754 85.7297 100.878 85.6129 100.236 85.0873C99.5348 84.5617 99.1259 83.6273 99.0091 82.6345C98.8923 81.6417 99.1259 80.7074 99.5348 80.0066C99.9437 79.2474 100.586 78.7802 101.112 78.4298C101.638 78.1378 102.163 77.9626 102.514 77.9626C102.864 77.9042 103.04 77.9626 103.04 77.9626C103.04 78.021 102.28 78.021 101.229 78.6634C100.761 79.0138 100.177 79.481 99.8268 80.1818C99.4764 80.8826 99.2427 81.7585 99.3596 82.6345C99.4764 83.5105 99.8268 84.3281 100.411 84.8537C100.995 85.3793 101.754 85.4961 102.28 85.3209C102.806 85.1457 103.098 84.7369 103.215 84.4449C103.39 84.0945 103.332 83.8609 103.39 83.8609Z" fill="#EB996E"/>
<path d="M110.691 89.584C110.691 89.5256 111.042 89.4672 111.626 89.5256C112.21 89.584 113.028 89.8176 113.787 90.5184L113.495 90.6352C113.495 90.2264 113.495 89.7592 113.554 89.3504C113.846 86.8392 115.014 85.0289 115.131 85.1457C115.248 85.2041 114.255 86.956 113.963 89.4088C113.904 89.876 113.904 90.2848 113.846 90.6936V91.1024L113.554 90.8104C112.911 90.168 112.152 89.876 111.626 89.7592C111.042 89.6424 110.691 89.6424 110.691 89.584Z" fill="#EB996E"/>
<path d="M108.764 73.2323C108.881 73.2907 108.589 73.9915 107.771 74.4587C106.953 74.9259 106.194 74.8091 106.194 74.6923C106.194 74.5755 106.895 74.5171 107.596 74.1083C108.238 73.7579 108.647 73.1739 108.764 73.2323Z" fill="#EB996E"/>
<path d="M150.996 73.2323C150.996 73.2323 150.763 73.4659 150.412 73.9331C150.062 74.4003 149.419 75.0427 149.069 76.0938C148.952 76.3274 148.952 76.6194 148.893 76.9114C148.893 77.2034 148.952 77.4954 149.127 77.7874C149.419 78.3714 150.062 78.7802 150.821 79.0138C152.281 79.5394 154.15 79.7146 156.136 79.773C157.129 79.773 158.239 79.8314 159.349 79.8898C159.933 79.9482 160.459 80.0066 161.043 80.065C161.627 80.1234 162.211 80.2986 162.796 80.4154C165.132 80.941 167.644 81.8753 169.805 83.5105C170.915 84.3281 171.908 85.3793 172.726 86.5473C172.901 86.8393 173.134 87.1896 173.251 87.4816C173.427 87.832 173.543 88.1824 173.66 88.4744C173.894 89.1752 174.127 89.876 174.244 90.6352C174.828 93.5551 174.361 96.8255 172.842 99.6286C171.324 102.432 168.754 104.476 165.95 105.527C164.548 106.053 163.088 106.345 161.627 106.403C160.167 106.461 158.765 106.169 157.48 105.877C156.136 105.585 154.91 105.293 153.683 105.177C152.457 105.118 151.23 105.293 150.237 105.761C149.185 106.286 148.368 107.045 147.667 107.863C146.966 108.68 146.323 109.556 145.681 110.374C144.454 112.009 143.169 113.411 141.709 114.17C140.949 114.52 140.19 114.754 139.489 114.754C138.788 114.754 138.145 114.637 137.62 114.404C137.094 114.17 136.627 113.878 136.335 113.586C135.984 113.294 135.809 112.944 135.692 112.652C135.459 112.068 135.458 111.776 135.458 111.776C135.517 111.776 135.517 112.068 135.751 112.593C135.867 112.827 136.101 113.177 136.393 113.411C136.744 113.703 137.152 113.936 137.678 114.17C138.73 114.579 140.19 114.637 141.533 113.878C142.935 113.119 144.162 111.717 145.33 110.082C145.914 109.264 146.557 108.388 147.258 107.512C148.017 106.695 148.893 105.819 150.003 105.293C151.113 104.709 152.457 104.534 153.742 104.593C155.027 104.651 156.37 105.001 157.655 105.235C158.94 105.527 160.284 105.761 161.686 105.702C163.029 105.644 164.431 105.352 165.775 104.885C168.461 103.892 170.915 101.906 172.375 99.2782C173.835 96.5919 174.244 93.4967 173.719 90.6936C173.602 89.9928 173.368 89.292 173.134 88.6496C173.018 88.2992 172.901 88.0072 172.726 87.7152C172.55 87.4232 172.375 87.1312 172.2 86.8393C171.441 85.7297 170.506 84.7369 169.455 83.9193C167.352 82.2841 164.957 81.4081 162.679 80.8242C162.095 80.7074 161.51 80.5322 160.985 80.4738C160.401 80.4154 159.875 80.357 159.291 80.2402C158.181 80.1818 157.129 80.1234 156.136 80.065C154.092 80.0066 152.223 79.8314 150.704 79.189C149.945 78.897 149.244 78.4298 148.893 77.7874C148.718 77.437 148.66 77.0866 148.66 76.7362C148.66 76.3858 148.777 76.0938 148.835 75.8019C149.244 74.6923 149.945 74.0499 150.295 73.6411C150.704 73.4075 150.996 73.2323 150.996 73.2323Z" fill="#FAFAFA"/>
<path d="M195.448 112.184C195.448 112.184 195.273 111.717 195.156 110.9C195.039 110.024 195.039 108.739 195.389 107.22C195.74 105.702 196.499 103.95 197.668 102.257C198.836 100.563 200.53 98.9862 202.574 97.7599C204.619 96.5335 206.78 95.8327 208.824 95.4239C210.81 95.0151 212.68 94.8983 214.198 94.8399C215.717 94.8399 217.002 94.8983 217.82 95.0151C218.696 95.1319 219.163 95.1903 219.163 95.2487C219.163 95.3655 217.236 95.1319 214.198 95.2487C212.68 95.3071 210.869 95.4823 208.883 95.9495C206.955 96.3583 204.852 97.1175 202.808 98.2854C200.822 99.4534 199.245 101.03 198.076 102.607C196.908 104.242 196.149 105.877 195.798 107.337C195.389 108.797 195.331 110.024 195.389 110.9C195.389 111.717 195.506 112.184 195.448 112.184Z" fill="#FAFAFA"/>
<path d="M227.341 122.346C227.341 122.346 227.166 122.755 226.64 123.397C226.173 124.039 225.355 124.857 224.303 125.791C223.194 126.726 221.792 127.719 220.098 128.478C218.404 129.295 216.359 129.938 214.198 130.171C212.037 130.405 209.934 130.288 208.065 129.879C206.196 129.471 204.619 128.887 203.333 128.244C202.048 127.602 201.114 126.959 200.471 126.434C199.829 125.967 199.537 125.616 199.537 125.616C199.595 125.499 200.939 126.667 203.509 127.835C206.02 129.003 209.876 130.055 214.14 129.529C218.345 129.003 221.909 127.076 224.07 125.383C226.231 123.689 227.283 122.229 227.341 122.346Z" fill="#FAFAFA"/>
<path d="M198.018 120.477C198.018 120.477 197.843 120.535 197.492 120.711C197.142 120.827 196.674 121.119 196.149 121.587C195.681 122.054 195.156 122.813 194.805 123.747C194.455 124.682 194.104 125.791 193.871 127.018C193.578 128.244 193.403 129.646 192.936 131.106C192.702 131.806 192.352 132.566 191.943 133.266C191.476 133.967 190.892 134.61 190.249 135.194C188.905 136.303 187.212 137.121 185.401 137.646C183.59 138.172 181.721 138.464 179.793 138.873C175.996 139.574 172.492 140.975 169.805 143.019C168.461 144.012 167.351 145.18 166.475 146.348C165.599 147.574 165.015 148.801 164.548 150.027C163.73 152.421 163.73 154.524 163.905 155.925C164.139 157.327 164.431 158.086 164.372 158.086C164.372 158.086 164.255 157.911 164.139 157.56C164.08 157.385 163.963 157.152 163.905 156.918C163.788 156.626 163.73 156.334 163.671 155.984C163.379 154.582 163.321 152.421 164.139 149.91C164.548 148.684 165.19 147.341 166.008 146.114C166.884 144.888 168.052 143.661 169.396 142.61C172.141 140.508 175.704 138.99 179.618 138.289C181.546 137.938 183.415 137.646 185.167 137.121C186.919 136.595 188.555 135.894 189.782 134.843C190.424 134.318 190.95 133.734 191.417 133.091C191.826 132.449 192.177 131.748 192.41 131.047C192.878 129.646 193.111 128.244 193.403 127.018C193.695 125.733 194.046 124.623 194.455 123.689C194.864 122.755 195.389 121.995 195.973 121.47C196.499 121.003 197.083 120.711 197.434 120.652C197.784 120.477 198.018 120.477 198.018 120.477Z" fill="#FAFAFA"/>
<path d="M182.364 118.024C182.364 118.024 182.597 118.433 182.656 119.192C182.714 120.01 182.539 121.236 181.721 122.404C181.312 122.988 180.728 123.572 179.969 123.981C179.618 124.215 179.151 124.331 178.684 124.448C178.216 124.507 177.749 124.565 177.282 124.507C176.289 124.39 175.296 124.039 174.478 123.397C173.66 122.755 172.959 121.82 172.667 120.711C172.492 120.01 172.492 119.251 172.667 118.55C172.842 117.849 173.193 117.207 173.602 116.739C174.011 116.214 174.419 115.747 174.887 115.338C175.12 115.104 175.354 114.929 175.646 114.754C175.938 114.579 176.23 114.462 176.581 114.462L176.639 114.988C176.522 114.988 176.464 115.046 176.347 115.046L176.23 114.52C177.398 114.17 178.567 114.345 179.443 114.696C180.378 115.046 181.02 115.572 181.487 116.097C181.955 116.623 182.188 117.09 182.305 117.44C182.364 117.849 182.364 118.024 182.364 118.024C182.305 118.083 182.13 117.265 181.195 116.331C180.728 115.864 180.085 115.396 179.209 115.104C178.391 114.812 177.34 114.696 176.289 115.046L176.172 114.52C176.289 114.52 176.347 114.462 176.464 114.462L176.522 114.988C176.113 115.046 175.646 115.396 175.237 115.747C174.828 116.156 174.419 116.564 174.069 117.09C173.718 117.615 173.368 118.083 173.251 118.725C173.134 119.309 173.134 119.951 173.31 120.594C173.543 121.587 174.127 122.404 174.887 122.988C175.646 123.572 176.522 123.923 177.398 124.039C177.807 124.098 178.275 124.098 178.684 124.039C179.092 123.981 179.501 123.864 179.793 123.631C180.494 123.28 181.02 122.755 181.429 122.229C182.247 121.119 182.48 120.01 182.48 119.251C182.422 118.491 182.305 118.024 182.364 118.024Z" fill="#FAFAFA"/>
<path d="M144.688 98.9279C144.688 98.9279 144.688 98.9863 144.688 99.1031C144.688 99.2199 144.688 99.3951 144.688 99.5702C144.688 99.979 144.629 100.563 144.629 101.322C144.512 102.841 144.454 105.06 144.337 107.805C144.104 113.294 143.87 120.827 143.695 129.179C143.519 137.53 143.403 145.121 143.344 150.553C143.286 153.297 143.286 155.458 143.227 157.035C143.227 157.794 143.227 158.378 143.169 158.787C143.169 158.962 143.169 159.137 143.169 159.254C143.169 159.371 143.169 159.429 143.169 159.429C143.169 159.429 143.169 159.371 143.169 159.254C143.169 159.137 143.169 158.962 143.169 158.787C143.169 158.378 143.169 157.794 143.169 157.035C143.169 155.458 143.169 153.297 143.169 150.553C143.169 145.063 143.286 137.53 143.461 129.179C143.636 120.827 143.87 113.236 144.162 107.805C144.337 105.06 144.454 102.841 144.571 101.322C144.629 100.563 144.688 99.979 144.688 99.5702C144.688 99.3951 144.746 99.2199 144.746 99.1031C144.629 98.9863 144.688 98.9279 144.688 98.9279Z" fill="#263238"/>
<g opacity="0.2">
<path opacity="0.2" d="M133.531 153.239C136.802 154.816 141.066 151.779 142.702 148.625C142.702 148.625 143.578 141.559 143.461 137.938C143.227 131.281 143.753 124.623 143.519 117.966C142.994 121.937 141.358 125.733 138.729 128.828C138.029 129.646 137.211 130.522 136.919 131.573C136.451 133.5 137.912 136.946 138.846 138.698C141.767 144.012 135.4 153.297 133.706 153.122" fill="black"/>
</g>
<g opacity="0.2">
<path opacity="0.2" d="M194.513 109.673C195.565 122.988 196.674 136.303 197.726 149.618C197.843 150.903 197.96 152.188 198.427 153.297C198.894 154.465 199.887 155.516 201.114 155.75C202.983 156.159 204.852 154.524 205.378 152.655C205.904 150.786 205.495 148.801 205.027 146.932C204.21 143.72 203.333 140.566 202.457 137.413C199.829 128.244 197.259 119.017 194.63 109.848" fill="black"/>
</g>
<path d="M157.889 177.883C157.831 177.825 158.415 177.241 158.765 175.781C159.116 174.321 158.882 172.102 157.772 169.707C157.247 168.481 156.429 167.255 155.669 165.853C154.91 164.451 154.092 162.933 153.683 161.123C153.275 159.312 153.508 157.327 154.092 155.458C154.676 153.589 155.494 151.72 156.195 149.852C157.655 146.056 157.597 142.026 156.487 138.698C155.962 137.004 155.202 135.544 154.268 134.259C153.333 132.974 152.34 131.923 151.289 131.106C149.244 129.412 147.2 128.536 145.798 128.069C144.396 127.602 143.578 127.485 143.578 127.427C143.578 127.427 143.812 127.427 144.162 127.485C144.571 127.543 145.155 127.66 145.856 127.894C147.317 128.302 149.419 129.178 151.522 130.872C152.574 131.748 153.683 132.799 154.618 134.084C155.553 135.369 156.37 136.946 156.955 138.639C157.539 140.333 157.831 142.26 157.831 144.245C157.831 146.231 157.422 148.275 156.721 150.202C156.02 152.129 155.144 153.998 154.618 155.808C154.034 157.619 153.859 159.488 154.209 161.181C154.56 162.875 155.319 164.393 156.078 165.795C156.838 167.196 157.597 168.423 158.123 169.707C159.233 172.219 159.349 174.554 158.941 176.014C158.765 176.774 158.415 177.299 158.24 177.591C158.064 177.708 157.889 177.883 157.889 177.883Z" fill="#FAFAFA"/>
<path d="M212.738 81.8169C212.738 81.8169 212.622 82.2841 212.154 82.9849C211.687 83.6857 210.869 84.6201 209.642 85.4377C208.357 86.2553 206.663 86.8977 204.677 87.0728C202.691 87.248 200.472 86.956 198.31 86.2553C196.149 85.5545 194.163 84.5033 192.761 83.0433C192.06 82.3425 191.535 81.5249 191.126 80.7074C190.775 79.8898 190.542 79.0722 190.483 78.313C190.366 76.7946 190.717 75.5683 191.126 74.8091C191.243 74.6339 191.301 74.4587 191.418 74.3419C191.535 74.2251 191.593 74.1083 191.651 74.0499C191.827 73.8747 191.885 73.8163 191.885 73.8163C191.944 73.8747 191.651 74.2251 191.301 74.9259C190.951 75.6267 190.658 76.853 190.892 78.2546C191.009 78.9554 191.184 79.7146 191.535 80.4738C191.885 81.233 192.411 81.9337 193.112 82.6345C194.455 83.9777 196.324 85.0289 198.427 85.6713C200.53 86.3721 202.633 86.6641 204.561 86.4889C206.488 86.3721 208.124 85.7881 209.35 85.0289C210.577 84.2697 211.453 83.4521 211.921 82.8097C212.446 82.1673 212.68 81.7585 212.738 81.8169Z" fill="#FAFAFA"/>
<path d="M204.735 144.596C204.735 144.596 204.735 144.537 204.677 144.421C204.619 144.304 204.56 144.129 204.502 143.953C204.385 143.486 204.21 142.844 203.918 142.085C203.45 140.391 202.749 138.055 201.932 135.135C200.296 129.237 198.018 121.119 195.506 112.126C194.28 107.629 193.053 103.366 192.002 99.4534C191.476 97.5263 191.008 95.5991 190.775 93.8471C190.541 92.0368 190.541 90.3432 190.775 88.8248C191.301 85.7881 192.761 83.5689 194.104 82.4593C194.747 81.8753 195.331 81.5833 195.74 81.3498C195.915 81.2914 196.09 81.1746 196.207 81.1746C196.324 81.1162 196.382 81.1161 196.382 81.1161C196.382 81.1745 195.448 81.4081 194.163 82.5761C192.936 83.6857 191.476 85.8465 191.008 88.8832C190.775 90.4016 190.833 92.0368 191.067 93.8471C191.301 95.5991 191.768 97.4679 192.352 99.4534C193.462 103.366 194.63 107.629 195.915 112.126C198.427 121.119 200.647 129.237 202.282 135.135C203.1 138.055 203.742 140.449 204.151 142.143C204.385 142.961 204.56 143.603 204.677 144.07C204.735 144.304 204.794 144.421 204.794 144.596C204.735 144.537 204.735 144.596 204.735 144.596Z" fill="#263238"/>
<path d="M180.962 15.3005C180.903 15.3005 181.079 14.8333 180.962 14.0741C180.845 13.315 180.436 12.147 179.326 11.1542C178.275 10.1614 176.581 9.57743 174.653 9.63583C172.726 9.63583 170.74 10.2782 168.637 10.979C167.585 11.3294 166.534 11.6798 165.483 11.9134C164.431 12.147 163.438 12.2638 162.445 12.2638C160.518 12.3222 158.765 12.0302 157.363 11.6214C155.961 11.2126 154.91 10.687 154.151 10.2782C153.8 10.103 153.508 9.92782 153.333 9.81102C153.158 9.69423 153.041 9.63583 153.099 9.63583C153.099 9.63583 153.508 9.86942 154.209 10.2198C154.91 10.5702 156.02 11.0958 157.422 11.4462C158.824 11.7966 160.518 12.0886 162.445 12.0302C163.38 11.9718 164.373 11.855 165.424 11.6798C166.417 11.4462 167.469 11.0958 168.52 10.7454C170.623 10.0446 172.667 9.40223 174.653 9.40223C176.581 9.34383 178.392 9.98622 179.443 11.0374C180.553 12.0302 180.962 13.2566 181.02 14.0741C181.137 14.8333 180.962 15.3005 180.962 15.3005Z" fill="#455A64"/>
<path d="M188.964 32.7618C188.964 32.7618 188.906 32.7034 188.847 32.5282C188.789 32.4114 188.672 32.1778 188.555 31.8858C188.321 31.3018 187.971 30.4259 187.737 29.3163C187.504 28.2067 187.328 26.8051 187.445 25.3452C187.562 23.8268 188.029 22.25 188.38 20.5564C188.73 18.8629 188.847 17.2277 188.38 15.8261C188.146 15.1253 187.796 14.4829 187.387 14.0158C186.978 13.5486 186.394 13.1982 185.926 13.023C184.875 12.6726 183.94 12.8478 183.356 13.0814C182.831 13.3734 182.597 13.6654 182.539 13.6654C182.539 13.6654 182.714 13.315 183.298 13.023C183.882 12.731 184.875 12.4974 185.985 12.8478C186.511 13.023 187.095 13.3734 187.562 13.8406C188.029 14.3661 188.38 15.0085 188.613 15.7093C189.081 17.1693 189.022 18.9213 188.613 20.6148C188.263 22.3084 187.796 23.8852 187.679 25.3452C187.562 26.8051 187.679 28.1483 187.854 29.2579C188.088 30.3675 188.38 31.2434 188.555 31.8274C188.847 32.4114 189.022 32.7618 188.964 32.7618Z" fill="#455A64"/>
<path d="M181.955 14.483C181.955 14.483 181.955 14.3662 181.955 14.0742C181.955 13.7822 181.955 13.3734 182.013 12.9062C182.013 11.9134 182.071 10.395 181.546 8.64308C181.254 7.7671 180.845 6.83271 180.144 6.01513C179.501 5.19754 178.508 4.49675 177.398 4.20476C176.23 3.91276 174.945 4.02956 173.718 4.37996C172.433 4.73035 171.265 5.37274 170.038 6.07353C168.812 6.77431 167.644 7.4751 166.358 7.94229C165.132 8.40948 163.788 8.70148 162.562 8.70148C161.335 8.70148 160.167 8.58468 159.115 8.29269C158.064 8.00069 157.129 7.5919 156.312 7.12471C154.676 6.19032 153.625 5.08074 152.982 4.26316C152.632 3.85437 152.456 3.50397 152.281 3.27038C152.164 3.03678 152.047 2.91998 152.106 2.91998C152.106 2.91998 152.223 3.03678 152.34 3.27038C152.515 3.50397 152.69 3.79597 153.04 4.20476C153.683 4.96395 154.793 6.01513 156.37 6.94951C157.188 7.3583 158.122 7.7671 159.115 8.05909C160.167 8.35109 161.277 8.46788 162.503 8.46788C163.73 8.40948 164.957 8.17589 166.183 7.7087C167.41 7.24151 168.578 6.54072 169.805 5.83993C171.031 5.13914 172.258 4.49675 173.543 4.14636C174.828 3.79597 176.172 3.67917 177.398 4.02956C178.625 4.32156 179.618 5.13914 180.319 5.95673C181.02 6.83271 181.429 7.7671 181.721 8.64308C182.247 10.4534 182.13 11.9718 182.13 13.023C182.071 13.5486 182.071 13.9574 182.013 14.191C181.955 14.3078 181.955 14.483 181.955 14.483Z" fill="#455A64"/>
<path d="M166.534 160.48L210.226 153.94L209.525 150.027H233.007L233.708 155.984C235.811 167.079 227.4 177.358 216.126 177.474L165.19 176.89L166.534 160.48Z" fill="#FFBE9D"/>
<path d="M169.63 161.24C169.396 161.298 166.475 160.013 163.788 158.787C160.985 157.502 157.947 156.918 154.851 157.035L142.702 157.677C142.702 157.677 143.461 159.663 144.746 160.364C146.031 161.064 153.566 161.24 153.566 161.24L153.157 161.648C151.58 163.283 149.419 164.218 147.141 164.276L145.973 164.335C145.096 164.276 144.279 164.101 143.461 163.867L140.482 162.641C139.547 162.232 138.613 162.291 138.204 163.225C137.853 164.043 138.087 165.211 140.599 166.437C142.001 167.138 147.082 168.89 147.082 168.89C147.082 168.89 147.141 170.291 147.375 171.051C147.608 171.81 149.594 172.569 149.594 172.569C149.594 172.569 150.879 175.197 151.405 175.781C151.639 176.073 153.449 176.598 155.377 177.182C158.531 178.058 161.802 178.058 164.957 177.124L169.571 175.722V161.648" fill="#FFBE9D"/>
<path d="M153.041 170.467C153.041 170.525 151.58 170.467 149.886 169.999C148.192 169.532 146.907 168.89 146.907 168.831C146.966 168.773 148.251 169.24 149.945 169.707C151.639 170.116 153.041 170.35 153.041 170.467Z" fill="#EB996E"/>
<path d="M152.632 173.27C152.632 173.328 151.873 173.386 150.938 173.153C150.003 172.919 149.361 172.452 149.419 172.394C149.478 172.335 150.12 172.627 151.055 172.861C151.873 173.094 152.632 173.211 152.632 173.27Z" fill="#EB996E"/>
<path d="M221.734 164.159C221.675 164.159 221.383 163.342 220.682 162.057C220.332 161.415 219.864 160.714 219.28 159.896C218.696 159.137 217.995 158.378 217.177 157.619C216.36 156.86 215.484 156.276 214.666 155.75C213.848 155.283 213.089 154.874 212.388 154.582C211.044 153.998 210.168 153.823 210.168 153.764C210.168 153.764 210.402 153.764 210.811 153.881C210.986 153.94 211.278 153.998 211.511 154.056C211.804 154.173 212.096 154.232 212.446 154.348C213.147 154.582 213.965 154.991 214.783 155.458C215.6 155.984 216.477 156.568 217.353 157.327C218.17 158.086 218.93 158.904 219.514 159.663C220.098 160.48 220.565 161.181 220.857 161.882C221.033 162.232 221.149 162.524 221.266 162.758C221.383 163.05 221.5 163.283 221.558 163.459C221.675 163.926 221.734 164.159 221.734 164.159Z" fill="#EB996E"/>
<path d="M154.851 160.13C154.851 160.13 154.559 160.539 153.917 161.123C153.274 161.707 152.398 162.466 151.288 163.108C150.178 163.751 149.01 164.159 148.192 164.276C147.374 164.451 146.849 164.451 146.849 164.451C146.849 164.335 148.951 164.159 151.171 162.816C152.281 162.174 153.157 161.473 153.8 160.889C154.384 160.422 154.793 160.13 154.851 160.13Z" fill="#EB996E"/>
<path d="M29.1475 146.289C30.1989 146.289 21.2034 170.467 18.8669 176.598C18.6332 177.299 18.458 177.883 18.458 177.883L81.4265 178L80.6672 119.426C80.6672 119.367 80.6672 119.367 80.6672 119.309L75.4101 77.3786C75.3517 76.9698 75.0596 76.6194 74.6507 76.5026C72.139 75.8019 63.1435 73.5243 56.3092 73.2323C48.2483 72.9403 36.5658 74.5171 36.5658 74.5171C36.5658 74.5171 26.11 75.5683 20.3272 77.6706C19.8599 77.8458 19.5678 78.313 19.6263 78.7802L29.1475 146.289Z" fill="#85BC91"/>
<path d="M58.2366 120.302C58.2366 120.302 58.1197 120.594 57.9445 121.061C57.8277 121.295 57.7109 121.587 57.4772 121.937C57.302 122.287 57.0683 122.638 56.8347 123.047C56.5426 123.455 56.2506 123.864 55.9001 124.273C55.5496 124.74 55.1407 125.149 54.7318 125.616C53.8556 126.492 52.8042 127.426 51.5776 128.186C50.3509 129.003 49.1242 129.587 47.956 130.054C47.3719 130.288 46.7877 130.463 46.262 130.58C45.7363 130.755 45.2106 130.814 44.7433 130.93C44.276 131.047 43.8671 131.047 43.4582 131.106C43.1078 131.164 42.7573 131.164 42.4652 131.164C41.9395 131.164 41.6475 131.164 41.6475 131.164C41.6475 131.106 42.8157 131.106 44.6849 130.755C45.1522 130.638 45.6195 130.522 46.1452 130.405C46.6709 130.288 47.255 130.054 47.8392 129.821C49.0074 129.354 50.2341 128.77 51.4023 127.952C52.5706 127.134 53.622 126.259 54.5566 125.441C54.9655 124.974 55.3744 124.565 55.7248 124.156C56.0753 123.747 56.3674 123.339 56.6594 122.93C57.7109 121.353 58.1782 120.302 58.2366 120.302Z" fill="#263238"/>
<g opacity="0.2">
<path opacity="0.2" d="M20.6191 172.043C26.5772 174.554 33.4699 173.562 38.6686 169.766C40.9466 168.131 42.8743 165.97 45.2692 164.568C48.6571 162.699 52.746 162.466 56.6012 162.232C61.7999 161.882 67.057 161.24 71.9052 159.429C72.8982 159.079 73.8912 158.612 74.5922 157.794C75.2931 156.976 75.4684 155.692 74.8258 154.874C74.1249 154.056 72.8982 153.998 71.8468 153.998C55.5497 154.465 40.6546 155.808 24.8248 159.546" fill="black"/>
</g>
<path d="M38.1431 13.023C43.1665 7.88385 51.1106 4.84711 57.7112 7.76705C62.1506 9.69422 65.1296 13.8405 69.0432 16.7021C71.847 18.8045 75.3518 20.3812 76.8705 23.5932C78.1556 26.3963 77.5714 29.6667 77.221 32.7618C76.9289 35.8569 77.1041 39.4193 79.499 41.4049C80.7257 42.456 82.4197 42.8648 83.8216 43.6824C86.6838 45.3176 88.3777 48.4711 88.9618 51.6831C89.546 54.895 89.2539 58.2237 88.9034 61.4941L75.3518 64.0636L73.1321 60.3261L72.3727 66.2244L55.0242 67.7428L38.1431 13.023Z" fill="#263238"/>
<path d="M35.9234 18.5709L35.865 22.3668L34.8136 78.897C34.6968 85.4377 41.0053 91.044 48.0148 91.1024C55.0827 91.1608 58.0033 85.8465 58.1786 79.189C58.4122 72.2395 58.7627 64.9397 58.7627 64.9397C58.7627 64.9397 67.7582 63.7133 69.9195 52.0919C71.0293 46.3104 70.9709 36.7914 70.6788 28.9659C70.4452 21.958 64.3703 16.5269 57.4192 17.1109L35.9234 18.5709Z" fill="#FFBE9D"/>
<path d="M67.6416 36.4409C67.6416 37.2585 66.9991 37.9009 66.1813 37.9009C65.3635 37.9009 64.6626 37.3169 64.6626 36.4993C64.6626 35.6818 65.3051 35.0394 66.1229 35.0394C66.9407 35.0394 67.6416 35.6818 67.6416 36.4409Z" fill="#263238"/>
<path d="M68.5178 33.8714C68.3426 34.0466 67.2327 33.1706 65.5972 33.1706C63.9616 33.1122 62.7934 33.9298 62.6182 33.6962C62.5597 33.5794 62.735 33.2874 63.2607 32.8786C63.7864 32.5282 64.6626 32.1778 65.6556 32.2362C66.6486 32.2946 67.4664 32.645 67.9921 33.0538C68.4594 33.4042 68.5762 33.7546 68.5178 33.8714Z" fill="#263238"/>
<path d="M51.753 36.4409C51.753 37.2585 51.1104 37.9009 50.2926 37.9009C49.4749 37.9009 48.7739 37.3169 48.7739 36.4993C48.7739 35.6818 49.4165 35.0394 50.2342 35.0394C51.052 35.0394 51.753 35.6818 51.753 36.4409Z" fill="#263238"/>
<path d="M52.6877 33.6962C52.5125 33.8714 51.4027 32.9954 49.7671 32.9954C48.1316 32.937 46.9633 33.7546 46.7881 33.521C46.7297 33.4042 46.9049 33.1122 47.4306 32.7034C47.9563 32.353 48.8325 32.0026 49.8255 32.061C50.8185 32.1194 51.6363 32.4698 52.162 32.8786C52.5709 33.2874 52.7461 33.6378 52.6877 33.6962Z" fill="#263238"/>
<path d="M58.1787 45.8432C58.1787 45.7264 59.1717 45.6096 60.8073 45.4344C61.2162 45.376 61.6251 45.3176 61.6835 45.0256C61.8003 44.7336 61.6251 44.2664 61.4498 43.7992C61.0993 42.8065 60.6905 41.7553 60.34 40.6457C58.7628 36.149 57.653 32.4115 57.8282 32.3531C58.0035 32.2947 59.4054 35.9154 60.9825 40.4121C61.333 41.5217 61.7419 42.5729 62.0339 43.624C62.1508 44.0912 62.4428 44.6168 62.2092 45.2592C62.0924 45.5512 61.8003 45.7848 61.5082 45.8432C61.2162 45.9016 60.9825 45.9016 60.8073 45.9016C59.1717 45.96 58.1787 45.9016 58.1787 45.8432Z" fill="#263238"/>
<path d="M58.7628 64.9396C58.7628 64.9396 50.8771 65.2316 43.2251 60.3261C43.2251 60.3261 46.7882 68.4436 58.5291 67.6844L58.7628 64.9396Z" fill="#EB996E"/>
<path d="M57.419 49.6975C56.8349 48.9384 55.8419 48.4712 54.8488 48.5296C54.1479 48.588 53.4469 48.88 52.9796 49.4639C52.5123 50.0479 52.4539 50.8071 52.8044 51.3911C53.2133 52.0335 54.1479 52.2087 54.9073 51.9751C55.6666 51.7999 56.3676 51.2743 57.0101 50.8071C57.1853 50.6903 57.3606 50.5151 57.4774 50.3399C57.5942 50.1647 57.5942 49.9311 57.4774 49.7559" fill="#EB996E"/>
<path d="M53.3887 46.836C53.6224 46.836 53.6224 48.588 55.0827 49.8728C56.543 51.1575 58.4122 51.0407 58.4122 51.2743C58.4122 51.3911 58.0033 51.6247 57.1855 51.6247C56.4262 51.6247 55.3163 51.3327 54.3818 50.5735C53.5056 49.8144 53.0967 48.7632 53.0967 48.0624C53.0967 47.2448 53.2719 46.7776 53.3887 46.836Z" fill="#263238"/>
<path d="M53.1552 29.0243C52.9799 29.4331 51.4028 29.1995 49.4752 29.3747C47.5476 29.4915 46.0289 30.0171 45.7952 29.6083C45.6784 29.4331 45.9705 29.0243 46.613 28.6155C47.2555 28.2067 48.2485 27.8563 49.3584 27.7395C50.4682 27.6227 51.5196 27.8563 52.2206 28.1483C52.9215 28.4403 53.272 28.7907 53.1552 29.0243Z" fill="#263238"/>
<path d="M68.5759 30.6011C68.2254 30.9515 66.882 30.5427 65.2464 30.4843C63.6109 30.3675 62.2674 30.6595 61.9169 30.2507C61.8001 30.0755 62.0337 29.7251 62.6178 29.3747C63.202 29.0243 64.195 28.7907 65.3632 28.8491C66.4731 28.9075 67.4661 29.2579 67.9918 29.6667C68.5759 30.0171 68.7512 30.4259 68.5759 30.6011Z" fill="#263238"/>
<path d="M23.8904 76.6779C23.8904 76.6779 5.08157 81.0578 1.46 98.8695C-0.233959 107.045 -2.57045 154.056 8.41107 161.356C22.5469 170.759 40.4795 162.232 40.4795 162.232L38.2014 139.515H26.5189L24.9418 114.637C25.3507 116.506 23.8904 76.6779 23.8904 76.6779Z" fill="#85BC91"/>
<path d="M90.714 154.874C94.3356 154.524 97.8403 152.713 100.235 149.91C102.63 147.165 103.915 143.428 103.74 139.807L96.088 107.22C96.088 107.22 91.1229 79.2474 75.3516 76.7362L80.7255 119.367L80.1998 128.361C80.1998 128.361 80.4334 134.318 81.076 145.472L90.714 154.874Z" fill="#85BC91"/>
<path d="M92.7001 134.493C92.7001 134.551 91.5902 134.434 89.8963 134.785C88.2023 135.135 85.8658 136.07 83.9966 137.997C82.1274 139.924 81.1928 142.26 80.9008 144.012C80.5503 145.764 80.7255 146.873 80.6671 146.873C80.6671 146.873 80.6087 146.581 80.5503 146.114C80.5503 145.589 80.5503 144.888 80.6671 144.012C80.9592 142.26 81.8354 139.807 83.763 137.822C85.6906 135.836 88.1439 134.902 89.8379 134.61C90.7141 134.434 91.415 134.434 91.9407 134.434C92.4664 134.434 92.7001 134.493 92.7001 134.493Z" fill="#263238"/>
<path d="M44.2763 11.6798C46.3791 14.5413 47.3721 16.7021 48.6572 21.7244C49.2997 24.1772 47.2553 25.9291 45.2693 27.4475C44.3347 28.1483 42.9912 27.6811 42.6991 26.5131C42.6991 26.5131 43.4001 34.2218 40.5963 37.7257C39.3112 39.3609 39.2528 41.4633 39.5449 43.2152C39.8369 45.0256 40.7715 46.6024 42.0566 47.9455C45.3277 51.3327 46.2039 56.939 43.9842 61.0853C43.4001 62.1365 42.6407 63.1293 42.2318 64.2389C41.9982 64.8812 41.823 65.582 41.8814 66.2828C41.9398 67.1588 41.3557 67.8596 40.4795 68.0348C30.8998 69.4364 21.145 69.7284 11.4485 68.9108C10.7476 68.8524 10.1635 68.3852 10.0466 67.6844C9.28727 64.4725 10.5723 60.9685 12.1495 58.0486C13.9603 54.7782 16.2383 51.5663 16.8809 47.8871C17.465 44.3832 16.5304 40.6457 17.9323 37.3753C19.6263 33.4042 24.3577 31.477 26.6942 27.8563C28.9138 24.4108 28.7386 19.8557 30.7246 16.2933C33.1779 11.7382 39.4281 9.57744 44.2763 11.6798Z" fill="#263238"/>
<path d="M44.8018 16.0013C48.4817 17.8701 50.1757 22.3668 53.7389 24.4108C57.01 26.2796 61.0404 25.8124 64.7788 25.2284C64.662 24.4108 64.4867 23.5932 64.3699 22.7756C64.7204 23.4764 65.1293 24.2356 65.7718 24.7612C66.3559 25.2868 67.2905 25.5788 68.0499 25.2868C69.2766 24.7612 69.4518 23.0676 69.1597 21.7828C68.634 19.6805 67.4074 17.8117 65.8886 16.2933C63.1433 13.4902 59.3465 11.7382 55.4912 11.4462C51.5192 11.1542 47.4887 12.2638 44.3345 14.5998" fill="#263238"/>
<path d="M79.265 99.103C79.265 99.103 79.265 99.2782 79.3234 99.5702C79.3234 99.9206 79.3234 100.329 79.3818 100.913C79.3818 102.081 79.4402 103.717 79.5571 105.761C79.7323 109.848 80.0828 115.455 80.5501 121.703C81.0174 127.952 81.3678 133.558 81.4847 137.646C81.5431 139.69 81.5431 141.325 81.5431 142.493C81.5431 143.019 81.5431 143.486 81.5431 143.837C81.5431 144.129 81.5431 144.304 81.5431 144.304C81.5431 144.304 81.5431 144.129 81.4847 143.837C81.4847 143.486 81.4847 143.077 81.4263 142.493C81.4263 141.325 81.3679 139.69 81.251 137.646C81.0758 133.558 80.7253 127.952 80.258 121.703C79.7907 115.513 79.4402 109.848 79.3234 105.761C79.265 103.717 79.265 102.081 79.265 100.913C79.265 100.388 79.265 99.9206 79.265 99.5702C79.2066 99.2782 79.2066 99.103 79.265 99.103Z" fill="#263238"/>
<path d="M26.5189 139.457C26.5189 139.457 26.5189 139.34 26.4605 139.106C26.4605 138.873 26.402 138.522 26.402 138.172C26.3436 137.296 26.2852 136.128 26.2268 134.726C26.0516 131.806 25.8179 127.777 25.5259 123.339C25.2338 118.9 24.9417 114.929 24.7081 111.951C24.5913 110.549 24.5328 109.381 24.4744 108.505C24.4744 108.096 24.416 107.804 24.416 107.571C24.416 107.337 24.416 107.22 24.416 107.22C24.416 107.22 24.4744 107.337 24.4744 107.571C24.4744 107.804 24.5328 108.155 24.5913 108.505C24.6497 109.381 24.7665 110.549 24.9417 111.951C25.1754 114.871 25.5259 118.9 25.8179 123.339C26.11 127.777 26.3436 131.806 26.4605 134.726C26.5189 136.186 26.5773 137.354 26.5773 138.172C26.5773 138.581 26.5773 138.873 26.5773 139.106C26.5189 139.34 26.5189 139.457 26.5189 139.457Z" fill="#263238"/>
<path d="M26.5187 139.457C26.5187 139.515 25.9345 139.515 24.9999 139.865C24.0653 140.157 22.8971 140.8 21.9041 141.968C20.9695 143.077 20.5022 144.421 20.3854 145.355C20.2101 146.289 20.327 146.932 20.2685 146.932C20.2685 146.932 20.2101 146.757 20.1517 146.523C20.0933 146.231 20.0933 145.822 20.1517 145.355C20.2685 144.362 20.6774 142.961 21.6704 141.793C22.6635 140.625 23.9485 139.982 24.9415 139.69C25.4088 139.573 25.8177 139.515 26.1098 139.515C26.3434 139.457 26.5187 139.457 26.5187 139.457Z" fill="#263238"/>
<path d="M40.4795 162.174C40.4795 162.174 40.4211 162.057 40.4211 161.823C40.3627 161.531 40.3627 161.239 40.3043 160.772C40.1875 159.838 40.0706 158.553 39.8954 156.976C39.5449 153.706 39.0776 149.268 38.5519 144.362C38.3767 142.669 38.2014 141.033 38.0846 139.457L38.2014 139.573C34.463 139.573 31.192 139.515 28.8555 139.515C27.7456 139.515 26.811 139.457 26.1685 139.457C25.8764 139.457 25.6428 139.457 25.4675 139.457C25.2923 139.457 25.2339 139.457 25.2339 139.457C25.2339 139.457 25.2923 139.457 25.4675 139.457C25.6428 139.457 25.8764 139.457 26.1685 139.457C26.811 139.457 27.7456 139.457 28.8555 139.398C31.192 139.398 34.463 139.34 38.2014 139.34H38.3183V139.457C38.4935 140.975 38.6687 142.61 38.844 144.362C39.3113 149.268 39.7786 153.706 40.0706 156.976C40.1875 158.553 40.3043 159.838 40.4211 160.831C40.4795 161.239 40.4795 161.59 40.4795 161.882C40.4795 162.057 40.4795 162.174 40.4795 162.174Z" fill="#263238"/>
<path d="M40.4793 162.174C40.4793 162.174 40.304 162.232 40.012 162.349C39.7199 162.466 39.2526 162.583 38.7269 162.758C37.6171 163.108 35.9815 163.575 33.9955 164.159C31.9511 164.685 29.5562 165.269 26.8108 165.678C24.0654 166.087 20.9695 165.911 17.8153 165.269C16.2381 164.919 14.7194 164.51 13.3175 163.984C12.6166 163.751 11.9156 163.459 11.2147 163.167C10.8642 163.05 10.5721 162.875 10.2217 162.699L9.75437 162.466L9.28707 162.174C8.11882 161.415 7.18422 160.422 6.48327 159.429C5.78232 158.436 5.1982 157.385 4.7309 156.451C3.85472 154.524 3.329 152.947 2.97853 151.837C2.80329 151.253 2.68647 150.844 2.62806 150.552C2.56964 150.26 2.51123 150.085 2.51123 150.085C2.51123 150.085 2.56964 150.26 2.68647 150.552C2.80329 150.844 2.92012 151.312 3.09535 151.837C3.50424 152.947 4.02995 154.524 4.96455 156.392C5.43185 157.327 5.95756 158.32 6.71692 159.312C7.41787 160.305 8.35247 161.239 9.4623 161.999L9.87119 162.291L10.3385 162.524C10.6306 162.699 10.981 162.816 11.3315 162.933C11.974 163.225 12.675 163.459 13.3759 163.692C14.7778 164.159 16.2966 164.627 17.8153 164.919C20.9111 165.619 23.9486 165.795 26.694 165.386C29.4393 165.035 31.8342 164.451 33.8787 163.984C35.9231 163.459 37.5002 162.991 38.6685 162.699C39.1942 162.524 39.6615 162.407 39.9536 162.349C40.304 162.232 40.4793 162.174 40.4793 162.174Z" fill="#263238"/>
<path d="M30.5491 25.5203C31.7757 22.834 30.958 19.3884 28.8551 17.3445C26.6939 15.3005 23.4228 14.6581 20.5606 15.5341C19.2755 15.9429 18.1072 16.6437 17.3479 17.7533C15.8876 19.7388 16.1796 22.6588 17.6984 24.5859C19.1587 26.5131 21.6704 27.5643 24.0653 27.6811C26.5186 27.7979 28.9135 27.1555 31.1916 26.2211" fill="#263238"/>
<path d="M50.0011 118.141C54.09 121.528 63.728 129.47 63.728 129.47L69.102 128.536L52.8049 114.812C51.9287 114.053 50.6437 114.17 49.8259 114.988C48.8913 115.922 49.0081 117.382 50.0011 118.141Z" fill="#455A64"/>
<path d="M49.5338 116.389L47.4309 114.462C47.022 114.112 46.9636 113.469 47.3141 113.002C47.6646 112.535 48.3655 112.535 48.7744 112.885L50.8189 114.754L49.5338 116.389Z" fill="#455A64"/>
<path d="M55.8425 117.44C55.9009 117.499 55.3168 118.199 54.5574 119.075C53.7981 119.893 53.0971 120.535 53.0387 120.477C52.9803 120.419 53.5644 119.718 54.3238 118.842C55.0831 118.024 55.7841 117.382 55.8425 117.44Z" fill="#263238"/>
<path d="M56.0175 124.156C56.0175 124.215 55.375 123.806 54.382 123.105C53.3889 122.404 52.1039 121.411 50.702 120.185C50.001 119.601 49.3001 118.959 49.008 118.199C48.6575 117.44 48.716 116.623 48.9496 116.039C49.1833 115.455 49.5337 115.104 49.8258 114.871C50.1179 114.637 50.2931 114.579 50.2931 114.637C50.2931 114.637 50.1179 114.754 49.8842 114.988C49.6506 115.221 49.3585 115.572 49.1248 116.156C48.9496 116.681 48.8912 117.44 49.2417 118.141C49.5337 118.842 50.2347 119.426 50.8772 120.01C52.2791 121.236 53.5642 122.229 54.4988 122.988C55.4334 123.631 56.0175 124.098 56.0175 124.156Z" fill="#263238"/>
<path d="M38.3184 141.267C42.1736 139.982 46.3209 140.858 50.1761 139.515C51.4611 139.106 52.8046 138.639 53.856 137.705C55.0827 136.595 55.7252 135.018 56.7183 133.675C59.6389 129.704 65.1296 128.886 70.0363 128.419C71.2045 128.302 72.3728 128.186 73.4826 128.478C74.5924 128.77 75.6439 129.529 75.9943 130.638C76.2864 131.748 75.5855 133.15 74.4756 133.208C75.527 133.266 76.2864 134.318 76.5201 135.427C76.6953 136.478 76.5201 137.588 76.6953 138.639C76.8705 140.157 77.6883 141.559 77.6883 143.019C77.6299 145.063 75.9359 146.757 74.0083 147.574C72.0807 148.392 69.9779 148.45 67.9334 148.742C57.8865 150.144 50.2929 155.867 40.5964 160.13" fill="#FFBE9D"/>
<path d="M76.4622 136.829C76.8127 137.53 77.8057 137.646 78.4482 137.238C79.0908 136.829 79.3244 135.953 79.2076 135.194C79.0908 134.434 78.6819 133.734 78.2146 133.15C77.3968 132.04 76.4038 131.047 75.4108 130.054L72.3149 132.682L76.4622 136.829Z" fill="#FFBE9D"/>
<path d="M75.3522 133.442C75.3522 133.558 73.4246 133.383 71.1465 133.734C68.8684 134.084 67.0576 134.785 67.0576 134.668C67.0576 134.61 67.4665 134.434 68.1674 134.142C68.8684 133.85 69.9198 133.558 71.0881 133.383C72.2563 133.208 73.3077 133.208 74.1255 133.208C74.8849 133.325 75.3522 133.383 75.3522 133.442Z" fill="#EB996E"/>
<path d="M76.6956 139.515C76.6956 139.632 75.1185 139.281 73.1325 139.34C71.1465 139.398 69.6277 139.807 69.5693 139.69C69.5693 139.632 71.0881 139.106 73.1325 139.048C75.1769 138.989 76.7541 139.457 76.6956 139.515Z" fill="#EB996E"/>
<path d="M76.4035 137.705C76.3451 137.705 76.4035 137.237 76.3451 136.537C76.2867 135.836 75.9946 134.843 75.4105 133.967C75.2937 133.792 75.1768 133.617 75.0016 133.442L74.8848 133.325L75.0016 133.208C75.6441 132.566 75.8194 131.748 75.8194 131.164C75.8194 130.58 75.6441 130.23 75.7025 130.23C75.7025 130.23 75.9362 130.522 76.053 131.164C76.1114 131.748 75.9946 132.741 75.2352 133.442V133.266C75.4105 133.442 75.5273 133.617 75.6441 133.85C76.2867 134.785 76.5203 135.836 76.5203 136.595C76.5203 137.296 76.4035 137.763 76.4035 137.705Z" fill="#EB996E"/>
<path d="M76.4612 136.478L81.5431 141.267L82.1856 144.129L77.4542 143.077C76.8701 140.683 76.3444 138.405 76.4612 136.478Z" fill="#455A64"/>
<path d="M69.5689 142.61C69.452 142.785 42.0566 156.276 42.0566 156.276V159.196L70.0362 144.654L104.733 143.369V141.325L69.5689 142.61Z" fill="#F5F5F5"/>
<path d="M42.1152 159.604C42.2905 159.488 72.3729 156.743 72.3729 156.743L104.792 143.311L70.0948 144.596L42.1152 159.137V159.604Z" fill="#263238"/>
<path d="M70.8535 152.421C70.6199 150.844 72.1386 149.501 73.6573 149.093C75.176 148.684 76.8116 148.859 78.3887 148.509C79.3817 148.275 80.3163 147.866 81.2509 147.457C86.0407 145.647 91.2978 145.53 96.4381 145.472C97.0807 146.815 96.555 148.625 95.2699 149.443C95.7372 150.669 95.6203 152.071 95.0946 153.297C94.6273 154.524 93.8096 155.575 92.9334 156.568C92.2324 157.385 91.4147 158.261 90.4216 158.67C89.4286 159.137 88.2604 159.137 87.1506 159.196C83.7042 159.254 80.0242 159.254 77.162 157.327C74.9424 155.808 73.4236 153.239 70.8535 152.48C71.0287 152.48 71.2624 152.48 71.4376 152.48" fill="#FFBE9D"/>
<path d="M93.8093 150.494C93.8093 150.494 93.5756 150.553 93.1667 150.553C92.6994 150.553 92.0569 150.611 91.3559 150.611C89.8372 150.669 87.7344 150.669 85.3979 150.669C84.2296 150.669 83.1198 150.669 82.1268 150.669C81.6011 150.669 81.1338 150.611 80.6665 150.436C80.1992 150.261 79.8487 150.027 79.6151 149.677C79.3814 149.326 79.2646 148.976 79.323 148.625C79.3814 148.333 79.4982 148.041 79.6735 147.925C80.0239 147.633 80.316 147.633 80.316 147.691C80.316 147.749 80.0824 147.749 79.7903 148.041C79.4982 148.333 79.323 149.034 79.7903 149.56C80.0239 149.852 80.316 150.085 80.7249 150.202C81.1338 150.319 81.6011 150.377 82.0684 150.377C83.0614 150.377 84.1712 150.377 85.3395 150.377C87.676 150.377 89.7788 150.377 91.2975 150.377C91.9985 150.377 92.5826 150.377 93.1083 150.436C93.5756 150.494 93.8093 150.494 93.8093 150.494Z" fill="#EB996E"/>
<path d="M92.0572 153.414C92.0572 153.414 91.7651 153.472 91.2394 153.589C90.7137 153.648 89.9544 153.764 88.9613 153.881C87.9683 153.998 86.8585 154.056 85.5734 153.94C84.2884 153.881 82.8865 153.589 81.4261 153.239C78.5639 152.538 75.877 152.304 73.9494 152.304C72.9564 152.304 72.197 152.363 71.6713 152.363C71.1456 152.363 70.8535 152.421 70.8535 152.363C70.8535 152.363 71.1456 152.304 71.6713 152.246C72.197 152.188 73.0148 152.129 73.9494 152.071C75.877 152.012 78.6224 152.188 81.4846 152.888C82.9449 153.239 84.2884 153.531 85.5734 153.589C86.8585 153.706 87.9683 153.648 88.9613 153.589C89.8959 153.531 90.7137 153.472 91.2394 153.414C91.7651 153.414 92.0572 153.356 92.0572 153.414Z" fill="#EB996E"/>
<path d="M89.1949 156.451C89.1949 156.451 88.9613 156.509 88.5524 156.568C88.1435 156.626 87.5594 156.684 86.8 156.743C85.2813 156.86 83.1784 156.976 80.9003 156.568C78.6223 156.1 76.8115 154.932 75.4096 154.407C74.0077 153.823 73.0731 153.764 73.1315 153.706C73.1315 153.706 73.3651 153.706 73.774 153.764C74.1829 153.823 74.767 153.94 75.5264 154.232C76.9283 154.757 78.7391 155.867 80.9588 156.276C83.1784 156.684 85.2813 156.626 86.8 156.568C87.501 156.509 88.0851 156.509 88.5524 156.451C88.9613 156.451 89.1949 156.451 89.1949 156.451Z" fill="#EB996E"/>
<g opacity="0.2">
<path opacity="0.2" d="M81.4268 140.8C81.7188 138.697 82.1861 136.537 83.1207 134.61C84.0553 132.682 85.574 130.989 87.5601 130.113C89.5461 129.237 91.941 129.237 93.6934 130.463C94.2191 130.814 94.6864 131.339 94.92 131.923C95.1537 132.507 95.0953 133.266 94.628 133.734C93.9854 134.434 92.8756 134.318 91.941 134.259C87.6769 134.084 83.3544 136.654 81.5436 140.508" fill="black"/>
</g>
<g opacity="0.2">
<path opacity="0.2" d="M30.7244 139.048C33.0609 134.843 32.2431 129.587 30.4323 125.149C28.68 120.711 25.993 116.623 24.6495 112.009C24.4159 121.295 25.7594 130.638 28.6216 139.457" fill="black"/>
</g>
<path d="M34.8134 74.9843C34.8134 74.9843 37.6756 81.6417 47.8393 81.2329C58.0615 80.8242 58.412 72.8819 58.412 72.8819L65.2462 80.1234L58.7624 93.4967L50.059 99.979L38.1429 95.0735L28.3296 87.4816L34.8134 74.9843Z" fill="#85BC91"/>
<g opacity="0.5">
<path opacity="0.5" d="M10.8643 103.483C10.9811 103.6 9.6376 104.884 7.88523 106.286C6.13286 107.688 4.61414 108.739 4.49731 108.622C4.38049 108.505 5.72397 107.22 7.47634 105.819C9.28713 104.417 10.8058 103.366 10.8643 103.483Z" fill="#FAFAFA"/>
</g>
<path d="M15.6544 96.2999C15.5959 96.4751 13.9604 96.0079 12.2664 94.8983C10.5141 93.8471 9.40424 92.6207 9.46265 92.5039C9.57947 92.3872 10.8645 93.3799 12.5585 94.4311C14.2525 95.4239 15.7128 96.1247 15.6544 96.2999Z" fill="#FAFAFA"/>
<path d="M24.4742 97.0591C24.591 97.1759 23.306 99.0446 21.8457 101.439C20.3853 103.833 19.2755 105.819 19.1003 105.761C18.925 105.702 19.8012 103.541 21.3199 101.147C22.7803 98.6943 24.299 97.0007 24.4742 97.0591Z" fill="#FAFAFA"/>
<path d="M16.9394 117.382C16.8226 117.499 15.4791 116.097 14.3108 114.053C13.1426 112.009 12.6169 110.14 12.7337 110.14C12.9089 110.082 13.6683 111.776 14.8366 113.761C16.0048 115.747 17.1146 117.265 16.9394 117.382Z" fill="#FAFAFA"/>
<path d="M9.11174 127.193C8.93651 127.193 8.58603 125.733 8.35238 123.864C8.11873 121.995 8.00191 120.477 8.17715 120.477C8.35238 120.477 8.70286 121.937 8.93651 123.806C9.22857 125.675 9.28698 127.193 9.11174 127.193Z" fill="#FAFAFA"/>
<g opacity="0.5">
<path opacity="0.5" d="M16.4721 129.879C16.3553 129.821 17.0563 128.244 18.1661 126.375C19.2175 124.507 20.2105 123.105 20.3858 123.163C20.5026 123.222 19.8016 124.799 18.6918 126.667C17.6404 128.536 16.6474 129.938 16.4721 129.879Z" fill="#FAFAFA"/>
</g>
<path d="M7.94377 140.041C7.82694 140.158 6.54187 138.873 5.2568 137.004C3.97173 135.135 3.27078 133.5 3.3876 133.383C3.56284 133.325 4.49744 134.843 5.7241 136.654C6.95076 138.522 8.06059 139.924 7.94377 140.041Z" fill="#FAFAFA"/>
<path d="M19.5677 138.347C19.6845 138.464 18.341 140.041 16.5887 141.793C14.8363 143.603 13.2592 144.946 13.1423 144.829C13.0255 144.713 14.369 143.194 16.1214 141.384C17.9321 139.573 19.4509 138.23 19.5677 138.347Z" fill="#FAFAFA"/>
<g opacity="0.5">
<path opacity="0.5" d="M12.9669 159.371C12.8501 159.488 11.565 158.436 10.3968 156.743C9.22855 155.049 8.64443 153.472 8.76125 153.414C8.93649 153.356 9.69585 154.757 10.8641 156.392C12.0323 157.969 13.0838 159.254 12.9669 159.371Z" fill="#FAFAFA"/>
</g>
<path d="M27.9794 155.108C28.0379 155.224 26.636 156.217 24.7668 157.268C22.8976 158.32 21.3204 159.079 21.262 158.904C21.2036 158.787 22.6055 157.794 24.4747 156.743C26.3439 155.692 27.921 154.932 27.9794 155.108Z" fill="#FAFAFA"/>
<path d="M33.8204 150.26C33.7035 150.377 32.3601 149.326 31.1334 147.633C29.9067 145.939 29.3226 144.304 29.4394 144.245C29.6147 144.187 30.374 145.647 31.6007 147.282C32.8274 148.917 33.9372 150.144 33.8204 150.26Z" fill="#FAFAFA"/>
<path d="M44.1594 116.623C44.2762 116.739 42.6991 118.083 40.7131 119.601C38.727 121.119 36.9747 122.229 36.9163 122.054C36.7994 121.937 38.3766 120.594 40.3626 119.075C42.3486 117.615 44.101 116.506 44.1594 116.623Z" fill="#FAFAFA"/>
<path d="M33.2948 115.922C33.1195 115.922 33.1779 114.287 33.3532 112.36C33.5284 110.374 33.8789 108.856 33.9957 108.856C34.171 108.856 34.1125 110.491 33.9373 112.418C33.7621 114.404 33.47 115.922 33.2948 115.922Z" fill="#FAFAFA"/>
<g opacity="0.5">
<path opacity="0.5" d="M43.3419 102.257C43.2251 102.373 41.4143 101.264 39.4283 99.5702C37.4423 97.8766 36.0404 96.2415 36.1572 96.1247C36.274 96.0079 37.8511 97.4094 39.8372 99.103C41.8232 100.797 43.4587 102.14 43.3419 102.257Z" fill="#FAFAFA"/>
</g>
<path d="M35.8065 85.2041C35.9233 85.3209 34.6383 87.0144 32.9443 89.0584C31.2503 91.044 29.7316 92.6207 29.6148 92.5039C29.498 92.3871 30.783 90.6936 32.477 88.6496C34.171 86.6056 35.6897 85.0873 35.8065 85.2041Z" fill="#FAFAFA"/>
<g opacity="0.5">
<path opacity="0.5" d="M27.1617 83.3353C27.0448 83.5105 25.7598 82.8097 24.0658 82.2257C22.3719 81.6417 20.9115 81.4082 20.97 81.233C20.97 81.0578 22.4887 81.0577 24.2995 81.7001C26.0518 82.2841 27.2201 83.2185 27.1617 83.3353Z" fill="#FAFAFA"/>
</g>
<path d="M49.1247 91.2192C48.9494 91.1608 49.2415 89.7592 49.7672 88.0656C50.2929 86.3721 50.8186 85.0289 50.9939 85.0873C51.1691 85.1457 50.877 86.5473 50.3513 88.2408C49.8256 89.9344 49.2415 91.2776 49.1247 91.2192Z" fill="#FAFAFA"/>
<path d="M54.3817 104.651C54.2065 104.651 54.1481 103.249 54.2649 101.556C54.3817 99.8622 54.5569 98.4606 54.7322 98.4606C54.9074 98.4606 54.9658 99.8622 54.849 101.556C54.7322 103.308 54.4985 104.651 54.3817 104.651Z" fill="#FAFAFA"/>
<path d="M62.968 114.754C62.8512 114.871 61.5661 114.053 60.1058 112.827C58.6455 111.659 57.5357 110.608 57.6525 110.432C57.7693 110.316 59.0544 111.133 60.5147 112.36C61.975 113.586 63.0848 114.637 62.968 114.754Z" fill="#FAFAFA"/>
<path d="M72.1974 100.68C72.3142 100.797 71.1459 102.023 69.6272 103.308C68.1085 104.651 66.765 105.644 66.6482 105.527C66.5314 105.41 67.6996 104.242 69.2183 102.899C70.7371 101.556 72.0805 100.563 72.1974 100.68Z" fill="#FAFAFA"/>
<g opacity="0.5">
<path opacity="0.5" d="M67.9333 94.0223C67.8165 94.1391 66.4146 93.3799 64.8375 92.0951C63.2603 90.8104 62.2089 89.5256 62.3257 89.4088C62.4426 89.292 63.6692 90.3432 65.1879 91.6279C66.7651 92.8543 68.0502 93.9055 67.9333 94.0223Z" fill="#FAFAFA"/>
</g>
<path d="M78.5642 82.1673C78.681 82.2841 77.9801 83.4521 76.7534 84.62C75.5268 85.788 74.2417 86.4304 74.1833 86.3136C74.0665 86.1384 75.1763 85.3208 76.3445 84.2113C77.5128 83.1017 78.4474 82.0505 78.5642 82.1673Z" fill="#FAFAFA"/>
<g opacity="0.5">
<path opacity="0.5" d="M71.2624 81.0577C71.2624 81.2329 69.3932 81.0577 67.1736 80.5321C64.9539 79.9481 63.2599 79.1889 63.3184 79.0721C63.3768 78.8969 65.1291 79.4225 67.3488 79.9481C69.5101 80.4737 71.3209 80.8825 71.2624 81.0577Z" fill="#FAFAFA"/>
</g>
<g opacity="0.5">
<path opacity="0.5" d="M84.8143 99.9206C84.6391 99.8622 84.9896 97.5846 85.8657 94.8983C86.6835 92.1535 87.6765 90.1096 87.7934 90.168C87.9686 90.2264 87.2676 92.3871 86.4499 95.0735C85.6321 97.7598 84.9896 99.979 84.8143 99.9206Z" fill="#FAFAFA"/>
</g>
<path d="M87.852 112.827C87.7351 112.944 86.2748 111.6 84.6393 109.848C83.0037 108.096 81.7187 106.578 81.8355 106.461C81.9523 106.345 83.4126 107.688 85.0482 109.44C86.7421 111.192 87.9688 112.71 87.852 112.827Z" fill="#FAFAFA"/>
<g opacity="0.5">
<path opacity="0.5" d="M92.5252 120.127C92.35 120.127 92.2332 118.199 92.2916 115.864C92.35 113.528 92.5252 111.6 92.642 111.6C92.8173 111.6 92.9341 113.528 92.8757 115.864C92.8173 118.199 92.642 120.127 92.5252 120.127Z" fill="#FAFAFA"/>
</g>
<path d="M87.7938 132.157C87.677 132.274 86.3919 130.697 85.2821 128.594C84.1138 126.434 83.5297 124.565 83.6465 124.507C83.8217 124.448 84.6395 126.2 85.8078 128.302C86.9176 130.346 87.9106 132.04 87.7938 132.157Z" fill="#FAFAFA"/>
<path d="M99.8262 134.318C99.9431 134.434 99.1253 135.427 98.0155 136.537C96.9056 137.646 95.9126 138.405 95.7958 138.289C95.679 138.172 96.4967 137.179 97.6066 136.07C98.7164 134.96 99.7094 134.201 99.8262 134.318Z" fill="#FAFAFA"/>
<g opacity="0.5">
<path opacity="0.5" d="M70.4449 120.652C70.2696 120.594 70.8538 118.667 72.1973 116.681C73.5992 114.696 75.1763 113.469 75.2931 113.644C75.4099 113.761 74.0665 115.104 72.723 117.032C71.3795 118.959 70.6201 120.711 70.4449 120.652Z" fill="#FAFAFA"/>
</g>
<path d="M36.3908 136.654C36.2156 136.595 36.5076 134.902 37.0333 132.799C37.559 130.697 38.0847 129.003 38.26 129.062C38.4352 129.12 38.1432 130.814 37.6175 132.916C37.1502 135.018 36.566 136.712 36.3908 136.654Z" fill="#FAFAFA"/>
<path d="M50.76 138.055C50.6432 138.172 49.2413 137.413 47.4889 136.303C45.795 135.194 44.5099 134.201 44.5683 134.026C44.6851 133.909 46.087 134.668 47.8394 135.778C49.5334 136.946 50.8184 137.938 50.76 138.055Z" fill="#FAFAFA"/>
<path d="M50.0589 127.718C49.9421 127.835 49.2412 127.018 48.5402 125.967C47.8393 124.915 47.372 123.981 47.5472 123.864C47.664 123.747 48.365 124.565 49.0659 125.616C49.7085 126.726 50.1758 127.66 50.0589 127.718Z" fill="#FAFAFA"/>
<path d="M56.3676 130.113C56.4844 130.23 55.8419 130.872 55.0241 131.456C54.1479 132.04 53.3886 132.449 53.3302 132.274C53.2133 132.157 53.8559 131.514 54.6736 130.93C55.4914 130.346 56.2508 129.938 56.3676 130.113Z" fill="#FAFAFA"/>
<g opacity="0.5">
<path opacity="0.5" d="M39.8371 172.043C39.6619 171.985 39.954 170.642 40.1876 169.007C40.4213 167.371 40.5381 166.028 40.7133 166.028C40.8886 166.028 41.0054 167.43 40.7717 169.123C40.5381 170.817 40.0124 172.102 39.8371 172.043Z" fill="#FAFAFA"/>
</g>
<g opacity="0.5">
<path opacity="0.5" d="M54.3813 167.313C54.2645 167.371 53.1546 165.736 51.928 163.575C50.7013 161.415 49.8251 159.604 50.0004 159.546C50.1172 159.488 51.227 161.123 52.4537 163.283C53.6803 165.444 54.5565 167.255 54.3813 167.313Z" fill="#FAFAFA"/>
</g>
<g opacity="0.5">
<path opacity="0.5" d="M69.8608 160.831C69.9776 160.948 68.5173 163.05 66.5897 165.619C64.6621 168.131 62.9681 170.116 62.8513 169.999C62.7344 169.883 64.1948 167.78 66.1224 165.211C68.05 162.699 69.6855 160.714 69.8608 160.831Z" fill="#FAFAFA"/>
</g>
<g opacity="0.5">
<path opacity="0.5" d="M74.1834 173.211C74.1834 173.387 72.2558 173.795 69.8609 174.146C67.466 174.496 65.48 174.613 65.48 174.496C65.48 174.321 67.4076 173.912 69.8025 173.562C72.1974 173.211 74.1834 173.036 74.1834 173.211Z" fill="#FAFAFA"/>
</g>
<path d="M74.8845 166.963C74.7092 166.904 74.8845 165.678 74.9429 164.159C75.0013 162.641 74.9429 161.356 75.1181 161.356C75.2934 161.356 75.5854 162.583 75.527 164.218C75.4686 165.795 75.0013 167.021 74.8845 166.963Z" fill="#FAFAFA"/>
<path d="M54.0309 174.262C53.9725 174.438 52.3953 173.912 50.7598 172.686C49.1242 171.518 48.1312 170.175 48.2481 170.058C48.3649 169.941 49.5331 171.051 51.1103 172.16C52.6874 173.328 54.0893 174.087 54.0309 174.262Z" fill="#FAFAFA"/>
<path d="M29.2642 173.328C29.0889 173.27 29.3226 171.927 29.6731 170.35C30.082 168.773 30.5493 167.488 30.7245 167.547C30.8997 167.605 30.6661 168.948 30.3156 170.525C29.8483 172.102 29.381 173.386 29.2642 173.328Z" fill="#FAFAFA"/>
<path d="M26.519 25.6372C26.5775 25.5788 27.22 26.1627 28.4467 26.8051C29.0308 27.1555 29.7901 27.5059 30.6663 27.7979C31.5425 28.0899 32.5355 28.3235 33.5869 28.4403C34.6384 28.5571 35.6314 28.5571 36.566 28.4403C37.5006 28.3235 38.3183 28.2067 38.9609 27.9731C40.3044 27.6227 41.0637 27.2139 41.1221 27.2723C41.1221 27.2723 40.9469 27.3891 40.5964 27.5643C40.4212 27.6811 40.1875 27.7395 39.9539 27.8563C39.7202 27.9731 39.3698 28.0899 39.0777 28.2067C38.3768 28.4403 37.559 28.6155 36.6244 28.7323C35.6898 28.8491 34.6384 28.8491 33.5869 28.7323C32.5355 28.6155 31.4841 28.3235 30.6079 28.0315C29.7317 27.6811 28.9724 27.3307 28.3298 26.9803C28.0378 26.8051 27.7457 26.6299 27.5121 26.4547C27.2784 26.2795 27.1032 26.1627 26.9279 25.9875C26.6943 25.754 26.519 25.6372 26.519 25.6372Z" fill="#455A64"/>
<path d="M41.6475 32.353C41.6475 32.353 41.4138 32.4698 41.0049 32.5282C40.5961 32.645 40.0119 32.7618 39.2526 32.8786C37.7338 33.1122 35.5726 33.4042 33.2945 32.937C30.958 32.4698 29.0888 31.1851 28.0958 30.0171C27.5701 29.4331 27.278 28.8491 27.1028 28.4987C26.9276 28.0315 26.8691 27.7979 26.8691 27.7979C26.9276 27.7395 27.2196 28.7323 28.2126 29.8419C29.2056 30.9515 31.0164 32.1778 33.2945 32.645C35.5726 33.1122 37.6754 32.8786 39.1942 32.7034C39.9535 32.5866 40.5376 32.4698 41.0049 32.4114C41.4138 32.353 41.6475 32.2946 41.6475 32.353Z" fill="#455A64"/>
<path d="M20.8529 68.0932C20.8529 68.0932 20.7944 68.0932 20.7944 68.0348C20.736 67.9764 20.6776 67.918 20.6192 67.8012C20.444 67.5676 20.2687 67.1588 20.1519 66.6332C19.9183 65.582 20.1519 63.83 21.437 62.3117C22.0795 61.5525 22.8973 60.8517 23.8903 60.2677C24.8249 59.6253 25.9347 59.0413 26.9862 58.3405C28.0376 57.6398 29.089 56.7638 29.79 55.5958C30.1404 55.0118 30.3741 54.3694 30.4909 53.6686C30.6077 52.9678 30.5493 52.2671 30.3741 51.5663C30.082 50.1647 29.4395 48.8215 28.9138 47.5367C28.3881 46.252 27.9792 44.9088 27.9208 43.624C27.8039 40.9961 28.7969 38.7185 29.9068 37.1417C31.075 35.565 32.3601 34.6306 33.3531 34.105C33.5868 33.9882 33.8204 33.8714 33.9956 33.813C34.1709 33.7546 34.3461 33.6962 34.5214 33.6378C34.8134 33.521 34.9302 33.521 34.9302 33.521C34.9302 33.521 34.8134 33.5794 34.5214 33.6962C34.4045 33.7546 34.2293 33.813 34.0541 33.8714C33.8788 33.9882 33.6452 34.105 33.4115 34.2218C32.4769 34.7474 31.1919 35.6818 30.082 37.2585C28.9722 38.8353 28.0376 41.0545 28.1544 43.624C28.2128 44.9088 28.6217 46.1936 29.1474 47.4783C29.6731 48.7631 30.3157 50.1063 30.6661 51.5663C30.8414 52.3255 30.8998 53.0846 30.783 53.7854C30.6661 54.5446 30.4325 55.2454 30.0236 55.8294C29.2642 57.0558 28.1544 57.9318 27.103 58.6325C26.0516 59.3333 24.9417 59.9173 24.0071 60.5597C23.0725 61.1437 22.1963 61.8445 21.6122 62.5453C20.3856 64.0052 20.0935 65.6988 20.2687 66.75C20.3856 67.626 20.9113 68.0348 20.8529 68.0932Z" fill="#455A64"/>
<path d="M36.3903 68.2684C36.3903 68.2684 36.2735 68.21 36.0398 68.0932C35.8646 67.918 35.5141 67.6844 35.2805 67.2756C35.0468 66.8668 34.8132 66.2828 34.7547 65.582C34.6963 64.8812 34.7547 64.1221 34.9884 63.2461C35.4557 61.5525 36.916 59.9757 37.9674 57.9902C38.4931 56.9974 38.902 55.8878 38.8436 54.6614C38.8436 53.435 38.4347 52.2087 37.909 51.0407C36.7992 48.7047 35.1052 46.836 33.937 44.8504C33.3528 43.8576 32.8271 42.9232 32.5351 41.9304C32.243 40.9377 32.1846 40.0033 32.243 39.1273C32.4182 37.3753 33.236 36.0906 33.937 35.4482C34.2874 35.1562 34.6379 34.9226 34.8716 34.8642C35.1052 34.7474 35.222 34.7474 35.222 34.7474C35.222 34.8058 34.6963 34.9226 33.9954 35.565C33.2944 36.2074 32.5351 37.4337 32.4182 39.1273C32.3598 39.9449 32.4182 40.8793 32.7103 41.872C33.0024 42.8064 33.4697 43.7992 34.1122 44.7336C34.6963 45.668 35.3973 46.6608 36.1566 47.6535C36.8576 48.6463 37.617 49.7559 38.1427 50.9239C38.7268 52.0919 39.0773 53.3766 39.0773 54.6614C39.1357 55.9462 38.7268 57.1142 38.1427 58.107C37.0328 60.0925 35.5725 61.6109 35.1052 63.2461C34.8716 64.0637 34.7547 64.8228 34.8132 65.4652C34.8716 66.1076 35.0468 66.6916 35.2805 67.1004C35.8646 68.0348 36.4487 68.2684 36.3903 68.2684Z" fill="#455A64"/>
<path d="M59.4633 24.4692C59.4633 24.4692 59.4049 24.4692 59.2297 24.3524C59.1128 24.294 58.8792 24.1772 58.6455 24.002C58.1782 23.6516 57.5357 23.0092 56.9516 22.1332C56.3675 21.2572 55.8418 20.0892 55.316 18.8045C55.024 18.1621 54.7319 17.5197 54.3814 16.8189C54.031 16.1765 53.6221 15.4757 53.0964 14.8917C51.0519 12.3806 48.365 11.0374 46.3205 10.5702C44.2761 10.0446 42.9326 10.1614 42.9326 10.103C42.9326 10.103 43.2831 10.0446 43.8672 10.0446C44.4513 10.0446 45.3275 10.103 46.3789 10.395C47.4304 10.6286 48.5986 11.0958 49.8253 11.7966C51.0519 12.4974 52.2786 13.4902 53.2716 14.7749C53.7973 15.4173 54.2062 16.0597 54.6151 16.7605C54.9656 17.4613 55.2576 18.1037 55.4913 18.7461C56.017 20.0308 56.4843 21.1988 57.01 22.0748C57.5357 22.9508 58.1198 23.5932 58.5871 23.9436C59.1713 24.294 59.4633 24.4108 59.4633 24.4692Z" fill="#455A64"/>
<path d="M67.5831 24.4108C67.5831 24.4108 67.4662 24.4108 67.291 24.3524C67.0573 24.3524 66.7653 24.2356 66.4148 24.1188C65.6554 23.8852 64.6624 23.3012 63.611 22.3084C62.618 21.3156 61.625 19.9141 60.7488 18.3373C59.8142 16.7605 58.938 14.8918 57.5945 13.2566C56.1926 11.6798 54.3235 10.687 52.5711 10.1614C50.8187 9.63586 49.1247 9.57746 47.7228 9.51906C46.321 9.46066 45.2111 9.51906 44.3933 9.57746C44.0429 9.57746 43.7508 9.57746 43.5172 9.63586C43.2835 9.63586 43.2251 9.63586 43.2251 9.63586C43.2251 9.63586 43.3419 9.63586 43.5172 9.57746C43.7508 9.57746 44.0429 9.51906 44.3933 9.46066C45.1527 9.40226 46.321 9.28546 47.7228 9.28546C49.1247 9.28546 50.8187 9.40226 52.6295 9.86945C54.4403 10.3366 56.3679 11.3294 57.7114 13.023C59.1133 14.6582 59.9895 16.5269 60.924 18.1621C61.8002 19.7973 62.7348 21.1404 63.7278 22.1332C64.7209 23.126 65.6554 23.71 66.4148 24.002C67.1742 24.294 67.5831 24.3524 67.5831 24.4108Z" fill="#455A64"/>
<path d="M81.3682 62.3117C81.3098 62.3117 81.5434 61.9029 81.7187 61.1437C81.8939 60.3845 82.1276 59.2749 82.0692 57.8733C82.0108 56.4718 81.6603 54.7782 80.8425 53.143C80.4336 52.3254 79.8495 51.5079 79.1485 50.8071C78.4476 50.0479 77.6882 49.3471 76.9289 48.5879C76.1695 47.8287 75.4101 47.0695 74.7676 46.252C74.1251 45.4344 73.5994 44.5584 73.1905 43.7408C72.7816 42.8648 72.4895 42.0472 72.2559 41.2296C72.0222 40.4121 71.9054 39.6529 71.7886 38.9521C71.6133 37.5505 71.7302 36.3825 71.847 35.565C71.9054 35.1562 71.9638 34.8642 72.0222 34.689C72.0806 34.5138 72.0806 34.397 72.0806 34.397C72.1391 34.397 72.0222 34.8058 71.9638 35.6233C71.9054 36.3825 71.847 37.5505 72.0222 38.9521C72.0806 39.6529 72.2559 40.4121 72.4895 41.1712C72.7232 41.9888 73.0152 42.8064 73.4241 43.624C73.833 44.4416 74.3587 45.3176 74.9429 46.0768C75.5854 46.8943 76.2863 47.5951 77.1041 48.3543C77.8635 49.1135 78.6812 49.8143 79.3238 50.5735C80.0247 51.3327 80.6089 52.1503 81.0177 53.0262C81.8939 54.7198 82.186 56.4718 82.2444 57.8733C82.3028 59.3333 82.0108 60.4429 81.7771 61.2021C81.6603 61.6109 81.5435 61.8445 81.485 62.0781C81.4266 62.1949 81.4266 62.3117 81.3682 62.3117Z" fill="#455A64"/>
<path d="M17.4067 23.9436C17.4067 23.9436 17.4067 23.71 17.4652 23.3596C17.5236 23.0092 17.6988 22.4836 18.0493 21.8996C18.6918 20.7316 20.0353 19.2717 22.0797 18.8045C24.1242 18.3373 26.0518 18.9797 27.1032 19.7389C27.6289 20.0893 28.0378 20.498 28.2714 20.79C28.5051 21.082 28.6219 21.2572 28.6219 21.2572C28.5635 21.3156 28.0962 20.6148 26.9864 19.9141C25.9349 19.2133 24.0658 18.6293 22.1381 19.0965C20.2105 19.5637 18.867 20.9068 18.2245 22.0164C17.582 23.126 17.4652 23.9436 17.4067 23.9436Z" fill="#455A64"/>
<path d="M23.0727 26.3963C23.0143 26.3963 23.0727 25.8707 23.2479 25.0531C23.4232 24.2356 23.7152 23.0676 24.6498 22.1332C25.5844 21.1988 26.9279 21.082 27.7457 21.374C28.1546 21.5492 28.4466 21.7244 28.5635 21.958C28.7387 22.1332 28.7387 22.25 28.7387 22.25C28.6803 22.3084 28.4466 21.7828 27.6873 21.5492C26.9279 21.3156 25.7012 21.4908 24.8835 22.3668C24.0657 23.2428 23.7152 24.3524 23.4816 25.1115C23.1895 25.9291 23.1311 26.3963 23.0727 26.3963Z" fill="#455A64"/>
<path d="M30.4913 17.8701C30.5497 17.9285 29.6151 19.2133 28.9726 21.0236C28.33 22.834 28.2716 24.4692 28.1548 24.4692C28.0964 24.4692 27.9796 22.834 28.6805 20.9068C29.3231 19.0381 30.4329 17.8117 30.4913 17.8701Z" fill="#85BC91"/>
</svg>
