<svg width="130" height="179" viewBox="0 0 130 179" fill="none" xmlns="http://www.w3.org/2000/svg">
<path d="M129.87 142.618L120.938 99.6691C120.938 99.6691 115.708 78.9638 97.608 71.8056L96.3739 71.3915C96.3739 71.3915 94.6697 70.8591 94.611 70.8591C93.9058 70.5633 90.9087 69.6168 90.1448 69.3802C65.8159 60.8614 59.3517 63.1094 33.9651 71.8056C33.9651 71.8056 22.6821 74.8819 17.2169 89.6714C11.7517 104.461 1.2915 127.651 1.2915 127.651L26.6194 136.643L31.4969 129.366V156.165V179H61.526H101.075L99.1359 156.165L98.7833 128.006" fill="#85BC91"/>
<path d="M58.9991 74.4677C58.9991 74.4677 58.8228 74.7044 58.4115 75.0002C58.2352 75.1776 58.0001 75.3551 57.7063 75.5917C57.4125 75.8284 57.0599 76.065 56.7073 76.3016C55.9433 76.7749 54.9443 77.3073 53.8278 77.7806C52.7112 78.2539 51.4184 78.668 50.0668 78.9046C48.7152 79.1412 47.3636 79.2595 46.1295 79.2595C44.8954 79.2595 43.8376 79.1412 42.9562 78.9638C42.486 78.9046 42.1335 78.7863 41.7221 78.7271C41.3695 78.668 41.0757 78.5496 40.8406 78.4905C40.3705 78.313 40.0767 78.2539 40.0767 78.1947C40.0767 78.1355 41.1344 78.4905 42.9562 78.7863C43.8376 78.9046 44.9542 79.0229 46.1295 79.0229C47.3048 79.0229 48.6564 78.9046 50.008 78.6088C51.3596 78.313 52.5937 77.9581 53.7102 77.4848C54.8268 77.0115 55.767 76.5383 56.531 76.065C58.1176 75.1185 58.9404 74.4086 58.9991 74.4677Z" fill="#FAFAFA"/>
<g opacity="0.3">
<path opacity="0.3" d="M31.438 148.238L37.197 154.923H42.7797V162.14L100.84 175.628L100.311 170.008L45.718 151.137H36.6093L32.2019 147.587L31.438 148.238Z" fill="black"/>
</g>
<path d="M48.5389 142.322L43.7202 141.435C43.7202 141.435 32.2609 128.775 30.0866 128.597C28.3236 128.42 18.5686 128.538 15.1602 128.597C14.5138 128.597 13.9849 129.13 13.9849 129.78C13.9849 130.431 14.5138 130.964 15.1014 130.964L26.6194 131.437L26.6782 132.383L15.1014 132.561C13.9261 132.679 13.1621 134.513 16.9231 134.868L26.5607 135.223V135.815L16.7468 137.175C16.2767 137.234 14.9251 137.471 14.9251 138.003C14.9251 138.003 14.3375 139.246 17.0994 139.601C18.0397 139.719 26.5607 139.423 26.5607 139.423L26.2081 140.192L17.3933 142.085C16.7468 142.204 16.3355 142.854 16.3942 143.505C16.5118 144.156 17.0994 144.629 17.7459 144.57L27.1483 143.683L36.3745 151.077H48.7152L48.5389 142.322Z" fill="#FFBE9D"/>
<path d="M129.87 142.618L101.722 148.179L98.8423 128.006" fill="#85BC91"/>
<path d="M97.9605 143.387L45.7769 141.671V159.833L80.3897 166.754L104.719 170.659C119.821 170.659 131.927 156.697 129.576 141.671H129.518L97.9605 143.387Z" fill="#85BC91"/>
<path d="M112.299 143.032C112.299 143.032 112.064 143.091 111.594 143.091C111.124 143.091 110.478 143.15 109.655 143.15C107.951 143.209 105.483 143.209 102.544 143.269C96.4916 143.328 88.2056 143.446 78.9795 143.387C69.7533 143.269 61.4674 142.973 55.4146 142.559C52.4175 142.381 49.9494 142.145 48.3039 141.967C47.4812 141.908 46.8348 141.79 46.3647 141.79C45.8946 141.73 45.7183 141.73 45.7183 141.671C45.7183 141.671 45.9533 141.671 46.4234 141.671C46.8936 141.73 47.54 141.73 48.3627 141.79C50.0669 141.908 52.4763 142.085 55.4733 142.204C61.4674 142.559 69.8121 142.854 78.9795 142.914C88.1469 142.973 96.4916 142.973 102.544 142.914C105.541 142.914 107.951 142.914 109.655 142.914C110.478 142.914 111.124 142.914 111.594 142.914C112.064 142.973 112.299 143.032 112.299 143.032Z" fill="#263238"/>
<path d="M45.718 141.849C45.718 141.849 45.718 141.967 45.718 142.145C45.718 142.381 45.718 142.677 45.718 143.091C45.718 143.919 45.718 145.162 45.7767 146.7C45.7767 149.835 45.8355 154.213 45.8355 159.537L45.718 159.419C51.5945 160.72 58.7051 162.258 66.2859 163.856C76.6874 166.104 86.2073 167.819 93.0829 168.884C96.5501 169.416 99.312 169.83 101.251 170.067C102.192 170.185 102.955 170.304 103.484 170.363C103.719 170.422 103.896 170.422 104.072 170.422C104.19 170.422 104.248 170.481 104.248 170.481C104.248 170.481 104.19 170.481 104.072 170.481C103.896 170.481 103.719 170.422 103.484 170.422C102.955 170.363 102.192 170.304 101.251 170.185C99.312 169.949 96.4913 169.594 93.0241 169.121C86.0898 168.115 76.6286 166.399 66.1683 164.151C58.5876 162.554 51.477 160.957 45.6004 159.655H45.4829V159.537C45.4829 154.213 45.5417 149.835 45.5417 146.7C45.5417 145.162 45.5417 143.978 45.6004 143.091C45.6004 142.677 45.6004 142.381 45.6004 142.145C45.718 141.908 45.718 141.849 45.718 141.849Z" fill="#263238"/>
<path d="M41.3108 92.156C41.3108 92.156 41.3108 91.8602 41.3696 91.2687C41.4283 90.6771 41.4871 89.8489 41.4871 88.8432C41.5459 86.8318 41.4283 83.9922 40.9582 80.916C40.4293 77.8989 39.7241 75.1185 38.7251 73.3438C38.1962 72.4564 37.6086 71.924 37.1385 71.569C36.6683 71.2141 36.3745 71.0958 36.3745 71.0958C36.3745 71.0958 36.4333 71.0958 36.6096 71.1549C36.7271 71.2141 36.9622 71.3324 37.1972 71.4507C37.6674 71.7465 38.3138 72.3381 38.9014 73.2255C39.4891 74.1128 39.9592 75.2368 40.3118 76.5383C40.6644 77.8398 41.017 79.3187 41.3108 80.8568C41.8397 83.9331 41.8985 86.7726 41.7809 88.8432C41.7222 89.8489 41.6634 90.6771 41.5459 91.2687C41.3696 91.8602 41.3108 92.156 41.3108 92.156Z" fill="#263238"/>
<path d="M98.7246 76.1833C98.7834 76.1833 98.9009 88.2516 98.9009 103.159C98.9009 118.067 98.8422 130.135 98.7246 130.135C98.6659 130.135 98.5483 118.067 98.5483 103.159C98.5483 88.2516 98.6071 76.1833 98.7246 76.1833Z" fill="#263238"/>
<path d="M116.707 136.82C116.707 136.879 115.825 136.88 114.415 136.998C113.71 137.057 112.887 137.234 111.947 137.471C111.065 137.708 110.066 138.063 109.067 138.477C108.068 138.95 107.187 139.423 106.423 139.956C105.659 140.488 104.954 141.021 104.425 141.494C103.367 142.44 102.779 143.15 102.779 143.091C102.779 143.091 102.897 142.914 103.132 142.559C103.367 142.263 103.778 141.79 104.307 141.316C104.836 140.784 105.483 140.252 106.246 139.719C107.01 139.187 107.951 138.654 108.95 138.181C109.949 137.708 110.948 137.412 111.888 137.175C112.828 136.939 113.651 136.82 114.356 136.761C115.061 136.702 115.649 136.702 116.06 136.702C116.472 136.82 116.707 136.82 116.707 136.82Z" fill="#263238"/>
<g opacity="0.3">
<g opacity="0.3">
<path opacity="0.3" d="M41.7808 139.364C50.5956 134.099 56.0608 125.344 61.4084 116.529C66.7561 107.715 71.7512 98.5451 79.2144 91.4461C82.6228 88.1924 86.6188 85.4711 87.9116 80.8568L74.5131 91.5644L37.2559 134.691L41.7808 139.364Z" fill="black"/>
</g>
</g>
<path d="M17.6286 116.233C17.6286 116.352 15.5131 116.293 13.1037 117.121C11.9284 117.535 10.8706 118.067 10.1066 118.422C9.34268 118.836 8.93132 119.073 8.87256 119.014C8.87256 118.955 9.28392 118.659 9.9891 118.245C10.6943 117.831 11.7521 117.239 12.9861 116.825C14.2202 116.411 15.3955 116.233 16.2182 116.233C17.0997 116.115 17.6286 116.174 17.6286 116.233Z" fill="#263238"/>
<path d="M17.6286 116.233C17.6286 116.352 15.5131 116.293 13.1037 117.121C11.9284 117.535 10.8706 118.067 10.1066 118.422C9.34268 118.836 8.93132 119.073 8.87256 119.014C8.87256 118.955 9.28392 118.659 9.9891 118.245C10.6943 117.831 11.7521 117.239 12.9861 116.825C14.2202 116.411 15.3955 116.233 16.2182 116.233C17.0997 116.115 17.6286 116.174 17.6286 116.233Z" fill="#263238"/>
<path d="M98.4894 135.519C98.4894 135.578 97.843 134.986 96.4326 134.572C95.081 134.158 92.9067 134.158 90.4386 134.927C87.9704 135.696 85.3847 137.471 82.1526 138.773C80.566 139.423 78.7442 139.897 76.8637 139.778C74.9832 139.66 73.1028 138.95 71.3398 138.063C69.5768 137.175 67.8726 136.17 66.2272 135.341C64.523 134.572 62.8188 134.04 61.1146 133.862C57.7062 133.567 54.6504 134.336 52.2998 135.46C49.9492 136.584 48.3625 138.003 47.4223 139.068C47.1872 139.364 46.9521 139.601 46.7758 139.778C46.5995 140.015 46.482 140.192 46.3645 140.37C46.247 140.488 46.1882 140.606 46.0707 140.725C46.0119 140.784 45.9531 140.843 45.9531 140.843C45.9531 140.843 45.9531 140.784 46.0119 140.725C46.0707 140.606 46.1294 140.488 46.247 140.37C46.3645 140.192 46.482 140.015 46.6583 139.778C46.8346 139.542 47.0697 139.305 47.3047 139.009C48.245 137.944 49.8316 136.406 52.1823 135.282C53.3576 134.691 54.7092 134.217 56.2371 133.862C57.765 133.567 59.4104 133.389 61.1146 133.567C62.8188 133.744 64.6405 134.217 66.3447 135.046C68.0489 135.815 69.6944 136.82 71.4573 137.708C73.2203 138.595 75.042 139.305 76.8637 139.423C78.6855 139.542 80.4484 139.068 82.0351 138.418C85.2084 137.116 87.7941 135.341 90.321 134.631C92.8479 133.862 95.0223 133.862 96.4326 134.336C97.1378 134.572 97.6079 134.809 97.9605 135.046C98.0781 135.164 98.1956 135.223 98.3131 135.282C98.4307 135.519 98.4894 135.519 98.4894 135.519Z" fill="#FAFAFA"/>
<path d="M123.993 113.69C123.993 113.749 123.641 113.512 122.936 113.512C122.23 113.453 121.231 113.69 120.174 114.34C119.116 114.932 118.058 116.056 116.589 116.884C115.825 117.298 114.944 117.594 114.003 117.535C113.063 117.476 112.182 117.121 111.3 116.647C110.419 116.233 109.655 115.701 108.832 115.405C108.009 115.05 107.187 114.814 106.364 114.695C105.541 114.577 104.777 114.518 104.013 114.577C103.308 114.577 102.603 114.695 102.015 114.873C100.781 115.168 99.8409 115.523 99.2532 115.878C98.6068 116.174 98.313 116.411 98.313 116.411C98.313 116.411 98.3718 116.352 98.548 116.233C98.7243 116.115 98.9006 115.938 99.2532 115.819C99.8409 115.464 100.781 114.991 102.015 114.695C102.603 114.518 103.308 114.399 104.072 114.399C104.836 114.34 105.6 114.399 106.481 114.518C107.304 114.636 108.186 114.873 109.008 115.228C109.89 115.583 110.654 116.056 111.535 116.47C112.358 116.884 113.239 117.239 114.121 117.298C115.002 117.357 115.825 117.062 116.53 116.707C117.941 115.938 119.057 114.814 120.174 114.222C121.29 113.571 122.348 113.335 123.053 113.453C123.406 113.512 123.7 113.571 123.876 113.63C123.935 113.63 123.993 113.63 123.993 113.69Z" fill="#FAFAFA"/>
<path d="M98.1368 105.585C98.1368 105.585 98.0193 105.585 97.7255 105.526C97.608 105.526 97.4317 105.467 97.2554 105.407C97.0791 105.407 96.844 105.348 96.6089 105.348C95.6099 105.23 94.1408 105.289 92.4366 105.762C90.7324 106.236 88.7344 107.182 86.7364 108.365C84.6796 109.548 82.5052 111.027 79.9196 112.092C78.6267 112.625 77.3339 113.039 76.041 113.157C74.7482 113.335 73.4554 113.216 72.2801 112.92C71.1047 112.625 70.047 112.092 69.1067 111.678C68.1665 111.205 67.285 110.732 66.4623 110.377C64.8756 109.608 63.4065 109.193 62.4075 109.134C61.9373 109.134 61.526 109.134 61.2322 109.193C60.9971 109.193 60.8208 109.253 60.8208 109.193C60.8208 109.193 60.9383 109.134 61.2322 109.134C61.4672 109.075 61.8786 109.075 62.4075 109.016C63.4065 109.016 64.8756 109.371 66.521 110.14C67.3438 110.495 68.2252 110.968 69.1655 111.441C70.1057 111.915 71.1635 112.388 72.2801 112.684C73.3966 112.98 74.6894 113.098 75.9235 112.92C77.2164 112.802 78.4504 112.388 79.7433 111.856C82.2702 110.791 84.4445 109.371 86.5601 108.188C88.6168 107.005 90.6149 106.117 92.3778 105.644C94.1408 105.171 95.6099 105.171 96.6089 105.289C96.844 105.348 97.0791 105.348 97.2554 105.407C97.4317 105.467 97.608 105.526 97.7255 105.526C98.0193 105.526 98.1368 105.585 98.1368 105.585Z" fill="#FAFAFA"/>
<path d="M116.354 87.3643C116.354 87.3643 116.119 87.5417 115.708 87.7192C115.296 87.9558 114.709 88.2516 113.945 88.6066C113.181 88.9615 112.241 89.3165 111.183 89.5531C110.125 89.8489 108.832 89.9672 107.598 89.7897C106.305 89.6714 105.13 89.3756 104.072 89.2573C103.014 89.0798 102.015 89.0798 101.193 89.1981C99.5473 89.4348 98.7246 90.2038 98.7246 90.1447C98.7246 90.1447 98.7834 90.0855 98.8421 90.0263C98.9597 89.9672 99.0772 89.8489 99.2535 89.7306C99.6649 89.4939 100.311 89.1981 101.134 89.0798C101.957 88.9024 103.014 88.9024 104.072 89.0798C105.189 89.1981 106.364 89.4939 107.598 89.6122C110.125 89.908 112.358 89.0798 113.886 88.4883C114.65 88.1925 115.296 87.8967 115.708 87.7192C116.119 87.4234 116.354 87.3643 116.354 87.3643Z" fill="#FAFAFA"/>
<path d="M40.3708 97.2436C40.3708 97.3027 40.0182 97.0069 39.313 97.0069C38.6078 96.9478 37.6088 97.2436 36.6098 98.0126C36.0809 98.3676 35.552 98.8408 34.9644 99.255C34.318 99.6691 33.554 99.9649 32.7313 100.142C31.0271 100.438 29.1466 100.142 27.3249 99.4916C25.5031 98.8408 23.8577 98.0126 22.3298 97.421C21.5659 97.1253 20.8019 96.9478 20.0967 96.8295C19.3915 96.7111 18.6864 96.652 18.0987 96.7111C16.8646 96.7703 15.8656 97.1253 15.278 97.4802C14.6903 97.8352 14.3965 98.1309 14.3965 98.0718C14.3965 98.0718 14.4552 98.0126 14.5728 97.8352C14.6903 97.7168 14.9254 97.5394 15.2192 97.3619C15.8069 96.9478 16.8059 96.5928 18.0987 96.4745C18.7451 96.4154 19.4503 96.4745 20.1555 96.5337C20.9194 96.652 21.6834 96.8886 22.4473 97.1253C24.034 97.6577 25.6794 98.4859 27.4424 99.1366C29.2054 99.7874 31.0859 100.083 32.6725 99.7874C33.4952 99.6099 34.2004 99.3733 34.7881 98.9592C35.3757 98.5451 35.9634 98.1309 36.4923 97.776C37.5501 97.0069 38.6078 96.7703 39.313 96.8295C39.6656 96.8295 39.9594 96.9478 40.1357 97.0661C40.312 97.1253 40.3708 97.2436 40.3708 97.2436Z" fill="#FAFAFA"/>
<path d="M73.4554 142.559C73.4554 142.559 73.5142 142.618 73.6317 142.736C73.7492 142.854 73.9255 143.032 74.1018 143.268C74.4544 143.801 74.9245 144.629 75.0421 145.694C75.2184 146.818 75.1008 148.238 74.2781 149.48C73.5142 150.782 72.1626 151.787 71.3986 153.207C71.046 153.917 70.9285 154.745 71.1048 155.514C71.2223 156.283 71.5749 156.993 71.8688 157.644C72.5152 158.945 73.1028 160.188 73.1028 161.371C73.1028 162.554 72.5152 163.382 71.9863 163.737C71.7512 163.915 71.5162 164.033 71.3399 164.033C71.1636 164.092 71.1048 164.092 71.1048 164.033C71.1048 163.974 71.4574 163.974 71.9275 163.619C72.3976 163.264 72.8678 162.436 72.8678 161.371C72.8678 160.306 72.2801 159.064 71.6337 157.762C71.3399 157.111 70.9873 156.402 70.811 155.573C70.6347 154.745 70.7522 153.858 71.1048 153.089C71.5162 152.32 72.045 151.669 72.5739 151.077C73.1028 150.486 73.6317 149.953 73.9843 149.303C74.7483 148.119 74.9246 146.759 74.807 145.694C74.6895 144.629 74.2781 143.801 73.9843 143.268C73.6905 142.795 73.4554 142.559 73.4554 142.559Z" fill="#FAFAFA"/>
<path d="M98.078 168.529C98.078 168.529 98.0193 168.47 97.843 168.352C97.7254 168.233 97.5491 167.997 97.3728 167.642C97.079 166.991 97.0202 165.808 97.5491 164.565C97.7842 163.974 98.1956 163.323 98.6657 162.732C99.1946 162.14 99.7822 161.608 100.37 160.957C100.958 160.365 101.545 159.714 102.015 158.886C102.427 158.117 102.72 157.171 102.779 156.165C102.956 154.213 102.603 152.32 102.544 150.604C102.427 148.889 102.544 147.291 103.132 146.049C103.661 144.807 104.425 144.038 105.071 143.683C105.365 143.505 105.659 143.387 105.835 143.328C106.011 143.269 106.129 143.269 106.129 143.269C106.129 143.328 105.718 143.387 105.13 143.801C104.542 144.215 103.837 144.984 103.308 146.167C102.779 147.35 102.662 148.889 102.838 150.604C102.956 152.32 103.308 154.154 103.132 156.165C103.014 157.171 102.779 158.117 102.309 158.945C101.839 159.774 101.193 160.484 100.605 161.075C99.3709 162.258 98.2543 163.323 97.7842 164.506C97.2553 165.689 97.2553 166.754 97.5491 167.405C97.7842 168.233 98.1368 168.47 98.078 168.529Z" fill="#FAFAFA"/>
<path d="M101.134 176.338C101.134 176.338 100.958 176.515 100.487 176.752C100.017 176.989 99.3121 177.284 98.3718 177.344C97.4316 177.462 96.1975 177.344 94.9047 176.929C93.5531 176.575 92.1427 175.865 90.6736 174.977C89.2044 174.149 87.559 173.084 85.6785 172.433C83.798 171.783 81.5649 171.724 79.3906 172.197C77.1575 172.67 74.9832 173.557 72.6913 174.504C70.3995 175.451 68.0489 176.515 65.4044 177.048C64.1116 177.344 62.76 177.403 61.4671 177.284C60.1743 177.166 58.9402 176.752 57.8237 176.22C55.5906 175.096 53.7689 173.439 51.9471 172.138C51.0069 171.487 50.1254 170.836 49.1264 170.363C48.8913 170.245 48.6563 170.126 48.4212 170.008C48.1862 169.89 47.9511 169.83 47.716 169.712C47.2459 169.535 46.717 169.416 46.2469 169.298C44.3076 168.825 42.3684 168.825 40.723 169.061C39.0188 169.298 37.5496 169.771 36.3155 170.363C36.0217 170.481 35.7279 170.659 35.4341 170.836C35.1402 170.954 34.9052 171.132 34.6701 171.309C34.4351 171.487 34.2 171.605 33.9649 171.783C33.7299 171.96 33.5536 172.079 33.3773 172.256C32.9659 172.552 32.6721 172.848 32.437 173.084C32.1432 173.321 31.9669 173.557 31.7906 173.735C31.6143 173.912 31.4968 174.031 31.3793 174.149C31.2617 174.267 31.2617 174.267 31.2617 174.267C31.2617 174.267 31.3205 174.208 31.3793 174.09C31.4968 173.972 31.6143 173.853 31.7318 173.617C31.9081 173.439 32.0844 173.143 32.3783 172.907C32.6721 172.67 32.9072 172.315 33.3185 172.019C33.4948 171.842 33.7299 171.724 33.9062 171.546C34.1412 171.369 34.3763 171.25 34.6113 171.073C34.8464 170.895 35.0815 170.718 35.3753 170.6C35.6691 170.422 35.963 170.245 36.2568 170.126C37.4909 169.535 39.0188 169.002 40.723 168.766C42.4271 168.529 44.3664 168.47 46.3644 168.943C46.8346 169.061 47.3634 169.18 47.8336 169.357C48.0686 169.476 48.3625 169.535 48.5975 169.653C48.8326 169.771 49.0676 169.89 49.3027 170.008C50.3017 170.481 51.242 171.132 52.1234 171.783C53.9452 173.143 55.7669 174.741 57.9412 175.865C59.0578 176.397 60.2331 176.811 61.4671 176.929C62.7012 177.048 63.9941 176.989 65.2869 176.693C67.8138 176.16 70.2232 175.155 72.515 174.208C74.8069 173.262 77.04 172.315 79.2731 171.901C81.5061 171.428 83.798 171.487 85.7373 172.138C87.6765 172.788 89.2632 173.853 90.7911 174.681C92.2602 175.569 93.6706 176.279 94.9634 176.693C96.2563 177.107 97.4316 177.225 98.3718 177.107C99.3121 177.048 100.017 176.752 100.487 176.575C100.899 176.515 101.134 176.338 101.134 176.338Z" fill="#FAFAFA"/>
<path d="M68.4607 77.6623C75.0424 78.0173 80.6839 73.048 81.2127 66.4815C81.5653 62.577 81.8004 59.2642 81.8004 59.2642C81.8004 59.2642 91.7905 59.0275 93.2009 49.1481C94.6113 39.2688 95.8453 16.3746 95.8453 16.3746C85.0913 9.98553 71.8103 9.92637 60.9975 16.2563L59.4108 17.2028L56.8251 64.7659C56.4725 71.5099 61.6439 77.3074 68.4607 77.6623Z" fill="#FFBE9D"/>
<path d="M83.2109 42.2858C83.2109 42.1675 84.0924 42.1083 85.444 42.1083C85.7966 42.1083 86.0904 42.0492 86.1492 41.8717C86.2667 41.6942 86.1492 41.2801 86.0317 40.8068C85.7966 39.8603 85.5615 38.9138 85.3265 37.9081C84.3862 33.767 83.7398 30.395 83.9749 30.3359C84.2099 30.2767 85.1502 33.5896 86.0904 37.7306C86.3255 38.7363 86.5018 39.6828 86.7369 40.6294C86.7956 41.0435 86.9719 41.5759 86.7369 42.1083C86.6193 42.4041 86.2667 42.5816 86.0317 42.5816C85.7966 42.6407 85.5615 42.5816 85.444 42.5816C84.0336 42.5224 83.2109 42.4041 83.2109 42.2858Z" fill="#263238"/>
<path d="M81.8593 59.0867C81.8593 59.0867 75.5714 58.7909 69.5186 53.7625C69.5186 53.7625 71.6341 61.2755 81.5067 61.6305L81.8593 59.0867Z" fill="#EB996E"/>
<path d="M95.7277 18.8592C95.7277 18.8592 89.5573 21.4622 81.9178 17.0845C76.9228 14.2449 70.9875 12.6476 69.6358 13.5942C68.2842 14.5407 67.6966 19.8649 62.5252 21.1664C62.5252 21.1664 62.2902 31.3416 58.2941 30.75C54.2981 30.1584 57.6477 14.5407 57.6477 14.5407L67.7554 10.2222L78.627 8.80237L88.6758 10.8137L96.3741 13.4167L95.7277 18.8592Z" fill="#263238"/>
<path d="M59.2933 27.4963C59.117 27.378 52.8291 24.5975 52.1827 31.4007C51.4775 38.2039 58.4118 37.4348 58.4118 37.2574C58.4706 37.0799 59.2933 27.4963 59.2933 27.4963Z" fill="#FFBE9D"/>
<path d="M56.6488 34.4769C56.6488 34.4769 56.5313 34.5361 56.2962 34.5952C56.1199 34.6544 55.7673 34.7136 55.4147 34.5361C54.7095 34.1811 54.2394 32.998 54.2982 31.7557C54.357 31.1641 54.5332 30.5725 54.7683 30.0992C55.0034 29.626 55.356 29.3302 55.7673 29.271C56.1199 29.2119 56.355 29.4485 56.4137 29.6851C56.4725 29.8626 56.4137 30.0401 56.4725 30.0401C56.4725 30.0401 56.6488 29.9218 56.59 29.626C56.59 29.5077 56.5313 29.3302 56.355 29.1527C56.1787 28.9752 56.0024 28.9161 55.7086 28.9161C55.1797 28.9161 54.6508 29.3302 54.3569 29.8626C54.0631 30.395 53.8281 31.0458 53.7693 31.6965C53.6518 33.0571 54.2394 34.4178 55.1797 34.7727C55.6498 34.9502 56.0611 34.8319 56.2962 34.7136C56.59 34.6544 56.6488 34.5361 56.6488 34.4769Z" fill="#EB996E"/>
<path d="M66.9914 14.659C65.6398 16.138 64.2294 17.6169 62.5252 18.6817C60.821 19.7466 58.7055 20.3382 56.7662 19.9241C54.8269 19.4508 53.064 17.7352 53.0052 15.7238C52.9464 13.7125 54.8857 11.7011 56.8837 12.1744C55.5321 12.1744 54.4156 10.6954 54.8269 9.39394C55.2383 8.09246 57.06 7.56004 58.1178 8.38825C56.4136 8.09246 56.2373 5.31204 57.5889 4.24719C58.9405 3.18235 60.9385 3.41898 62.5252 4.06972C64.1119 4.72046 65.6398 5.72614 67.2852 6.14025C69.9296 6.73183 72.6916 5.60783 75.0422 4.24719C77.3929 2.88656 79.6259 1.17098 82.2704 0.461081C85.5025 -0.426289 88.9696 0.224449 92.0842 1.52592C94.6699 2.59077 97.0793 4.18804 98.7247 6.43604C100.37 8.68404 101.193 11.6419 100.488 14.3632C99.7237 17.0845 97.2556 19.2733 94.4936 19.2733C94.4936 19.2733 88.2645 19.9241 83.1519 16.138C78.098 12.3518 67.4027 12.8251 67.4027 12.8251L66.9914 14.659Z" fill="#263238"/>
<path d="M57.6479 6.791C57.6479 6.791 57.7655 6.90932 58.0593 7.08679C58.2944 7.26427 58.7057 7.5009 59.2934 7.85585C60.3512 8.44743 61.9966 9.21648 64.1709 9.80806C66.2865 10.3996 68.9897 10.7546 71.928 10.5771C74.8662 10.3996 77.9808 9.45311 81.2129 8.6249C84.445 7.85585 87.6183 7.44174 90.3803 8.09248C93.1423 8.74322 95.3166 10.3996 96.2568 12.2927C97.1971 14.1858 97.1383 16.0788 96.7857 17.2028C96.4331 18.386 95.963 18.8592 96.0218 18.9184C96.0218 18.9184 96.1393 18.8001 96.3744 18.5634C96.5507 18.2677 96.8445 17.9127 97.0796 17.3211C97.5497 16.138 97.726 14.1858 96.7857 12.0561C95.7867 9.98554 93.4949 8.15164 90.6154 7.44174C87.6771 6.67269 84.3862 7.08679 81.0954 7.915C77.8045 8.74322 74.8075 9.68974 71.928 9.92638C69.0484 10.163 66.4628 9.86722 64.3472 9.3348C59.9986 8.26995 57.7067 6.61353 57.6479 6.791Z" fill="#455A64"/>
<path d="M54.592 17.2619C54.5332 17.3211 54.7095 17.9718 55.4734 18.8C56.1786 19.6282 57.4715 20.5748 59.1756 20.9889C60.8798 21.3438 62.4077 20.9889 63.4068 20.5748C64.4058 20.1015 64.8759 19.5691 64.8171 19.5099C64.7584 19.3916 64.1707 19.7466 63.2305 20.1015C62.2314 20.3973 60.8211 20.6339 59.2932 20.3381C57.7653 19.9832 56.59 19.2141 55.826 18.5042C55.0621 17.7352 54.7095 17.2028 54.592 17.2619Z" fill="#455A64"/>
<path d="M56.7077 13.89C56.5315 13.9491 57.0603 15.1914 58.3532 16.0788C59.646 16.9662 60.9976 17.0253 60.9976 16.8479C61.0564 16.6704 59.9398 16.3154 58.7645 15.4872C57.5892 14.7182 56.884 13.7717 56.7077 13.89Z" fill="#455A64"/>
<path d="M99.0188 23.3552C99.1364 23.3552 99.3127 23.0594 99.3714 22.4087C99.4302 21.8171 99.3127 20.9297 98.7838 20.1015C98.2549 19.2733 97.5497 18.8 96.9621 18.6226C96.3744 18.4451 96.0218 18.4451 96.0218 18.5634C95.963 18.7409 97.3734 19.155 98.1961 20.5156C99.0188 21.9354 98.8425 23.3552 99.0188 23.3552Z" fill="#263238"/>
<path d="M102.545 13.6533C102.368 13.5941 101.604 15.3689 99.8414 16.8478C98.0784 18.3859 96.1979 18.8 96.2567 19.0367C96.2567 19.2141 98.3723 19.0958 100.312 17.4394C102.192 15.783 102.721 13.6533 102.545 13.6533Z" fill="#455A64"/>
<path d="M92.3195 31.3416C92.2607 32.1698 91.4968 32.7614 90.674 32.7022C89.8513 32.643 89.2049 31.9332 89.3224 31.1049C89.3812 30.2767 90.1452 29.6851 90.9679 29.7443C91.7906 29.8626 92.3782 30.5725 92.3195 31.3416Z" fill="#263238"/>
<path d="M93.4949 31.2233C93.2599 31.4007 92.2608 30.395 90.6154 30.2176C89.0287 29.9809 87.6771 30.6908 87.5596 30.4542C87.5008 30.3359 87.7359 30.0401 88.2648 29.6852C88.7937 29.3894 89.7339 29.0936 90.7329 29.271C91.732 29.3894 92.5547 29.9218 92.966 30.3359C93.4949 30.75 93.6125 31.1641 93.4949 31.2233Z" fill="#263238"/>
<path d="M77.5695 29.3302C77.5107 30.1584 76.7467 30.75 75.924 30.6909C75.1013 30.6317 74.4549 29.9218 74.5724 29.0936C74.6312 28.2654 75.3951 27.6738 76.2179 27.733C77.0406 27.7921 77.687 28.502 77.5695 29.3302Z" fill="#263238"/>
<path d="M78.6272 29.2711C78.3922 29.4485 77.3931 28.4428 75.7477 28.2654C74.161 28.0287 72.8095 28.7386 72.6919 28.502C72.6332 28.3837 72.8682 28.0879 73.3971 27.7329C73.926 27.4372 74.8662 27.1414 75.8652 27.3188C76.8643 27.4372 77.687 27.9696 78.0983 28.3837C78.6272 28.7978 78.7447 29.2119 78.6272 29.2711Z" fill="#263238"/>
<path d="M78.0393 24.775C77.7455 25.0708 76.5114 24.1835 74.866 24.006C73.2205 23.8285 71.8689 24.4201 71.6339 24.0651C71.5163 23.8877 71.7514 23.4736 72.3391 23.0595C72.9267 22.6454 73.9257 22.3496 75.0423 22.4679C76.1588 22.5862 77.0991 23.1186 77.5692 23.651C78.0393 24.1835 78.1568 24.6567 78.0393 24.775Z" fill="#263238"/>
<path d="M93.3771 27.4963C93.4359 27.6738 93.1421 28.0287 92.5544 28.2654C91.9668 28.502 91.0853 28.6795 90.0863 28.502C89.146 28.3245 88.3233 27.9104 87.8532 27.4963C87.3831 27.0822 87.2068 26.6681 87.3243 26.4906C87.6181 26.1357 88.7934 26.7273 90.3213 26.9639C91.908 27.2597 93.2596 27.0822 93.3771 27.4963Z" fill="#263238"/>
<path d="M81.9766 45.0071C82.1529 45.0071 82.2704 45.3029 82.2704 45.717C82.2704 46.0719 82.0941 46.3677 81.9178 46.3677C81.7416 46.3677 81.624 46.0719 81.624 45.6578C81.624 45.3029 81.8003 45.0071 81.9766 45.0071Z" fill="#263238"/>
<path d="M58.1179 39.8603C58.1179 39.8603 58.1179 40.0378 58.0003 40.2744C57.8828 40.5111 57.589 40.8069 57.1189 41.0435C56.7075 41.2801 56.0611 41.3984 55.4147 41.1618C54.7683 40.9252 54.1806 40.3927 53.9455 39.6237C53.7105 38.8546 53.828 38.0856 54.1806 37.494C54.4744 36.9024 55.0033 36.5475 55.4734 36.3109C55.9436 36.1334 56.3549 36.0742 56.59 36.0742C56.8838 36.0742 57.0013 36.1334 57.0013 36.1334C57.0013 36.1925 56.4137 36.0742 55.5322 36.4883C55.1208 36.6658 54.7095 37.0207 54.4157 37.6123C54.1218 38.1447 54.0043 38.8546 54.2394 39.5054C54.4744 40.1561 55.0033 40.6294 55.5322 40.866C56.0611 41.1026 56.6487 41.0435 57.0601 40.8069C57.8828 40.4519 58.0591 39.8012 58.1179 39.8603Z" fill="#455A64"/>
<path d="M64.582 80.3835C64.582 80.3835 67.8729 75.71 69.9297 73.1071C72.3978 69.9125 73.9257 67.1913 73.9257 65.7123C73.9257 64.2334 73.9257 57.8443 73.9257 57.8443C73.9257 57.8443 77.0403 57.0752 77.4517 60.6839C77.9218 64.2334 77.4517 65.1207 77.4517 65.1207C77.4517 65.1207 90.4976 56.247 91.379 56.8978C92.9069 58.0218 89.9687 60.3881 89.9687 60.3881L82.0354 67.6054L86.5603 66.1856C87.6768 65.8306 88.8521 66.4222 89.2047 67.5462C89.4986 68.4336 89.2047 69.4393 88.382 69.9717L85.6788 72.338L87.0304 71.8056C88.0294 71.3915 89.146 71.8056 89.6749 72.8113C90.0862 73.5803 89.9099 74.5269 89.3223 75.1776L86.8541 77.7806L87.9707 77.189C88.7346 76.7749 89.6161 77.0707 90.0274 77.8397C90.3213 78.4904 90.145 79.2595 89.6161 79.6736L74.9835 91.3277L64.582 80.3835Z" fill="#FFBE9D"/>
<path d="M75.1007 91.2094C75.1007 91.2094 75.042 91.1503 74.9244 91.032C74.8069 90.9137 74.6306 90.7362 74.3955 90.4995C73.9254 90.0263 73.2202 89.3164 72.3387 88.3699C70.517 86.536 67.8726 83.8147 64.5817 80.4427L64.5229 80.3835L64.5817 80.3244C65.522 78.9637 66.5797 77.4848 67.6963 75.9467C68.2839 75.1776 68.8716 74.4086 69.4592 73.5803C70.1057 72.7521 70.6933 71.9831 71.3397 71.0957C71.9274 70.2083 72.515 69.321 73.0439 68.3153C73.5141 67.3096 73.9842 66.2448 73.8666 65.1207C73.8666 62.8136 73.8666 60.3881 73.8666 57.8443V57.726H73.9842C74.7481 57.5485 75.6296 57.6668 76.3348 58.1401C76.6874 58.3767 76.9812 58.6725 77.2163 59.0275C77.3926 59.3824 77.5689 59.7965 77.6276 60.2106C77.8039 61.0388 77.8627 61.8079 77.9215 62.6953C77.9215 63.1094 77.9215 63.5235 77.9215 63.9376C77.9215 64.3517 77.8627 64.7658 77.7452 65.2391L77.5101 65.0616C79.5081 63.701 81.6237 62.3403 83.798 60.9797C84.8558 60.2698 85.9723 59.6191 87.0889 58.9683C88.2054 58.3176 89.322 57.6077 90.556 57.0753C90.7323 57.0161 90.9086 56.9569 91.0849 56.8978C91.2025 56.8978 91.2612 56.8386 91.3787 56.8386C91.4375 56.8386 91.4963 56.8386 91.555 56.8386C91.6726 56.8978 91.6726 56.8978 91.7313 56.9569C92.0252 57.1936 92.2015 57.6077 92.2015 58.0218C92.0839 58.7908 91.6138 59.3233 91.1437 59.8557C90.6736 60.3881 90.1447 60.8022 89.6158 61.2755C89.1457 61.7487 88.6168 62.1628 88.1467 62.6361C86.1486 64.4109 84.2094 66.1856 82.3289 67.9012L82.2113 67.6645C83.0928 67.3688 83.9743 67.073 84.8558 66.8363C85.2671 66.718 85.7373 66.5405 86.1486 66.4222C86.3837 66.3631 86.56 66.3039 86.795 66.2448C87.0301 66.1856 87.2652 66.1264 87.5002 66.1856C88.4405 66.2448 89.322 66.9546 89.557 67.842C89.7921 68.7885 89.4395 69.7942 88.6755 70.3267C87.7353 71.0957 86.8538 71.9239 85.9723 72.6338L85.8548 72.3972C86.3249 72.2197 86.7363 72.0422 87.1476 71.8648C87.6178 71.6873 88.1467 71.6281 88.6168 71.7465C89.557 71.9831 90.2622 72.9296 90.2034 73.8761C90.2034 74.3494 90.0271 74.8227 89.7333 75.1776C89.4395 75.5326 89.1457 75.8284 88.8518 76.1241C88.2642 76.7749 87.6765 77.3665 87.1476 77.958L87.0301 77.7806C87.4415 77.5439 87.8528 77.3665 88.2642 77.1298C88.7343 76.8932 89.2632 76.9524 89.6746 77.189C90.0859 77.4256 90.4385 77.8397 90.4973 78.2538C90.6148 78.7271 90.4973 79.2004 90.2034 79.5553C90.0859 79.7328 89.8508 79.8511 89.7333 79.9694C89.557 80.0877 89.3807 80.206 89.2632 80.3835C88.9694 80.6202 88.6168 80.9159 88.3229 81.1526C87.6765 81.6258 87.0889 82.0991 86.5012 82.5724C84.1506 84.4063 82.1526 86.0035 80.4484 87.305C78.8029 88.6065 77.5101 89.6122 76.6286 90.3221C76.2173 90.677 75.8647 90.9137 75.6296 91.0911C75.2183 91.0911 75.1007 91.2094 75.1007 91.2094C75.1007 91.2094 75.2183 91.0911 75.4533 90.9137C75.6884 90.7362 76.041 90.4404 76.4523 90.0854C77.3338 89.3755 78.6267 88.3699 80.2721 87.0092C81.9175 85.7078 83.9155 84.0513 86.2662 82.2174C86.8538 81.7442 87.4415 81.2709 88.0879 80.7976C88.3817 80.561 88.7343 80.3244 89.0281 80.0286C89.2044 79.9103 89.322 79.7919 89.4983 79.6145C89.6746 79.4962 89.8509 79.3778 89.9684 79.2004C90.2034 78.9046 90.321 78.4905 90.2034 78.0764C90.1447 77.6623 89.8508 77.3073 89.4983 77.1298C89.1457 76.9524 88.6755 76.9524 88.3229 77.1298C87.9116 77.3665 87.5002 77.5439 87.0889 77.7806L86.4425 78.1355L86.9126 77.6031C87.4415 77.0115 88.0291 76.4199 88.6168 75.7692C88.9106 75.4734 89.2044 75.1185 89.4983 74.8227C89.7333 74.4677 89.9096 74.1128 89.9096 73.6987C89.9096 72.8705 89.322 72.0422 88.4992 71.8056C88.0879 71.6873 87.6178 71.7464 87.2064 71.8648C86.795 72.0422 86.3249 72.2197 85.9136 72.3972L85.1496 72.693L85.7373 72.1606C86.6187 71.3915 87.5002 70.6224 88.4405 69.7942C89.0869 69.321 89.4395 68.4336 89.2044 67.6645C89.0281 66.8363 88.2642 66.2448 87.3827 66.1856C86.9713 66.1264 86.56 66.3039 86.0899 66.4814C85.6785 66.5997 85.2084 66.7772 84.797 66.8955C83.9155 67.1913 83.0341 67.4279 82.1526 67.7237L81.5062 67.9603L82.035 67.4871C83.9155 65.7715 85.8548 63.9967 87.8528 62.222C88.3229 61.7487 88.8518 61.3346 89.322 60.8614C89.7921 60.3881 90.321 59.974 90.7911 59.5007C91.2025 59.0275 91.6726 58.4359 91.7313 57.8443C91.7901 57.5485 91.6726 57.2527 91.3787 57.0753C91.32 57.0161 91.2024 57.0161 91.0262 57.0753C90.8499 57.1344 90.7323 57.1936 90.556 57.2527C89.3807 57.7852 88.2054 58.4359 87.0889 59.0866C85.9723 59.7374 84.8558 60.4473 83.798 61.098C81.6237 62.4586 79.5669 63.8193 77.5689 65.1799L77.2163 65.4165L77.3926 65.0024C77.5101 64.6475 77.5689 64.2334 77.5689 63.8193C77.5689 63.4052 77.5689 62.9911 77.5689 62.577C77.5101 61.7487 77.4513 60.9205 77.3338 60.1515C77.275 59.7374 77.0987 59.3824 76.9224 59.0866C76.7462 58.7908 76.4523 58.495 76.1585 58.2584C75.5121 57.8443 74.7481 57.7852 74.0429 57.9035L74.1605 57.7852C74.1605 60.2698 74.1605 62.6953 74.1605 65.0616C74.1605 65.3574 74.1605 65.6532 74.1605 65.949C74.1017 66.2448 74.0429 66.5405 73.9842 66.8363C73.8079 67.3688 73.5728 67.9012 73.3378 68.4336C72.8089 69.4393 72.2212 70.3858 71.6336 71.214C71.0459 72.1014 70.3995 72.9296 69.7531 73.6987C69.1654 74.5269 68.519 75.2959 67.9901 76.065C66.8736 77.6031 65.8158 79.082 64.8755 80.3835V80.2652C68.1664 83.6372 70.7521 86.3585 72.5738 88.2515C73.4553 89.1981 74.1605 89.908 74.6306 90.3812C74.8657 90.6179 75.042 90.7953 75.1595 90.9728C75.042 91.0911 75.1007 91.2094 75.1007 91.2094Z" fill="#EB996E"/>
<path d="M75.1008 91.2095L35.0815 144.452C29.0287 152.556 18.0396 155.455 8.93092 151.077C2.29043 147.883 -2.5871 141.139 1.46772 127.296L39.8415 100.852L63.1714 78.1947L75.1008 91.2095Z" fill="#85BC91"/>
<path d="M8.931 151.077C8.931 151.077 9.1073 151.137 9.34236 151.314C9.63618 151.491 10.0475 151.669 10.5764 151.965C11.693 152.438 13.4559 153.148 15.8066 153.385C16.9819 153.503 18.2747 153.503 19.7438 153.325C20.449 153.266 21.213 153.089 21.9769 152.911C22.3295 152.852 22.7409 152.675 23.1522 152.615C23.5636 152.497 23.9162 152.379 24.3275 152.201C25.9142 151.61 27.5596 150.841 29.1463 149.835C30.733 148.829 32.3196 147.528 33.6712 145.871C36.4332 142.618 39.254 138.891 42.3098 134.927C45.3656 130.964 48.5977 126.704 51.9473 122.208C58.7053 113.216 66.1098 103.278 73.808 92.8067C74.2194 92.2743 74.6307 91.6827 75.0421 91.1503V91.3278C70.9285 86.8909 66.9325 82.5132 63.1127 78.313H63.289C55.1206 85.1162 47.5986 91.5644 40.7231 97.3619C33.9063 103.159 27.7359 108.188 22.5646 112.329C17.3932 116.47 13.1621 119.664 10.2238 121.853C8.7547 122.918 7.63816 123.746 6.81545 124.338C6.40409 124.634 6.11026 124.811 5.93396 124.989C5.75767 125.107 5.64014 125.166 5.64014 125.166C5.64014 125.166 5.75767 125.107 5.93396 124.93C6.11026 124.752 6.40409 124.575 6.81545 124.279C7.5794 123.687 8.69594 122.859 10.1651 121.794C13.1033 119.605 17.2757 116.352 22.447 112.211C27.6184 108.069 33.73 102.982 40.5468 97.1844C47.3636 91.3869 54.9443 84.9387 63.1127 78.1355L63.2302 78.0172L63.3478 78.1355C67.2263 82.3358 71.2223 86.6543 75.2772 91.1503L75.3359 91.2686L75.2772 91.3869C74.8658 91.9193 74.4544 92.5109 74.0431 93.0434C66.3448 103.514 58.9404 113.394 52.1824 122.445C48.774 126.941 45.5419 131.2 42.4861 135.164C39.4303 139.127 36.6095 142.854 33.8475 146.108C32.4959 147.765 30.9093 149.066 29.2638 150.072C27.6772 151.137 25.973 151.906 24.3863 152.438C23.9749 152.615 23.6224 152.734 23.211 152.852C22.7996 152.97 22.447 153.089 22.0357 153.148C21.2717 153.325 20.5078 153.503 19.8026 153.503C18.3922 153.68 17.0406 153.621 15.8653 153.562C13.5147 153.325 11.7517 152.556 10.6352 152.083C10.1063 151.787 9.69495 151.551 9.40112 151.373C9.1073 151.137 8.931 151.077 8.931 151.077Z" fill="#263238"/>
<path d="M39.3125 137.175C39.3125 137.234 38.8424 136.82 37.9021 136.347C36.9619 135.933 35.434 135.578 33.6123 135.815C32.672 135.933 31.673 136.11 30.6152 136.465C29.5575 136.761 28.4997 137.234 27.3244 137.708C26.1491 138.181 24.9738 138.654 23.6222 139.009C22.3293 139.364 20.9189 139.542 19.4498 139.423C17.9807 139.246 16.6291 138.832 15.395 138.299C14.1609 137.767 12.9856 137.175 11.8691 136.643C9.63598 135.578 7.46166 134.927 5.63994 135.045C3.75944 135.105 2.34907 135.874 1.58512 136.524C0.762405 137.175 0.527344 137.767 0.527344 137.708C0.527344 137.708 0.586109 137.589 0.70364 137.353C0.879936 137.116 1.115 136.761 1.46759 136.406C2.23154 135.696 3.64191 134.927 5.58117 134.809C7.52043 134.691 9.69475 135.341 11.9866 136.406C13.1031 136.939 14.2785 137.53 15.5125 138.003C16.7466 138.536 18.0982 138.95 19.4498 139.127C20.8602 139.246 22.2118 139.068 23.5046 138.713C24.7975 138.358 26.0315 137.885 27.1481 137.471C28.3234 136.998 29.3812 136.584 30.4389 136.288C31.4967 135.992 32.4957 135.755 33.436 135.696C35.3165 135.519 36.8444 135.874 37.7846 136.347C38.9012 136.761 39.3125 137.175 39.3125 137.175Z" fill="#FAFAFA"/>
<path d="M53.4753 119.369C53.4165 119.369 53.7103 119.014 53.6516 118.304C53.534 117.653 53.0052 116.647 51.8886 116.115C51.301 115.878 50.6545 115.701 49.9494 115.523C49.2442 115.346 48.4215 115.168 47.6575 114.814C46.1296 114.104 44.7192 112.861 43.3676 111.442C42.0748 110.022 40.8407 108.602 39.6066 107.537C38.3726 106.413 37.021 105.703 35.8457 105.348C34.6703 104.993 33.6126 104.993 32.9074 105.171C32.2022 105.289 31.8496 105.467 31.8496 105.407C31.8496 105.407 31.9084 105.348 32.0847 105.289C32.261 105.23 32.496 105.112 32.8486 105.052C33.5538 104.875 34.6116 104.816 35.8457 105.171C37.0797 105.467 38.4901 106.236 39.7242 107.36C41.017 108.424 42.1923 109.844 43.5439 111.264C44.8368 112.684 46.2471 113.867 47.7163 114.577C49.1854 115.287 50.7721 115.346 51.8886 115.997C53.0639 116.588 53.6516 117.653 53.6516 118.363C53.6516 118.718 53.5928 119.014 53.534 119.191C53.534 119.25 53.4753 119.369 53.4753 119.369Z" fill="#FAFAFA"/>
</svg>
