<svg width="175" height="177" viewBox="0 0 175 177" fill="none" xmlns="http://www.w3.org/2000/svg">
<path d="M149.221 88.6818L157.537 102.501C157.537 102.501 166.372 117.203 167.776 121.152C169.179 125.1 175 159.336 175 161.934C175 167.805 168.763 173.104 165.021 173.104C161.279 173.104 153.794 169.883 147.246 166.35C140.697 162.869 128.586 148.738 128.586 148.738L126.404 118.398L123.545 90.5521L149.221 88.6818Z" fill="#85BC91"/>
<path d="M147.09 152.894C147.09 152.894 147.09 152.842 147.038 152.738C146.986 152.635 146.986 152.479 146.934 152.271C146.83 151.855 146.726 151.284 146.57 150.505C146.259 148.946 145.791 146.764 145.219 144.011C144.647 141.257 144.024 138.036 143.296 134.399C142.932 132.581 142.568 130.711 142.153 128.737C141.789 126.763 141.425 124.684 141.217 122.554C141.113 121.463 141.113 120.424 141.113 119.385C141.113 118.346 141.217 117.307 141.269 116.32C141.321 115.333 141.373 114.346 141.373 113.359C141.373 113.099 141.321 112.891 141.321 112.632C141.321 112.372 141.269 112.164 141.217 111.956C141.113 111.489 141.061 111.021 140.905 110.605C140.385 108.839 139.606 107.281 138.826 105.826C138.046 104.371 137.267 103.072 136.539 101.878C135.084 99.4878 133.836 97.6175 133.109 96.2148C132.745 95.5394 132.485 94.968 132.329 94.6043C132.277 94.4485 132.173 94.2926 132.121 94.1887C132.069 94.0848 132.069 94.0328 132.069 94.0328C132.069 94.0328 132.121 94.0848 132.173 94.1887C132.225 94.2926 132.277 94.4485 132.381 94.6043C132.537 94.968 132.849 95.4875 133.213 96.2148C133.992 97.5656 135.188 99.4878 136.695 101.826C137.423 103.021 138.254 104.319 139.034 105.774C139.814 107.229 140.593 108.787 141.165 110.605C141.321 111.021 141.373 111.489 141.477 111.956C141.529 112.164 141.529 112.424 141.581 112.684C141.581 112.943 141.633 113.151 141.633 113.411C141.633 114.398 141.633 115.385 141.581 116.372C141.529 117.359 141.477 118.398 141.425 119.437C141.425 120.476 141.425 121.515 141.529 122.554C141.685 124.684 142.049 126.711 142.412 128.685C142.776 130.659 143.192 132.529 143.556 134.348C144.283 137.984 144.907 141.205 145.427 143.959C145.947 146.66 146.362 148.894 146.674 150.453C146.83 151.232 146.934 151.803 146.986 152.219C147.038 152.427 147.038 152.583 147.09 152.687C147.09 152.842 147.09 152.894 147.09 152.894Z" fill="#263238"/>
<path d="M156.861 104.891C156.861 104.891 156.705 105.099 156.445 105.41C156.289 105.566 156.133 105.774 155.925 105.982C155.718 106.19 155.458 106.449 155.146 106.709C154.574 107.229 153.846 107.8 153.015 108.424C152.183 108.995 151.196 109.566 150.104 110.086C149.013 110.606 147.973 110.969 146.934 111.229C145.946 111.489 145.011 111.697 144.231 111.748C143.867 111.8 143.503 111.8 143.192 111.852C142.88 111.904 142.62 111.904 142.412 111.904C141.996 111.904 141.736 111.904 141.736 111.904C141.736 111.852 142.672 111.852 144.231 111.593C145.011 111.489 145.894 111.281 146.882 111.021C147.869 110.709 148.909 110.346 150 109.878C151.04 109.359 152.027 108.839 152.911 108.268C153.743 107.696 154.47 107.125 155.042 106.657C156.185 105.618 156.809 104.891 156.861 104.891Z" fill="#263238"/>
<g opacity="0.3">
<g opacity="0.3">
<g opacity="0.3">
<g opacity="0.3">
<path opacity="0.3" d="M132.952 95.7473C135.395 101.41 137.578 107.281 139.085 113.307C140.592 119.333 141.008 125.672 139.449 131.646C138.41 135.542 137.006 140.374 138.981 143.907C138.825 140.322 139.657 131.906 141.58 130.347C143.243 136.062 144.906 144.582 146.622 150.297C145.374 141.309 142.931 133.464 141.788 124.373C141.476 121.931 141.892 116.372 141.528 113.878C140.437 106.449 139.553 107.125 132.952 95.7473Z" fill="black"/>
</g>
</g>
</g>
</g>
<path d="M142.204 128.945C142.255 128.945 141.788 129.776 141.216 131.178C140.644 132.581 139.969 134.503 139.501 136.789C139.085 139.023 138.981 141.101 139.033 142.608C139.085 144.114 139.189 145.05 139.137 145.05C139.137 145.05 139.085 144.842 139.033 144.426C138.981 144.011 138.877 143.387 138.877 142.66C138.773 141.153 138.825 139.023 139.241 136.789C139.657 134.503 140.384 132.529 141.008 131.178C141.32 130.503 141.632 129.932 141.84 129.568C142.048 129.152 142.204 128.945 142.204 128.945Z" fill="#263238"/>
<path d="M56.8083 123.749C56.8602 123.801 53.3779 129.412 48.96 136.27C44.5421 143.127 40.9559 148.686 40.9039 148.634C40.8519 148.582 44.3343 142.972 48.7521 136.114C53.118 129.256 56.7563 123.697 56.8083 123.749Z" fill="#263238"/>
<path d="M46.6732 89.2533L75.6753 83.9022L106.912 84.5256H114.605L131.185 95.4875C131.185 95.4875 134.303 139.802 127.754 153.985C125.571 158.661 116.995 173.156 116.995 173.156L52.2346 173.363L35.6025 159.025L41.7876 132.477L46.6732 89.2533Z" fill="#85BC91"/>
<g opacity="0.3">
<g opacity="0.3">
<g opacity="0.3">
<g opacity="0.3">
<path opacity="0.3" d="M93.4508 156.531L93.0869 156.479C89.9165 158.921 87.6296 162.402 86.5381 166.246C90.852 166.038 94.6462 163.077 96.9331 159.44C99.22 155.804 100.208 151.492 101.091 147.284C98.8562 150.556 96.5173 153.933 93.4508 156.531Z" fill="black"/>
</g>
</g>
</g>
</g>
<path d="M1.871 173.104C-1.92317 171.753 -0.156023 150.089 9.51134 139.75C10.7587 138.4 32.2244 98.189 41.424 91.5911C48.0768 86.8635 54.1579 88.7337 55.7172 98.137C57.2764 107.54 56.8606 123.697 56.8606 123.697L40.9043 148.582L45.8419 151.284L62.6818 152.427L59.5633 173.052H1.871V173.104Z" fill="#85BC91"/>
<path d="M59.5111 173.104C59.5111 173.104 59.5111 173.052 59.5111 173C59.5111 172.948 59.5111 172.844 59.5631 172.74C59.6151 172.48 59.6671 172.116 59.719 171.649C59.875 170.714 60.0309 169.311 60.2908 167.597C60.8105 164.116 61.5382 159.232 62.3698 153.466L62.4737 153.622C58.5236 153.102 54.1577 152.531 49.5839 151.959C48.2845 151.803 47.0371 151.647 45.7897 151.492H45.7377C44.8542 150.972 43.9706 150.505 43.087 149.985C42.2034 149.517 41.4238 148.946 40.5922 148.53C38.929 147.595 37.2138 146.92 35.6026 146.348C33.9394 145.829 32.3282 145.465 30.8209 145.205C29.3136 144.998 27.8583 144.894 26.559 144.842C23.9602 144.79 21.8812 145.102 20.4779 145.413C19.7502 145.517 19.2305 145.673 18.8666 145.777C18.7107 145.829 18.5548 145.829 18.4508 145.881C18.3469 145.881 18.2949 145.933 18.2949 145.881C18.2949 145.881 18.3469 145.881 18.4508 145.829C18.5548 145.777 18.7107 145.777 18.8666 145.725C19.2305 145.621 19.7502 145.465 20.4779 145.309C21.8812 144.998 23.9602 144.634 26.6109 144.686C27.9103 144.686 29.3656 144.79 30.8729 144.998C32.3802 145.257 34.0434 145.569 35.7066 146.089C37.3698 146.608 39.0849 147.335 40.7481 148.271C41.6317 148.686 42.4113 149.31 43.2949 149.725C44.1785 150.193 45.0101 150.712 45.9456 151.18H45.8937C47.0891 151.336 48.3885 151.492 49.6878 151.647C54.2617 152.271 58.6276 152.842 62.5777 153.31H62.6816V153.414C61.798 159.18 61.0184 164.064 60.4987 167.545C60.2388 169.259 59.9789 170.61 59.875 171.597C59.823 172.065 59.719 172.428 59.6671 172.688C59.6671 172.792 59.6151 172.896 59.6151 172.948C59.5111 173.052 59.5111 173.104 59.5111 173.104Z" fill="#263238"/>
<path d="M46.3098 151.544C46.3098 151.596 45.2184 151.803 43.6591 152.583C42.0999 153.362 40.0728 154.817 38.6175 157.05C37.1622 159.284 36.6425 161.726 36.5905 163.493C36.5385 165.259 36.7984 166.298 36.7464 166.35C36.7464 166.35 36.6944 166.298 36.6944 166.142C36.6425 166.038 36.5905 165.83 36.5905 165.571C36.4865 165.103 36.4346 164.376 36.4346 163.493C36.4346 161.726 36.9023 159.232 38.4096 156.895C39.9169 154.609 41.9959 153.102 43.6071 152.375C44.4387 152.011 45.1144 151.803 45.5822 151.647C45.8421 151.596 45.998 151.544 46.1539 151.544C46.2579 151.544 46.3098 151.544 46.3098 151.544Z" fill="#263238"/>
<g opacity="0.3">
<g opacity="0.3">
<g opacity="0.3">
<g opacity="0.3">
<path opacity="0.3" d="M41.0082 148.478C35.7587 142.868 27.4427 140.478 20.2182 143.023C19.5425 143.283 18.7629 143.751 18.8668 144.478C18.9708 145.361 20.2701 145.413 21.1537 145.257C27.8585 144.011 35.031 145.05 40.9562 148.478" fill="black"/>
</g>
</g>
</g>
</g>
<path d="M57.6399 112.943C57.6399 112.943 57.6919 112.58 57.7958 111.956C57.8998 111.333 57.9518 110.398 57.9518 109.255C57.9518 106.969 57.38 103.8 55.6129 100.787C53.8457 97.7734 51.299 95.7472 49.2719 94.7082C48.2844 94.1367 47.4008 93.7731 46.8291 93.5653C46.2054 93.3575 45.8936 93.2536 45.8936 93.2016C45.8936 93.2016 45.9975 93.2016 46.1534 93.2536C46.3094 93.3055 46.5692 93.3575 46.8811 93.4614C47.5048 93.6692 48.3884 93.9809 49.3759 94.5524C51.4029 95.5914 54.0017 97.6175 55.8208 100.683C57.6399 103.748 58.1597 106.969 58.1077 109.307C58.1077 110.45 57.9518 111.385 57.8478 112.008C57.7958 112.32 57.7439 112.58 57.6919 112.736C57.6919 112.891 57.6399 112.943 57.6399 112.943Z" fill="#263238"/>
<path d="M128.794 104.319C128.794 104.319 128.794 104.371 128.846 104.475C128.846 104.579 128.898 104.735 128.95 104.943C129.002 105.358 129.106 105.93 129.262 106.709C129.522 108.216 129.885 110.45 130.249 113.203C130.665 115.957 131.081 119.23 131.393 122.866C131.705 126.503 131.86 130.555 131.705 134.763C131.549 138.971 130.977 143.023 130.197 146.556C129.366 150.141 128.326 153.258 127.183 155.804C126.039 158.349 124.948 160.272 124.064 161.57C123.648 162.246 123.285 162.713 123.077 163.025C122.973 163.181 122.869 163.285 122.817 163.389C122.765 163.493 122.713 163.493 122.713 163.493C122.713 163.493 122.713 163.441 122.817 163.337C122.869 163.233 122.973 163.129 123.077 162.921C123.285 162.557 123.648 162.09 124.064 161.414C124.896 160.116 125.987 158.141 127.079 155.596C128.17 153.05 129.262 149.933 130.041 146.348C130.821 142.764 131.341 138.763 131.549 134.555C131.861 126.139 130.873 118.502 130.197 112.995C129.833 110.294 129.522 108.06 129.262 106.501C129.158 105.774 129.054 105.151 129.002 104.735C129.002 104.527 128.95 104.371 128.95 104.267C128.742 104.371 128.742 104.319 128.794 104.319Z" fill="#263238"/>
<path d="M145.738 171.337H73.3887V176.48H145.738V171.337Z" fill="#EBEBEB"/>
<path d="M163.046 164.012L88.6693 165.83L76.4032 169.415L73.3887 171.337H145.738L152.183 173.467L161.382 170.714L163.046 164.012Z" fill="white"/>
<path d="M145.738 171.337C145.738 171.337 153.742 172.584 156.913 171.337C160.083 170.09 163.046 163.96 163.046 163.96L163.41 173.415L145.738 176.428V171.337Z" fill="#E0E0E0"/>
<path d="M145.686 171.337C145.738 171.337 145.842 172.48 145.842 173.935C145.842 175.389 145.79 176.532 145.738 176.532C145.686 176.532 145.582 175.389 145.582 173.935C145.582 172.48 145.634 171.337 145.686 171.337Z" fill="#263238"/>
<path d="M162.682 164.999C162.682 164.999 162.682 165.051 162.63 165.207C162.578 165.311 162.526 165.519 162.422 165.726C162.266 166.194 161.902 166.817 161.383 167.545C160.343 168.999 158.316 170.61 155.717 171.389C153.067 172.168 150.572 172.064 148.805 171.857C147.921 171.753 147.193 171.649 146.726 171.545C146.258 171.441 145.998 171.389 145.998 171.337C145.998 171.337 146.258 171.337 146.778 171.441C147.245 171.493 147.973 171.597 148.857 171.701C150.624 171.857 153.067 171.909 155.665 171.181C158.212 170.402 160.239 168.843 161.279 167.493C162.37 166.09 162.63 164.999 162.682 164.999Z" fill="#263238"/>
<path d="M156.185 172.428C156.185 172.48 155.666 172.636 154.782 172.896C153.898 173.155 152.651 173.415 151.3 173.623C149.896 173.831 148.649 173.935 147.713 173.935C146.778 173.935 146.206 173.935 146.206 173.883C146.206 173.831 146.778 173.831 147.661 173.727C148.597 173.675 149.844 173.519 151.196 173.311C152.547 173.104 153.794 172.844 154.678 172.636C155.614 172.532 156.185 172.376 156.185 172.428Z" fill="#263238"/>
<path d="M155.873 174.454C155.873 174.506 155.354 174.558 154.418 174.662C153.534 174.766 152.287 174.818 150.936 174.87C149.584 174.922 148.337 174.87 147.453 174.87C146.57 174.818 145.998 174.766 145.998 174.766C145.998 174.714 146.57 174.714 147.453 174.714C148.337 174.714 149.584 174.714 150.936 174.662C152.287 174.61 153.534 174.558 154.418 174.506C155.354 174.454 155.873 174.454 155.873 174.454Z" fill="#263238"/>
<path d="M142.308 176.74C142.308 176.74 141.84 176.688 141.32 176.169C140.8 175.701 140.229 174.766 140.385 173.675C140.54 172.584 141.268 171.753 141.892 171.441C142.515 171.077 142.983 171.077 142.983 171.129C142.983 171.181 142.567 171.233 141.996 171.597C141.476 171.961 140.8 172.688 140.696 173.727C140.592 174.714 141.06 175.597 141.528 176.065C141.944 176.584 142.36 176.74 142.308 176.74Z" fill="#263238"/>
<path d="M141.632 177C141.632 177 141.217 176.948 140.697 176.48C140.177 176.064 139.605 175.285 139.501 174.246C139.397 173.207 139.761 172.324 140.177 171.804C140.593 171.285 140.957 171.077 140.957 171.129C141.009 171.181 140.645 171.389 140.333 171.908C139.969 172.428 139.657 173.259 139.761 174.194C139.865 175.129 140.385 175.909 140.801 176.324C141.268 176.792 141.632 176.948 141.632 177Z" fill="#263238"/>
<path d="M137.786 176.74C137.786 176.74 137.318 176.688 136.799 176.169C136.279 175.701 135.707 174.766 135.863 173.675C136.019 172.584 136.747 171.753 137.37 171.441C137.994 171.077 138.462 171.077 138.462 171.129C138.462 171.181 138.046 171.233 137.474 171.597C136.955 171.961 136.279 172.688 136.175 173.727C136.071 174.714 136.539 175.597 137.006 176.065C137.422 176.584 137.838 176.74 137.786 176.74Z" fill="#263238"/>
<path d="M137.111 177C137.111 177 136.695 176.948 136.175 176.48C135.656 176.064 135.084 175.285 134.98 174.246C134.876 173.207 135.24 172.324 135.656 171.804C136.071 171.285 136.435 171.077 136.435 171.129C136.487 171.181 136.123 171.389 135.811 171.908C135.448 172.428 135.136 173.259 135.24 174.194C135.344 175.129 135.863 175.909 136.279 176.324C136.747 176.792 137.111 176.948 137.111 177Z" fill="#263238"/>
<path d="M133.264 176.74C133.264 176.74 132.796 176.688 132.276 176.169C131.756 175.701 131.185 174.766 131.341 173.675C131.496 172.584 132.224 171.753 132.848 171.441C133.472 171.077 133.939 171.077 133.939 171.129C133.939 171.181 133.524 171.233 132.952 171.597C132.432 171.961 131.756 172.688 131.652 173.727C131.548 174.714 132.016 175.597 132.484 176.065C132.9 176.584 133.316 176.74 133.264 176.74Z" fill="#263238"/>
<path d="M132.588 177C132.588 177 132.173 176.948 131.653 176.48C131.133 176.064 130.561 175.285 130.457 174.246C130.353 173.207 130.717 172.324 131.133 171.804C131.549 171.285 131.913 171.077 131.913 171.129C131.965 171.181 131.601 171.389 131.289 171.908C130.925 172.428 130.613 173.259 130.717 174.194C130.821 175.129 131.341 175.909 131.757 176.324C132.225 176.792 132.588 176.948 132.588 177Z" fill="#263238"/>
<path d="M128.742 176.74C128.742 176.74 128.274 176.688 127.755 176.169C127.235 175.701 126.663 174.766 126.819 173.675C126.975 172.584 127.703 171.753 128.326 171.441C128.95 171.077 129.418 171.077 129.418 171.129C129.418 171.181 129.002 171.233 128.43 171.597C127.911 171.961 127.235 172.688 127.131 173.727C127.027 174.714 127.495 175.597 127.963 176.065C128.378 176.584 128.794 176.74 128.742 176.74Z" fill="#263238"/>
<path d="M128.067 177C128.067 177 127.651 176.948 127.131 176.48C126.612 176.064 126.04 175.285 125.936 174.246C125.832 173.207 126.196 172.324 126.612 171.804C127.027 171.285 127.391 171.077 127.391 171.129C127.443 171.181 127.079 171.389 126.768 171.908C126.404 172.428 126.092 173.259 126.196 174.194C126.3 175.129 126.819 175.909 127.235 176.324C127.703 176.792 128.067 176.948 128.067 177Z" fill="#263238"/>
<path d="M124.273 176.74C124.273 176.74 123.806 176.688 123.286 176.169C122.766 175.701 122.194 174.766 122.35 173.675C122.506 172.584 123.234 171.753 123.858 171.441C124.481 171.077 124.949 171.077 124.949 171.129C124.949 171.181 124.533 171.233 123.962 171.597C123.442 171.961 122.766 172.688 122.662 173.727C122.558 174.714 123.026 175.597 123.494 176.065C123.858 176.584 124.273 176.74 124.273 176.74Z" fill="#263238"/>
<path d="M123.545 177C123.545 177 123.13 176.948 122.61 176.48C122.09 176.064 121.518 175.285 121.414 174.246C121.31 173.207 121.674 172.324 122.09 171.804C122.506 171.285 122.87 171.077 122.87 171.129C122.922 171.181 122.558 171.389 122.246 171.908C121.882 172.428 121.57 173.259 121.674 174.194C121.778 175.129 122.298 175.909 122.714 176.324C123.182 176.792 123.545 176.948 123.545 177Z" fill="#263238"/>
<path d="M119.751 176.74C119.751 176.74 119.283 176.688 118.763 176.169C118.244 175.701 117.672 174.766 117.828 173.675C117.984 172.584 118.711 171.753 119.335 171.441C119.959 171.077 120.427 171.077 120.427 171.129C120.427 171.181 120.011 171.233 119.439 171.597C118.919 171.961 118.244 172.688 118.14 173.727C118.036 174.714 118.504 175.597 118.971 176.065C119.335 176.584 119.751 176.74 119.751 176.74Z" fill="#263238"/>
<path d="M119.023 177C119.023 177 118.607 176.948 118.087 176.48C117.568 176.064 116.996 175.285 116.892 174.246C116.788 173.207 117.152 172.324 117.568 171.804C117.983 171.285 118.347 171.077 118.347 171.129C118.399 171.181 118.035 171.389 117.724 171.908C117.36 172.428 117.048 173.259 117.152 174.194C117.256 175.129 117.776 175.909 118.191 176.324C118.659 176.792 119.075 176.948 119.023 177Z" fill="#263238"/>
<path d="M115.229 176.74C115.229 176.74 114.762 176.688 114.242 176.169C113.722 175.701 113.15 174.766 113.306 173.675C113.462 172.584 114.19 171.753 114.814 171.441C115.437 171.077 115.905 171.077 115.905 171.129C115.905 171.181 115.489 171.233 114.918 171.597C114.398 171.961 113.722 172.688 113.618 173.727C113.514 174.714 113.982 175.597 114.45 176.065C114.814 176.584 115.229 176.74 115.229 176.74Z" fill="#263238"/>
<path d="M114.501 177C114.501 177 114.086 176.948 113.566 176.48C113.046 176.064 112.474 175.285 112.37 174.246C112.267 173.207 112.63 172.324 113.046 171.804C113.462 171.285 113.826 171.077 113.826 171.129C113.878 171.181 113.514 171.389 113.202 171.908C112.838 172.428 112.526 173.259 112.63 174.194C112.734 175.129 113.254 175.909 113.67 176.324C114.138 176.792 114.553 176.948 114.501 177Z" fill="#263238"/>
<path d="M110.708 176.74C110.708 176.74 110.24 176.688 109.72 176.169C109.201 175.701 108.629 174.766 108.785 173.675C108.941 172.584 109.668 171.753 110.292 171.441C110.916 171.077 111.384 171.077 111.384 171.129C111.384 171.181 110.968 171.233 110.396 171.597C109.876 171.961 109.201 172.688 109.097 173.727C108.993 174.714 109.461 175.597 109.928 176.065C110.292 176.584 110.708 176.74 110.708 176.74Z" fill="#263238"/>
<path d="M109.98 177C109.98 177 109.564 176.948 109.044 176.48C108.525 176.064 107.953 175.285 107.849 174.246C107.745 173.207 108.109 172.324 108.525 171.804C108.94 171.285 109.304 171.077 109.304 171.129C109.356 171.181 108.992 171.389 108.681 171.908C108.317 172.428 108.005 173.259 108.109 174.194C108.213 175.129 108.733 175.909 109.148 176.324C109.668 176.792 110.032 176.948 109.98 177Z" fill="#263238"/>
<path d="M106.186 176.74C106.186 176.74 105.718 176.688 105.198 176.169C104.678 175.701 104.107 174.766 104.262 173.675C104.418 172.584 105.146 171.753 105.77 171.441C106.393 171.077 106.861 171.077 106.861 171.129C106.861 171.181 106.445 171.233 105.874 171.597C105.354 171.961 104.678 172.688 104.574 173.727C104.47 174.714 104.938 175.597 105.406 176.065C105.822 176.584 106.186 176.74 106.186 176.74Z" fill="#263238"/>
<path d="M105.458 177C105.458 177 105.042 176.948 104.522 176.48C104.002 176.064 103.43 175.285 103.327 174.246C103.223 173.207 103.586 172.324 104.002 171.804C104.418 171.285 104.782 171.077 104.782 171.129C104.834 171.181 104.47 171.389 104.158 171.908C103.794 172.428 103.482 173.259 103.586 174.194C103.69 175.129 104.21 175.909 104.626 176.324C105.146 176.792 105.509 176.948 105.458 177Z" fill="#263238"/>
<path d="M101.663 176.74C101.663 176.74 101.195 176.688 100.676 176.169C100.156 175.701 99.5841 174.766 99.74 173.675C99.8959 172.584 100.624 171.753 101.247 171.441C101.871 171.077 102.339 171.077 102.339 171.129C102.339 171.181 101.923 171.233 101.351 171.597C100.831 171.961 100.156 172.688 100.052 173.727C99.9479 174.714 100.416 175.597 100.883 176.065C101.299 176.584 101.715 176.74 101.663 176.74Z" fill="#263238"/>
<path d="M100.988 177C100.988 177 100.572 176.948 100.052 176.48C99.5325 176.064 98.9608 175.285 98.8568 174.246C98.7529 173.207 99.1167 172.324 99.5325 171.804C99.9483 171.285 100.312 171.077 100.312 171.129C100.364 171.181 100 171.389 99.6884 171.908C99.3246 172.428 99.0127 173.259 99.1167 174.194C99.2206 175.129 99.7404 175.909 100.156 176.324C100.624 176.792 100.988 176.948 100.988 177Z" fill="#263238"/>
<path d="M97.1416 176.74C97.1416 176.74 96.6738 176.688 96.154 176.169C95.6343 175.701 95.0626 174.766 95.2185 173.675C95.3744 172.584 96.1021 171.753 96.7258 171.441C97.3495 171.077 97.8173 171.077 97.8173 171.129C97.8173 171.181 97.4015 171.233 96.8297 171.597C96.31 171.961 95.6343 172.688 95.5303 173.727C95.4264 174.714 95.8942 175.597 96.3619 176.065C96.7777 176.584 97.1935 176.74 97.1416 176.74Z" fill="#263238"/>
<path d="M96.4663 177C96.4663 177 96.0505 176.948 95.5308 176.48C95.011 176.064 94.4393 175.285 94.3353 174.246C94.2314 173.207 94.5952 172.324 95.011 171.804C95.4268 171.285 95.7906 171.077 95.7906 171.129C95.8426 171.181 95.4788 171.389 95.1669 171.908C94.8031 172.428 94.4913 173.259 94.5952 174.194C94.6992 175.129 95.2189 175.909 95.6347 176.324C96.1025 176.792 96.4663 176.948 96.4663 177Z" fill="#263238"/>
<path d="M92.6191 176.74C92.6191 176.74 92.1513 176.688 91.6316 176.169C91.1118 175.701 90.5401 174.766 90.696 173.675C90.852 172.584 91.5796 171.753 92.2033 171.441C92.827 171.077 93.2948 171.077 93.2948 171.129C93.2948 171.181 92.879 171.233 92.3073 171.597C91.7875 171.961 91.1118 172.688 91.0079 173.727C90.9039 174.714 91.3717 175.597 91.8395 176.065C92.2553 176.584 92.6711 176.74 92.6191 176.74Z" fill="#263238"/>
<path d="M91.9438 177C91.9438 177 91.528 176.948 91.0083 176.48C90.4885 176.064 89.9168 175.285 89.8129 174.246C89.7089 173.207 90.0727 172.324 90.4885 171.804C90.9043 171.285 91.2682 171.077 91.2682 171.129C91.3201 171.181 90.9563 171.389 90.6445 171.908C90.2806 172.428 89.9688 173.259 90.0727 174.194C90.1767 175.129 90.6964 175.909 91.1122 176.324C91.58 176.792 91.9438 176.948 91.9438 177Z" fill="#263238"/>
<path d="M88.0976 176.74C88.0976 176.74 87.6299 176.688 87.1101 176.169C86.5904 175.701 86.0186 174.766 86.1745 173.675C86.3305 172.584 87.0581 171.753 87.6818 171.441C88.3055 171.077 88.7733 171.077 88.7733 171.129C88.7733 171.181 88.3575 171.233 87.7858 171.597C87.266 171.961 86.5903 172.688 86.4864 173.727C86.3824 174.714 86.8502 175.597 87.318 176.065C87.7338 176.584 88.1496 176.74 88.0976 176.74Z" fill="#263238"/>
<path d="M87.4224 177C87.4224 177 87.0066 176.948 86.4868 176.48C85.9671 176.064 85.3953 175.285 85.2914 174.246C85.1874 173.207 85.5512 172.324 85.9671 171.804C86.3829 171.285 86.7467 171.077 86.7467 171.129C86.7987 171.181 86.4348 171.389 86.123 171.908C85.7592 172.428 85.4473 173.259 85.5513 174.194C85.6552 175.129 86.175 175.909 86.5908 176.324C87.0585 176.792 87.4224 176.948 87.4224 177Z" fill="#263238"/>
<path d="M83.6289 176.74C83.6289 176.74 83.1611 176.688 82.6414 176.169C82.1216 175.701 81.5499 174.766 81.7058 173.675C81.8617 172.584 82.5894 171.753 83.2131 171.441C83.8368 171.077 84.3046 171.077 84.3046 171.129C84.3046 171.181 83.8888 171.233 83.317 171.597C82.7973 171.961 82.1216 172.688 82.0177 173.727C81.9137 174.714 82.3815 175.597 82.8493 176.065C83.2131 176.584 83.6289 176.74 83.6289 176.74Z" fill="#263238"/>
<path d="M82.9009 177C82.9009 177 82.4851 176.948 81.9653 176.48C81.4456 176.064 80.8738 175.285 80.7699 174.246C80.6659 173.207 81.0298 172.324 81.4456 171.804C81.8614 171.285 82.2252 171.077 82.2252 171.129C82.2772 171.181 81.9133 171.389 81.6015 171.908C81.2377 172.428 80.9258 173.259 81.0298 174.194C81.1337 175.129 81.6535 175.909 82.0693 176.324C82.537 176.792 82.9009 176.948 82.9009 177Z" fill="#263238"/>
<path d="M79.1064 176.74C79.1064 176.74 78.6386 176.688 78.1189 176.169C77.5991 175.701 77.0274 174.766 77.1833 173.675C77.3393 172.584 78.0669 171.753 78.6906 171.441C79.3143 171.077 79.7821 171.077 79.7821 171.129C79.7821 171.181 79.3663 171.233 78.7946 171.597C78.2748 171.961 77.5991 172.688 77.4952 173.727C77.3912 174.714 77.859 175.597 78.3268 176.065C78.6906 176.584 79.1064 176.74 79.1064 176.74Z" fill="#263238"/>
<path d="M78.3784 177C78.3784 177 77.9626 176.948 77.4429 176.48C76.9231 176.064 76.3514 175.285 76.2474 174.246C76.1435 173.207 76.5073 172.324 76.9231 171.804C77.3389 171.285 77.7027 171.077 77.7027 171.129C77.7547 171.181 77.3909 171.389 77.079 171.908C76.7152 172.428 76.4034 173.259 76.5073 174.194C76.6113 175.129 77.131 175.909 77.5468 176.324C78.0146 176.792 78.4304 176.948 78.3784 177Z" fill="#263238"/>
<path d="M74.5849 176.74C74.5849 176.74 74.1172 176.688 73.5974 176.169C73.0777 175.701 72.5059 174.766 72.6619 173.675C72.8178 172.584 73.5454 171.753 74.1691 171.441C74.7928 171.077 75.2606 171.077 75.2606 171.129C75.2606 171.181 74.8448 171.233 74.2731 171.597C73.7533 171.961 73.0777 172.688 72.9737 173.727C72.8697 174.714 73.3375 175.597 73.8053 176.065C74.1691 176.584 74.5849 176.74 74.5849 176.74Z" fill="#263238"/>
<path d="M73.8569 177C73.8569 177 73.4411 176.948 72.9214 176.48C72.4016 176.064 71.8299 175.285 71.726 174.246C71.622 173.207 71.9858 172.324 72.4016 171.804C72.8174 171.285 73.1813 171.077 73.1813 171.129C73.2332 171.181 72.8694 171.389 72.5576 171.908C72.1937 172.428 71.8819 173.259 71.9858 174.194C72.0898 175.129 72.6095 175.909 73.0253 176.324C73.5451 176.792 73.9089 176.948 73.8569 177Z" fill="#263238"/>
<path d="M62.9943 136.841C69.3873 142.971 91.8925 164.532 91.8925 164.532L96.4143 166.194L95.011 161.518L66.2168 133.516C65.2813 132.633 63.8259 132.633 62.8904 133.568C62.0588 134.503 62.1108 135.958 62.9943 136.841Z" fill="#85BC91"/>
<path d="M94.5949 158.557L87.8381 149.985L74.6884 146.504L62.4743 154.349L59.9795 170.506C59.9795 170.506 62.6822 170.506 63.9816 170.402C64.8132 170.35 71.414 169.467 71.414 169.467C71.414 169.467 76.8714 169.415 79.3662 168.844C81.861 168.324 82.7446 167.233 84.5117 167.233C86.2789 167.233 86.6947 165.207 86.6947 165.207C86.6947 165.207 88.6178 164.583 89.8652 163.752C91.1645 162.921 91.1645 160.947 91.1645 160.947C91.1645 160.947 91.8402 161.259 93.6074 160.947C95.3745 160.687 94.5949 158.557 94.5949 158.557Z" fill="#FFBE9D"/>
<path d="M91.32 160.531C91.32 160.531 91.1641 160.375 90.9042 160.064C90.6444 159.7 90.2805 159.284 89.8647 158.817C88.9812 157.778 87.6818 156.375 85.8107 155.388C83.9396 154.453 82.0685 154.037 80.7171 153.777C80.0934 153.674 79.5737 153.57 79.1059 153.466C78.7421 153.414 78.5342 153.362 78.5342 153.31C78.5342 153.31 78.7421 153.31 79.1579 153.362C79.5217 153.414 80.0934 153.466 80.7691 153.57C82.1205 153.778 84.0435 154.141 85.9146 155.128C87.8377 156.115 89.1371 157.57 89.9687 158.661C90.3845 159.18 90.7483 159.648 90.9562 159.96C91.2681 160.375 91.372 160.531 91.32 160.531Z" fill="#EB996E"/>
<path d="M87.5262 164.168C87.4742 164.168 87.3703 163.492 86.5906 162.869C85.811 162.194 84.4597 161.778 83.0044 161.207C81.5491 160.635 80.1977 160.116 79.2622 159.7C78.3266 159.284 77.7549 159.025 77.7549 159.025C77.7549 158.973 78.3786 159.18 79.3661 159.544C80.3536 159.908 81.653 160.427 83.1083 160.999C83.836 161.31 84.5116 161.57 85.1873 161.83C85.811 162.09 86.3827 162.401 86.7466 162.765C87.1624 163.129 87.3703 163.492 87.4742 163.804C87.5782 164.012 87.5782 164.168 87.5262 164.168Z" fill="#EB996E"/>
<path d="M83.7841 166.817C83.7841 166.869 83.3163 166.765 82.6407 166.661C81.913 166.506 80.9775 166.246 79.886 165.934C78.8465 165.622 77.859 165.259 77.1833 164.999C76.5076 164.739 76.0918 164.531 76.0918 164.531C76.0918 164.48 76.5596 164.635 77.2353 164.843C77.9109 165.051 78.8985 165.363 79.938 165.674C80.9775 165.986 81.965 166.246 82.6407 166.454C83.3683 166.61 83.7841 166.765 83.7841 166.817Z" fill="#EB996E"/>
<path d="M100.052 166.142C100.052 166.194 99.7401 166.402 99.1684 166.765C98.5966 167.077 97.817 167.545 96.8815 168.012C95.9979 168.48 95.1663 168.844 94.5426 169.103C93.9189 169.363 93.5551 169.519 93.5551 169.467C93.5031 169.415 94.9584 168.636 96.7775 167.753C98.5447 166.817 100 166.09 100.052 166.142Z" fill="#263238"/>
<path d="M103.691 165.83C103.742 165.882 102.183 166.817 100.26 167.908C98.3371 168.999 96.7259 169.831 96.7259 169.727C96.6739 169.675 98.2331 168.74 100.156 167.649C102.079 166.61 103.639 165.778 103.691 165.83Z" fill="#263238"/>
<path d="M104.989 166.09C105.041 166.142 103.898 166.973 102.443 167.96C100.987 168.947 99.792 169.675 99.74 169.623C99.688 169.571 100.831 168.74 102.287 167.753C103.742 166.765 104.937 166.038 104.989 166.09Z" fill="#263238"/>
<path d="M111.539 165.83C111.591 165.882 110.084 166.869 108.161 168.064C106.238 169.259 104.678 170.142 104.626 170.09C104.574 170.038 106.082 169.051 108.005 167.856C109.928 166.662 111.539 165.778 111.539 165.83Z" fill="#263238"/>
<path d="M113.877 165.934C113.929 165.986 112.37 166.765 110.655 167.856C108.888 168.947 107.536 169.986 107.484 169.935C107.484 169.883 107.744 169.623 108.316 169.207C108.836 168.792 109.615 168.22 110.499 167.649C111.383 167.077 112.214 166.662 112.838 166.35C113.462 166.09 113.825 165.934 113.877 165.934Z" fill="#263238"/>
<path d="M116.321 165.674C116.373 165.726 114.969 166.714 113.254 167.856C111.539 168.999 110.084 169.883 110.032 169.831C109.98 169.779 111.383 168.792 113.098 167.649C114.813 166.454 116.269 165.623 116.321 165.674Z" fill="#263238"/>
<path d="M119.647 165.259C119.699 165.311 118.243 166.35 116.424 167.597C114.605 168.844 113.046 169.779 113.046 169.675C113.046 169.571 114.449 168.584 116.268 167.337C118.087 166.09 119.647 165.155 119.647 165.259Z" fill="#263238"/>
<path d="M123.909 165.103C123.961 165.155 122.61 166.038 121.051 167.233C119.491 168.428 118.348 169.519 118.296 169.467C118.296 169.467 118.504 169.155 118.972 168.688C119.439 168.22 120.115 167.649 120.895 167.025C121.674 166.402 122.402 165.934 122.974 165.571C123.545 165.259 123.909 165.103 123.909 165.103Z" fill="#263238"/>
<path d="M125.832 165.467C125.884 165.519 124.637 166.454 123.233 167.649C121.778 168.844 120.687 169.883 120.635 169.831C120.583 169.779 121.622 168.636 123.078 167.441C124.481 166.246 125.78 165.415 125.832 165.467Z" fill="#263238"/>
<path d="M129.834 165.467C129.886 165.519 128.639 166.454 127.235 167.649C125.78 168.844 124.689 169.883 124.637 169.831C124.585 169.779 125.624 168.636 127.079 167.441C128.535 166.246 129.834 165.415 129.834 165.467Z" fill="#263238"/>
<path d="M132.901 165.467C132.953 165.519 131.705 166.454 130.302 167.649C128.846 168.844 127.755 169.883 127.703 169.831C127.651 169.779 128.691 168.636 130.146 167.441C131.549 166.246 132.849 165.415 132.901 165.467Z" fill="#263238"/>
<path d="M134.46 165.467C134.512 165.519 133.265 166.454 131.861 167.649C130.406 168.844 129.315 169.883 129.263 169.831C129.211 169.779 130.25 168.636 131.705 167.441C133.109 166.246 134.408 165.415 134.46 165.467Z" fill="#263238"/>
<path d="M140.021 165.311C140.073 165.363 138.825 166.298 137.422 167.493C135.967 168.688 134.875 169.727 134.823 169.675C134.771 169.623 135.811 168.48 137.266 167.285C138.669 166.09 139.969 165.259 140.021 165.311Z" fill="#263238"/>
<path d="M145.582 165.155C145.634 165.207 144.387 166.142 142.983 167.337C141.528 168.532 140.437 169.571 140.385 169.519C140.333 169.467 141.372 168.324 142.827 167.129C144.231 165.934 145.53 165.103 145.582 165.155Z" fill="#263238"/>
<path d="M151.092 164.999C151.144 165.051 149.897 165.986 148.493 167.181C147.038 168.376 145.946 169.415 145.894 169.363C145.842 169.311 146.882 168.168 148.337 166.973C149.741 165.778 151.092 164.947 151.092 164.999Z" fill="#263238"/>
<path d="M156.653 164.843C156.705 164.895 155.458 165.83 154.055 167.025C152.599 168.22 151.508 169.259 151.456 169.207C151.404 169.155 152.443 168.012 153.899 166.817C155.302 165.623 156.601 164.791 156.653 164.843Z" fill="#263238"/>
<path d="M127.059 55.4053C133.55 51.0173 135.253 42.2005 130.863 35.7124C126.473 29.2244 117.652 27.522 111.161 31.91C104.67 36.298 102.967 45.1148 107.357 51.6029C111.747 58.0909 120.568 59.7933 127.059 55.4053Z" fill="#85BC91"/>
<path d="M123.804 30.9633C123.804 30.9633 126.143 54.3936 126.455 70.3428L127.495 89.1494C127.495 89.1494 116.476 85.6167 105.301 86.1362L96.3096 63.0696L123.804 30.9633Z" fill="#263238"/>
<path d="M61.4866 35.0155C63.6175 25.1447 65.8005 14.9102 73.8046 8.77986C80.9772 3.32492 89.0333 1.92222 98.025 2.38978C102.443 2.64954 107.432 4.72762 111.227 6.96155C116.476 10.0267 118.607 16.1051 121.102 21.6639C126.04 32.7816 125.208 47.6918 121.674 51.796L75.208 75.486C67.0999 71.1221 61.6945 69.044 59.6155 60.1083C58.2641 54.0299 60.1352 41.1459 61.4866 35.0155Z" fill="#263238"/>
<path d="M74.6886 17.9234L103.847 9.76697C113.202 8.52012 119.751 19.9495 120.583 29.3528C121.518 39.7951 122.246 52.6273 121.154 60.472C119.075 76.2654 107.069 78.5512 107.069 78.5512C107.069 78.4993 107.017 78.811 107.069 83.4347L107.329 93.929C103.691 106.761 90.7489 105.462 73.5972 84.8374L70.0628 27.3786C69.8549 22.8588 71.83 18.2871 74.6886 17.9234Z" fill="#FFBE9D"/>
<path d="M117.932 42.2888C117.984 43.3279 117.152 44.263 116.061 44.3669C114.97 44.4708 113.982 43.6915 113.93 42.6005C113.878 41.5615 114.71 40.6264 115.801 40.5225C116.893 40.4186 117.88 41.1978 117.932 42.2888Z" fill="#263238"/>
<path d="M117.984 38.8081C117.724 39.0678 116.165 37.9768 114.034 38.0288C111.851 38.0807 110.292 39.2237 110.084 38.9639C109.98 38.86 110.188 38.3924 110.864 37.821C111.539 37.3015 112.683 36.7819 114.034 36.73C115.385 36.678 116.529 37.1976 117.204 37.6651C117.88 38.1846 118.14 38.6522 117.984 38.8081Z" fill="#263238"/>
<path d="M97.4536 42.2888C97.5056 43.3279 96.674 44.263 95.5825 44.3669C94.491 44.4708 93.5035 43.6915 93.4515 42.6005C93.3996 41.5615 94.2311 40.6264 95.3226 40.5225C96.4141 40.4186 97.3497 41.1978 97.4536 42.2888Z" fill="#263238"/>
<path d="M96.6736 38.7561C96.4137 39.0159 94.8544 37.9249 92.7235 37.9768C90.5405 38.0288 88.9813 39.1717 88.7734 38.912C88.6694 38.8081 88.8773 38.3405 89.553 37.769C90.2287 37.2495 91.3721 36.73 92.7235 36.678C94.0748 36.6261 95.2183 37.1456 95.8939 37.6132C96.5696 38.1327 96.7775 38.6003 96.6736 38.7561Z" fill="#263238"/>
<path d="M104.938 52.939C104.938 52.8351 106.289 52.5233 108.42 52.2116C108.992 52.1597 109.512 52.0038 109.564 51.6402C109.668 51.2245 109.46 50.6531 109.148 50.0297C108.576 48.6789 108.004 47.3282 107.381 45.8735C104.938 39.951 103.171 35.0156 103.431 34.9117C103.691 34.8077 105.821 39.5354 108.264 45.5098C108.836 46.9645 109.408 48.3672 109.928 49.7179C110.135 50.3414 110.551 51.0687 110.291 51.8999C110.135 52.3155 109.772 52.6272 109.408 52.7311C109.044 52.835 108.732 52.887 108.472 52.887C106.289 52.9909 104.938 53.0429 104.938 52.939Z" fill="#263238"/>
<path d="M107.069 78.5512C107.069 78.5512 96.5182 79.4864 85.8633 73.46C85.8633 73.46 91.3207 84.3179 107.017 82.4476L107.069 78.5512Z" fill="#EB996E"/>
<path d="M97.8698 57.147C98.4416 56.108 99.585 55.5885 100.728 55.4846C102.392 55.3807 103.795 55.9002 104.886 57.4068C105.25 57.8224 105.25 59.0693 105.146 59.4329C104.99 59.7966 105.094 59.5888 104.834 59.8485C103.899 60.7317 102.859 61.6149 101.664 61.9266C100.417 62.2383 98.8574 61.8747 98.0258 60.6798C97.2461 59.6927 97.2461 58.1861 97.8698 57.147Z" fill="#EB996E"/>
<path d="M98.1814 54.6534C98.5452 54.6014 98.5972 56.9912 100.676 58.6017C102.755 60.2122 105.25 59.8486 105.25 60.2122C105.302 60.3681 104.73 60.6798 103.639 60.7317C102.599 60.7837 101.092 60.5239 99.7927 59.5368C98.5452 58.5498 97.9735 57.199 97.8696 56.2119C97.7656 55.2248 98.0255 54.6534 98.1814 54.6534Z" fill="#263238"/>
<path d="M97.6099 30.8075C97.454 31.4309 95.271 31.327 92.7762 31.8465C90.2294 32.3141 88.2544 33.2492 87.8905 32.7297C87.7346 32.4699 88.0465 31.8985 88.8261 31.275C89.6057 30.6516 90.8531 29.9762 92.3604 29.7165C93.8677 29.4048 95.271 29.5606 96.2585 29.8723C97.1941 30.1321 97.6619 30.5477 97.6099 30.8075Z" fill="#263238"/>
<path d="M117.932 32.9375C117.412 33.3531 115.853 32.5738 113.878 32.2621C111.903 31.8465 110.188 32.0024 109.876 31.4309C109.72 31.1711 110.084 30.7036 110.916 30.3919C111.695 30.0282 112.995 29.8723 114.346 30.1321C115.697 30.3919 116.789 31.0153 117.412 31.6387C117.984 32.2102 118.14 32.7297 117.932 32.9375Z" fill="#263238"/>
<path d="M103.431 8.05255C103.431 8.15646 103.483 8.26036 103.483 8.41621H103.431C103.483 8.31231 103.431 8.20841 103.431 8.05255Z" fill="#263238"/>
<path d="M72.7649 84.4218C73.0247 84.5776 73.5965 100.631 75.6755 107.54C76.4031 109.982 84.2514 109.982 84.2514 109.982C85.1869 109.982 83.3158 79.0707 82.9 72.1611C82.6401 67.7972 77.6505 61.4071 76.559 57.147C74.8439 50.3413 77.4426 46.1332 78.4821 39.1197C82.4322 38.7041 88.2015 36.0546 90.8522 33.0414C94.0746 29.4047 96.0497 24.8849 97.9208 20.469C97.7649 24.833 96.1536 29.145 93.4509 32.6258C95.1661 32.9894 97.0372 32.3141 98.3886 31.1192C99.7399 29.9243 100.623 28.3138 101.351 26.7033C103.118 22.7549 104.106 18.4949 104.314 14.1829C104.781 20.3651 104.054 26.6513 101.975 32.5219C103.066 32.2101 104.262 32.5219 105.405 32.6777C106.549 32.8336 107.848 32.8336 108.68 32.0543C109.251 31.5348 109.407 30.7035 109.615 29.9762C110.759 24.7291 111.019 19.3261 110.343 13.975C111.694 16.8843 113.046 19.7937 113.825 22.8588C114.605 25.9759 114.761 29.3008 113.773 32.3141C114.241 32.8855 115.177 32.8336 115.748 32.3141C116.268 31.8465 116.528 31.0672 116.632 30.3399C117.1 27.6903 116.632 24.9888 116.216 22.3912C117.723 25.1966 118.243 28.4177 119.023 31.5348C119.854 34.5999 121.206 37.8209 123.856 39.5873C124.376 35.0155 124.272 31.8465 123.648 27.5345C123.181 24.2096 121.673 20.9366 120.27 17.9234C118.711 14.5465 116.528 11.2216 114.033 8.98766C109.459 4.88347 107.484 6.59788 104.522 8.10448L104.158 8.26034C104.158 8.20839 104.158 8.10448 104.158 8.05253L104.054 7.42911C96.3615 5.61079 88.2015 5.87055 80.6651 8.20839C75.0518 9.9228 68.1391 15.5856 65.2285 20.6768C65.1765 20.7807 65.1245 20.8846 65.0726 20.9885C58.7316 33.2492 51.1432 63.641 51.663 88.3182L59.1474 86.9155L72.7649 84.4218Z" fill="#263238"/>
<path d="M76.913 57.2662C82.4542 51.7276 82.4542 42.7475 76.913 37.2089C71.3718 31.6702 62.3878 31.6702 56.8467 37.2089C51.3055 42.7475 51.3055 51.7276 56.8467 57.2662C62.3878 62.8049 71.3718 62.8049 76.913 57.2662Z" fill="#85BC91"/>
<path d="M66.6318 33.0933C66.6318 33.0933 67.3075 3.89638 93.0352 0.0519393C93.0352 0.0519393 106.081 -0.987098 107.848 5.24712C107.848 5.24712 101.143 1.61049 94.4905 3.37686C90.0726 4.5198 74.0643 11.6372 73.3366 35.4312L66.7358 38.2885L66.6318 33.0933Z" fill="#85BC91"/>
<path d="M76.975 47.1723C76.975 47.1723 76.975 47.1203 76.975 47.0164C76.975 46.9125 76.975 46.7047 76.9231 46.5489C76.9231 46.341 76.8711 46.0813 76.8191 45.7696C76.7671 45.4579 76.7152 45.0942 76.6112 44.6786C76.4033 43.8993 76.0395 42.9122 75.4678 41.9251C74.8441 40.938 74.0125 39.899 72.817 39.0158C71.6736 38.1326 70.1663 37.4053 68.5031 37.0936C66.8399 36.7819 64.9168 36.8339 63.0977 37.5612C62.1621 37.8729 61.3305 38.3405 60.4989 38.9639C60.0831 39.2756 59.7193 39.5873 59.3555 39.951C58.9917 40.3146 58.6278 40.7302 58.368 41.1459C57.1206 42.8083 56.3929 44.9903 56.3929 47.2242C56.3929 48.3152 56.6008 49.4062 56.9127 50.4452C57.2245 51.4843 57.7443 52.4194 58.368 53.2506C58.6798 53.6663 59.0436 54.0819 59.3555 54.4455C59.7193 54.8092 60.0831 55.1729 60.4989 55.4326C61.3305 56.056 62.1621 56.5236 63.0977 56.8353C64.9168 57.5107 66.7879 57.5627 68.5031 57.3029C70.2183 56.9912 71.6736 56.2639 72.817 55.3807C74.0125 54.4975 74.8441 53.4585 75.4678 52.4714C76.0395 51.4843 76.4553 50.5491 76.6112 49.7179C76.7152 49.3023 76.7671 48.9386 76.8191 48.6269C76.8711 48.3152 76.9231 48.0555 76.9231 47.8476C76.9231 47.6398 76.975 47.484 76.975 47.3801C76.9231 47.2242 76.9231 47.1723 76.975 47.1723C76.975 47.1723 76.975 47.2242 76.975 47.3281C76.975 47.432 76.975 47.6398 76.975 47.8476C76.975 48.0555 76.975 48.3152 76.9231 48.6269C76.8711 48.9386 76.8191 49.3023 76.7152 49.7179C76.5592 50.5491 76.1954 51.4843 75.5717 52.5233C75 53.5624 74.1164 54.6014 72.921 55.5365C71.7256 56.4197 70.2703 57.199 68.5031 57.5107C66.7879 57.8224 64.8129 57.7705 62.9937 57.0951C62.0582 56.7834 61.1746 56.2639 60.343 55.6924C59.9272 55.3807 59.5634 55.017 59.1476 54.7053C58.7838 54.2897 58.4199 53.926 58.1081 53.5104C57.4844 52.6272 56.9127 51.6921 56.6008 50.6011C56.237 49.5621 56.0811 48.4191 56.0811 47.2762C56.0811 46.1332 56.289 44.9903 56.6008 43.9513C56.9127 42.9122 57.4844 41.9251 58.1081 41.042C58.4199 40.5744 58.7838 40.2107 59.1476 39.8471C59.5634 39.4834 59.9272 39.1197 60.343 38.86C61.1746 38.2366 62.0582 37.769 62.9937 37.4573C64.8648 36.7819 66.7879 36.7299 68.5031 37.0417C70.2183 37.3534 71.7256 38.1326 72.921 39.0158C74.1164 39.899 74.948 40.99 75.5717 42.029C76.1434 43.0681 76.5073 44.0032 76.7152 44.8344C76.8191 45.2501 76.8711 45.6137 76.9231 45.9254C76.975 46.2371 76.975 46.4969 76.975 46.7047C76.975 46.9125 76.975 47.0684 76.975 47.2242C76.975 47.1203 76.975 47.1723 76.975 47.1723Z" fill="#263238"/>
<path d="M69.9056 42.9122C69.9576 42.9642 68.0865 44.8864 65.7476 47.2242C63.4087 49.5621 61.4856 51.4323 61.4337 51.3804C61.3817 51.3284 63.2528 49.4062 65.5917 47.0684C67.8786 44.6786 69.8536 42.8603 69.9056 42.9122Z" fill="#263238"/>
<path d="M68.2423 46.6008C68.2943 46.6528 67.6186 47.4321 66.683 48.3152C65.7475 49.1984 64.9679 49.8738 64.9159 49.8218C64.8639 49.7699 65.5396 48.9906 66.4751 48.1074C67.4107 47.2243 68.1903 46.5489 68.2423 46.6008Z" fill="#263238"/>
<path d="M102.546 41.9771C102.494 41.9771 102.546 41.1459 102.234 39.7432C102.078 39.0678 101.715 38.2366 101.195 37.3534C100.675 36.4702 99.8955 35.587 98.9079 34.8078C97.8684 34.0285 96.621 33.4051 95.1138 33.1453C93.6585 32.8855 91.9953 32.9375 90.384 33.5609C89.6044 33.8207 88.8248 34.2363 88.0971 34.8078C87.7333 35.0675 87.4215 35.3792 87.0576 35.6909C86.7458 36.0026 86.4339 36.3663 86.1741 36.73C85.0826 38.1846 84.4589 40.1068 84.4069 42.0291C84.4069 43.9513 85.0306 45.8735 86.1741 47.3281C86.4339 47.6918 86.7458 48.0555 87.0576 48.3672C87.3695 48.6789 87.7333 48.9906 88.0971 49.2504C88.8248 49.7699 89.5524 50.1855 90.384 50.4972C91.9433 51.1206 93.6585 51.1726 95.1138 50.9128C96.621 50.6531 97.8684 49.9777 98.9079 49.2504C99.9474 48.4711 100.675 47.5879 101.195 46.7047C101.715 45.8215 102.026 44.9903 102.234 44.3149C102.546 42.8083 102.494 41.9771 102.546 41.9771C102.546 41.9771 102.546 42.0291 102.546 42.133C102.546 42.2369 102.546 42.3927 102.546 42.5486C102.546 42.7564 102.546 42.9642 102.494 43.2759C102.442 43.5357 102.442 43.8993 102.338 44.211C102.182 44.9384 101.871 45.7696 101.351 46.6528C100.831 47.536 100.051 48.4711 99.0119 49.3023C97.9724 50.0816 96.673 50.757 95.1657 51.0687C93.6585 51.3284 91.9433 51.2765 90.3321 50.705C89.5005 50.4453 88.7208 49.9777 87.9932 49.4582C87.6294 49.1984 87.2655 48.8867 86.9537 48.575C86.6418 48.2113 86.33 47.8996 86.0701 47.484C84.9267 45.9774 84.303 44.0032 84.251 42.0291C84.251 40.0029 84.9267 38.0807 86.0701 36.5741C86.33 36.1585 86.6418 35.8468 86.9537 35.4831C87.3175 35.1714 87.6294 34.8597 87.9932 34.5999C88.7208 34.0804 89.5005 33.6129 90.3321 33.3531C91.9433 32.7297 93.6585 32.6777 95.1657 32.9894C96.673 33.2492 98.0244 33.9246 99.0119 34.7558C100.051 35.5351 100.831 36.4702 101.351 37.4053C101.871 38.2885 102.182 39.1717 102.338 39.8471C102.442 40.2107 102.494 40.5225 102.494 40.7822C102.546 41.042 102.546 41.3017 102.546 41.5095C102.546 41.6654 102.546 41.8212 102.546 41.9252V41.9771Z" fill="#85BC91"/>
<path d="M126.091 41.9771C126.039 41.9771 126.091 41.1459 125.779 39.7432C125.623 39.0678 125.26 38.2366 124.74 37.3534C124.22 36.4702 123.44 35.587 122.453 34.8078C121.413 34.0285 120.166 33.4051 118.659 33.1453C117.203 32.8855 115.54 32.9375 113.929 33.5609C113.149 33.8207 112.37 34.2363 111.642 34.8078C111.278 35.0675 110.966 35.3792 110.603 35.6909C110.291 36.0026 109.979 36.3663 109.719 36.73C108.628 38.1846 108.004 40.1068 107.952 42.0291C107.952 43.9513 108.576 45.8735 109.719 47.3281C109.979 47.6918 110.291 48.0555 110.603 48.3672C110.914 48.6789 111.278 48.9906 111.642 49.2504C112.37 49.7699 113.097 50.1855 113.929 50.4972C115.488 51.1206 117.203 51.1726 118.659 50.9128C120.166 50.6531 121.413 49.9777 122.453 49.2504C123.492 48.4711 124.22 47.5879 124.74 46.7047C125.26 45.8215 125.571 44.9903 125.779 44.3149C126.091 42.8083 126.039 41.9771 126.091 41.9771C126.091 41.9771 126.091 42.0291 126.091 42.133C126.091 42.2369 126.091 42.3927 126.091 42.5486C126.091 42.7564 126.091 42.9642 126.039 43.2759C125.987 43.5357 125.987 43.8993 125.883 44.211C125.727 44.9384 125.415 45.7696 124.896 46.6528C124.376 47.536 123.596 48.4711 122.557 49.3023C121.517 50.0816 120.218 50.757 118.711 51.0687C117.203 51.3284 115.488 51.2765 113.877 50.705C113.045 50.4453 112.266 49.9777 111.538 49.4582C111.174 49.1984 110.81 48.8867 110.499 48.575C110.187 48.2113 109.875 47.8996 109.615 47.484C108.472 45.9774 107.848 44.0032 107.796 42.0291C107.796 40.0029 108.472 38.0807 109.615 36.5741C109.875 36.1585 110.187 35.8468 110.499 35.4831C110.862 35.1714 111.174 34.8597 111.538 34.5999C112.266 34.0804 113.045 33.6129 113.877 33.3531C115.488 32.7297 117.203 32.6777 118.711 32.9894C120.218 33.2492 121.569 33.9246 122.557 34.7558C123.596 35.5351 124.376 36.4702 124.896 37.4053C125.415 38.2885 125.727 39.1717 125.883 39.8471C125.987 40.2107 126.039 40.5225 126.039 40.7822C126.091 41.042 126.091 41.3017 126.091 41.5095C126.091 41.6654 126.091 41.8212 126.091 41.9252V41.9771Z" fill="#85BC91"/>
<path d="M108.315 39.2236C108.315 39.2756 107.951 39.0678 107.38 38.9119C106.808 38.756 105.976 38.6521 105.093 38.7041C104.209 38.808 103.429 39.1197 102.91 39.3795C102.39 39.6912 102.13 39.899 102.078 39.899C102.078 39.899 102.286 39.5873 102.806 39.2236C103.326 38.86 104.105 38.5482 105.041 38.3924C105.976 38.2885 106.86 38.4443 107.432 38.6521C108.055 38.9639 108.367 39.2236 108.315 39.2236Z" fill="#85BC91"/>
<path d="M73.6487 34.8597C73.5967 34.9636 72.0375 34.1324 69.9585 33.6648C67.8795 33.1972 66.1123 33.3531 66.1123 33.3011C66.1123 33.2492 66.5281 33.1972 67.2558 33.1453C67.9834 33.1453 68.9709 33.1972 70.0104 33.405C71.0499 33.6128 71.9855 33.9765 72.6612 34.2882C73.2849 34.5999 73.6487 34.8597 73.6487 34.8597Z" fill="#263238"/>
<path d="M107.328 5.09126C107.276 5.14321 107.068 4.31198 105.977 3.37685C105.457 2.90928 104.677 2.44171 103.742 2.13C102.806 1.81829 101.663 1.66244 100.415 1.66244C99.1681 1.66244 97.7648 1.87024 96.3095 2.18195C94.8542 2.44171 93.2949 2.90928 91.7357 3.48075C88.6172 4.62369 85.2908 6.39006 82.3282 8.83179C79.3136 11.2735 76.9748 14.1309 75.2596 16.9882C73.5444 19.8456 72.4529 22.7029 71.7772 25.1447C71.1016 27.5864 70.8417 29.6125 70.7377 31.0152C70.6858 31.7426 70.6338 32.2621 70.6338 32.6257C70.6338 32.7816 70.6338 32.9375 70.6338 33.0414C70.6338 33.1453 70.6338 33.1972 70.6338 33.1972C70.6338 33.1972 70.6338 33.1453 70.6338 33.0414C70.6338 32.9375 70.6338 32.7816 70.6338 32.6257C70.6338 32.2621 70.6338 31.6906 70.6858 31.0152C70.7897 29.6125 70.9976 27.5345 71.6213 25.0927C72.245 22.651 73.3365 19.7936 75.0517 16.8843C76.7668 13.975 79.1577 11.0657 82.1723 8.62399C85.1868 6.18225 88.5132 4.41589 91.6837 3.27294C93.2429 2.70147 94.8022 2.28586 96.3095 2.0261C97.7648 1.76634 99.1681 1.55853 100.467 1.55853C101.767 1.55853 102.91 1.71439 103.846 2.0261C104.833 2.38976 105.561 2.85733 106.081 3.3249C106.601 3.79246 106.912 4.26003 107.12 4.57174C107.276 4.88345 107.328 5.09126 107.328 5.09126Z" fill="#263238"/>
<path d="M121.881 77.9797L104.21 78.9149L99.4279 87.6947C99.0641 88.3182 99.5319 89.1494 100.26 89.1494C101.091 89.1494 102.079 89.0455 102.65 88.526C103.742 87.5389 105.821 84.6296 105.821 84.6296L104.729 91.1755L109.719 96.6305L110.81 97.7214C111.278 98.189 112.058 98.1371 112.474 97.6175C112.993 96.8902 113.617 96.007 113.617 95.4356C113.617 95.4356 116.008 94.7602 116.112 93.2536C116.216 91.747 115.904 89.2533 115.904 89.2533C115.904 89.2533 117.515 88.2662 117.775 87.2791L120.374 89.9806L132.016 94.1368L138.929 92.0587L148.388 88.5779C148.388 88.5779 142.619 83.5386 141.424 82.7074C140.228 81.8242 121.881 77.9797 121.881 77.9797Z" fill="#FFBE9D"/>
<path d="M121.881 77.9798C121.881 77.9798 122.037 77.9797 122.401 78.0837C122.765 78.1356 123.285 78.2395 123.908 78.3954C125.26 78.6551 127.183 79.0707 129.677 79.5903C132.172 80.1617 135.187 80.7851 138.669 81.6683C139.553 81.9281 140.436 82.0839 141.32 82.4996C141.736 82.7593 142.1 83.071 142.463 83.3827C142.827 83.6945 143.243 84.0062 143.607 84.3179C145.166 85.6167 146.725 86.9674 148.44 88.4221L148.596 88.526L148.44 88.5779C145.998 89.4611 143.399 90.4482 140.644 91.4353C139.969 91.695 139.293 91.9548 138.565 92.1626C137.838 92.3704 137.162 92.5782 136.434 92.838C134.979 93.2536 133.524 93.7212 132.016 94.1887H131.964H131.912C128.17 92.838 124.272 91.4353 120.27 90.0326H120.218C119.386 89.1494 118.503 88.2662 117.619 87.3311L117.827 87.2791C117.723 87.6947 117.463 88.0065 117.203 88.3182C116.944 88.6299 116.58 88.8896 116.268 89.0974C116.164 89.1494 116.06 89.2533 115.956 89.3053L116.008 89.1494C116.164 90.4482 116.268 91.695 116.216 92.9419C116.216 93.2536 116.164 93.6173 115.956 93.929C115.8 94.2407 115.54 94.4485 115.28 94.6563C114.761 95.02 114.189 95.3317 113.565 95.4875L113.669 95.3836C113.669 95.7473 113.513 96.007 113.409 96.2668C113.253 96.5266 113.097 96.7863 112.941 96.9941C112.786 97.2539 112.63 97.4617 112.422 97.7215C112.214 97.9812 111.902 98.1371 111.59 98.1371C111.278 98.1371 110.966 98.0332 110.707 97.8773C110.499 97.6695 110.291 97.4617 110.083 97.2539C109.667 96.8383 109.303 96.4746 108.939 96.059C107.432 94.3965 105.977 92.838 104.522 91.2794L104.47 91.2275V91.1755C104.833 88.9416 105.197 86.7596 105.561 84.6296L105.769 84.7335C105.249 85.5128 104.677 86.2401 104.106 86.9155C103.846 87.2791 103.534 87.6428 103.222 87.9545C102.91 88.2662 102.65 88.6299 102.235 88.8896C101.819 89.0975 101.403 89.2014 100.935 89.2533C100.727 89.2533 100.519 89.3053 100.26 89.3053C100.052 89.3053 99.7918 89.3053 99.5839 89.2013C99.1681 88.9935 98.9082 88.474 99.0122 88.0065C99.0642 87.7467 99.1681 87.5908 99.2721 87.435L99.5839 86.9155C101.143 84.0581 102.598 81.4086 103.898 78.9668V78.9149H103.95C109.459 78.6551 113.877 78.3954 116.944 78.2395C118.451 78.1876 119.646 78.1356 120.426 78.0837C120.842 78.0837 121.102 78.0317 121.309 78.0317C121.777 77.9797 121.881 77.9798 121.881 77.9798C121.881 77.9798 121.777 77.9797 121.569 78.0317C121.361 78.0317 121.05 78.0837 120.686 78.0837C119.854 78.1356 118.711 78.1876 117.203 78.2915C114.137 78.4473 109.719 78.7071 104.21 79.0188L104.262 78.9668C102.962 81.3566 101.507 84.0581 99.9477 86.9155L99.6359 87.435C99.5319 87.6428 99.428 87.7987 99.376 87.9545C99.2721 88.3182 99.48 88.7338 99.8438 88.8896C99.9997 88.9935 100.208 88.9935 100.416 88.9935C100.623 88.9935 100.831 88.9935 101.039 88.9416C101.455 88.8896 101.871 88.7857 102.235 88.6299C102.598 88.4221 102.858 88.0584 103.17 87.7467C103.482 87.435 103.742 87.0713 104.002 86.7077C104.574 85.9803 105.093 85.253 105.613 84.5257L105.925 84.1101L105.821 84.6296C105.457 86.7596 105.093 88.8896 104.729 91.1755L104.677 91.0716C106.133 92.6302 107.588 94.2407 109.095 95.8512C109.459 96.2668 109.875 96.6824 110.239 97.0461C110.447 97.2539 110.655 97.4617 110.811 97.6175C111.018 97.7734 111.278 97.8773 111.486 97.8254C111.746 97.8254 111.954 97.6695 112.162 97.5136C112.318 97.3058 112.526 97.0461 112.682 96.8383C112.838 96.6305 112.993 96.3707 113.097 96.1109C113.201 95.8512 113.357 95.5914 113.357 95.3317V95.2278L113.461 95.1758C114.033 95.02 114.605 94.7602 115.072 94.3965C115.54 94.0329 115.904 93.5134 115.852 92.8899C115.904 91.6431 115.748 90.3962 115.644 89.1494V89.0455L115.696 88.9935C115.8 88.9416 115.904 88.8377 116.008 88.7857C116.32 88.5779 116.632 88.3182 116.892 88.0065C117.151 87.7467 117.359 87.435 117.463 87.1233L117.515 86.8635L117.671 87.0194C118.555 87.9545 119.438 88.8896 120.27 89.7209L120.218 89.6689C124.22 91.1236 128.118 92.5263 131.86 93.8251H131.756C133.264 93.3575 134.719 92.9419 136.174 92.4743C136.902 92.2665 137.63 92.0587 138.305 91.8509C139.033 91.6431 139.709 91.3833 140.384 91.1236C143.087 90.1365 145.686 89.2013 148.181 88.2662L148.129 88.474C146.465 87.0194 144.854 85.6167 143.347 84.3179C142.983 84.0062 142.567 83.6945 142.203 83.3827C141.84 83.071 141.476 82.7593 141.06 82.4996C140.228 82.1359 139.293 81.9281 138.461 81.6683C135.031 80.7851 131.964 80.1098 129.47 79.5383C126.975 78.9668 125.052 78.5512 123.7 78.2395C123.025 78.0837 122.557 77.9797 122.193 77.9278C122.037 78.0317 121.881 77.9798 121.881 77.9798Z" fill="#EB996E"/>
<path d="M118.087 80.0059C118.087 80.0059 117.983 80.0578 117.827 80.1098C117.619 80.1617 117.411 80.2656 117.151 80.3695C116.527 80.5773 115.644 80.889 114.604 81.2527C113.513 81.6164 112.213 82.032 110.81 82.4996C110.446 82.6035 110.134 82.8113 109.875 83.071C109.615 83.3308 109.511 83.7464 109.407 84.1101C109.199 84.8893 108.991 85.7206 108.887 86.6037C108.627 88.3182 108.575 89.9806 108.731 91.4872C108.939 92.9938 109.407 94.2407 109.823 95.3317C110.29 96.3707 110.758 97.2019 111.07 97.7214C111.434 98.241 111.642 98.5007 111.642 98.5527C111.642 98.5527 111.59 98.5007 111.434 98.3449C111.33 98.241 111.174 98.0332 110.966 97.7734C110.602 97.2539 110.082 96.4746 109.615 95.3836C109.147 94.3446 108.627 93.0458 108.419 91.5392C108.211 90.0326 108.263 88.3182 108.523 86.6037C108.679 85.7206 108.835 84.8893 109.043 84.1101C109.147 83.6944 109.303 83.2788 109.615 82.9671C109.875 82.6554 110.29 82.4476 110.654 82.2917C112.11 81.8242 113.409 81.4086 114.5 81.0449C115.592 80.7332 116.423 80.4734 117.099 80.2656C117.359 80.1617 117.619 80.1098 117.827 80.0578C117.983 80.0578 118.087 80.0059 118.087 80.0059Z" fill="#EB996E"/>
<path d="M122.712 81.6683C122.712 81.6683 122.453 81.7722 121.985 81.98C121.465 82.1878 120.737 82.3956 119.906 82.7073C119.022 83.019 117.983 83.3827 116.839 83.7464C116.268 83.9542 115.644 84.11 115.072 84.4218C114.5 84.7335 114.085 85.253 113.773 85.8764C113.201 87.1233 112.733 88.422 112.421 89.565C112.162 90.7599 112.11 91.8509 112.265 92.7341C112.525 94.5524 113.357 95.4356 113.305 95.4875C113.305 95.4875 113.253 95.4356 113.149 95.3316C113.045 95.2277 112.941 95.0719 112.785 94.8641C112.525 94.3965 112.214 93.7211 112.058 92.786C111.902 91.8509 111.902 90.7079 112.162 89.513C112.421 88.3181 112.889 87.0193 113.513 85.7205C113.825 85.0971 114.293 84.4737 114.916 84.162C115.54 83.8503 116.164 83.6944 116.735 83.4866C117.879 83.123 118.918 82.7593 119.802 82.4995C120.633 82.2398 121.361 82.032 121.881 81.8761C122.453 81.7203 122.712 81.6163 122.712 81.6683Z" fill="#EB996E"/>
<path d="M122.089 85.4608C122.141 85.5128 121.413 86.396 120.114 86.8635C118.814 87.3831 117.671 87.1753 117.671 87.1233C117.671 87.0194 118.762 87.0714 120.01 86.6038C121.257 86.1362 122.037 85.3569 122.089 85.4608Z" fill="#EB996E"/>
<path d="M133.264 92.2145C133.264 92.2665 132.796 92.3704 131.965 92.4223C131.133 92.4223 129.989 92.3184 128.846 91.8509C127.703 91.3833 126.767 90.7079 126.195 90.0845C125.624 89.513 125.364 89.0455 125.416 89.0455C125.468 88.9935 125.78 89.4091 126.351 89.9287C126.923 90.4482 127.859 91.1236 128.95 91.5392C130.093 92.0067 131.185 92.1626 131.965 92.1626C132.796 92.2665 133.264 92.2145 133.264 92.2145Z" fill="#EB996E"/>
<path d="M113.253 79.0707C113.253 79.1227 112.681 79.1746 111.694 79.3305C111.226 79.4344 110.654 79.5383 110.031 79.6941C109.407 79.85 108.731 79.9539 108.056 80.3176C107.432 80.6293 106.912 81.1488 106.6 81.6683C106.289 82.1878 106.133 82.7593 106.029 83.2269C105.821 84.162 105.769 84.7854 105.717 84.7854C105.717 84.7854 105.717 84.6296 105.717 84.3698C105.717 84.11 105.769 83.6944 105.873 83.2269C105.977 82.7593 106.133 82.1359 106.444 81.5644C106.756 80.9929 107.328 80.4215 108.004 80.1098C108.679 79.7461 109.407 79.6422 110.031 79.4863C110.654 79.3824 111.226 79.2785 111.746 79.2266C112.681 79.0188 113.253 79.0707 113.253 79.0707Z" fill="#EB996E"/>
<path d="M54.8854 126.763C54.9374 126.814 51.663 131.75 47.505 137.776C43.347 143.803 39.9686 148.634 39.9166 148.634C39.8647 148.582 43.1391 143.647 47.2971 137.62C51.4031 131.542 54.8335 126.711 54.8854 126.763Z" fill="#263238"/>
</svg>
