<svg width="142" height="169" viewBox="0 0 142 169" fill="none" xmlns="http://www.w3.org/2000/svg">
<g clip-path="url(#clip0)">
<path d="M127.219 43.92C130.057 43.1718 132.151 40.2471 132.016 37.3225C131.948 35.9622 131.408 34.6699 131.475 33.3776C131.543 31.3371 132.894 29.5687 133.975 27.8003C134.989 26.0319 135.664 23.6514 134.516 21.951C133.773 20.8628 132.354 20.3867 131.408 19.4345C130.462 18.4823 130.057 17.19 129.584 15.9657C129.111 14.7414 128.435 13.5171 127.287 12.837C126.138 12.1568 124.381 12.4969 123.976 13.7212" fill="#263238"/>
<path d="M114.991 10.3884C117.017 9.09615 117.49 6.10348 116.409 3.92699C115.328 1.75051 112.964 0.458216 110.599 0.11814C107.153 -0.425982 103.505 0.798293 101.073 3.31486C99.7892 4.67516 98.7082 6.44356 96.9516 7.05569C95.3977 7.59982 93.6411 7.12371 92.0196 7.32776C89.8576 7.59982 87.9659 9.16417 86.8173 11.0686C85.6688 12.973 85.2634 15.2175 84.9932 17.394C84.7229 19.4345 84.5878 21.679 83.169 23.1073C81.8177 24.5356 79.6558 24.8757 77.9667 25.8959C74.7913 27.8003 73.7779 32.6294 75.8723 35.6901C76.5479 36.6423 77.4938 37.5945 77.5613 38.7508C77.6289 39.839 76.9533 40.7913 76.6155 41.8795C75.8047 44.5321 77.9667 47.7288 80.7368 47.8648C82.1556 47.9329 83.6419 47.3887 84.9256 48.0009C86.2093 48.613 86.6146 50.1774 87.4254 51.3336C88.9793 53.5781 92.2898 54.4623 94.7896 53.238C95.8031 52.6939 96.8165 51.8777 97.965 51.9458C99.1136 52.0138 99.9919 53.034 101.14 53.238C102.627 53.5101 104.046 52.4219 104.924 51.1976C105.802 49.9733 106.41 48.545 107.559 47.5248C109.045 46.2325 111.072 45.8924 112.964 45.2122C117.085 43.7839 120.531 40.5192 122.152 36.4383C123.774 32.3574 123.571 27.5963 121.612 23.7194" fill="#263238"/>
<path d="M119.383 13.0415C121.072 13.2455 122.288 14.6738 122.288 16.3742L120.329 60.3801C120.262 65.5493 112.695 68.4739 107.155 68.3379C101.547 68.2018 101.412 65.4812 101.344 60.5161C101.209 52.2863 101.209 49.1576 101.209 49.2256C101.209 49.2256 94.1826 48.0013 92.6963 38.7512C91.9531 34.1262 92.2234 26.5765 92.6287 20.4551C92.9665 14.8779 96.6824 8.07636 102.155 8.6885L119.383 13.0415Z" fill="#FFBE9D"/>
<path d="M94.7227 26.4402C94.7227 27.0524 95.1956 27.5966 95.8713 27.6646C96.5469 27.7326 97.0875 27.2565 97.0875 26.5763C97.0875 25.9641 96.6145 25.4199 95.9388 25.3519C95.3308 25.2839 94.7902 25.76 94.7227 26.4402Z" fill="#263238"/>
<path d="M94.3169 24.3316C94.452 24.4676 95.3304 23.8555 96.6141 23.8555C97.8979 23.8555 98.8438 24.5357 98.9789 24.3316C99.0465 24.2636 98.9114 23.9915 98.506 23.6514C98.1006 23.3793 97.4249 23.0392 96.6141 23.0392C95.8033 23.0392 95.1277 23.3113 94.7898 23.6514C94.3844 23.9915 94.2493 24.2636 94.3169 24.3316Z" fill="#263238"/>
<path d="M107.424 26.4402C107.424 27.0524 107.897 27.5966 108.572 27.6646C109.248 27.7326 109.789 27.2565 109.789 26.5763C109.789 25.9641 109.316 25.4199 108.64 25.3519C107.964 25.2839 107.424 25.76 107.424 26.4402Z" fill="#263238"/>
<path d="M106.816 24.6036C106.951 24.7397 107.829 24.1275 109.113 24.1275C110.397 24.1275 111.343 24.8077 111.478 24.6036C111.546 24.5356 111.41 24.2635 111.005 23.9235C110.6 23.6514 109.924 23.3113 109.113 23.3113C108.302 23.3113 107.627 23.5834 107.289 23.9235C106.883 24.2635 106.748 24.5356 106.816 24.6036Z" fill="#263238"/>
<path d="M102.222 34.0583C102.222 33.9903 101.411 33.8543 100.127 33.6502C99.7896 33.5822 99.5194 33.5822 99.4518 33.3101C99.3842 33.1061 99.5194 32.698 99.6545 32.3579C99.9923 31.5416 100.263 30.7254 100.6 29.8412C101.952 26.3042 102.898 23.3794 102.763 23.3794C102.627 23.3113 101.411 26.1681 100.06 29.7051C99.7221 30.5894 99.4518 31.4056 99.114 32.2218C98.9788 32.5619 98.7761 33.0381 98.9113 33.5142C98.9788 33.7863 99.2491 33.9223 99.4518 33.9903C99.6545 34.0584 99.8572 34.0583 99.9923 34.0583C101.411 34.1264 102.154 34.1264 102.222 34.0583Z" fill="#263238"/>
<path d="M101.276 49.2253C101.276 49.2253 107.492 49.6334 113.573 45.9604C113.573 45.9604 110.465 52.4902 101.276 51.606V49.2253Z" fill="#EB996E"/>
<path d="M102.695 37.1865C103.168 36.5744 103.978 36.2343 104.722 36.3023C105.262 36.3703 105.803 36.6424 106.141 37.0505C106.478 37.5266 106.546 38.1388 106.208 38.5469C105.87 39.023 105.127 39.1591 104.519 38.955C103.911 38.751 103.37 38.4109 102.897 38.0028C102.762 37.8667 102.627 37.7987 102.56 37.5946C102.56 37.5266 102.56 37.3226 102.695 37.1865Z" fill="#85BC91"/>
<path d="M105.938 35.0099C105.735 35.0099 105.735 36.3703 104.519 37.3906C103.37 38.3429 101.884 38.2068 101.884 38.4109C101.884 38.4789 102.222 38.683 102.83 38.683C103.438 38.683 104.316 38.4789 105.059 37.9348C105.803 37.3226 106.073 36.5064 106.14 35.9622C106.14 35.282 106.005 34.9419 105.938 35.0099Z" fill="#263238"/>
<path d="M106.275 22.3592C106.41 22.6993 107.694 22.5632 109.181 22.6993C110.667 22.8353 111.883 23.3115 112.086 22.9714C112.153 22.8353 111.951 22.4952 111.478 22.1551C111.005 21.815 110.262 21.4749 109.316 21.4069C108.437 21.3389 107.627 21.4749 107.086 21.679C106.478 21.9511 106.208 22.2231 106.275 22.3592Z" fill="#263238"/>
<path d="M94.7895 20.6588C94.9922 20.9309 95.8706 20.6588 96.9516 20.6588C98.0327 20.5908 98.911 20.8629 99.1137 20.5228C99.1813 20.3867 99.0462 20.1147 98.7083 19.8426C98.3029 19.5705 97.6949 19.3665 96.9516 19.3665C96.2084 19.3665 95.6003 19.6385 95.2625 19.9786C94.8571 20.1827 94.722 20.5228 94.7895 20.6588Z" fill="#263238"/>
<path d="M113.369 10.0484C115.464 8.62005 118.234 7.9399 120.666 8.68807C123.098 9.36822 125.125 11.6127 125.26 14.1293C125.328 15.7617 124.585 17.5301 125.328 18.9584C126.003 20.3867 127.692 20.9308 128.909 21.951C130.8 23.5154 131.341 26.44 130.192 28.6165C129.179 30.4529 127.084 31.8133 126.882 33.9217C126.747 35.8942 128.368 37.5265 128.773 39.499C129.246 41.6074 128.03 43.852 126.341 45.2803C124.652 46.7086 122.558 47.4568 120.463 48.2049C118.842 48.8171 117.085 49.3612 115.396 49.0211C113.369 48.545 111.883 46.7086 111.613 44.6681C111.342 42.6277 112.153 40.5872 113.504 39.0909C114.653 37.7986 116.342 36.6423 116.612 34.942C117.085 32.2213 113.842 30.0449 114.045 27.3242C114.113 25.8959 115.126 24.7397 115.937 23.5834C116.747 22.4271 117.491 20.9988 116.95 19.6385C116.275 17.9381 114.045 17.462 112.694 16.2378C111.545 15.2175 111.14 13.5172 111.545 12.0208C112.018 10.5925 113.369 9.43624 114.856 9.16417" fill="#263238"/>
<path d="M114.383 7.94016C114.383 9.77657 113.572 11.613 112.154 12.8373C110.735 13.9935 108.775 14.5376 106.951 14.1976C105.533 13.9255 103.979 13.2453 102.762 13.9935C101.479 14.8097 101.411 16.7141 100.263 17.7344C98.6412 19.1627 96.0739 17.8024 93.9794 18.4145C92.358 18.8906 91.4121 20.3869 90.3311 21.6792C89.2501 22.9715 87.6962 24.1958 86.0747 23.7197C86.2098 22.2914 86.2774 20.795 86.6828 19.4347C87.0881 18.0744 87.8989 16.7141 89.115 15.966C89.7906 15.5579 90.5338 15.2858 91.1418 14.7417C92.4931 13.6534 92.7633 11.817 93.5741 10.3207C94.6551 8.41626 96.6819 7.05596 98.8439 6.7839C100.668 6.57985 102.492 7.12397 104.249 6.71588C105.533 6.3758 106.681 5.55962 108.032 5.28756C110.6 4.81145 112.964 6.64787 114.856 8.48428" fill="#263238"/>
<path d="M131.138 30.1128C131.07 30.1128 131.408 29.7728 131.34 29.0246C131.273 28.3444 130.732 27.3242 129.516 26.9161C128.908 26.6441 128.233 26.508 127.489 26.372C126.746 26.168 125.935 25.9639 125.192 25.4198C124.449 24.8757 124.044 23.9234 123.976 22.9712C123.909 22.019 124.044 21.0668 124.111 20.0466C124.111 19.5705 124.111 19.0944 124.044 18.6183C123.976 18.1422 123.773 17.7341 123.503 17.394C122.963 16.7138 122.084 16.3738 121.274 16.1017C120.463 15.8296 119.652 15.5576 119.044 15.1495C118.369 14.7414 117.828 14.2653 117.355 13.7892C116.477 12.837 116.004 11.8167 115.734 11.1366C115.599 10.7965 115.531 10.5244 115.531 10.3204C115.463 10.1164 115.463 10.0483 115.463 10.0483C115.463 10.0483 115.599 10.4564 115.869 11.0686C116.139 11.7487 116.679 12.6329 117.558 13.5851C118.436 14.5373 119.72 15.3535 121.409 15.7616C122.22 16.0337 123.165 16.3738 123.773 17.1219C124.044 17.53 124.314 18.0061 124.382 18.4822C124.449 18.9583 124.449 19.5025 124.449 19.9786C124.382 20.9988 124.246 21.951 124.314 22.8352C124.382 23.7194 124.719 24.6036 125.395 25.0797C126.071 25.5558 126.814 25.8279 127.557 26.0319C128.3 26.236 128.976 26.372 129.584 26.6441C130.192 26.9161 130.732 27.2562 131.003 27.7323C131.34 28.1404 131.476 28.6165 131.476 29.0246C131.476 29.4327 131.408 29.7047 131.34 29.8408C131.273 30.0448 131.138 30.1128 131.138 30.1128Z" fill="#455A64"/>
<path d="M76.9532 35.8942C76.9532 35.8942 76.8857 35.8942 76.8181 35.8262C76.7505 35.7582 76.6154 35.6902 76.4803 35.4861C76.2776 35.078 76.21 34.3979 76.683 33.6497C76.8857 33.3097 77.2235 32.9016 77.6964 32.6975C78.1693 32.4255 78.6423 32.2894 79.1828 32.0854C79.7233 31.8813 80.2638 31.6093 80.7367 31.2012C81.2096 30.7931 81.4799 30.1129 81.615 29.4328C81.7501 28.7526 81.8177 28.0045 81.9528 27.1883C82.0879 26.3721 82.2906 25.5559 82.8987 24.8758C83.9797 23.4474 85.7363 22.6993 87.0199 21.339C87.6956 20.6588 88.1685 19.8426 88.4387 18.8904C88.7765 17.9382 88.9117 16.986 89.1144 15.8977C89.3846 13.8573 89.6549 11.6128 91.0737 9.70836C91.7493 8.75615 92.7627 8.076 93.8437 7.87195C94.9247 7.66791 96.0057 7.80394 97.0191 7.93997C98.0325 8.076 99.046 8.21203 99.9918 8.14401C100.938 8.00798 101.816 7.53188 102.424 6.85172C103.708 5.49142 104.383 3.65501 105.937 2.70279C107.424 1.75058 109.18 1.68256 110.599 2.09066C112.018 2.49875 113.099 3.45096 113.639 4.47119C114.247 5.49142 114.45 6.51165 114.45 7.32783C114.45 8.14401 114.315 8.75615 114.18 9.16424C114.045 9.57233 113.91 9.77638 113.91 9.77638C113.91 9.77638 113.977 9.57233 114.112 9.16424C114.247 8.75615 114.382 8.14401 114.315 7.32783C114.247 6.51165 114.045 5.55943 113.504 4.5392C112.964 3.58699 111.95 2.63478 110.531 2.2947C109.18 1.95462 107.491 2.02264 106.14 2.97485C105.464 3.45096 104.856 4.0631 104.383 4.81126C103.843 5.55943 103.37 6.37562 102.694 7.05577C102.356 7.39584 101.951 7.73592 101.546 8.00798C101.073 8.21203 100.6 8.41607 100.059 8.48409C99.046 8.62012 98.0325 8.48409 96.9515 8.34806C95.9381 8.21203 94.8571 8.076 93.8437 8.28004C92.8303 8.48409 91.8844 9.09623 91.2763 9.98042C90.6683 10.8646 90.2629 11.8848 89.9927 12.9051C89.7224 13.9253 89.5873 15.0136 89.4522 16.0338C89.317 17.054 89.1144 18.0742 88.7765 19.0264C88.4387 19.9787 87.9658 20.8629 87.2226 21.611C85.8038 22.9713 84.1148 23.7195 83.1013 25.0798C82.5609 25.76 82.3582 26.5081 82.223 27.2563C82.0879 28.0045 82.0204 28.8206 81.8852 29.5008C81.7501 30.249 81.4123 30.9291 80.9394 31.3372C80.4664 31.8133 79.8584 32.0174 79.3179 32.2214C78.7774 32.4255 78.3045 32.5615 77.8315 32.8335C77.4261 33.0376 77.0883 33.3777 76.8857 33.7177C76.4803 34.3979 76.4803 35.078 76.6154 35.4181C76.7505 35.7582 77.0208 35.8262 76.9532 35.8942Z" fill="#455A64"/>
<path d="M54.3878 99.6252L70.7378 98.1289C70.7378 98.1289 80.8045 71.5349 93.1683 65.0735L101.208 79.1526L84.0475 111.596H50.4692L54.3878 99.6252Z" fill="#85BC91"/>
<path opacity="0.3" d="M54.3878 99.6252L70.7378 98.1289C70.7378 98.1289 80.8045 71.5349 93.1683 65.0735L101.208 79.1526L84.0475 111.596H50.4692L54.3878 99.6252Z" fill="black"/>
<path d="M60.8738 107.174C60.8062 107.106 61.4143 105.95 62.2251 104.522C63.0359 103.093 63.8467 102.005 63.9142 102.073C63.9818 102.141 63.3737 103.297 62.5629 104.726C61.6846 106.086 60.9413 107.174 60.8738 107.174Z" fill="#FAFAFA"/>
<path d="M72.4272 106.834C72.3596 106.902 71.4812 105.882 70.4002 104.59C69.3867 103.297 68.5759 102.209 68.7111 102.141C68.7786 102.073 69.657 103.093 70.738 104.386C71.7515 105.678 72.4947 106.766 72.4272 106.834Z" fill="#FAFAFA"/>
<path d="M74.4532 100.713C74.3856 100.713 74.2505 99.7606 74.2505 98.5363C74.2505 97.38 74.318 96.3597 74.4532 96.3597C74.5207 96.3597 74.6559 97.3119 74.6559 98.5363C74.5883 99.7606 74.5207 100.713 74.4532 100.713Z" fill="#FAFAFA"/>
<path d="M68.7112 110.235C68.6437 110.303 67.968 109.963 67.1572 109.419C66.3464 108.875 65.7383 108.398 65.8059 108.33C65.8735 108.262 66.5491 108.602 67.3599 109.147C68.1031 109.691 68.7112 110.167 68.7112 110.235Z" fill="#FAFAFA"/>
<path d="M78.0344 85.7493C78.1019 85.8173 77.629 87.1097 76.8857 88.7422C76.1425 90.3746 75.5344 91.599 75.4669 91.531C75.3993 91.4629 75.8723 90.1706 76.6155 88.5381C77.2911 86.9737 77.9668 85.7493 78.0344 85.7493Z" fill="#FAFAFA"/>
<path d="M84.6557 75.0029C84.7233 75.071 84.1152 75.6151 83.372 76.2273C82.5612 76.8394 81.8855 77.2476 81.8855 77.1795C81.8179 77.1115 82.426 76.5674 83.1693 75.9552C83.9125 75.343 84.5881 74.9349 84.6557 75.0029Z" fill="#FAFAFA"/>
<path d="M109.045 109.487L117.49 75.275C118.977 69.2897 124.787 65.5488 130.732 66.6371C136.88 67.7253 141.069 73.6427 140.123 79.9001L134.989 113.364C133.705 120.369 128.165 125.81 121.206 126.899L114.517 127.919L109.045 109.487Z" fill="#85BC91"/>
<path d="M135.598 64.3927C135.53 64.4607 134.652 63.3724 132.625 62.8962C131.612 62.6922 130.328 62.6242 128.976 62.8962C127.625 63.2363 126.274 63.9165 125.058 64.9368C122.558 67.0454 121.274 69.6981 120.328 71.6027C119.855 72.5549 119.517 73.3712 119.315 73.9153C119.044 74.4595 118.909 74.7316 118.909 74.7316C118.909 74.7316 118.977 74.3915 119.179 73.8473C119.382 73.3032 119.72 72.4869 120.125 71.4666C120.531 70.5144 121.071 69.358 121.882 68.1337C122.625 66.9094 123.639 65.685 124.855 64.5967C126.139 63.5084 127.558 62.8282 128.976 62.4881C130.395 62.148 131.679 62.2841 132.76 62.5561C133.774 62.8282 134.584 63.3044 135.057 63.6444C135.26 63.8485 135.463 63.9845 135.598 64.1206C135.53 64.3246 135.598 64.3927 135.598 64.3927Z" fill="#263238"/>
<path d="M87.8983 72.1463C87.8983 72.1463 87.8308 72.2823 87.6956 72.4864C87.4929 72.6904 87.2903 73.0305 86.9524 73.3706C86.3444 74.1187 85.4661 75.207 84.4527 76.6353C82.4258 79.4919 79.926 83.7089 78.7099 88.9461C77.5614 94.1832 77.4938 99.0803 77.2911 102.549C77.2236 104.318 77.156 105.746 77.0209 106.698C76.9533 107.174 76.9533 107.514 76.9533 107.854C76.9533 108.126 76.8857 108.262 76.8857 108.262C76.8857 108.262 76.8857 108.126 76.8857 107.854C76.8857 107.582 76.8857 107.174 76.8857 106.698C76.8857 105.678 76.9533 104.249 77.0209 102.549C77.156 99.0803 77.156 94.1152 78.3721 88.878C79.5882 83.5729 82.1556 79.3559 84.25 76.4993C85.2634 75.071 86.2093 73.9827 86.8849 73.3026C87.2227 72.9625 87.4929 72.6904 87.6281 72.4864C87.8308 72.2143 87.8983 72.1463 87.8983 72.1463Z" fill="#263238"/>
<path d="M141.813 72.0783C140.867 65.9569 137.556 64.4606 134.043 62.5561C132.895 61.944 127.422 60.5157 123.098 59.4274C122.693 56.7748 121.95 52.0138 121.747 51.0616C121.544 49.6332 99.5865 53.17 99.3163 53.7141C99.1136 54.0542 98.6407 59.5635 98.3029 63.2363L93.033 65.0727L86.2093 73.8467L82.6285 78.9478C80.5341 81.8725 78.9802 85.2052 78.237 88.742C77.3587 92.6189 77.2236 96.4277 77.2236 100.577L76.1426 123.022L121.95 136.081L125.53 113.296L137.354 97.1079C138.502 90.5104 142.961 79.5599 141.813 72.0783Z" fill="#85BC91"/>
<path d="M102.762 63.917C102.695 63.917 102.627 63.3048 102.425 62.3526C102.289 61.4003 102.087 60.0399 101.952 58.5435C101.884 57.7953 101.816 57.1151 101.749 56.4349C101.681 55.8227 101.614 55.2106 101.614 54.7344C101.614 54.2583 101.749 53.8502 101.952 53.5781C102.154 53.3741 102.289 53.306 102.289 53.306C102.289 53.306 102.222 53.4421 102.087 53.6461C101.952 53.8502 101.884 54.2583 101.884 54.7344C101.884 55.2106 102.019 55.7547 102.087 56.4349C102.154 57.1151 102.222 57.7953 102.357 58.5435C102.56 60.0399 102.695 61.4003 102.762 62.3526C102.762 63.3048 102.762 63.917 102.762 63.917Z" fill="#263238"/>
<path d="M108.572 62.4887C108.505 62.4887 108.302 61.9445 108.099 61.0603C107.829 60.176 107.626 58.8837 107.491 57.4553C107.356 56.0269 107.356 54.7345 107.424 53.7822C107.491 52.83 107.626 52.2858 107.626 52.2858C107.762 52.2858 107.559 54.5985 107.829 57.3873C108.099 60.2441 108.708 62.4887 108.572 62.4887Z" fill="#263238"/>
<path d="M119.451 60.9243C119.315 60.9243 119.788 58.6117 119.315 55.8229C118.842 53.0341 117.626 51.0615 117.761 50.9935C117.829 50.9935 118.167 51.4016 118.572 52.2859C118.978 53.1021 119.451 54.3265 119.721 55.7549C119.991 57.1833 119.923 58.4756 119.856 59.4279C119.653 60.3802 119.518 60.9243 119.451 60.9243Z" fill="#263238"/>
<path d="M88.3041 80.9205C88.2365 80.8525 88.9797 79.5602 90.1283 78.0637C91.2094 76.5673 92.2904 75.479 92.358 75.547C92.4256 75.615 91.5472 76.8394 90.3986 78.2678C89.3175 79.7642 88.4392 80.9886 88.3041 80.9205Z" fill="#FAFAFA"/>
<path d="M98.6412 72.4866C98.5737 72.5546 97.7629 71.6023 96.817 70.378C95.871 69.1536 95.1954 68.1333 95.263 68.0653C95.3305 67.9973 96.1413 68.9496 97.0872 70.1739C98.0331 71.3983 98.7088 72.4185 98.6412 72.4866Z" fill="#FAFAFA"/>
<path d="M109.451 67.1811C109.518 67.2492 108.505 68.2014 107.289 69.3577C106.073 70.5141 105.127 71.5343 105.059 71.4663C104.992 71.3983 105.802 70.31 107.019 69.0857C108.235 67.9293 109.383 67.1131 109.451 67.1811Z" fill="#FAFAFA"/>
<path d="M106.411 60.7199C106.343 60.7879 105.6 60.2438 104.722 59.4275C103.843 58.6113 103.235 57.9311 103.303 57.8631C103.371 57.7951 104.114 58.3392 104.992 59.1555C105.803 59.9037 106.479 60.6519 106.411 60.7199Z" fill="#FAFAFA"/>
<path d="M115.869 55.6186C115.869 55.6866 114.856 56.0267 113.572 56.2988C112.288 56.5709 111.275 56.7069 111.207 56.6389C111.207 56.5709 112.221 56.2308 113.504 55.9587C114.788 55.6866 115.869 55.5506 115.869 55.6186Z" fill="#FAFAFA"/>
<path d="M117.76 70.7182C117.693 70.7182 117.558 69.6299 117.49 68.3375C117.423 67.0452 117.423 65.9568 117.558 65.9568C117.625 65.9568 117.76 67.0452 117.828 68.3375C117.896 69.6299 117.828 70.6502 117.76 70.7182Z" fill="#FAFAFA"/>
<path d="M114.315 77.9279C114.248 77.9279 113.707 76.7036 113.099 75.2071C112.559 73.6427 112.153 72.3503 112.221 72.3503C112.288 72.3503 112.829 73.5747 113.437 75.0711C114.045 76.6355 114.383 77.9279 114.315 77.9279Z" fill="#FAFAFA"/>
<path d="M104.924 83.029C104.856 83.0971 104.248 81.8047 103.64 80.1722C103.032 78.5398 102.559 77.1794 102.694 77.1794C102.762 77.1114 103.37 78.4037 103.978 80.0362C104.586 81.6686 105.059 83.029 104.924 83.029Z" fill="#FAFAFA"/>
<path d="M96.1411 88.8103C96.0736 88.8103 95.7357 87.586 95.3979 85.9535C95.0601 84.3891 94.8574 83.0287 94.9925 83.0287C95.0601 83.0287 95.3979 84.253 95.7357 85.8855C96.0736 87.5179 96.2087 88.8103 96.1411 88.8103Z" fill="#FAFAFA"/>
<path d="M85.6692 89.0823C85.6016 89.1503 84.926 87.994 84.2503 86.5656C83.5747 85.1372 83.0342 83.9129 83.1693 83.9129C83.2368 83.8449 83.9125 85.0012 84.5882 86.4296C85.2638 87.79 85.7368 89.0143 85.6692 89.0823Z" fill="#FAFAFA"/>
<path d="M85.4666 95.8156C85.5342 95.8836 84.2505 96.6318 82.6964 97.38C81.1424 98.1282 79.8587 98.7404 79.7911 98.6043C79.7236 98.5363 81.0073 97.7881 82.5613 97.0399C84.1153 96.2917 85.3991 95.7475 85.4666 95.8156Z" fill="#FAFAFA"/>
<path d="M85.6012 106.494C85.5336 106.562 84.9931 105.406 84.6553 104.046C84.2499 102.617 84.1823 101.461 84.2499 101.393C84.3174 101.393 84.5877 102.549 84.9931 103.91C85.3309 105.338 85.6688 106.494 85.6012 106.494Z" fill="#FAFAFA"/>
<path d="M83.3724 114.044C83.3048 114.112 82.2913 113.296 81.1427 112.275C79.9941 111.187 79.1158 110.303 79.1833 110.235C79.2509 110.167 80.2644 110.983 81.413 112.003C82.5616 113.024 83.44 113.976 83.3724 114.044Z" fill="#FAFAFA"/>
<path d="M97.2223 108.875C97.2223 108.943 95.6683 109.419 93.9116 110.235C92.0873 111.051 90.736 111.867 90.6684 111.799C90.6009 111.731 91.9522 110.711 93.7765 109.895C95.5332 109.079 97.1548 108.806 97.2223 108.875Z" fill="#FAFAFA"/>
<path d="M93.1682 105.202C93.1006 105.202 92.6276 104.182 92.1547 102.889C91.6817 101.597 91.4115 100.509 91.479 100.441C91.5466 100.441 92.0196 101.461 92.4925 102.753C92.9655 104.046 93.2357 105.134 93.1682 105.202Z" fill="#FAFAFA"/>
<path d="M101.343 95.9517C101.411 96.0197 100.6 97.4481 99.5191 99.2166C98.438 100.985 97.4245 102.345 97.357 102.345C97.2894 102.277 98.1002 100.849 99.1812 99.0805C100.33 97.312 101.276 95.9517 101.343 95.9517Z" fill="#FAFAFA"/>
<path d="M110.126 96.8362C110.059 96.9042 108.978 95.5438 107.897 93.7753C106.815 91.9388 106.14 90.3744 106.275 90.3063C106.343 90.2383 107.153 91.8028 108.234 93.5713C109.248 95.4078 110.194 96.7681 110.126 96.8362Z" fill="#FAFAFA"/>
<path d="M115.396 88.1299C115.396 88.1979 114.248 88.538 112.829 88.606C111.41 88.674 110.194 88.47 110.194 88.402C110.194 88.3339 111.342 88.3339 112.761 88.2659C114.248 88.1299 115.396 87.9939 115.396 88.1299Z" fill="#FAFAFA"/>
<path d="M127.895 78.1996C127.963 78.2677 126.476 79.0839 124.584 79.9681C122.692 80.8524 121.138 81.5326 121.138 81.4646C121.071 81.3965 122.557 80.5803 124.449 79.6961C126.341 78.7438 127.895 78.0636 127.895 78.1996Z" fill="#FAFAFA"/>
<path d="M128.773 71.8745C128.706 71.8065 129.246 70.5822 129.989 69.0857C130.733 67.5893 131.408 66.365 131.476 66.433C131.543 66.501 131.003 67.7254 130.26 69.2218C129.516 70.7182 128.841 71.8745 128.773 71.8745Z" fill="#FAFAFA"/>
<path d="M136.678 76.8396C136.611 76.8396 136.205 75.4793 135.665 73.7788C135.124 72.0783 134.651 70.7179 134.787 70.6499C134.854 70.5819 135.462 71.9423 136.003 73.6427C136.543 75.3432 136.813 76.7716 136.678 76.8396Z" fill="#FAFAFA"/>
<path d="M137.962 83.3688C137.962 83.4368 136.679 84.049 134.989 84.4571C133.3 84.8652 131.881 85.0012 131.881 84.9332C131.881 84.8652 133.233 84.5251 134.922 84.117C136.543 83.7089 137.895 83.3008 137.962 83.3688Z" fill="#FAFAFA"/>
<path d="M124.314 91.463C124.179 91.463 124.517 89.7626 124.585 87.722C124.652 85.6814 124.517 83.981 124.652 83.981C124.72 83.981 125.058 85.6134 124.99 87.722C124.855 89.8306 124.382 91.463 124.314 91.463Z" fill="#FAFAFA"/>
<path d="M121.612 99.6927C121.544 99.7608 120.328 98.7405 119.112 97.244C117.896 95.7476 117.085 94.3872 117.22 94.3192C117.288 94.2512 118.234 95.5436 119.382 96.972C120.599 98.5364 121.68 99.6247 121.612 99.6927Z" fill="#FAFAFA"/>
<path d="M135.259 97.9921C135.327 98.0601 134.043 98.6723 132.422 99.3525C130.8 100.033 129.516 100.509 129.449 100.373C129.381 100.305 130.665 99.6926 132.287 99.0124C133.908 98.3322 135.192 97.856 135.259 97.9921Z" fill="#FAFAFA"/>
<path d="M130.395 113.568C130.327 113.568 130.26 111.867 130.26 109.827C130.26 107.786 130.395 106.086 130.462 106.086C130.53 106.086 130.598 107.786 130.598 109.827C130.53 111.867 130.462 113.568 130.395 113.568Z" fill="#FAFAFA"/>
<path d="M119.855 112.616C119.788 112.616 119.923 110.847 120.464 108.739C121.004 106.63 121.68 104.998 121.747 105.066C121.815 105.134 121.342 106.766 120.801 108.807C120.328 110.983 119.991 112.684 119.855 112.616Z" fill="#FAFAFA"/>
<path d="M120.396 116.696C120.396 116.832 118.707 116.968 116.68 117.308C114.653 117.649 112.964 118.057 112.964 117.921C112.964 117.853 114.585 117.308 116.612 116.968C118.639 116.628 120.396 116.628 120.396 116.696Z" fill="#FAFAFA"/>
<path d="M108.775 114.112C108.707 114.044 109.585 113.024 110.802 111.799C111.95 110.575 112.964 109.623 113.031 109.691C113.099 109.759 112.221 110.779 111.004 112.003C109.856 113.228 108.842 114.18 108.775 114.112Z" fill="#FAFAFA"/>
<path d="M101.276 121.458C101.208 121.458 100.87 120.233 100.33 118.805C99.7893 117.377 99.3163 116.22 99.3839 116.152C99.4515 116.084 100.127 117.172 100.668 118.669C101.208 120.165 101.343 121.458 101.276 121.458Z" fill="#FAFAFA"/>
<path d="M113.37 125.674C113.302 125.742 111.816 125.198 109.991 124.382C108.167 123.566 106.681 122.818 106.748 122.75C106.816 122.682 108.302 123.226 110.127 124.042C111.951 124.858 113.437 125.606 113.37 125.674Z" fill="#FAFAFA"/>
<path d="M92.2223 124.45C92.1547 124.45 92.425 123.294 92.8303 121.934C93.3033 120.573 93.7087 119.553 93.7763 119.553C93.8438 119.553 93.5736 120.709 93.1682 122.07C92.7628 123.43 92.3574 124.45 92.2223 124.45Z" fill="#FAFAFA"/>
<path d="M106.208 126.831C106.208 126.967 104.249 126.627 101.884 126.491C99.519 126.354 97.5596 126.491 97.5596 126.354C97.5596 126.286 99.519 126.014 101.951 126.15C104.316 126.218 106.208 126.695 106.208 126.831Z" fill="#FAFAFA"/>
<path d="M109.045 106.766C109.045 106.766 109.045 106.698 109.045 106.494C109.045 106.29 109.045 106.086 109.18 105.746C109.248 105.406 109.45 104.998 109.923 104.726C110.329 104.454 110.937 104.317 111.545 104.454L111.41 104.522C112.153 101.937 113.301 98.1281 114.517 93.8431C115.598 89.8302 116.342 86.1574 116.882 83.5048C117.152 82.2125 117.355 81.1243 117.49 80.3761C117.625 79.6279 117.76 79.2198 117.76 79.2198C117.76 79.2198 117.76 79.6279 117.625 80.3761C117.49 81.1243 117.355 82.2125 117.085 83.5728C116.612 86.2254 115.936 89.9663 114.788 93.9792C113.572 98.2641 112.355 102.073 111.545 104.658V104.726H111.41C110.869 104.59 110.261 104.726 109.923 104.93C109.518 105.134 109.315 105.542 109.248 105.814C109.045 106.358 109.112 106.766 109.045 106.766Z" fill="#263238"/>
<path d="M124.248 116.221C124.18 116.221 123.775 115.337 122.897 113.976C122.018 112.616 120.667 110.779 118.843 109.147C117.018 107.514 115.126 106.29 113.708 105.542C112.289 104.794 111.343 104.453 111.343 104.453C111.343 104.453 111.613 104.522 112.018 104.658C112.424 104.794 113.099 104.998 113.843 105.338C115.329 106.018 117.289 107.174 119.113 108.875C120.937 110.575 122.288 112.412 123.099 113.84C123.505 114.52 123.775 115.132 123.978 115.541C124.18 115.949 124.248 116.221 124.248 116.221Z" fill="#263238"/>
<g opacity="0.2">
<path opacity="0.2" d="M111.681 103.909C114.248 104.113 116.41 104.318 118.775 105.202C121.207 106.086 123.437 107.855 124.315 110.303C124.518 110.915 124.653 111.664 124.18 112.072C123.842 112.412 123.302 112.412 122.896 112.276C122.491 112.14 122.086 111.8 121.748 111.528C120.261 110.167 118.707 108.943 117.153 107.582C115.599 106.222 113.37 104.862 111.343 104.522" fill="black"/>
</g>
<path d="M106.816 99.5567C106.816 99.5567 106.614 99.7607 106.141 99.9648C105.668 100.169 104.992 100.509 104.046 100.781C102.222 101.325 99.5869 101.597 96.7492 100.849C93.9114 100.101 91.7493 98.5364 90.398 97.176C89.7223 96.4958 89.2494 95.8836 88.9791 95.4755C88.7089 95.0674 88.5737 94.7953 88.5737 94.7953C88.6413 94.7273 89.2494 95.7476 90.6007 97.04C91.952 98.3323 94.1141 99.8287 96.8167 100.509C99.5194 101.189 102.154 100.985 103.979 100.509C105.803 100.101 106.816 99.4886 106.816 99.5567Z" fill="#263238"/>
<g opacity="0.2">
<path opacity="0.2" d="M88.9795 95.3395C90.1281 97.8562 91.4794 100.305 93.6415 102.005C94.8577 102.958 96.3441 103.774 97.8981 103.774C100.128 103.842 102.087 102.277 103.844 100.781C98.1684 101.665 91.8848 99.1485 88.9795 95.3395Z" fill="black"/>
</g>
<path d="M113.91 62.0126C113.775 62.0126 113.91 59.7 113.64 56.8432C113.369 53.9864 112.829 51.7417 112.896 51.6737C112.964 51.6737 113.167 52.2179 113.369 53.1021C113.572 54.0544 113.842 55.2787 113.977 56.7751C114.113 58.2035 114.113 59.4959 114.045 60.4482C114.045 61.4004 113.977 62.0126 113.91 62.0126Z" fill="#263238"/>
<path d="M33.7811 153.016C33.7811 153.016 26.4169 154.581 19.8634 153.628C13.7152 152.676 -0.0673828 153.628 -0.0673828 161.79C-0.0673828 170.904 18.3094 168.66 25.471 167.164C32.6326 165.735 39.7941 164.443 39.7941 164.443L33.7811 153.016Z" fill="#85BC91"/>
<path d="M17.2969 164.648C17.2294 164.648 16.824 163.219 16.4186 161.451C16.0132 159.682 15.8105 158.254 15.878 158.186C15.9456 158.186 16.351 159.614 16.7564 161.383C17.1618 163.219 17.4321 164.648 17.2969 164.648Z" fill="#263238"/>
<path d="M19.7968 164.784C19.7292 164.784 19.3914 163.355 19.1887 161.519C18.9184 159.682 18.8508 158.254 18.9184 158.254C18.986 158.254 19.3238 159.682 19.5265 161.519C19.7968 163.287 19.9319 164.784 19.7968 164.784Z" fill="#263238"/>
<path d="M22.2279 163.831C22.1603 163.831 21.8901 162.607 21.6874 160.974C21.4847 159.41 21.4171 158.118 21.5522 158.118C21.6198 158.118 21.8901 159.342 22.0928 160.974C22.2955 162.539 22.363 163.831 22.2279 163.831Z" fill="#263238"/>
<path d="M26.0113 162.879C25.9437 162.947 25.4032 161.859 25.0653 160.43C24.7275 159.002 24.7275 157.846 24.7951 157.846C24.8626 157.846 25.0653 159.002 25.4032 160.362C25.741 161.723 26.1464 162.879 26.0113 162.879Z" fill="#263238"/>
<path d="M26.8896 159.546C26.8896 159.546 27.2274 159.478 27.8355 159.478C28.4436 159.478 29.3895 159.614 30.403 159.954C30.6733 160.022 30.9435 160.158 31.2138 160.362C31.484 160.566 31.6867 160.907 31.6867 161.247C31.6867 162.063 30.8084 162.607 29.9976 162.471C29.1868 162.335 28.5787 161.723 28.1058 161.111C27.5652 160.498 27.2274 159.682 27.0247 158.866C26.6193 157.166 26.8896 155.397 27.8355 154.173C27.9706 154.037 28.1733 153.901 28.376 153.833C28.5787 153.765 28.849 153.901 28.9841 154.037C29.2544 154.309 29.3895 154.717 29.4571 155.057C29.5246 155.737 29.5246 156.349 29.3895 156.893C29.1192 157.982 28.5787 158.798 28.1733 159.206C27.9706 159.41 27.7679 159.614 27.6328 159.682C27.4977 159.75 27.4301 159.818 27.4301 159.818C27.4301 159.818 27.7004 159.614 28.1058 159.138C28.5112 158.662 28.9841 157.914 29.1868 156.825C29.3219 156.281 29.3219 155.669 29.2544 155.057C29.1868 154.785 29.1192 154.445 28.849 154.241C28.6463 154.037 28.376 154.105 28.1733 154.377C27.3625 155.533 27.0923 157.166 27.4301 158.798C27.6328 159.614 27.9706 160.362 28.4436 160.975C28.9165 161.587 29.4571 162.131 30.1327 162.267C30.7408 162.403 31.484 161.927 31.4165 161.383C31.4165 161.111 31.2813 160.839 31.0111 160.703C30.8084 160.498 30.5381 160.362 30.2679 160.294C29.2544 159.886 28.376 159.75 27.7679 159.682C27.2274 159.546 26.8896 159.614 26.8896 159.546Z" fill="#263238"/>
<path d="M39.0508 163.287C39.0508 163.287 38.9832 163.287 38.8481 163.355C38.713 163.423 38.5103 163.423 38.3076 163.491C37.7671 163.627 37.0915 163.763 36.1456 163.967C34.3214 164.375 31.619 164.919 28.2409 165.599C24.9303 166.211 20.9442 166.96 16.4176 167.572C14.188 167.844 11.8233 168.116 9.32356 167.912C8.10744 167.844 6.82377 167.64 5.60766 167.164C4.9996 166.96 4.39154 166.687 3.85105 166.347C3.31055 166.007 2.7025 165.667 2.29712 165.055C2.09444 164.851 1.82419 164.579 1.68907 164.307C0.945887 163.083 0.945887 161.586 1.2837 160.294C1.68907 159.002 2.63493 157.982 3.64836 157.165C4.66179 156.417 5.81034 155.873 7.02645 155.465C7.63451 155.329 8.17501 155.125 8.78306 154.989C9.39112 154.853 9.93162 154.717 10.5397 154.649C15.1339 153.901 19.3227 154.309 22.8359 154.309C24.5925 154.309 26.1465 154.309 27.5653 154.241C28.9165 154.105 30.1326 153.969 31.0785 153.765C31.5514 153.697 31.9568 153.561 32.3622 153.493C32.7 153.425 33.0378 153.288 33.2405 153.22C33.4431 153.152 33.6458 153.084 33.781 153.084C33.9161 153.084 33.9836 153.016 33.9836 153.016C33.9836 153.016 33.9161 153.016 33.781 153.084C33.6458 153.152 33.4431 153.22 33.2405 153.288C32.9702 153.356 32.7 153.493 32.3622 153.561C32.0243 153.629 31.5514 153.765 31.0785 153.833C30.1326 154.037 28.9165 154.241 27.5653 154.309C26.1465 154.445 24.5925 154.445 22.8359 154.445C19.3227 154.445 15.1339 154.105 10.6072 154.853C10.0667 154.921 9.45868 155.057 8.91819 155.193C8.37769 155.329 7.76964 155.533 7.22914 155.669C6.08059 156.077 4.9996 156.553 3.98617 157.301C2.97274 158.05 2.162 159.002 1.75663 160.226C1.35126 161.45 1.41882 162.811 2.09444 163.899C2.22956 164.171 2.49981 164.375 2.7025 164.579C3.10787 165.055 3.64836 165.463 4.12129 165.735C4.66179 166.075 5.26985 166.279 5.81034 166.483C7.02645 166.892 8.24257 167.096 9.45868 167.164C11.8909 167.368 14.2556 167.096 16.4851 166.824C20.9442 166.211 24.9303 165.531 28.3084 164.919C31.619 164.307 34.3214 163.763 36.2132 163.423C37.0915 163.219 37.8347 163.083 38.3752 163.015C38.5778 162.947 38.7805 162.947 38.9157 162.879C38.9832 163.287 39.0508 163.287 39.0508 163.287Z" fill="#263238"/>
<path d="M12.2299 167.641C12.1624 167.641 12.1624 166.892 12.0272 165.736C11.9597 164.58 11.8245 162.947 11.5543 161.179C11.3516 159.41 11.0137 157.846 10.811 156.689C10.6083 155.533 10.4056 154.853 10.4732 154.853C10.5408 154.853 10.7435 155.533 11.0137 156.689C11.284 157.846 11.6218 159.41 11.8921 161.179C12.0948 162.947 12.2299 164.58 12.2299 165.736C12.2975 166.892 12.2975 167.641 12.2299 167.641Z" fill="#263238"/>
<path opacity="0.4" d="M31.5518 153.425L36.2138 165.124L39.7948 164.444L32.9031 153.016L31.5518 153.425Z" fill="black"/>
<path d="M92.1548 121.253C91.4117 121.525 43.3076 107.922 23.8498 102.413C18.7151 100.985 13.2426 101.801 8.78351 104.726L8.58082 104.862C2.09488 109.147 -1.08053 117.036 0.676082 124.722C1.82463 129.551 4.79736 133.768 8.98619 136.353C21.8229 144.242 48.9828 160.906 49.7936 160.566C50.8745 160.158 84.7906 159.274 84.7906 159.274L43.9832 129.755L63.3735 142.406L92.1548 121.253Z" fill="#263238"/>
<path d="M52.0228 106.494L62.2247 101.189L72.2238 107.514L109.721 108.739L115.126 127.103L60.8059 114.452C60.8059 114.452 50.9418 115.336 50.1987 113.092C49.5906 110.915 52.0228 106.494 52.0228 106.494Z" fill="#FFBE9D"/>
<path d="M82.7634 136.013L77.6963 152.744L78.3043 157.846C87.4928 167.164 102.154 168.184 112.558 160.158C118.841 155.261 122.557 147.711 122.49 139.753L122.422 122.274L82.7634 136.013Z" fill="#263238"/>
<path d="M52.6984 136.081C52.6309 136.149 46.753 131.864 39.5914 126.49C32.4299 121.117 26.6195 116.696 26.6871 116.56C26.7547 116.492 32.6326 120.777 39.7941 126.15C46.9557 131.592 52.766 136.013 52.6984 136.081Z" fill="#455A64"/>
<path d="M61.5499 104.522C61.5499 104.59 59.3202 105.406 56.55 106.29C53.7798 107.174 51.4826 107.854 51.415 107.718C51.415 107.65 53.6447 106.834 56.4149 105.95C59.2527 105.066 61.5499 104.453 61.5499 104.522Z" fill="#EB996E"/>
<path d="M62.3604 107.65C62.3604 107.718 61.6848 107.786 60.6037 107.99C59.5227 108.194 58.0362 108.466 56.4146 108.807C54.7931 109.215 53.3742 109.623 52.2931 109.895C51.2797 110.235 50.604 110.439 50.604 110.371C50.604 110.303 51.2121 110.031 52.2256 109.691C53.2391 109.283 54.7255 108.875 56.3471 108.466C57.9687 108.058 59.4551 107.854 60.6037 107.718C61.6848 107.65 62.3604 107.65 62.3604 107.65Z" fill="#EB996E"/>
<path d="M61.4822 110.575C61.4822 110.643 58.9823 111.255 55.8742 111.867C52.7662 112.479 50.1987 112.888 50.1987 112.82C50.1987 112.752 52.6987 112.139 55.8067 111.527C58.9147 110.847 61.4822 110.439 61.4822 110.575Z" fill="#EB996E"/>
<path d="M48.239 81.8725L57.6977 113.091C57.8328 113.432 58.1031 113.704 58.5084 113.704L84.1819 115.676C84.6549 115.744 84.9927 116.084 84.9927 116.56V118.193C84.9927 118.669 84.5873 119.077 84.0468 119.077L13.7825 117.717C13.4447 117.717 13.1068 117.512 12.9717 117.104L0.6079 84.5931C0.405215 84.049 0.810586 83.3688 1.41864 83.3688L47.2932 81.1923C47.6985 81.1923 48.1039 81.4644 48.239 81.8725Z" fill="#455A64"/>
<path d="M28.4435 95.2715C27.9706 95.4075 27.1598 96.0877 27.0246 96.8359C26.9571 97.5841 27.2949 98.3324 27.903 98.8085C28.6462 99.3526 29.7273 99.4207 30.4705 98.8765C31.2137 98.3324 31.5515 97.3801 31.1461 96.2918C30.8759 95.4756 29.3219 94.8634 28.4435 95.2715Z" fill="#E0E0E0"/>
<path d="M39.7941 164.443L32.3623 152.132L86.9523 109.079C90.3304 106.29 94.5192 104.59 98.8432 104.181C112.423 102.957 123.841 114.316 122.693 127.987L121.814 138.461L85.601 150.16L39.7941 164.443Z" fill="#263238"/>
<path d="M109.788 135.264C109.788 135.264 109.721 135.332 109.653 135.401C109.518 135.469 109.383 135.605 109.18 135.741C108.775 136.081 108.167 136.557 107.424 137.169C107.018 137.441 106.613 137.781 106.14 138.189C105.667 138.529 105.127 138.869 104.586 139.277C104.046 139.685 103.438 140.094 102.762 140.502C102.424 140.706 102.086 140.978 101.749 141.182C101.411 141.386 101.005 141.59 100.668 141.862C99.1812 142.746 97.5597 143.766 95.7355 144.719C94.8572 145.195 93.9114 145.739 92.9655 146.215C92.0196 146.691 91.0062 147.167 89.9252 147.643C85.7364 149.548 81.1422 151.452 76.1426 153.152C66.1434 156.621 56.955 159.07 50.334 161.11C48.6449 161.586 47.1585 162.062 45.8749 162.471C44.5912 162.879 43.4426 163.219 42.4968 163.559C41.6185 163.831 40.8753 164.103 40.4024 164.239C40.1997 164.307 39.997 164.375 39.8619 164.443C39.7267 164.511 39.6592 164.511 39.6592 164.511C39.6592 164.511 39.7267 164.511 39.8619 164.443C39.997 164.375 40.1997 164.307 40.4024 164.239C40.8753 164.035 41.6185 163.831 42.4968 163.491C43.3751 163.151 44.5236 162.811 45.8073 162.335C47.091 161.926 48.5773 161.45 50.2664 160.906C56.8875 158.798 66.0759 156.281 76.0075 152.88C81.007 151.18 85.6688 149.276 89.7901 147.371C90.8035 146.895 91.8169 146.419 92.8304 145.943C93.7762 145.467 94.7221 144.923 95.6004 144.515C97.4246 143.63 99.0461 142.61 100.532 141.726C100.87 141.522 101.276 141.318 101.613 141.114C101.951 140.91 102.289 140.638 102.627 140.434C103.302 140.026 103.911 139.617 104.451 139.209C104.992 138.801 105.532 138.461 106.005 138.121C106.478 137.781 106.883 137.441 107.289 137.169C108.032 136.625 108.64 136.149 109.045 135.809C109.248 135.673 109.383 135.537 109.518 135.469C109.721 135.332 109.788 135.264 109.788 135.264Z" fill="#455A64"/>
<path d="M111.14 141.046C111.14 141.046 110.938 141.182 110.6 141.318C110.262 141.454 109.722 141.726 109.046 141.93C107.695 142.406 105.803 143.018 103.708 143.494C101.546 143.971 99.5867 144.175 98.1678 144.311C97.4246 144.379 96.8841 144.379 96.4787 144.379C96.0733 144.379 95.8706 144.379 95.8706 144.311C95.8706 144.243 96.749 144.175 98.1678 144.039C99.5867 143.902 101.546 143.63 103.641 143.154C105.735 142.678 107.627 142.134 108.978 141.726C110.262 141.25 111.14 140.978 111.14 141.046Z" fill="#455A64"/>
<path d="M84.7904 111.187C84.858 111.255 73.1698 120.506 58.7115 131.796C44.2533 143.155 32.43 152.269 32.43 152.133C32.3624 152.065 44.0506 142.815 58.5089 131.456C72.9671 120.233 84.7229 111.119 84.7904 111.187Z" fill="#455A64"/>
<path d="M81.6137 156.893C78.9787 155.465 76.0736 156.349 73.5738 157.165C71.8847 157.709 70.1957 158.594 68.5067 158.118C67.2905 157.777 66.3447 156.757 65.4664 155.873C61.6829 152.336 56.4806 150.432 51.3459 150.772C49.8596 150.84 48.4408 151.452 47.4949 152.54C44.9276 155.329 46.8869 159.002 49.184 161.382C53.2377 165.531 58.7777 168.252 64.5205 168.864C69.3174 169.34 75.8709 168.728 80.7354 166.619C83.7081 165.327 85.262 161.79 83.7081 158.866C83.1676 158.05 82.492 157.369 81.6137 156.893Z" fill="#85BC91"/>
<g opacity="0.4">
<path opacity="0.4" d="M81.6148 159.138C78.9799 157.71 76.0747 158.594 73.5749 159.41C71.8859 159.954 70.1968 160.838 68.5078 160.362C67.2917 160.022 66.3458 159.002 65.4675 158.118C61.684 154.581 56.4818 152.676 51.3471 153.017C49.8607 153.085 48.4419 153.697 47.496 154.785C46.9555 155.397 46.6177 156.077 46.415 156.757C46.8204 158.458 47.9014 160.09 49.1851 161.382C53.2388 165.531 58.7789 168.252 64.5216 168.864C69.3185 169.34 75.872 168.728 80.7365 166.62C82.5606 165.871 83.7768 164.239 84.1821 162.471C84.047 161.995 83.9119 161.586 83.7092 161.11C83.1687 160.294 82.4931 159.614 81.6148 159.138Z" fill="black"/>
</g>
<path d="M84.1148 162.471C84.0472 162.471 84.0472 161.858 83.4392 160.906C83.1014 160.43 82.696 159.954 82.0204 159.546C81.4123 159.138 80.534 158.73 79.5882 158.594C77.6289 158.39 75.3993 159.206 72.8995 159.886C71.6834 160.226 70.3322 160.702 68.8458 160.566C68.1026 160.498 67.427 160.226 66.7514 159.818C66.0758 159.41 65.5353 158.934 64.9272 158.458C62.7652 156.349 60.1979 154.989 57.7657 154.173C56.5495 153.765 55.3334 153.493 54.1849 153.357C53.0363 153.221 51.9553 153.221 51.0095 153.357C50.0636 153.493 49.2529 153.833 48.5772 154.241C47.9016 154.649 47.4287 155.125 47.0909 155.533C46.4153 156.349 46.145 156.961 46.145 156.961C46.145 156.961 46.3477 156.349 47.0233 155.465C47.3611 155.057 47.8341 154.513 48.5097 154.105C49.1853 153.697 50.0636 153.357 51.0095 153.153C52.0229 152.948 53.1039 153.016 54.2524 153.153C55.401 153.289 56.6171 153.561 57.9008 153.969C59.1169 154.377 60.4006 154.921 61.6843 155.669C62.2923 156.009 62.9004 156.417 63.5084 156.893C64.1165 157.369 64.657 157.846 65.1975 158.322C65.738 158.798 66.346 159.274 66.9541 159.682C67.5621 160.022 68.2378 160.294 68.9134 160.362C70.2646 160.566 71.6158 160.09 72.832 159.75C75.3318 159.07 77.6289 158.254 79.6557 158.526C81.6826 158.866 82.9662 160.09 83.5743 160.974C83.8445 161.45 83.9797 161.858 84.0472 162.199C84.1148 162.335 84.1148 162.471 84.1148 162.471Z" fill="#263238"/>
<path d="M84.1148 162.471C84.0472 162.471 84.0472 161.858 83.4392 160.906C83.1014 160.43 82.696 159.954 82.0204 159.546C81.4123 159.138 80.534 158.73 79.5882 158.594C77.6289 158.39 75.3993 159.206 72.8995 159.886C71.6834 160.226 70.3322 160.702 68.8458 160.566C68.1026 160.498 67.427 160.226 66.7514 159.818C66.0758 159.41 65.5353 158.934 64.9272 158.458C62.7652 156.349 60.1979 154.989 57.7657 154.173C56.5495 153.765 55.3334 153.493 54.1849 153.357C53.0363 153.221 51.9553 153.221 51.0095 153.357C50.0636 153.493 49.2529 153.833 48.5772 154.241C47.9016 154.649 47.4287 155.125 47.0909 155.533C46.4153 156.349 46.145 156.961 46.145 156.961C46.145 156.961 46.3477 156.349 47.0233 155.465C47.3611 155.057 47.8341 154.513 48.5097 154.105C49.1853 153.697 50.0636 153.357 51.0095 153.153C52.0229 152.948 53.1039 153.016 54.2524 153.153C55.401 153.289 56.6171 153.561 57.9008 153.969C59.1169 154.377 60.4006 154.921 61.6843 155.669C62.2923 156.009 62.9004 156.417 63.5084 156.893C64.1165 157.369 64.657 157.846 65.1975 158.322C65.738 158.798 66.346 159.274 66.9541 159.682C67.5621 160.022 68.2378 160.294 68.9134 160.362C70.2646 160.566 71.6158 160.09 72.832 159.75C75.3318 159.07 77.6289 158.254 79.6557 158.526C81.6826 158.866 82.9662 160.09 83.5743 160.974C83.8445 161.45 83.9797 161.858 84.0472 162.199C84.1148 162.335 84.1148 162.471 84.1148 162.471Z" fill="#263238"/>
<path d="M51.6177 161.791C51.6177 161.723 52.0906 161.383 52.969 160.839C53.8473 160.295 55.0635 159.614 56.4148 159.002C57.8337 158.322 59.1175 157.846 60.0634 157.506C61.0093 157.166 61.6174 157.03 61.6174 157.03C61.6174 157.098 61.0769 157.302 60.1309 157.71C59.185 158.118 57.9013 158.662 56.55 159.274C55.1986 159.954 53.9149 160.567 53.0366 161.043C52.2258 161.587 51.6852 161.859 51.6177 161.791Z" fill="#263238"/>
<path d="M52.5635 164.444C52.4959 164.376 54.7931 163.151 57.6985 161.791C60.5362 160.363 62.901 159.342 62.9686 159.41C63.0361 159.478 60.7389 160.703 57.8336 162.063C54.9283 163.491 52.5635 164.58 52.5635 164.444Z" fill="#263238"/>
<path d="M63.3742 165.6C63.3066 165.668 60.5364 164.036 57.1581 161.859C53.7799 159.682 51.0772 157.914 51.1448 157.846C51.2124 157.778 53.9826 159.41 57.3608 161.587C60.7391 163.696 63.4417 165.532 63.3742 165.6Z" fill="#263238"/>
<path d="M64.9282 162.879C64.9282 162.947 64.3877 162.539 63.5769 161.927C62.7661 161.315 61.6175 160.499 60.3337 159.614C59.05 158.73 57.9014 157.982 57.0906 157.37C56.2798 156.826 55.7393 156.417 55.7393 156.417C55.7393 156.349 56.3473 156.69 57.2257 157.166C58.1041 157.71 59.3202 158.458 60.5364 159.342C61.8202 160.227 62.9012 161.111 63.712 161.723C64.5228 162.403 64.9957 162.811 64.9282 162.879Z" fill="#263238"/>
</g>
<defs>
<clipPath id="clip0">
<rect width="142" height="169" fill="white"/>
</clipPath>
</defs>
</svg>
