<svg width="193" height="171" viewBox="0 0 193 171" fill="none" xmlns="http://www.w3.org/2000/svg">
<g clip-path="url(#clip0)">
<path d="M169.042 80.2725C169.042 80.2725 175.167 76.5529 176.584 77.6587C178.558 79.2169 179.267 81.881 179.267 81.881C179.267 81.881 182.506 69.6164 185.594 70.0688C187.365 70.3201 186.505 71.7275 185.695 73.4365C184.936 75.045 183.67 80.9259 183.67 80.9259C183.67 80.9259 189.542 73.9894 191.263 74.1402C192.579 74.2408 192.781 75.3968 190.858 77.2566C188.934 79.1164 185.746 84.9974 185.746 84.9974C185.746 84.9974 189.845 81.1773 191.566 81.1773C192.933 81.1773 193.794 82.082 192.022 83.59C190.25 85.0979 187.618 86.254 186.201 88.9683C184.48 92.336 180.735 100.73 180.735 100.73L167.726 96.1561C167.726 96.1561 165.6 87.5609 165.499 85.5C165.499 85.5 165.701 81.0767 165.651 80.3228C165.651 79.5185 167.726 79.3175 168.334 80.8254C168.992 82.3334 168.688 83.8915 168.941 84.8968C169.194 85.9021 169.65 86.8069 170.409 87.2593C171.168 87.7117 173.041 87.7619 173.496 87.209C173.952 86.6561 174.559 85.0476 174.661 84.0423C174.762 83.0371 174.61 81.4789 174.61 81.4789C174.61 81.4789 169.295 83.6905 169.042 80.2725Z" fill="#FFBE9D"/>
<path d="M22.7107 120.283L13.6504 116.915C13.6504 116.915 4.43826 111.537 2.7173 113.447C2.7173 113.447 0.895115 112.593 0.0852536 114.503C-0.370293 115.608 1.1482 117.267 1.1482 117.267C1.1482 117.267 0.642033 117.77 1.45189 119.378C2.21114 121.037 10.9678 126.214 10.9678 126.214C10.9678 126.214 22.3564 132.347 26.9119 135.312L34.8587 124.606L33.7451 124.204C33.7451 124.204 33.0871 118.876 30.9106 117.418C28.5316 115.86 25.6465 111.688 24.9885 110.029C24.3305 108.37 21.2935 109.124 21.7997 112.542C22.3058 115.96 24.9885 116.815 24.7354 119.127C24.4823 121.439 22.7107 120.283 22.7107 120.283Z" fill="#FFBE9D"/>
<path d="M8.84206 121.54C8.79145 121.59 7.01988 120.685 4.89399 119.479C2.76811 118.273 1.04715 117.267 1.09777 117.217C1.14838 117.167 2.91996 118.071 5.04584 119.278C7.17173 120.434 8.89268 121.489 8.84206 121.54Z" fill="#EB996E"/>
<path d="M13.2452 119.026C13.2452 119.077 12.5871 118.825 11.6254 118.373C10.6131 117.971 9.29708 117.317 7.82921 116.563C6.36134 115.81 5.04531 115.056 4.18483 114.503C3.72929 114.201 3.37497 113.95 3.12189 113.799C2.86881 113.598 2.76758 113.497 2.76758 113.497C2.76758 113.447 3.32436 113.849 4.28607 114.352C5.19716 114.905 6.51318 115.608 7.98106 116.362C9.44893 117.116 10.765 117.72 11.7773 118.222C12.6884 118.675 13.2958 118.976 13.2452 119.026Z" fill="#EB996E"/>
<path d="M15.1686 123.952C15.1686 123.952 14.8649 123.802 14.3587 123.5C13.802 123.198 13.0933 122.746 12.2329 122.243V122.193C11.8279 121.339 11.3218 120.333 10.7144 119.278C10.4107 118.775 10.0564 118.222 9.55019 117.77C9.09465 117.317 8.3354 117.267 7.77862 117.619C7.67739 117.669 7.52554 117.82 7.47493 117.87V117.921L7.52554 118.021C7.52554 118.071 7.57616 118.172 7.62677 118.222C7.72801 118.524 7.87986 118.825 7.98109 119.127C8.23417 119.73 8.43664 120.283 8.68972 120.786C9.14526 121.841 9.55019 122.847 9.90451 123.701V123.651C10.6638 124.505 11.2711 125.209 11.7267 125.762C11.9292 126.013 12.081 126.214 12.2329 126.365C12.3341 126.516 12.3847 126.566 12.3847 126.566C12.3847 126.566 12.3341 126.516 12.1822 126.365C12.0304 126.214 11.8785 126.013 11.6761 125.812C11.2205 125.309 10.5625 124.606 9.80328 123.751C9.44896 122.897 8.99341 121.942 8.53787 120.886C8.3354 120.333 8.08232 119.78 7.82924 119.227C7.72801 118.926 7.57616 118.624 7.47493 118.323C7.42431 118.222 7.42431 118.172 7.37369 118.071L7.32308 117.971C7.32308 117.921 7.32308 117.87 7.27246 117.77C7.32308 117.619 7.37369 117.569 7.47493 117.518C7.52554 117.468 7.62678 117.418 7.67739 117.368C7.98109 117.167 8.38602 117.066 8.79095 117.066C9.19588 117.066 9.49958 117.267 9.80328 117.518C10.3094 118.021 10.6638 118.574 11.0181 119.077C11.6761 120.132 12.1316 121.188 12.5366 122.042L12.4859 121.992C13.3464 122.545 14.055 122.997 14.5612 123.349C14.9155 123.751 15.1686 123.952 15.1686 123.952Z" fill="#EB996E"/>
<path d="M24.2292 124.053C24.2292 124.103 23.7736 123.952 23.1156 123.802C22.4576 123.601 21.4959 123.349 20.433 123.349C19.37 123.349 18.4589 123.601 17.8515 123.952C17.2441 124.304 16.991 124.656 16.9404 124.656C16.9404 124.656 17.1429 124.254 17.7503 123.802C18.3577 123.399 19.3194 123.048 20.433 123.048C21.5465 123.098 22.5082 123.349 23.1662 123.601C23.8749 123.852 24.2292 124.003 24.2292 124.053Z" fill="#EB996E"/>
<path d="M23.5715 121.69C23.6221 121.741 23.4196 122.143 23.1666 122.646C22.9641 123.148 22.8123 123.55 22.711 123.55C22.6604 123.55 22.6604 123.048 22.9135 122.545C23.1666 121.992 23.5209 121.64 23.5715 121.69Z" fill="#EB996E"/>
<path d="M75.7061 78.9656C76.3135 74.7434 81.2739 68.6613 85.6776 68.6613C83.1467 65.0423 83.0961 59.9153 85.5763 56.2963C87.2467 53.783 90.0306 51.9232 91.1441 49.1084C92.4601 45.9418 91.4478 42.373 91.5997 38.955C91.8021 33.9788 94.3836 29.4047 96.9144 25.082C99.2427 21.1111 102.077 16.7883 106.683 15.783C109.568 15.1799 112.605 16.0846 115.339 17.2407C128.347 22.7698 138.521 34.3809 141.963 47.8016C142.773 51.0185 143.33 54.4867 145.607 56.9497C147.986 59.5635 152.187 61.0211 152.896 64.4391C153.402 66.9021 151.833 69.365 152.036 71.8783C152.238 73.9894 156.186 80.0714 157.097 81.9814C158.666 85.2486 158.11 88.8174 156.49 92.0846C154.87 95.3518 150.821 98.5687 147.227 99.4735L106.835 86.1031C103.039 88.2645 99.2427 96.5582 94.8897 97.0608C90.5367 97.5635 85.222 99.4735 81.0209 94.8994C76.6172 90.1746 75.0988 83.1878 75.7061 78.9656Z" fill="#263238"/>
<path d="M142.671 39.0555C142.216 42.4233 143.127 47.9524 145 50.8174C146.214 52.7275 148.29 53.9841 150.365 55.0899C152.39 56.1957 154.566 57.2513 156.085 58.9603C157.654 60.6693 158.464 63.2328 157.451 65.2434C161.096 66.6005 162.715 71.1746 161.399 74.7434C160.083 78.3121 156.388 80.6746 152.592 81.4285L135.939 76.4524L132.295 55.3413L141.912 39.0555" fill="#263238"/>
<path d="M144.747 60.5687C144.747 60.5687 144.848 60.619 145.051 60.7195C145.253 60.82 145.608 60.9708 145.962 61.1719C146.721 61.6243 147.784 62.3782 148.898 63.5846C149.454 64.1878 149.961 64.8915 150.467 65.746C150.922 66.6005 151.378 67.5052 151.682 68.5608C152.34 70.6216 152.491 73.1349 151.732 75.5978L151.682 75.447C152.643 75.9999 153.554 76.6534 154.415 77.5079C156.541 79.619 157.755 82.3333 158.059 84.8968C158.363 87.4603 157.705 89.7724 156.844 91.5317C155.984 93.291 154.921 94.447 154.111 95.201C153.706 95.5529 153.402 95.8042 153.149 96.0052C152.896 96.156 152.795 96.2566 152.795 96.2566C152.795 96.2566 152.896 96.156 153.149 95.955C153.352 95.8042 153.706 95.5026 154.06 95.1507C154.82 94.3968 155.883 93.2407 156.693 91.4814C157.502 89.7724 158.11 87.4603 157.806 84.947C157.502 82.4338 156.288 79.7698 154.212 77.7592C153.402 76.955 152.491 76.2513 151.58 75.7486L151.479 75.6984L151.53 75.5978C152.238 73.1851 152.137 70.7222 151.53 68.7116C151.226 67.656 150.821 66.7513 150.365 65.947C149.91 65.1428 149.404 64.3888 148.847 63.8359C147.784 62.6296 146.772 61.8253 146.012 61.373C145.658 61.1216 145.304 60.9708 145.152 60.8703C144.848 60.6693 144.747 60.5687 144.747 60.5687Z" fill="#455A64"/>
<path d="M95.4464 82.4338C95.4464 82.4338 88.0058 84.6957 85.3737 88.4656C83.5515 91.1296 64.621 131.794 64.621 131.794L35.9216 123.249L25.6465 136.72L57.5854 154.312C63.5075 157.579 70.695 157.529 76.5665 154.212C79.8566 152.352 82.4886 149.638 84.2096 146.32L92.3082 130.889L95.4464 82.4338Z" fill="#85BC91"/>
<path d="M87.8542 171L92.3591 151.849L88.9678 137.926C86.7913 130.738 84.9185 119.077 87.2975 109.677L95.2442 82.6349L103.95 78.664L123.893 75.246C124.652 75.4974 144.747 81.127 144.747 81.127C147.531 81.7804 148.644 82.2328 148.644 82.2328L150.973 97.0609L144.038 121.489L141.001 145.817L147.632 171.101H87.8542V171Z" fill="#85BC91"/>
<path d="M99.3438 80.6746L105.114 78.1111L131.182 78.4629L137.357 82.0317C137.357 82.0317 115.794 105.656 110.378 106.46C96.8636 108.37 99.3438 80.6746 99.3438 80.6746Z" fill="#FFBE9D"/>
<path d="M148.088 81.9312C148.088 81.9312 151.985 82.7857 155.326 89.9233C158.666 97.0106 164.082 116.765 164.082 116.765L166.411 95.8545L185.291 97.9153L181.646 147.929C181.646 147.929 174.965 157.529 163.779 156.675C152.592 155.77 138.42 120.735 138.42 120.735L148.088 81.9312Z" fill="#85BC91"/>
<path d="M161.146 142.349C161.146 142.349 161.146 142.299 161.146 142.249C161.146 142.148 161.146 142.048 161.146 141.897C161.146 141.545 161.197 141.093 161.248 140.54C161.298 139.333 161.45 137.624 161.653 135.564C162.058 131.341 162.766 125.561 163.627 119.127C164.487 112.743 165.246 106.913 165.702 102.69C165.904 100.579 166.107 98.8704 166.208 97.7143C166.259 97.1614 166.309 96.709 166.36 96.3572C166.36 96.2064 166.411 96.1058 166.411 96.0053C166.411 95.9048 166.411 95.9048 166.411 95.9048C166.411 95.9048 166.411 95.955 166.411 96.0053C166.411 96.1058 166.411 96.2064 166.411 96.3572C166.411 96.709 166.36 97.1614 166.309 97.7143C166.259 98.9207 166.107 100.63 165.904 102.69C165.5 106.913 164.791 112.693 163.93 119.127C163.07 125.511 162.311 131.341 161.855 135.513C161.653 137.624 161.45 139.333 161.349 140.489C161.298 141.042 161.248 141.495 161.197 141.847C161.197 141.997 161.146 142.098 161.146 142.198C161.146 142.299 161.146 142.349 161.146 142.349Z" fill="#263238"/>
<path d="M64.9756 142.55C64.9756 142.55 64.8744 142.399 64.7731 142.198C64.6719 141.947 64.5201 141.595 64.3176 141.143C63.9633 140.238 63.6596 138.881 63.5077 137.373C63.3559 135.865 63.4571 134.508 63.609 133.553C63.6596 133.05 63.7608 132.698 63.8114 132.397C63.862 132.145 63.9127 131.995 63.9633 131.995C64.0139 131.995 63.9127 132.598 63.8114 133.553C63.7102 134.508 63.6596 135.865 63.8114 137.323C63.9633 138.78 64.267 140.087 64.5707 141.042C64.7731 141.997 65.0262 142.55 64.9756 142.55Z" fill="#263238"/>
<path d="M68.1641 143.053C68.1641 143.053 68.0122 142.952 67.8097 142.701C67.6073 142.45 67.3542 142.098 66.9999 141.595C66.3925 140.64 65.6332 139.233 65.0258 137.574C64.4691 135.915 64.1654 134.357 64.0641 133.201C64.0135 132.648 63.9629 132.145 63.9629 131.844C63.9629 131.542 63.9629 131.341 64.0135 131.341C64.0641 131.341 64.1147 132.045 64.2666 133.151C64.4184 134.257 64.7221 135.815 65.3295 137.474C65.8863 139.132 66.6456 140.489 67.2023 141.495C67.7591 142.45 68.1641 143.003 68.1641 143.053Z" fill="#263238"/>
<path d="M90.4858 98.3174C90.4858 98.3174 90.4858 98.4682 90.3846 98.7196C90.2833 99.0211 90.1821 99.373 90.0809 99.8756C89.7772 100.881 89.3723 102.339 88.8661 104.098C87.9044 107.667 86.5377 112.593 85.8797 118.222C85.576 121.037 85.4748 123.701 85.7785 126.164C86.0316 128.577 86.5884 130.738 87.0945 132.497C87.6513 134.257 88.1575 135.664 88.4612 136.669C88.613 137.122 88.7649 137.524 88.8661 137.775C88.9673 138.026 89.0179 138.177 88.9673 138.177C88.9673 138.177 88.9167 138.026 88.8155 137.775C88.7142 137.524 88.5624 137.122 88.3599 136.669C88.0056 135.714 87.4488 134.307 86.8921 132.548C86.3353 130.788 85.7785 128.627 85.4748 126.164C85.1711 123.701 85.2217 120.987 85.576 118.172C86.234 112.542 87.6513 107.566 88.6636 104.048C89.1698 102.288 89.6253 100.831 89.929 99.8756C90.0809 99.4233 90.1821 99.0211 90.2833 98.7196C90.4352 98.4682 90.4858 98.3174 90.4858 98.3174Z" fill="#263238"/>
<path d="M143.228 131.291C143.228 131.291 143.177 131.241 143.177 131.19C143.127 131.09 143.076 130.989 143.025 130.839C142.874 130.487 142.671 130.034 142.367 129.381C142.064 128.778 141.709 127.974 141.355 127.069C141.001 126.164 140.596 125.108 140.14 124.003C139.685 122.847 139.28 121.59 138.774 120.233C138.571 119.529 138.318 118.825 138.116 118.071C138.014 117.72 137.863 117.317 137.761 116.966C137.66 116.563 137.559 116.212 137.458 115.81C136.597 112.693 135.889 109.175 135.686 105.405C135.433 101.635 135.838 98.0159 136.8 94.8995C137.711 91.7831 139.28 89.1693 141.001 87.3598C142.671 85.5503 144.443 84.4947 145.708 83.9418C146.366 83.6905 146.872 83.4894 147.227 83.3889C147.378 83.3386 147.53 83.2884 147.631 83.2884C147.733 83.2884 147.783 83.2381 147.783 83.2381C147.783 83.2381 147.733 83.2381 147.631 83.2884C147.53 83.3386 147.378 83.3889 147.227 83.4392C146.872 83.5397 146.366 83.7407 145.759 84.0423C144.544 84.6455 142.772 85.7011 141.153 87.5106C139.482 89.3201 137.964 91.8836 137.053 94.9497C136.091 98.0661 135.787 101.635 135.99 105.354C136.192 109.074 136.901 112.593 137.761 115.709C137.863 116.111 137.964 116.463 138.065 116.865C138.166 117.267 138.267 117.619 138.419 117.971C138.622 118.725 138.875 119.429 139.077 120.132C139.584 121.489 139.988 122.746 140.393 123.902C140.849 125.058 141.254 126.063 141.608 126.968C141.962 127.873 142.317 128.627 142.57 129.28C142.823 129.884 143.025 130.386 143.177 130.738C143.228 130.889 143.278 131.04 143.329 131.14C143.228 131.241 143.228 131.291 143.228 131.291Z" fill="#263238"/>
<g opacity="0.3">
<g opacity="0.3">
<path opacity="0.3" d="M136.04 108.622C133.56 120.183 133.56 132.146 137.812 143.204C138.065 143.857 139.027 146.119 139.735 146.169C140.596 146.22 141.051 145.114 141.203 144.259C141.507 142.5 141.709 139.585 142.013 137.825C142.418 135.614 142.924 130.487 142.924 130.487C142.924 130.487 140.9 125.862 139.988 123.349C138.318 118.725 136.901 114.352 136.142 108.974" fill="black"/>
</g>
</g>
<path d="M134.016 153.508C134.016 153.508 133.965 153.608 133.813 153.81C133.661 154.011 133.459 154.312 133.206 154.664C133.054 154.865 132.902 155.066 132.75 155.267C132.598 155.468 132.396 155.72 132.193 155.921C131.788 156.373 131.333 156.976 130.726 157.529C130.422 157.831 130.118 158.082 129.814 158.434C129.511 158.735 129.106 159.037 128.751 159.339C128.043 159.992 127.182 160.545 126.322 161.148C124.55 162.304 122.475 163.46 120.147 164.365C117.818 165.22 115.541 165.823 113.415 166.124C112.352 166.225 111.339 166.376 110.378 166.426C109.922 166.426 109.467 166.476 109.011 166.476C108.556 166.476 108.151 166.426 107.746 166.426C106.936 166.426 106.227 166.325 105.569 166.225C105.266 166.175 104.962 166.175 104.658 166.124C104.405 166.074 104.152 166.024 103.899 165.974C103.494 165.873 103.14 165.823 102.887 165.772C102.633 165.722 102.532 165.672 102.532 165.672C102.532 165.672 102.633 165.672 102.887 165.722C103.14 165.772 103.494 165.823 103.899 165.873C104.101 165.923 104.354 165.974 104.658 165.974C104.911 166.024 105.215 166.024 105.569 166.074C106.227 166.124 106.936 166.225 107.746 166.225C108.151 166.225 108.556 166.225 109.011 166.225C109.467 166.225 109.922 166.175 110.378 166.175C111.339 166.175 112.301 166.024 113.364 165.873C115.439 165.521 117.717 164.968 120.045 164.114C122.323 163.209 124.398 162.103 126.17 160.947C127.031 160.344 127.891 159.791 128.6 159.138C128.954 158.836 129.308 158.585 129.663 158.283C129.966 157.981 130.27 157.68 130.574 157.429C131.181 156.876 131.637 156.323 132.092 155.87C132.295 155.619 132.497 155.418 132.7 155.217C132.851 155.016 133.003 154.815 133.155 154.614C133.408 154.262 133.611 154.011 133.813 153.81C133.965 153.608 134.016 153.508 134.016 153.508Z" fill="#263238"/>
<path d="M129.916 145.868C129.916 145.868 129.916 146.069 129.865 146.421C129.815 146.772 129.714 147.275 129.511 147.878C129.157 149.085 128.499 150.743 127.436 152.402C126.373 154.061 125.107 155.317 124.146 156.122C123.64 156.524 123.235 156.825 122.931 157.026C122.627 157.228 122.475 157.328 122.475 157.328C122.425 157.278 123.083 156.825 124.044 155.971C125.006 155.116 126.17 153.86 127.233 152.201C128.296 150.593 128.954 148.984 129.359 147.778C129.714 146.622 129.865 145.868 129.916 145.868Z" fill="#263238"/>
<path d="M120.704 12.5662C127.79 12.6164 134.674 16.5873 138.268 22.6191C141.862 28.6508 141.963 36.5926 138.571 42.7249C137.407 44.836 135.737 46.7963 133.459 47.5503C134.218 35.5371 129.41 23.2725 120.653 14.9286" fill="#85BC91"/>
<path d="M129.005 14.4259C127.942 12.2646 129.055 9.55027 130.928 8.04234C132.801 6.5344 135.231 5.88096 137.609 5.32805C139.938 4.77514 142.418 4.17197 144.291 2.71429C144.038 6.48414 143.076 10.3545 140.596 13.2196C138.166 16.0847 133.914 17.6931 130.371 16.2355" fill="#85BC91"/>
<path d="M131.435 16.8889C129.815 17.5424 127.891 17.1402 126.474 16.1852C125.057 15.1799 123.994 13.7222 123.134 12.2143C122.071 10.3545 121.261 8.34394 121.008 6.23283C120.755 4.12172 121.008 1.91008 122.071 0.050293C124.854 2.96564 127.891 5.4286 129.461 9.14818C130.372 11.3096 130.27 14.8281 129.258 16.9392" fill="#85BC91"/>
<path d="M139.28 29.0529C139.28 29.0529 139.33 29.3042 139.432 29.7566C139.482 30.0079 139.533 30.2593 139.533 30.5609C139.583 30.8624 139.583 31.2646 139.634 31.6667C139.685 32.4709 139.685 33.4762 139.583 34.5318C139.482 35.6376 139.33 36.7937 139.027 38C138.723 39.2064 138.369 40.3624 137.964 41.3677C137.559 42.373 137.103 43.2778 136.698 43.9815C136.496 44.3333 136.293 44.6349 136.142 44.9365C135.99 45.2381 135.787 45.4392 135.686 45.6402C135.433 45.9921 135.281 46.1931 135.23 46.1931C135.23 46.1931 135.332 45.9418 135.585 45.5899C135.686 45.3889 135.838 45.1376 135.99 44.8862C136.142 44.5847 136.344 44.2831 136.546 43.9312C136.951 43.2275 137.356 42.3228 137.761 41.3175C138.166 40.3122 138.521 39.2064 138.824 38C139.128 36.7937 139.28 35.6376 139.381 34.5318C139.482 33.4762 139.533 32.4709 139.482 31.6667C139.482 31.2646 139.432 30.9127 139.432 30.5609C139.432 30.2593 139.381 29.9577 139.381 29.7566C139.28 29.3545 139.229 29.1032 139.28 29.0529Z" fill="#263238"/>
<path d="M137.711 15.582C137.711 15.582 137.508 15.7328 137.154 16.0344C136.749 16.2354 136.142 16.5873 135.332 16.7381C133.712 17.0899 131.333 17.0397 128.853 16.3862H128.802V16.336C128.752 16.1852 128.752 16.0344 128.701 15.8836C128.448 14.5767 128.397 13.2698 128.549 12.164C128.701 11.0079 129.106 10.0026 129.612 9.29893C130.118 8.54496 130.726 8.14285 131.131 7.89152C131.586 7.6402 131.789 7.53967 131.789 7.53967C131.789 7.53967 131.586 7.69047 131.181 7.94179C130.827 8.24338 130.22 8.64549 129.764 9.39946C129.309 10.1032 128.904 11.0582 128.802 12.2143C128.651 13.3201 128.701 14.5767 129.005 15.8836C129.055 16.0344 129.055 16.1852 129.106 16.336L129.005 16.2354C131.434 16.8889 133.763 16.9894 135.332 16.6878C136.142 16.537 136.749 16.2857 137.154 16.0846C137.458 15.7328 137.66 15.582 137.711 15.582Z" fill="#263238"/>
<path d="M139.786 9.09791C139.786 9.14817 139.027 9.2487 137.862 9.60055C137.306 9.75135 136.597 10.0027 135.888 10.3545C135.18 10.7064 134.37 11.1085 133.611 11.6111C132.851 12.1138 132.143 12.6667 131.586 13.1693C130.979 13.7222 130.523 14.2249 130.118 14.6773C129.359 15.582 128.954 16.2355 128.903 16.2355C128.903 16.2355 128.954 16.0847 129.156 15.7831C129.308 15.4815 129.612 15.0794 129.966 14.5767C130.321 14.0741 130.827 13.5715 131.434 13.0185C132.042 12.4656 132.7 11.9127 133.509 11.4101C134.319 10.9074 135.079 10.5053 135.838 10.1535C136.597 9.85188 137.255 9.60055 137.862 9.44976C138.47 9.29897 138.925 9.19844 139.28 9.14817C139.583 9.09791 139.735 9.04764 139.786 9.09791Z" fill="#263238"/>
<path d="M131.333 16.8386C131.333 16.8386 131.333 16.8889 131.333 16.9894C131.333 17.09 131.283 17.2408 131.181 17.3916C131.03 17.7434 130.726 18.246 130.169 18.6482C129.612 19.0503 128.853 19.4021 127.891 19.4021C126.98 19.3519 125.968 18.799 125.411 17.9445C124.804 17.09 124.652 15.9841 124.956 15.0794C125.259 14.1746 125.867 13.5714 126.474 13.2196C127.081 12.8677 127.638 12.7672 127.993 12.7672C128.195 12.7672 128.347 12.7672 128.448 12.7672C128.549 12.7672 128.6 12.8175 128.6 12.8175C128.6 12.8677 128.397 12.8175 128.043 12.8677C127.689 12.918 127.132 13.0688 126.575 13.4207C126.019 13.7725 125.462 14.3757 125.209 15.1799C124.956 15.9841 125.107 16.9894 125.664 17.7937C126.221 18.5979 127.132 19.1005 127.942 19.1508C128.802 19.2011 129.562 18.8995 130.068 18.4974C130.574 18.0953 130.928 17.6931 131.08 17.3413C131.232 17.0397 131.283 16.8386 131.333 16.8386Z" fill="#263238"/>
<path d="M125.158 16.9391C125.158 16.9391 125.006 16.6878 125.209 16.2857C125.31 16.0846 125.512 15.9338 125.816 15.8333C126.069 15.7328 126.424 15.7328 126.727 15.7328C127.993 15.8333 128.904 16.336 128.853 16.3862C128.803 16.4365 127.891 16.0846 126.677 16.0344C126.069 15.9841 125.563 16.1349 125.361 16.4365C125.158 16.6878 125.209 16.9391 125.158 16.9391Z" fill="#263238"/>
<path d="M122.071 0C122.121 0 121.514 0.753968 121.311 2.16138C121.21 2.86508 121.159 3.71958 121.21 4.6746C121.21 5.62963 121.261 6.63492 121.463 7.74074C121.919 9.85185 122.83 11.6614 123.64 12.8175C124.045 13.4206 124.399 13.873 124.652 14.1746C124.905 14.4762 125.057 14.627 125.057 14.627C125.006 14.6772 124.348 14.0741 123.488 12.918C122.627 11.7619 121.716 9.95238 121.21 7.791C121.008 6.68518 120.957 5.62963 120.957 4.6746C120.957 3.71958 121.008 2.86508 121.16 2.16138C121.311 1.45767 121.514 0.904762 121.716 0.55291C121.919 0.150794 122.071 0 122.071 0Z" fill="#263238"/>
<path d="M124.702 5.98151C124.753 5.98151 125.006 6.28309 125.411 6.836C125.816 7.38891 126.322 8.19315 126.778 9.14817C127.233 10.1032 127.486 11.008 127.689 11.6614C127.841 12.3148 127.891 12.7672 127.841 12.7672C127.739 12.7672 127.436 11.1085 126.525 9.2487C125.613 7.38891 124.601 6.03177 124.702 5.98151Z" fill="#263238"/>
<path d="M123.842 9.09787C123.893 9.04761 124.753 9.90211 125.867 10.9074C126.98 11.9127 127.892 12.7169 127.841 12.8175C127.79 12.8677 126.829 12.1137 125.715 11.1085C124.551 10.1032 123.792 9.14814 123.842 9.09787Z" fill="#263238"/>
<path d="M137.104 20.91C137.104 20.91 137.104 20.9603 137.053 20.9603C137.002 21.0106 136.901 21.0608 136.851 21.1613C136.648 21.3121 136.344 21.5635 135.99 21.8148C135.231 22.3174 134.117 22.9206 132.801 23.373C131.485 23.8254 130.22 23.9762 129.309 24.0264C128.853 24.0264 128.499 24.0264 128.246 24.0264C128.145 24.0264 128.043 24.0264 127.942 24.0264C127.891 24.0264 127.841 24.0264 127.841 24.0264C127.841 24.0264 127.891 24.0264 127.942 24.0264C128.043 24.0264 128.145 24.0264 128.246 24.0264C128.499 24.0264 128.853 24.0264 129.309 23.9762C130.22 23.9259 131.435 23.7248 132.751 23.3227C134.067 22.8703 135.18 22.3174 135.939 21.8148C136.294 21.5635 136.597 21.3624 136.8 21.2116C136.901 21.1613 136.952 21.1111 137.053 21.0608C137.053 20.91 137.053 20.8598 137.104 20.91Z" fill="#FAFAFA"/>
<path d="M140.039 26.9921C140.039 26.9921 140.039 27.0423 139.989 27.0423C139.938 27.0926 139.837 27.1429 139.786 27.2434C139.584 27.3942 139.28 27.6455 138.926 27.8968C138.167 28.3995 137.053 29.0026 135.737 29.5053C134.421 29.9577 133.155 30.209 132.295 30.3095C131.839 30.3598 131.485 30.3598 131.232 30.3598C131.131 30.3598 131.03 30.3598 130.928 30.3598C130.878 30.3598 130.827 30.3598 130.827 30.3598C130.827 30.3598 130.878 30.3598 130.928 30.3598C131.03 30.3598 131.131 30.3598 131.232 30.3598C131.485 30.3598 131.839 30.3095 132.295 30.2593C133.206 30.1587 134.421 29.9074 135.737 29.455C137.053 29.0026 138.116 28.3995 138.875 27.8968C139.28 27.6455 139.533 27.4444 139.736 27.2937C139.837 27.2434 139.887 27.1931 139.989 27.1429C140.039 26.9921 140.039 26.9921 140.039 26.9921Z" fill="#FAFAFA"/>
<path d="M139.229 35.8386C139.229 35.8386 139.179 35.8889 139.027 35.9894C138.875 36.0899 138.672 36.1905 138.419 36.3413C137.863 36.6429 137.103 36.9947 136.192 37.1958C135.281 37.4471 134.421 37.4973 133.813 37.4973C133.51 37.4973 133.256 37.4973 133.105 37.4973C132.953 37.4973 132.852 37.4471 132.852 37.4471C132.852 37.4471 132.953 37.4471 133.105 37.4471C133.256 37.4471 133.51 37.4471 133.813 37.4471C134.421 37.4471 135.281 37.3466 136.142 37.0952C137.053 36.8439 137.812 36.5423 138.369 36.2407C138.622 36.0899 138.875 35.9894 139.027 35.8889C139.128 35.8889 139.229 35.8386 139.229 35.8386Z" fill="#FAFAFA"/>
<path d="M140.95 34.4815C140.95 34.5318 140.647 34.582 140.242 34.6826C139.837 34.7328 139.533 34.7831 139.533 34.7831C139.533 34.7328 139.837 34.6826 140.242 34.582C140.647 34.4815 140.95 34.4815 140.95 34.4815Z" fill="#FAFAFA"/>
<path d="M135.939 44.9365C135.939 44.9868 135.433 45.0371 134.775 44.9868C134.117 44.9365 133.611 44.7857 133.662 44.7857C133.662 44.7355 134.168 44.836 134.826 44.8863C135.433 44.9365 135.939 44.8863 135.939 44.9365Z" fill="#FAFAFA"/>
<path d="M126.323 18.6482C126.323 18.6984 126.019 18.8492 125.665 19.1006C125.26 19.3016 124.956 19.4524 124.956 19.4524C124.956 19.4524 125.26 19.2514 125.614 19C125.968 18.7487 126.323 18.5979 126.323 18.6482Z" fill="#FAFAFA"/>
<path d="M123.792 13.3704C123.792 13.4206 123.083 13.6217 122.324 14.1746C121.565 14.7275 121.109 15.3307 121.059 15.3307C121.059 15.3307 121.16 15.1799 121.362 14.9286C121.565 14.6772 121.868 14.3757 122.273 14.1243C122.678 13.873 123.033 13.6719 123.336 13.5714C123.64 13.3704 123.792 13.3704 123.792 13.3704Z" fill="#FAFAFA"/>
<path d="M128.347 19.2011C128.296 19.2011 128.498 18.4974 128.397 17.6931C128.296 16.8386 127.942 16.2355 127.992 16.2355C127.992 16.2355 128.093 16.3863 128.195 16.6376C128.296 16.8889 128.448 17.291 128.498 17.6931C128.549 18.1455 128.549 18.4974 128.498 18.799C128.448 19.0503 128.397 19.2011 128.347 19.2011Z" fill="#FAFAFA"/>
<path d="M144.038 2.81482C144.038 2.81482 143.835 3.06614 143.481 3.41799C143.127 3.76985 142.519 4.27249 141.709 4.77514C140.899 5.27778 139.938 5.78043 138.774 6.28307C137.66 6.78572 136.395 7.28836 135.129 7.89154C133.864 8.49471 132.7 9.19842 131.788 10.0026C130.877 10.8069 130.219 11.7116 129.814 12.5661C129.41 13.4206 129.258 14.1243 129.207 14.627C129.156 15.1296 129.207 15.4312 129.207 15.4312C129.207 15.4312 129.207 15.381 129.207 15.2302C129.207 15.0794 129.207 14.8783 129.207 14.627C129.258 14.1243 129.41 13.3704 129.764 12.5159C130.169 11.6614 130.827 10.7566 131.738 9.95238C132.649 9.14815 133.813 8.39418 135.129 7.79101C136.395 7.18783 137.66 6.68519 138.824 6.18254C139.938 5.6799 140.95 5.17725 141.709 4.72487C142.519 4.22223 143.076 3.76985 143.481 3.41799C143.683 3.2672 143.835 3.11641 143.936 3.01588C143.987 2.86508 144.038 2.81482 144.038 2.81482Z" fill="#FAFAFA"/>
<path d="M142.671 8.79633C142.671 8.79633 142.671 8.84659 142.62 8.89686C142.57 8.99738 142.468 9.09791 142.418 9.19844C142.215 9.44976 141.962 9.85188 141.557 10.3043C140.798 11.209 139.685 12.4154 138.267 13.5212C136.85 14.627 135.382 15.4312 134.319 15.8836C133.762 16.135 133.358 16.2857 133.003 16.4365C132.851 16.4868 132.75 16.5371 132.649 16.5371C132.548 16.5873 132.497 16.5873 132.497 16.5873C132.497 16.5873 132.548 16.5873 132.598 16.5371C132.7 16.4868 132.801 16.4365 132.953 16.3863C133.256 16.2857 133.712 16.0847 134.218 15.8334C135.281 15.3307 136.698 14.5265 138.115 13.4207C139.533 12.3148 140.646 11.1588 141.406 10.254C141.76 9.80162 142.064 9.44977 142.266 9.14818C142.367 9.04765 142.418 8.94712 142.468 8.84659C142.62 8.79633 142.671 8.79633 142.671 8.79633Z" fill="#FAFAFA"/>
<path d="M121.514 1.70898C121.514 1.70898 122.121 1.96031 123.032 2.51322C123.943 3.06613 125.107 4.02115 126.12 5.27777C127.132 6.58465 127.79 7.89153 128.144 8.89682C128.499 9.90211 128.6 10.5555 128.6 10.5555C128.6 10.5555 128.6 10.5053 128.549 10.455C128.499 10.3545 128.499 10.254 128.448 10.1032C128.397 9.80158 128.246 9.39946 128.043 8.89682C127.689 7.89153 127.031 6.58465 126.019 5.27777C125.006 4.02115 123.842 3.06613 122.982 2.51322C122.526 2.21163 122.172 2.01057 121.919 1.85978C121.817 1.80951 121.716 1.75925 121.615 1.70898C121.564 1.75925 121.514 1.70898 121.514 1.70898Z" fill="#FAFAFA"/>
<path d="M96.1548 20.6085C96.3572 23.2725 94.5857 25.6349 92.8141 27.6455C91.0425 29.6561 89.0179 31.7169 88.6636 34.3809C87.9549 39.0555 92.6116 43.4286 91.6499 48.0529C91.1438 50.5159 89.0685 52.5264 88.7142 55.0397C88.3599 57.4524 89.6759 59.8651 91.2956 61.6746C92.9153 63.5344 94.7881 63.2328 96.256 65.2434C97.7745 67.3545 100.204 69.5159 102.482 70.7222C107.645 73.537 113.871 69.4656 116.351 68.7116" fill="#263238"/>
<path d="M135.281 31.5159C137.66 30.4603 137.863 22.0159 131.89 21.0106C129.511 20.6084 127.487 19.4524 125.462 18.0952C123.69 16.8889 123.134 13.873 121.615 12.3651C117.92 8.64549 112.099 7.08728 106.987 8.44443C101.875 9.80157 97.6735 14.0741 96.4081 19.201C95.5476 22.619 96.155 26.6905 98.8883 29.0026C102.077 31.6667 106.734 31.0635 110.834 30.2592C114.883 29.455 119.489 28.6005 122.88 31.0132C124.905 32.4206 126.12 34.7831 127.335 36.8942C128.6 39.0555 130.169 41.2169 132.498 42.0714C132.498 42.0714 134.32 46.2936 132.852 49.209C131.384 52.1243 134.573 47.1481 134.573 47.1481C134.573 47.1481 140.394 36.7936 135.281 31.5159Z" fill="#263238"/>
<path d="M104.962 91.1296C104.911 85.6005 104.962 70.0185 104.962 70.0688C104.962 70.0688 96.1042 68.6111 94.282 57.1005C93.3709 51.3704 93.6746 42.0212 94.1808 34.3307C94.6363 27.4444 99.2424 19 106.177 19.7037L127.79 25.1825C129.916 25.3836 131.485 27.1931 131.434 29.3042L130.118 82.5847L104.962 91.1296Z" fill="#FFBE9D"/>
<path d="M97.8758 40.8651C97.8252 41.6191 98.4832 42.3228 99.293 42.373C100.103 42.4233 100.812 41.8201 100.812 41.0662C100.862 40.3122 100.204 39.6085 99.3943 39.5582C98.5844 39.508 97.9264 40.1111 97.8758 40.8651Z" fill="#263238"/>
<path d="M96.2562 39.2064C96.4586 39.4074 97.5722 38.5529 99.1413 38.6032C100.761 38.6032 101.925 39.4074 102.077 39.2064C102.178 39.1058 101.976 38.754 101.47 38.4021C100.963 38.0503 100.103 37.6984 99.1413 37.6984C98.129 37.6984 97.3191 38.0503 96.8129 38.4524C96.3068 38.754 96.1549 39.1058 96.2562 39.2064Z" fill="#263238"/>
<path d="M111.948 41.7196C112.15 41.9207 113.264 41.0662 114.833 41.1164C116.452 41.1164 117.617 41.9207 117.768 41.7196C117.87 41.6191 117.667 41.2672 117.161 40.9154C116.655 40.5635 115.794 40.2117 114.833 40.2117C113.82 40.2117 113.011 40.5635 112.504 40.9656C111.998 41.2672 111.846 41.6191 111.948 41.7196Z" fill="#263238"/>
<path d="M106.127 51.2698C106.127 51.1693 105.165 51.0185 103.545 50.8174C103.14 50.7672 102.735 50.7169 102.685 50.4153C102.584 50.1137 102.786 49.6614 102.938 49.209C103.343 48.254 103.748 47.1984 104.153 46.1428C105.823 41.7698 107.038 38.1508 106.886 38.1005C106.684 38.0503 105.216 41.5185 103.495 45.9418C103.09 47.0476 102.685 48.0529 102.331 49.0582C102.179 49.5106 101.926 50.0635 102.128 50.6667C102.229 50.9682 102.533 51.1693 102.786 51.2698C103.039 51.3704 103.292 51.3704 103.495 51.3704C105.114 51.3704 106.127 51.3704 106.127 51.2698Z" fill="#263238"/>
<path d="M104.962 70.0688C104.962 70.0688 112.757 70.5714 120.451 65.9974C120.299 66.0476 116.199 73.9894 105.114 72.7831L104.962 70.0688Z" fill="#EB996E"/>
<path d="M106.582 55.8439C106.379 54.8889 107.544 54.537 108.404 54.0344C109.264 53.5317 109.72 52.828 110.53 53.4312C110.985 53.7831 111.289 54.2857 111.492 54.7884C111.643 55.1402 111.694 55.5423 111.643 55.8942C111.542 56.3466 111.289 56.7487 110.935 57.0503C110.479 57.5026 109.872 57.8545 109.214 57.955C108.556 58.0555 107.847 57.9048 107.341 57.5026C106.835 57.1005 106.531 56.3968 106.632 55.7434" fill="#EB996E"/>
<path d="M110.834 52.3757C110.581 52.3757 110.581 54.0847 109.062 55.291C107.594 56.4974 105.722 56.2963 105.722 56.5476C105.722 56.6482 106.127 56.8995 106.936 56.8995C107.696 56.9497 108.809 56.6984 109.72 55.9445C110.631 55.1905 111.036 54.1852 111.087 53.4815C111.138 52.8281 110.935 52.3757 110.834 52.3757Z" fill="#263238"/>
<path d="M111.694 38.2011C111.846 38.6534 113.466 38.4524 115.339 38.6534C117.211 38.8545 118.73 39.4074 118.983 39.0053C119.084 38.8042 118.831 38.4021 118.224 38C117.616 37.5979 116.655 37.1958 115.541 37.045C114.427 36.9444 113.365 37.0952 112.707 37.3466C111.998 37.6482 111.644 38 111.694 38.2011Z" fill="#263238"/>
<path d="M96.4591 33.7275C96.7628 34.0794 97.8257 33.7275 99.1418 33.6773C100.458 33.627 101.571 33.9286 101.824 33.5265C101.926 33.3254 101.774 32.9736 101.268 32.6217C100.761 32.2699 100.002 32.0186 99.0911 32.0186C98.18 32.0688 97.3702 32.3704 96.9146 32.7223C96.5097 33.1746 96.3578 33.5265 96.4591 33.7275Z" fill="#263238"/>
<path d="M132.7 63.6349C129.511 64.2883 129.207 62.6799 126.879 60.4682C124.5 58.2566 123.285 54.8889 123.69 51.7222C124.044 48.9074 125.563 46.0423 124.601 43.3783C123.285 39.8598 118.324 38.754 117.008 35.2354C116.249 33.1746 116.907 30.8122 116.047 28.8016C115.237 26.8915 113.212 25.836 111.289 25.1323C109.365 24.4286 107.239 23.9259 105.62 22.6693C104 21.4127 102.988 19.0502 104 17.2407C112.655 18.246 121.159 20.3069 129.308 23.3227C131.181 24.0264 133.206 24.8809 134.319 26.5397C135.483 28.2989 135.433 30.5608 135.332 32.7222C134.825 43.0264 134.37 53.3809 133.864 63.6852" fill="#263238"/>
<path d="M140.039 59.7645C140.039 59.7645 140.089 59.7142 140.14 59.6137C140.191 59.5132 140.342 59.3624 140.444 59.1613C140.697 58.7592 141 58.0555 141.203 57.1507C141.405 56.246 141.405 55.0396 141 53.7328C140.646 52.4259 139.735 51.0687 138.318 50.1137C136.951 49.1587 135.18 48.5052 134.015 46.947C133.459 46.1931 133.206 45.238 133.408 44.2327C133.56 43.2275 134.015 42.2724 134.42 41.2671C135.281 39.2063 135.331 36.6428 134.269 34.3809C133.762 33.2751 132.953 32.2195 131.94 31.4656C130.928 30.7116 129.662 30.3095 128.397 30.0079C127.132 29.7063 125.917 29.5555 124.753 29.2036C123.588 28.8518 122.475 28.3492 121.665 27.5449C120.855 26.7407 120.501 25.6349 120.349 24.529C120.197 23.4232 120.096 22.2671 119.792 21.2116C119.235 19.0502 118.122 17.1402 116.654 15.783C115.186 14.4259 113.415 13.6216 111.744 13.3703C110.074 13.119 108.454 13.4206 107.29 14.0238C106.075 14.6269 105.265 15.4814 104.709 16.2354C104.152 16.9894 103.899 17.6931 103.798 18.1957C103.696 18.6984 103.696 18.9497 103.696 18.9497C103.747 18.9999 103.798 17.8941 104.86 16.3862C105.417 15.6825 106.227 14.8783 107.391 14.2751C108.555 13.7222 110.074 13.4206 111.694 13.7222C113.313 13.9735 114.984 14.7777 116.35 16.0846C117.717 17.3915 118.78 19.2513 119.337 21.3624C119.64 22.4179 119.691 23.5238 119.843 24.6798C119.995 25.8359 120.4 27.0925 121.311 27.947C122.222 28.8518 123.386 29.4047 124.601 29.7566C125.816 30.1084 127.081 30.3095 128.296 30.5608C129.511 30.8121 130.725 31.2142 131.636 31.9179C132.598 32.6216 133.357 33.5767 133.813 34.6322C134.775 36.7433 134.825 39.156 133.965 41.1164C133.56 42.1216 133.104 43.1269 132.953 44.1825C132.75 45.238 133.054 46.3941 133.661 47.1984C134.927 48.8571 136.749 49.5105 138.115 50.4153C139.482 51.3201 140.342 52.5767 140.747 53.783C141.152 54.9894 141.152 56.1455 141 57.0502C140.747 58.9603 139.988 59.7645 140.039 59.7645Z" fill="#455A64"/>
<path d="M125.006 48.3545C122.374 54.336 121.919 61.2222 123.64 67.5053C124.146 69.3651 124.905 71.3254 124.449 73.2354C123.943 75.2963 122.222 76.8042 120.957 78.463C118.78 81.3783 117.92 85.2487 118.679 88.8174C119.438 92.3862 121.767 95.5529 124.956 97.3624C125.31 95.4524 127.081 94.1958 128.802 93.3413C130.574 92.537 132.497 91.9339 133.813 90.5264C135.129 89.119 135.534 86.6058 133.965 85.4497C138.42 84.2936 140.95 79.0159 139.989 74.5423C139.027 70.0688 135.383 66.5503 131.232 64.5899" fill="#263238"/>
<path d="M129.764 92.9894C128.954 93.4418 128.195 93.7936 128.094 94.6984C127.993 95.7539 129.005 97.6137 129.359 98.619C130.068 100.579 129.511 102.892 128.043 104.349C126.525 105.807 124.196 106.259 122.222 105.505C123.64 105.606 124.854 104.249 125.006 102.841C125.158 101.434 124.45 100.077 123.589 98.9206C122.729 97.7645 121.716 96.7592 121.008 95.5529C119.54 93.0397 117.363 86.2539 119.034 82.4338" fill="#263238"/>
<path d="M133.814 85.7011C133.814 85.7011 133.915 85.6005 134.067 85.4497C134.269 85.2989 134.522 85.0979 134.877 84.7963C135.535 84.2434 136.496 83.3889 137.458 82.1323C138.42 80.8757 139.432 79.2672 139.938 77.2566C140.444 75.246 140.495 72.8836 139.634 70.672C139.179 69.5661 138.572 68.5609 137.812 67.7566C137.053 66.9021 136.243 66.1482 135.484 65.4444C134.725 64.7407 134.016 64.037 133.409 63.2831C132.801 62.5794 132.346 61.7751 132.042 61.0714C131.384 59.6138 131.384 58.2566 131.586 57.4021C131.688 56.9497 131.84 56.6482 131.941 56.4471C132.042 56.246 132.143 56.1455 132.143 56.1455C132.194 56.1455 131.89 56.5476 131.688 57.4021C131.485 58.2566 131.536 59.5635 132.194 61.0212C132.498 61.7249 132.953 62.4788 133.561 63.1825C134.168 63.8862 134.877 64.59 135.636 65.2937C136.395 65.9974 137.205 66.7513 137.964 67.6058C138.723 68.4603 139.381 69.4656 139.837 70.6217C140.748 72.9339 140.697 75.3466 140.141 77.3571C139.584 79.418 138.572 81.0767 137.61 82.2831C136.597 83.5397 135.636 84.3942 134.927 84.8968C134.573 85.1482 134.32 85.3492 134.117 85.5C133.915 85.6005 133.814 85.7011 133.814 85.7011Z" fill="#455A64"/>
</g>
<defs>
<clipPath id="clip0">
<rect width="193" height="171" fill="white"/>
</clipPath>
</defs>
</svg>
