<svg width="158" height="154" viewBox="0 0 158 154" fill="none" xmlns="http://www.w3.org/2000/svg">
<path d="M100.392 57.0899C98.9046 50.8504 93.3945 45.8257 87.0579 44.9423C89.2068 42.0158 89.7027 37.9298 88.215 34.5616C86.7273 31.1933 83.4212 28.7638 79.7846 28.3773C81.4376 25.6165 81.7131 22.1378 80.5009 19.1561C79.3438 16.1745 76.6989 13.8554 73.6684 12.9719C71.7949 12.4197 69.7011 12.4197 68.0481 11.3706C66.2297 10.2111 65.3481 8.11283 64.0257 6.40112C60.7196 2.03902 54.2177 0.492956 49.3138 2.86727L44.8506 12.1989C49.4791 27.2178 54.1626 42.2367 58.7911 57.2003C60.2237 61.8385 61.7666 66.6424 64.9624 70.2314C68.4889 74.207 73.7786 76.3052 79.0683 76.9126C84.1926 77.52 89.6476 76.8022 93.8904 73.8757C99.1801 70.2866 101.88 63.2742 100.392 57.0899Z" fill="#263238"/>
<path d="M86.4517 47.9791C86.4517 47.9239 87.3333 48.0896 88.9313 47.703C89.7027 47.4822 90.6394 47.1509 91.5761 46.4883C92.5128 45.8257 93.5046 44.9422 94.2761 43.7274C95.0475 42.5127 95.5985 40.9114 95.6536 39.1997C95.7087 37.488 95.323 35.6106 94.3862 33.8437C93.4495 32.132 91.9618 30.5859 90.0884 29.5368C88.2149 28.4877 85.9558 27.9355 83.6416 27.9907H83.4212L83.5314 27.7699C84.6885 25.4508 84.964 22.5243 84.1926 19.8739C83.4212 17.1683 81.4375 14.9596 79.1233 13.6897C78.5723 13.3584 77.9662 13.0823 77.305 12.9166C76.6989 12.6958 76.0376 12.5853 75.4315 12.4749C74.1642 12.3092 72.8418 12.4197 71.6847 11.8675C71.0786 11.5914 70.6378 11.1497 70.252 10.6527C69.8663 10.1558 69.6459 9.60363 69.3704 9.05146C68.9296 8.00235 68.3786 7.00845 67.7725 6.12499C66.5052 4.35806 64.8522 3.08808 63.1991 2.25983C61.5461 1.43158 59.8931 1.04507 58.4053 0.989851C56.9176 0.879417 55.6503 1.10028 54.6585 1.32115C53.6667 1.54202 52.8953 1.87332 52.3993 2.09418C52.1238 2.20461 51.9585 2.31505 51.8483 2.37026C51.7381 2.42548 51.6279 2.4807 51.6279 2.4807C51.6279 2.4807 51.683 2.42548 51.7932 2.37026C51.9034 2.31505 52.0687 2.20461 52.3442 2.09418C52.8402 1.87332 53.6116 1.54202 54.6034 1.26593C55.5952 0.989851 56.9176 0.824198 58.4053 0.879415C59.8931 0.934631 61.6012 1.32115 63.2542 2.1494C64.9073 2.97764 66.6154 4.24762 67.9378 6.06977C68.599 6.95323 69.15 8.00235 69.5908 9.05146C70.0867 10.1006 70.6377 11.2049 71.7398 11.7019C72.8418 12.1988 74.1091 12.0884 75.4315 12.3092C76.0927 12.4197 76.6988 12.5301 77.3601 12.751C77.9662 12.9718 78.6274 13.2479 79.1784 13.5792C81.5477 14.8492 83.5314 17.1131 84.3579 19.9291C85.1844 22.6347 84.9089 25.6164 83.6967 28.0459L83.5865 27.8251C85.9558 27.7699 88.27 28.3772 90.1986 29.4264C92.1271 30.4755 93.6699 32.0768 94.6067 33.8437C95.5434 35.6106 95.9291 37.5432 95.874 39.3101C95.8189 41.0771 95.2679 42.6783 94.4413 43.9483C93.6148 45.2183 92.623 46.1018 91.6312 46.7644C90.6394 47.3717 89.7027 47.7582 88.9313 47.9239C88.1598 48.1448 87.4986 48.1448 87.0578 48.1448C86.8374 48.1448 86.6721 48.1448 86.5619 48.1448C86.5068 47.9791 86.4517 47.9791 86.4517 47.9791Z" fill="#263238"/>
<path d="M30.4692 133.454C32.1223 131.908 32.8937 129.644 33.61 127.491C35.7038 120.92 37.4671 114.239 38.7895 107.502L32.1774 92.0419L30.4692 133.454Z" fill="#85BC91"/>
<path d="M95.4333 61.2863L72.6216 56.9242L30.1938 69.9001L31.0755 103.196L38.3488 137.485H97.417L99.7312 94.5819L95.4333 61.2863Z" fill="#85BC91"/>
<path d="M95.4336 61.1758C95.4336 61.1758 105.186 62.998 109.264 67.8018C113.341 72.6057 153.069 111.478 154.943 122.742L122.984 120.368L99.7315 94.5266L95.4336 61.1758Z" fill="#85BC91"/>
<path d="M99.2354 90.8271C99.2354 90.8271 99.1252 90.4958 99.0149 89.8884C98.9047 89.2811 98.7945 88.3976 98.6292 87.2933C98.3537 85.0846 98.1333 82.0477 98.2986 78.6795C98.3537 77.023 98.519 75.4217 98.7394 73.9309C98.9598 72.4952 99.2354 71.2252 99.566 70.1209C99.6211 69.8448 99.7313 69.624 99.7864 69.3479C99.8966 69.127 99.9517 68.9061 100.062 68.6853C100.227 68.2988 100.337 67.9123 100.503 67.6362C100.778 67.084 100.943 66.8079 100.943 66.8079C100.943 66.8079 100.833 67.1392 100.613 67.6914C100.503 67.9675 100.392 68.2988 100.227 68.7405C100.172 68.9614 100.062 69.1822 100.007 69.4031C99.9517 69.624 99.8966 69.9 99.7864 70.1761C99.4558 71.2252 99.2354 72.4952 99.0149 73.9309C98.7945 75.3665 98.6843 76.9678 98.6292 78.6243C98.519 81.9925 98.6843 85.0294 98.9048 87.1828C99.015 88.2872 99.1252 89.1706 99.1803 89.778C99.2354 90.4406 99.2354 90.8271 99.2354 90.8271Z" fill="#263238"/>
<path d="M32.2328 108.496C32.2328 108.496 32.343 108.717 32.3981 109.214C32.5083 109.711 32.6185 110.374 32.7838 111.147C33.1144 112.859 33.5552 115.067 34.1062 117.552C34.6021 120.037 35.098 122.301 35.4837 123.902C35.649 124.675 35.8143 125.337 35.9245 125.834C36.0347 126.276 36.0899 126.552 36.0899 126.552C36.0899 126.552 35.9796 126.331 35.8143 125.89C35.649 125.448 35.4837 124.785 35.2633 124.012C34.8225 122.411 34.3266 120.147 33.8307 117.662C33.3348 115.178 32.894 112.914 32.6185 111.257C32.4532 110.429 32.343 109.766 32.2879 109.325C32.2328 108.773 32.1777 108.496 32.2328 108.496Z" fill="#263238"/>
<path d="M73.8889 99.7722C73.8338 99.7722 73.5032 98.0605 73.1726 95.9071C72.842 93.7536 72.6216 92.0419 72.7318 91.9867C72.7869 91.9867 73.1175 93.6984 73.4481 95.8518C73.7236 98.0053 73.944 99.7722 73.8889 99.7722Z" fill="#FAFAFA"/>
<path d="M51.9036 106.564C51.8485 106.509 52.3444 105.073 53.0607 103.361C53.777 101.594 54.3831 100.214 54.4933 100.269C54.5484 100.324 54.0525 101.76 53.3362 103.472C52.6199 105.183 51.9587 106.619 51.9036 106.564Z" fill="#FAFAFA"/>
<path d="M66.8911 120.202C66.836 120.258 65.8442 118.711 64.4116 116.945C62.9789 115.178 61.6565 113.908 61.7116 113.852C61.7116 113.852 62.0973 114.129 62.6483 114.625C63.1994 115.122 63.9157 115.895 64.632 116.779C65.3483 117.662 65.9544 118.491 66.3401 119.153C66.7258 119.761 66.9462 120.147 66.8911 120.202Z" fill="#FAFAFA"/>
<path d="M85.6254 110.484C85.6805 110.539 84.7989 111.368 83.6969 112.306C82.5948 113.245 81.6581 114.018 81.603 113.908C81.5479 113.852 82.4295 113.024 83.5316 112.086C84.6336 111.202 85.5703 110.429 85.6254 110.484Z" fill="#FAFAFA"/>
<path d="M45.3468 126.055C45.2917 126.11 43.6938 125.393 41.7652 124.454C39.8367 123.515 38.2388 122.687 38.2939 122.577C38.349 122.521 39.9469 123.239 41.8754 124.178C43.804 125.172 45.3468 126 45.3468 126.055Z" fill="#FAFAFA"/>
<path d="M91.7417 90.8271C91.7968 90.8823 91.0805 91.5449 90.1989 92.3732C89.3173 93.1462 88.4908 93.7536 88.4908 93.6984C88.4357 93.6431 89.152 92.9805 90.0336 92.1523C90.9152 91.324 91.6866 90.7719 91.7417 90.8271Z" fill="#FAFAFA"/>
<path d="M87.5543 74.1517C87.4992 74.1517 87.8298 72.7161 88.3808 71.0596C88.8767 69.3479 89.3726 68.0227 89.4828 68.0227C89.5379 68.0227 89.2073 69.4583 88.6563 71.1148C88.1053 72.8265 87.6094 74.1517 87.5543 74.1517Z" fill="#FAFAFA"/>
<path d="M65.9545 85.6367C65.9545 85.6919 64.632 85.8024 63.0341 85.8024C61.4362 85.8024 60.1138 85.7472 60.1138 85.6367C60.1138 85.5815 61.4362 85.4711 63.0341 85.4711C64.632 85.5263 65.9545 85.5815 65.9545 85.6367Z" fill="#FAFAFA"/>
<path d="M36.6407 105.128C36.5856 105.073 37.1917 103.472 38.0182 101.539C38.8447 99.6065 39.6161 98.0605 39.6712 98.0605C39.7263 98.1157 39.1202 99.717 38.2937 101.65C37.4672 103.637 36.6958 105.183 36.6407 105.128Z" fill="#FAFAFA"/>
<path d="M105.572 92.9253C105.517 92.9253 105.186 91.7106 104.856 90.1093C104.525 88.5632 104.305 87.2933 104.415 87.238C104.47 87.238 104.801 88.4528 105.131 90.0541C105.462 91.6554 105.627 92.9253 105.572 92.9253Z" fill="#FAFAFA"/>
<path d="M112.846 78.5691C112.846 78.6243 111.303 78.2378 109.54 77.6856C107.721 77.1334 106.289 76.5813 106.289 76.5261C106.289 76.4708 107.776 76.8574 109.595 77.4095C111.413 77.9617 112.901 78.5138 112.846 78.5691Z" fill="#FAFAFA"/>
<path d="M116.647 94.5818C116.592 94.5818 116.647 93.5327 116.868 92.2075C117.088 90.8823 117.309 89.8884 117.364 89.8884C117.419 89.8884 117.364 90.9375 117.143 92.2627C116.923 93.5327 116.702 94.5818 116.647 94.5818Z" fill="#FAFAFA"/>
<path d="M133.728 102.312C133.673 102.367 132.186 100.821 130.477 98.8888C128.714 96.9562 127.337 95.2997 127.392 95.2445C127.447 95.1893 128.935 96.7353 130.643 98.6679C132.461 100.656 133.839 102.257 133.728 102.312Z" fill="#FAFAFA"/>
<path d="M121.055 109.877C121 109.932 119.843 108.496 118.465 106.674C117.088 104.852 116.041 103.361 116.151 103.306C116.206 103.251 117.363 104.687 118.741 106.509C120.063 108.276 121.11 109.822 121.055 109.877Z" fill="#FAFAFA"/>
<path d="M136.814 112.085C136.759 112.141 135.437 111.423 133.673 110.65C131.91 109.932 130.422 109.49 130.422 109.38C130.422 109.325 131.965 109.601 133.784 110.374C135.547 111.147 136.869 112.03 136.814 112.085Z" fill="#FAFAFA"/>
<path d="M53.4466 129.755C53.3915 129.755 53.2812 128.43 53.2812 126.828C53.2812 125.227 53.3364 123.902 53.4466 123.902C53.5017 123.902 53.6119 125.227 53.6119 126.828C53.6119 128.485 53.5568 129.755 53.4466 129.755Z" fill="#FAFAFA"/>
<path d="M93.5599 119.264C93.5048 119.319 92.7334 118.601 91.8518 117.607C90.9702 116.669 90.3089 115.84 90.364 115.785C90.4191 115.73 91.1906 116.448 92.0722 117.442C92.9538 118.38 93.615 119.208 93.5599 119.264Z" fill="#FAFAFA"/>
<path d="M95.5989 103.527C95.5438 103.527 95.4336 102.367 95.4336 100.932C95.4336 99.4961 95.4887 98.3365 95.5989 98.3365C95.654 98.3365 95.7642 99.4961 95.7642 100.932C95.7091 102.367 95.654 103.527 95.5989 103.527Z" fill="#FAFAFA"/>
<path d="M72.8969 115.785C72.8418 115.785 72.456 114.46 72.1254 112.748C71.7948 111.036 71.5744 109.711 71.6295 109.656C71.6846 109.656 72.0703 110.981 72.4009 112.693C72.7866 114.405 72.952 115.785 72.8969 115.785Z" fill="#FAFAFA"/>
<path d="M44.1897 113.411C44.1346 113.466 42.8122 112.748 41.2142 111.754C39.6163 110.76 38.349 109.932 38.4041 109.877C38.4592 109.822 39.7816 110.539 41.3795 111.533C42.9775 112.472 44.2448 113.3 44.1897 113.411Z" fill="#FAFAFA"/>
<path d="M50.8568 86.3546C50.9119 86.3546 50.8017 86.8516 50.5813 87.6798C50.3609 88.4528 49.9752 89.5572 49.4793 90.6615C48.9283 91.821 48.3773 92.7597 47.8813 93.4775C47.4405 94.1401 47.1099 94.5267 47.0548 94.5267C46.9997 94.5267 47.2752 94.0849 47.716 93.3671C48.1569 92.6493 48.6528 91.7106 49.2038 90.5511C49.7548 89.4467 50.1405 88.3976 50.416 87.6246C50.6364 86.8516 50.8017 86.3546 50.8568 86.3546Z" fill="#FAFAFA"/>
<path d="M81.6583 79.3974C81.6032 79.4526 81.0522 78.1826 79.8951 76.9678C78.7931 75.7531 77.5257 75.0905 77.5808 75.0352C77.5808 74.98 78.9033 75.477 80.1155 76.747C81.2726 77.9617 81.7134 79.3421 81.6583 79.3974Z" fill="#FAFAFA"/>
<path d="M86.3418 61.2863C86.3969 61.3415 85.5703 61.728 84.5234 62.1697C83.4765 62.5562 82.5949 62.8323 82.5949 62.7771C82.5398 62.7219 83.3663 62.3354 84.4132 61.8936C85.405 61.5071 86.2867 61.2311 86.3418 61.2863Z" fill="#FAFAFA"/>
<path d="M73.2833 52.6724C73.2833 52.6724 80.9974 47.206 77.4159 35.3344C75.6527 29.4815 71.0242 20.6468 67.0018 13.5791C63.3651 7.17398 55.0449 1.04495 46.2839 5.35184C46.2839 5.35184 26.5026 13.303 32.729 28.3219L50.9123 68.9061C53.7776 75.3112 61.1611 78.4033 67.7181 75.8633C74.4955 73.2682 77.9669 65.7035 75.4874 58.8567L73.2833 52.6724Z" fill="#FFBE9D"/>
<path d="M67.8281 25.2298C68.2138 25.9476 67.9383 26.8863 67.1669 27.328C66.3955 27.7698 65.5139 27.4937 65.1282 26.7759C64.7425 26.0581 65.018 25.1194 65.7894 24.6777C66.5608 24.2359 67.4424 24.4568 67.8281 25.2298Z" fill="#263238"/>
<path d="M68.2689 21.3094C68.1587 21.5855 66.7261 21.3094 65.2383 22.0272C63.6955 22.7451 62.9792 24.0703 62.7588 23.9598C62.6486 23.9046 62.6486 23.5181 62.9792 22.9107C63.3098 22.3033 63.9159 21.5855 64.8526 21.1438C65.7893 20.7021 66.7812 20.6468 67.3873 20.7573C67.9934 20.9229 68.324 21.199 68.2689 21.3094Z" fill="#263238"/>
<path d="M53.6118 31.8005C53.9975 32.5184 53.722 33.457 52.9506 33.8988C52.1792 34.3405 51.2976 34.0644 50.9119 33.3466C50.5262 32.6288 50.8017 31.6901 51.5731 31.2484C52.2894 30.8066 53.2261 31.0827 53.6118 31.8005Z" fill="#263238"/>
<path d="M54.3831 28.3219C54.2729 28.598 52.8403 28.3219 51.3526 29.0398C49.8098 29.7576 49.0934 31.0828 48.873 30.9723C48.7628 30.9171 48.7628 30.5306 49.0934 29.9232C49.424 29.3158 50.0302 28.598 50.9669 28.1563C51.9036 27.7146 52.8954 27.6593 53.5015 27.7698C54.1076 27.9906 54.4382 28.2115 54.3831 28.3219Z" fill="#263238"/>
<path d="M64.1363 36.494C64.0812 36.3836 64.9628 35.7762 66.3955 34.8375C66.7812 34.6166 67.1118 34.3406 67.0016 34.0645C66.9465 33.7332 66.6159 33.4019 66.1751 33.0706C65.3485 32.2976 64.522 31.5245 63.5853 30.6963C59.9487 27.2728 57.1385 24.4016 57.3038 24.2359C57.4691 24.0703 60.4997 26.7207 64.1363 30.1441C65.0179 30.9724 65.8445 31.8006 66.671 32.5736C67.0567 32.9602 67.4975 33.2914 67.6077 34.0093C67.6628 34.3406 67.4424 34.6719 67.222 34.8927C67.0016 35.1136 66.7812 35.224 66.6159 35.2792C65.1281 36.1075 64.1914 36.6044 64.1363 36.494Z" fill="#263238"/>
<path d="M73.2831 52.6724C73.2831 52.6724 66.1751 56.7584 56.6978 55.9302C56.6978 55.9302 63.916 62.1145 74.3851 55.7646L73.2831 52.6724Z" fill="#FFBE9D"/>
<path d="M66.0101 42.0156C66.0652 41.4083 65.7346 40.8009 65.2387 40.5248C64.7428 40.2487 64.0265 40.3591 63.5857 40.7457C63.4204 40.1935 62.7592 39.8622 62.2081 39.9174C61.6571 39.9726 61.1061 40.4144 60.8306 40.9113C60.2796 41.9052 60.5551 43.2304 61.3816 44.0034C62.2081 44.7765 63.5306 44.8869 64.5224 44.3347C65.5142 43.7826 66.1203 42.6782 66.0652 41.5187" fill="#FFBE9D"/>
<path d="M65.9544 44.3347C65.6789 44.4451 65.0177 42.7334 63.0892 42.126C61.1606 41.5187 59.4525 42.4021 59.3423 42.1813C59.2872 42.0708 59.6178 41.6843 60.3892 41.353C61.1055 41.0217 62.3178 40.8561 63.4749 41.2426C64.632 41.6291 65.4034 42.4573 65.734 43.1199C66.1197 43.8377 66.0646 44.3347 65.9544 44.3347Z" fill="#263238"/>
<path d="M46.559 27.6593C46.5039 27.1624 48.0468 26.555 49.6998 25.3954C51.3528 24.2911 52.4548 22.9659 52.8956 23.242C53.1161 23.3524 53.0609 23.8494 52.7303 24.5672C52.3997 25.285 51.6834 26.1132 50.7467 26.8311C49.7549 27.4937 48.708 27.8802 47.9366 27.9906C47.055 27.9906 46.559 27.8802 46.559 27.6593Z" fill="#263238"/>
<path d="M60.665 19.7082C60.7752 19.2112 61.9324 19.0456 63.1997 18.4382C64.467 17.8308 65.3486 17.0025 65.7894 17.2234C66.0098 17.3338 66.0098 17.7756 65.7343 18.3277C65.4588 18.8799 64.8527 19.5425 63.9711 19.9842C63.0895 20.426 62.2079 20.4812 61.6018 20.3708C60.9956 20.2051 60.665 19.929 60.665 19.7082Z" fill="#263238"/>
<path d="M49.9203 67.2496C49.1489 65.9797 48.2673 64.6545 48.0469 63.1636C47.8265 61.6728 48.2673 60.1819 48.2122 58.6911C48.0469 54.9363 44.7408 52.1755 41.9307 49.6356C39.1205 47.0956 36.4206 43.3961 37.743 39.8622C39.0103 36.4388 43.5837 35.0584 44.6857 31.5798C45.5674 28.7085 43.8041 25.5612 44.6306 22.6899C45.5122 19.4321 49.2591 17.8861 51.4632 15.3461C54.2182 12.1435 56.2018 7.0084 53.6121 3.64019L51.8489 3.19846C50.7468 1.37632 48.2122 0.824152 46.1735 1.48675C44.1347 2.14935 42.5368 3.69541 41.1593 5.35191C39.7818 6.95319 38.4593 8.72011 36.6961 9.87966C33.6656 11.9227 29.2024 12.5301 27.88 15.8983C26.7779 18.7143 28.4861 22.2482 26.833 24.8433C25.5106 26.8864 22.5903 27.3281 20.9923 29.2054C19.7801 30.6411 19.6148 32.7393 20.0556 34.5615C20.4964 36.3836 21.5433 37.9849 22.5352 39.5862C18.1271 41.2427 13.5537 43.0648 10.4681 46.6539C7.38241 50.1877 6.39059 56.0959 9.58644 59.5193C11.0191 61.0654 13.3333 62.6667 12.5619 64.6545C12.2864 65.4275 11.5701 65.8692 10.964 66.4214C6.8865 69.7344 5.06817 75.5873 6.50079 80.612C7.93342 85.6367 12.5068 89.6676 17.6863 90.3854C22.8658 91.1032 28.3759 88.4528 31.0758 83.9802C30.5248 86.4098 32.3982 88.9497 34.7125 89.8332C37.0267 90.7719 39.6716 90.4406 42.096 89.9436C44.851 89.3363 47.7163 88.4528 49.755 86.5202C52.2897 84.1459 53.3917 80.5016 53.1713 77.023C53.1162 73.4891 51.7387 70.2313 49.9203 67.2496Z" fill="#263238"/>
<path d="M53.6671 8.66486C54.714 11.0392 52.1243 16.2295 50.1958 17.9964C48.2672 19.7634 45.953 21.3647 45.1816 23.7942C43.9693 27.5489 46.9448 31.8006 45.6224 35.5001C44.6857 38.1505 41.8204 40.0831 41.9306 42.8991C42.0959 46.2673 46.5591 47.8134 47.7713 51.0159C48.8182 53.7215 48.0468 56.3719 49.0386 59.0776C49.6447 60.7893 51.0774 62.501 52.2345 63.8262C54.8242 66.7526 56.6977 70.7282 56.0364 74.7038C55.0997 80.2807 52.9508 85.0293 49.4794 86.7962L37.798 71.2252L36.8613 46.3778L36.145 33.954L40.6633 30.641L42.3714 18.383L53.6671 8.66486Z" fill="#263238"/>
<path d="M25.8412 56.8137L9.917 108.11C9.917 108.11 2.97428 137.872 18.7882 137.264C34.6022 136.602 32.0125 128.485 32.0125 128.485L32.1778 67.2496C32.1778 67.2496 35.0981 62.0593 35.043 58.1389C35.043 53.7216 36.0899 41.0218 36.0899 41.0218C36.0899 41.0218 40.0572 29.5367 38.6797 28.9846C36.0348 27.9907 31.5717 40.6905 31.5717 40.6905C31.5717 40.6905 32.839 43.0648 30.69 49.5803C28.5411 56.1511 25.8412 56.8137 25.8412 56.8137Z" fill="#FFBE9D"/>
<path d="M51.8489 3.64014C51.8489 3.64014 51.904 3.69535 51.9591 3.80579C52.0693 3.91622 52.1795 4.08187 52.2897 4.30274C52.5101 4.79969 52.7856 5.5175 52.8958 6.56661C53.006 7.56051 53.006 8.83049 52.7305 10.2661C52.3999 11.7018 51.4081 13.0822 50.1408 14.4074C48.8734 15.7326 47.2755 16.8921 45.898 18.4934C45.1817 19.2664 44.5756 20.2051 44.1348 21.199C43.694 22.2481 43.3633 23.3524 42.8674 24.4568C42.5919 25.0089 42.2613 25.5611 41.8756 26.0028C41.4899 26.4998 40.9389 26.8863 40.3879 27.2176C39.2859 27.8802 38.1288 28.3219 37.0818 29.095C34.988 30.5858 33.6105 33.0153 32.8942 35.6657C32.1779 38.3161 32.0677 41.0217 31.8473 43.6169C31.682 46.2121 31.4064 48.7521 30.635 51.0159C29.8085 53.2798 28.5412 55.2676 26.8331 56.5928C26.0066 57.2554 25.0147 57.6971 24.078 57.9732C23.0862 58.2493 22.1495 58.2493 21.2679 58.3045C20.3863 58.3597 19.5046 58.3597 18.7332 58.5806C17.9618 58.7462 17.2455 59.0775 16.6945 59.5193C16.1435 59.961 15.8129 60.5684 15.6476 61.1206C15.4823 61.7279 15.4272 62.2801 15.317 62.7771C15.0966 63.771 14.4905 64.4335 14.0497 64.6544C13.8293 64.7648 13.6089 64.8201 13.4435 64.8201C13.3333 64.8201 13.2231 64.8201 13.2231 64.8201C13.2231 64.7648 13.4986 64.8753 13.9946 64.6544C14.4354 64.4335 14.9864 63.771 15.2068 62.7771C15.317 62.2801 15.3721 61.7279 15.5374 61.1206C15.7027 60.5132 16.0333 59.9058 16.6394 59.4088C17.1904 58.9119 17.9067 58.5806 18.7332 58.4149C19.5046 58.1941 20.3863 58.1389 21.323 58.1389C22.2046 58.0836 23.1413 58.0836 24.078 57.8076C25.0147 57.5867 25.9515 57.0897 26.778 56.4824C28.431 55.2124 29.6983 53.2246 30.4697 51.0159C31.2411 48.7521 31.5166 46.2673 31.682 43.6721C31.8473 41.077 31.9575 38.3713 32.7289 35.6657C33.1146 34.3405 33.6105 33.0706 34.3268 31.911C35.0431 30.7515 35.9247 29.7023 37.0267 28.9845C38.1288 28.2115 39.341 27.7698 40.3879 27.1072C40.9389 26.7759 41.3797 26.4446 41.7654 25.9476C42.1511 25.5059 42.4817 25.0089 42.7021 24.4568C43.198 23.4077 43.5287 22.2481 43.9695 21.199C44.4103 20.1499 45.0715 19.2112 45.7878 18.4382C47.2204 16.8369 48.8183 15.6773 50.0857 14.3521C50.6918 13.6895 51.2979 13.0822 51.7387 12.3644C52.1795 11.7018 52.5101 10.9839 52.6754 10.3213C53.006 8.94093 53.006 7.67094 52.8958 6.67705C52.7856 5.68315 52.5652 4.91012 52.3448 4.46838C52.0693 3.861 51.8489 3.69535 51.8489 3.64014Z" fill="#455A64"/>
<path d="M51.8486 3.64014C51.8486 3.64014 51.9037 3.69536 51.9037 3.75057C51.9588 3.86101 52.0139 3.97144 52.069 4.08187C52.1792 4.41317 52.2894 4.91012 52.1241 5.5175C51.7935 6.78748 50.4711 8.22311 48.7629 9.65874C47.9364 10.3766 46.9997 11.26 45.8977 12.0331C44.8508 12.8613 43.6936 13.6895 42.7569 14.8491C42.261 15.4013 41.8753 16.0639 41.5998 16.7817C41.3243 17.4995 41.1039 18.2725 40.9386 19.0456C40.7733 19.8186 40.608 20.6468 40.2223 21.4751C39.8917 22.2481 39.3407 22.9659 38.6244 23.5181C37.9632 24.0703 37.1366 24.512 36.3652 24.8433C35.5938 25.1746 34.8224 25.4507 34.051 25.7268C33.2796 26.0028 32.5082 26.2789 31.847 26.6102C31.1306 26.9415 30.4694 27.328 29.9184 27.7698C28.7613 28.7084 28.1552 30.0336 27.7695 31.3036C27.4389 32.5736 27.2185 33.7884 26.943 34.8927C26.392 37.1014 25.0695 38.6474 23.9124 39.1996C23.3614 39.4757 22.8104 39.5861 22.4798 39.5861C22.3145 39.5861 22.2043 39.5861 22.0941 39.5861C21.9839 39.5861 21.9839 39.5861 21.9839 39.5861C21.9839 39.5861 22.1492 39.5861 22.4798 39.5861C22.8104 39.5861 23.3063 39.4757 23.8573 39.1996C24.9593 38.6474 26.2267 37.1014 26.7226 34.8927C26.9981 33.7884 27.1634 32.5736 27.5491 31.2484C27.8797 29.9784 28.5409 28.5428 29.7531 27.6041C30.3592 27.1072 31.0204 26.7206 31.7367 26.3893C32.4531 26.0581 33.2245 25.782 33.9959 25.5059C34.7673 25.2298 35.5387 24.9537 36.3101 24.6224C37.0815 24.2911 37.853 23.9046 38.4591 23.3524C39.1203 22.8003 39.6162 22.1377 39.9468 21.4199C40.2774 20.6468 40.4427 19.8738 40.6631 19.0456C40.8284 18.2725 40.9937 17.4443 41.3243 16.7265C41.6549 16.0086 42.0406 15.346 42.5365 14.7387C43.5283 13.5791 44.6855 12.7509 45.7324 11.9226C46.7793 11.1496 47.716 10.3213 48.5976 9.54831C50.3058 8.11268 51.6282 6.73226 51.9588 5.5175C52.1241 4.91012 52.0139 4.41317 51.9588 4.08187C51.9037 3.97144 51.8486 3.80579 51.7935 3.75057C51.8486 3.69536 51.8486 3.64014 51.8486 3.64014Z" fill="#455A64"/>
<path d="M45.9529 33.7884C45.9529 33.7884 46.008 34.0093 45.9529 34.451C45.8978 34.8927 45.7325 35.5001 45.3468 36.2179C44.9611 36.9357 44.2999 37.7088 43.3632 38.4266C42.4816 39.1444 41.5449 40.1383 40.8285 41.3531C39.3408 43.8378 38.5694 47.4269 39.5612 51.1816C39.6714 51.6233 39.8367 52.1203 40.002 52.562C40.1673 53.0037 40.3877 53.4455 40.6081 53.9424C41.0489 54.8259 41.6 55.7094 42.151 56.5928C43.253 58.3598 44.4101 60.3475 44.6305 62.6114C44.7407 63.7157 44.5754 64.8753 44.0244 65.8692C43.5285 66.8631 42.8122 67.6913 42.0959 68.4644C41.3796 69.2374 40.553 69.9 39.8367 70.6178C39.1204 71.3356 38.4592 72.0534 37.8531 72.7713C36.6409 74.2621 35.7042 75.8634 35.098 77.4095C34.4919 79.0107 34.2164 80.612 34.2715 82.0476C34.3266 83.4833 34.6572 84.7533 35.1531 85.8024C35.6491 86.8515 36.2001 87.6797 36.7511 88.2319C37.8531 89.4467 38.7898 89.7227 38.7347 89.778C38.7347 89.778 38.6796 89.778 38.5694 89.7227C38.4592 89.6675 38.2939 89.6123 38.1286 89.5019C37.9633 89.3914 37.7429 89.2258 37.4674 89.0601C37.247 88.8393 36.9164 88.6184 36.6409 88.3423C36.0899 87.7349 35.4287 86.9619 34.9878 85.8576C34.4919 84.8085 34.1613 83.4833 34.0511 82.0476C33.996 80.5568 34.2164 78.9555 34.8225 77.3542C35.4287 75.753 36.3654 74.1517 37.5776 72.6056C38.1837 71.8326 38.8449 71.1148 39.5612 70.397C40.2775 69.6791 41.0489 69.0165 41.7653 68.2435C42.4816 67.5257 43.1979 66.6974 43.6387 65.7588C44.1346 64.8201 44.2999 63.7157 44.1897 62.6114C44.0795 61.5071 43.7489 60.458 43.3081 59.5193C42.8673 58.5254 42.3163 57.6419 41.7653 56.7585C41.2142 55.875 40.6632 54.9915 40.2224 54.0529C40.002 53.6111 39.7816 53.1694 39.6163 52.6724C39.451 52.2307 39.2857 51.7338 39.1755 51.292C38.2388 47.4821 39.0102 43.7826 40.553 41.2978C41.3244 40.0279 42.2612 39.0892 43.1428 38.3714C44.0244 37.6536 44.7407 36.9357 45.1264 36.2179C45.5121 35.5001 45.7325 34.8927 45.7876 34.5062C45.9529 34.0093 45.8978 33.7884 45.9529 33.7884Z" fill="#455A64"/>
<path d="M38.6246 153.001L87.3889 148.915L45.402 136.602L0.60498 137.761L38.6246 153.001Z" fill="white"/>
<path d="M38.6247 153.001C38.6247 153.001 38.4043 152.946 37.9084 152.725C37.4676 152.559 36.7513 152.283 35.8696 151.952C34.1064 151.234 31.4616 150.24 28.1555 148.915C21.4883 146.265 12.011 142.455 0.494857 137.872L-0.0561523 137.651H0.549958C13.4436 137.319 28.8167 136.933 45.4021 136.491C46.449 136.767 47.551 137.099 48.6531 137.43C62.6487 141.516 75.8729 145.381 87.3339 148.749L87.9951 148.97L87.3339 149.025C72.8424 150.24 60.61 151.234 52.0693 151.952C47.7715 152.283 44.4103 152.559 42.0961 152.78C40.9389 152.891 40.0573 152.946 39.4512 153.001C39.1757 153.001 38.9553 153.056 38.79 153.056C38.6798 153.001 38.6247 153.001 38.6247 153.001C38.6247 153.001 38.6798 153.001 38.8451 152.946C39.0104 152.946 39.2308 152.891 39.5063 152.891C40.1124 152.835 40.994 152.78 42.1512 152.67C44.4654 152.449 47.8265 152.173 52.1244 151.786C60.6651 151.068 72.8424 150.019 87.389 148.749V149.025C75.928 145.657 62.7038 141.792 48.7082 137.706C47.6061 137.375 46.449 137.043 45.4572 136.767H45.5123C28.982 137.209 13.5538 137.54 0.66016 137.872L0.715261 137.651C12.1763 142.289 21.6536 146.099 28.3208 148.749C31.6269 150.074 34.2166 151.124 35.9799 151.841C36.8615 152.228 37.5227 152.504 38.0186 152.67C38.4043 152.891 38.6247 153.001 38.6247 153.001Z" fill="#263238"/>
<path d="M87.3897 148.915L134.281 145.436L89.5386 136.933H47.166L87.3897 148.915Z" fill="#E0E0E0"/>
<path d="M87.389 148.915C87.389 148.915 87.1135 148.86 86.6727 148.694C86.1768 148.528 85.4605 148.363 84.5238 148.087C82.6504 147.534 79.8953 146.706 76.3689 145.712C69.316 143.614 59.2876 140.688 47.1654 137.099L46.3389 136.878H47.1654C59.4529 136.878 73.9444 136.878 89.538 136.878C90.8053 137.099 92.1828 137.375 93.5604 137.651C108.327 140.467 122.268 143.117 134.28 145.381L135.217 145.547L134.225 145.602C120.229 146.596 108.493 147.479 100.283 148.087C96.1501 148.363 92.9542 148.584 90.7502 148.749C89.6482 148.804 88.8217 148.86 88.2156 148.915C87.9401 148.915 87.7197 148.97 87.5543 148.97C87.4441 148.915 87.389 148.915 87.389 148.915C87.389 148.915 87.4441 148.915 87.6095 148.915C87.7748 148.915 87.9952 148.86 88.2707 148.86C88.8768 148.804 89.7033 148.749 90.8053 148.639C93.0093 148.473 96.2603 148.197 100.393 147.921C108.603 147.314 120.339 146.43 134.335 145.381V145.657C122.378 143.393 108.438 140.743 93.6154 137.982C92.2379 137.706 90.8604 137.485 89.5931 137.209C73.9995 137.209 59.4529 137.209 47.2205 137.209L47.2756 136.988C59.3978 140.632 69.4261 143.614 76.424 145.712C79.9504 146.761 82.7055 147.59 84.5789 148.142C85.5156 148.418 86.2319 148.639 86.7278 148.804C87.1135 148.804 87.389 148.915 87.389 148.915Z" fill="#263238"/>
<path d="M87.3886 148.915C87.3886 148.915 88.4906 138.7 96.9211 139.528C105.352 140.356 116.592 146.044 125.794 146.044L135.712 145.271L114.608 140.909C114.608 140.909 62.2075 129.81 62.2075 130.141C62.2075 130.473 44.5752 126.221 45.2364 136.712L87.3886 148.915Z" fill="white"/>
<path d="M87.3888 148.915C87.3888 148.915 87.1133 148.86 86.6174 148.694C86.1215 148.528 85.3501 148.363 84.3583 148.087C82.3746 147.535 79.5094 146.706 75.8176 145.657C68.4341 143.559 57.8547 140.522 45.1264 136.878H45.0713V136.767C45.0162 135.829 45.0713 134.779 45.457 133.841C45.7876 132.902 46.4488 132.074 47.2754 131.411C48.9284 130.197 51.0222 129.7 53.1161 129.534C55.2099 129.368 57.3588 129.479 59.5078 129.7C60.6098 129.81 61.6567 130.031 62.7587 130.031C63.8607 130.197 64.9628 130.417 66.0648 130.638C74.8809 132.35 84.193 134.338 93.8907 136.326C101.384 137.927 108.713 139.418 115.711 140.909C122.709 142.344 129.431 143.725 135.712 145.05L136.594 145.215L135.657 145.271C132.241 145.547 128.935 145.768 125.739 146.044C122.378 145.988 119.182 145.326 116.207 144.553C113.231 143.78 110.476 142.896 107.886 142.068C105.297 141.295 102.817 140.522 100.558 140.025C99.4008 139.749 98.2988 139.583 97.2519 139.473C96.205 139.307 95.1581 139.362 94.2213 139.528C92.2928 139.915 90.8602 141.074 89.9786 142.234C89.0419 143.449 88.5459 144.608 88.1602 145.602C87.8296 146.596 87.6092 147.369 87.499 147.866C87.4439 148.142 87.3888 148.308 87.3888 148.473C87.3888 148.805 87.3888 148.915 87.3888 148.915C87.3888 148.915 87.3888 148.639 87.499 148.087C87.6092 147.535 87.7745 146.761 88.1051 145.768C88.4357 144.774 88.9867 143.559 89.9235 142.344C90.8602 141.129 92.2928 139.97 94.2213 139.528C95.1581 139.307 96.2601 139.307 97.307 139.418C98.409 139.528 99.511 139.749 100.668 139.97C102.982 140.467 105.407 141.185 108.052 141.958C110.641 142.731 113.452 143.614 116.372 144.387C119.347 145.16 122.488 145.768 125.849 145.823C128.99 145.547 132.296 145.326 135.767 145.05V145.326C129.486 144.056 122.764 142.675 115.766 141.185C108.768 139.694 101.44 138.203 93.9458 136.602C84.2481 134.559 74.936 132.626 66.1199 130.859C65.0179 130.638 63.9158 130.417 62.8138 130.252L62.4281 130.197H62.3179C62.3179 130.141 62.3179 130.086 62.3179 130.086C62.2628 130.031 62.5383 130.086 62.4281 130.141C62.4281 130.197 62.373 130.197 62.3179 130.197H62.2628C62.1526 130.197 62.0975 130.197 62.0424 130.197C61.7669 130.197 61.4914 130.141 61.2159 130.086C60.6649 130.031 60.1139 129.976 59.618 129.865C57.469 129.644 55.3201 129.479 53.2814 129.644C51.2426 129.81 49.1488 130.252 47.5509 131.467C46.7794 132.074 46.1733 132.847 45.8427 133.786C45.5121 134.669 45.4019 135.663 45.457 136.602L45.3468 136.491C58.02 140.191 68.5443 143.228 75.9278 145.381C79.6196 146.43 82.4848 147.314 84.4685 147.866C85.4603 148.142 86.2317 148.363 86.7276 148.528C87.1133 148.805 87.3888 148.915 87.3888 148.915Z" fill="#263238"/>
<path d="M53.0614 142.786H28.3762C28.1007 142.786 27.8252 142.565 27.8252 142.234V141.019C27.8252 140.743 28.0456 140.467 28.3762 140.467H53.0614C53.3369 140.467 53.6124 140.688 53.6124 141.019V142.234C53.6124 142.565 53.392 142.786 53.0614 142.786Z" fill="#263238"/>
<path d="M28.2659 142.234H26.5026C26.3924 142.234 26.2822 142.123 26.2822 142.013V141.461C26.2822 141.35 26.3924 141.24 26.5026 141.24H28.2659C28.3761 141.24 28.4863 141.35 28.4863 141.461V142.013C28.4863 142.123 28.3761 142.234 28.2659 142.234Z" fill="#263238"/>
<path d="M52.6758 140.522L55.7614 141.295V141.626L52.6758 142.786V140.522Z" fill="#263238"/>
<path d="M27.8251 141.682C27.77 141.682 27.77 141.626 27.77 141.626V141.35C27.77 140.522 28.5414 139.859 29.5332 139.859H37.4678C37.5229 139.859 37.5229 139.915 37.5229 139.915C37.5229 139.97 37.4678 139.97 37.4678 139.97H29.5332C28.6516 139.97 27.8802 140.577 27.8802 141.35V141.626C27.9353 141.682 27.8802 141.682 27.8251 141.682Z" fill="#263238"/>
<path d="M39.6719 149.633C40.5535 149.633 71.9059 147.148 71.9059 147.148L39.6719 149.633Z" fill="white"/>
<path d="M71.9053 147.148C71.9053 147.148 71.7951 147.203 71.5747 147.203C71.3543 147.203 71.0237 147.258 70.638 147.314C69.8115 147.369 68.5993 147.479 67.1667 147.645C64.1912 147.866 60.2239 148.197 55.7608 148.584C51.2976 148.915 47.3303 149.191 44.3549 149.412C42.9223 149.522 41.7651 149.577 40.8835 149.633C40.4978 149.633 40.1672 149.688 39.9468 149.688C39.7264 149.688 39.6162 149.688 39.6162 149.688C39.6162 149.688 39.7264 149.633 39.9468 149.633C40.1672 149.633 40.4978 149.577 40.8835 149.522C41.71 149.467 42.9223 149.357 44.3549 149.191C47.3303 148.97 51.2976 148.639 55.7608 148.252C60.1688 147.921 64.1912 147.645 67.1667 147.424C68.5993 147.314 69.7564 147.258 70.638 147.203C71.0237 147.203 71.3543 147.148 71.5747 147.148C71.74 147.148 71.9053 147.148 71.9053 147.148Z" fill="#263238"/>
<path d="M34.4927 147.479C35.3743 147.479 66.7267 144.995 66.7267 144.995L34.4927 147.479Z" fill="white"/>
<path d="M66.7261 144.995C66.7261 144.995 66.6159 145.05 66.3955 145.05C66.1751 145.05 65.8445 145.105 65.4588 145.16C64.6323 145.215 63.4201 145.326 61.9875 145.492C59.012 145.712 55.0448 146.044 50.5816 146.43C46.1184 146.761 42.1511 147.038 39.1757 147.258C37.7431 147.369 36.5859 147.424 35.7043 147.479C35.3186 147.479 34.988 147.535 34.7676 147.535C34.5472 147.535 34.437 147.535 34.437 147.535C34.437 147.535 34.5472 147.479 34.7676 147.479C34.988 147.479 35.3186 147.424 35.7043 147.369C36.5308 147.314 37.7431 147.203 39.1757 147.038C42.1511 146.817 46.1184 146.485 50.5816 146.099C54.9897 145.768 59.012 145.492 61.9875 145.271C63.4201 145.16 64.5772 145.105 65.4588 145.05C65.8445 145.05 66.1751 144.995 66.3955 144.995C66.6159 144.995 66.7261 144.995 66.7261 144.995Z" fill="#263238"/>
<path d="M132.792 118.822L101.054 124.067C101.054 124.067 84.4685 120.92 82.3196 121.251C78.187 121.969 68.2138 131.025 68.2138 131.025C67.5526 135.276 73.3382 132.847 73.3382 132.847C73.3382 132.847 73.3933 133.786 74.9912 134.614C76.3687 135.332 79.1789 134.006 79.1789 134.006C79.1789 134.006 78.4625 134.945 80.6666 135.884C82.8706 136.822 85.8461 135.166 85.8461 135.166C85.8461 135.166 86.342 136.878 88.6011 136.878C90.7501 136.878 96.205 135.166 96.205 135.166C103.589 139.252 107.886 135.994 107.886 135.994L133.508 138.203L155.879 137.043C155.879 137.043 161.059 126.663 151.086 114.902L132.792 118.822Z" fill="#FFBE9D"/>
<path d="M89.5927 125.503C89.5927 125.503 89.3172 125.558 88.8764 125.558C88.3254 125.558 87.6642 125.614 86.8377 125.614C85.9561 125.614 84.9643 125.669 83.8622 125.669C83.3112 125.669 82.7051 125.614 82.1541 125.834C81.8786 125.945 81.6031 126.055 81.3827 126.276C81.1623 126.497 80.8868 126.663 80.6664 126.884C78.6828 128.54 76.8644 130.031 75.542 131.135C74.9359 131.632 74.3849 132.074 73.9992 132.405C73.6135 132.681 73.3931 132.847 73.3931 132.847C73.3931 132.847 73.5584 132.626 73.9441 132.35C74.3298 132.019 74.8257 131.577 75.4318 131.025C76.6991 129.92 78.5175 128.374 80.5011 126.718C80.7766 126.497 80.997 126.276 81.2174 126.11C81.4929 125.89 81.7684 125.724 82.099 125.614C82.4296 125.503 82.7051 125.448 83.0357 125.448C83.3112 125.448 83.6418 125.448 83.9173 125.448C85.0194 125.448 86.0112 125.448 86.8928 125.448C87.7193 125.448 88.3805 125.448 88.9315 125.448C89.3172 125.448 89.5927 125.503 89.5927 125.503Z" fill="#FFBE9D"/>
<path d="M91.6861 128.43C91.6861 128.43 91.5208 128.485 91.1902 128.54C90.8596 128.595 90.4188 128.65 89.8127 128.761C88.6556 128.927 87.0026 129.147 85.1842 129.368L85.2393 129.313C85.1291 129.423 84.9638 129.534 84.8536 129.644C83.3108 130.859 81.9333 131.963 80.8864 132.736C80.3904 133.123 79.9496 133.454 79.6741 133.675C79.3986 133.896 79.2333 134.006 79.1782 133.951C79.1782 133.951 79.2884 133.786 79.5639 133.565C79.8394 133.344 80.2251 133.013 80.7211 132.571C81.7129 131.743 83.0904 130.638 84.6332 129.423C84.7434 129.313 84.9087 129.203 85.0189 129.092H85.074H85.1291C86.9475 128.871 88.6005 128.65 89.7576 128.54C90.3637 128.485 90.8045 128.43 91.1351 128.43C91.4657 128.43 91.6861 128.43 91.6861 128.43Z" fill="#FFBE9D"/>
<path d="M96.5905 131.743C96.5905 131.798 95.9293 131.853 94.9375 132.019C93.8906 132.129 92.458 132.295 90.9151 132.405H90.9702C89.5927 133.233 88.3254 133.951 87.4438 134.448C86.5071 134.945 85.9561 135.276 85.9561 135.221C85.9561 135.166 86.452 134.835 87.3336 134.282C88.2152 133.73 89.4274 132.957 90.8049 132.184H90.86H90.9151C92.5131 132.019 93.9457 131.908 94.9926 131.853C95.9293 131.743 96.5905 131.687 96.5905 131.743Z" fill="#FFBE9D"/>
</svg>
