<svg width="260" height="175" viewBox="0 0 260 175" fill="none" xmlns="http://www.w3.org/2000/svg">
<g clip-path="url(#clip0)">
<path d="M41.7001 61.3C39.3001 59 35.1001 61 33.1001 63.7C31.1001 66.4 29.6001 69.8 26.5001 71.2C23.4001 72.6 19.4001 71.4 16.8001 73.5C13.2001 76.5 15.2001 83.3 11.4001 85.9C9.90006 86.9 7.80006 86.9 6.20006 87.7C2.30006 89.7 2.40006 95.1 3.00006 99.4C3.80006 105.4 4.80006 111.7 8.10006 116.8C11.4001 121.9 17.9001 125.5 23.7001 123.5C29.2001 121.6 32.1001 115.6 34.3001 110.2C37.4001 102.7 40.5001 95.2 43.7001 87.8C45.5001 83.5 47.3001 79.1 47.9001 74.4C48.5001 69.7 47.7001 64.7 44.7001 61.1" fill="#263238"/>
<path d="M35.2004 17.1C35.1004 14.6 37.4004 12.7 39.7004 11.8C42.0004 10.9 44.6004 10.6 46.6004 9.2C48.4004 8 49.6004 6.1 51.2004 4.5C55.0004 0.699998 60.9004 -0.900002 66.1004 0.499998C71.3004 1.9 75.6004 6.3 76.9004 11.5C77.8004 15 77.2004 19.2 74.4004 21.5C71.2004 24.2 66.4004 23.6 62.3004 22.8C58.2004 22 53.5004 21.1 50.0004 23.5C47.9004 25 46.7004 27.3 45.5004 29.5C44.2004 31.7 42.6004 34 40.2004 34.8C37.8004 35.6 34.5004 34.2 34.4004 31.7" fill="#263238"/>
<path d="M35.3002 18.5C35.6002 20.6 34.1002 22.4 32.6002 23.9C31.1002 25.4 29.4002 26.9 29.2002 29C28.9002 31.4 30.7002 33.8 30.1002 36.2C29.8002 37.7 28.6002 38.9 27.9002 40.3C26.9002 42.2 26.8002 44.6 27.5002 46.7C28.1002 48.8 29.1002 53.5 30.6002 55.1C34.6002 59.6 41.0002 63.5 46.9002 64.8C52.8002 66.1 58.9002 66.2 64.9002 65.8C69.8002 65.5 75.5002 65.7 79.6002 58.9C81.7002 55.4 82.8002 50.7 83.9002 46.8C84.9002 43.4 85.7002 39.8 84.7002 36.4C84.1002 34.4 82.9002 32.7 82.3002 30.7C81.6002 28.2 81.8002 25.6 81.5002 23C80.9002 17.5 77.4002 12.3 72.6002 9.59997C67.7002 6.89997 61.6002 6.69997 56.5002 9.09997" fill="#263238"/>
<path d="M79.1002 27C78.6002 19.9 73.9002 11.3 66.9002 12L44.9002 17.6C42.8002 17.8 41.2002 19.6999 41.2002 21.7999L43.7002 74.8C43.6002 74.8 43.6002 74.8 43.5002 74.8C43.5002 74.8 48.5002 89.7999 63.0002 85.2C65.9002 84.2999 67.2002 81.1 67.8002 77.9H67.9002C67.9002 77.5 67.9002 77.2 67.9002 76.8C68.4002 73.1 68.0002 69.5 68.0002 69.5C68.0002 65.2 68.0002 63.5 68.0002 63.5C68.0002 63.5 77.0002 62 78.9002 50.2C79.9002 44.5 79.6002 34.9 79.1002 27Z" fill="#FFBE9D"/>
<path d="M78.0004 34.1C78.0004 34.9 77.4004 35.6 76.5004 35.6C75.7004 35.6 75.0004 35 74.9004 34.2C74.9004 33.4 75.5004 32.7 76.4004 32.7C77.2004 32.7 77.9004 33.3 78.0004 34.1Z" fill="#263238"/>
<path d="M77.0006 32C76.8006 32.2 75.7006 31.4 74.0006 31.4C72.4006 31.4 71.2006 32.2 71.0006 32C70.9006 31.9 71.1006 31.6 71.6006 31.2C72.1006 30.8 73.0006 30.5 74.0006 30.5C75.0006 30.5 75.9006 30.9 76.4006 31.3C77.0006 31.6 77.1006 31.9 77.0006 32Z" fill="#263238"/>
<path d="M61.5004 34.6C61.5004 35.4 60.9004 36.1 60.0004 36.1C59.2004 36.1 58.5004 35.5 58.4004 34.7C58.4004 33.9 59.0004 33.2 59.9004 33.2C60.8004 33.2 61.5004 33.8 61.5004 34.6Z" fill="#263238"/>
<path d="M61.1002 32.3C60.9002 32.5 59.8002 31.7 58.1002 31.7C56.5002 31.7 55.3002 32.5 55.1002 32.3C55.0002 32.2 55.2002 31.9 55.7002 31.5C56.2002 31.1 57.1002 30.8 58.1002 30.8C59.1002 30.8 60.0002 31.2 60.5002 31.6C61.0002 31.9 61.1002 32.3 61.1002 32.3Z" fill="#263238"/>
<path d="M67 44.4C67 44.3 68 44.1 69.6 43.9C70 43.9 70.4 43.8 70.5 43.5C70.6 43.2 70.4 42.8 70.2 42.3C69.8 41.3 69.4 40.2 69 39.1C67.3 34.6 66 30.9 66.2 30.8C66.4 30.7 67.9 34.3 69.6 38.8C70 39.9 70.4 41 70.8 42C71 42.5 71.2 43 71 43.6C70.9 43.9 70.6 44.1 70.3 44.2C70 44.3 69.8 44.3 69.6 44.3C68 44.5 67 44.5 67 44.4Z" fill="#263238"/>
<path d="M68.2004 63.6C68.2004 63.6 60.3004 64.1 52.4004 59.4C52.4004 59.4 56.2004 67.5 68.0004 66.4L68.2004 63.6Z" fill="#EB996E"/>
<path d="M66.3005 48.3C65.7005 47.5 64.7005 47.1 63.7005 47.2C63.0005 47.3 62.3005 47.6 61.9005 48.2C61.5005 48.8 61.4005 49.6 61.8005 50.1C62.2005 50.7 63.2005 50.9 63.9005 50.6C64.7005 50.4 65.3005 49.9 66.0005 49.4C66.2005 49.3 66.4005 49.1 66.5005 48.9C66.5005 48.8 66.5005 48.5 66.3005 48.3Z" fill="#EB996E"/>
<path d="M62.1999 45.5C62.4999 45.5 62.4999 47.2 63.9999 48.5C65.4999 49.8 67.3999 49.6 67.3999 49.8C67.3999 49.9 66.9999 50.1 66.1999 50.2C65.3999 50.2 64.2999 50 63.3999 49.2C62.4999 48.4 62.0999 47.4 61.9999 46.7C61.8999 46 62.0999 45.5 62.1999 45.5Z" fill="#263238"/>
<path d="M61.8008 29.5C61.6008 29.9 60.0008 29.7 58.1008 30C56.2008 30.2 54.7008 30.8 54.4008 30.4C54.3008 30.2 54.6008 29.8 55.2008 29.4C55.8008 29 56.8008 28.6 57.9008 28.4C59.0008 28.3 60.1008 28.5 60.8008 28.7C61.5008 28.9 61.9008 29.3 61.8008 29.5Z" fill="#263238"/>
<path d="M76.4004 27.3C76.1004 27.7 75.0004 27.3 73.6004 27.3C72.3004 27.2 71.1004 27.6 70.8004 27.2C70.7004 27 70.9004 26.6 71.4004 26.3C71.9004 26 72.7004 25.7 73.6004 25.7C74.5004 25.7 75.3004 26.1 75.8004 26.4C76.4004 26.7 76.6004 27.1 76.4004 27.3Z" fill="#263238"/>
<path d="M36.7002 56.4C39.9002 57.1 43.5002 56.1 45.9002 53.8C48.3002 51.5 49.6002 48.1 49.2002 44.8C48.8002 41.9 47.3002 39 48.3002 36.2C49.6002 32.6 54.7002 31.5 56.0002 27.9C56.8002 25.8 56.1002 23.3 57.0002 21.3C57.8002 19.4 59.9002 18.3 61.9002 17.5C63.9002 16.8 66.0002 16.3 67.7002 15C69.4002 13.7 70.4002 11.3 69.3002 9.5C60.5002 10.6 51.8002 12.7 43.6002 15.8C41.7002 16.5 39.7002 17.4 38.5002 19.1C37.3002 20.9 37.4002 23.2 37.5002 25.4C38.0002 36 38.5002 46.6 39.0002 57.1" fill="#263238"/>
<path d="M37.4001 60.5C37.4001 60.5 37.3001 60.5 37.2001 60.4C37.1001 60.3 36.9001 60.2 36.7001 60C36.2001 59.6 35.6001 59.1 34.7001 58.4C34.0001 57.6 33.0001 56.7 32.0001 55.4C31.1001 54.2 30.1001 52.5 29.8001 50.6C29.4001 48.7 29.7001 46.2 31.3001 44.4C32.1001 43.5 33.1001 42.8 34.0001 42.1C34.9001 41.3 35.7001 40.4 36.1001 39.2C37.0001 36.8 36.6001 34 36.9001 31.2C37.3001 28.4 38.3001 25.5 40.2001 23.1C41.2001 21.9 42.3001 20.9 43.7001 20.2C45.0001 19.5 46.5001 19.2 47.8001 18.8C49.2001 18.4 50.4001 17.9 51.4001 17C52.4001 16.2 53.3001 15.2 54.0001 14.1C55.5001 12 56.6001 9.79997 58.0001 7.89997C58.7001 6.99997 59.5001 6.09997 60.3001 5.39997C61.2001 4.69997 62.1001 4.19997 63.1001 3.89997C65.0001 3.29997 67.0001 3.49997 68.3001 4.39997C69.6001 5.39997 70.1001 6.79997 70.2001 7.89997C70.3001 8.99997 69.9001 9.89997 69.5001 10.3C69.3001 10.5 69.1001 10.7 69.0001 10.8C68.9001 10.9 68.8001 10.9 68.8001 10.9C68.8001 10.9 68.8001 10.8 69.0001 10.7C69.1001 10.6 69.3001 10.4 69.4001 10.2C69.7001 9.79997 70.1001 8.89997 70.0001 7.89997C69.9001 6.89997 69.4001 5.49997 68.2001 4.59997C67.0001 3.69997 65.1001 3.49997 63.3001 4.19997C62.4001 4.49997 61.5001 4.99997 60.7001 5.69997C59.9001 6.39997 59.2001 7.19998 58.5001 8.09998C57.1001 9.89997 56.1001 12.2 54.6001 14.3C53.8001 15.4 53.0001 16.4 51.9001 17.3C50.8001 18.2 49.5001 18.8 48.1001 19.2C46.7001 19.6 45.3001 19.9 44.1001 20.6C42.8001 21.2 41.7001 22.2 40.8001 23.3C38.9001 25.6 37.9001 28.4 37.6001 31.2C37.3001 33.9 37.7001 36.8 36.7001 39.3C36.3001 40.6 35.4001 41.6 34.4001 42.4C33.4001 43.2 32.4001 43.8 31.7001 44.7C30.2001 46.4 29.9001 48.7 30.2001 50.6C30.5001 52.5 31.4001 54.1 32.3001 55.3C33.2001 56.5 34.2001 57.5 35.0001 58.2C35.8001 58.9 36.4001 59.5 36.9001 59.9C37.2001 60.2 37.5001 60.4 37.4001 60.5Z" fill="#455A64"/>
<path d="M110.5 142.4L127.8 109.4L119.3 100.2L97.4004 121.3L103.5 138.2L110.5 142.4Z" fill="#85BC91"/>
<path d="M70.6006 79C77.8006 81.6 83.7006 87 87.0006 94L109.401 141.6L128.701 149.4L111.701 154.3L96.6006 143.2L70.6006 79Z" fill="#85BC91"/>
<path d="M111.7 154.3L103.6 160.6L63.0004 118.9L39.9004 77L42.6004 69.2L60.5004 76.7L65.7004 83.2L68.4004 74.1L69.5004 75.7L71.4004 80.8C71.4004 80.8 89.0004 95.4 92.8004 107C96.0004 116.7 95.0004 136.7 96.9004 142.1L111.7 154.3Z" fill="#FAFAFA"/>
<path d="M35.5004 76.5C35.2004 77.3 18.2004 84.2 17.4004 90.1C16.6004 96 29.7004 142.2 29.7004 142.2L50.4004 160.5H103.6L86.7004 128.9C83.1004 122.1 78.5004 115.8 73.0004 110.3C68.0004 105.2 62.0004 99 58.9004 95.2C55.5004 91.2 41.2004 72.2 41.2004 72.2L35.5004 76.5Z" fill="#85BC91"/>
<path d="M46.2002 78.4C46.2002 78.3 47.4002 78.9 49.2002 79.8C51.0002 80.7 53.5002 82 56.3002 83.4C57.4002 84 58.5002 84.5 59.4002 85L59.0002 85.2C58.9002 82.9 59.1002 81 59.3002 79.6C59.6002 78.2 59.8002 77.5 59.9002 77.5C60.0002 77.5 59.8002 78.3 59.6002 79.7C59.4002 81 59.3002 83 59.5002 85.2V85.6L59.1002 85.4C58.1002 84.9 57.1002 84.4 56.0002 83.8C53.2002 82.4 50.8002 81.1 49.0002 80.1C47.3002 79.1 46.2002 78.4 46.2002 78.4Z" fill="#263238"/>
<path d="M70.8005 80.9C70.9005 80.9 70.5005 81.6 69.8005 82.5L69.6005 82.8L69.5005 82.4C69.2005 81.3 68.7005 79.7 68.3005 77.9C68.3005 77.8 68.2005 77.6 68.2005 77.5L68.7005 77.6C67.1005 80.6 66.1005 83.2 66.0005 83.1C65.9005 83.1 66.6005 80.4 68.3005 77.4L68.6005 76.8L68.8005 77.5C68.8005 77.6 68.9005 77.8 68.9005 77.9C69.3005 79.7 69.7005 81.3 70.0005 82.4L69.7005 82.3C70.3005 81.3 70.8005 80.8 70.8005 80.9Z" fill="#263238"/>
<path d="M87.2008 120.5C87.2008 120.5 86.9008 120 86.3008 119.1C85.7008 118.1 85.0008 116.9 84.1008 115.3C82.3008 112.1 79.7008 107.7 76.9008 102.9C74.0008 98.1 71.4008 93.8 69.4008 90.7C68.5008 89.2 67.7008 88 67.1008 87C66.6008 86.1 66.3008 85.6 66.3008 85.6C66.3008 85.6 66.7008 86 67.3008 86.9C67.9008 87.7 68.7008 89 69.7008 90.5C71.7008 93.6 74.4008 97.9 77.3008 102.7C80.2008 107.5 82.7008 111.9 84.4008 115.2C85.3008 116.8 86.0008 118.1 86.4008 119C87.0008 119.9 87.3008 120.4 87.2008 120.5Z" fill="#263238"/>
<g opacity="0.3">
<path opacity="0.3" d="M79.0004 152.6C82.1004 153.1 85.3004 153.6 88.3004 153.1C91.4004 152.5 94.4004 150.6 95.4004 147.6C95.7004 146.7 95.8004 145.6 96.6004 144.9C97.8004 143.8 99.7004 144.5 101.3 144.3C103.1 144.1 104.6 142.8 105.6 141.3C106.5 139.8 107 138 107.4 136.2C107.6 135.3 107.8 134.4 107.7 133.6C107.6 132.7 107.1 131.8 106.3 131.4C105.1 130.9 103.7 131.6 102.6 132.4C93.8004 138.7 85.8004 146 77.9004 153.3" fill="black"/>
</g>
<path d="M121 126.9L146.7 67.5C146.7 67.5 131.8 86.2 124 86C124 86 115.4 105 109.8 120.1L101.3 141.9L121 126.9Z" fill="white"/>
<path d="M121 126.9C121 126.9 120.9 127 120.7 127.2C120.5 127.4 120.1 127.7 119.7 128C118.8 128.7 117.5 129.7 115.8 131C112.4 133.6 107.5 137.4 101.5 142.1L101 142.5L101.2 141.9C103.9 134.7 107.2 126.2 110.9 116.7C114.6 107.2 118.9 96.8 123.8 86L123.9 85.8H124.1C125.5 85.8 127.1 85.2 128.5 84.5C132.3 82.4 135.5 79.4 138.5 76.5C141.5 73.5 144.2 70.5 146.7 67.5L147.8 66.1L147.1 67.8C139.6 85 133.2 99.8 128.6 110.4C126.3 115.6 124.5 119.8 123.2 122.7C122.6 124.1 122.1 125.2 121.7 126C121.5 126.4 121.4 126.6 121.3 126.8C121 126.8 121 126.9 121 126.9C121 126.9 121 126.8 121.1 126.6C121.2 126.4 121.3 126.1 121.5 125.7C121.8 124.9 122.3 123.8 122.9 122.4C124.1 119.5 125.9 115.3 128.2 110C132.8 99.4 139.1 84.6 146.5 67.4L146.9 67.7C144.4 70.8 141.7 73.8 138.7 76.8C135.7 79.7 132.5 82.7 128.6 84.9C127.2 85.7 125.6 86.3 124 86.3L124.2 86.1C119.4 96.9 115 107.3 111.3 116.8C107.7 126.3 104.3 134.8 101.5 142L101.2 141.8C107.3 137.2 112.2 133.4 115.6 130.9C117.3 129.6 118.6 128.6 119.5 127.9C119.9 127.6 120.3 127.3 120.5 127.1C120.9 126.9 121 126.9 121 126.9Z" fill="#263238"/>
<path d="M99.5002 116.2C99.5002 116.2 102.8 108.7 104.5 107.7C106.2 106.7 116.9 101.8 116.9 101.8L115.8 104.2L126.4 97.9C126.4 97.9 127.2 100.1 125.6 102.4C123.9 104.7 124.5 104.5 124.5 104.5C124.5 104.5 126.3 105.6 125.4 107.2C124.5 108.8 123 110.8 123 110.8C123 110.8 124.6 112.8 124 114.7C124 114.7 124.6 116.3 124.2 118.6C123.8 120.9 119.7 125.2 119.7 125.2L99.0002 134.8L90.7002 120.7L99.5002 116.2Z" fill="#FFBE9D"/>
<path d="M54.0999 104.2L66.3999 130.5L93.7999 118.6C93.7999 118.6 105.2 125.2 103.6 132.5L78.9999 152.7C74.2999 156.5 68.2999 158.3 62.2999 157.6C55.8999 156.8 50.0999 153.2 46.4999 147.8L28.6999 120.6L18.6999 104.3C15.4999 99.1 15.4999 92.4 19.0999 87.4C20.0999 86.1 21.2999 84.9 22.5999 84.1C26.9999 81.5 40.2999 80.3 54.0999 104.2Z" fill="#85BC91"/>
<path d="M104.1 132.6C104.1 132.6 104.2 132.5 104.4 132.4C104.6 132.3 104.9 132.1 105.2 132C105.9 131.6 107 131.1 108.3 130.4C111 129 114.9 127.1 119.6 124.8H119.5C120.7 123.5 121.9 122 123 120.3C123.5 119.4 124 118.6 124 117.5C124.1 116.5 124 115.4 123.7 114.4V114.3V114.2C124.1 113 123.6 111.6 122.8 110.5L122.7 110.3L122.8 110.1C123.5 109.2 124.2 108.2 124.9 107.1C125.2 106.6 125.5 106.1 125.4 105.5C125.3 105 124.9 104.5 124.4 104.2H124.6C124.5 104.2 124.3 104.2 124.2 104.1C124.1 104 124.2 103.9 124.2 103.9C124.2 103.8 124.2 103.7 124.3 103.7C124.4 103.6 124.4 103.5 124.5 103.4C124.6 103.2 124.8 103 124.9 102.8C125.2 102.4 125.5 102 125.7 101.6C126.2 100.8 126.5 99.9 126.5 98.9C126.5 98.5 126.4 98 126.3 97.7L126.7 97.8C123 100 119.5 102.1 116.1 104.1L115.4 104.5L115.7 103.8C116.1 103 116.4 102.2 116.8 101.4L117.1 101.7C112.6 103.8 108.4 105.7 104.8 107.5C104 108 103.5 108.9 103 109.6C102.5 110.4 102.1 111.1 101.7 111.9C100.9 113.4 100.3 114.8 99.6996 116C97.7996 117 96.2996 117.7 95.1996 118.3C94.6996 118.5 94.2996 118.7 93.9996 118.9C93.6996 119 93.5996 119.1 93.5996 119.1C93.5996 119.1 93.6996 119 93.9996 118.9C94.2996 118.7 94.6996 118.5 95.0996 118.3C96.1996 117.7 97.5996 116.9 99.4996 115.9L99.3996 116C99.8996 114.8 100.6 113.4 101.3 111.9C101.7 111.1 102.1 110.4 102.6 109.6C102.8 109.2 103.1 108.8 103.4 108.4C103.7 108 104 107.6 104.5 107.3C108.1 105.4 112.2 103.5 116.8 101.4L117.4 101.1L117.1 101.7C116.7 102.5 116.4 103.3 116 104.1L115.6 103.8C118.9 101.8 122.5 99.7 126.2 97.5L126.5 97.3L126.6 97.6C126.8 98.1 126.8 98.5 126.8 99C126.8 100 126.5 101.1 125.9 101.9C125.6 102.3 125.3 102.7 125.1 103.1C125 103.3 124.8 103.5 124.7 103.7C124.6 103.8 124.6 103.9 124.6 104V104.1H124.5C124.4 104.1 124.4 104.1 124.4 104.1C124.4 104.2 124.3 103.9 124.4 103.9H124.6C125.2 104.3 125.7 104.8 125.8 105.6C125.9 106 125.8 106.3 125.7 106.7C125.6 107 125.4 107.3 125.2 107.6C124.5 108.7 123.8 109.7 123.1 110.6V110.3C123.6 110.9 123.9 111.6 124.1 112.3C124.3 113 124.3 113.8 124.1 114.5V114.3C124.5 115.4 124.5 116.5 124.4 117.6C124.4 118.1 124.3 118.7 124 119.2C123.8 119.7 123.5 120.1 123.3 120.6C122.2 122.3 120.9 123.8 119.7 125.1C115 127.4 111.1 129.2 108.3 130.5C107 131.1 105.9 131.6 105.2 132C104.9 132.2 104.6 132.3 104.4 132.4C104.2 132.6 104.1 132.6 104.1 132.6Z" fill="#EB996E"/>
<path d="M116.4 103.8C116.5 103.9 114.6 105.2 112.1 106.8C109.7 108.3 107.6 109.4 107.5 109.3C107.4 109.2 109.3 107.9 111.8 106.3C114.3 104.8 116.4 103.6 116.4 103.8Z" fill="#EB996E"/>
<path d="M124.7 103.5C124.8 103.6 123.1 105.5 120.9 107.6C118.7 109.8 116.8 111.5 116.7 111.4C116.6 111.3 118.3 109.4 120.5 107.3C122.7 105.1 124.6 103.4 124.7 103.5Z" fill="#EB996E"/>
<path d="M123.6 109.8C123.7 109.9 122.9 111 121.8 112.3C120.7 113.6 119.7 114.6 119.6 114.5C119.5 114.4 120.3 113.3 121.4 112C122.5 110.7 123.5 109.7 123.6 109.8Z" fill="#EB996E"/>
<path d="M123.9 114.1C124 114.2 123.6 114.9 123 115.7C122.4 116.5 121.9 117.2 121.8 117.1C121.7 117 122 116.2 122.6 115.4C123.2 114.6 123.8 114 123.9 114.1Z" fill="#EB996E"/>
<path d="M74.6998 155.4C74.6998 155.4 74.6998 155.4 74.7998 155.3C74.8998 155.2 74.9998 155.1 75.1998 155C75.5998 154.7 76.0998 154.3 76.7998 153.7C78.1998 152.6 80.1998 151 82.6998 149C87.7998 145 95.0998 139.3 103.8 132.5L103.7 132.7C103.7 131.4 103.5 130 102.9 128.7C102.3 127.4 101.6 126.2 100.6 125C98.6998 122.7 96.2998 120.7 93.5998 119H93.7998C89.2998 121 84.4998 123 79.5998 125.2C75.0998 127.2 70.6998 129.1 66.3998 130.9L66.1998 131L66.0998 130.8C62.4998 123.7 59.0998 116.9 55.6998 111.1C53.9998 108.2 52.2998 105.5 50.7998 102.9C49.1998 100.4 47.7998 98 46.2998 96C43.3998 91.9 40.1998 89.4 37.7998 88.1C37.1998 87.7 36.6998 87.5 36.1998 87.3C35.6998 87.1 35.2998 86.9 34.9998 86.7C34.6998 86.6 34.3998 86.5 34.2998 86.4C34.0998 86.3 33.9998 86.3 34.0998 86.3C34.0998 86.3 35.5998 86.7 37.9998 88C39.1998 88.6 40.6998 89.6 42.1998 90.9C43.6998 92.2 45.1998 93.9 46.6998 95.9C48.1998 97.9 49.6998 100.3 51.2998 102.8C52.8998 105.3 54.5998 108 56.2998 111C59.6998 116.8 63.0998 123.6 66.7998 130.7L66.4998 130.6C70.7998 128.7 75.1998 126.8 79.6998 124.9C84.5998 122.8 89.2998 120.7 93.8998 118.8L93.9998 118.7L94.0998 118.8C96.8998 120.5 99.2998 122.6 101.2 124.9C102.1 126.1 102.9 127.4 103.5 128.7C104.1 130.1 104.3 131.5 104.3 132.9V133L104.2 133.1C95.4998 139.8 88.1998 145.5 82.9998 149.5C80.3998 151.5 78.3998 153 76.9998 154.1C76.2998 154.6 75.7998 155 75.3998 155.3C75.1998 155.4 75.0998 155.5 74.9998 155.6C74.7998 155.4 74.6998 155.4 74.6998 155.4Z" fill="#263238"/>
<path d="M64.7997 138.9C64.6997 138.8 65.3997 137 65.7997 134.5C66.1997 132.1 66.1997 130 66.3997 130C66.4997 130 66.7997 132.1 66.3997 134.6C65.8997 137.1 64.8997 138.9 64.7997 138.9Z" fill="#263238"/>
<path d="M176.601 160.5L221.701 220.5L200.601 238.6L178.901 210.2L176.601 160.5Z" fill="#85BC91"/>
<path d="M81.1006 163.4C81.1006 163.4 153.701 141.3 160.301 141.6C166.901 141.9 179.601 165.9 179.601 165.9L159.201 165.2L133.401 204.5L91.7006 202.6L81.1006 163.4Z" fill="#85BC91"/>
<path d="M140.4 145.9C140.4 146 133 148.4 123.7 151.1C114.5 153.8 106.9 156 106.9 155.8C106.9 155.7 114.3 153.3 123.6 150.6C132.8 147.9 140.4 145.8 140.4 145.9Z" fill="#263238"/>
<path d="M157.301 164.7H177.701C187.901 164.7 196.901 171.1 200.301 180.7C201.901 185.2 202.601 190 202.401 194.8L200.801 277.7H173.401L172.901 251.2L169.401 200.8L145.601 201.8L132.101 201L157.301 164.7Z" fill="#85BC91"/>
<path d="M157.9 164.3C157.9 164.3 157.8 164.9 157.5 166.1C157.2 167.2 156.7 168.8 156.1 170.8C155.4 172.7 154.4 175 153.1 177.4C151.8 179.8 150.1 182.3 148.1 184.8C144.1 189.7 140 193.6 137 196.5C135.6 197.9 134.4 199 133.5 199.9C132.7 200.7 132.2 201.1 132.2 201.1C132.2 201.1 132.6 200.6 133.4 199.8C134.2 199 135.4 197.8 136.8 196.3C139.7 193.4 143.8 189.4 147.7 184.5C151.6 179.6 154.3 174.5 155.8 170.7C156.5 168.8 157.1 167.2 157.4 166.1C157.6 164.9 157.8 164.3 157.9 164.3Z" fill="#263238"/>
<path d="M182.801 165.3C182.801 165.4 181.401 165.2 179.101 165.1C176.801 165 173.701 164.9 170.201 164.9C166.701 165 163.601 165.2 161.301 165.3C159.001 165.5 157.601 165.6 157.601 165.5C157.601 165.5 157.901 165.4 158.601 165.3C159.201 165.2 160.201 165.1 161.301 165C163.601 164.8 166.701 164.5 170.201 164.4C173.701 164.3 176.901 164.5 179.201 164.7C180.301 164.8 181.301 164.9 181.901 165C182.501 165.2 182.801 165.2 182.801 165.3Z" fill="#263238"/>
<g opacity="0.3">
<path opacity="0.3" d="M132.101 201C137.601 202.1 143.701 200.3 148.501 197.3C153.301 194.3 156.701 189.4 158.101 183.9C158.701 181.4 158.901 178.9 159.501 176.4C160.101 173.9 161.201 171.5 163.201 169.9C165.501 168.1 171.201 167 172.901 164.6C172.901 164.2 166.101 165 163.901 165.2C161.401 165.3 157.301 166 157.401 165.7C157.401 165.7 155.701 171.7 155.001 173C150.001 181.7 139.101 194.6 132.101 201Z" fill="black"/>
</g>
<path d="M17.6003 103.7C17.6003 103.7 6.80033 104.1 3.50033 108.7C-2.29967 116.7 0.900332 123.6 0.600332 126C0.300332 128.4 19.0003 259.7 19.0003 259.7H26.7003L165.9 261L172.6 244.8L169.4 200.9L132.2 201.1C132.2 201.1 117 157.4 103.6 154.4C94.6003 152.4 73.4003 153.1 60.6003 153.8C54.2003 154.1 48.2003 151 44.7003 145.7L17.6003 103.7Z" fill="#455A64"/>
<path d="M141 254.6C141 254.6 140.2 254.7 138.8 254.8C137.3 254.8 135.1 254.9 132.3 254.9C126.7 255 118.5 255 108.3 255C87.9 255 59.4 254.8 27.3 254.5H27.1V254.3C26.5 251.5 25.9 248.7 25.3 245.8C24.7 242.9 24.1 240 23.5 237C16.5 201.4 12.4 168.7 10.2 145.1C9.1 133.3 8.4 123.7 8 117C7.8 113.7 7.7 111.1 7.6 109.4C7.6 108.5 7.5 107.9 7.5 107.4C7.5 107 7.5 106.7 7.5 106.7C7.5 106.7 7.5 106.9 7.6 107.4C7.6 107.9 7.7 108.5 7.7 109.4C7.8 111.2 8 113.7 8.2 117C8.7 123.6 9.4 133.2 10.6 145C12.9 168.7 17 201.3 24 236.9C24.6 239.8 25.2 242.8 25.8 245.7C26.4 248.6 27 251.4 27.6 254.2L27.4 254C59.6 254.2 88 254.5 108.4 254.6C118.6 254.6 126.8 254.6 132.4 254.7C135.2 254.7 137.4 254.7 138.9 254.7C139.6 254.7 140.2 254.6 140.6 254.6C140.8 254.6 141 254.6 141 254.6Z" fill="#263238"/>
<path d="M37.5 166.6C37.5 166.6 37.7 166.4 38.1 166.1C38.5 165.8 39.1 165.3 39.8 164.8C40.2 164.5 40.6 164.2 41 163.9C41.5 163.6 42 163.3 42.6 163C43.7 162.3 45 161.5 46.5 160.8C47.2 160.4 48 160.1 48.8 159.7C49.6 159.3 50.5 159 51.4 158.6C52.3 158.3 53.2 157.8 54.2 157.5C55.2 157.2 56.2 156.9 57.2 156.5C61.4 155.3 66 154.2 71 153.6C76 153 80.7 152.7 85.1 152.7C87.3 152.7 89.3 152.8 91.3 152.9C93.2 153.1 95 153.2 96.6 153.4C99.9 153.8 102.5 154.4 104.2 154.8C105 155 105.7 155.2 106.2 155.4C106.7 155.5 106.9 155.6 106.9 155.6C106.9 155.6 106.6 155.6 106.2 155.5C105.7 155.4 105 155.2 104.1 155C102.3 154.6 99.7 154.1 96.5 153.8C94.9 153.6 93.1 153.5 91.2 153.3C89.3 153.2 87.2 153.1 85.1 153.1C80.8 153.1 76 153.4 71.1 154C66.1 154.6 61.5 155.6 57.4 156.8C56.4 157.1 55.4 157.4 54.4 157.7C53.4 158 52.5 158.4 51.6 158.7C50.7 159.1 49.8 159.3 49 159.7C48.2 160.1 47.4 160.4 46.7 160.8C45.2 161.4 44 162.2 42.8 162.9C42.2 163.2 41.7 163.5 41.2 163.8C40.7 164.1 40.3 164.4 40 164.7C39.3 165.2 38.7 165.6 38.3 165.9C37.8 166.5 37.5 166.7 37.5 166.6Z" fill="#263238"/>
</g>
<defs>
<clipPath id="clip0">
<rect width="260" height="175" fill="white"/>
</clipPath>
</defs>
</svg>
