<svg width="222" height="160" viewBox="0 0 222 160" fill="none" xmlns="http://www.w3.org/2000/svg">
<path d="M7.48143 18.8068C1.08658 28.8788 1.45551 42.8199 8.46525 52.5234C13.1384 58.9719 20.1481 63.271 25.6822 68.9825C31.2162 74.6941 35.4589 83.0465 32.5074 90.4776C29.4945 98.0316 20.763 101.041 14.2452 105.831C7.11249 110.99 2.13189 119.035 0.594667 127.695C-0.942557 136.354 1.02509 145.628 5.9442 152.936H74.0125C74.0125 152.936 85.9413 130.151 70.5691 112.833C55.1968 95.5136 46.9573 95.2066 47.5107 83.8449C48.0641 72.4832 56.0577 68.7983 60.6079 64.4993C65.1581 60.2616 87.3556 50.3125 74.2584 18.8068H7.48143Z" fill="#FAFAFA"/>
<path d="M7.48148 18.8068C7.48148 18.8068 7.85042 18.8068 8.64977 18.8068C9.44913 18.8068 10.5559 18.8068 12.0932 18.8068C15.1061 18.8068 19.5948 18.8068 25.3748 18.8068C36.9347 18.7454 53.5982 18.7454 74.2585 18.7454H74.32V18.8068C75.2423 21.1405 76.1646 23.5971 76.841 26.1765C77.5174 28.7559 78.0708 31.3968 78.3167 34.1604C78.5012 36.9241 78.4397 39.7492 77.8863 42.5742C77.3329 45.3993 76.2876 48.2244 74.8119 50.8038C74.074 52.0935 73.2132 53.3218 72.2293 54.4887C71.2455 55.6556 70.2002 56.761 69.0934 57.8665C67.9866 58.9105 66.7568 59.8932 65.527 60.8758C64.2973 61.8584 63.006 62.7182 61.7147 63.7009C61.0998 64.1922 60.4849 64.6835 59.9315 65.2362C59.3167 65.789 58.7018 66.2803 58.0869 66.7716C56.8571 67.7542 55.5658 68.7983 54.3361 69.9037C51.938 72.0533 49.8474 74.7555 48.7406 77.8876C48.1872 79.4844 47.8182 81.0812 47.6952 82.8008C47.6338 83.2307 47.6338 83.6606 47.5723 84.0905C47.5723 84.5204 47.5108 84.9503 47.5723 85.3802C47.5723 86.24 47.6953 87.0998 47.8182 87.8982C48.1257 89.5564 48.8635 91.1532 49.8474 92.5657C50.8312 93.9783 52.1225 95.2066 53.3522 96.3735C55.9348 98.7072 58.7018 100.98 61.2843 103.436C63.9283 105.831 66.5109 108.411 68.9704 111.113C70.2002 112.464 71.43 113.815 72.5368 115.289C73.6436 116.763 74.5659 118.36 75.3653 120.018C76.964 123.396 77.9478 127.019 78.3167 130.827C78.6857 134.573 78.3782 138.442 77.6404 142.189C77.2714 144.093 76.7795 145.935 76.1646 147.777C75.5497 149.62 74.8734 151.401 74.0125 153.121V153.182H73.951C73.3976 153.182 72.7827 153.182 72.2293 153.182C48.9865 153.182 26.6045 153.182 5.94426 153.182H5.88277V153.121C2.62386 148.269 0.717702 142.68 0.164302 137.091C-0.389099 131.503 0.471746 125.852 2.50088 120.878C4.53002 115.903 7.66595 111.481 11.4783 108.042C13.3844 106.323 15.475 104.91 17.6272 103.559C19.7793 102.269 21.8699 101.041 23.899 99.6898C25.9282 98.3387 27.8343 96.9262 29.433 95.2066C31.0317 93.487 32.2 91.4603 32.8764 89.2494C33.4913 87.0384 33.4913 84.7661 33.1224 82.6166C32.7534 80.4671 31.9541 78.4404 31.0317 76.5365C30.0479 74.6327 28.8796 72.9131 27.5884 71.3163C26.2971 69.7195 24.8829 68.307 23.4686 67.0173C20.5786 64.3764 17.6272 62.0427 14.9831 59.6475C13.6304 58.4806 12.4006 57.2523 11.2323 56.024C10.064 54.7957 9.01871 53.506 8.09637 52.2163C6.25171 49.5755 5.02193 46.8118 4.22257 44.171C3.42322 41.4688 2.99279 38.8894 2.86981 36.5556C2.80833 35.9415 2.80833 35.3887 2.80833 34.836C2.80833 34.2833 2.80833 33.7305 2.86981 33.1778C2.99279 32.5022 3.05428 31.9495 3.05428 31.4582C3.11577 30.9669 3.17726 30.4756 3.23875 29.9842C3.85364 26.1151 5.02193 23.29 5.88277 21.509C6.12873 21.0791 6.3132 20.6492 6.49766 20.3421C6.68213 20.0351 6.86659 19.728 6.98957 19.4823C7.35851 19.0524 7.48148 18.8068 7.48148 18.8068C7.48148 18.8682 7.35851 19.0524 7.11255 19.4823C6.98957 19.728 6.80511 19.9737 6.62064 20.3421C6.43617 20.6492 6.25171 21.0791 6.00575 21.509C5.08342 23.3515 3.97662 26.1151 3.36173 29.9842C3.30024 30.4756 3.23875 30.9669 3.17726 31.4582C3.11577 31.9495 3.05428 32.5022 3.05428 33.055C2.99279 33.6077 2.99279 34.1604 2.99279 34.7132C2.99279 35.2659 2.99279 35.88 3.05428 36.4328C3.17726 38.8279 3.54619 41.4074 4.40704 44.0482C5.20639 46.689 6.49766 49.4527 8.28084 52.0935C9.20317 53.3832 10.2485 54.6729 11.3553 55.9012C12.5236 57.1295 13.7534 58.2964 15.1061 59.5247C17.7501 61.9198 20.7016 64.1922 23.5916 66.8944C25.0058 68.2456 26.4816 69.6581 27.7728 71.2549C29.0641 72.8517 30.2324 74.5713 31.2162 76.4751C32.2 78.379 32.9379 80.4056 33.3683 82.6166C33.7373 84.7661 33.7373 87.0998 33.1224 89.3108C32.5075 91.5217 31.2777 93.5484 29.679 95.3294C28.0803 97.1104 26.1126 98.523 24.0835 99.8741C22.0544 101.225 19.9022 102.453 17.8116 103.743C15.721 105.033 13.5689 106.445 11.7242 108.226C7.91191 111.666 4.77597 116.026 2.80833 121.001C0.779191 125.975 -0.081654 131.564 0.471746 137.091C1.02515 142.68 2.9313 148.207 6.12873 153.059L6.06724 152.998C26.7275 152.998 49.171 152.998 72.3523 152.998C72.9672 152.998 73.5821 152.998 74.074 152.998L74.0125 153.059C74.8734 151.34 75.5497 149.559 76.1646 147.716C76.7795 145.874 77.2714 144.031 77.6404 142.189C78.3782 138.442 78.6242 134.635 78.3167 130.888C78.0093 127.142 77.0255 123.519 75.4268 120.202C74.6274 118.544 73.7051 116.947 72.5983 115.473C71.553 113.999 70.3232 112.648 69.0934 111.297C66.6338 108.595 64.0513 106.077 61.4688 103.682C58.8247 101.225 56.1192 99.0143 53.5367 96.6191C52.2454 95.4522 51.0157 94.1625 49.9703 92.75C48.925 91.3375 48.2486 89.7407 47.8797 88.0211C47.6952 87.1613 47.6338 86.3015 47.6338 85.4417C47.6338 85.0117 47.6338 84.5818 47.6338 84.1519C47.6338 83.722 47.6952 83.2921 47.7567 82.8622C47.8797 81.1426 48.3101 79.4844 48.8635 77.9491C49.9703 74.7555 52.061 72.0533 54.5205 69.8423C55.7503 68.7369 56.9801 67.7542 58.2713 66.7102C58.8862 66.2189 59.5011 65.7276 60.116 65.1748C60.7309 64.6221 61.2843 64.1308 61.9607 63.6395C63.2519 62.6568 64.5432 61.797 65.773 60.8144C67.0028 59.8932 68.2326 58.8491 69.3394 57.8051C70.4462 56.761 71.4915 55.6556 72.4753 54.4887C73.3976 53.3218 74.2585 52.0935 74.9963 50.8038C76.4721 48.2244 77.5174 45.4607 78.0708 42.6357C78.6242 39.8106 78.6857 36.9855 78.5012 34.2218C78.3167 31.4582 77.7633 28.8174 77.087 26.2379C76.4106 23.6585 75.4883 21.2634 74.5659 18.8682L74.6274 18.9296C53.9671 18.9296 37.3036 18.9296 25.7437 18.8682C19.9637 18.8682 15.475 18.8682 12.4621 18.8682C10.9249 18.8682 9.75657 18.8682 9.01871 18.8682C7.85042 18.8068 7.48148 18.8068 7.48148 18.8068Z" fill="#263238"/>
<path d="M71.5528 37.2926C81.5755 38.9508 65.7728 56.6996 56.7954 63.6394C51.6304 67.6928 46.0964 72.1147 43.6368 78.1947C40.8698 85.1346 42.8989 92.8728 41.5462 99.8127C41.3002 100.98 39.64 100.795 39.64 99.6284C39.7015 95.0837 39.5785 90.4776 38.8407 85.9944C37.7954 79.6073 35.3358 73.2815 30.8471 68.614C27.2193 64.8063 22.4231 62.2883 18.4878 58.7263C12.8309 53.506 6.92791 46.8118 6.37451 39.135C6.37451 39.135 17.3195 30.3527 23.3455 31.4582C30.4167 32.7479 37.4264 43.6797 48.3714 42.4514C56.0576 41.5302 59.9314 35.3887 71.5528 37.2926Z" fill="#85BC91"/>
<path d="M72.4751 132.178C72.2291 129.66 71.5527 126.835 69.3391 125.668C67.9864 124.931 66.3262 125.054 64.8504 125.423C63.3747 125.791 61.9605 126.467 60.5462 126.897C57.6562 127.756 54.5203 127.633 51.6918 126.589C48.9863 125.607 46.6497 123.764 44.1287 122.352C41.6076 120.939 38.6562 119.895 35.8277 120.571C30.97 121.799 28.449 127.633 23.6529 128.985C21.5008 129.599 19.2257 129.23 17.0736 128.739C14.9214 128.248 12.7078 127.633 10.4942 127.695C8.77255 127.756 6.92788 128.37 5.6981 129.537C5.6981 129.537 5.6981 129.537 5.63661 129.599C5.45215 129.783 5.26768 130.029 5.08321 130.213C3.60748 132.178 3.36152 134.88 3.79195 137.276C4.28386 139.978 5.57513 142.496 6.92788 144.891C8.52659 147.716 10.3713 150.541 13.0153 152.384C16.2742 154.717 20.394 153.121 24.3907 153.428C33.7371 154.165 43.7598 154.656 53.0446 153.919C57.9637 153.55 62.5754 154.042 66.5106 151.032C69.2776 148.883 71.0608 145.689 71.9217 142.373C72.7825 139.179 72.7825 135.679 72.4751 132.178Z" fill="#85BC91"/>
<g opacity="0.24">
<g opacity="0.24">
<path opacity="0.24" d="M54.8892 127.388C54.3358 128.186 54.1514 129.292 54.6433 130.09C55.1352 130.888 55.8116 131.625 56.0575 132.608C56.4264 134.082 55.5041 135.495 54.8277 136.846C53.6594 139.302 53.106 142.066 53.5365 144.707C53.9054 147.348 55.3196 149.927 57.4718 151.585C58.3941 152.322 59.6239 152.875 60.7922 152.506C61.8375 152.199 62.5753 151.094 62.7598 149.988C62.9443 148.883 62.8213 147.777 62.6368 146.611C61.9605 141.452 62.1449 136.17 63.0058 131.011C63.1287 130.151 63.3132 129.169 62.7598 128.493C62.3909 128.063 61.8375 127.879 61.3456 127.695C59.2549 127.019 57.0413 127.818 54.8892 127.388Z" fill="black"/>
</g>
</g>
<path d="M0.963683 156.068C0.963683 156.068 0.779217 152.936 4.83749 151.217H76.4106C76.4106 151.217 80.1614 153.121 80.5919 156.007L0.963683 156.068Z" fill="#263238"/>
<path d="M74.8735 19.1752C74.812 19.1752 74.812 19.2366 74.7505 19.2366L7.48164 18.8067C7.48164 18.8067 7.23568 18.6839 6.86675 18.3768C4.96059 16.9029 6.0059 13.8322 8.46546 13.8322L73.7667 14.3849C76.4722 14.3849 77.3331 18.0698 74.8735 19.1752Z" fill="#263238"/>
<g opacity="0.24">
<g opacity="0.24">
<path opacity="0.24" d="M64.1127 44.8465C64.2357 45.0922 63.7438 45.6449 62.76 46.5047C61.7761 47.3645 60.3619 48.5314 58.5787 50.0054C56.7955 51.4179 54.5819 53.1989 51.8149 54.7957C50.4007 55.5941 48.8635 56.3311 47.1418 56.9452C46.2809 57.2523 45.4201 57.4979 44.4978 57.6822C43.5754 57.8664 42.5916 57.9893 41.6078 58.0507C39.6401 58.1735 37.611 57.8664 35.8278 57.2523C34.0446 56.6381 32.5074 55.7783 31.1547 54.8571C29.8019 53.9973 28.6336 53.0761 27.5883 52.2777C26.4815 51.4179 25.4977 50.6195 24.6368 49.8825C21.0705 46.8118 19.2258 44.6009 19.5947 44.1096C19.9637 43.6797 22.4847 45.0922 26.3585 47.4874C27.3424 48.1015 28.3877 48.7157 29.556 49.4526C30.7242 50.1282 31.954 50.9266 33.1838 51.6021C34.4136 52.3391 35.7663 52.9533 37.1191 53.3832C38.4718 53.8131 39.8861 53.9973 41.4233 53.8745C44.4978 53.6902 47.4492 52.6462 50.0318 51.4179C52.6143 50.1282 54.9509 48.7157 56.98 47.6102C59.0091 46.4433 60.7308 45.6449 61.9606 45.1536C63.1904 44.6623 63.9897 44.6009 64.1127 44.8465Z" fill="black"/>
</g>
</g>
<path d="M39.7017 108.165C40.4396 107.919 41.3004 108.656 41.1775 109.393C41.0545 110.192 39.9477 110.56 39.3328 110.069C38.7179 109.639 38.9024 108.472 39.7017 108.165Z" fill="#85BC91"/>
<path d="M15.5982 55.9626C15.5982 55.9626 15.5367 55.9012 15.3522 55.7169C15.1678 55.5327 14.9833 55.287 14.6759 54.98C14.4299 54.6729 14.061 54.3044 13.692 53.8131C13.3231 53.3218 12.8927 52.8304 12.4008 52.2163C11.9704 51.6022 11.4784 50.9266 10.9865 50.1896C10.7406 49.8211 10.4946 49.4526 10.2487 49.0227C10.1257 48.8385 10.0027 48.6543 9.87973 48.4086C9.75675 48.2243 9.63377 47.9787 9.5108 47.733C8.52697 46.0134 7.66613 43.9867 7.05124 41.7758C6.43635 39.5649 6.12891 37.354 6.12891 35.3887C6.12891 34.8974 6.12891 34.4061 6.1904 33.9147C6.1904 33.6691 6.1904 33.4234 6.1904 33.2392C6.1904 32.9935 6.25188 32.8093 6.25188 32.5636C6.31337 32.1337 6.31337 31.7038 6.37486 31.2739C6.43635 30.844 6.49784 30.4755 6.55933 30.107C6.68231 29.3701 6.86677 28.6945 6.98975 28.1418C7.05124 27.8347 7.11273 27.589 7.17422 27.3434C7.23571 27.0977 7.2972 26.8521 7.42017 26.6678C7.54315 26.2993 7.66613 25.9922 7.72762 25.7466C7.78911 25.5623 7.8506 25.4395 7.8506 25.4395C7.8506 25.4395 7.8506 25.5623 7.78911 25.7466C7.72762 25.9922 7.60464 26.2993 7.54315 26.6678C7.48166 26.8521 7.42017 27.0977 7.35868 27.3434C7.2972 27.589 7.23571 27.8347 7.17422 28.1418C7.05124 28.6945 6.86677 29.3701 6.7438 30.107C6.68231 30.4755 6.62082 30.844 6.55933 31.2739C6.49784 31.7038 6.49784 32.0723 6.43635 32.5636C6.43635 32.8093 6.37486 32.9935 6.37486 33.2392C6.37486 33.4848 6.37486 33.6691 6.37486 33.9147C6.37486 34.4061 6.31337 34.836 6.37486 35.3273C6.43635 37.2925 6.68231 39.4421 7.2972 41.653C7.91208 43.8639 8.77293 45.8292 9.75675 47.6102C9.87973 47.8559 10.0027 48.0401 10.1257 48.2858C10.2487 48.47 10.3716 48.7157 10.4946 48.8999C10.7406 49.2684 10.9865 49.6983 11.2325 50.0668C11.7244 50.8038 12.2163 51.4793 12.6467 52.0935C13.0772 52.7076 13.5076 53.1989 13.8765 53.6903C14.2454 54.1816 14.6144 54.5501 14.8603 54.8571C15.1063 55.1642 15.3522 55.4099 15.4752 55.5941C15.5367 55.9012 15.5982 55.9626 15.5982 55.9626Z" fill="#263238"/>
<path d="M11.8472 115.228C11.8472 115.228 11.8472 115.166 11.9087 115.105C11.9701 114.982 12.0316 114.859 12.1546 114.736C12.2776 114.552 12.4006 114.368 12.5235 114.122C12.585 113.999 12.708 113.877 12.7695 113.754C12.8925 113.631 12.954 113.508 13.0769 113.324C13.3229 113.017 13.5689 112.71 13.8763 112.341C14.1837 112.034 14.5527 111.666 14.9216 111.297C15.6595 110.56 16.5818 109.762 17.6886 108.963C19.7792 107.367 22.5462 105.77 25.4977 103.927C26.9734 103.006 28.5107 101.962 29.9864 100.795C31.4621 99.567 32.8764 98.2159 33.9832 96.5577C36.2583 93.1799 37.1806 89.3108 37.2421 85.8715C37.3036 82.3709 36.5657 79.2388 35.7049 76.7822C34.844 74.2642 33.7987 72.4217 33.0609 71.132C32.6919 70.5179 32.3845 70.0266 32.2 69.6581C32.077 69.4738 32.0155 69.351 31.9541 69.2896C31.8926 69.2282 31.8926 69.1667 31.8926 69.1667C31.8926 69.1667 31.9541 69.2282 31.9541 69.2896C32.0155 69.351 32.077 69.4738 32.2 69.6581C32.446 69.9651 32.7534 70.4565 33.1223 71.0706C33.8602 72.3603 34.9055 74.2028 35.8279 76.7208C36.7502 79.2388 37.4881 82.3095 37.4266 85.8715C37.4266 86.7313 37.3651 87.6526 37.1806 88.5738C37.0576 89.495 36.8732 90.4162 36.5657 91.3374C36.0738 93.1799 35.213 95.0223 34.1062 96.6805C32.9379 98.3387 31.5236 99.7512 30.0479 100.98C28.5722 102.208 27.0349 103.19 25.5592 104.112C22.6077 105.954 19.8407 107.551 17.7501 109.148C16.7048 109.946 15.7825 110.683 14.9831 111.42C14.6142 111.789 14.2452 112.157 13.9378 112.464C13.6303 112.833 13.3844 113.14 13.1384 113.385C13.0155 113.508 12.8925 113.631 12.831 113.815C12.7695 113.938 12.6465 114.061 12.585 114.184C12.4006 114.429 12.2776 114.614 12.1546 114.798C12.0316 114.921 11.9701 115.043 11.9087 115.166C11.8472 115.166 11.8472 115.228 11.8472 115.228Z" fill="#263238"/>
<path d="M8.0963 122.29C8.0963 122.29 8.0963 122.352 8.03481 122.475C7.97332 122.597 7.85034 122.782 7.72737 122.966C7.60439 123.212 7.41992 123.457 7.29694 123.764C7.11248 124.071 6.92801 124.44 6.74354 124.87C6.68205 125.054 6.55908 125.3 6.4361 125.545C6.31312 125.791 6.25163 126.037 6.19014 126.282C6.00567 126.774 5.82121 127.326 5.69823 127.879C5.39079 129.046 5.14483 130.336 5.02185 131.687C4.89887 133.038 4.89887 134.389 5.02185 135.556C5.08334 136.17 5.14483 136.723 5.26781 137.214C5.3293 137.46 5.3293 137.705 5.39079 137.951C5.45227 138.197 5.51376 138.442 5.57525 138.627C5.63674 139.057 5.82121 139.425 5.8827 139.794C6.00567 140.162 6.06716 140.408 6.19014 140.653C6.25163 140.899 6.31312 141.083 6.37461 141.206C6.4361 141.329 6.4361 141.39 6.4361 141.39C6.4361 141.39 6.37461 141.329 6.37461 141.206C6.31312 141.083 6.25163 140.899 6.12865 140.653C6.00567 140.408 5.94419 140.101 5.82121 139.794C5.69823 139.425 5.57525 139.057 5.45227 138.627C5.39079 138.381 5.3293 138.197 5.26781 137.951C5.20632 137.705 5.14483 137.46 5.14483 137.214C5.02185 136.661 4.96036 136.109 4.89887 135.556C4.7759 134.389 4.7759 133.038 4.89887 131.625C5.02185 130.274 5.26781 128.923 5.63674 127.818C5.82121 127.265 6.00567 126.712 6.19014 126.221C6.31312 125.975 6.37461 125.73 6.49759 125.484C6.62056 125.238 6.68205 125.054 6.80503 124.808C6.9895 124.378 7.17396 124.01 7.35843 123.703C7.5429 123.396 7.66588 123.089 7.85034 122.905C7.97332 122.72 8.0963 122.536 8.15779 122.413C8.03481 122.352 8.0963 122.29 8.0963 122.29Z" fill="#263238"/>
<path d="M57.472 131.871C57.472 131.871 57.472 131.871 57.4105 131.933C57.349 131.994 57.2875 132.055 57.1645 132.117C56.9186 132.24 56.6111 132.424 56.1807 132.669C55.9962 132.792 55.7503 132.915 55.5043 133.099C55.2584 133.222 54.9509 133.406 54.6435 133.529C54.0286 133.836 53.2907 134.205 52.4914 134.512C52.0609 134.696 51.6305 134.88 51.2001 135.065C50.7697 135.249 50.2778 135.372 49.7859 135.556C48.802 135.924 47.7567 136.17 46.5884 136.477C44.3133 136.968 41.7923 137.337 39.0868 137.46C36.3813 137.521 33.8602 137.276 31.5851 136.907C30.4168 136.661 29.3715 136.477 28.3877 136.17C27.8958 136.047 27.4039 135.924 26.9735 135.74C26.543 135.556 26.1126 135.433 25.6822 135.31C24.8213 135.065 24.145 134.696 23.4686 134.451C23.1611 134.328 22.8537 134.205 22.6077 134.082C22.3618 133.959 22.1158 133.836 21.8699 133.714C21.4395 133.468 21.132 133.284 20.8861 133.161C20.7631 133.099 20.7016 133.038 20.6401 133.038C20.5786 132.977 20.5786 132.977 20.5786 132.977C20.5786 132.977 20.6401 132.977 20.7016 133.038C20.7631 133.099 20.8861 133.099 20.9475 133.161C21.1935 133.284 21.5624 133.468 21.9314 133.652C22.1773 133.775 22.4233 133.898 22.6692 134.021C22.9152 134.143 23.2226 134.266 23.5916 134.389C24.2065 134.635 24.9443 135.003 25.8052 135.249C26.2356 135.372 26.666 135.556 27.0964 135.679C27.5269 135.802 28.0188 135.924 28.5107 136.047C29.4945 136.354 30.6013 136.539 31.7081 136.784C33.9832 137.153 36.5042 137.398 39.2098 137.337C41.8538 137.276 44.3748 136.907 46.6499 136.416C47.7567 136.109 48.8635 135.863 49.7859 135.556C50.2778 135.372 50.7697 135.249 51.2001 135.065C51.6305 134.88 52.0609 134.696 52.4914 134.573C53.2907 134.266 54.0286 133.898 54.6435 133.591C54.9509 133.468 55.2584 133.284 55.5043 133.161C55.7503 133.038 55.9962 132.854 56.2422 132.731C56.6726 132.485 56.9801 132.301 57.226 132.178C57.349 132.117 57.4105 132.055 57.472 132.055C57.472 131.871 57.472 131.871 57.472 131.871Z" fill="#263238"/>
<path d="M61.6531 47.426C61.6531 47.426 61.6531 47.426 61.5916 47.4874C61.5302 47.5488 61.4072 47.6102 61.3457 47.733C61.0997 47.9173 60.7308 48.2244 60.3004 48.5314C59.4395 49.207 58.1483 50.251 56.4881 51.4793C54.8894 52.7076 52.9217 54.0587 50.5236 55.4099C49.3554 56.024 48.0641 56.6996 46.7113 57.1909C45.3586 57.6822 43.8214 58.0507 42.2841 58.1735C39.1482 58.3578 36.1967 57.6208 33.7987 56.3925C32.5689 55.7784 31.5236 55.1028 30.5397 54.4272C29.5559 53.7517 28.6951 53.0761 27.8957 52.462C26.297 51.1723 25.0672 50.1282 24.2064 49.3912C23.776 49.0227 23.4685 48.7157 23.2226 48.5314C23.0996 48.4086 23.0381 48.3472 22.9766 48.2858C22.9151 48.2244 22.8536 48.2244 22.9151 48.2244C22.9151 48.2244 22.9766 48.2244 23.0381 48.2858C23.0996 48.3472 23.2226 48.4086 23.2841 48.47C23.53 48.6543 23.8375 48.9613 24.2679 49.2684C25.1287 50.0054 26.42 51.0494 27.9572 52.2777C28.7566 52.8919 29.6174 53.5674 30.6012 54.243C31.5851 54.9186 32.6919 55.5941 33.8601 56.1468C36.2582 57.3137 39.1482 58.1121 42.2226 57.8665C43.7599 57.7436 45.2356 57.3751 46.5884 56.8838C47.9411 56.3925 49.2324 55.7784 50.4007 55.1642C52.7372 53.8745 54.7049 52.462 56.3651 51.2951C58.0253 50.1282 59.3166 49.0842 60.1774 48.4086C60.6078 48.1015 60.9768 47.7945 61.2227 47.6102C61.3457 47.5488 61.4072 47.4874 61.4687 47.426C61.5916 47.4874 61.6531 47.426 61.6531 47.426Z" fill="#263238"/>
<g opacity="0.24">
<g opacity="0.24">
<path opacity="0.24" d="M25.6206 135.187C27.5268 133.714 30.1708 134.082 32.5074 134.573C34.8439 135.065 37.1805 135.863 39.5786 135.556C41.3618 135.31 43.022 134.45 44.7437 134.021C46.5268 133.652 48.6175 133.898 49.6013 135.433C41.9152 138.013 33.3067 137.89 25.6206 135.187Z" fill="black"/>
</g>
</g>
<path d="M110.107 107.858L96.8864 93.0571L96.7634 111.052L100.76 122.597L61.1614 129.476L59.5012 98.2773L56.6727 74.3256C56.3037 71.3777 58.0254 68.614 60.7309 67.5086L71.6145 63.2095L86.9867 66.0346L93.1356 68.3684C95.7181 69.351 98.0547 70.9478 99.8379 73.0359L118.408 94.2853" fill="#85BC91"/>
<path d="M95.9639 89.495C95.9639 89.4336 96.8247 89.5564 98.1775 89.3107C99.5302 89.1265 101.375 88.4509 102.974 87.0384C104.511 85.6259 105.31 83.7834 105.679 82.4937C105.987 81.1426 105.925 80.2828 105.987 80.2828C105.987 80.2828 106.048 80.467 106.048 80.8969C106.048 81.2654 105.987 81.8796 105.864 82.5551C105.618 83.9062 104.818 85.8101 103.158 87.284C101.559 88.758 99.5917 89.4336 98.1775 89.5564C97.5011 89.6178 96.8862 89.6178 96.5173 89.6178C96.1483 89.5564 95.9639 89.495 95.9639 89.495Z" fill="white"/>
<path d="M97.1325 110.253C97.2555 110.253 97.2555 103.989 97.194 96.312C97.1325 88.6352 97.0095 82.3709 96.8865 82.3709C96.7636 82.3709 96.7636 88.6352 96.8251 96.312C96.8865 104.05 97.0095 110.253 97.1325 110.253Z" fill="#263238"/>
<path d="M95.6565 114.859L71.7374 105.217C69.8312 104.419 68.4784 102.638 68.3555 100.55L66.6338 77.642C66.6338 77.642 66.8182 67.877 60.7308 67.4471L57.2875 68.7983C52.7373 71.1934 51.6305 77.7034 52.2454 82.7394C53.1062 89.8635 53.4751 99.9969 54.459 106.2C55.2583 111.297 58.1483 115.719 63.1289 117.07L92.5821 123.457L95.6565 114.859Z" fill="#85BC91"/>
<path d="M66.8799 81.1426C66.8799 81.1426 66.9413 81.3268 66.9413 81.6953C67.0028 82.0638 67.0028 82.5551 67.1258 83.2307C67.2488 84.5818 67.4333 86.4857 67.6177 88.8194C67.8022 91.1532 68.0481 93.9782 68.3556 97.049C68.4171 97.8474 68.4786 98.6458 68.5401 99.4441C68.6015 100.243 68.663 101.102 68.8475 101.901C69.032 102.699 69.4009 103.498 70.0158 104.05C70.6307 104.603 71.43 105.033 72.2294 105.401C78.8087 108.226 84.8961 110.622 89.3233 112.28C91.5369 113.078 93.3201 113.754 94.5499 114.184C95.1648 114.429 95.5952 114.552 95.9641 114.736C96.2716 114.859 96.456 114.921 96.456 114.921C96.456 114.921 96.2716 114.859 95.9641 114.798C95.5952 114.675 95.1033 114.552 94.4884 114.306C93.2586 113.877 91.4139 113.262 89.2003 112.464C84.7731 110.867 78.6857 108.534 72.0449 105.708C71.2456 105.34 70.3847 104.91 69.7698 104.296C69.0935 103.682 68.663 102.822 68.4786 101.962C68.2941 101.102 68.2326 100.304 68.1711 99.4441C68.1096 98.6458 68.0481 97.8474 67.9867 97.049C67.7407 93.9782 67.5562 91.1532 67.3718 88.8194C67.1873 86.4857 67.0643 84.5818 66.9413 83.2307C66.8799 82.6165 66.8798 82.0638 66.8184 81.6953C66.8798 81.3268 66.8799 81.1426 66.8799 81.1426Z" fill="#263238"/>
<path d="M53.1675 93.6097C53.1675 93.6097 53.1675 93.7326 53.229 93.9168C53.229 94.1625 53.2905 94.4696 53.2905 94.7766C53.3519 95.575 53.4749 96.6805 53.5979 98.0316C53.7209 99.3827 53.9053 101.041 54.1513 102.822C54.3973 104.603 54.7047 106.63 55.2581 108.656C55.5041 109.7 55.873 110.622 56.4264 111.42C56.9798 112.218 57.5947 112.955 58.2096 113.631C59.5008 114.921 60.8536 115.842 62.0219 116.517C64.4815 117.807 66.2646 117.807 66.2031 117.869C66.2031 117.869 66.0802 117.869 65.8957 117.869C65.7112 117.869 65.4038 117.807 65.0349 117.746C64.297 117.623 63.1902 117.316 61.8989 116.702C60.6691 116.088 59.2549 115.166 57.9636 113.815C57.2872 113.14 56.6724 112.403 56.119 111.604C55.5656 110.744 55.1351 109.762 54.8892 108.718C54.3358 106.691 54.0283 104.664 53.8439 102.883C53.5979 101.041 53.4749 99.4441 53.3519 98.0316C53.229 96.6805 53.1675 95.5136 53.1675 94.7766C53.1675 94.4081 53.1675 94.1011 53.1675 93.9168C53.1675 93.7326 53.1675 93.6097 53.1675 93.6097Z" fill="#263238"/>
<path d="M63.4365 109.639C63.375 109.639 63.498 109.148 63.8669 108.349C64.2358 107.612 64.9122 106.63 65.896 105.77C66.8799 104.91 67.9252 104.419 68.7245 104.173C69.5239 103.927 70.0773 103.927 70.0773 103.927C70.0773 103.989 69.5854 104.05 68.8475 104.357C68.1096 104.664 67.0643 105.156 66.142 105.954C65.2197 106.753 64.5433 107.674 64.1129 108.349C63.6824 109.209 63.498 109.639 63.4365 109.639Z" fill="#263238"/>
<path d="M68.1094 92.1972C68.1094 92.1972 68.1709 92.1972 68.2324 92.2586C68.3553 92.3201 68.4783 92.3815 68.6628 92.5043C69.0317 92.6886 69.5851 92.9956 70.3845 93.2413C71.8602 93.7326 74.2583 94.2853 77.0868 93.794C79.9152 93.3641 83.1742 91.7059 85.4493 88.6352C86.5561 87.0998 87.4169 85.2574 87.6629 83.2307C87.7858 82.1867 87.6629 81.1426 87.3554 80.16C87.048 79.1773 86.4331 78.2561 85.6337 77.5191C84.8344 76.7822 83.8505 76.2909 82.8052 76.168C81.7599 75.9838 80.7146 76.2909 79.9767 76.9664C79.6078 77.3349 79.4233 77.7648 79.4233 78.2561C79.4233 78.7474 79.6078 79.1773 79.9152 79.5458C80.4686 80.3442 81.4525 80.6513 82.3748 80.8355C84.2195 81.0812 86.0641 80.7741 87.6014 80.0986C89.1386 79.423 90.4299 78.4404 91.2907 77.3349C92.213 76.2294 92.7664 75.0626 93.0739 73.9571C93.3813 72.8516 93.5043 71.869 93.5043 71.0706C93.5043 70.2722 93.4428 69.6581 93.3813 69.2282C93.3198 69.0439 93.3198 68.8597 93.3198 68.7369C93.3198 68.614 93.3198 68.5526 93.3198 68.5526C93.3198 68.5526 93.6888 69.4124 93.6888 71.0092C93.6888 71.8076 93.6273 72.8516 93.2583 73.9571C92.9509 75.0626 92.3975 76.2909 91.4752 77.4577C90.5528 78.6246 89.2616 79.6072 87.7243 80.3442C86.1256 81.0198 84.281 81.3883 82.3133 81.1426C81.391 81.0198 80.3457 80.6513 79.6693 79.7915C79.3619 79.3616 79.1159 78.8703 79.1159 78.3175C79.1159 77.7648 79.3618 77.2121 79.7308 76.8436C80.5301 76.0452 81.6984 75.7995 82.8052 75.9838C83.912 76.1066 84.9573 76.6593 85.7567 77.3963C86.6175 78.1333 87.2324 79.1159 87.5399 80.16C87.9088 81.204 87.9703 82.3095 87.8473 83.3535C87.6629 85.4416 86.7405 87.3455 85.5722 88.9423C83.2357 92.0744 79.9153 93.7326 77.0253 94.1625C74.1353 94.5924 71.7372 94.0397 70.2615 93.4869C68.8472 92.75 68.1094 92.1972 68.1094 92.1972Z" fill="white"/>
<path d="M52.4297 86.1172C52.4297 86.1172 52.5527 85.933 52.7986 85.6259C53.0446 85.3188 53.475 84.9503 54.0899 84.5204C55.2582 83.6606 57.1643 82.8622 59.3779 82.6166C60.4847 82.4937 61.53 82.5552 62.5139 82.7394C63.4362 82.9236 64.2971 83.2307 64.9119 83.5992C65.5883 83.9063 66.0187 84.2748 66.3877 84.459C66.6951 84.7047 66.8796 84.8275 66.8796 84.8889C66.8181 84.9503 66.1417 84.3976 64.8505 83.7835C63.5592 83.1693 61.5915 82.678 59.4394 82.9237C57.2873 83.1079 55.3812 83.8449 54.2129 84.6433C53.1061 85.4417 52.4912 86.1172 52.4297 86.1172Z" fill="white"/>
<path d="M56.3039 69.7195C56.3654 69.658 56.9188 70.4564 58.2716 71.132C58.9479 71.5005 59.7473 71.7461 60.7311 71.869C61.7149 71.9918 62.7603 71.869 63.8056 71.4391C64.8509 71.0092 65.7117 70.3336 66.2651 69.5352C66.88 68.7982 67.249 67.9999 67.4949 67.2629C67.9253 65.8503 67.8024 64.8677 67.8638 64.9291C67.8638 64.9291 67.9253 65.1748 67.9253 65.6047C67.9253 66.0346 67.8638 66.6487 67.6794 67.3857C67.4949 68.1227 67.0645 68.9825 66.4496 69.7809C65.8347 70.5793 64.9124 71.3162 63.8671 71.7461C62.7603 72.176 61.6535 72.2989 60.6081 72.176C59.6243 72.0532 58.702 71.7461 58.0871 71.3777C57.4107 71.0092 56.9188 70.5793 56.6728 70.2722C56.4269 69.9037 56.2424 69.7195 56.3039 69.7195Z" fill="white"/>
<path d="M77.1484 107.428C77.1484 107.428 77.1484 107.244 77.2099 106.998C77.2714 106.691 77.3944 106.261 77.6404 105.77C78.1323 104.726 79.3006 103.436 81.2067 102.638C83.0514 101.778 85.6339 101.655 88.2164 102.392C89.5077 102.761 90.922 103.252 91.9058 104.48C92.3977 105.094 92.5207 106.016 92.1517 106.752C91.7828 107.489 91.1679 107.981 90.43 108.349C89.6922 108.718 88.9543 108.902 88.1549 108.902C87.3556 108.902 86.5562 108.718 86.0028 108.226C85.3879 107.735 85.0805 106.998 85.019 106.261C84.9575 105.524 85.0805 104.849 85.3265 104.173C86.3718 101.594 88.4009 99.9969 90.2456 99.1985C92.1517 98.4001 93.8119 98.2773 94.9802 98.4001C96.087 98.5229 96.7019 98.7686 96.7019 98.7686C96.7019 98.83 96.087 98.5843 94.9802 98.5229C93.8734 98.4615 92.2132 98.5843 90.3686 99.3827C89.4462 99.8126 88.5239 100.365 87.663 101.225C86.8022 102.024 86.0643 103.068 85.5724 104.296C85.3265 104.91 85.2035 105.586 85.265 106.261C85.3265 106.937 85.5724 107.612 86.1258 108.042C86.6792 108.472 87.3556 108.656 88.0935 108.656C88.8313 108.656 89.5692 108.472 90.2456 108.104C90.922 107.797 91.5368 107.305 91.7828 106.63C92.0902 106.016 91.9673 105.217 91.5368 104.726C91.1064 104.173 90.553 103.743 89.9381 103.436C89.3232 103.129 88.7084 102.945 88.032 102.761C85.5109 102.024 82.9899 102.146 81.1452 102.945C79.3005 103.682 78.0708 104.91 77.5789 105.893C77.2099 106.752 77.2099 107.428 77.1484 107.428Z" fill="white"/>
<path d="M61.2227 116.026C61.2227 115.965 62.145 115.903 63.4977 115.412C64.8505 114.921 66.6952 113.938 68.2324 112.28C69.7081 110.622 70.5075 108.718 70.8764 107.305C71.2454 105.893 71.1839 104.971 71.2454 104.971C71.2454 104.971 71.3068 105.217 71.3068 105.647C71.3068 106.077 71.2454 106.691 71.1224 107.367C70.8149 108.841 70.0771 110.806 68.4784 112.525C66.9411 114.245 65.035 115.228 63.6207 115.658C62.8829 115.903 62.3295 115.965 61.899 116.026C61.4071 116.026 61.2227 116.026 61.2227 116.026Z" fill="white"/>
<path d="M53.4751 98.2159C53.4751 98.2159 53.5981 98.1545 53.7825 98.0931C53.967 98.0316 54.2745 97.9702 54.6434 97.8474C55.3813 97.6632 56.4881 97.4175 57.9023 97.5403C58.5787 97.6017 59.378 97.7246 60.1159 98.0931C60.8538 98.4001 61.6531 98.9529 62.2065 99.6898C62.7599 100.427 63.0674 101.471 63.0059 102.453C62.9444 102.945 62.8214 103.498 62.514 103.927C62.2065 104.357 61.8376 104.787 61.2842 104.971C60.7308 105.156 60.1159 105.033 59.6855 104.664C59.2551 104.235 59.1321 103.682 59.1321 103.19C59.0706 102.146 59.3165 101.164 59.6855 100.365C60.4233 98.6458 61.8376 97.5403 63.1904 97.049C64.5431 96.5577 65.7114 96.6191 66.4493 96.7419C66.8182 96.8034 67.1256 96.8648 67.3101 96.9876C67.4946 97.049 67.6176 97.1104 67.6176 97.1104C67.6176 97.1718 67.1871 96.9876 66.4493 96.8648C65.7114 96.8034 64.5431 96.8033 63.3133 97.2947C62.0835 97.786 60.7308 98.8915 59.9929 100.488C59.624 101.287 59.4395 102.208 59.501 103.19C59.501 103.682 59.624 104.173 59.9929 104.48C60.3004 104.787 60.8538 104.849 61.2842 104.726C61.7146 104.603 62.0835 104.235 62.391 103.805C62.6369 103.375 62.7599 102.945 62.8214 102.453C62.8829 101.532 62.5755 100.55 62.0835 99.8741C61.5916 99.1371 60.8538 98.6458 60.1159 98.3387C59.378 98.0316 58.6402 97.8474 57.9638 97.786C56.611 97.6632 55.5042 97.8474 54.7664 98.0316C53.844 98.1545 53.4751 98.2159 53.4751 98.2159Z" fill="white"/>
<g opacity="0.3">
<g opacity="0.3">
<path opacity="0.3" d="M88.7699 112.096C86.1873 110.622 83.7278 109.516 81.0223 108.349C78.3168 107.121 75.7342 105.586 73.951 103.19C70.6306 98.7686 70.9996 92.32 67.6177 87.9596C67.8636 90.9075 68.0481 93.8554 68.2941 96.8033C68.4785 99.5056 68.1096 102.208 69.8313 104.05C71.307 105.586 74.1355 106.814 76.1646 107.428C80.2844 108.779 84.7116 110.744 88.7699 112.096Z" fill="black"/>
</g>
</g>
<path d="M130.398 145.812C130.398 145.812 150.443 151.34 151.243 151.647C152.472 152.077 152.226 156.498 150.382 156.437C149.521 156.376 135.009 156.99 133.165 156.867C131.32 156.744 125.786 154.595 125.786 154.595L130.398 145.812Z" fill="#85BC91"/>
<path d="M138.699 153.428C138.822 153.428 138.945 152.384 139.56 151.278C140.175 150.173 141.035 149.497 140.974 149.436C140.912 149.374 139.929 149.927 139.252 151.094C138.637 152.322 138.637 153.428 138.699 153.428Z" fill="#263238"/>
<path d="M136.608 152.506C136.731 152.506 136.916 151.585 137.469 150.541C138.022 149.497 138.637 148.76 138.576 148.699C138.514 148.637 137.715 149.313 137.161 150.418C136.608 151.462 136.547 152.506 136.608 152.506Z" fill="#263238"/>
<path d="M134.64 151.954C134.763 151.954 134.64 150.971 135.132 149.866C135.563 148.76 136.301 148.085 136.239 148.023C136.178 147.962 135.317 148.576 134.825 149.743C134.333 150.91 134.579 152.015 134.64 151.954Z" fill="#263238"/>
<path d="M135.009 149.374C135.071 149.374 135.194 148.822 135.194 147.9C135.194 147.409 135.132 146.856 135.009 146.242C134.948 145.935 134.825 145.628 134.702 145.321C134.64 145.137 134.579 144.952 134.394 144.83C134.21 144.645 133.841 144.707 133.718 144.891C133.534 145.075 133.472 145.259 133.472 145.444C133.472 145.628 133.472 145.812 133.472 145.996C133.472 146.365 133.534 146.672 133.595 146.979C133.718 147.593 133.964 148.085 134.21 148.514C134.702 149.313 135.071 149.743 135.132 149.743C135.194 149.681 134.825 149.251 134.456 148.453C134.272 148.023 134.026 147.532 133.903 146.979C133.841 146.672 133.78 146.365 133.78 146.058C133.78 145.751 133.78 145.382 133.964 145.198C134.087 145.137 134.149 145.137 134.21 145.198C134.272 145.259 134.394 145.382 134.456 145.567C134.579 145.874 134.702 146.181 134.763 146.426C134.948 146.979 135.009 147.532 135.009 147.962C135.071 148.822 134.948 149.374 135.009 149.374Z" fill="#263238"/>
<path d="M135.01 149.19C135.01 149.129 134.518 149.006 133.718 149.006C133.288 149.006 132.796 149.067 132.304 149.19C132.058 149.251 131.751 149.313 131.505 149.497C131.259 149.62 130.951 149.988 131.074 150.418C131.136 150.787 131.505 151.032 131.812 151.155C132.12 151.217 132.427 151.217 132.735 151.155C133.288 151.032 133.718 150.787 134.026 150.541C134.641 150.05 135.01 149.681 134.948 149.62C134.887 149.558 134.518 149.927 133.903 150.357C133.595 150.541 133.165 150.787 132.673 150.91C132.427 150.971 132.181 150.971 131.935 150.91C131.689 150.848 131.505 150.664 131.443 150.418C131.382 150.173 131.505 149.988 131.751 149.866C131.935 149.743 132.243 149.681 132.489 149.558C132.981 149.436 133.472 149.374 133.841 149.313C134.518 149.129 135.01 149.251 135.01 149.19Z" fill="#263238"/>
<path d="M141.773 153.673C141.896 153.673 141.773 152.813 142.142 151.892C142.511 150.971 143.187 150.418 143.126 150.357C143.064 150.295 142.265 150.725 141.835 151.769C141.466 152.752 141.712 153.673 141.773 153.673Z" fill="#263238"/>
<path d="M127.815 154.594C127.815 154.594 128.061 154.717 128.615 154.963C129.107 155.147 129.906 155.454 130.828 155.639C132.735 156.13 135.502 156.376 138.453 156.376C141.466 156.314 144.171 156.191 146.139 156.13C147.061 156.068 147.861 156.068 148.476 156.007C149.029 155.946 149.337 155.946 149.337 155.946C149.337 155.946 149.029 155.884 148.476 155.884C147.861 155.884 147.061 155.884 146.139 155.884C144.11 155.946 141.466 155.946 138.453 156.007C135.44 156.068 132.796 155.823 130.89 155.393C128.984 155.024 127.815 154.533 127.815 154.594Z" fill="#263238"/>
<path d="M127.2 155.024C127.2 155.086 127.754 154.779 128.676 154.349C129.598 153.98 130.951 153.489 132.488 153.735C134.025 153.98 135.071 154.963 135.747 155.7C136.424 156.437 136.854 156.928 136.915 156.867C136.915 156.867 136.608 156.314 135.932 155.516C135.624 155.147 135.194 154.656 134.579 154.287C134.025 153.857 133.288 153.55 132.488 153.428C130.89 153.182 129.475 153.735 128.553 154.165C127.692 154.594 127.2 154.963 127.2 155.024Z" fill="#263238"/>
<path d="M109.123 140.285C109.123 140.285 90.1842 152.691 89.5078 153.182C88.4625 153.98 89.6308 157.604 91.414 156.99C92.2748 156.683 108.139 152.261 109.861 151.585C111.582 150.91 116.194 147.163 116.194 147.163L109.123 140.285Z" fill="#85BC91"/>
<path d="M103.466 150.05C103.527 150.05 103.22 148.944 102.175 148.023C101.191 147.102 100.023 146.856 100.023 146.918C99.9611 147.04 101.006 147.348 101.929 148.269C102.913 149.129 103.404 150.111 103.466 150.05Z" fill="#263238"/>
<path d="M105.187 148.514C105.249 148.453 104.88 147.532 104.019 146.672C103.158 145.812 102.236 145.382 102.174 145.505C102.113 145.566 102.974 146.119 103.773 146.918C104.634 147.777 105.126 148.576 105.187 148.514Z" fill="#263238"/>
<path d="M106.909 147.47C106.971 147.47 106.909 146.365 106.11 145.382C105.31 144.4 104.265 144.031 104.265 144.154C104.204 144.215 105.126 144.645 105.864 145.628C106.54 146.488 106.786 147.47 106.909 147.47Z" fill="#263238"/>
<path d="M105.741 145.075C105.803 145.075 105.557 144.523 105.311 143.663C105.188 143.233 105.126 142.68 105.065 142.066C105.065 141.759 105.065 141.452 105.065 141.145C105.065 140.96 105.126 140.838 105.188 140.715C105.249 140.653 105.311 140.592 105.434 140.653C105.68 140.715 105.741 141.083 105.864 141.39C105.987 141.697 106.049 142.005 106.049 142.312C106.11 142.926 106.049 143.417 105.987 143.908C105.864 144.83 105.68 145.382 105.741 145.382C105.803 145.382 106.049 144.891 106.233 143.97C106.356 143.54 106.417 142.926 106.356 142.312C106.356 142.005 106.295 141.697 106.172 141.329C106.11 141.145 106.049 141.022 105.987 140.838C105.926 140.653 105.803 140.469 105.557 140.408C105.372 140.285 105.003 140.346 104.88 140.592C104.757 140.776 104.757 140.96 104.696 141.145C104.696 141.513 104.696 141.82 104.696 142.127C104.757 142.741 104.88 143.294 105.003 143.724C105.372 144.645 105.741 145.137 105.741 145.075Z" fill="#263238"/>
<path d="M105.741 144.891C105.741 144.952 106.233 144.707 106.97 144.522C107.339 144.461 107.831 144.338 108.323 144.338C108.569 144.338 108.877 144.338 109.123 144.4C109.369 144.461 109.553 144.584 109.553 144.83C109.553 145.075 109.43 145.321 109.246 145.444C109.061 145.567 108.815 145.628 108.569 145.689C108.077 145.751 107.585 145.628 107.216 145.567C106.479 145.321 105.987 145.137 105.987 145.198C105.987 145.259 106.417 145.505 107.155 145.812C107.524 145.935 108.016 146.058 108.569 145.996C108.815 145.996 109.123 145.935 109.43 145.751C109.737 145.567 109.922 145.259 109.922 144.83C109.922 144.4 109.491 144.154 109.184 144.093C108.877 144.031 108.569 144.031 108.323 144.031C107.77 144.093 107.278 144.154 106.909 144.277C106.11 144.584 105.679 144.891 105.741 144.891Z" fill="#263238"/>
<path d="M93.8119 156.314C93.8119 156.314 94.1193 156.13 94.3038 155.577C94.4883 155.024 94.3653 154.226 93.9349 153.55C93.7504 153.182 93.5045 152.875 93.32 152.629C93.1355 152.384 92.8896 152.076 92.7051 151.954C92.4591 151.769 92.2747 151.708 92.0902 151.708C91.9057 151.708 91.8442 151.769 91.8442 151.769C91.8442 151.831 92.2132 151.769 92.5206 152.138C92.7051 152.322 92.8896 152.568 93.074 152.813C93.2585 153.121 93.5044 153.428 93.6889 153.735C94.0578 154.41 94.1808 155.086 94.1193 155.577C93.9964 156.007 93.7504 156.253 93.8119 156.314Z" fill="#263238"/>
<path d="M100.637 151.217C100.699 151.217 100.699 150.234 99.9609 149.374C99.223 148.514 98.3007 148.33 98.3007 148.392C98.2392 148.514 99.0386 148.821 99.715 149.558C100.33 150.418 100.514 151.217 100.637 151.217Z" fill="#263238"/>
<path d="M114.226 147.839C114.226 147.839 113.919 148.023 113.365 148.392C112.812 148.76 112.074 149.251 111.029 149.804C109.983 150.357 108.754 150.91 107.339 151.462C105.925 152.015 104.265 152.506 102.605 152.998C99.2228 153.98 96.0869 154.902 93.8733 155.516C92.828 155.823 91.9057 156.13 91.2293 156.314C90.6144 156.498 90.2455 156.621 90.3069 156.683C90.3069 156.683 90.6759 156.621 91.2908 156.498C91.9672 156.314 92.8895 156.068 93.9348 155.823C96.2099 155.209 99.2843 154.349 102.666 153.366C104.388 152.875 105.987 152.384 107.401 151.831C108.815 151.278 110.106 150.664 111.09 150.111C112.136 149.558 112.873 149.006 113.365 148.576C113.98 148.146 114.226 147.9 114.226 147.839Z" fill="#263238"/>
<path d="M114.903 148.085C114.903 148.023 114.288 147.839 113.304 147.655C112.32 147.47 110.783 147.409 109.307 148.146C108.569 148.514 108.016 149.067 107.586 149.62C107.155 150.173 106.909 150.725 106.725 151.217C106.356 152.138 106.171 152.752 106.171 152.813C106.233 152.813 106.479 152.261 106.909 151.34C107.34 150.48 108.078 149.19 109.43 148.514C110.783 147.839 112.259 147.839 113.243 147.962C114.288 148.023 114.903 148.146 114.903 148.085Z" fill="#263238"/>
<path d="M148.476 110.069C148.476 110.069 154.133 112.096 154.194 118.483C154.256 130.704 129.537 144.093 129.537 144.093L96.6404 122.352L94.5498 121.492C94.5498 121.492 139.006 104.849 148.476 110.069Z" fill="#263238"/>
<path d="M113.304 133.284C113.304 133.284 113.611 133.099 114.165 132.731C114.718 132.362 115.456 131.748 116.44 131.011C118.346 129.537 120.867 127.511 123.634 125.115C126.401 122.72 128.799 120.509 130.521 118.913C131.381 118.114 132.058 117.439 132.55 116.947C133.042 116.456 133.288 116.21 133.226 116.21C133.226 116.21 132.919 116.456 132.427 116.886C131.873 117.377 131.197 117.991 130.336 118.79C128.553 120.387 126.093 122.597 123.388 124.931C120.621 127.265 118.1 129.353 116.255 130.888C115.394 131.625 114.656 132.24 114.103 132.669C113.55 133.038 113.304 133.284 113.304 133.284Z" fill="#455A64"/>
<path d="M139.191 114.614C139.191 114.552 137.715 114.368 135.993 114.921C134.272 115.412 133.103 116.333 133.165 116.395C133.226 116.456 134.395 115.719 136.055 115.228C137.777 114.736 139.191 114.736 139.191 114.614Z" fill="#455A64"/>
<path d="M136.362 112.71C136.362 112.648 135.255 113.078 134.395 114.184C133.534 115.228 133.288 116.395 133.349 116.395C133.472 116.456 133.78 115.412 134.641 114.368C135.501 113.324 136.424 112.771 136.362 112.71Z" fill="#455A64"/>
<path d="M150.32 151.278C150.32 151.217 149.951 151.155 149.46 151.524C149.029 151.892 148.66 152.568 148.537 153.428C148.414 154.287 148.599 155.024 148.845 155.516C149.091 156.007 149.337 156.253 149.337 156.253C149.398 156.191 149.214 155.946 149.029 155.454C148.845 154.963 148.722 154.287 148.845 153.489C148.968 152.752 149.275 152.077 149.644 151.708C149.951 151.401 150.32 151.34 150.32 151.278Z" fill="#263238"/>
<path d="M140.912 90.1091L129.229 119.772L78.747 120.632L77.8247 117.869L95.5335 117.254L104.019 90.9075L140.912 90.1091Z" fill="#455A64"/>
<path d="M117.362 102.945C118.039 102.515 119.207 102.699 119.76 103.19C120.314 103.682 120.56 104.603 120.252 105.34C119.945 106.077 119.207 106.568 118.408 106.63C117.608 106.691 116.686 106.138 116.501 105.34C116.317 104.542 116.563 103.375 117.362 102.945Z" fill="#EBEBEB"/>
<path d="M132.673 145.567C132.673 145.567 86.1873 115.105 84.2812 114.491C82.375 113.877 77.7633 110.867 73.1517 112.096C68.54 113.385 64.4202 117.5 62.3911 123.519C61.2228 126.958 60.6694 132.854 60.4235 137.214C60.116 142.496 61.7147 147.716 65.1581 151.708C66.6953 153.55 68.663 155.086 70.9381 155.823C71.43 155.946 71.9219 156.13 72.4138 156.191C81.2067 158.095 90.2456 154.165 95.1647 146.672L96.2715 145.014C96.2715 145.014 126.647 156.191 127.139 156.007L132.673 145.567Z" fill="#263238"/>
<path d="M75.1191 137.214C75.1191 137.214 75.1806 137.276 75.3651 137.337C75.5496 137.398 75.7955 137.521 76.103 137.644C76.7793 137.89 77.7632 138.258 79.0544 138.75C81.637 139.732 85.3878 141.145 89.9995 142.864C94.6726 144.584 100.207 146.672 106.478 148.944C112.75 151.217 119.637 153.735 127.077 156.191L127.2 156.253L127.262 156.13C128.43 153.919 129.66 151.585 130.89 149.19C131.504 147.962 132.181 146.795 132.734 145.628L132.796 145.505L132.673 145.444C118.715 136.6 106.233 128.678 97.1937 122.966C92.705 120.141 89.0771 117.869 86.5561 116.272C85.3263 115.473 84.3425 114.859 83.6661 114.491C83.3587 114.306 83.1127 114.122 82.9282 113.999C82.7438 113.877 82.6823 113.877 82.6823 113.877C82.6823 113.877 82.7438 113.938 82.9282 114.061C83.1127 114.184 83.3587 114.368 83.6661 114.552C84.3425 114.982 85.2648 115.596 86.5561 116.395C89.0771 117.991 92.6435 120.325 97.1322 123.212C106.11 128.923 118.592 136.907 132.55 145.751L132.488 145.505C131.873 146.611 131.259 147.839 130.644 149.067C129.414 151.462 128.184 153.796 127.016 156.007L127.2 155.946C119.822 153.428 112.873 150.971 106.601 148.699C100.33 146.426 94.7956 144.4 90.1224 142.68C85.4493 140.96 81.7599 139.609 79.1159 138.627C77.8247 138.135 76.8408 137.828 76.1645 137.521C75.857 137.398 75.5496 137.337 75.3651 137.276C75.2421 137.214 75.1191 137.214 75.1191 137.214Z" fill="#455A64"/>
<path d="M79.9772 29.063C80.7765 26.9135 82.4982 25.9922 84.7118 25.4395C86.9254 24.8868 89.385 25.5623 91.1067 27.0977C92.2135 28.1418 93.0743 29.5543 94.4271 30.1684C96.7022 31.2125 99.6536 29.6771 101.806 30.9668C103.097 31.7038 103.712 33.4234 103.22 34.8359C102.728 36.2485 101.191 37.1697 99.7151 36.9855C101.191 37.661 101.498 39.9334 100.453 41.2231C99.4077 42.5128 97.5015 42.8813 95.9643 42.3899C94.3656 41.96 93.0743 40.8546 91.906 39.6263C90.7992 38.398 89.8154 37.0469 88.5856 35.9414C87.3558 34.8359 85.8801 33.9147 84.2199 33.8533C82.0063 33.7919 79.9157 35.2658 78.7474 37.1697C77.5791 39.0736 77.1487 41.3459 76.8412 43.5568C76.5338 45.7677 76.2878 48.0401 75.427 50.0668C75.304 50.3124 75.181 50.5581 74.9351 50.6195C74.5661 50.6809 74.3202 50.3124 74.1357 49.9439C72.4755 46.0134 71.5532 41.7758 71.4917 37.4768C71.4917 35.0202 71.7377 32.6864 73.2749 30.7212C74.8736 28.8173 78.4399 27.589 79.9772 29.063Z" fill="#263238"/>
<path d="M74.7506 38.9507L71.3072 63.7622C70.7538 67.9998 73.7668 71.8076 78.071 72.176C82.0063 72.5445 85.5726 69.7195 86.126 65.7889C86.372 63.9465 86.618 62.3497 86.618 62.1655C86.618 62.1655 93.0128 62.4111 94.3656 56.2696C94.9805 53.2603 95.8413 46.996 96.4562 41.3459C97.1941 35.2658 93.0743 29.6157 87.0484 28.4488L86.4335 28.326C79.9157 27.4048 75.4885 32.4408 74.7506 38.9507Z" fill="#FFBE9D"/>
<path d="M86.6178 62.1041C86.6178 62.1041 82.621 61.6127 78.9932 58.1735C78.9932 58.1735 80.0385 63.0253 86.3103 63.7008L86.6178 62.1041Z" fill="#EB996E"/>
<path d="M93.8119 45.1536C93.7504 45.6449 93.2585 45.952 92.7666 45.8905C92.2747 45.8291 91.9057 45.3992 92.0287 44.9079C92.0902 44.4166 92.5821 44.1095 93.074 44.1709C93.5044 44.2323 93.8734 44.6622 93.8119 45.1536Z" fill="#263238"/>
<path d="M94.4882 44.1095C94.3652 44.2324 93.8118 43.5568 92.828 43.3726C91.9057 43.1883 91.1063 43.4954 90.9833 43.3726C90.9218 43.3111 91.1063 43.1269 91.4752 42.9427C91.8442 42.7584 92.3976 42.697 92.951 42.8198C93.5659 42.9427 93.9963 43.2497 94.2423 43.5568C94.4882 43.8639 94.5497 44.0481 94.4882 44.1095Z" fill="#263238"/>
<path d="M84.3426 43.5568C84.2812 44.0481 83.7892 44.3552 83.2973 44.2938C82.8054 44.2324 82.4365 43.8025 82.5595 43.3112C82.621 42.8199 83.1129 42.5128 83.6048 42.5742C84.0967 42.697 84.4656 43.1269 84.3426 43.5568Z" fill="#263238"/>
<path d="M85.0805 42.3899C84.9575 42.5128 84.4041 41.8372 83.4203 41.6529C82.498 41.4687 81.6986 41.7758 81.5756 41.6529C81.5141 41.5915 81.6986 41.4073 82.0675 41.223C82.4365 41.0388 82.9899 40.9774 83.5433 41.1002C84.1581 41.223 84.5886 41.5301 84.8345 41.8372C85.0805 42.1443 85.142 42.3899 85.0805 42.3899Z" fill="#263238"/>
<path d="M87.1094 50.1896C87.1094 50.1282 87.7243 50.1282 88.7081 50.1896C88.954 50.1896 89.2 50.1896 89.2615 50.0668C89.3845 49.8825 89.323 49.6369 89.2615 49.3298C89.1385 48.7157 89.0155 48.0401 88.8926 47.3031C88.4006 44.478 88.1547 42.1443 88.2162 42.1443C88.3392 42.1443 88.8311 44.4166 89.2615 47.2417C89.3845 47.9173 89.5074 48.5928 89.5689 49.2684C89.6304 49.5755 89.6919 49.8825 89.5074 50.251C89.3845 50.4353 89.2 50.4967 89.0155 50.4967C88.8311 50.4967 88.7081 50.4967 88.5851 50.4967C87.7243 50.3739 87.1094 50.251 87.1094 50.1896Z" fill="#263238"/>
<path d="M84.1583 50.251C84.3427 50.251 84.0968 51.295 84.8346 52.2162C85.5725 53.1375 86.6793 53.2603 86.6793 53.3831C86.6793 53.4445 86.3719 53.506 85.9414 53.4445C85.511 53.3831 84.8346 53.076 84.4042 52.5233C83.9738 51.9706 83.8508 51.295 83.9123 50.8651C83.9738 50.4966 84.0968 50.251 84.1583 50.251Z" fill="#263238"/>
<path d="M86.0646 38.7051C85.9416 38.9507 85.0192 38.6437 83.8509 38.5208C82.6827 38.398 81.7603 38.5822 81.6373 38.2752C81.5759 38.1523 81.8218 37.9681 82.1907 37.7839C82.6212 37.5996 83.2361 37.4768 83.9124 37.5382C84.5888 37.5996 85.2037 37.8453 85.5726 38.0909C85.9416 38.398 86.126 38.6437 86.0646 38.7051Z" fill="#263238"/>
<path d="M94.6726 41.2845C94.4881 41.4687 93.8732 41.1002 93.0739 40.916C92.2745 40.7317 91.5981 40.7931 91.4752 40.4861C91.4137 40.3632 91.5981 40.179 91.9056 39.9948C92.213 39.8719 92.7664 39.7491 93.3198 39.8719C93.8732 39.9948 94.3036 40.3018 94.5496 40.5475C94.7341 40.9774 94.7955 41.223 94.6726 41.2845Z" fill="#263238"/>
<path d="M74.32 43.6797C74.197 43.6183 70.3232 41.5916 69.5854 45.8292C68.8475 50.0668 73.3362 49.944 73.3362 49.8211C73.3977 49.6983 74.32 43.6797 74.32 43.6797Z" fill="#FFBE9D"/>
<path d="M72.291 47.9787C72.291 47.9787 72.2295 48.0401 72.045 48.0401C71.9221 48.1015 71.6761 48.1015 71.4916 47.9787C71.0612 47.733 70.8153 46.9346 70.9382 46.1977C70.9997 45.8292 71.1227 45.4607 71.3072 45.1536C71.4916 44.8465 71.7376 44.6623 71.9835 44.6623C72.2295 44.6623 72.3525 44.7851 72.414 44.9694C72.4755 45.0922 72.414 45.1536 72.414 45.215C72.414 45.215 72.5369 45.1536 72.5369 44.9694C72.5369 44.908 72.4755 44.7851 72.414 44.6623C72.3525 44.5395 72.168 44.4781 72.045 44.4781C71.7376 44.4166 71.3687 44.7237 71.1842 45.0308C70.9382 45.3379 70.8153 45.7678 70.7538 46.1977C70.6308 47.0575 70.9382 47.9173 71.5531 48.2244C71.8606 48.3472 72.1065 48.2858 72.2295 48.2244C72.291 48.0401 72.3525 47.9787 72.291 47.9787Z" fill="#EB996E"/>
<path d="M97.9933 40.3019C95.1033 40.4861 92.1519 39.1964 90.3687 36.9241C89.1389 35.3273 88.3395 33.3006 86.5564 32.318C85.3881 31.6424 83.9123 31.6424 82.6211 32.0723C81.3298 32.5022 80.1615 33.3006 79.1777 34.1604C79.7311 37.5382 78.2554 40.916 76.7796 43.9867C76.5952 44.3552 76.4107 44.7237 76.1033 44.8465C75.5499 45.1536 74.812 44.6623 74.5045 44.1096C73.9511 43.2498 73.8896 42.1443 73.8896 41.1003C73.9511 38.7665 74.3201 36.3713 75.3039 34.2218C76.2877 32.0723 77.7635 30.1684 79.7926 28.8787C82.2521 27.282 85.3881 26.8521 88.2781 27.4662C91.168 28.0803 93.7506 29.7385 95.7182 31.9495C96.6405 32.9935 97.4399 34.1604 97.7473 35.4501" fill="#263238"/>
</svg>
