<svg width="213" height="175" viewBox="0 0 213 175" fill="none" xmlns="http://www.w3.org/2000/svg">
<g clip-path="url(#clip0)">
<path d="M38.6002 143.3L22.5002 135.1C18.3002 133.3 16.7002 132.2 17.1002 131.5C17.6002 130.5 17.4002 130.9 25.5002 133.1C25.5002 133.1 14.0002 129.8 17.0002 128.6C17.5002 128.4 19.4002 128.7 21.4002 129.1C18.5002 128.1 17.4002 127.1 17.6002 126.3C17.9002 125 24.8002 126.6 28.0002 127.4C25.4002 126.7 20.3002 125.3 19.3002 124.6C17.9002 123.7 19.8002 123.1 21.6002 123C23.6002 122.9 35.1002 124 38.4002 124.1C40.7002 124.2 40.7002 122.2 40.7002 122.2C40.0002 117.4 42.0002 113.3 43.1002 112.4C44.2002 111.5 45.7002 112.7 45.3002 114.2C45.0002 115.4 45.0002 117.5 45.1002 119.1C45.2002 120.4 45.5002 121.7 46.0002 122.9C46.6002 124.3 47.1002 125.5 47.6002 126.5L60.7002 139.6L50.0002 153L38.6002 143.3Z" fill="#FFBE9D"/>
<path d="M29.7002 134.7C29.6002 134.9 27.1002 134.3 24.1002 133.4C21.1002 132.5 18.6002 131.6 18.7002 131.4C18.8002 131.2 21.3002 131.8 24.3002 132.7C27.3002 133.6 29.7002 134.5 29.7002 134.7Z" fill="#EB996E"/>
<path d="M31.8004 131.3C31.8004 131.5 29.0004 131 25.8004 130.3C22.5004 129.5 19.9004 128.7 19.9004 128.5C19.9004 128.3 22.7004 128.8 25.9004 129.5C29.2004 130.3 31.8004 131.1 31.8004 131.3Z" fill="#EB996E"/>
<path d="M33.4006 128.4C33.4006 128.6 30.8006 128.2 27.7006 127.5C24.6006 126.8 22.1006 126.1 22.1006 125.9C22.1006 125.7 24.7006 126.1 27.8006 126.8C31.0006 127.5 33.5006 128.2 33.4006 128.4Z" fill="#EB996E"/>
<path d="M109.701 32.2C113.801 30.9 118.101 34.6 122.301 33.8C124.901 33.3 126.801 31.3 129.001 30C132.401 28.1 137.201 27.8 140.701 29.6C144.201 31.4 146.401 33.2 146.901 37.1C150.101 35.3 155.301 39.3 157.101 43.1C158.901 46.9 158.401 50.9 157.401 55C155.601 62.1 152.501 68.8 148.201 74.6C147.801 75.1 147.201 75.7 146.601 75.4C146.201 75.2 146.101 74.7 146.001 74.3C145.401 70.5 145.901 66.7 146.201 62.9C146.501 59.1 146.701 55.2 145.501 51.6C144.301 48 141.501 44.7 137.801 44C135.001 43.5 132.201 44.4 129.701 45.7C127.301 47.1 125.101 48.9 122.801 50.5C120.501 52.1 117.801 53.4 115.001 53.5C112.201 53.6 109.201 52.3 108.001 49.8C106.801 47.3 108.101 43.6 110.901 43.1C108.401 42.9 106.201 40.7 105.901 38.2C105.601 35.5 107.301 33 109.701 32.2Z" fill="#263238"/>
<path d="M151.4 56.1L147.3 98.5C146.6 105.7 139 116.4 131.9 115.4C125.2 114.4 121.4 102.8 122.1 96.1C122.4 92.9 122.7 90.2 122.7 89.9C122.7 89.9 112 87.8 112.2 77.1C112.3 71.9 113.4 61.2 114.6 51.5C115.8 41.1 124.8 33.4 135.2 33.8H136.2C147.5 34.9 152.8 45 151.4 56.1Z" fill="#FFBE9D"/>
<path d="M122.7 89.8C122.7 89.8 129.5 90.6 136.9 86.3C136.9 86.3 133.3 93.9 122.6 92.6L122.7 89.8Z" fill="#EB996E"/>
<path d="M117.5 58.8C117.4 59.6 118.1 60.3 118.9 60.4C119.7 60.5 120.5 59.9 120.5 59.1C120.6 58.3 119.9 57.6 119.1 57.5C118.3 57.4 117.5 58 117.5 58.8Z" fill="#263238"/>
<path d="M116.7 56.9C116.9 57.1 118.1 56.3 119.7 56.3C121.4 56.3 122.5 57.2 122.7 57C122.8 56.9 122.6 56.5 122.1 56.1C121.6 55.7 120.7 55.3 119.7 55.3C118.7 55.3 117.8 55.6 117.3 56C116.8 56.4 116.6 56.8 116.7 56.9Z" fill="#263238"/>
<path d="M133.7 60C133.6 60.8 134.3 61.5 135.1 61.6C135.9 61.7 136.7 61.1 136.7 60.3C136.8 59.5 136.1 58.8 135.3 58.7C134.5 58.6 133.7 59.2 133.7 60Z" fill="#263238"/>
<path d="M133 57.8C133.2 58 134.4 57.2 136 57.2C137.7 57.2 138.8 58.1 139 57.9C139.1 57.8 138.9 57.4 138.4 57C137.9 56.6 137 56.2 136 56.2C135 56.2 134.1 56.5 133.6 56.9C133.1 57.3 132.9 57.7 133 57.8Z" fill="#263238"/>
<path d="M126.499 69.8C126.499 69.7 125.499 69.5 123.799 69.2C123.399 69.1 122.999 69 122.899 68.8C122.799 68.5 122.999 68 123.199 67.6C123.599 66.6 124.099 65.5 124.599 64.4C126.499 59.9 127.899 56.2 127.699 56.1C127.499 56 125.799 59.6 123.899 64.1C123.399 65.2 122.999 66.3 122.599 67.3C122.399 67.8 122.099 68.3 122.299 69C122.399 69.3 122.699 69.6 122.999 69.6C123.299 69.7 123.499 69.7 123.699 69.7C125.499 69.9 126.499 69.9 126.499 69.8Z" fill="#263238"/>
<path d="M131.4 71.1C131.1 71.1 131.1 72.9 129.5 74.1C127.9 75.3 126 75.1 126 75.3C126 75.4 126.4 75.7 127.2 75.7C128 75.8 129.2 75.5 130.1 74.8C131.1 74.1 131.5 73 131.6 72.3C131.7 71.6 131.5 71.1 131.4 71.1Z" fill="#263238"/>
<path d="M132.799 51.3C132.899 51.8 134.599 51.6 136.499 51.9C138.399 52.2 139.999 52.8 140.299 52.4C140.399 52.2 140.199 51.8 139.499 51.3C138.899 50.8 137.899 50.4 136.699 50.2C135.499 50 134.499 50.2 133.699 50.4C133.099 50.7 132.699 51.1 132.799 51.3Z" fill="#263238"/>
<path d="M117.5 52.1C117.8 52.5 118.9 52.1 120.3 52.2C121.7 52.2 122.8 52.5 123.1 52.2C123.2 52 123.1 51.6 122.6 51.3C122.1 50.9 121.3 50.6 120.3 50.6C119.4 50.6 118.5 50.9 118 51.3C117.6 51.6 117.4 51.9 117.5 52.1Z" fill="#263238"/>
<path d="M150.301 64C150.501 63.9 157.801 62.1 157.301 69.4C156.801 76.8 149.501 74.7 149.501 74.5C149.501 74.4 150.301 64 150.301 64Z" fill="#FFBE9D"/>
<path d="M151.901 72C151.901 72 152.001 72.1 152.201 72.2C152.401 72.3 152.801 72.4 153.201 72.3C154.001 72.1 154.701 70.9 154.901 69.6C155.001 68.9 154.901 68.3 154.701 67.7C154.501 67.1 154.201 66.7 153.801 66.7C153.401 66.6 153.101 66.8 153.001 67C152.901 67.2 152.901 67.3 152.901 67.4C152.901 67.4 152.801 67.3 152.801 67C152.801 66.9 152.901 66.7 153.101 66.6C153.301 66.5 153.601 66.4 153.801 66.5C154.401 66.6 154.801 67.1 155.101 67.7C155.401 68.3 155.501 69 155.401 69.8C155.301 71.3 154.401 72.6 153.301 72.8C152.801 72.9 152.401 72.7 152.101 72.5C151.901 72.1 151.901 72 151.901 72Z" fill="#EB996E"/>
<path d="M112.4 49.2C117.1 50.6 122.5 49.6 126.3 46.6C129 44.5 131.1 41.4 134.4 40.5C136.6 39.9 139.1 40.5 141.1 41.6C143.1 42.8 144.7 44.6 146 46.4C143.7 51.8 144.9 58 146.1 63.7C146.2 64.3 146.4 65 146.9 65.4C147.7 66.1 149.1 65.6 149.9 64.9C151.2 63.7 151.7 61.9 152.1 60.2C152.9 56.3 153.2 52.2 152.4 48.3C151.7 44.4 149.9 40.6 147.1 37.7C143.6 34.1 138.6 32.1 133.6 32C128.6 31.9 123.6 33.6 119.5 36.5C117.6 37.8 115.8 39.5 114.8 41.5" fill="#263238"/>
<path d="M106.5 34.7C106.5 34.7 106.4 34.9 106.5 35.3C106.6 35.7 106.9 36.3 107.5 36.9C108.1 37.4 109.1 37.8 110.2 37.9C110.8 37.9 111.4 38 112 37.9C112.6 37.8 113.3 37.6 113.9 37.1C114.5 36.6 114.9 35.9 114.9 35.1C114.9 34.2 114.2 33.5 113.4 33.2C113 33 112.5 32.9 112.1 33C111.6 33 111.2 33.2 110.8 33.5C110 34.1 109.6 35.1 109.6 36C109.6 37 110 38 110.7 38.7C111.4 39.5 112.3 40 113.3 40.3C115.3 40.9 117.6 40.6 119.6 39.8C121.7 39 123.5 37.9 125.2 36.7C126.9 35.6 128.5 34.5 130.2 33.7C131.9 32.9 133.7 32.5 135.3 32.6C136.9 32.7 138.4 33.2 139.7 33.9C142.2 35.3 143.6 37.2 144.4 38.5C144.8 39.2 145.1 39.7 145.3 40.1C145.5 40.5 145.6 40.7 145.6 40.7C145.6 40.7 145.6 40.6 145.6 40.5C145.6 40.4 145.5 40.2 145.4 40.1C145.2 39.7 145 39.1 144.6 38.5C143.8 37.1 142.4 35.2 139.9 33.7C138.7 33 137.1 32.5 135.4 32.3C133.7 32.2 131.9 32.6 130.1 33.3C128.4 34.1 126.7 35.2 125 36.3C123.3 37.4 121.5 38.6 119.5 39.3C117.5 40.1 115.3 40.4 113.4 39.8C112.5 39.5 111.6 39 110.9 38.3C110.3 37.6 109.9 36.7 109.9 35.8C109.9 34.9 110.3 34 110.9 33.5C111.5 33 112.5 32.9 113.2 33.2C113.9 33.5 114.5 34.1 114.5 34.9C114.5 35.6 114.1 36.3 113.6 36.7C113.1 37.1 112.4 37.4 111.8 37.5C111.2 37.6 110.6 37.6 110 37.6C108.9 37.5 108 37.2 107.4 36.7C106.8 36.2 106.5 35.6 106.4 35.2C106.5 34.9 106.5 34.7 106.5 34.7Z" fill="#455A64"/>
<path d="M158.101 49.4C158.101 49.3 157.301 49.8 155.801 49.9C155.101 49.9 154.201 49.9 153.301 49.6C152.401 49.3 151.501 48.8 150.601 48.2C148.801 46.9 147.901 45.1 147.501 43.7C147.101 42.3 147.201 41.4 147.101 41.4C147.101 41.4 147.001 41.6 147.001 42C147.001 42.4 147.001 43 147.201 43.7C147.501 45.1 148.501 47.1 150.401 48.4C151.301 49.1 152.301 49.6 153.201 49.8C154.101 50.1 155.001 50.2 155.801 50.1C156.501 50 157.101 49.8 157.501 49.6C157.901 49.6 158.101 49.5 158.101 49.4Z" fill="#455A64"/>
<path d="M157.601 54.7C157.601 54.6 156.701 54.8 155.301 54.7C153.901 54.6 152.001 54.1 150.301 52.9C148.601 51.7 147.501 50 146.901 48.8C146.301 47.5 146.201 46.7 146.101 46.7C146.101 46.7 146.101 46.9 146.201 47.3C146.301 47.7 146.401 48.2 146.701 48.9C147.201 50.2 148.301 52 150.101 53.2C151.901 54.5 153.901 54.9 155.301 55C156.001 55 156.601 55 157.001 54.9C157.401 54.8 157.601 54.8 157.601 54.7Z" fill="#455A64"/>
<path d="M138.201 65C138.301 65 138.401 65 138.401 64.8C138.401 64.7 138.401 64.6 138.301 64.6C138.201 64.6 138.101 64.6 138.101 64.8C138.101 64.9 138.101 65 138.201 65Z" fill="#EB996E"/>
<path d="M135.1 64.2C135.2 64.2 135.3 64.1 135.3 64C135.3 63.9 135.3 63.8 135.2 63.7C135.1 63.7 135 63.8 135 63.9C134.9 64 135 64.1 135.1 64.2Z" fill="#EB996E"/>
<path d="M133.001 64C133.101 64 133.201 63.9 133.201 63.7C133.201 63.5 133.201 63.4 133.101 63.4C133.001 63.4 132.901 63.5 132.901 63.7C132.801 63.9 132.901 64 133.001 64Z" fill="#EB996E"/>
<path d="M136.6 66.9C136.7 66.9 136.8 66.9 136.8 66.8C136.8 66.7 136.7 66.7 136.6 66.7C136.5 66.7 136.4 66.7 136.4 66.8C136.4 66.9 136.5 66.9 136.6 66.9Z" fill="#EB996E"/>
<path d="M133.701 66.1C133.801 66.1 133.901 66 133.901 65.9C133.901 65.8 133.801 65.7 133.701 65.7C133.601 65.7 133.501 65.8 133.501 65.9C133.601 66 133.601 66.1 133.701 66.1Z" fill="#EB996E"/>
<path d="M118.701 63.8C118.801 63.8 118.901 63.8 118.901 63.6C118.901 63.5 118.901 63.4 118.801 63.4C118.701 63.4 118.601 63.4 118.601 63.6C118.501 63.7 118.601 63.8 118.701 63.8Z" fill="#EB996E"/>
<path d="M116.6 63.5C116.7 63.5 116.8 63.4 116.8 63.3C116.8 63.2 116.7 63.1 116.6 63C116.5 63 116.4 63.1 116.4 63.2C116.4 63.4 116.5 63.5 116.6 63.5Z" fill="#EB996E"/>
<path d="M120.6 63.9C120.7 63.9 120.8 63.9 120.8 63.8C120.8 63.7 120.8 63.6 120.7 63.6C120.6 63.6 120.5 63.6 120.5 63.7C120.4 63.8 120.5 63.9 120.6 63.9Z" fill="#EB996E"/>
<path d="M118.901 66C119.001 66 119.101 66 119.201 65.9C119.301 65.8 119.201 65.7 119.101 65.6C119.001 65.6 118.901 65.6 118.801 65.7C118.801 65.9 118.801 66 118.901 66Z" fill="#EB996E"/>
<path d="M117.101 65.6C117.201 65.6 117.301 65.5 117.201 65.4C117.201 65.3 117.101 65.3 117.001 65.3C116.901 65.3 116.801 65.4 116.901 65.5C116.901 65.6 117.001 65.6 117.101 65.6Z" fill="#EB996E"/>
<path d="M154.801 74.1C154.701 74.1 155.101 74.7 154.901 75.8C154.801 76.3 154.601 76.9 154.001 77.3C153.501 77.7 152.701 78 152.001 77.8C151.301 77.6 150.701 77 150.601 76.3C150.501 75.7 150.701 75 151.001 74.6C151.501 73.7 152.201 73.4 152.101 73.3C152.101 73.2 151.301 73.4 150.801 74.4C150.501 74.9 150.201 75.5 150.301 76.3C150.401 77.1 151.001 77.8 151.901 78.1C152.801 78.4 153.701 78 154.201 77.6C154.801 77.1 155.001 76.4 155.101 75.9C155.201 75.3 155.001 74.9 154.901 74.6C154.901 74.2 154.801 74 154.801 74.1Z" fill="#263238"/>
<path d="M154.8 72.8C154.8 72.8 154.5 72.9 154.4 73.3C154.3 73.5 154.3 73.8 154.4 74C154.5 74.3 154.7 74.5 155.1 74.6C155.4 74.7 155.8 74.6 156 74.4C156.2 74.2 156.3 73.9 156.3 73.7C156.3 73.2 155.9 73.1 155.9 73.2C155.9 73.2 156 73.4 156 73.7C156 73.9 155.9 74 155.8 74.1C155.6 74.2 155.4 74.3 155.2 74.2C155 74.1 154.8 74 154.7 73.8C154.6 73.6 154.6 73.4 154.6 73.3C154.7 73 154.9 72.9 154.8 72.8Z" fill="#263238"/>
<path d="M170.1 171.2L172.3 102.4L150.7 97.8L148.4 94L133.8 103.4L130.9 110L127.4 102.5L122.2 98.5L119.8 103.2L103.5 109.9C102 110.5 100.7 111.7 100 113.1L81.7 149.6L49.2 127.1L39 144.8L76.6 176.8C83.6 181.3 92.9 179.4 97.7 172.6L107.3 158.9L111.3 181.9L112 205.3L140.3 210.6L179.9 206.9L170.1 171.2Z" fill="#85BC91"/>
<path d="M172.3 102.4C172.3 102.4 158.8 106.5 157.8 120.2C156.7 133.9 156.2 173 156.2 173C156.2 173 154.1 174.6 154.6 176.2C155.1 177.8 115.7 199.8 115.7 199.8L123.6 213.5C123.6 213.5 148.7 210.5 176.8 195.8C191.2 188.3 185.5 129.2 185.3 128.5C185.1 127.6 181.5 102.4 172.3 102.4Z" fill="#85BC91"/>
<path d="M111.4 182C111.4 182 111.3 181.8 111.2 181.4C111.1 181 111 180.4 110.9 179.7C110.6 178.2 110.2 176.1 109.7 173.5C109.2 170.9 108.7 167.7 108 164.3C107.7 162.6 107.4 160.7 107 158.9C106.7 157 106.5 155 106.2 153C105.2 145 104.2 137.7 103.6 132.4C103.3 129.8 103 127.7 102.9 126.1C102.8 125.4 102.8 124.8 102.7 124.4C102.7 124 102.7 123.8 102.7 123.8C102.7 123.8 102.8 124 102.8 124.4C102.9 124.8 103 125.4 103.1 126.1C103.3 127.6 103.6 129.8 104 132.3C104.7 137.6 105.7 144.9 106.8 152.9C107.1 154.9 107.3 156.9 107.6 158.8C107.9 160.7 108.2 162.5 108.5 164.2C109.1 167.7 109.6 170.8 110.1 173.4C110.5 176 110.9 178.1 111.1 179.6C111.2 180.3 111.3 180.9 111.3 181.3C111.4 181.8 111.4 182 111.4 182Z" fill="#263238"/>
<path d="M123.6 213.5C123.6 213.5 123.5 213.4 123.4 213.3C123.3 213.1 123.2 212.9 123 212.6C122.6 212 122.1 211.1 121.4 209.9C120 207.5 118 204.1 115.5 199.8L115.4 199.6L115.6 199.5C120.7 197.6 126.7 194.2 133.1 190C139.6 185.8 146.6 180.6 154.8 176.3L154.7 176.7C153.6 174.8 154.9 172 157.2 171.8L157 172C157.1 171 157.3 169.9 157.4 168.8C158.6 159.1 158.9 149.8 158.5 141.4C158.3 137.2 157.9 133.2 157.7 129.4C157.5 125.6 157.5 122.1 157.9 118.9C158.3 115.7 159.3 112.9 160.4 110.6C161.6 108.3 162.9 106.6 164.3 105.3C165.6 104.1 166.8 103.3 167.6 102.9C168 102.7 168.4 102.5 168.6 102.4C168.8 102.3 168.9 102.3 168.9 102.3C169 102.4 167 103 164.4 105.5C163.1 106.7 161.8 108.5 160.7 110.7C159.6 113 158.7 115.7 158.3 118.9C157.9 122.1 157.9 125.6 158.2 129.3C158.5 133 158.9 137 159.1 141.3C159.5 149.8 159.3 159.1 158.1 168.8C158 169.9 157.8 171 157.7 172V172.2H157.5C155.6 172.4 154.5 174.9 155.4 176.4L155.5 176.6L155.3 176.7C147.2 181 140.2 186.2 133.7 190.4C127.2 194.6 121.2 197.9 116.1 199.9L116.2 199.7C118.6 204 120.6 207.5 121.9 209.8C122.5 211 123.1 211.9 123.4 212.5C123.6 212.8 123.7 213 123.8 213.2C123.6 213.4 123.7 213.5 123.6 213.5Z" fill="#263238"/>
<path d="M164 180C163.8 180.1 163.2 177.7 161.2 175.5C159.3 173.3 157 172.4 157.1 172.2C157.1 172.1 159.6 172.8 161.6 175.1C163.6 177.4 164.1 180 164 180Z" fill="#263238"/>
<path d="M126.3 102.5C126.3 102.5 126.2 102.7 126 103C125.8 103.3 125.6 103.8 125.4 104.5C125 105.8 124.6 107.6 124.3 109.7L124.2 110.5L123.8 109.9C123.8 109.8 123.7 109.8 123.7 109.7C122.6 107.9 121.7 106.1 120.9 105C120.1 103.8 119.5 103.2 119.6 103.2C119.6 103.2 120.4 103.7 121.2 104.8C122.1 105.9 123 107.7 124.1 109.5C124.1 109.6 124.2 109.6 124.2 109.7L123.7 109.8C123.9 107.7 124.4 105.8 124.9 104.5C125.2 103.9 125.4 103.4 125.7 103C126.1 102.6 126.3 102.5 126.3 102.5Z" fill="#263238"/>
<path d="M148.5 99.9C148.5 100 147.3 100.8 145.5 102.3C143.7 103.8 141.4 106 139.2 108.9C138.3 110.1 137.5 111.2 136.9 112.4L136.6 112.9L136.4 112.4C135.6 110 134.9 107.9 134.4 106.4C133.9 104.9 133.7 104 133.7 104C133.8 104 134.1 104.8 134.7 106.3C135.3 107.7 136 109.8 136.9 112.2H136.5C137.2 111.1 137.9 109.9 138.8 108.7C141 105.8 143.4 103.6 145.3 102.2C146.2 101.5 147 101 147.6 100.6C148.1 100 148.5 99.9 148.5 99.9Z" fill="#263238"/>
<path d="M133.7 174.9C133.7 174.9 133.6 174.7 133.6 174.3C133.5 173.8 133.5 173.2 133.4 172.5C133.2 170.9 133 168.7 132.7 165.9C132.2 160.3 131.5 152.6 131 144C130.5 135.4 130.2 127.7 130 122.1C129.9 119.3 129.9 117 129.9 115.4C129.9 114.7 129.9 114.1 129.9 113.6C129.9 113.2 129.9 113 129.9 113C129.9 113 129.9 113.2 130 113.6C130 114.1 130.1 114.7 130.1 115.4C130.2 117 130.3 119.3 130.4 122C130.6 127.6 131 135.4 131.5 143.9C132 152.5 132.6 160.2 133 165.8C133.2 168.6 133.4 170.8 133.5 172.4C133.5 173.1 133.6 173.7 133.6 174.2C133.7 174.7 133.7 174.9 133.7 174.9Z" fill="#263238"/>
<path d="M153.6 157.9C153.6 157.9 153.3 158.3 152.7 159C152.1 159.7 151.2 160.7 150 162C147.7 164.4 144.4 167.7 140.5 171C136.6 174.3 132.8 177 130 178.9C128.6 179.8 127.5 180.5 126.6 181C125.8 181.5 125.3 181.7 125.3 181.7C125.3 181.7 125.7 181.4 126.5 180.8C127.3 180.2 128.4 179.5 129.8 178.6C132.5 176.7 136.2 173.9 140.1 170.7C144 167.4 147.3 164.2 149.7 161.8C150.8 160.7 151.7 159.7 152.5 159C153.2 158.3 153.6 157.9 153.6 157.9Z" fill="#263238"/>
<g opacity="0.3">
<path opacity="0.3" d="M107 159.5C106.7 152.4 105.6 145.2 104.3 138.2C103.4 148.9 101.9 159.7 99.4004 170.2L107 159.5Z" fill="black"/>
</g>
<g opacity="0.3">
<path opacity="0.3" d="M130.8 109.9C131.8 109.1 133 109.7 133.6 110.9C134.2 112.1 134.1 113.5 134.1 114.8C134.1 115.5 134.2 116.3 134.5 116.9C134.8 117.5 135.5 118.1 136.2 118C137.1 118 137.7 117.2 138.2 116.5C142.2 111 145.9 105.3 149.3 99.5C143.7 101.7 140 106.9 136.4 112.6C136.3 112.7 133.5 103.6 133.5 103.6C132.9 105.6 131.6 108 130.8 109.9Z" fill="black"/>
</g>
<g opacity="0.3">
<path opacity="0.3" d="M119.3 103.3C121.4 108 124.1 112.5 127.4 116.4C127.6 113.2 127.4 109.9 126.7 106.7C127.7 107.4 129.7 109.1 130.8 109.8C130.8 109.8 128.6 105 127.7 103.3C127.5 102.8 127.1 102.3 126.6 102.3C126 102.3 125.7 103 125.6 103.6C125.1 105.5 124.6 107.4 124.1 109.3C123.2 106.8 121.6 104.6 119.6 102.8" fill="black"/>
</g>
<g opacity="0.3">
<path opacity="0.3" d="M126.4 180.9C125.9 177.8 127.2 174.5 129.7 172.6C131.6 171.1 134.1 170.5 136.1 169.1C139.4 166.6 140.7 161.8 144.4 159.8C145.8 159.1 147.9 159.1 148.5 160.5C149.1 161.8 148 163.2 147.1 164.2C140.9 170.6 134 176.2 126.4 180.8" fill="black"/>
</g>
<g opacity="0.2">
<path opacity="0.2" d="M81.2 149.4C82.8 151.2 84 155.9 83.8 158.3C83.6 160.7 83.1 161.3 83.3 163.7C83.3 164.1 82.6 164.3 82.9 164.6C83.5 165.1 84.4 164.6 84.7 163.9C85 163.2 84.8 162.4 84.6 161.7C84.5 162.6 85.6 163.3 86.5 163.1C87.4 162.9 88 162 88.2 161.1C88.4 160.2 88.2 159.3 88 158.4C87.6 156.3 87.1 154.3 86 152.5C84.9 150.7 83.1 149.2 81 149" fill="black"/>
</g>
<path d="M83.1996 164.2C82.9996 164.2 83.9996 160.8 83.3996 156.5C82.8996 152.3 81.0996 149.2 81.2996 149.1C81.3996 149.1 81.8996 149.8 82.3996 151.1C82.9996 152.4 83.5996 154.3 83.8996 156.4C84.1996 158.6 83.9996 160.5 83.7996 161.9C83.5996 163.4 83.1996 164.2 83.1996 164.2Z" fill="#263238"/>
<path d="M46.2002 36.4C46.2002 38.1 47.6002 39.5 49.3002 39.5C51.0002 39.5 52.4002 38.1 52.4002 36.4C52.4002 34.7 51.0002 33.3 49.3002 33.3C47.6002 33.3 46.2002 34.6 46.2002 36.4Z" fill="#263238"/>
<path d="M36.8998 39.5C38.6119 39.5 39.9998 38.1121 39.9998 36.4C39.9998 34.6879 38.6119 33.3 36.8998 33.3C35.1877 33.3 33.7998 34.6879 33.7998 36.4C33.7998 38.1121 35.1877 39.5 36.8998 39.5Z" fill="#263238"/>
<path d="M21.3002 34.8C20.4002 36.3 21.0002 38.2 22.4002 39.1C23.9002 40 25.8002 39.4 26.7002 38C27.6002 36.5 27.0002 34.6 25.6002 33.7C24.1002 32.8 22.2002 33.3 21.3002 34.8Z" fill="#263238"/>
<path d="M36.7002 0C36.7002 0 36.5002 0 36.1002 0C35.6002 0 35.0002 0 34.3002 0.1C33.9002 0.1 33.4002 0.1 32.9002 0.2C32.4002 0.3 31.9002 0.3 31.3002 0.4C30.7002 0.5 30.1002 0.6 29.4002 0.7C28.7002 0.9 28.0002 1 27.3002 1.2C24.3002 2 20.7002 3.3 17.0002 5.7C13.2002 8 9.30022 11.4 6.20022 16C3.10022 20.6 0.800224 26.4 0.200224 33C0.100224 34.6 -0.0997761 36.3 0.100224 38C0.200224 38.8 0.100224 39.7 0.300224 40.5C0.400224 41.3 0.600224 42.2 0.700224 43.1C1.40022 46.5 2.40022 50 4.20022 53.2C5.90022 56.5 8.10022 59.6 10.8002 62.3C13.6002 65 16.8002 67.4 20.3002 69.2C23.9002 71 27.8002 72.3 31.9002 72.8C32.9002 73 34.0002 73 35.0002 73.1C36.0002 73.2 37.1002 73.2 38.1002 73.2C40.2002 73.1 42.3002 72.9 44.4002 72.4C48.9002 71.4 53.2002 69.6 56.9002 67.1H56.5002C60.8002 68.8 65.1002 70.5 69.2002 72.2L70.0002 72.5L69.8002 71.7C68.5002 67 67.3002 62.5 66.1002 58.1L66.0002 58.4C69.6002 53.6 71.9002 48.2 72.8002 42.8C73.3002 40.1 73.5002 37.4 73.3002 34.8C73.2002 33.5 73.2002 32.2 72.9002 31C72.8002 30.4 72.7002 29.8 72.6002 29.1C72.5002 28.5 72.3002 27.9 72.2002 27.3C69.7002 17.8 63.8002 10.7 58.0002 6.7C55.1002 4.6 52.2002 3.2 49.5002 2.2C48.8002 2 48.2002 1.7 47.6002 1.5C47.0002 1.3 46.4002 1.2 45.8002 1C45.2002 0.9 44.7002 0.7 44.1002 0.6C43.6002 0.5 43.1002 0.4 42.6002 0.4C41.6002 0.3 40.8002 0.1 40.0002 0.1C39.3002 0.1 38.6002 0.1 38.1002 0C37.6002 0 37.2002 0 37.0002 0C36.8002 0 36.7002 0 36.7002 0C36.7002 0 36.8002 0 37.1002 0.1C37.4002 0.1 37.8002 0.2 38.2002 0.2C38.7002 0.2 39.3002 0.3 40.1002 0.3C40.8002 0.4 41.7002 0.5 42.6002 0.7C46.3002 1.4 52.0002 2.8 57.7002 7C63.4002 11.1 69.2002 18.1 71.6002 27.5C71.7002 28.1 71.9002 28.7 72.0002 29.3C72.1002 29.9 72.2002 30.5 72.3002 31.1C72.5002 32.3 72.6002 33.6 72.6002 34.9C72.8002 37.4 72.6002 40.1 72.1002 42.7C71.2002 48 68.9002 53.3 65.4002 58L65.3002 58.2L65.4002 58.4C66.6002 62.8 67.8002 67.4 69.1002 72L69.6002 71.5C65.4002 69.8 61.2002 68.1 56.9002 66.4L56.7002 66.3L56.5002 66.4C52.8002 68.8 48.7002 70.6 44.3002 71.5C42.3002 71.9 40.2002 72.2 38.2002 72.3C37.2002 72.3 36.2002 72.3 35.1002 72.2C34.1002 72.1 33.1002 72.1 32.1002 71.9C28.1002 71.4 24.2002 70.2 20.7002 68.4C17.2002 66.6 14.0002 64.3 11.3002 61.7C8.70022 59 6.50022 56 4.80022 52.8C3.00022 49.7 2.00022 46.3 1.30022 43C1.20022 42.2 1.00022 41.3 0.900224 40.5C0.800224 39.7 0.800224 38.8 0.700224 38C0.500224 36.3 0.700224 34.7 0.800224 33.1C1.40022 26.7 3.70022 21 6.70022 16.4C9.70022 11.8 13.5002 8.5 17.1002 6.1C20.7002 3.7 24.3002 2.3 27.2002 1.5C27.9002 1.3 28.6002 1.1 29.3002 0.9C30.0002 0.8 30.6002 0.7 31.2002 0.6C31.8002 0.5 32.3002 0.4 32.8002 0.3C33.3002 0.2 33.7002 0.2 34.2002 0.2C35.0002 0.1 35.6002 0.1 36.0002 0.1C36.5002 0.1 36.7002 0 36.7002 0Z" fill="#263238"/>
</g>
<defs>
<clipPath id="clip0">
<rect width="213" height="175" fill="white"/>
</clipPath>
</defs>
</svg>
