<svg width="247" height="174" viewBox="0 0 247 174" fill="none" xmlns="http://www.w3.org/2000/svg">
<g clip-path="url(#clip0)">
<path d="M181.483 106.566C179.511 100.21 177.436 93.7505 175.464 87.3948C173.907 82.3936 172.454 76.4547 175.464 72.1829C176.606 70.5158 178.474 69.2655 179.096 67.2859C179.927 64.7853 178.37 62.0763 177.643 59.5757C175.983 53.8451 178.059 47.9062 179.096 42.0715C180.134 36.2368 179.511 29.1517 174.53 26.026C172.143 24.4631 169.03 24.2547 166.746 22.4835C163.529 19.9829 162.906 15.3984 161.35 11.6475C159.378 6.9589 155.538 3.20801 150.868 1.33256C146.198 -0.542893 140.801 -0.438702 136.131 1.64513L131.98 4.77088C126.583 20.3996 126.064 37.1745 126.583 53.7409C127.206 70.2032 128.866 86.7697 127.725 103.232C127.309 109.483 126.583 116.36 130.319 121.465C133.64 126.05 139.659 127.717 145.264 128.759C150.868 129.801 156.472 130.53 162.18 130.113C167.784 129.592 173.492 127.717 177.747 124.07C180.342 121.882 182.417 118.861 182.936 115.527C183.248 112.401 182.417 109.483 181.483 106.566Z" fill="#263238"/>
<path d="M173.285 104.795L204.834 76.4547C204.834 76.4547 179.304 78.3302 163.737 80.1014L162.076 65.6188C162.076 65.6188 194.456 58.117 204.834 55.5122C215.212 52.8032 225.175 52.699 235.035 52.3865C244.894 52.0739 246.554 57.596 247.073 59.9924C247.592 62.3889 248.319 74.3709 238.874 85.6236C231.714 94.1673 193.626 134.906 193.626 134.906L173.285 104.795Z" fill="#FFBE9D"/>
<path d="M230.053 69.4739C230.053 69.4739 229.846 69.7864 229.327 70.3074C229.119 70.5158 228.808 70.8284 228.393 71.1409C227.978 71.4535 227.563 71.8703 227.044 72.1829C226.006 72.9122 224.76 73.7457 223.204 74.4751C221.647 75.2044 219.986 75.9338 218.118 76.4547C216.25 76.9757 214.382 77.2882 212.722 77.3924C211.061 77.4966 209.505 77.4966 208.259 77.3924C207.636 77.3924 207.014 77.2882 206.599 77.184C206.08 77.0799 205.665 76.9757 205.353 76.9757C204.627 76.7673 204.315 76.6631 204.315 76.6631C204.315 76.5589 205.872 76.8715 208.363 77.0799C209.608 77.1841 211.165 77.1841 212.722 76.9757C214.382 76.7673 216.147 76.5589 218.015 76.0379C219.883 75.517 221.543 74.8918 223.1 74.1625C224.553 73.4331 225.902 72.7038 226.94 71.9745C228.808 70.5158 229.949 69.3697 230.053 69.4739Z" fill="#EB996E"/>
<path d="M6.92321 49.0523C6.92321 49.0523 2.4606 52.5948 0.488753 59.7841C-2.41713 70.3074 8.58371 80.414 8.58371 80.414C8.58371 80.414 56.2194 126.05 56.5308 126.779C56.8421 127.3 68.4657 92.6044 68.4657 92.6044L39.7182 72.1829C39.7182 72.1829 55.2854 72.5996 64.2106 72.808C73.8623 73.0164 87.0425 75.1002 87.0425 75.1002V57.3877C87.1463 57.3877 22.3867 41.5505 6.92321 49.0523Z" fill="#FFBE9D"/>
<path d="M12.6309 71.2452C12.6309 71.2452 12.7346 71.141 12.8384 71.0368C13.046 70.9326 13.2535 70.7242 13.6687 70.5158C14.3951 70.2032 15.6405 69.8907 17.1972 70.3074C18.6502 70.62 20.2069 71.4535 22.075 71.9745C23.943 72.4955 26.0187 72.808 28.1981 72.9122C32.6607 73.0164 36.6044 72.4955 39.5103 72.2871C40.9632 72.1829 42.1048 72.0787 42.9351 72.0787C43.7653 72.0787 44.1804 72.0787 44.1804 72.0787C44.1804 72.0787 43.7653 72.1829 42.9351 72.2871C42.001 72.3913 40.8594 72.4955 39.5103 72.7039C36.6044 73.0164 32.5569 73.6416 28.0943 73.5374C25.8111 73.4332 23.7355 73.1206 21.8674 72.5997C19.9993 72.0787 18.4426 71.2452 17.0935 70.8284C15.7443 70.4116 14.4989 70.62 13.7725 70.9326C12.9422 70.9326 12.6309 71.3494 12.6309 71.2452Z" fill="#EB996E"/>
<path d="M241.158 85.6236L204.834 76.4547L173.804 98.4392C173.804 98.4392 168.511 95.3134 165.397 96.6679C162.284 98.1266 156.368 102.398 156.368 102.398L145.99 96.9805L107.072 99.8979L99.8076 106.254C99.8076 106.254 98.2508 102.503 95.9677 104.274C93.5807 106.045 91.6088 105.733 91.6088 105.733C91.6088 105.733 89.3256 99.1685 84.4479 96.5637C79.5702 93.9589 69.0882 89.9997 67.2202 90.4164C65.4559 90.8332 53.0021 78.9553 53.0021 78.9553L45.2185 73.1206C45.2185 73.1206 5.67773 77.4967 5.15882 80.414C4.53613 83.2272 14.4992 98.1266 16.471 98.1266L23.113 100.315C23.113 100.315 24.8773 108.337 30.8966 113.86C36.916 119.277 57.2571 133.343 57.2571 133.343C57.2571 133.343 48.0206 191.482 43.558 202.214C39.1992 212.842 35.7744 226.699 36.916 239.931C38.0576 253.164 43.558 291.089 43.558 291.089L72.9282 281.921L188.956 278.482L211.061 283.692C211.061 283.692 209.608 252.643 208.467 235.972C207.325 219.301 205.872 184.501 200.995 163.767C196.117 143.033 197.258 133.448 197.258 133.448C197.258 133.448 233.063 99.2727 235.969 94.6883C238.875 89.7913 242.403 88.8535 241.158 85.6236Z" fill="#85BC91"/>
<g opacity="0.3">
<path opacity="0.3" d="M176.71 165.434C176.71 165.434 189.371 187.731 190.305 200.443C191.343 213.05 180.134 233.576 180.134 233.576L168.822 217.113L176.71 165.434Z" fill="black"/>
</g>
<g opacity="0.3">
<g opacity="0.3">
<path opacity="0.3" d="M84.2407 163.663C72.9286 174.187 66.3903 188.669 60.2672 202.943C54.3517 216.697 48.6437 230.658 46.1529 245.349C43.6622 260.04 44.5962 275.252 48.7475 289.527L95.4491 272.231L91.5054 214.404L84.2407 163.663Z" fill="black"/>
</g>
</g>
<path d="M111.432 109.379L102.403 124.279C102.403 124.279 102.403 136.052 100.327 141.054C98.2513 146.055 84.0332 163.976 84.0332 163.976L91.6093 214.404C91.6093 214.404 125.546 241.703 168.926 217.009L176.814 165.33C176.814 165.33 169.03 154.494 163.218 149.18C157.407 143.763 153.878 130.426 152.84 122.924L149 111.151C148.897 111.255 121.602 121.257 111.432 109.379Z" fill="white"/>
<path d="M148.066 173.978C146.82 173.145 144.329 173.249 142.877 173.04C137.584 171.79 132.81 167.831 127.309 167.727C124.3 167.622 121.394 168.769 118.592 169.915C114.959 171.373 111.327 172.832 107.798 174.499C106.864 174.916 105.93 175.437 105.204 176.166C104.477 176.895 104.062 178.042 104.477 179.084C104.789 180.125 105.93 180.751 106.968 180.855C108.006 180.959 109.148 180.646 110.082 180.334C115.374 178.771 120.667 176.479 126.168 176.895C131.98 177.312 137.376 180.542 143.292 181.063C144.641 181.167 145.99 181.167 147.235 180.646C148.481 180.125 149.622 179.084 149.83 177.729C150.141 176.375 149.311 174.916 148.066 173.978ZM142.877 173.145L145.264 173.457C144.433 173.353 143.707 173.249 142.877 173.145Z" fill="#F5F5F5"/>
<path d="M122.121 168.352C122.121 168.352 121.81 168.56 121.291 168.977C120.772 169.394 119.941 169.81 118.904 170.436C116.828 171.582 113.818 172.728 110.29 173.457C106.761 174.186 103.44 174.186 101.157 173.978C100.015 173.874 99.0814 173.77 98.4587 173.561C97.836 173.457 97.4209 173.353 97.5247 173.249C97.5247 173.145 98.9776 173.353 101.261 173.561C103.544 173.666 106.761 173.561 110.29 172.936C113.715 172.207 116.724 171.061 118.904 170.123C120.876 169.081 122.017 168.248 122.121 168.352Z" fill="#263238"/>
<path d="M101.572 126.05C101.572 126.05 101.468 125.425 101.468 124.383C101.364 123.341 101.261 121.778 101.053 119.798C100.949 118.861 100.845 117.819 100.638 116.673C100.534 116.152 100.223 115.631 99.9115 115.214C99.4963 114.797 98.9774 114.589 98.3547 114.589C97.1094 114.485 95.9678 115.11 94.8262 115.839C93.6846 116.569 92.3354 117.506 90.7787 117.506H90.2598L90.5711 117.09L90.6749 116.985C94.0997 112.088 97.732 108.129 100.534 105.42C101.987 104.066 103.129 103.024 103.959 102.398C104.789 101.669 105.308 101.357 105.308 101.357C105.308 101.357 104.893 101.773 104.063 102.503C103.232 103.232 102.091 104.274 100.742 105.733C98.0434 108.442 94.411 112.505 91.09 117.298L90.9862 117.402L90.7787 116.985C92.1278 116.985 93.3732 116.152 94.5148 115.422C95.6564 114.693 97.0056 114.068 98.3547 114.172C99.0812 114.172 99.7039 114.485 100.223 115.006C100.742 115.527 100.949 116.048 101.053 116.673C101.364 117.819 101.364 118.861 101.468 119.798C101.676 121.778 101.676 123.341 101.676 124.383C101.676 125.425 101.676 126.05 101.572 126.05Z" fill="#263238"/>
<path d="M91.5046 153.661C91.5046 153.661 91.4008 153.869 90.9857 154.39C90.5706 154.911 90.1555 155.536 89.5328 156.37C88.1836 158.037 86.4193 160.537 84.1361 163.663C79.6735 169.915 73.6542 178.563 67.9462 188.773C65.1441 193.879 62.5496 198.776 60.4739 203.36C58.3983 207.945 56.5302 212.112 55.1811 215.655C54.4546 217.426 53.8319 219.093 53.313 220.448C52.7941 221.906 52.2752 223.052 51.9639 224.094C51.6525 225.032 51.3412 225.866 51.1336 226.387C50.926 226.907 50.8223 227.22 50.8223 227.22C50.8223 227.22 50.926 226.907 51.0298 226.387C51.2374 225.761 51.445 225.032 51.7563 223.99C52.0676 222.948 52.4828 221.698 53.0017 220.343C53.5206 218.885 54.0395 217.322 54.766 215.446C56.1151 211.904 57.8794 207.632 59.955 203.048C62.0307 198.463 64.6252 193.462 67.4273 188.357C73.1353 178.146 79.2584 169.498 83.721 163.246C86.0042 160.225 87.8723 157.724 89.2214 156.057C89.8441 155.224 90.363 154.598 90.7781 154.182C91.2971 153.869 91.5046 153.661 91.5046 153.661Z" fill="#263238"/>
<path d="M70.4375 140.741C70.4375 140.741 70.5413 140.116 70.8526 139.178C70.9564 138.657 71.164 138.032 71.3715 137.303C71.5791 136.573 71.8904 135.74 72.2018 134.906C72.8245 133.135 73.7585 131.051 74.7963 128.863C75.9379 126.675 77.1833 124.279 78.74 121.778C81.7497 116.881 84.9669 112.818 87.4577 110.004C88.703 108.546 89.7409 107.504 90.4673 106.775C91.1938 106.045 91.6089 105.628 91.6089 105.628C91.6089 105.628 91.2976 106.149 90.5711 106.879C89.8446 107.608 88.9106 108.858 87.6652 110.213C85.2783 113.13 82.1648 117.194 79.1551 121.986C77.7022 124.383 76.353 126.779 75.2114 128.967C74.1736 131.155 73.2396 133.239 72.5131 134.906C72.098 135.74 71.8904 136.573 71.5791 137.303C71.2678 138.032 71.0602 138.553 70.9564 139.074C70.7488 140.22 70.5413 140.741 70.4375 140.741Z" fill="#263238"/>
<path d="M72.8242 103.232C72.8242 103.232 72.5129 103.649 71.994 104.482C71.3713 105.212 70.6448 106.358 69.607 107.712C67.6352 110.421 65.1444 114.381 62.8612 118.965C60.578 123.549 59.0213 127.925 57.9835 131.155C57.4646 132.718 57.1532 134.073 56.8419 135.01C56.6343 135.948 56.4268 136.469 56.4268 136.365C56.4268 136.365 56.4268 135.844 56.6343 134.906C56.8419 133.969 57.1532 132.614 57.5684 131.051C58.5024 127.821 60.0591 123.341 62.3423 118.652C64.6255 113.964 67.22 110.109 69.2957 107.4C70.3335 106.045 71.1637 105.003 71.7864 104.274C72.4091 103.545 72.8242 103.232 72.8242 103.232Z" fill="#263238"/>
<path d="M59.8519 84.7901C59.8519 84.7901 59.8519 84.8943 59.7481 85.2068C59.6444 85.5194 59.4368 85.832 59.2292 86.3529C58.7103 87.2907 57.7763 88.6452 56.2196 89.8955C54.6628 91.1458 52.691 92.3961 50.304 93.438C47.9171 94.4799 45.2187 95.4176 42.3128 96.147C36.5011 97.9182 31.1044 98.7517 27.1608 98.9601C25.1889 99.1685 23.6322 99.1685 22.4906 99.1685C21.349 99.1685 20.8301 99.1685 20.8301 99.0643C20.8301 99.0643 21.4528 98.9601 22.4906 98.9601C23.6322 98.8559 25.1889 98.7517 27.057 98.5434C30.8969 98.1266 36.2935 97.2931 42.0015 95.7302C44.9074 94.8967 47.6057 94.0631 49.8889 93.0212C52.2759 91.9793 54.2477 90.8332 55.8044 89.5829C58.9179 87.1865 59.7481 84.6859 59.8519 84.7901Z" fill="#263238"/>
<path d="M156.369 102.503C156.369 102.503 156.576 102.919 156.991 103.857C157.303 104.691 157.822 105.941 158.341 107.504C159.378 110.63 160.728 115.006 161.869 119.903C162.388 121.882 162.803 123.862 163.114 125.633L163.322 126.467L162.699 125.842C161.454 124.591 160.209 123.445 158.963 122.716C158.341 122.299 157.718 122.091 157.095 121.882C156.472 121.674 155.954 121.465 155.435 121.465C154.397 121.257 153.567 121.882 153.255 122.299C152.84 122.716 152.736 123.028 152.736 123.028C152.736 123.028 152.736 122.924 152.84 122.82C152.944 122.716 153.048 122.507 153.151 122.195C153.359 121.986 153.567 121.674 153.982 121.465C154.397 121.257 154.916 121.153 155.538 121.153C156.161 121.153 156.68 121.361 157.303 121.57C157.925 121.778 158.652 121.986 159.275 122.403C160.624 123.133 161.869 124.279 163.218 125.633L162.803 125.842C162.388 124.07 161.973 122.195 161.558 120.215C160.416 115.318 159.171 110.942 158.133 107.816C157.614 106.358 157.303 105.107 156.991 104.065C156.472 103.024 156.369 102.503 156.369 102.503Z" fill="#263238"/>
<path d="M177.955 117.923C177.851 117.923 177.643 116.881 177.332 115.11C177.021 113.339 176.502 110.942 175.775 108.337C175.049 105.733 174.322 103.44 173.7 101.773C173.077 100.106 172.766 99.0643 172.766 99.0643C172.869 99.0643 173.285 100.002 174.011 101.669C174.737 103.336 175.464 105.628 176.19 108.233C176.917 110.838 177.332 113.339 177.54 115.11C178.058 116.881 178.058 117.923 177.955 117.923Z" fill="#263238"/>
<path d="M183.663 119.59C183.56 119.59 183.456 118.34 182.937 116.256C182.522 114.172 181.692 111.463 180.342 108.546C178.993 105.628 177.437 103.232 176.087 101.565C174.842 99.8979 173.908 98.9601 174.012 98.856C174.012 98.856 174.323 99.0643 174.738 99.4811C175.153 99.8979 175.776 100.523 176.399 101.357C177.748 103.024 179.408 105.42 180.758 108.337C182.107 111.255 182.937 114.172 183.248 116.256C183.456 117.298 183.56 118.131 183.56 118.757C183.663 119.278 183.663 119.59 183.663 119.59Z" fill="#263238"/>
<path d="M199.749 109.483C199.749 109.483 199.645 109.9 199.541 110.734C199.334 111.567 199.126 112.713 198.919 114.172C198.4 117.089 197.985 121.153 197.777 125.633C197.569 130.113 197.569 134.281 197.569 137.198C197.569 138.553 197.569 139.803 197.673 140.741C197.673 141.574 197.673 141.991 197.673 141.991C197.673 141.991 197.569 141.574 197.466 140.741C197.362 139.907 197.258 138.761 197.258 137.198C197.154 134.177 197.051 130.113 197.362 125.529C197.569 120.945 198.088 116.881 198.711 113.964C199.022 112.505 199.334 111.359 199.541 110.525C199.541 109.9 199.645 109.483 199.749 109.483Z" fill="#263238"/>
<path d="M233.893 96.8763C233.893 96.8763 233.27 96.8763 232.232 96.6679C231.091 96.4595 229.534 96.2511 227.666 95.9386C223.826 95.3134 218.533 94.3757 212.721 93.3338C209.816 92.8128 207.013 92.2919 204.523 91.5625C202.032 90.8332 199.853 89.7913 198.296 88.6452C196.739 87.499 195.597 86.2487 194.975 85.4152C194.663 84.9984 194.456 84.5817 194.352 84.3733C194.248 84.1649 194.145 83.9565 194.145 83.9565C194.248 83.8523 195.286 86.2487 198.503 88.4368C200.06 89.4787 202.239 90.5206 204.626 91.2499C207.117 91.9793 209.816 92.3961 212.825 92.917C218.637 93.9589 223.93 94.8967 227.77 95.626C229.638 95.9386 231.091 96.2511 232.336 96.4595C233.27 96.6679 233.893 96.7721 233.893 96.8763Z" fill="#263238"/>
<path d="M180.134 231.909C180.134 231.909 180.134 231.804 180.238 231.596C180.342 231.388 180.446 231.075 180.653 230.763C181.068 230.033 181.587 228.991 182.314 227.637C183.663 224.928 185.531 220.864 187.295 215.655C188.125 213.05 189.059 210.237 189.578 207.007C190.097 203.881 190.616 200.339 189.578 196.9C188.333 193.462 187.295 189.815 186.05 186.064C184.804 182.313 183.144 178.563 181.38 174.812C179.615 171.061 177.747 167.414 175.568 164.08C174.53 162.413 173.388 160.85 172.143 159.391C171.001 157.933 169.652 156.578 168.407 155.224C166.02 152.515 163.633 150.014 161.454 147.618C160.312 146.472 159.585 145.013 158.963 143.658C158.34 142.304 157.717 140.949 157.198 139.699C155.123 134.594 153.981 130.322 153.255 127.3C152.943 125.842 152.736 124.591 152.632 123.862C152.632 123.445 152.528 123.237 152.528 122.924C152.528 122.716 152.528 122.612 152.528 122.612C152.528 122.612 152.528 122.716 152.632 122.924C152.632 123.133 152.736 123.445 152.84 123.862C152.943 124.695 153.255 125.842 153.566 127.3C154.293 130.218 155.538 134.489 157.614 139.595C158.133 140.845 158.755 142.2 159.378 143.45C160.104 144.804 160.727 146.159 161.869 147.305C164.048 149.701 166.331 152.202 168.822 154.911C170.067 156.266 171.313 157.62 172.558 159.079C173.804 160.537 174.945 162.1 175.983 163.767C178.162 167.101 180.03 170.748 181.795 174.499C183.559 178.25 185.219 182.001 186.465 185.856C187.71 189.607 188.748 193.254 189.993 196.692C191.031 200.234 190.512 203.881 189.993 207.007C189.371 210.237 188.541 213.05 187.606 215.655C185.738 220.864 183.87 224.824 182.417 227.533C181.691 228.887 181.068 229.929 180.653 230.658C180.446 230.971 180.342 231.283 180.134 231.492C180.134 231.804 180.134 231.909 180.134 231.909Z" fill="#263238"/>
<g opacity="0.3">
<g opacity="0.3">
<path opacity="0.3" d="M167.266 131.989C166.02 123.654 163.114 115.527 158.859 108.233C160.001 113.964 161.869 119.903 163.011 125.737C160.728 122.82 154.189 119.173 152.736 123.028L153.255 126.154C157.51 127.613 161.35 130.322 164.256 133.76C164.775 134.385 165.398 135.115 166.124 135.01C167.266 134.698 167.473 133.135 167.266 131.989Z" fill="black"/>
</g>
</g>
<g opacity="0.3">
<g opacity="0.3">
<path opacity="0.3" d="M173.907 98.9602C173.181 100.523 173.907 102.398 174.53 103.961C175.983 107.816 177.021 111.776 177.539 115.839C177.747 117.298 177.851 118.965 178.785 120.111C179.719 121.361 181.794 121.778 182.729 120.632C183.351 119.903 183.247 118.757 183.144 117.819C182.106 110.838 179.2 104.17 174.841 98.6476" fill="black"/>
</g>
</g>
<g opacity="0.3">
<g opacity="0.3">
<path opacity="0.3" d="M195.39 85.6236C195.701 87.9158 197.154 89.8955 199.022 91.2499C200.787 92.6044 202.966 93.5422 205.145 94.2715C213.344 97.1889 222.269 98.6476 230.676 96.3553C224.553 95.3134 218.429 94.3757 212.41 93.3338C209.297 92.8128 206.079 92.2919 203.07 91.1458C200.06 90.1038 197.258 88.3326 195.286 85.832" fill="black"/>
</g>
</g>
<g opacity="0.3">
<g opacity="0.3">
<path opacity="0.3" d="M91.09 105.628C82.4761 111.046 75.3152 118.652 70.3336 127.509C69.3996 129.176 68.4656 130.947 67.8429 132.822C67.4278 134.073 67.2202 135.844 68.4656 136.261C69.6072 136.678 70.645 135.427 71.2677 134.385C76.9757 124.279 83.8252 114.693 91.4013 105.941" fill="black"/>
</g>
</g>
<g opacity="0.3">
<g opacity="0.3">
<path opacity="0.3" d="M101.572 132.614C101.572 128.342 101.468 124.07 101.468 119.694C101.468 117.715 101.053 116.048 99.4966 114.901C98.355 114.068 97.1096 114.38 95.8642 115.006C94.6188 115.631 93.3735 116.464 92.3357 116.881L92.0243 116.985C90.6751 118.861 89.6373 120.945 89.0146 123.133C90.4676 123.133 91.8167 122.195 93.1659 121.57C94.5151 120.945 96.2793 120.632 97.4209 121.674C98.1474 122.403 98.355 123.445 98.4588 124.487C99.0814 129.176 99.8079 133.968 100.431 138.657C101.572 136.99 101.572 134.802 101.572 132.614Z" fill="black"/>
</g>
</g>
<g opacity="0.3">
<g opacity="0.3">
<path opacity="0.3" d="M22.1787 99.3769C30.1699 102.398 39.4064 102.086 47.1901 98.7518C51.6527 96.7721 56.0115 93.5422 57.5682 88.8536C46.7749 95.2093 35.0476 98.1266 22.4901 99.2727" fill="black"/>
</g>
</g>
<path d="M32.9719 97.9182C32.8681 97.9182 32.6605 96.5637 32.0378 94.3757C31.4151 92.1877 30.2735 89.2703 28.5093 86.2488C26.745 83.3314 24.5656 80.935 22.9051 79.3721C21.2446 77.8092 20.103 76.9757 20.2067 76.8715C20.2067 76.8715 20.5181 76.9757 21.037 77.3925C21.5559 77.7051 22.2824 78.3302 23.2164 79.0595C24.9807 80.5182 27.1601 82.9146 28.9244 85.9362C30.7924 88.9577 31.8303 91.9793 32.3492 94.2715C32.6605 95.4176 32.7643 96.3554 32.8681 96.9805C32.9719 97.6057 33.0756 97.9182 32.9719 97.9182Z" fill="white"/>
<path d="M50.2002 91.3541C50.0965 91.3541 49.7851 90.1038 49.0586 88.2284C48.3322 86.3529 46.983 83.8523 45.0112 81.4559C43.0393 79.0595 40.7561 77.3925 38.9918 76.3505C37.2275 75.3086 36.0859 74.8919 36.0859 74.7877C36.0859 74.7877 36.3973 74.8918 36.9162 74.996C37.4351 75.2044 38.2654 75.517 39.0956 76.038C40.9637 76.9757 43.2469 78.7469 45.3225 81.1434C47.3981 83.5398 48.6435 86.1446 49.37 88.1242C49.6813 89.0619 49.8889 89.8955 49.9927 90.5206C50.2002 91.0416 50.2002 91.3541 50.2002 91.3541Z" fill="white"/>
<path d="M62.1346 116.881C62.1346 116.881 61.7194 116.673 60.993 116.36C60.2665 115.943 59.2287 115.422 57.9833 114.693C55.4925 113.234 52.0678 111.046 48.4354 108.337C44.8031 105.628 41.7934 103.024 39.614 101.044C38.5762 100.002 37.6421 99.2727 37.1232 98.6476C36.6043 98.0224 36.293 97.7098 36.293 97.7098C36.293 97.7098 36.7081 97.9182 37.3308 98.5434C38.0573 99.1685 38.8875 99.8979 39.9253 100.836C42.1047 102.711 45.2182 105.316 48.8505 108.025C52.3791 110.63 55.8039 112.922 58.2946 114.485C59.4362 115.214 60.4741 115.839 61.2005 116.36C61.7194 116.569 62.1346 116.881 62.1346 116.881Z" fill="white"/>
<path d="M74.2778 101.982C74.174 102.086 69.5038 99.6894 63.7959 96.5637C58.0879 93.438 53.5215 90.8332 53.5215 90.729C53.6253 90.6248 58.2954 93.0212 64.0034 96.1469C69.8152 99.1685 74.3816 101.877 74.2778 101.982Z" fill="white"/>
<path d="M79.2586 121.049C79.1548 121.153 76.9754 118.131 73.1355 115.839C69.2956 113.547 65.5595 113.234 65.6632 113.026C65.6632 112.922 66.5973 112.922 68.0502 113.234C69.5032 113.547 71.475 114.172 73.4469 115.318C75.4187 116.464 76.9754 117.923 77.9095 118.965C78.8435 120.215 79.3624 121.049 79.2586 121.049Z" fill="white"/>
<path d="M87.7689 110.525C87.6652 110.525 87.6652 109.588 87.25 108.129C86.8349 106.67 86.0047 104.691 84.5517 102.919C83.0988 101.148 81.3345 99.8978 79.9853 99.1685C78.6362 98.4392 77.7021 98.2308 77.7021 98.1266C77.7021 98.1266 78.6362 98.2308 80.0891 98.8559C81.5421 99.4811 83.3063 100.731 84.8631 102.607C86.316 104.482 87.1463 106.566 87.4576 108.129C87.8727 109.483 87.7689 110.525 87.7689 110.525Z" fill="white"/>
<path d="M67.9467 148.347C67.8429 148.347 67.4278 147.618 66.5975 146.68C65.7673 145.638 64.4181 144.388 62.6538 143.346C60.8895 142.304 59.1253 141.783 57.7761 141.47C56.4269 141.262 55.5967 141.158 55.5967 141.158C55.5967 141.054 56.4269 140.949 57.7761 141.158C59.1253 141.262 60.9933 141.783 62.8614 142.929C64.7295 143.971 66.0786 145.43 66.9089 146.471C67.6353 147.513 67.9467 148.347 67.9467 148.347Z" fill="white"/>
<path d="M90.5708 154.39C90.5708 154.494 89.3254 154.39 87.4573 154.078C85.4855 153.765 82.8909 153.244 79.985 152.515C77.0792 151.785 74.4846 150.848 72.7203 150.222C70.8523 149.493 69.8145 148.972 69.8145 148.972C69.8145 148.868 70.956 149.285 72.8241 149.91C74.6922 150.535 77.2867 151.369 80.0888 152.098C82.9947 152.827 85.5892 153.452 87.4573 153.765C89.4292 154.078 90.6745 154.286 90.5708 154.39Z" fill="white"/>
<path d="M100.741 133.656C100.741 133.656 100.43 133.76 99.7034 133.76C99.0807 133.76 98.1467 133.76 97.0051 133.656C94.7219 133.448 91.6084 132.822 88.2874 131.676C84.9664 130.426 82.2681 128.863 80.4 127.613C79.466 126.988 78.7395 126.363 78.2206 125.946C77.7017 125.529 77.4941 125.321 77.4941 125.216C77.5979 125.112 78.6357 126.05 80.6076 127.196C82.4757 128.446 85.2778 129.905 88.495 131.051C91.7122 132.197 94.8257 132.927 97.0051 133.239C99.392 133.552 100.741 133.656 100.741 133.656Z" fill="white"/>
<path d="M108.317 112.922C108.214 112.922 107.799 112.401 107.072 111.671C106.242 110.942 105.1 110.004 103.543 109.483C101.987 108.858 100.534 108.754 99.3922 108.754C98.3544 108.754 97.6279 108.963 97.6279 108.858C97.6279 108.754 98.2506 108.546 99.3922 108.337C100.534 108.233 102.091 108.233 103.751 108.858C105.412 109.483 106.657 110.421 107.383 111.359C108.11 112.297 108.421 112.922 108.317 112.922Z" fill="white"/>
<path d="M70.7487 180.542C70.7487 180.542 70.4373 180.438 69.8146 180.334C69.192 180.125 68.3617 179.813 67.3239 179.396C65.2483 178.458 62.5499 177 59.7478 174.916C57.0495 172.832 54.8701 170.54 53.5209 168.769C52.7945 167.935 52.2756 167.101 51.9642 166.58C51.6529 166.06 51.4453 165.747 51.4453 165.747C51.5491 165.747 52.3793 166.789 53.8323 168.456C55.2852 170.123 57.4646 172.311 60.163 174.395C62.8613 176.479 65.5596 178.042 67.5314 178.979C69.5033 180.021 70.7487 180.438 70.7487 180.542Z" fill="white"/>
<path d="M197.155 139.699C197.155 139.699 196.74 140.012 195.909 140.533C195.079 141.054 193.938 141.679 192.381 142.408C190.824 143.137 188.956 143.971 186.88 144.7C184.701 145.43 182.314 146.055 179.823 146.576C177.229 146.992 174.842 147.305 172.559 147.409C170.275 147.513 168.303 147.409 166.539 147.305C164.879 147.201 163.53 146.992 162.596 146.784C161.661 146.576 161.143 146.472 161.143 146.472C161.143 146.472 161.661 146.472 162.596 146.576C163.53 146.68 164.879 146.784 166.539 146.888C168.2 146.993 170.275 146.993 172.455 146.888C174.634 146.784 177.125 146.472 179.616 146.055C182.106 145.534 184.493 144.909 186.673 144.284C188.748 143.554 190.617 142.825 192.173 142.095C193.73 141.366 194.975 140.741 195.806 140.324C196.636 139.907 197.155 139.699 197.155 139.699Z" fill="white"/>
<path d="M165.293 127.509C165.397 127.613 162.803 128.655 159.378 128.863C156.057 129.176 153.358 128.551 153.358 128.342C153.358 128.134 156.057 128.551 159.378 128.342C162.699 128.134 165.293 127.404 165.293 127.509Z" fill="white"/>
<path d="M176.917 114.901C176.917 115.006 175.983 114.901 174.426 115.006C172.973 115.11 170.898 115.527 168.718 116.464C166.643 117.402 164.878 118.652 163.84 119.59C162.699 120.632 162.18 121.361 162.076 121.257C162.076 121.257 162.491 120.424 163.633 119.277C164.671 118.131 166.435 116.881 168.614 115.839C170.794 114.901 172.973 114.589 174.426 114.485C175.983 114.589 176.917 114.797 176.917 114.901Z" fill="white"/>
<path d="M181.484 111.046C181.588 111.151 180.757 111.88 179.408 111.984C178.059 112.192 177.125 111.672 177.125 111.567C177.125 111.463 178.163 111.567 179.304 111.463C180.446 111.359 181.38 110.942 181.484 111.046Z" fill="white"/>
<path d="M202.032 90.6248C202.032 90.6248 201.824 90.9374 201.409 91.4584C200.994 91.9793 200.268 92.7087 199.438 93.5422C197.777 95.2093 195.286 97.3973 192.277 99.4811C189.267 101.565 186.361 103.232 184.285 104.274C183.248 104.795 182.314 105.212 181.691 105.42C181.068 105.628 180.757 105.837 180.757 105.733C180.757 105.628 182.002 105.003 184.182 103.857C186.257 102.711 189.059 101.044 192.069 98.9602C194.975 96.8763 197.569 94.6883 199.334 93.1254C200.89 91.6667 201.928 90.6248 202.032 90.6248Z" fill="white"/>
<path d="M221.647 95.7302C221.647 95.7302 221.544 96.2512 221.128 96.9805C220.817 97.8141 220.194 98.9602 219.468 100.315C217.911 103.128 215.42 106.775 212.099 110.317C208.778 113.86 205.25 116.569 202.551 118.236C201.202 119.069 200.061 119.694 199.334 120.111C198.504 120.528 198.089 120.736 198.089 120.736C198.089 120.736 198.504 120.424 199.23 120.007C199.957 119.59 201.099 118.861 202.344 118.027C204.938 116.256 208.363 113.547 211.684 110.004C215.005 106.462 217.496 102.919 219.157 100.21C219.987 98.856 220.609 97.7099 221.025 96.9805C221.44 96.147 221.647 95.7302 221.647 95.7302Z" fill="white"/>
<path d="M222.789 81.4559C222.892 81.4559 222.789 82.2895 222.373 83.644C221.958 84.9984 221.128 86.7697 219.779 88.4368C218.43 90.1038 216.873 91.3541 215.731 92.0835C214.486 92.8128 213.656 93.0212 213.656 93.0212C213.552 92.917 216.769 91.4583 219.364 88.1242C222.062 84.7901 222.685 81.3517 222.789 81.4559Z" fill="white"/>
<path d="M171.728 100.419C171.728 100.523 170.898 100.419 169.445 100.419C168.096 100.419 166.124 100.731 164.152 101.357C162.18 102.086 160.52 103.128 159.482 103.961C158.444 104.795 157.822 105.42 157.718 105.42C157.718 105.42 158.133 104.691 159.171 103.649C160.209 102.711 161.869 101.565 163.945 100.836C166.02 100.106 167.992 99.8978 169.445 100.002C170.794 100.106 171.728 100.419 171.728 100.419Z" fill="white"/>
<path d="M158.652 111.151C158.548 111.255 157.095 110.109 155.123 109.275C153.151 108.442 151.283 108.129 151.283 108.025C151.283 107.921 153.151 107.921 155.331 108.754C157.406 109.692 158.755 111.046 158.652 111.151Z" fill="white"/>
<path d="M202.136 169.289C202.136 169.289 201.929 169.498 201.513 169.81C201.098 170.123 200.372 170.54 199.542 171.061C197.881 171.998 195.39 173.145 192.484 173.77C189.579 174.499 186.88 174.603 184.908 174.499C183.974 174.499 183.144 174.395 182.625 174.291C182.106 174.186 181.795 174.186 181.795 174.082C181.795 173.978 183.04 174.082 184.908 174.082C186.776 174.082 189.475 173.874 192.277 173.145C195.079 172.415 197.57 171.477 199.23 170.54C201.098 169.81 202.136 169.185 202.136 169.289Z" fill="white"/>
<path d="M143.811 8.00081C142.669 5.50021 140.697 3.1038 137.999 2.27027C135.3 1.43673 131.979 2.47865 130.838 4.97925L137.065 12.0643C137.687 13.1062 138.622 14.0439 139.659 14.4607C140.801 14.9816 142.15 14.9816 143.084 14.2523C144.018 13.6272 144.537 12.3769 144.537 11.2307C144.745 10.1888 144.329 9.14691 143.811 8.00081Z" fill="#85BC91"/>
<path d="M161.35 40.196C160.312 28.214 153.981 16.4403 143.811 9.98043C133.64 3.52055 119.733 2.7912 109.667 9.35528C103.232 13.5229 98.5619 20.087 95.8636 27.2762C93.1653 34.4655 94.3069 40.4044 94.4107 48.1146C94.4107 52.0738 94.9296 62.8056 98.3544 64.7852L151.698 74.3708C158.548 64.4726 162.388 52.2822 161.35 40.196Z" fill="#263238"/>
<path d="M159.378 31.0272C158.133 23.8379 151.18 16.9613 145.783 12.1685C139.556 6.75051 138.726 6.95889 130.527 6.75051C121.809 6.54213 112.365 6.54213 105.516 12.0643C101.78 15.0858 99.2888 19.4619 97.3169 23.8379C92.7505 34.0487 93.477 45.7182 94.8262 56.7625C96.1753 67.8068 98.5623 78.3301 107.591 84.79L145.575 78.8511C153.982 75.7253 156.784 66.1397 159.171 57.4918C161.661 48.8439 160.935 39.8834 159.378 31.0272Z" fill="#263238"/>
<path d="M96.2794 38.1122C96.7983 27.5888 107.903 17.0655 118.385 18.0032L152.218 24.0463V29.6726L148.897 111.15C122.225 121.361 111.432 109.379 111.432 109.379L113.3 92.1876C113.3 92.1876 99.9118 90.1038 97.0059 72.7038C95.4492 64.0559 95.6567 49.7816 96.2794 38.1122Z" fill="#FFBE9D"/>
<path d="M104.063 51.0319C104.063 52.178 104.998 53.2199 106.243 53.2199C107.488 53.2199 108.526 52.3864 108.526 51.1361C108.526 49.99 107.592 48.9481 106.347 48.9481C105.101 48.9481 104.063 49.8858 104.063 51.0319Z" fill="#263238"/>
<path d="M100.742 46.7601C101.054 47.0726 102.714 45.8223 105.101 45.7181C107.488 45.614 109.253 46.8642 109.564 46.5517C109.668 46.4475 109.356 45.9265 108.63 45.3014C107.903 44.7804 106.554 44.2595 105.101 44.2595C103.648 44.2595 102.403 44.8846 101.676 45.4056C100.846 46.0307 100.639 46.5517 100.742 46.7601Z" fill="#263238"/>
<path d="M126.895 51.0319C126.895 52.178 127.829 53.2199 129.074 53.2199C130.319 53.2199 131.357 52.3864 131.357 51.1361C131.357 49.99 130.423 48.9481 129.178 48.9481C127.932 48.9481 126.895 49.8858 126.895 51.0319Z" fill="#263238"/>
<path d="M124.715 46.1349C125.026 46.4475 126.687 45.1972 129.074 45.093C131.461 44.9888 133.225 46.2391 133.537 45.9266C133.64 45.8224 133.329 45.3014 132.602 44.6763C131.876 44.1553 130.527 43.6343 129.074 43.6343C127.621 43.6343 126.376 44.2595 125.649 44.7804C124.819 45.5098 124.611 46.0307 124.715 46.1349Z" fill="#263238"/>
<path d="M115.167 63.6391C115.167 63.5349 113.714 63.2223 111.224 63.014C110.601 62.9098 109.978 62.8056 109.875 62.3888C109.771 61.972 109.978 61.2427 110.29 60.5134C110.809 59.0547 111.431 57.4918 112.054 55.8247C114.441 49.1565 116.205 43.6343 115.998 43.5301C115.686 43.4259 113.507 48.7397 111.12 55.5122C110.497 57.1792 109.978 58.7421 109.459 60.2008C109.252 60.9301 108.837 61.6595 109.148 62.5972C109.356 63.014 109.771 63.4307 110.186 63.5349C110.601 63.6391 110.912 63.6391 111.224 63.6391C113.611 63.7433 115.167 63.7433 115.167 63.6391Z" fill="#263238"/>
<path d="M113.3 92.2918C113.3 92.2918 125.65 92.9169 137.17 85.7277C137.17 85.7277 131.462 98.0223 113.404 96.6678L113.3 92.2918Z" fill="#EB996E"/>
<path d="M116.206 69.4738C117.036 68.3277 118.593 67.7026 120.046 67.8068C121.083 67.911 122.121 68.4319 122.744 69.2655C123.367 70.099 123.574 71.3493 122.951 72.1828C122.329 73.1206 120.98 73.3289 119.838 73.0164C118.696 72.7038 117.659 71.9745 116.725 71.2451C116.413 71.0367 116.206 70.8283 115.998 70.5158C115.998 70.099 115.998 69.7864 116.206 69.4738Z" fill="#EB996E"/>
<path d="M116.101 73.2248C116.413 73.4331 117.554 71.0367 120.356 70.3074C123.159 69.578 125.545 70.9325 125.753 70.62C125.857 70.5158 125.442 69.8906 124.3 69.3697C123.262 68.8487 121.602 68.5361 119.837 68.9529C118.177 69.3697 116.932 70.5158 116.413 71.4535C115.894 72.3912 115.894 73.1206 116.101 73.2248Z" fill="#263238"/>
<path d="M133.849 40.717C133.849 39.9876 131.462 39.675 128.867 38.5289C126.273 37.487 124.301 36.0283 123.782 36.4451C123.574 36.6535 123.782 37.3828 124.405 38.2164C125.131 39.0499 126.273 40.0918 127.933 40.717C129.49 41.3421 131.047 41.5505 132.188 41.4463C133.226 41.3421 133.849 41.0295 133.849 40.717Z" fill="#263238"/>
<path d="M108.319 36.966C107.592 36.6535 106.035 38.1122 103.96 39.1541C101.884 40.3002 99.8085 40.7169 99.6009 41.4463C99.4971 41.7589 100.016 42.1756 101.054 42.1756C102.092 42.2798 103.545 41.9672 104.998 41.2379C106.451 40.5086 107.488 39.4666 108.007 38.5289C108.63 37.7996 108.63 37.1744 108.319 36.966Z" fill="#263238"/>
<path d="M108.007 13.1062C101.572 17.4822 97.2136 24.6715 95.0342 32.4858L96.072 38.9457C97.5249 35.82 97.7325 32.4858 100.846 29.2559C102.922 27.0679 106.761 25.0882 110.809 24.0463C122.433 21.1289 126.272 16.8571 131.461 9.2511C123.885 7.37565 114.338 8.73014 108.007 13.1062Z" fill="#263238"/>
<path d="M158.03 30.1936C154.812 18.5242 144.227 9.25111 132.292 7.58405L131.358 9.25111C128.452 12.6894 125.442 16.1278 122.536 19.5661C121.81 20.3996 121.083 21.3373 120.876 22.4834C120.668 23.9421 121.602 25.4008 122.744 26.4427C125.546 28.7349 129.49 28.8391 133.018 28.9433C136.651 29.0475 140.594 29.3601 143.189 31.8607C146.51 34.9864 146.406 40.196 145.264 44.5721C144.123 48.9481 143.708 56.0331 144.227 60.5134C144.642 64.5769 149.935 54.7828 153.359 56.7625C154.293 57.2834 151.699 73.1206 152.737 72.5996C153.774 72.0787 153.671 66.4523 153.982 65.4104C155.746 59.6799 157.511 53.9493 158.548 48.0104C159.586 42.0715 159.69 36.0284 158.03 30.1936Z" fill="#263238"/>
<path d="M150.972 67.1816C150.972 67.1816 151.18 67.2858 151.491 67.4942C151.803 67.7026 152.322 67.8068 152.84 67.5984C153.982 67.2858 155.124 65.5146 155.227 63.5349C155.331 62.5972 155.227 61.6595 154.916 60.8259C154.605 59.9924 154.19 59.4715 153.567 59.2631C153.048 59.0547 152.633 59.3673 152.425 59.6798C152.218 59.9924 152.322 60.2008 152.218 60.2008C152.218 60.2008 152.01 59.9924 152.114 59.5756C152.218 59.3673 152.322 59.1589 152.529 58.9505C152.84 58.7421 153.152 58.6379 153.567 58.7421C154.397 58.8463 155.124 59.6798 155.435 60.5134C155.85 61.3469 155.954 62.493 155.85 63.5349C155.643 65.7229 154.397 67.7026 152.84 68.0152C152.114 68.1194 151.491 67.911 151.18 67.5984C150.972 67.4942 150.869 67.1816 150.972 67.1816Z" fill="#EB996E"/>
<path d="M150.868 16.1277C150.868 16.1277 152.632 18.0032 154.708 21.5457C155.746 23.317 156.888 25.505 157.822 28.0056C158.859 30.5062 159.586 33.4236 160.208 36.5493C161.35 42.6966 160.935 48.5313 160.001 52.4906C159.897 53.0116 159.793 53.4283 159.69 53.9493C159.586 54.3661 159.482 54.7828 159.378 55.1996C159.171 56.0331 158.963 56.6583 158.756 57.1792C158.548 57.7002 158.444 58.117 158.34 58.4295C158.237 58.7421 158.133 58.8463 158.133 58.8463C158.133 58.8463 158.133 58.6379 158.237 58.4295C158.34 58.117 158.444 57.7002 158.652 57.1792C158.859 56.6583 159.067 55.9289 159.274 55.1996C159.378 54.7828 159.482 54.3661 159.586 53.9493C159.69 53.5325 159.793 53.0116 159.897 52.4906C160.727 48.5313 161.143 42.8008 160.001 36.6535C159.482 33.6319 158.652 30.7146 157.614 28.214C156.576 25.7134 155.642 23.5254 154.604 21.7541C154.397 21.3373 154.085 20.9206 153.878 20.5038C153.67 20.087 153.359 19.7745 153.151 19.4619C152.944 19.1493 152.736 18.8367 152.529 18.5242C152.321 18.2116 152.114 18.0032 152.01 17.7948C151.698 17.378 151.387 16.9613 151.283 16.7529C150.972 16.2319 150.868 16.1277 150.868 16.1277Z" fill="#455A64"/>
<path d="M151.906 19.3577C151.906 19.3577 151.906 19.4619 151.803 19.6702C151.699 19.8786 151.595 20.1912 151.387 20.5038C150.868 21.2331 149.831 21.9625 148.482 22.3792C147.029 22.796 145.368 23.3169 143.5 23.7337C141.632 24.1505 139.453 24.4631 137.169 24.6714C134.886 24.8798 132.707 24.7756 130.839 24.4631C128.867 24.1505 127.206 23.7337 125.753 23.2128C124.404 22.6918 123.263 22.1708 122.536 21.7541C122.225 21.5457 121.913 21.3373 121.706 21.2331C121.498 21.1289 121.395 21.0247 121.395 21.0247C121.395 21.0247 121.81 21.2331 122.536 21.6499C123.263 22.0666 124.3 22.5876 125.753 23.0044C127.103 23.5253 128.867 23.9421 130.735 24.1505C132.707 24.3589 134.782 24.4631 137.066 24.3589C141.528 24.0463 145.576 23.0044 148.378 22.275C149.727 21.8583 150.765 21.1289 151.284 20.5038C151.803 19.8786 151.906 19.3577 151.906 19.3577Z" fill="#455A64"/>
<path d="M149.934 15.6068C149.934 15.6068 149.831 15.7109 149.727 15.8151C149.623 15.9193 149.415 16.1277 149.208 16.3361C148.689 16.857 147.859 17.4822 146.821 18.1073C144.642 19.3576 141.321 20.3996 137.481 20.5038C133.641 20.5038 130.32 19.7744 127.933 19.1493C126.687 18.8367 125.753 18.6283 125.131 18.4199C124.508 18.2115 124.093 18.1073 124.093 18.1073C124.093 18.1073 124.508 18.2115 125.131 18.3157C125.857 18.5241 126.791 18.7325 128.036 18.9409C130.423 19.4618 133.848 20.1912 137.584 20.1912C141.321 20.1912 144.642 19.1493 146.821 18.0032C148.897 16.7529 149.934 15.6068 149.934 15.6068Z" fill="#455A64"/>
<path d="M147.755 14.4607C147.755 14.4607 147.444 14.5649 147.029 14.7733C146.51 14.8775 145.783 15.0858 144.953 15.2942C143.189 15.711 140.594 16.0236 137.792 16.0236C134.99 16.0236 132.395 15.6068 130.631 15.19C129.697 14.9817 128.971 14.7733 128.556 14.6691C128.037 14.5649 127.829 14.4607 127.829 14.3565C127.829 14.3565 128.14 14.3565 128.659 14.4607C129.178 14.5649 129.905 14.7733 130.839 14.8775C132.603 15.19 135.198 15.5026 138 15.6068C140.802 15.6068 143.293 15.2942 145.161 14.9817C146.095 14.7733 146.821 14.6691 147.34 14.5649C147.444 14.4607 147.755 14.4607 147.755 14.4607Z" fill="#455A64"/>
<path d="M133.433 5.29181C133.433 5.29181 133.33 5.60438 133.122 6.02115C132.915 6.54211 132.603 7.16726 132.188 8.00079C131.358 9.66786 130.009 11.8559 128.141 14.0439C126.273 16.2319 124.301 17.899 122.744 18.9409C122.017 19.4619 121.395 19.8786 120.876 20.087C120.461 20.2954 120.149 20.5038 120.149 20.5038C120.149 20.5038 120.357 20.2954 120.772 19.9828C121.187 19.6703 121.81 19.2535 122.536 18.7325C123.989 17.5864 125.961 15.9194 127.829 13.8355C129.697 11.6475 131.046 9.56367 131.877 7.8966C132.292 7.06307 132.603 6.43792 132.915 5.91696C133.33 5.50019 133.433 5.29181 133.433 5.29181Z" fill="#455A64"/>
<path d="M95.4492 28.4224C95.4492 28.4224 95.553 28.3182 95.6568 28.1098C95.7606 27.9014 95.9681 27.693 96.2795 27.3805C96.7984 26.7553 97.5248 25.8176 98.6664 24.7757C99.7043 23.7337 101.053 22.4834 102.61 21.4415C103.44 20.9206 104.271 20.2954 105.308 19.8787C106.243 19.3577 107.28 18.9409 108.422 18.6284C112.781 17.1697 116.932 17.0655 119.838 17.3781C121.291 17.4823 122.536 17.7948 123.263 17.899C123.678 18.0032 123.989 18.1074 124.197 18.1074C124.404 18.2116 124.508 18.2116 124.508 18.2116C124.508 18.2116 124.093 18.1074 123.263 18.0032C122.432 17.899 121.291 17.6906 119.838 17.5864C116.932 17.3781 112.781 17.4823 108.526 18.9409C104.271 20.2954 100.95 23.0044 98.874 24.984C97.8362 26.026 97.0059 26.8595 96.487 27.4846C96.2795 27.7972 96.0719 28.0056 95.8643 28.214C95.4492 28.3182 95.4492 28.4224 95.4492 28.4224Z" fill="#455A64"/>
<path d="M103.44 16.8571C103.44 16.8571 103.752 16.6487 104.271 16.3361C104.582 16.1277 104.893 15.9193 105.309 15.8151C105.724 15.6068 106.139 15.3984 106.658 15.19C107.177 14.9816 107.695 14.669 108.422 14.4607C109.045 14.2523 109.771 14.0439 110.394 13.8355C111.847 13.4187 113.507 13.1062 115.168 12.8978C116.932 12.6894 118.593 12.7936 120.045 12.8978C120.772 13.002 121.498 13.002 122.121 13.1062C122.744 13.2104 123.366 13.3145 123.989 13.4187C124.508 13.5229 125.027 13.7313 125.442 13.8355C125.857 13.9397 126.272 14.0439 126.584 14.1481C127.206 14.3565 127.518 14.4607 127.518 14.5648C127.518 14.5648 127.206 14.4607 126.584 14.3565C126.272 14.2523 125.961 14.1481 125.442 14.0439C125.027 13.9397 124.508 13.8355 123.989 13.7313C123.47 13.6271 122.848 13.5229 122.225 13.4187C121.602 13.3145 120.876 13.2104 120.149 13.2104C118.696 13.1062 117.036 13.1062 115.375 13.3145C113.715 13.5229 112.054 13.8355 110.601 14.1481C109.875 14.3565 109.252 14.5648 108.63 14.7732C108.007 14.9816 107.384 15.19 106.865 15.3984C106.346 15.6068 105.931 15.8151 105.516 16.0235C105.101 16.2319 104.79 16.4403 104.478 16.5445C103.752 16.6487 103.44 16.8571 103.44 16.8571Z" fill="#455A64"/>
<path d="M108.421 54.1577C108.525 54.1577 108.318 54.5745 107.799 55.0954C107.28 55.6164 106.346 56.1374 105.204 56.2415C104.063 56.3457 103.025 55.929 102.506 55.408C101.883 54.9912 101.676 54.5745 101.779 54.4703C101.883 54.3661 102.195 54.6787 102.713 54.9912C103.336 55.3038 104.166 55.6164 105.204 55.6164C106.242 55.5122 107.072 55.0954 107.591 54.7829C108.11 54.4703 108.421 54.1577 108.421 54.1577Z" fill="#EB996E"/>
<path d="M132.291 53.4284C132.395 53.4284 132.187 53.8451 131.772 54.3661C131.357 54.8871 130.527 55.408 129.593 55.6164C128.659 55.8248 127.725 55.6164 127.102 55.408C126.479 55.1996 126.168 54.887 126.272 54.7829C126.375 54.6787 127.725 55.408 129.489 55.0954C131.253 54.6787 132.187 53.3242 132.291 53.4284Z" fill="#EB996E"/>
<path d="M113.818 34.5697C113.818 34.5697 114.13 34.6739 114.337 35.1949C114.545 35.6116 114.752 36.341 114.441 37.0703C114.13 37.7996 113.611 38.3206 113.092 38.529C112.677 38.7374 112.365 38.7374 112.262 38.6332C112.262 38.529 112.469 38.4248 112.884 38.2164C113.196 38.008 113.611 37.5913 113.818 36.9661C114.026 36.341 114.026 35.82 113.922 35.4032C113.922 34.8823 113.818 34.6739 113.818 34.5697Z" fill="#EB996E"/>
<path d="M117.347 38.9457C117.347 38.9457 117.035 38.8415 116.724 38.4247C116.413 38.008 116.205 37.3828 116.205 36.5493C116.205 35.8199 116.62 35.0906 116.932 34.778C117.243 34.4655 117.554 34.3613 117.658 34.3613C117.762 34.4655 116.828 35.1948 116.828 36.5493C116.724 37.9038 117.45 38.8415 117.347 38.9457Z" fill="#EB996E"/>
<path d="M87.1465 57.3877C87.1465 57.3877 89.8448 54.5745 90.0524 53.3242C90.7788 49.0523 92.128 46.8643 94.3074 45.5098C94.3074 45.5098 97.1095 50.3026 97.4209 58.5338C97.6284 64.3685 97.7322 68.8488 97.7322 68.8488C97.7322 68.8488 100.638 75.8296 99.2889 79.3721C97.9398 82.9146 95.9679 81.6643 93.3734 80.6224C90.7788 79.5805 89.8448 75.3086 89.8448 75.3086L87.1465 75.2044V57.3877Z" fill="#FFBE9D"/>
<path d="M94.3067 45.5098C94.3067 45.5098 94.4105 45.614 94.5143 45.8224C94.6181 46.0308 94.8257 46.3434 95.0332 46.7601C95.4483 47.5937 95.9673 48.9481 96.3824 50.6152C96.7975 52.2823 97.1088 54.2619 97.4202 56.5541C97.524 57.7002 97.6278 58.8464 97.7315 60.0967C97.8353 61.347 97.9391 62.5973 97.9391 63.9517C97.9391 65.3062 97.9391 66.5565 98.0429 67.7026C98.1467 68.8487 98.5618 69.9949 98.8731 71.0368C99.1845 72.0787 99.5996 73.1206 99.8072 74.1625C100.015 75.1002 100.119 76.1422 100.015 76.9757C99.8072 78.747 99.1845 79.9972 98.5618 80.8308C97.9391 81.6643 97.3164 81.7685 97.3164 81.6643C97.3164 81.6643 97.8353 81.4559 98.3542 80.6224C98.8731 79.8931 99.392 78.5386 99.5996 76.8715C99.8072 75.2044 99.0807 73.329 98.3542 71.141C97.9391 70.0991 97.6278 68.9529 97.4202 67.7026C97.2126 66.4523 97.2126 65.202 97.2126 63.8475C97.2126 62.4931 97.2126 61.347 97.1088 60.0967C97.0051 58.8464 96.9013 57.7002 96.7975 56.5541C96.5899 54.3661 96.2786 52.2823 95.8635 50.6152C95.4483 48.9481 95.0332 47.6979 94.7219 46.7601C94.5143 46.0308 94.203 45.614 94.3067 45.5098Z" fill="#EB996E"/>
<path d="M92.3354 58.2212C92.3354 58.3254 90.8824 58.2212 89.2219 57.9086C87.5614 57.596 86.1085 57.1793 86.2123 57.0751C86.2123 56.9709 87.6652 57.0751 89.3257 57.3877C90.9862 57.7002 92.3354 58.117 92.3354 58.2212Z" fill="#EB996E"/>
<path d="M156.576 43.7385C156.576 43.7385 159.482 51.0319 159.482 53.8451C159.482 56.7625 157.51 63.9517 157.51 63.9517L156.576 43.7385Z" fill="#FFBE9D"/>
<path d="M162.077 65.6188L158.03 64.9936C158.03 64.9936 156.992 54.2619 157.096 52.5948C157.303 49.2607 156.577 39.4667 155.228 38.1122C152.426 35.4032 153.048 52.5948 153.048 52.5948C153.048 48.1146 152.737 42.384 152.114 41.2379C150.973 39.2583 149.727 41.4463 149.727 41.4463C149.727 41.4463 147.444 58.9505 147.34 62.7014C147.133 66.4523 146.925 76.8715 147.652 78.9553C148.378 81.1433 147.548 81.8727 149.935 81.6643C152.426 81.4559 165.813 79.893 165.813 79.893L162.907 65.4104" fill="#FFBE9D"/>
<path d="M149.83 41.4463C149.83 41.4463 149.83 42.0714 149.727 43.2175C149.623 44.3637 149.519 45.9265 149.312 47.9062C148.896 51.8655 148.17 57.2834 147.34 63.3265C146.925 66.3481 146.613 69.1613 146.406 71.8702C146.198 74.475 145.887 76.8714 146.406 78.7469C146.613 79.6846 147.236 80.3098 147.859 80.7265C148.481 81.1433 149.208 81.3517 149.727 81.4559C150.764 81.6643 151.387 81.5601 151.387 81.6643C151.387 81.6643 151.283 81.7684 150.972 81.7684C150.661 81.7684 150.246 81.7685 149.727 81.6643C149.208 81.5601 148.481 81.3517 147.755 81.0391C147.443 80.8307 147.028 80.6223 146.717 80.2056C146.406 79.893 146.198 79.372 146.094 78.8511C145.472 76.8714 145.783 74.475 145.887 71.8702C146.094 69.2655 146.406 66.3481 146.717 63.3265C147.443 57.2834 148.274 51.8655 148.793 47.9062C149 46.0307 149.208 44.4678 149.415 43.2175C149.623 42.0714 149.727 41.4463 149.83 41.4463Z" fill="#EB996E"/>
<path d="M152.633 57.596C152.529 57.4918 152.944 56.8667 153.048 55.929C153.152 54.9913 152.944 54.2619 153.152 54.1577C153.255 54.0535 153.774 54.8871 153.671 56.0332C153.359 57.0751 152.633 57.7002 152.633 57.596Z" fill="#EB996E"/>
<path d="M152.944 44.4679C153.048 44.4679 153.463 46.2392 153.463 48.4272C153.463 50.6152 153.151 52.3865 153.048 52.3865C152.944 52.3865 152.944 50.6152 152.944 48.4272C152.944 46.2392 152.736 44.4679 152.944 44.4679Z" fill="#EB996E"/>
<path d="M157.096 54.9912C156.992 54.9912 156.784 52.5948 156.681 49.4691C156.473 46.4475 156.577 43.9469 156.784 43.9469C156.888 43.9469 157.096 46.3433 157.199 49.4691C157.407 52.4906 157.303 54.9912 157.096 54.9912Z" fill="#EB996E"/>
<path d="M163.322 65.8272C163.322 65.9314 161.247 66.0356 158.756 66.0356C156.265 65.9314 154.189 65.8272 154.189 65.6188C154.189 65.5146 156.265 65.4104 158.756 65.4104C161.247 65.5146 163.322 65.723 163.322 65.8272Z" fill="#EB996E"/>
</g>
<defs>
<clipPath id="clip0">
<rect width="247" height="174" fill="white"/>
</clipPath>
</defs>
</svg>
