<svg width="238" height="172" viewBox="0 0 238 172" fill="none" xmlns="http://www.w3.org/2000/svg">
<g clip-path="url(#clip0)">
<path d="M100.84 117.93L103.676 144.566C103.676 144.566 109.229 136.102 113.01 139.89C116.613 143.501 122.934 169.605 122.934 169.605C122.934 169.605 122.993 178.128 118.503 180.378C104.03 187.599 87.8439 173.985 87.8439 173.985L90.1478 97.8046C96.1733 102.895 100.013 110.117 100.84 117.93Z" fill="#85BC91"/>
<path d="M51.8681 99.4028L76.9747 97.3902C77.1519 94.4306 76.9156 83.0657 76.9156 83.0657C76.9156 83.0657 87.3718 81.4083 87.49 70.9905C87.6081 60.5726 85.8359 36.4813 85.8359 36.4813C73.7256 31.2724 59.7841 33.0482 49.3279 41.0983L47.792 42.2822L51.8681 99.4028Z" fill="#FFBE9D"/>
<path d="M76.9746 82.9473C76.9746 82.9473 70.3583 83.48 63.3284 79.0406C63.3284 79.0406 66.5184 86.558 76.9746 85.6109V82.9473Z" fill="#AA6550"/>
<path d="M49.0914 53.1144C48.9141 53.0552 41.8843 50.9834 42.1206 58.1457C42.3569 65.308 49.4458 63.5914 49.5049 63.4138C49.5049 63.177 49.0914 53.1144 49.0914 53.1144Z" fill="#FFBE9D"/>
<path d="M47.2598 60.7502C47.2007 60.7502 47.1416 60.8685 46.9053 60.9277C46.7281 61.0461 46.3737 61.1053 45.9602 60.9869C45.1922 60.7502 44.5424 59.5663 44.4242 58.2641C44.3652 57.613 44.4833 56.9619 44.7196 56.4883C44.8968 55.9556 45.2513 55.6004 45.6057 55.482C45.9602 55.3637 46.2555 55.6004 46.3737 55.778C46.4918 55.9556 46.4327 56.1332 46.4918 56.1332C46.4918 56.1332 46.669 56.0148 46.5509 55.7188C46.4918 55.6004 46.4327 55.4229 46.2555 55.3045C46.0783 55.1861 45.842 55.1269 45.5466 55.1269C45.015 55.1861 44.5424 55.7188 44.3061 56.2515C44.0698 56.8435 43.8926 57.5538 43.9516 58.2641C44.0698 59.6847 44.8377 61.0461 45.842 61.2829C46.3737 61.4013 46.7872 61.2237 46.9644 61.0461C47.2598 60.9277 47.2598 60.7502 47.2598 60.7502Z" fill="#AA6550"/>
<path d="M83.5322 52.7C83.5322 53.4695 82.9415 54.1798 82.1145 54.1798C81.2874 54.239 80.5785 53.6471 80.5785 52.8184C80.5785 52.0489 81.1693 51.3386 81.9963 51.3386C82.8234 51.3386 83.5322 51.9305 83.5322 52.7Z" fill="#263238"/>
<path d="M83.8865 51.2202C83.7093 51.3978 82.5869 50.5691 80.9918 50.5691C79.3968 50.5691 78.2153 51.3978 78.0381 51.161C77.979 51.1018 78.1562 50.7467 78.6288 50.3323C79.1605 49.9772 79.9876 49.622 80.9918 49.622C81.9961 49.622 82.8232 49.9772 83.2957 50.3915C83.7683 50.8059 83.9456 51.161 83.8865 51.2202Z" fill="#263238"/>
<path d="M67.8184 53.2919C67.8184 54.0614 67.2276 54.7717 66.4006 54.7717C65.5735 54.8309 64.8647 54.239 64.8647 53.4103C64.8647 52.6408 65.4554 51.9305 66.2824 51.9305C67.1095 51.8713 67.8184 52.4632 67.8184 53.2919Z" fill="#263238"/>
<path d="M68.1135 51.5162C67.9363 51.6937 66.8139 50.865 65.2189 50.865C63.6239 50.865 62.4424 51.6937 62.2652 51.457C62.2061 51.3978 62.3833 51.0426 62.8559 50.6283C63.3876 50.2731 64.2146 49.918 65.2189 49.918C66.2232 49.918 67.0502 50.2731 67.5228 50.6875C67.9954 51.1018 68.1726 51.457 68.1135 51.5162Z" fill="#263238"/>
<path d="M73.9026 63.473C73.9026 63.3546 74.9069 63.2363 76.5019 62.9995C76.9154 62.9403 77.3289 62.8811 77.388 62.5851C77.5061 62.2892 77.3289 61.8748 77.0926 61.3421C76.6791 60.3358 76.3246 59.3296 75.852 58.2049C74.1389 53.7655 72.9574 50.0956 73.1346 50.0364C73.3118 49.9772 74.8478 53.5287 76.5019 57.9681C76.9154 59.0928 77.2698 60.0991 77.6834 61.1053C77.8606 61.5789 78.0969 62.1116 77.9197 62.7035C77.8015 62.9995 77.5061 63.2363 77.2698 63.2955C77.0335 63.3546 76.7972 63.3546 76.5609 63.4138C74.9069 63.5322 73.9026 63.5322 73.9026 63.473Z" fill="#263238"/>
<path d="M68.5273 45.2418C68.3501 45.6562 66.7551 45.4786 64.8647 45.7154C62.9744 45.8929 61.4384 46.4849 61.2021 46.0705C61.084 45.8929 61.3793 45.4786 61.9701 45.0642C62.5608 44.6499 63.5651 44.2355 64.6875 44.1172C65.8099 43.9988 66.8733 44.1764 67.5231 44.4723C68.232 44.6499 68.5864 45.005 68.5273 45.2418Z" fill="#263238"/>
<path d="M83.2956 46.5441C83.0002 46.8992 81.8778 46.5441 80.5782 46.4849C79.2785 46.4257 78.0971 46.7216 77.8608 46.3665C77.7426 46.1889 77.9198 45.8337 78.3924 45.4786C78.865 45.1234 79.6921 44.8275 80.5782 44.8867C81.4643 44.8867 82.2913 45.2418 82.7639 45.597C83.2365 46.0113 83.4138 46.3665 83.2956 46.5441Z" fill="#263238"/>
<path d="M90.9164 29.911C91.0345 28.6088 90.5619 27.2474 89.4986 26.4779C88.4352 25.7084 86.7812 25.7676 85.9541 26.7147C86.4267 24.9389 85.0089 22.9263 83.2367 22.808C81.5235 22.6896 80.1058 23.9918 78.4517 24.4653C76.8567 24.8797 75.1435 24.5245 73.5485 23.8734C72.0126 23.2223 70.5357 22.3936 68.9998 21.8017C65.7507 20.6178 62.029 20.7362 58.839 22.216C55.708 23.6958 53.1088 26.4187 51.9273 29.6743C49.6234 28.964 47.0241 30.1478 45.6654 32.042C44.2476 33.9953 43.8932 36.5406 44.1885 38.9083C44.3658 40.5065 44.8384 42.0455 45.37 43.5845C45.37 43.7028 45.37 43.8804 45.37 43.9988C45.4882 49.7405 46.138 56.4884 48.56 56.5476C52.8134 56.6068 51.8091 48.5566 51.8091 48.5566C57.0668 46.5441 55.1173 38.6715 56.4169 37.4876C57.7166 36.3038 60.4931 33.5218 71.4218 39.145C75.6752 41.3351 81.3463 41.276 84.4182 40.5656C84.5363 40.5656 84.5954 40.5065 84.7136 40.5065H84.7726C84.8317 40.5065 84.8317 40.5065 84.8908 40.4473C85.895 40.2105 86.8402 39.7961 87.7263 39.2634C88.7306 38.6123 89.6167 37.7836 90.0302 36.659C90.4438 35.5343 90.2665 34.1729 89.4395 33.4034C90.2075 32.3971 90.7982 31.2133 90.9164 29.911Z" fill="#263238"/>
<path d="M31.3691 165.106L30.6011 179.963L28.8289 201.273H95.9374L93.0427 169.723L98.7729 119.943C98.3004 102.362 91.5068 95.0226 77.7425 93.3652C77.6243 93.3652 78.9239 93.5428 78.8058 93.4836C76.9154 93.2468 78.8058 93.4836 77.7425 93.3652C68.8222 96.1472 59.902 96.088 50.9818 93.3652C46.8466 93.5428 43.4202 94.845 39.8758 95.4961C28.7698 97.627 19.6723 106.21 17.4275 113.668C15.5962 119.824 2.42264 173.156 2.42264 173.156H28.7107L31.3691 165.106Z" fill="#85BC91"/>
<path d="M75.2612 68.386C75.0249 69.0371 74.7296 69.6882 74.3161 70.221C73.9025 70.7537 73.2527 71.168 72.6029 71.2272C71.894 71.2864 71.1851 70.8129 70.7716 70.221C70.3581 69.629 70.2399 68.8595 70.2399 68.1492C70.299 67.4981 70.5944 66.7286 71.2442 66.6102C71.5396 66.551 71.7759 66.6694 72.0122 66.7878C73.1346 67.2613 74.3161 67.7349 75.4385 68.2084" fill="#AA6550"/>
<path d="M73.9026 71.2273C73.9026 71.1089 73.1346 71.4048 72.0713 70.9905C71.5396 70.7537 71.0079 70.3986 70.6535 69.7475C70.3581 69.0963 70.2991 68.2676 70.5944 67.4981C70.6535 67.3206 70.7716 67.143 70.8898 66.9654C71.0079 66.847 71.0079 66.847 71.1261 66.847C71.2442 66.9062 71.4806 66.9654 71.6578 67.0838C71.835 67.143 72.0122 67.2614 72.2485 67.3206C72.9574 67.6165 73.6663 67.8533 74.198 68.0901C75.3204 68.5044 76.0293 68.7412 76.0884 68.682C76.1474 68.6228 75.4385 68.2676 74.3752 67.7349C73.8435 67.4982 73.1937 67.143 72.4848 66.847C72.3076 66.7878 72.1304 66.6695 71.9531 66.6103C71.7759 66.5511 71.5987 66.4327 71.3033 66.3735C71.1852 66.3143 70.9489 66.3143 70.7717 66.3735C70.5944 66.4327 70.4763 66.5511 70.4172 66.6695C70.24 66.847 70.1218 67.0838 70.0037 67.3206C69.5902 68.2676 69.7083 69.3331 70.1218 70.1026C70.5354 70.8721 71.2443 71.3456 71.8941 71.5232C72.4848 71.7008 73.0756 71.6416 73.3709 71.5824C73.7254 71.4048 73.9026 71.2865 73.9026 71.2273Z" fill="#263238"/>
<path d="M98.8319 162.147L114.664 113.491L116.082 105.322C116.082 105.322 120.394 87.0908 120.571 85.315C120.808 83.2433 121.871 82.8289 122.58 82.9473C123.761 83.1841 124.47 84.7231 124.293 86.4988C124.234 87.0908 123.112 96.8575 123.112 96.8575C123.112 96.8575 123.643 96.088 125.297 94.4306C126.951 92.7732 130.437 92.0629 133.863 92.5956C137.348 93.0692 138.235 93.5427 138.116 94.9041C138.057 95.4369 137.703 95.8512 137.289 96.1472C136.58 96.6207 135.753 96.7983 134.926 96.6799C129.373 95.9696 127.542 98.8108 127.542 98.8108L127.365 99.8763C127.365 99.8763 131.027 97.8046 133.568 99.1068C133.981 99.3436 134.336 99.5803 134.572 99.8763C136.049 100.054 137.408 101.001 138.057 102.362C138.707 103.783 138.53 105.5 137.644 106.802C137.23 107.394 136.462 107.926 135.753 107.69C135.399 107.571 135.104 107.275 134.808 106.979C134.69 106.802 134.513 106.683 134.336 106.565L133.39 109.465C133.39 109.465 130.909 115.917 130.141 118.818L122.462 167.77C121.398 174.577 114.959 179.135 108.225 177.951C101.018 176.767 96.528 169.25 98.8319 162.147Z" fill="#FFBE9D"/>
<path d="M116.318 113.017C117.322 113.431 118.445 112.78 119.095 111.952C119.744 111.123 120.099 110.057 120.69 109.169C122.462 106.506 126.065 105.559 127.72 102.777C127.956 102.422 128.133 101.83 127.779 101.534C127.483 101.238 127.011 101.415 126.597 101.534C123.348 102.895 120.099 104.257 116.909 105.618" fill="#FFBE9D"/>
<path d="M116.85 105.677C116.85 105.618 117.204 105.44 117.854 105.144C118.504 104.848 119.508 104.375 120.689 103.842C121.93 103.309 123.348 102.658 124.884 102.007C125.297 101.83 125.711 101.652 126.124 101.474C126.538 101.356 127.01 101.001 127.66 101.179C128.015 101.297 128.192 101.711 128.192 102.007C128.192 102.303 128.074 102.599 127.956 102.836C127.66 103.309 127.365 103.724 127.01 104.079C125.593 105.618 123.82 106.447 122.521 107.512C121.871 108.045 121.28 108.637 120.867 109.229C120.453 109.821 120.158 110.472 119.803 111.064C119.213 112.247 118.208 113.017 117.44 113.135C116.672 113.254 116.259 112.958 116.318 112.958C116.318 112.899 116.731 113.076 117.381 112.899C118.09 112.721 118.917 112.011 119.449 110.886C119.744 110.294 120.04 109.643 120.453 108.933C120.867 108.282 121.516 107.63 122.166 107.098C123.525 105.973 125.238 105.085 126.597 103.665C126.951 103.309 127.188 102.954 127.424 102.54C127.66 102.185 127.66 101.77 127.424 101.711C127.188 101.593 126.715 101.77 126.302 101.948C125.888 102.126 125.474 102.303 125.061 102.481C123.466 103.132 122.048 103.724 120.808 104.197C119.567 104.671 118.622 105.085 117.913 105.322C117.263 105.559 116.85 105.677 116.85 105.677Z" fill="#AA6550"/>
<path d="M127.306 99.8763C127.365 99.8763 127.365 99.0476 128.133 98.0413C128.546 97.5678 129.137 97.1535 129.964 96.9759C130.732 96.7983 131.677 96.7983 132.622 96.8575C133.568 96.9167 134.513 97.0351 135.399 96.9167C136.285 96.7983 136.994 96.5615 137.525 96.088C138.057 95.6737 138.234 95.0817 138.234 94.7266C138.234 94.3714 138.116 94.1938 138.116 94.1938C138.057 94.1938 138.116 94.3714 138.116 94.7266C138.057 95.0817 137.88 95.5553 137.407 95.9104C136.935 96.2656 136.167 96.5023 135.399 96.5615C134.572 96.6207 133.686 96.5615 132.681 96.5023C131.736 96.4432 130.732 96.4432 129.905 96.6207C129.078 96.8575 128.369 97.331 127.955 97.8638C127.542 98.3965 127.365 98.9292 127.306 99.2844C127.247 99.6987 127.247 99.8763 127.306 99.8763Z" fill="#AA6550"/>
<path d="M124.352 85.8477C124.293 85.8477 124.234 86.558 124.115 87.8011C123.997 89.1033 123.82 90.7015 123.643 92.4773C123.466 94.253 123.288 95.792 123.111 97.1535C122.993 98.3373 122.875 99.1068 122.934 99.1068C122.993 99.1068 123.17 98.3965 123.347 97.2126C123.584 96.0288 123.82 94.3714 123.997 92.5365C124.174 90.7015 124.293 89.0441 124.352 87.8603C124.47 86.6172 124.411 85.8477 124.352 85.8477Z" fill="#AA6550"/>
<path d="M129.255 102.362C129.255 102.362 129.492 102.303 129.846 102.185C130.2 102.066 130.791 101.948 131.323 102.303C131.618 102.481 131.736 102.777 131.736 103.191C131.736 103.546 131.618 103.961 131.5 104.434C131.382 104.908 131.323 105.44 131.559 105.973C131.854 106.506 132.386 106.802 132.977 106.92C133.568 106.979 134.158 106.743 134.572 106.447C134.985 106.092 135.281 105.677 135.458 105.144C135.694 104.197 135.694 103.369 135.694 102.658C135.635 101.948 135.517 101.356 135.399 101.001C135.222 100.646 135.045 100.468 135.045 100.468C135.045 100.468 135.163 100.646 135.222 101.06C135.34 101.415 135.399 102.007 135.399 102.658C135.399 103.369 135.34 104.197 135.104 105.026C134.867 105.796 133.981 106.624 133.036 106.506C132.563 106.447 132.15 106.151 131.914 105.796C131.736 105.381 131.736 104.967 131.854 104.493C131.973 104.079 132.091 103.605 132.032 103.132C132.032 102.718 131.795 102.244 131.441 102.066C130.732 101.652 130.082 101.948 129.728 102.066C129.432 102.185 129.255 102.303 129.255 102.362Z" fill="#AA6550"/>
<path d="M134.454 106.032C134.454 106.032 134.335 106.21 134.454 106.565C134.513 106.92 134.808 107.453 135.458 107.69C136.108 107.926 136.994 107.808 137.644 107.275C138.352 106.743 138.766 105.796 138.884 104.789C139.002 103.783 138.766 102.836 138.352 102.126C137.939 101.356 137.289 100.883 136.757 100.527C136.226 100.231 135.694 100.054 135.34 100.054C134.985 99.9947 134.808 100.054 134.808 100.054C134.808 100.113 135.576 100.113 136.639 100.764C137.112 101.119 137.703 101.593 138.057 102.303C138.412 103.014 138.648 103.901 138.53 104.789C138.412 105.677 138.057 106.506 137.466 107.039C136.876 107.571 136.108 107.69 135.576 107.512C135.044 107.335 134.749 106.92 134.631 106.624C134.454 106.269 134.513 106.032 134.454 106.032Z" fill="#AA6550"/>
<path d="M127.069 111.833C127.069 111.774 126.715 111.715 126.124 111.774C125.533 111.833 124.706 112.07 123.938 112.78L124.234 112.899C124.234 112.484 124.234 112.011 124.175 111.596C123.879 109.051 122.698 107.216 122.58 107.335C122.462 107.394 123.466 109.169 123.761 111.656C123.82 112.129 123.82 112.543 123.879 112.958V113.372L124.175 113.076C124.825 112.425 125.592 112.129 126.124 112.011C126.715 111.892 127.069 111.892 127.069 111.833Z" fill="#AA6550"/>
<path d="M129.019 95.2593C128.901 95.3185 129.196 96.0288 130.023 96.5023C130.85 96.9759 131.618 96.8575 131.618 96.7391C131.618 96.6207 130.909 96.5615 130.2 96.1472C129.551 95.792 129.137 95.2001 129.019 95.2593Z" fill="#AA6550"/>
<path d="M86.3082 95.2593C86.3082 95.2593 86.5445 95.496 86.8989 95.9696C87.2534 96.4431 87.9032 97.0942 88.2576 98.1597C88.3758 98.3965 88.3758 98.6924 88.4349 98.9884C88.4349 99.2843 88.3758 99.5803 88.1986 99.8763C87.9032 100.468 87.2534 100.883 86.4854 101.119C85.0085 101.652 83.1182 101.83 81.1096 101.889C80.1054 101.889 78.983 101.948 77.8605 102.007C77.2698 102.066 76.7381 102.126 76.1474 102.185C75.5566 102.244 74.9659 102.422 74.3751 102.54C72.0122 103.073 69.472 104.02 67.2862 105.677C66.1638 106.506 65.1595 107.571 64.3325 108.755C64.1553 109.051 63.919 109.406 63.8008 109.702C63.6236 110.057 63.5055 110.412 63.3873 110.708C63.151 111.419 62.9147 112.129 62.7966 112.899C62.2058 115.858 62.6784 119.173 64.2144 122.014C65.7503 124.855 68.3496 126.927 71.1851 127.993C72.6029 128.525 74.0798 128.821 75.5566 128.88C77.0335 128.94 78.4513 128.644 79.7509 128.348C81.1096 128.052 82.3502 127.756 83.5908 127.637C84.8313 127.578 86.0719 127.756 87.0761 128.229C88.1395 128.762 88.9665 129.532 89.6754 130.36C90.3843 131.189 91.0341 132.077 91.684 132.906C92.9245 134.563 94.2241 135.984 95.701 136.753C96.469 137.108 97.2369 137.345 97.9458 137.345C98.6547 137.345 99.3045 137.227 99.8362 136.99C100.368 136.753 100.84 136.457 101.136 136.161C101.49 135.865 101.668 135.51 101.786 135.214C102.022 134.622 102.022 134.326 102.022 134.326C101.963 134.326 101.963 134.622 101.727 135.155C101.608 135.392 101.372 135.747 101.077 135.984C100.722 136.28 100.309 136.516 99.7771 136.753C98.7138 137.167 97.2369 137.227 95.8782 136.457C94.4605 135.688 93.2199 134.267 92.0384 132.61C91.4477 131.781 90.7978 130.893 90.0889 130.005C89.321 129.176 88.4349 128.289 87.3125 127.756C86.19 127.164 84.8313 126.986 83.5317 127.046C82.232 127.105 80.8733 127.46 79.5737 127.697C78.2741 127.993 76.9154 128.229 75.4976 128.17C74.1389 128.111 72.7211 127.815 71.3624 127.341C68.6449 126.335 66.1638 124.323 64.6869 121.659C63.2101 118.936 62.7966 115.799 63.3282 112.958C63.4464 112.247 63.6827 111.537 63.919 110.886C64.0371 110.531 64.1553 110.235 64.3325 109.939C64.5097 109.643 64.687 109.347 64.8642 109.051C65.6321 107.926 66.5773 106.92 67.6407 106.091C69.7673 104.434 72.1894 103.546 74.4933 102.954C75.084 102.836 75.6748 102.658 76.2065 102.599C76.7972 102.54 77.3289 102.481 77.9196 102.362C79.042 102.303 80.1054 102.244 81.1096 102.185C83.1772 102.126 85.0676 101.948 86.6035 101.297C87.3715 101.001 88.0804 100.527 88.4349 99.8763C88.6121 99.5211 88.6712 99.166 88.6712 98.8108C88.6712 98.4557 88.553 98.1597 88.4939 97.8637C88.0804 96.7391 87.3715 96.088 87.0171 95.6736C86.6036 95.4369 86.3082 95.2593 86.3082 95.2593Z" fill="#FAFAFA"/>
<path d="M41.3527 134.741C41.3527 134.741 41.5299 134.267 41.6481 133.438C41.7662 132.55 41.7662 131.248 41.4118 129.709C41.0573 128.17 40.2894 126.394 39.1079 124.678C37.9264 122.961 36.2133 121.363 34.1457 120.12C32.0781 118.877 29.8923 118.167 27.8247 117.752C25.8162 117.338 23.9258 117.22 22.3899 117.16C20.8539 117.16 19.5543 117.22 18.7273 117.338C17.8412 117.456 17.3685 117.516 17.3685 117.575C17.3685 117.693 19.318 117.456 22.3899 117.575C23.9258 117.634 25.7571 117.812 27.7656 118.285C29.7151 118.699 31.8417 119.469 33.9093 120.653C35.9179 121.837 37.5129 123.435 38.6944 125.033C39.8759 126.69 40.6438 128.348 40.9983 129.828C41.4118 131.307 41.4709 132.55 41.4118 133.438C41.3527 134.267 41.2936 134.741 41.3527 134.741Z" fill="#FAFAFA"/>
<path d="M9.09789 145.04C9.09789 145.04 9.27512 145.454 9.80679 146.105C10.2794 146.757 11.1064 147.585 12.1698 148.532C13.2922 149.479 14.71 150.486 16.4231 151.255C18.1363 152.084 20.2039 152.735 22.3896 152.972C24.5754 153.209 26.702 153.09 28.5924 152.676C30.4828 152.262 32.0778 151.67 33.3775 151.018C34.6771 150.367 35.6223 149.716 36.2721 149.184C36.9219 148.71 37.2173 148.355 37.2173 148.355C37.1582 148.236 35.7995 149.42 33.2002 150.604C30.66 151.788 26.7611 152.853 22.4487 152.321C18.1953 151.788 14.5918 149.835 12.4061 148.118C10.2203 146.401 9.15696 144.922 9.09789 145.04Z" fill="#FAFAFA"/>
<path d="M38.7528 143.146C38.7528 143.146 38.93 143.205 39.2845 143.383C39.6389 143.501 40.1115 143.797 40.6432 144.271C41.1749 144.744 41.6475 145.514 42.0019 146.461C42.3564 147.408 42.7108 148.532 42.9471 149.775C43.2425 151.018 43.4197 152.439 43.8923 153.919C44.1286 154.629 44.483 155.399 44.8966 156.109C45.3691 156.819 45.9599 157.47 46.6097 158.062C47.9684 159.187 49.6816 160.016 51.5129 160.548C53.3442 161.081 55.2346 161.377 57.184 161.791C61.0239 162.502 64.5683 163.922 67.2857 165.994C68.6444 167 69.7669 168.184 70.653 169.368C71.5391 170.611 72.1298 171.854 72.6024 173.097C73.4295 175.524 73.4295 177.655 73.2522 179.076C73.016 180.496 72.7206 181.266 72.7797 181.266C72.7797 181.266 72.8978 181.088 73.016 180.733C73.075 180.555 73.1932 180.319 73.2522 180.082C73.3704 179.786 73.4295 179.49 73.4885 179.135C73.7839 177.714 73.843 175.524 73.016 172.979C72.6024 171.736 71.9526 170.374 71.1256 169.131C70.2395 167.888 69.058 166.645 67.6993 165.58C64.9228 163.449 61.3192 161.91 57.3612 161.2C55.4118 160.844 53.5214 160.548 51.7492 160.016C49.977 159.483 48.3229 158.773 47.0823 157.707C46.4325 157.174 45.9008 156.583 45.4282 155.931C45.0147 155.28 44.6603 154.57 44.424 153.86C43.9514 152.439 43.7151 151.018 43.4197 149.775C43.1243 148.473 42.7699 147.349 42.3564 146.401C41.9428 145.454 41.4112 144.685 40.8204 144.152C40.2888 143.679 39.698 143.383 39.3436 143.323C38.9891 143.146 38.7528 143.146 38.7528 143.146Z" fill="#FAFAFA"/>
<path d="M54.5851 140.66C54.5851 140.66 54.3488 141.074 54.2898 141.844C54.2307 142.672 54.4079 143.915 55.235 145.099C55.6485 145.691 56.2392 146.283 57.0072 146.697C57.3616 146.934 57.8342 147.053 58.3068 147.171C58.7794 147.23 59.252 147.289 59.7246 147.23C60.7289 147.112 61.7331 146.757 62.5602 146.105C63.3872 145.454 64.0961 144.507 64.3915 143.383C64.5687 142.672 64.5687 141.903 64.3915 141.193C64.2143 140.482 63.8598 139.831 63.4463 139.358C63.0328 138.825 62.6193 138.351 62.1467 137.937C61.9104 137.7 61.6741 137.523 61.3787 137.345C61.0833 137.167 60.788 137.049 60.4335 137.049L60.3744 137.582C60.4926 137.582 60.5517 137.641 60.6698 137.641L60.788 137.108C59.6065 136.753 58.425 136.931 57.5389 137.286C56.5937 137.641 55.9438 138.174 55.4713 138.706C54.9987 139.239 54.7624 139.713 54.6442 140.068C54.5851 140.482 54.5851 140.66 54.5851 140.66C54.6442 140.719 54.8214 139.89 55.7666 138.943C56.2392 138.47 56.8891 137.996 57.7752 137.7C58.6022 137.404 59.6656 137.286 60.7289 137.641L60.847 137.108C60.7289 137.108 60.6698 137.049 60.5517 137.049L60.4926 137.582C60.9061 137.641 61.3787 137.996 61.7922 138.351C62.2057 138.766 62.6193 139.18 62.9737 139.713C63.3282 140.245 63.6826 140.719 63.8008 141.37C63.9189 141.962 63.9189 142.613 63.7417 143.264C63.5054 144.271 62.9146 145.099 62.1467 145.691C61.3787 146.283 60.4926 146.638 59.6065 146.757C59.1929 146.816 58.7204 146.816 58.3068 146.757C57.8933 146.697 57.4798 146.579 57.1844 146.342C56.4755 145.987 55.9439 145.454 55.5303 144.922C54.7033 143.797 54.467 142.672 54.467 141.903C54.5261 141.133 54.6442 140.66 54.5851 140.66Z" fill="#FAFAFA"/>
<path d="M92.6882 121.304C92.6882 121.304 92.6882 121.363 92.6882 121.481C92.6882 121.6 92.6882 121.777 92.6882 121.955C92.6882 122.369 92.7473 122.961 92.7473 123.731C92.8654 125.27 92.9245 127.519 93.0426 130.301C93.2789 135.865 93.5152 143.501 93.6925 151.966C93.8697 160.43 93.9878 168.125 94.0469 173.63C94.106 176.412 94.106 178.602 94.165 180.2C94.165 180.97 94.165 181.562 94.2241 181.976C94.2241 182.154 94.2241 182.331 94.2241 182.45C94.2241 182.568 94.2241 182.627 94.2241 182.627C94.2241 182.627 94.2241 182.568 94.2241 182.45C94.2241 182.331 94.2241 182.154 94.2241 181.976C94.2241 181.562 94.2241 180.97 94.2241 180.2C94.2241 178.602 94.2241 176.412 94.2241 173.63C94.2241 168.066 94.106 160.43 93.9287 151.966C93.7515 143.501 93.5152 135.806 93.2199 130.301C93.0426 127.519 92.9245 125.27 92.8063 123.731C92.7473 122.961 92.6882 122.369 92.6882 121.955C92.6882 121.777 92.6291 121.6 92.6291 121.481C92.6882 121.363 92.6882 121.304 92.6882 121.304Z" fill="#263238"/>
<g opacity="0.2">
<path opacity="0.2" d="M103.971 176.353C100.663 177.951 96.3506 174.873 94.6965 171.677C94.6965 171.677 93.8104 164.514 93.9286 160.844C94.1649 154.096 93.6332 147.349 93.8695 140.601C94.4012 144.626 96.0552 148.473 98.7136 151.61C99.4225 152.439 100.25 153.327 100.545 154.392C101.017 156.346 99.5406 159.838 98.5954 161.614C95.6417 167 102.081 176.412 103.794 176.234" fill="black"/>
</g>
<g opacity="0.2">
<path opacity="0.2" d="M42.2979 132.195C41.2345 145.691 40.1121 159.187 39.0488 172.683C38.9306 173.985 38.8125 175.287 38.3399 176.412C37.8673 177.596 36.863 178.661 35.6225 178.898C33.7321 179.312 31.8417 177.655 31.31 175.761C30.7784 173.867 31.1919 171.854 31.6645 169.96C32.4915 166.704 33.3776 163.508 34.2637 160.312C36.9221 151.018 39.5214 141.666 42.1797 132.373" fill="black"/>
</g>
<path d="M79.3373 201.332C79.3964 201.273 78.8057 200.681 78.4512 199.201C78.0968 197.721 78.333 195.472 79.4555 193.045C79.9871 191.802 80.8142 190.559 81.5821 189.138C82.3501 187.718 83.1771 186.179 83.5907 184.344C84.0042 182.509 83.7679 180.496 83.1772 178.602C82.5864 176.708 81.7594 174.814 81.0505 172.92C79.5736 169.072 79.6327 164.988 80.7551 161.614C81.2868 159.897 82.0547 158.417 82.9999 157.115C83.9451 155.813 84.9494 154.748 86.0127 153.919C88.0803 152.202 90.1479 151.314 91.5657 150.841C92.9835 150.367 93.8105 150.249 93.8105 150.19C93.8105 150.19 93.5742 150.19 93.2198 150.249C92.8063 150.308 92.2155 150.427 91.5066 150.663C90.0298 151.078 87.9031 151.966 85.7764 153.682C84.7131 154.57 83.5907 155.635 82.6455 156.938C81.7003 158.24 80.8732 159.838 80.2825 161.555C79.6918 163.271 79.3964 165.225 79.3964 167.237C79.3964 169.25 79.8099 171.321 80.5188 173.275C81.2277 175.228 82.1138 177.122 82.6455 178.957C83.2362 180.792 83.4134 182.686 83.059 184.403C82.7046 186.119 81.9366 187.658 81.1686 189.079C80.4006 190.5 79.6327 191.743 79.101 193.045C77.9786 195.59 77.8605 197.958 78.274 199.438C78.4512 200.207 78.8056 200.74 78.9829 201.036C79.1601 201.154 79.3373 201.332 79.3373 201.332Z" fill="#FAFAFA"/>
<path d="M23.8661 103.961C23.8661 103.961 23.9843 104.434 24.4569 105.144C24.9295 105.855 25.7565 106.802 26.9971 107.631C28.2967 108.459 30.0099 109.11 32.0184 109.288C34.0269 109.465 36.2717 109.17 38.4575 108.459C40.6432 107.749 42.6518 106.683 44.0696 105.204C44.7784 104.493 45.3101 103.665 45.7236 102.836C46.0781 102.007 46.3144 101.179 46.3734 100.409C46.4916 98.8701 46.1371 97.627 45.7236 96.8575C45.6055 96.68 45.5464 96.5024 45.4283 96.384C45.3101 96.2656 45.251 96.1472 45.192 96.088C45.0147 95.9105 44.9557 95.8513 44.9557 95.8513C44.8966 95.9104 45.192 96.2656 45.5464 96.9759C45.9009 97.6862 46.1962 98.9293 45.9599 100.35C45.8418 101.06 45.6646 101.83 45.3101 102.599C44.9557 103.369 44.424 104.079 43.7151 104.789C42.3564 106.151 40.466 107.216 38.3393 107.867C36.2127 108.578 34.086 108.874 32.1365 108.696C30.1871 108.578 28.533 107.986 27.2925 107.216C26.0519 106.447 25.1658 105.618 24.6932 104.967C24.1615 104.316 23.9252 103.901 23.8661 103.961Z" fill="#FAFAFA"/>
<path d="M31.9598 167.592C31.9598 167.592 31.9599 167.533 32.0189 167.415C32.078 167.296 32.1371 167.119 32.1961 166.941C32.3143 166.468 32.4915 165.817 32.7869 165.047C33.2595 163.33 33.9684 160.963 34.7954 158.003C36.4495 152.025 38.7534 143.797 41.2936 134.681C42.5342 130.124 43.7747 125.803 44.8381 121.837C45.3697 119.883 45.8423 117.93 46.0786 116.154C46.3149 114.319 46.3149 112.603 46.0786 111.064C45.547 107.986 44.0701 105.736 42.7114 104.612C42.0616 104.02 41.4708 103.724 41.0573 103.487C40.8801 103.428 40.7029 103.309 40.5847 103.309C40.4666 103.25 40.4075 103.25 40.4075 103.25C40.4075 103.309 41.3527 103.546 42.6523 104.73C43.8929 105.855 45.3697 108.045 45.8423 111.123C46.0786 112.662 46.0196 114.319 45.7833 116.154C45.547 117.93 45.0744 119.824 44.4836 121.837C43.3612 125.803 42.1797 130.124 40.8801 134.681C38.3399 143.797 36.0951 152.025 34.441 158.003C33.6139 160.963 32.9641 163.39 32.5506 165.106C32.3143 165.935 32.1371 166.586 32.0189 167.06C31.9599 167.296 31.9008 167.415 31.9008 167.592C31.9598 167.533 31.9598 167.592 31.9598 167.592Z" fill="#263238"/>
<path d="M56.0029 36.5406C56.062 36.5406 55.8848 36.067 56.0029 35.2975C56.1211 34.528 56.5346 33.3442 57.657 32.3379C58.7204 31.3316 60.4335 30.7397 62.383 30.7989C64.3324 30.7989 66.3409 31.45 68.4676 32.1603C69.531 32.5155 70.5943 32.8706 71.6577 33.1074C72.721 33.3442 73.7252 33.4626 74.7295 33.4626C76.679 33.5217 78.4512 33.2258 79.869 32.8114C81.2868 32.3971 82.3501 31.8644 83.1181 31.45C83.4725 31.2724 83.7679 31.0949 83.9451 30.9765C84.1223 30.8581 84.2405 30.7989 84.1814 30.7989C84.1814 30.7989 83.7679 31.0357 83.059 31.3908C82.3501 31.746 81.2277 32.2787 79.8099 32.6339C78.3921 32.989 76.679 33.285 74.7295 33.2258C73.7843 33.1666 72.7801 33.0482 71.7167 32.8706C70.7125 32.6339 69.6491 32.2787 68.5858 31.9236C66.4591 31.2132 64.3915 30.5621 62.383 30.5621C60.4335 30.5029 58.6022 31.1541 57.5389 32.2195C56.4165 33.2258 56.0029 34.4688 55.9439 35.2975C55.8257 36.067 56.0029 36.5406 56.0029 36.5406Z" fill="#455A64"/>
<path d="M47.9095 54.2391C47.9095 54.2391 47.9686 54.1799 48.0277 54.0023C48.0868 53.8839 48.2049 53.6471 48.3231 53.3512C48.5594 52.7593 48.9138 51.8714 49.1501 50.7467C49.3864 49.6221 49.5636 48.2015 49.4455 46.7217C49.3273 45.1827 48.8547 43.5845 48.5003 41.8679C48.1458 40.1513 48.0277 38.4939 48.5003 37.0733C48.7366 36.363 49.091 35.7119 49.5046 35.2384C49.9181 34.7648 50.5088 34.4097 50.9814 34.2321C52.0447 33.8769 52.9899 34.0545 53.5807 34.2913C54.1123 34.5872 54.3486 34.8832 54.4077 34.8832C54.4077 34.8832 54.2305 34.528 53.6398 34.2321C53.049 33.9361 52.0447 33.6994 50.9223 34.0545C50.3907 34.2321 49.7999 34.5872 49.3273 35.0608C48.8547 35.5935 48.5003 36.2446 48.264 36.9549C47.7914 38.4347 47.8505 40.2105 48.264 41.9271C48.6184 43.6437 49.091 45.2418 49.2092 46.7217C49.3273 48.2015 49.2092 49.5629 49.0319 50.6875C48.7957 51.8122 48.5003 52.7001 48.3231 53.292C48.0277 53.8839 47.8505 54.2391 47.9095 54.2391Z" fill="#455A64"/>
<path d="M54.9984 35.7119C54.9984 35.7119 54.9984 35.5935 54.9984 35.2975C54.9984 35.0016 54.9984 34.5872 54.9394 34.1137C54.9394 33.1074 54.8803 31.5684 55.412 29.7927C55.7073 28.9048 56.1209 27.9577 56.8298 27.129C57.4796 26.3003 58.4838 25.59 59.6062 25.2941C60.7877 24.9981 62.0874 25.1165 63.3279 25.4716C64.6276 25.8268 65.8091 26.4779 67.0496 27.1882C68.2902 27.8985 69.4717 28.6088 70.7713 29.0824C72.0119 29.5559 73.3706 29.8519 74.6111 29.8519C75.8517 29.8519 77.0332 29.7335 78.0965 29.4375C79.1599 29.1416 80.1051 28.7272 80.9321 28.2537C82.5862 27.3066 83.6495 26.1819 84.2993 25.3532C84.6538 24.9389 84.831 24.5837 85.0082 24.347C85.1264 24.1102 85.2445 23.9918 85.1855 23.9918C85.1855 23.9918 85.0673 24.1102 84.9492 24.347C84.7719 24.5837 84.5947 24.8797 84.2403 25.2941C83.5904 26.0636 82.468 27.129 80.873 28.0761C80.046 28.4904 79.1008 28.9048 78.0965 29.2007C77.0332 29.4967 75.9108 29.6151 74.6702 29.6151C73.4296 29.5559 72.1891 29.3191 70.9485 28.8456C69.708 28.3721 68.5265 27.6617 67.2859 26.9514C66.0453 26.2411 64.8048 25.59 63.5052 25.2349C62.2055 24.8797 60.8468 24.7613 59.6062 25.1165C58.3657 25.4124 57.3614 26.2411 56.6525 27.0698C55.9436 27.9577 55.5301 28.9048 55.2347 29.7927C54.7031 31.6276 54.8212 33.1666 54.8212 34.2321C54.8803 34.7648 54.8803 35.1792 54.9394 35.4159C54.9984 35.5343 54.9984 35.7119 54.9984 35.7119Z" fill="#455A64"/>
<path d="M113.659 53.5288C113.659 54.5351 112.832 55.3638 111.827 55.3638C110.823 55.3638 109.996 54.5351 109.996 53.5288C109.996 52.5225 110.823 51.6938 111.827 51.6938C112.832 51.6938 113.659 52.5225 113.659 53.5288Z" fill="#455A64"/>
<path d="M119.212 55.3638C118.2 55.3638 117.38 54.5422 117.38 53.5288C117.38 52.5154 118.2 51.6938 119.212 51.6938C120.223 51.6938 121.043 52.5154 121.043 53.5288C121.043 54.5422 120.223 55.3638 119.212 55.3638Z" fill="#455A64"/>
<path d="M128.368 52.642C128.9 53.5298 128.546 54.6545 127.719 55.1872C126.832 55.72 125.71 55.3648 125.178 54.5361C124.647 53.6482 125.001 52.5236 125.828 51.9908C126.714 51.4581 127.837 51.7541 128.368 52.642Z" fill="#455A64"/>
<path d="M119.33 32.042C119.33 32.042 119.448 32.042 119.685 32.042C119.98 32.042 120.334 32.042 120.748 32.1012C120.984 32.1012 121.28 32.1012 121.575 32.1604C121.87 32.2196 122.166 32.2196 122.52 32.2787C122.875 32.3379 123.229 32.3971 123.643 32.4563C124.056 32.5747 124.47 32.6339 124.883 32.7523C126.655 33.2258 128.782 33.9953 130.968 35.4159C133.154 36.8366 135.398 38.8491 137.289 41.5719C139.12 44.2948 140.479 47.7279 140.833 51.6346C140.892 52.5817 141.01 53.588 140.892 54.5942C140.833 55.0678 140.892 55.6005 140.774 56.0741C140.715 56.5476 140.597 57.0803 140.538 57.6131C140.124 59.6256 139.534 61.6973 138.47 63.5915C137.466 65.5448 136.166 67.3798 134.571 68.978C132.917 70.5762 131.027 71.9968 128.959 73.0622C126.833 74.1277 124.529 74.8972 122.107 75.1932C121.516 75.3115 120.866 75.3116 120.275 75.3707C119.685 75.4299 119.035 75.4299 118.444 75.4299C117.203 75.3707 115.963 75.2524 114.722 74.9564C112.064 74.3645 109.524 73.299 107.338 71.8192H107.574C105.034 72.8255 102.494 73.8317 100.072 74.838L99.5993 75.0156L99.7175 74.542C100.485 71.76 101.194 69.0964 101.903 66.4919L101.962 66.6103C99.8356 63.7691 98.4769 60.5727 97.9453 57.3763C97.6499 55.7781 97.5317 54.1799 97.6499 52.6409C97.709 51.8714 97.709 51.1019 97.8862 50.3916C97.9453 50.0364 98.0043 49.6813 98.0634 49.2669C98.1225 48.9118 98.2406 48.5566 98.2997 48.2015C99.7766 42.519 103.262 38.3164 106.688 35.9487C108.401 34.7056 110.115 33.8769 111.71 33.285C112.123 33.1666 112.478 32.9891 112.832 32.8707C113.186 32.7523 113.541 32.6931 113.895 32.5747C114.25 32.5155 114.545 32.3971 114.9 32.3379C115.195 32.2787 115.49 32.2196 115.786 32.2196C116.376 32.1604 116.849 32.042 117.322 32.042C117.735 32.042 118.149 32.042 118.444 31.9828C118.739 31.9828 118.976 31.9828 119.094 31.9828C119.212 32.042 119.33 32.042 119.33 32.042C119.33 32.042 119.271 32.042 119.094 32.1012C118.917 32.1012 118.68 32.1604 118.444 32.1604C118.149 32.1604 117.794 32.2196 117.322 32.2196C116.908 32.2787 116.376 32.3379 115.845 32.4563C113.6 32.8707 110.292 33.7586 106.925 36.2446C103.557 38.6715 100.131 42.815 98.7132 48.3791C98.6542 48.7342 98.536 49.0894 98.4769 49.4445C98.4179 49.7997 98.3588 50.1548 98.2997 50.51C98.1815 51.2203 98.1225 51.9898 98.1225 52.7593C98.0043 54.2391 98.1225 55.8373 98.4179 57.3763C98.9495 60.5135 100.308 63.6507 102.376 66.3735L102.435 66.4919L102.376 66.6103C101.667 69.2147 100.958 71.9376 100.19 74.6604L99.8947 74.3645C102.376 73.3582 104.857 72.3519 107.397 71.3457L107.515 71.2865L107.633 71.3457C109.819 72.7663 112.241 73.8317 114.841 74.3645C116.022 74.6012 117.263 74.7788 118.444 74.838C119.035 74.838 119.626 74.838 120.275 74.7788C120.866 74.7196 121.457 74.7196 122.048 74.6012C124.411 74.3053 126.714 73.595 128.782 72.5295C130.85 71.464 132.74 70.1026 134.335 68.5636C135.871 66.9654 137.171 65.1897 138.175 63.2955C139.179 61.4014 139.77 59.3888 140.183 57.4355C140.243 56.9619 140.361 56.4292 140.42 55.9557C140.479 55.4821 140.479 54.9494 140.538 54.4759C140.656 53.4696 140.538 52.5225 140.479 51.5754C140.124 47.7871 138.766 44.4132 136.993 41.6903C135.221 38.9675 132.976 37.0141 130.85 35.5935C128.723 34.1729 126.596 33.3442 124.883 32.8707C124.47 32.7523 124.056 32.6339 123.643 32.5155C123.229 32.4563 122.875 32.3971 122.52 32.3379C122.166 32.2787 121.87 32.2196 121.575 32.1604C121.28 32.1012 121.043 32.1012 120.748 32.1012C120.275 32.042 119.921 32.042 119.685 32.042C119.448 32.042 119.33 32.042 119.33 32.042Z" fill="#455A64"/>
</g>
<defs>
<clipPath id="clip0">
<rect width="238" height="172" fill="white"/>
</clipPath>
</defs>
</svg>
