<svg width="47" height="47" viewBox="0 0 47 47" fill="none" xmlns="http://www.w3.org/2000/svg">
<g clip-path="url(#clip0)">
<path d="M45.2991 12.4848C45.0385 11.5553 44.531 10.7138 43.8304 10.0497C43.11 9.36525 42.2271 8.87562 41.2649 8.62706C37.6641 7.67796 23.2378 7.67797 23.2378 7.67797C17.2237 7.60954 11.211 7.91049 5.23376 8.57913C4.2716 8.84605 3.39033 9.34662 2.66832 10.0363C1.95889 10.7189 1.44504 11.5606 1.1766 12.4829C0.531781 15.9567 0.218481 19.4839 0.240929 23.0169C0.217921 26.5468 0.530452 30.0728 1.1766 33.5509C1.43928 34.4693 1.95122 35.3072 2.66256 35.9841C3.37391 36.6609 4.25973 37.1498 5.23376 37.4087C8.88251 38.3558 23.2378 38.3558 23.2378 38.3558C29.2596 38.4244 35.28 38.1234 41.2649 37.4547C42.2271 37.2061 43.11 36.7165 43.8304 36.032C44.5398 35.3552 45.0441 34.5134 45.2972 33.5969C45.9588 30.1245 46.2805 26.5958 46.2578 23.061C46.3075 19.5112 45.9862 15.9659 45.2991 12.4829V12.4848ZM18.6515 29.582V16.4538L30.6542 23.0188L18.6515 29.582Z" fill="black"/>
</g>
<defs>
<clipPath id="clip0">
<rect width="46.0168" height="46.0168" fill="white" transform="translate(0.241211 0.00830078)"/>
</clipPath>
</defs>
</svg>
