<svg width="180" height="156" viewBox="0 0 180 156" fill="none" xmlns="http://www.w3.org/2000/svg">
<g clip-path="url(#clip0)">
<path d="M110.064 142.326H69.9355V150.298H110.064V142.326Z" fill="#CCCCCC"/>
<path d="M129.549 150.298H50.5088V156H129.549V150.298Z" fill="#DDDDDD"/>
<path d="M180 24.0313H0V143.024H180V24.0313Z" fill="#DDDDDD"/>
<path d="M174.665 29.6173H5.27686V137.613H174.665V29.6173Z" fill="#CCCCCC"/>
<path d="M106.469 10.8229C105.831 12.5103 106.933 14.3723 108.209 15.7106C109.484 17.0489 110.992 18.2708 111.398 20.0746C111.746 21.5875 111.166 23.1004 111.34 24.6714C111.456 26.2425 112.326 27.639 112.79 29.1518C113.66 31.8285 113.312 34.796 112.558 37.5308C111.92 39.7419 110.992 41.953 109.426 43.6987C107.861 45.4443 105.657 46.6662 103.337 46.608C102.7 46.608 101.946 46.4335 101.54 45.968C101.192 45.5606 101.076 44.9206 101.018 44.3969C99.6841 32.7013 99.6841 20.8311 101.018 9.13544" fill="#263238"/>
<path d="M105.251 48.5863C110.296 48.3536 114.935 53.1831 114.529 58.2454C119.633 59.4673 123.228 65.1115 122.242 70.2902C121.894 71.9776 121.14 73.6068 121.024 75.3525C120.908 77.2726 121.604 79.0764 121.952 80.9384C122.59 84.3133 122.242 87.8627 120.966 91.063C120.154 92.9832 118.705 94.9616 116.617 95.0197C115.225 95.0779 113.892 94.1469 113.138 92.9832C112.326 91.8195 111.978 90.423 111.746 89.0265C110.818 84.4879 110.586 79.8329 109.31 75.3525C108.093 70.872 105.657 66.508 101.656 64.2387C99.4521 62.9586 96.7846 62.3767 94.9869 60.5147C93.1312 58.5945 92.7253 55.5106 93.6531 53.0086C94.639 50.5065 96.8426 48.5863 99.3361 47.6553" fill="#263238"/>
<path d="M70.2833 14.9541C70.2253 12.8012 72.1969 11.1138 74.2266 10.2992C76.2562 9.48454 78.4598 9.1936 80.2575 7.97167C81.8232 6.9243 82.925 5.23687 84.2588 3.89856C87.5642 0.581887 92.6673 -0.814607 97.1905 0.407325C101.714 1.62926 105.425 5.46962 106.585 10.0082C107.339 13.0921 106.817 16.7579 104.381 18.7945C101.598 21.1802 97.4225 20.6565 93.8271 19.9001C90.2317 19.1436 86.1724 18.4454 83.157 20.5401C81.3593 21.8202 80.3155 23.915 79.2137 25.8352C78.1119 27.7553 76.7201 29.7337 74.6325 30.4319C72.5449 31.1302 69.7034 29.9083 69.5874 27.6971" fill="#263238"/>
<path d="M78.808 15.4196C76.9523 15.5942 75.5605 17.2234 75.5605 19.0854L77.7062 67.9627C77.8221 73.7232 86.2307 76.9817 92.3776 76.8072C98.5825 76.6908 98.8144 73.6069 98.8724 68.1373C98.9884 58.9437 98.9884 55.5106 98.9884 55.5688C98.9884 55.5688 106.817 54.2305 108.441 43.9314C109.253 38.8109 108.963 30.4319 108.499 23.5658C108.093 17.398 103.976 9.83365 97.8866 10.4737L78.808 15.4196Z" fill="#FFBE9D"/>
<path d="M106.817 30.0246C106.817 30.7229 106.295 31.3047 105.541 31.3629C104.845 31.4211 104.208 30.8974 104.208 30.1992C104.208 29.5009 104.729 28.919 105.483 28.8609C106.179 28.8027 106.759 29.3264 106.817 30.0246Z" fill="#263238"/>
<path d="M106.759 27.9299C106.585 28.1044 105.599 27.348 104.207 27.348C102.816 27.348 101.772 28.0463 101.598 27.8717C101.54 27.8135 101.714 27.4644 102.12 27.1734C102.584 26.8243 103.337 26.5334 104.207 26.5334C105.077 26.5334 105.831 26.8825 106.237 27.1734C106.701 27.5808 106.817 27.8717 106.759 27.9299Z" fill="#263238"/>
<path d="M93.1891 30.0246C93.1891 30.7229 92.6672 31.3047 91.9134 31.3629C91.2175 31.4211 90.5796 30.8974 90.5796 30.1992C90.5796 29.5009 91.1015 28.919 91.8554 28.8609C92.5512 28.8027 93.1891 29.3264 93.1891 30.0246Z" fill="#263238"/>
<path d="M92.8414 28.279C92.6674 28.4536 91.6816 27.6971 90.2898 27.6971C88.8981 27.6971 87.8543 28.3954 87.6803 28.2208C87.6223 28.1626 87.7963 27.8135 88.2022 27.5226C88.6661 27.1734 89.42 26.8825 90.2898 26.8825C91.1597 26.8825 91.9136 27.2316 92.3195 27.5226C92.7834 27.8717 92.8994 28.1626 92.8414 28.279Z" fill="#263238"/>
<path d="M98.0025 38.7527C98.0025 38.6945 98.8724 38.52 100.322 38.3454C100.67 38.2872 101.018 38.229 101.076 37.9963C101.134 37.7054 101.018 37.3562 100.844 36.9489C100.496 36.0761 100.148 35.1451 99.7422 34.2141C98.2345 30.2574 97.1907 27.0571 97.3066 26.9989C97.4806 26.9407 98.8144 30.0828 100.322 33.9814C100.67 34.9706 101.018 35.9016 101.366 36.7744C101.482 37.1817 101.714 37.6472 101.54 38.1709C101.424 38.4618 101.192 38.6363 100.96 38.6945C100.728 38.7527 100.554 38.7527 100.322 38.7527C98.8724 38.8691 98.0025 38.8691 98.0025 38.7527Z" fill="#263238"/>
<path d="M98.9882 55.5688C98.9882 55.5688 92.0874 56.0343 85.2446 51.903C85.2446 51.903 88.608 58.9437 98.8722 57.9545L98.9882 55.5688Z" fill="#EB996E"/>
<path d="M97.4228 42.1858C96.9009 41.4875 96.0311 41.1384 95.1612 41.2548C94.5233 41.313 93.9434 41.6039 93.5375 42.1276C93.1895 42.6513 93.0736 43.3495 93.4215 43.815C93.8274 44.3387 94.5813 44.4551 95.2772 44.2805C95.9731 44.106 96.553 43.6405 97.0749 43.175C97.2488 43.0586 97.3648 42.9422 97.4808 42.7676C97.5968 42.5931 97.5968 42.3603 97.4808 42.244" fill="#EB996E"/>
<path d="M93.8275 39.7419C94.0594 39.7419 94.0594 41.2547 95.3932 42.3603C96.7269 43.4659 98.3507 43.2913 98.3507 43.4659C98.3507 43.5822 98.0027 43.7568 97.3068 43.815C96.611 43.815 95.6251 43.6404 94.8133 42.9422C94.0014 42.3021 93.6535 41.3711 93.5955 40.7311C93.5375 40.1492 93.7115 39.7419 93.8275 39.7419Z" fill="#263238"/>
<path d="M93.4795 25.7769C93.3635 26.1842 91.9138 26.0097 90.2901 26.1842C88.6084 26.3588 87.2746 26.8243 87.0427 26.4752C86.9267 26.3006 87.1586 25.9515 87.7385 25.5442C88.2604 25.1951 89.1303 24.7878 90.1161 24.6714C91.1019 24.555 92.0298 24.7296 92.6097 24.9623C93.2475 25.2533 93.5375 25.6024 93.4795 25.7769Z" fill="#263238"/>
<path d="M106.237 23.8568C106.005 24.2059 105.019 23.8568 103.86 23.8568C102.7 23.7986 101.714 24.0895 101.482 23.7404C101.366 23.5658 101.54 23.2749 101.946 22.9258C102.352 22.6348 103.106 22.3439 103.918 22.4021C104.729 22.4021 105.425 22.693 105.831 23.0421C106.179 23.3331 106.353 23.6822 106.237 23.8568Z" fill="#263238"/>
<path d="M71.6171 49.2846C74.4586 49.8665 77.532 48.9936 79.6196 47.0153C81.7073 45.0369 82.8091 42.0112 82.4611 39.16C82.1712 36.658 80.7794 34.0395 81.6493 31.6538C82.8091 28.5117 87.2163 27.5226 88.3761 24.3804C89.072 22.5184 88.4341 20.4237 89.2459 18.6199C89.9998 16.9325 91.7395 15.9433 93.4792 15.3032C95.2189 14.6632 97.0745 14.2559 98.5243 13.0921C99.974 11.9866 100.902 9.83363 99.916 8.26257C92.2614 9.19357 84.7227 10.9974 77.532 13.7322C75.8503 14.3722 74.1106 15.1287 73.1248 16.5833C72.081 18.1544 72.139 20.191 72.197 22.1111C72.6029 31.3629 71.2111 40.0328 71.6171 49.2846Z" fill="#263238"/>
<path d="M69.1816 46.3753C69.1816 46.3753 69.1236 46.3753 69.0077 46.3171C68.8917 46.2589 68.7177 46.2007 68.5437 46.0843C68.1378 45.8516 67.6159 45.3861 67.268 44.5715C66.92 43.7568 66.6881 42.6513 66.92 41.4293C67.152 40.2074 67.8479 38.9273 68.7757 37.7054C69.7035 36.4252 70.8053 35.2033 71.6172 33.5741C72.0231 32.7594 72.3131 31.8866 72.3131 30.8975C72.3131 29.9665 72.0231 28.9773 71.7332 28.0463C71.3852 27.0571 71.0953 26.0679 71.1533 24.9624C71.2113 23.8568 71.5012 22.7512 72.0811 21.7621C72.661 20.7729 73.4729 19.9001 74.4587 19.3182C75.4445 18.6781 76.6623 18.4454 77.8221 18.329C78.9819 18.2126 80.1417 18.1544 81.1855 17.7471C82.2293 17.398 83.0412 16.5834 83.5631 15.5942C84.085 14.6632 84.3749 13.5577 84.6649 12.5685C84.9548 11.5211 85.3608 10.5319 85.8247 9.60092C86.7525 7.79711 88.0863 6.22606 89.652 5.23688C91.2177 4.24769 92.9574 3.84038 94.5231 3.95676C96.0889 4.07313 97.4226 4.655 98.3505 5.52781C99.2783 6.40062 99.8002 7.33162 100.09 8.14624C100.38 8.96086 100.38 9.65911 100.322 10.1246C100.264 10.5901 100.206 10.8229 100.206 10.8229C100.206 10.8229 100.264 10.5901 100.264 10.1246C100.264 9.65911 100.264 9.01905 99.9742 8.20443C99.6842 7.3898 99.1623 6.45881 98.2345 5.64419C97.3646 4.82956 96.0309 4.24769 94.5231 4.13132C93.0154 4.01494 91.3337 4.42225 89.826 5.41144C88.3182 6.34243 87.0425 7.8553 86.1146 9.65911C85.6507 10.5319 85.3028 11.5211 85.0128 12.5685C84.7229 13.6158 84.4329 14.6632 83.853 15.6524C83.5631 16.1761 83.2731 16.6416 82.8092 17.0489C82.4033 17.4562 81.8814 17.7471 81.3015 17.9799C80.1997 18.3872 78.9819 18.4454 77.8221 18.6199C76.6623 18.7363 75.5025 18.9691 74.5747 19.5509C73.5888 20.1328 72.835 20.9474 72.2551 21.8784C71.6752 22.8094 71.3852 23.8568 71.3272 24.9042C71.2693 25.9515 71.5592 26.9407 71.9071 27.9299C72.1971 28.9191 72.545 29.9083 72.487 30.8975C72.487 31.8866 72.1391 32.8176 71.7912 33.6323C70.9793 35.3197 69.8195 36.5416 68.9497 37.8217C68.0218 39.0437 67.326 40.2656 67.094 41.4875C66.862 42.6513 67.036 43.7568 67.3839 44.5133C67.7319 45.2697 68.1958 45.7934 68.6017 46.0261C68.9497 46.2589 69.1816 46.3171 69.1816 46.3753Z" fill="#455A64"/>
<path d="M98.9883 1.51288C98.9883 1.51288 99.1622 1.51288 99.3942 1.62925C99.6262 1.74563 99.9741 1.92019 100.38 2.21113C101.134 2.793 102.004 3.89856 102.236 5.41142C102.468 6.92429 101.946 8.2626 101.366 9.01903C101.076 9.42635 100.844 9.71728 100.612 9.89184C100.38 10.0664 100.264 10.1246 100.264 10.1246C100.206 10.0664 100.728 9.71728 101.192 8.90266C101.656 8.14623 102.12 6.86611 101.946 5.46961C101.714 4.07312 100.96 2.96756 100.264 2.38569C99.5102 1.74563 98.9883 1.57107 98.9883 1.51288Z" fill="#455A64"/>
<path d="M121.72 72.094C121.662 72.094 121.894 71.7449 122.01 70.9885C122.126 70.2902 122.068 69.1847 121.488 68.0209C120.966 66.8572 119.807 65.7516 118.241 64.9952C117.487 64.6461 116.617 64.2969 115.747 64.1224C114.82 63.8896 113.892 63.7151 112.906 63.3659C111.978 63.075 110.992 62.6095 110.296 61.9695C109.542 61.2712 109.253 60.3402 109.079 59.5256C108.905 58.6528 108.847 57.8382 108.673 57.0817C108.499 56.3253 108.151 55.7434 107.745 55.2197C106.933 54.2306 105.947 53.7651 105.251 53.5323C104.555 53.2996 104.149 53.2996 104.149 53.2996C104.149 53.2996 104.265 53.2996 104.439 53.2996C104.613 53.2996 104.903 53.3578 105.251 53.4159C105.947 53.5905 106.991 54.056 107.861 55.1034C108.267 55.627 108.673 56.2671 108.847 57.0235C109.079 57.78 109.137 58.5946 109.253 59.4674C109.426 60.282 109.716 61.1548 110.412 61.7949C111.05 62.4349 111.978 62.8423 112.906 63.1332C113.834 63.4241 114.82 63.6569 115.689 63.8896C116.617 64.1224 117.487 64.4133 118.241 64.8206C119.807 65.5771 121.024 66.799 121.546 68.0209C122.126 69.2429 122.126 70.3484 121.952 71.1048C121.894 71.454 121.778 71.7449 121.662 71.9195C121.778 72.0358 121.72 72.1522 121.72 72.094Z" fill="#455A64"/>
<path d="M77.1264 53.8814C71.9073 52.4849 67.4421 47.3644 65.6445 42.3021C63.8468 37.2398 63.8468 31.6538 64.3107 26.3006C64.6586 22.4021 65.3545 18.2708 67.9061 15.3614C71.7914 10.9392 76.0246 8.66989 81.8816 8.84445" fill="#263238"/>
<path d="M107.455 65.2279L102.584 64.006C103.743 63.075 104.033 61.9113 103.569 60.6311C102.99 59.0601 101.482 58.0709 99.8581 57.8963L77.764 55.3943C76.9522 55.2779 76.1983 55.7434 75.9084 56.4998C74.9225 59.0019 74.9225 61.0384 75.7924 62.6677H75.6764L71.4432 63.5405L64.2524 127.372L111.514 125.161L107.455 65.2279Z" fill="#F5F5F5"/>
<path d="M100.496 64.2969C100.496 64.2969 100.206 64.3551 99.6263 64.4715C99.0464 64.5878 98.2345 64.646 97.1907 64.7624C95.1031 64.937 92.2616 65.1115 89.0721 64.937C85.8827 64.7624 83.0412 64.3551 81.0116 63.9478C79.9678 63.7732 79.1559 63.5405 78.634 63.4241C78.0541 63.2495 77.7642 63.1913 77.7642 63.1913C77.7642 63.1913 78.1121 63.2495 78.634 63.3077C79.2139 63.4241 80.0258 63.5987 81.0696 63.7732C83.0992 64.1223 85.9407 64.5297 89.1301 64.646C92.2616 64.8206 95.1611 64.7042 97.1907 64.5878C98.2345 64.5297 99.0464 64.4715 99.6263 64.4133C100.148 64.2387 100.496 64.2387 100.496 64.2969Z" fill="#263238"/>
<path d="M79.156 74.4215C79.098 74.3633 79.8518 73.1413 80.8377 71.6867C81.8235 70.232 82.6933 69.0682 82.7513 69.0682C82.8093 69.1264 82.0554 70.3484 81.0696 71.803C80.0838 73.3159 79.214 74.4797 79.156 74.4215Z" fill="#E0E0E0"/>
<path d="M94.3491 75.4689C94.2911 75.527 93.3632 74.4797 92.2614 73.0832C91.1596 71.7449 90.3478 70.5811 90.4058 70.5229C90.4637 70.4648 91.3916 71.5121 92.4934 72.9086C93.5952 74.3051 94.4071 75.4689 94.3491 75.4689Z" fill="#E0E0E0"/>
<path d="M87.2744 83.6151C87.2164 83.6151 86.8685 82.2186 86.5785 80.4148C86.2886 78.6692 86.0566 77.2145 86.1726 77.2145C86.2306 77.2145 86.5785 78.611 86.8685 80.4148C87.2164 82.1604 87.3904 83.6151 87.2744 83.6151Z" fill="#E0E0E0"/>
<path d="M98.9303 84.1387C98.9883 84.1969 97.7705 85.477 96.2628 86.9899C94.6971 88.5028 93.4213 89.7247 93.3633 89.6665C93.3053 89.6083 94.5231 88.3282 96.0308 86.8154C97.5386 85.2443 98.8723 84.0806 98.9303 84.1387Z" fill="#E0E0E0"/>
<path d="M83.3312 95.0198C83.2732 95.078 81.8815 94.2052 80.4317 92.6923C79.04 91.1794 78.2281 89.7247 78.2861 89.6666C78.3441 89.6084 79.2719 91.0048 80.6637 92.4595C82.0555 93.9724 83.3892 94.9034 83.3312 95.0198Z" fill="#E0E0E0"/>
<path d="M88.3183 103.399C88.3183 103.515 86.9846 103.922 85.4768 104.737C83.9691 105.552 82.8093 106.424 82.7513 106.366C82.6933 106.308 83.7372 105.319 85.3029 104.504C86.9266 103.631 88.3183 103.341 88.3183 103.399Z" fill="#E0E0E0"/>
<path d="M96.4948 103.922C96.4368 103.922 96.0889 103.573 95.567 102.933C95.0451 102.293 94.2912 101.362 93.5953 100.315C92.8414 99.2675 92.2036 98.2783 91.7976 97.58C91.3917 96.8818 91.1017 96.4163 91.1597 96.3581C91.2177 96.3581 91.5077 96.7654 91.9716 97.4636C92.4935 98.2201 93.1314 99.1511 93.8273 100.14C94.5231 101.129 95.161 102.002 95.7409 102.759C96.2048 103.515 96.4948 103.922 96.4948 103.922Z" fill="#E0E0E0"/>
<path d="M97.3068 111.079C97.3068 111.138 95.7991 111.545 93.8274 111.894C91.8558 112.243 90.29 112.301 90.29 112.243C90.29 112.185 91.8558 111.894 93.8274 111.603C95.6831 111.312 97.3068 111.021 97.3068 111.079Z" fill="#E0E0E0"/>
<path d="M84.085 63.3659C84.027 63.3077 84.317 63.0168 84.5489 62.3767C84.7809 61.7949 84.9549 60.8639 84.7809 59.8747C84.6649 58.8855 84.317 58.0127 84.027 57.3726C83.7951 56.7326 83.6211 56.3834 83.6211 56.3253C83.6791 56.3253 83.911 56.6744 84.201 57.2563C84.4909 57.8381 84.8969 58.7109 85.0708 59.7583C85.2448 60.8057 85.0129 61.7949 84.7229 62.4349C84.4909 63.1332 84.143 63.3659 84.085 63.3659Z" fill="#E0E0E0"/>
<path d="M92.9573 58.5945C93.0153 58.5364 93.5372 59.351 93.8272 60.5147C94.1171 61.6785 93.9431 62.6095 93.8851 62.6095C93.7692 62.6095 93.7692 61.6785 93.5372 60.5729C93.2473 59.4674 92.8413 58.6527 92.9573 58.5945Z" fill="#E0E0E0"/>
<path d="M132.738 104.097L154.716 65.3443L157.384 58.6527C157.384 58.6527 164.227 43.8732 164.691 42.3603C165.271 40.6147 166.198 40.4983 166.836 40.7311C167.822 41.1384 168.112 42.5931 167.706 44.1059C167.532 44.6296 164.923 52.7176 164.923 52.7176C164.923 52.7176 165.503 52.1358 167.184 51.0302C168.866 49.8665 171.939 49.9246 174.839 50.972C177.68 52.0194 178.434 52.5431 178.086 53.6486C177.97 54.1141 177.564 54.4051 177.158 54.5796C176.463 54.8706 175.709 54.8706 175.013 54.6378C170.432 53.0668 168.344 55.1615 168.344 55.1615L167.996 56.0343C167.996 56.0343 171.475 54.9287 173.447 56.4998C173.795 56.7325 173.969 57.0235 174.143 57.3144C175.361 57.7217 176.347 58.7691 176.637 60.0492C176.927 61.3875 176.521 62.8422 175.535 63.7732C175.071 64.2387 174.375 64.5296 173.795 64.2387C173.505 64.0641 173.331 63.7732 173.157 63.4823C173.041 63.3077 172.983 63.1913 172.867 63.0168L171.533 65.3443C171.533 65.3443 168.286 70.4066 167.126 72.7922L151.991 113.232C149.903 118.818 143.64 121.611 138.073 119.458C132.042 116.956 129.549 109.741 132.738 104.097Z" fill="#FFBE9D"/>
<path d="M156.224 65.2279C156.978 65.7516 158.08 65.4025 158.776 64.7624C159.472 64.1805 159.935 63.3077 160.631 62.6677C162.603 60.6893 165.85 60.5147 167.706 58.4782C167.938 58.1872 168.17 57.7799 167.996 57.4308C167.764 57.1399 167.358 57.1981 167.01 57.2563C163.995 57.8381 161.037 58.42 158.022 59.0601" fill="#FFBE9D"/>
<path d="M157.965 59.0601C157.965 59.0019 158.313 58.9437 158.893 58.7691C159.531 58.5946 160.4 58.42 161.502 58.1873C162.662 57.9545 163.996 57.6636 165.445 57.3726C165.793 57.3144 166.199 57.1981 166.605 57.1399C166.953 57.0817 167.417 56.8489 167.997 57.1981C168.287 57.3726 168.345 57.7799 168.287 58.0127C168.229 58.3036 168.113 58.4782 167.939 58.6528C167.649 59.0019 167.301 59.2928 166.953 59.5256C165.445 60.5729 163.822 60.9802 162.488 61.6785C161.85 62.0276 161.27 62.3767 160.806 62.8422C160.342 63.3077 159.994 63.8314 159.589 64.2387C158.835 65.1697 157.907 65.6352 157.211 65.577C156.515 65.577 156.225 65.2279 156.283 65.2279C156.283 65.1697 156.631 65.4025 157.211 65.3443C157.849 65.2861 158.661 64.8788 159.299 63.9478C159.646 63.5405 159.994 62.9586 160.516 62.4931C160.98 61.9694 161.618 61.5621 162.314 61.213C163.648 60.4566 165.271 60.0492 166.663 59.0601C167.011 58.8273 167.301 58.5364 167.591 58.2454C167.823 57.9545 167.939 57.6054 167.765 57.5472C167.591 57.4308 167.185 57.489 166.779 57.5472C166.373 57.6054 166.025 57.7218 165.619 57.7799C164.17 58.0709 162.836 58.3036 161.676 58.4782C160.574 58.6527 159.646 58.8273 159.009 58.9437C158.371 59.0601 158.023 59.0601 157.965 59.0601Z" fill="#EB996E"/>
<path d="M167.88 55.9761C167.938 56.0343 168.054 55.2779 168.924 54.5796C169.33 54.2305 169.968 53.9978 170.663 53.9978C171.359 53.9978 172.171 54.1723 172.983 54.4051C173.795 54.6378 174.607 54.8706 175.361 54.9288C176.114 54.987 176.81 54.8706 177.332 54.6378C177.854 54.3469 178.144 53.8814 178.202 53.5905C178.26 53.2413 178.202 53.0668 178.202 53.0668C178.144 53.0668 178.144 53.2413 178.086 53.5323C178.028 53.8232 177.738 54.1723 177.274 54.4051C176.81 54.6378 176.114 54.696 175.419 54.6378C174.723 54.5796 173.969 54.3469 173.157 54.1141C172.345 53.8814 171.533 53.7068 170.779 53.765C170.026 53.8232 169.33 54.056 168.924 54.4633C168.46 54.8706 168.228 55.2779 168.17 55.5688C167.88 55.8016 167.88 55.9761 167.88 55.9761Z" fill="#EB996E"/>
<path d="M167.88 43.4659C167.822 43.4659 167.648 44.0478 167.358 45.0951C167.01 46.2007 166.604 47.539 166.14 48.9937C165.676 50.4483 165.212 51.7867 164.865 52.8922C164.517 53.8814 164.343 54.5215 164.401 54.5215C164.459 54.5215 164.749 53.9396 165.097 52.9504C165.502 51.9612 165.966 50.6229 166.43 49.0519C166.894 47.539 167.3 46.1425 167.532 45.0951C167.822 44.1059 167.88 43.4659 167.88 43.4659Z" fill="#EB996E"/>
<path d="M169.156 58.3618C169.156 58.3618 169.33 58.3618 169.678 58.3036C170.026 58.3036 170.548 58.2454 170.953 58.6527C171.127 58.8273 171.243 59.1182 171.185 59.4673C171.127 59.8165 170.953 60.1074 170.779 60.5147C170.605 60.8638 170.432 61.3293 170.548 61.853C170.663 62.3185 171.069 62.7258 171.591 62.9004C172.113 63.0749 172.635 62.9586 173.041 62.784C173.447 62.5513 173.795 62.2603 174.027 61.853C174.375 61.0966 174.549 60.3983 174.665 59.7583C174.781 59.1182 174.781 58.6527 174.665 58.3036C174.607 57.9545 174.491 57.7799 174.433 57.7799C174.433 57.7799 174.491 57.9545 174.491 58.3036C174.549 58.6527 174.491 59.1182 174.375 59.7001C174.259 60.282 174.085 60.9802 173.679 61.6784C173.331 62.3185 172.461 62.8422 171.649 62.6094C171.243 62.4931 170.953 62.1439 170.837 61.7948C170.721 61.4457 170.837 61.0384 171.011 60.6893C171.185 60.3401 171.359 59.991 171.417 59.5837C171.475 59.1764 171.359 58.7691 171.127 58.5363C170.606 58.0708 170.026 58.1872 169.678 58.2454C169.33 58.3036 169.156 58.3618 169.156 58.3618Z" fill="#EB996E"/>
<path d="M172.925 62.4931C172.925 62.4931 172.809 62.6676 172.809 62.9586C172.809 63.2495 172.983 63.7732 173.505 64.1223C173.969 64.4714 174.781 64.5296 175.477 64.1223C176.172 63.7732 176.694 63.0749 176.926 62.2603C177.216 61.4457 177.158 60.5729 176.926 59.8747C176.694 59.1764 176.288 58.5945 175.825 58.2454C175.419 57.8963 175.013 57.6635 174.723 57.5472C174.433 57.4308 174.259 57.4308 174.259 57.4308C174.259 57.489 174.897 57.6635 175.709 58.3618C176.057 58.7109 176.462 59.2346 176.636 59.9328C176.81 60.5729 176.868 61.3875 176.636 62.144C176.404 62.9004 175.941 63.5404 175.361 63.8314C174.781 64.1805 174.085 64.1223 173.679 63.8896C173.273 63.6568 173.041 63.1913 172.983 62.9586C172.925 62.6676 172.983 62.4931 172.925 62.4931Z" fill="#EB996E"/>
<path d="M165.618 66.1007C165.618 66.1007 165.329 65.9261 164.865 65.8679C164.343 65.8097 163.589 65.8679 162.835 66.3334L163.067 66.508C163.125 66.1589 163.183 65.7516 163.241 65.3442C163.415 63.0749 162.719 61.3875 162.661 61.3875C162.545 61.3875 163.125 63.1331 162.893 65.2861C162.835 65.6934 162.835 66.0425 162.719 66.3916L162.661 66.7989L162.951 66.5662C163.589 66.1589 164.285 66.0425 164.807 66.0425C165.329 66.1007 165.618 66.1589 165.618 66.1007Z" fill="#EB996E"/>
<path d="M170.2 52.3103C170.084 52.3103 170.258 53.0085 170.838 53.5322C171.476 54.0559 172.114 54.1141 172.114 53.9977C172.114 53.8814 171.534 53.7068 171.012 53.2413C170.49 52.834 170.258 52.3103 170.2 52.3103Z" fill="#EB996E"/>
<path d="M101.54 136.216L124.504 136.449L120.619 119.691L121.894 122.833C124.33 128.827 130.129 132.667 136.566 132.667C143.815 132.667 148.86 127.255 151.933 120.622C159.124 105.144 166.083 80.2984 166.083 80.2984L152.049 67.9627C141.901 87.2227 132.391 103.922 132.391 103.922C132.391 103.922 129.665 95.5434 127.519 88.0373C125.374 80.5311 125.432 76.6326 122.126 72.8504C117.081 67.0899 109.949 65.6934 103.28 63.9478L103.048 95.0197L101.54 136.216Z" fill="#85BC91"/>
<path d="M75.2707 113.058L117.139 121.262L119.169 137.38H54.9743C47.5516 137.496 41.6366 131.154 42.2165 123.706C43.1444 111.952 44.1302 97.4636 44.8841 91.354C45.464 86.5826 47.3776 81.6367 49.6392 77.389C52.8866 71.2794 63.6727 63.4241 73.125 63.0168L74.9227 103.05" fill="#85BC91"/>
<g opacity="0.4">
<g opacity="0.4">
<g opacity="0.4">
<g opacity="0.4">
<g opacity="0.4">
<g opacity="0.4">
<path opacity="0.4" d="M101.54 136.216L124.504 136.449L120.619 119.691L121.894 122.833C124.33 128.827 130.129 132.667 136.566 132.667C143.815 132.667 148.86 127.255 151.933 120.622C159.124 105.144 166.083 80.2984 166.083 80.2984L152.049 67.9627C141.901 87.2227 132.391 103.922 132.391 103.922C132.391 103.922 129.665 95.5434 127.519 88.0373C125.374 80.5311 125.432 76.6326 122.126 72.8504C117.081 67.0899 109.949 65.6934 103.28 63.9478L103.048 95.0197L101.54 136.216Z" fill="black"/>
</g>
</g>
</g>
</g>
<g opacity="0.4">
<g opacity="0.4">
<g opacity="0.4">
<g opacity="0.4">
<path opacity="0.4" d="M75.2707 113.058L113.022 119.982C114.588 120.273 115.863 121.495 116.153 123.066L119.169 137.38H54.9743C47.5516 137.496 41.6366 131.154 42.2165 123.706C43.1444 111.952 44.1302 97.4636 44.8841 91.354C45.464 86.5826 47.3776 81.6367 49.6392 77.389C52.8866 71.2794 63.6727 63.4241 73.125 63.0168L74.9227 103.05" fill="black"/>
</g>
</g>
</g>
</g>
</g>
</g>
<path d="M67.2681 111.894C67.2681 111.894 67.2681 111.778 67.2681 111.487C67.2681 111.196 67.2681 110.847 67.2681 110.381C67.2681 109.392 67.2681 107.995 67.2681 106.308C67.2681 102.875 67.2101 98.1619 66.9201 92.9832C66.8042 90.3648 66.6302 87.9209 66.4562 85.6516C66.2823 83.3823 66.1083 81.3457 65.5864 79.7165C65.1225 78.0873 64.3686 76.8653 63.7307 76.2253C63.0928 75.527 62.6289 75.2943 62.6289 75.2361C62.6289 75.2361 63.1508 75.4688 63.8467 76.1089C64.5426 76.749 65.2964 77.9709 65.8183 79.6583C66.3402 81.2876 66.5722 83.3823 66.7462 85.5934C66.9201 87.8627 67.0941 90.3066 67.2681 92.925C67.558 98.1618 67.558 102.875 67.5 106.308C67.4421 107.995 67.4421 109.392 67.3841 110.381C67.3841 110.847 67.3261 111.196 67.3261 111.487C67.3261 111.778 67.3261 111.894 67.2681 111.894Z" fill="#263238"/>
<path d="M116.327 122.368C116.269 122.426 115.921 121.786 114.82 121.146C114.298 120.855 113.544 120.506 112.674 120.273C111.804 120.04 110.818 119.808 109.659 119.575C105.193 118.644 98.9884 117.364 92.1456 116.084C85.3029 114.803 79.098 113.756 74.5748 113.058C72.3132 112.709 70.5155 112.418 69.2397 112.185C68.6018 112.069 68.1379 112.01 67.79 111.952C67.442 111.894 67.2681 111.836 67.2681 111.836C67.2681 111.836 67.442 111.836 67.79 111.894C68.1379 111.952 68.6598 112.01 69.2397 112.069C70.5155 112.243 72.3132 112.476 74.5748 112.825C79.098 113.523 85.3029 114.512 92.2036 115.793C99.0464 117.073 105.251 118.411 109.717 119.342C110.818 119.575 111.862 119.808 112.732 120.04C113.602 120.331 114.356 120.622 114.878 120.971C115.457 121.32 115.805 121.67 116.037 121.902C116.153 122.019 116.211 122.135 116.269 122.193C116.269 122.368 116.327 122.368 116.327 122.368Z" fill="#263238"/>
<path d="M67.3841 111.894C67.3841 111.952 66.6302 112.127 65.4124 112.592C64.8325 112.825 64.1367 113.174 63.3828 113.581C62.6289 114.047 61.8751 114.571 61.1212 115.153C60.3673 115.793 59.7294 116.491 59.1495 117.131C58.6276 117.771 58.1637 118.411 57.8158 118.935C57.1199 120.04 56.83 120.797 56.772 120.739C56.772 120.739 56.83 120.564 56.9459 120.215C57.0619 119.866 57.2939 119.4 57.6418 118.818C57.9898 118.236 58.3957 117.596 58.9176 116.898C59.4975 116.258 60.1354 115.56 60.8892 114.862C61.6431 114.222 62.455 113.698 63.2088 113.232C63.9627 112.825 64.6586 112.476 65.2965 112.301C65.9343 112.069 66.3983 111.952 66.8042 111.836C67.2101 111.894 67.3841 111.894 67.3841 111.894Z" fill="#263238"/>
<path d="M121.488 121.96C121.488 121.96 121.43 121.844 121.43 121.553C121.372 121.262 121.314 120.855 121.256 120.389C121.082 119.4 120.909 117.946 120.619 116.142C120.155 112.534 119.517 107.53 119.053 102.002C118.531 96.4744 118.241 91.4703 118.067 87.8045C118.009 86.0007 117.951 84.546 117.893 83.4987C117.893 83.0332 117.893 82.6259 117.893 82.3349C117.893 82.044 117.893 81.9276 117.893 81.9276C117.893 81.9276 117.893 82.044 117.951 82.3349C117.951 82.6259 118.009 83.0332 118.009 83.4987C118.067 84.546 118.125 86.0007 118.241 87.8045C118.473 91.4121 118.821 96.4162 119.285 101.944C119.807 107.472 120.329 112.476 120.793 116.084C121.025 117.887 121.198 119.342 121.314 120.331C121.372 120.797 121.43 121.204 121.43 121.495C121.488 121.786 121.488 121.96 121.488 121.96Z" fill="#263238"/>
<path d="M135.348 115.676C135.348 115.676 135.232 115.56 135 115.269C134.768 115.036 134.536 114.629 134.246 114.105C133.666 113.116 132.97 111.603 132.564 109.858C132.158 108.112 132.1 106.483 132.216 105.261C132.274 104.679 132.332 104.213 132.39 103.864C132.448 103.515 132.506 103.341 132.506 103.399C132.564 103.399 132.448 104.097 132.39 105.261C132.332 106.424 132.448 108.054 132.854 109.741C133.26 111.487 133.898 112.941 134.42 113.989C135 115.094 135.406 115.676 135.348 115.676Z" fill="#263238"/>
<path d="M67.094 90.2484C67.094 90.2484 67.0361 90.2484 66.8621 90.3066C66.7461 90.3066 66.5141 90.3648 66.2242 90.3648C65.7023 90.423 64.8904 90.3648 63.9046 90.1903C62.9188 90.0157 61.817 89.6666 60.5992 89.1429C59.3814 88.6192 58.1056 87.9791 56.7719 87.3391C55.4381 86.699 54.1623 86.1172 52.8866 85.7098C51.6688 85.3025 50.509 85.0698 49.5812 85.0698C47.6095 84.9534 46.5077 85.4771 46.4497 85.4189C46.4497 85.4189 46.5077 85.3607 46.6237 85.3025C46.7397 85.2443 46.9716 85.1862 47.2036 85.128C47.7255 84.9534 48.5373 84.837 49.5232 84.837C50.509 84.837 51.6688 85.0698 52.9446 85.4189C54.2203 85.8262 55.4961 86.3499 56.8299 87.0481C58.1636 87.6882 59.4394 88.3864 60.5992 88.8519C61.759 89.3756 62.8608 89.7248 63.8466 89.9575C65.8763 90.423 67.094 90.1903 67.094 90.2484Z" fill="#FAFAFA"/>
<path d="M74.2851 88.8519C74.2851 88.9101 72.7773 89.2592 70.8637 89.6084C68.95 89.9575 67.4423 90.132 67.3843 90.0739C67.3843 90.0157 68.892 89.6665 70.8057 89.3174C72.7193 88.9683 74.2851 88.7937 74.2851 88.8519Z" fill="#FAFAFA"/>
<path d="M66.862 101.362C66.862 101.362 66.572 101.537 65.9921 101.711C65.4122 101.944 64.6583 102.235 63.6145 102.526C61.5849 103.166 58.8014 103.981 55.612 104.504C54.0462 104.795 52.4805 104.97 51.0888 105.144C49.697 105.319 48.4212 105.377 47.3774 105.261C46.3336 105.144 45.4638 104.853 44.9419 104.562C44.6519 104.446 44.4779 104.272 44.362 104.213C44.246 104.097 44.188 104.039 44.188 104.039C44.188 104.039 44.4779 104.213 44.9998 104.446C45.5218 104.679 46.3336 104.97 47.3774 105.028C48.4212 105.144 49.639 105.028 51.0308 104.853C52.4225 104.679 53.9303 104.504 55.496 104.213C58.6854 103.631 61.4689 102.933 63.4986 102.293C64.4844 102.002 65.2962 101.711 65.8761 101.537C66.514 101.42 66.862 101.304 66.862 101.362Z" fill="#FAFAFA"/>
<path d="M74.1109 104.388C74.1109 104.446 72.7192 104.562 70.9795 104.621C69.2398 104.679 67.79 104.621 67.79 104.504C67.79 104.446 69.1818 104.33 70.9215 104.272C72.7192 104.272 74.1109 104.33 74.1109 104.388Z" fill="#FAFAFA"/>
<path d="M44.3042 130.921C44.3042 130.921 44.3042 130.805 44.3622 130.63C44.4202 130.398 44.4782 130.107 44.5941 129.758C44.6521 129.583 44.7101 129.35 44.7681 129.117C44.8261 128.885 44.9421 128.652 45.0581 128.361C45.232 127.837 45.464 127.255 45.7539 126.615C45.9279 126.324 46.0439 125.975 46.2179 125.626C46.3918 125.277 46.6238 124.928 46.7978 124.579C47.2037 123.822 47.7256 123.124 48.2475 122.368C49.3493 120.855 50.6831 119.342 52.3068 117.887C53.9305 116.491 55.6702 115.327 57.2939 114.454C58.1058 114.047 58.9176 113.64 59.6715 113.349C60.0774 113.174 60.4253 113.058 60.7733 112.941C61.1212 112.825 61.4692 112.709 61.8171 112.592C62.455 112.36 63.0929 112.243 63.6728 112.127C63.9627 112.069 64.1947 112.01 64.4266 111.952C64.6586 111.894 64.8905 111.894 65.0645 111.836C65.4124 111.778 65.7024 111.778 65.9344 111.719C66.1663 111.719 66.2243 111.719 66.2243 111.719C66.2243 111.719 66.1083 111.778 65.9344 111.778C65.7024 111.836 65.4124 111.894 65.0645 111.952C64.8905 112.01 64.6586 112.01 64.4266 112.069C64.1947 112.127 63.9627 112.185 63.6728 112.243C63.1509 112.36 62.513 112.534 61.8751 112.767C61.5271 112.883 61.1792 113 60.8313 113.116C60.4833 113.232 60.1354 113.407 59.7295 113.581C58.9756 113.872 58.2217 114.28 57.3519 114.687C55.7282 115.56 54.0465 116.724 52.4807 118.12C50.915 119.517 49.5233 121.029 48.4215 122.542C47.8996 123.299 47.3777 123.997 46.9717 124.753C46.7398 125.103 46.5658 125.452 46.3918 125.801C46.2179 126.15 46.0439 126.441 45.9279 126.79C45.58 127.43 45.406 128.012 45.174 128.536C45.0581 128.768 44.9421 129.001 44.8841 129.234C44.8261 129.467 44.7681 129.641 44.7101 129.874C44.5941 130.223 44.4782 130.514 44.4202 130.747C44.3622 130.805 44.3042 130.921 44.3042 130.921Z" fill="#FAFAFA"/>
<path d="M73.3572 113.058C73.4151 113.116 72.0814 113.931 70.9796 116.084C70.3997 117.131 69.9358 118.469 69.6458 120.04C69.3559 121.611 69.2399 123.357 69.1239 125.161C69.0079 126.965 68.892 128.768 68.544 130.339C68.1961 131.91 67.6742 133.249 67.0943 134.296C66.5144 135.344 65.8185 136.1 65.3546 136.565C65.1226 136.798 64.8907 136.973 64.7167 137.031C64.5427 137.147 64.4847 137.206 64.4847 137.147C64.4267 137.089 65.7605 136.275 66.9203 134.18C67.5002 133.132 67.9641 131.794 68.3121 130.223C68.602 128.652 68.776 126.965 68.892 125.103C69.0079 123.299 69.1239 121.495 69.4719 119.924C69.8198 118.353 70.2837 117.015 70.8636 115.909C71.4435 114.862 72.0814 114.105 72.6033 113.64C72.8352 113.407 73.0672 113.232 73.1832 113.174C73.2992 113.058 73.3572 113.058 73.3572 113.058Z" fill="#FAFAFA"/>
<path d="M83.2734 137.496C83.2154 137.496 83.2734 132.492 83.5053 126.325C83.6793 120.157 83.9112 115.153 84.0272 115.153C84.0852 115.153 84.0272 120.157 83.7953 126.325C83.5633 132.492 83.3313 137.496 83.2734 137.496Z" fill="#FAFAFA"/>
<path d="M98.9883 136.624C98.9883 136.624 98.8723 136.391 98.7563 135.925C98.6983 135.693 98.5823 135.402 98.5243 135.053C98.4664 134.703 98.3504 134.296 98.2924 133.889C98.1184 133.016 98.0024 131.969 98.0024 130.805C98.0024 129.641 98.0604 128.361 98.2344 126.965C98.4664 125.626 98.7563 124.346 99.1622 123.241C99.5682 122.135 99.9741 121.146 100.38 120.389C100.554 119.982 100.786 119.633 100.96 119.342C101.134 119.051 101.308 118.76 101.424 118.586C101.714 118.178 101.888 117.946 101.888 117.946C101.946 118.004 101.308 118.877 100.554 120.448C100.148 121.262 99.8001 122.193 99.3942 123.299C99.0463 124.404 98.7563 125.626 98.5243 126.965C98.3504 128.303 98.2344 129.583 98.2344 130.747C98.2344 131.91 98.3504 132.958 98.4664 133.831C98.7563 135.576 99.0463 136.624 98.9883 136.624Z" fill="#FAFAFA"/>
<path d="M72.2553 72.3268C72.2553 72.3849 71.3274 71.9776 69.8197 71.5121C68.312 71.0466 66.1664 70.523 63.7888 70.2902C61.4112 70.0575 59.2076 70.232 57.6419 70.4648C56.0762 70.6975 55.1483 70.9303 55.0903 70.8721C55.0903 70.8721 55.3223 70.7557 55.7282 70.6393C56.1341 70.523 56.772 70.3484 57.5839 70.232C59.1496 69.9411 61.3532 69.7665 63.7888 69.9993C66.2243 70.232 68.37 70.7557 69.8777 71.3376C70.6316 71.6285 71.2115 71.8613 71.6174 72.0358C72.0813 72.1522 72.2553 72.2686 72.2553 72.3268Z" fill="#FAFAFA"/>
<path d="M118.067 96.7654C118.067 96.8236 117.255 96.7654 115.921 96.7072C114.588 96.649 112.79 96.5908 110.76 96.5326C108.731 96.4744 106.875 96.4744 105.599 96.4744C104.265 96.4744 103.454 96.4162 103.454 96.4162C103.454 96.4162 103.686 96.3581 104.034 96.3581C104.381 96.3581 104.961 96.2999 105.599 96.2999C106.933 96.2417 108.789 96.2417 110.818 96.2999C112.848 96.3581 114.704 96.4744 115.979 96.5908C116.617 96.649 117.197 96.7072 117.545 96.7654C117.893 96.7072 118.067 96.7654 118.067 96.7654Z" fill="#FAFAFA"/>
<path d="M129.549 94.6125C129.549 94.6707 128.795 94.9034 127.693 95.4853C126.592 96.0672 125.084 96.94 123.634 98.2201C122.184 99.5002 121.141 100.897 120.445 101.944C119.749 102.991 119.401 103.748 119.401 103.69C119.401 103.69 119.459 103.515 119.575 103.166C119.691 102.817 119.923 102.351 120.271 101.828C120.909 100.722 121.952 99.2675 123.46 97.9873C124.91 96.7072 126.476 95.7762 127.635 95.2525C128.215 95.0198 128.679 94.787 129.027 94.7289C129.317 94.6125 129.549 94.5543 129.549 94.6125Z" fill="#FAFAFA"/>
<path d="M123.866 75.9344C123.866 75.9926 122.706 75.7598 120.908 76.3417C120.039 76.6326 119.053 77.0981 117.951 77.68C116.849 78.2619 115.631 78.9019 114.298 79.3092C111.572 80.1821 108.847 80.1239 107.049 79.7747C106.121 79.6002 105.425 79.3674 104.903 79.1929C104.439 79.0183 104.149 78.9019 104.149 78.8437C104.149 78.7856 105.251 79.2511 107.049 79.542C108.847 79.8329 111.514 79.8911 114.182 79.0183C115.515 78.611 116.733 77.9709 117.835 77.3891C118.937 76.8072 119.981 76.3417 120.85 76.1089C121.778 75.818 122.532 75.7598 123.054 75.818C123.344 75.818 123.518 75.8762 123.634 75.8762C123.808 75.9344 123.866 75.9344 123.866 75.9344Z" fill="#FAFAFA"/>
<path d="M120.967 114.92C120.967 114.92 120.735 115.036 120.271 115.211C120.039 115.327 119.807 115.443 119.459 115.502C119.111 115.618 118.763 115.734 118.357 115.851C117.545 116.084 116.502 116.316 115.4 116.491C114.298 116.607 113.022 116.724 111.688 116.665C110.355 116.607 109.137 116.433 108.035 116.258C106.933 116.025 105.947 115.734 105.136 115.443C104.73 115.327 104.382 115.153 104.034 115.036C103.744 114.92 103.454 114.803 103.222 114.687C102.816 114.454 102.584 114.338 102.584 114.338C102.584 114.28 103.57 114.745 105.194 115.269C106.005 115.56 106.991 115.793 108.093 115.967C109.195 116.142 110.413 116.316 111.746 116.374C113.022 116.433 114.298 116.316 115.4 116.2C116.502 116.084 117.487 115.851 118.357 115.676C119.981 115.269 120.967 114.862 120.967 114.92Z" fill="#FAFAFA"/>
<path d="M134.304 132.143C134.304 132.143 134.246 132.085 134.072 131.969C133.956 131.852 133.724 131.678 133.492 131.387C132.97 130.863 132.332 130.049 131.637 128.943C130.303 126.732 129.143 123.182 129.027 119.226C128.969 115.211 129.723 111.72 130.361 109.159C130.651 107.879 130.941 106.89 131.173 106.192C131.289 105.901 131.347 105.61 131.405 105.377C131.463 105.203 131.521 105.086 131.521 105.086C131.521 105.086 131.521 105.203 131.463 105.377C131.405 105.61 131.347 105.843 131.289 106.192C131.115 106.948 130.883 107.937 130.593 109.159C130.013 111.661 129.317 115.211 129.375 119.167C129.433 123.124 130.535 126.615 131.869 128.827C132.506 129.932 133.144 130.805 133.608 131.329C134.072 131.852 134.362 132.143 134.304 132.143Z" fill="#FAFAFA"/>
<path d="M155.413 112.418C155.355 112.476 154.427 111.429 152.339 110.672C151.295 110.323 150.078 109.974 148.628 109.683C147.236 109.392 145.612 109.159 143.989 108.636C140.741 107.588 138.19 105.726 136.624 104.213C135.812 103.457 135.232 102.759 134.884 102.235C134.71 102.002 134.594 101.769 134.478 101.653C134.362 101.537 134.362 101.42 134.362 101.42C134.362 101.42 134.594 101.653 135 102.119C135.406 102.584 135.986 103.224 136.798 103.981C138.364 105.493 140.915 107.239 144.105 108.286C145.67 108.81 147.236 109.043 148.686 109.392C150.136 109.683 151.411 110.032 152.397 110.439C153.441 110.847 154.195 111.312 154.659 111.719C154.891 111.894 155.065 112.069 155.181 112.185C155.355 112.36 155.413 112.418 155.413 112.418Z" fill="#FAFAFA"/>
<path d="M162.023 92.9832C162.023 92.9832 161.791 92.8087 161.385 92.4596C161.211 92.285 160.979 92.0523 160.69 91.8195C160.4 91.5868 160.11 91.2958 159.704 91.0049C158.95 90.423 158.08 89.7829 157.036 89.0847C155.992 88.4446 154.775 87.8046 153.441 87.2227C152.107 86.6408 150.831 86.2335 149.613 85.9426C148.396 85.6517 147.294 85.4189 146.366 85.3025C145.902 85.2443 145.496 85.1862 145.09 85.1862C144.742 85.128 144.394 85.128 144.162 85.128C143.641 85.0698 143.351 85.0698 143.351 85.0698C143.351 85.0698 143.641 85.0116 144.162 85.0116C144.452 85.0116 144.742 85.0116 145.148 85.0116C145.496 85.0116 145.96 85.0698 146.424 85.128C147.352 85.2443 148.512 85.4189 149.729 85.7098C150.947 86.0008 152.281 86.4663 153.615 86.99C154.949 87.5718 156.166 88.2119 157.21 88.9101C158.254 89.6084 159.182 90.2484 159.878 90.8885C160.226 91.1794 160.574 91.4704 160.805 91.7613C161.095 91.9941 161.327 92.2268 161.501 92.4596C161.849 92.7505 162.081 92.9832 162.023 92.9832Z" fill="#FAFAFA"/>
<path d="M111.34 66.2753C111.34 66.3335 110.934 66.5081 110.239 66.799C109.543 67.0899 108.557 67.3809 107.397 67.6718C106.295 67.9627 105.251 68.0791 104.498 68.1373C103.744 68.1955 103.28 68.1955 103.28 68.1373C103.28 68.0209 105.135 67.9046 107.339 67.3809C109.543 66.8572 111.282 66.2171 111.34 66.2753Z" fill="#FAFAFA"/>
<path d="M131.869 148.261C132.217 149.367 131.231 150.472 130.071 150.298C129.433 150.239 128.911 149.774 128.737 149.134L128.273 147.33H128.331C128.621 148.436 127.578 149.425 126.476 149.308C125.722 149.308 125.084 148.203 124.852 147.621C123.576 147.796 122.417 147.039 121.895 146.225L118.473 140.871L112.152 136.216L115.98 122.542L129.549 131.329C130.071 131.736 130.187 131.911 130.999 132.725L139.755 140.813C138.77 141.395 137.9 141.337 136.566 140.813C135.174 140.289 129.143 136.158 129.143 136.158L131.869 148.261Z" fill="#FFBE9D"/>
<path d="M120.271 136.973C120.271 136.973 120.445 137.031 120.677 137.206C120.793 137.322 120.967 137.38 121.141 137.496C121.315 137.613 121.547 137.787 121.721 137.962C121.895 138.195 122.069 138.427 122.185 138.777C122.301 139.068 122.417 139.417 122.533 139.708C122.765 140.406 122.997 141.104 123.286 141.919C123.808 143.49 124.272 144.886 124.562 145.934C124.852 146.981 125.026 147.621 125.026 147.621C124.968 147.621 124.736 147.039 124.388 145.992C124.04 145.003 123.518 143.606 122.997 142.035C122.765 141.279 122.475 140.522 122.301 139.824C122.185 139.475 122.069 139.184 122.011 138.835C121.895 138.544 121.779 138.311 121.605 138.078C121.431 137.846 121.257 137.729 121.083 137.613C120.909 137.496 120.793 137.38 120.677 137.264C120.387 137.147 120.271 137.031 120.271 136.973Z" fill="#EB996E"/>
<path d="M128.447 147.621C128.447 147.621 128.331 147.447 128.273 147.039C128.157 146.632 127.983 146.108 127.809 145.468C127.461 144.13 126.94 142.326 126.302 140.348C125.664 138.369 125.026 136.566 124.214 135.518C123.808 134.994 123.402 134.587 123.112 134.413C122.822 134.238 122.59 134.18 122.59 134.122C122.59 134.122 122.648 134.122 122.764 134.122C122.88 134.122 122.996 134.18 123.17 134.296C123.518 134.471 123.982 134.82 124.388 135.402C125.258 136.507 125.954 138.311 126.592 140.289C127.23 142.268 127.693 144.13 127.983 145.468C128.157 146.108 128.273 146.69 128.331 147.039C128.447 147.388 128.447 147.621 128.447 147.621Z" fill="#EB996E"/>
<path d="M131.927 148.436C131.927 148.436 131.811 148.203 131.695 147.854C131.521 147.388 131.347 146.806 131.173 146.166C130.709 144.712 130.129 142.733 129.491 140.522C128.854 138.369 128.332 136.391 127.926 134.878C127.694 134.18 127.346 133.714 126.998 133.482C126.65 133.249 126.418 133.191 126.418 133.191C126.418 133.191 126.476 133.191 126.592 133.191C126.708 133.191 126.882 133.249 127.056 133.365C127.404 133.598 127.868 134.063 128.1 134.82C128.564 136.275 129.143 138.253 129.781 140.464C130.419 142.675 130.999 144.654 131.347 146.108C131.521 146.806 131.695 147.388 131.811 147.854C131.927 148.203 131.985 148.436 131.927 148.436Z" fill="#EB996E"/>
</g>
<defs>
<clipPath id="clip0">
<rect width="180" height="156" fill="white"/>
</clipPath>
</defs>
</svg>
