<svg width="217" height="165" viewBox="0 0 217 165" fill="none" xmlns="http://www.w3.org/2000/svg">
<g clip-path="url(#clip0)" filter="url(#filter0_d)">
<path d="M35.2036 102.696L24.744 90.7588C21.8974 87.9072 20.9706 86.5808 21.5002 86.0503C22.2284 85.3871 21.9636 85.5861 27.7892 90.0294C27.7892 90.0294 19.448 83.6629 22.3608 83.5966C22.8904 83.5966 24.2806 84.3924 25.8032 85.3871C23.751 83.5966 23.1552 82.4692 23.5524 81.8723C24.2144 80.8775 29.3118 84.4587 31.695 86.1166C29.7752 84.6576 26.1342 81.8723 25.4722 81.0102C24.6116 79.8165 26.399 79.8828 27.8554 80.4133C29.5104 80.9439 38.5136 85.5861 41.2278 86.7798C43.0814 87.5756 43.7434 85.9177 43.7434 85.9177C44.7364 81.7397 47.7154 79.087 48.8408 78.6891C49.9662 78.3575 50.8268 79.8165 50.0324 80.8775C49.3704 81.7397 48.7084 83.4639 48.245 84.7903C47.8478 85.9177 47.7154 87.0451 47.7154 88.1725C47.7154 89.4988 47.7816 90.6262 47.914 91.621L57.513 104.818L41.4926 114.103L35.2036 102.696Z" fill="#FFBE9D"/>
<path d="M31.4303 91.8862C31.2979 92.0189 29.4443 90.7588 27.2597 89.0346C25.0751 87.3103 23.4201 85.785 23.4863 85.6524C23.6187 85.5198 25.4723 86.7798 27.6569 88.5041C29.8415 90.2283 31.4965 91.6873 31.4303 91.8862Z" fill="#FFBE9D"/>
<path d="M33.4824 89.7641C33.35 89.8967 31.2978 88.6367 28.8484 86.9787C26.399 85.2545 24.5454 83.7955 24.6116 83.5966C24.744 83.4639 26.7962 84.724 29.2456 86.3819C31.695 88.1061 33.5486 89.6314 33.4824 89.7641Z" fill="#FFBE9D"/>
<path d="M34.939 87.5756C34.8066 87.7082 32.8868 86.5808 30.5698 84.9892C28.2528 83.3976 26.4654 82.0049 26.5316 81.8723C26.664 81.7396 28.5838 82.867 30.9008 84.4587C33.2178 85.984 35.0052 87.3766 34.939 87.5756Z" fill="#FFBE9D"/>
<path d="M48.7084 93.6105L86.9059 142.088L78.1674 162.514C78.1674 162.514 67.7078 160.193 64.5302 155.75C61.3526 151.307 35.2036 102.696 35.2036 102.696L48.7084 93.6105Z" fill="#FFBE9D"/>
<path d="M145.625 25.7015C148.406 28.0889 148.34 32.2669 148.075 35.9144C147.744 39.5618 147.545 43.6735 149.995 46.3262C152.047 48.5147 155.82 49.4431 156.284 52.4274C156.482 53.8201 155.754 55.279 154.562 55.9422C153.305 56.6054 151.716 56.4064 150.657 55.478C151.451 57.7991 150.921 60.7171 148.869 62.176C146.817 63.5687 143.441 62.7066 142.845 60.3191C143.242 61.9108 142.051 63.7013 140.462 63.9666C138.873 64.2319 137.152 62.9719 136.953 61.3802" fill="#263238"/>
<path d="M106.302 50.1725C105.64 51.9631 103.323 52.9579 101.536 52.2284C99.7485 51.4989 98.8217 49.1778 99.6161 47.3872C100.278 45.9946 101.735 44.9998 101.867 43.4745C102.066 41.6176 100.212 40.3576 98.5569 39.5618C96.9019 38.766 94.9821 37.7049 94.7835 35.9143C94.5849 34.1237 96.1737 32.7974 97.4977 31.6037C98.8217 30.41 100.146 28.6194 99.2851 27.0278C98.8879 26.232 98.0273 25.7677 97.4315 25.0383C96.1737 23.4466 96.8357 20.9266 98.4245 19.7329C100.013 18.4728 102.198 18.3402 104.184 18.6718C106.17 19.0034 108.024 19.8655 109.943 20.396C116.299 22.2529 123.382 21.3245 129.009 17.876" fill="#263238"/>
<path d="M118.019 92.9473C125.169 94.4062 132.12 89.8303 133.643 82.7344L143.043 39.5618C145.492 29.0836 138.872 18.6055 128.28 16.417L127.287 16.2844C117.357 14.8254 107.957 21.2582 105.772 31.0068C103.654 40.0923 101.469 50.1725 100.807 55.1463C99.4172 65.4255 109.413 68.4761 109.413 68.4761L107.626 77.0974C106.17 84.4586 110.804 91.4883 118.019 92.9473Z" fill="#FFBE9D"/>
<path d="M107.626 37.8375C107.494 38.6333 108.023 39.3628 108.818 39.4954C109.612 39.6281 110.407 39.1639 110.539 38.368C110.671 37.5722 110.142 36.8427 109.347 36.7101C108.487 36.5775 107.759 37.0417 107.626 37.8375Z" fill="#263238"/>
<path d="M107.229 36.3786C107.361 36.5775 108.619 35.9143 110.208 36.1796C111.797 36.3786 112.79 37.3733 112.988 37.1744C113.055 37.1081 112.922 36.7101 112.525 36.3122C112.062 35.848 111.267 35.3838 110.34 35.2512C109.347 35.1185 108.487 35.3838 107.957 35.6491C107.361 35.9807 107.163 36.3122 107.229 36.3786Z" fill="#263238"/>
<path d="M122.985 40.3576C122.852 41.1534 123.382 41.8829 124.176 42.0155C124.971 42.1481 125.765 41.6839 125.897 40.8881C126.03 40.0923 125.5 39.3628 124.706 39.2302C123.845 39.0975 123.117 39.6281 122.985 40.3576Z" fill="#263238"/>
<path d="M122.654 38.9649C122.786 39.1639 124.044 38.5007 125.633 38.766C127.221 38.9649 128.214 39.9597 128.413 39.7607C128.479 39.6944 128.347 39.2965 127.95 38.8986C127.486 38.4344 126.692 37.9702 125.765 37.8375C124.772 37.7049 123.911 37.9702 123.382 38.2354C122.786 38.567 122.521 38.8323 122.654 38.9649Z" fill="#263238"/>
<path d="M115.239 49.7746C115.239 49.7083 114.313 49.3767 112.724 48.9125C112.327 48.7799 111.929 48.6472 111.929 48.382C111.863 48.0504 112.128 47.6525 112.393 47.2546C112.922 46.3261 113.452 45.3977 114.048 44.3366C116.299 40.2249 118.02 36.8427 117.887 36.7101C117.689 36.6438 115.703 39.8933 113.452 44.005C112.922 44.9998 112.393 45.9945 111.863 46.923C111.665 47.3872 111.334 47.8514 111.4 48.4483C111.466 48.7799 111.731 49.0451 111.996 49.1115C112.26 49.2441 112.459 49.2441 112.658 49.3104C114.18 49.7083 115.173 49.9073 115.239 49.7746Z" fill="#263238"/>
<path d="M123.117 32.7311C123.183 33.1953 124.838 33.1953 126.626 33.7258C128.413 34.1901 129.869 34.9195 130.134 34.588C130.267 34.389 130.068 33.9911 129.538 33.4606C129.009 32.93 128.082 32.3995 127.023 32.1342C125.964 31.8689 124.904 31.869 124.176 32.0679C123.448 32.2005 123.051 32.5321 123.117 32.7311Z" fill="#263238"/>
<path d="M108.487 31.9353C108.686 32.3332 109.877 32.1342 111.135 32.2668C112.459 32.3995 113.518 32.8637 113.783 32.5321C113.915 32.3995 113.783 32.0016 113.386 31.6037C112.989 31.2058 112.194 30.8079 111.334 30.6752C110.407 30.5426 109.612 30.8079 109.083 31.0731C108.553 31.4047 108.355 31.7363 108.487 31.9353Z" fill="#263238"/>
<path d="M133.577 26.7625C133.577 26.7625 133.643 26.7625 133.577 26.7625C135.033 28.3541 135.894 30.3437 135.827 32.4658C135.827 32.5321 135.827 32.5984 135.827 32.6648C135.827 35.649 135.298 38.6333 135.298 41.5513C135.298 44.5356 135.894 47.6525 137.747 49.9736C138.542 50.902 139.998 51.6978 140.859 50.8357C141.19 50.5041 141.322 50.0399 141.388 49.5757C142.977 42.6124 145.824 36.6438 146.883 29.2826C147.148 27.293 146.486 25.2372 145.029 23.8445C143.639 22.5182 141.918 21.0592 140.13 21.6561C138.277 22.1866 135.629 25.1046 134.106 26.2983" fill="#263238"/>
<path d="M138.939 43.7398C139.138 43.6734 146.287 42.6787 145.029 49.642C143.772 56.6053 137.085 53.8863 137.085 53.6874C137.085 53.4884 138.939 43.7398 138.939 43.7398Z" fill="#FFBE9D"/>
<path d="M139.667 51.4325C139.733 51.4325 139.8 51.5652 139.932 51.6978C140.131 51.8304 140.462 51.9631 140.859 51.8968C141.653 51.7641 142.448 50.7031 142.712 49.443C142.845 48.7798 142.845 48.183 142.712 47.6524C142.58 47.1219 142.315 46.6577 141.984 46.525C141.653 46.3924 141.322 46.5251 141.19 46.724C141.057 46.923 141.057 47.0556 141.057 47.0556C141.057 47.0556 140.925 46.923 141.057 46.6577C141.124 46.525 141.19 46.3924 141.388 46.2598C141.587 46.1271 141.852 46.1271 142.117 46.1935C142.646 46.3261 143.043 46.923 143.176 47.5198C143.374 48.1167 143.374 48.8462 143.242 49.5093C142.977 50.902 141.984 52.0957 140.925 52.2283C140.395 52.2947 140.064 52.0294 139.866 51.8304C139.601 51.6315 139.601 51.4989 139.667 51.4325Z" fill="#FFBE9D"/>
<path d="M140.197 22.7835C142.315 20.2634 138.211 15.5549 134.901 13.8969C131.591 12.3053 126.824 13.3001 123.249 13.9633C120.999 14.3612 118.682 15.0243 116.431 14.6264C114.908 14.3612 113.518 13.5654 112.194 12.8359C110.804 12.1064 109.414 11.4432 107.825 11.3106C106.302 11.1779 104.581 11.7748 103.787 13.1011C102.992 14.4275 103.522 16.4833 105.044 16.9475C103.257 15.6212 100.278 16.616 99.616 18.7381C98.954 20.8603 100.94 23.314 103.191 23.1814C102.33 22.2529 100.609 23.314 100.543 24.574C100.477 25.8341 101.47 26.8952 102.529 27.5583C105.243 29.2826 108.685 29.3489 111.863 28.752C115.041 28.1552 118.086 27.0278 121.197 26.3646C124.375 25.7014 129.671 24.5077 132.517 25.9667C134.636 27.0941 135.761 29.9458 137.085 29.5478C138.343 29.1499 139.336 28.0226 139.733 26.6962C140.197 25.5025 140.197 24.1098 140.197 22.7835Z" fill="#263238"/>
<path d="M153.834 55.0801C153.834 55.0801 153.966 55.0801 154.231 54.9474C154.43 54.8148 154.761 54.5495 154.959 54.0853C155.158 53.6211 155.29 53.0242 155.158 52.2947C155.025 51.5652 154.562 50.8358 153.9 50.2389C153.238 49.642 152.377 49.1778 151.384 48.7799C150.458 48.382 149.398 47.9841 148.472 47.3872C147.545 46.7241 146.817 45.7956 146.353 44.6019C145.89 43.4745 145.691 42.1482 145.757 40.8218C145.824 38.1691 146.552 35.7154 146.75 33.328C146.949 31.0069 146.618 28.8184 145.625 27.2931C144.632 25.7678 143.308 25.0383 142.315 24.773C141.852 24.6404 141.454 24.6404 141.19 24.6404C140.925 24.6404 140.792 24.7067 140.792 24.7067C140.792 24.773 141.322 24.6404 142.315 24.9057C143.242 25.1709 144.5 25.9004 145.426 27.4257C146.353 28.8847 146.684 31.0069 146.419 33.328C146.221 35.6491 145.493 38.1028 145.426 40.8218C145.426 42.1482 145.559 43.5408 146.088 44.7345C146.552 45.9283 147.346 46.9893 148.339 47.6525C149.332 48.3157 150.391 48.6473 151.318 49.0452C152.245 49.4431 153.106 49.841 153.768 50.4378C154.43 50.9684 154.893 51.6979 154.959 52.361C155.092 53.0242 154.959 53.6211 154.827 54.0853C154.43 54.9474 153.834 55.0801 153.834 55.0801Z" fill="#455A64"/>
<path d="M104.846 16.815C104.846 16.815 104.779 16.7486 104.515 16.6823C104.382 16.616 104.316 16.5497 104.117 16.5497C103.985 16.4834 103.786 16.4171 103.588 16.4171C102.727 16.2181 101.337 16.3507 100.079 17.4781C99.2187 18.4729 98.6891 19.9319 98.8215 21.6561C98.9539 23.3141 99.8145 25.1046 101.403 26.3647C102.926 27.691 104.978 28.4868 107.163 28.6858C109.347 28.951 111.73 28.6858 114.047 28.2879C117.887 27.5584 121.329 26.0994 124.176 24.3751C125.633 23.513 126.957 22.7172 128.347 22.1867C129.737 21.6561 131.061 21.3909 132.319 21.3909C134.834 21.3245 136.82 22.1203 138.012 22.7172C139.27 23.3804 139.799 23.9109 139.866 23.9109C139.866 23.9109 139.336 23.3141 138.078 22.6509C136.887 21.9877 134.901 21.1919 132.319 21.1919C131.061 21.1919 129.671 21.4572 128.214 21.9877C126.824 22.5182 125.434 23.3141 123.978 24.1762C121.131 25.9004 117.688 27.2931 113.915 28.0226C111.598 28.4868 109.281 28.6858 107.163 28.4205C104.978 28.2215 102.992 27.4257 101.536 26.1657C100.079 24.972 99.1525 23.2477 99.0201 21.6561C98.8877 20.0645 99.3511 18.6055 100.145 17.6771C101.337 16.616 102.661 16.4171 103.522 16.5497C104.382 16.5497 104.779 16.815 104.846 16.815Z" fill="#455A64"/>
<path d="M108.686 10.979C108.686 10.979 108.619 11.5759 108.95 12.5706C109.281 13.5654 110.142 14.8917 111.665 15.8865C112.459 16.417 113.386 16.8149 114.445 17.0139C115.504 17.2128 116.696 17.2792 117.887 17.2128C120.337 17.0139 122.852 16.2181 125.5 15.4886C128.148 14.8254 130.863 14.4275 133.113 15.0244C135.43 15.6212 137.152 17.0139 138.277 18.4066C139.402 19.7992 139.998 21.1919 140.263 22.1203C140.528 23.1151 140.528 23.6456 140.594 23.6456C140.594 23.6456 140.594 23.513 140.594 23.2477C140.594 22.9824 140.528 22.5845 140.395 22.054C140.131 21.0592 139.601 19.6666 138.476 18.2076C137.35 16.7486 135.563 15.2896 133.18 14.6928C130.796 14.0296 128.082 14.4275 125.368 15.0907C122.654 15.8202 120.138 16.616 117.755 16.8149C116.563 16.9476 115.438 16.8812 114.379 16.6823C113.32 16.4833 112.459 16.0854 111.665 15.6212C110.142 14.6928 109.281 13.4327 108.95 12.5043C108.752 11.5759 108.752 10.979 108.686 10.979Z" fill="#455A64"/>
<path d="M112.062 55.0138C112.194 55.6769 112.327 56.4064 112.591 57.0033C112.922 57.6001 113.386 58.197 114.048 58.3296C114.776 58.5286 115.504 58.2633 116.034 57.7328C116.563 57.2022 116.828 56.5391 116.961 55.8096C117.093 55.1464 116.961 54.3506 116.299 54.0853C116.034 54.019 115.769 54.019 115.504 54.0853C114.313 54.2843 113.055 54.5495 111.863 54.7485" fill="#FFBE9D"/>
<path d="M112.724 57.7991C112.79 57.7328 113.386 58.197 114.577 58.1307C115.107 58.0644 115.769 57.8654 116.299 57.3349C116.762 56.8044 117.093 56.0085 117.027 55.2127C117.027 55.0138 116.961 54.8148 116.894 54.6159C116.828 54.4169 116.828 54.4832 116.696 54.4169C116.564 54.4169 116.299 54.4169 116.1 54.4832C115.901 54.4832 115.703 54.4832 115.504 54.5496C114.71 54.6159 113.982 54.6822 113.386 54.6822C112.194 54.7485 111.4 54.7485 111.4 54.6159C111.4 54.5496 112.128 54.4169 113.32 54.218C113.915 54.1517 114.644 54.019 115.438 53.9527C115.637 53.9527 115.835 53.8864 116.034 53.8864C116.233 53.8864 116.431 53.8201 116.696 53.8201C116.828 53.8201 117.027 53.8864 117.159 54.019C117.292 54.1517 117.358 54.2843 117.424 54.4169C117.49 54.6822 117.556 54.8811 117.623 55.1464C117.689 56.1412 117.292 57.1359 116.696 57.7328C116.034 58.3297 115.239 58.5949 114.577 58.5286C113.915 58.5286 113.452 58.3297 113.121 58.1307C112.79 57.9981 112.724 57.7991 112.724 57.7991Z" fill="#263238"/>
<path d="M109.414 68.5425C109.414 68.5425 116.1 71.0625 122.588 69.2057C122.588 69.2057 117.689 73.3173 108.752 71.7257L109.414 68.5425Z" fill="#FFBE9D"/>
<path d="M119.609 163.642C119.609 163.642 119.278 163.376 118.682 162.912C118.417 162.647 118.02 162.382 117.623 162.116C117.225 161.785 116.762 161.453 116.166 161.055C115.637 160.657 115.041 160.259 114.313 159.928C113.651 159.53 112.922 159.132 112.128 158.734C110.539 158.005 108.752 157.275 106.832 156.678C104.912 156.081 102.992 155.75 101.271 155.485C100.411 155.418 99.6162 155.286 98.8218 155.286C98.0274 155.219 97.2992 155.219 96.6372 155.219C95.9752 155.219 95.3794 155.286 94.8498 155.286C94.3202 155.286 93.8568 155.352 93.5258 155.418C92.7976 155.485 92.4004 155.551 92.4004 155.485C92.4004 155.485 92.7976 155.418 93.5258 155.286C93.923 155.219 94.3202 155.153 94.8498 155.153C95.3794 155.087 95.9752 155.02 96.6372 155.02C97.2992 155.02 98.0274 154.954 98.8218 155.02C99.6162 155.02 100.411 155.153 101.337 155.219C103.059 155.418 104.978 155.816 106.964 156.347C108.884 156.944 110.672 157.673 112.26 158.469C113.055 158.867 113.783 159.265 114.445 159.663C115.107 160.06 115.703 160.458 116.232 160.856C116.762 161.254 117.225 161.586 117.689 161.917C118.086 162.249 118.417 162.514 118.748 162.779C119.344 163.31 119.609 163.642 119.609 163.642Z" fill="#FAFAFA"/>
<path d="M80.683 129.554L86.1114 106.012C88.1636 97.1253 90.6792 88.6367 94.7836 87.6419V90.3609L92.9962 157.673C92.9962 157.673 81.9408 170.273 67.8402 163.31C63.4048 161.122 55.3946 145.67 55.3946 145.67C55.3946 145.67 36.7262 112.246 37.4544 110.72C38.2488 109.195 49.6352 94.4726 50.8268 93.6768L80.683 129.554Z" fill="#85BC91"/>
<path d="M136.556 81.0102C147.347 83.066 159.527 89.3661 165.088 105.548C167.14 111.45 181.969 154.954 181.969 154.954L156.615 154.423L152.51 145.471L154.496 159.994L156.217 180.751L92.2681 181.813L92.7315 150.511L93.3273 88.3051C93.3273 88.3051 94.0555 87.3766 105.045 81.2754C111.929 77.4953 136.556 81.0102 136.556 81.0102Z" fill="#85BC91"/>
<g opacity="0.2">
<g opacity="0.2">
<g opacity="0.2">
<path opacity="0.2" d="M142.977 122.591C144.036 135.722 145.228 139.767 146.287 152.898C146.353 154.158 146.486 155.418 146.949 156.546C147.412 157.673 148.405 158.734 149.597 158.933C151.451 159.331 153.9 160.657 154.43 158.8L152.642 146.134C152.642 146.134 152.245 143.746 150.921 140.828C146.949 132.141 145.493 131.61 142.977 122.591Z" fill="black"/>
</g>
</g>
</g>
<path d="M105.111 88.0398L105.309 86.6471L107.362 73.5163C107.494 72.7205 108.222 72.1899 109.017 72.2563L134.239 74.3784C135.828 74.511 137.019 75.9037 136.887 77.4953L136.357 85.1218L128.479 95.401L117.159 97.1916" fill="#85BC91"/>
<path d="M92.4667 112.644C92.5329 112.644 92.6653 122.923 92.6653 135.589C92.6653 148.256 92.5991 158.535 92.4667 158.535C92.4005 158.535 92.2681 148.256 92.2681 135.589C92.2681 122.923 92.3343 112.644 92.4667 112.644Z" fill="#263238"/>
<path d="M157.21 156.479C157.21 156.479 157.21 156.413 157.144 156.347C157.078 156.214 157.011 156.081 156.945 155.882C156.747 155.485 156.482 154.888 156.151 154.158C155.489 152.633 154.562 150.444 153.37 147.725C151.053 142.221 147.876 134.727 144.367 126.438C142.646 122.26 140.991 118.281 139.468 114.699C138.674 112.909 138.144 111.118 137.813 109.394C137.482 107.67 137.416 106.012 137.35 104.553C137.35 101.569 137.747 99.1811 138.343 97.5895C138.409 97.3906 138.475 97.1916 138.542 97.059C138.608 96.9263 138.674 96.7274 138.74 96.5947C138.873 96.3295 139.005 96.0642 139.137 95.8653C139.27 95.6663 139.336 95.5337 139.402 95.4673C139.468 95.401 139.535 95.3347 139.535 95.3347C139.601 95.3347 139.005 96.0642 138.409 97.6558C137.88 99.1811 137.482 101.569 137.549 104.553C137.615 107.471 138.012 111.052 139.667 114.633C141.19 118.214 142.845 122.193 144.632 126.371C148.074 134.661 151.252 142.221 153.569 147.725C154.694 150.444 155.621 152.633 156.217 154.225C156.548 154.954 156.747 155.551 156.945 156.015C157.011 156.214 157.078 156.347 157.144 156.479C157.21 156.413 157.21 156.479 157.21 156.479Z" fill="#263238"/>
<path d="M144.433 83.265C144.433 83.265 144.169 83.5302 143.705 83.9281C143.176 84.326 142.381 84.8566 141.322 85.3208C140.197 85.785 138.74 86.2492 137.085 86.5145C135.364 86.7798 133.444 86.9787 131.26 87.1114C129.075 87.1777 126.692 87.1777 124.176 87.244C121.661 87.3103 118.946 87.4429 116.166 88.2388C113.452 88.9682 110.605 90.3609 108.619 92.682C107.626 93.8757 106.898 95.2684 106.501 96.7937C106.104 98.319 106.104 99.9769 106.567 101.569C106.832 102.364 107.229 103.028 107.692 103.691C108.156 104.288 108.818 104.818 109.48 105.216C110.142 105.614 110.936 105.747 111.664 105.68C112.393 105.614 113.121 105.216 113.584 104.685C114.577 103.558 114.776 101.9 114.577 100.507C114.445 99.778 114.246 99.0485 113.915 98.4516C113.584 97.7885 113.187 97.1916 112.724 96.6611C110.936 94.4726 108.354 93.2126 105.905 92.6157C103.456 92.0188 101.006 92.1515 98.9541 92.682C96.8357 93.2126 95.1145 94.0747 93.6581 94.9368C92.2017 95.7989 91.0101 96.7937 90.1495 97.5895C89.2227 98.3853 88.6269 99.0485 88.1635 99.5127C87.9649 99.7117 87.7663 99.9106 87.7001 100.043C87.5677 100.176 87.5015 100.242 87.5015 100.242C87.5015 100.242 88.2959 99.1811 90.0833 97.5232C91.0101 96.7274 92.1355 95.7326 93.5919 94.8042C95.0483 93.8757 96.8357 93.0136 98.9541 92.4831C101.072 91.8862 103.522 91.7536 106.037 92.3504C108.553 92.9473 111.135 94.2073 112.988 96.4621C113.452 97.059 113.849 97.6558 114.18 98.319C114.511 98.9822 114.71 99.7117 114.842 100.507C114.974 101.237 114.974 102.033 114.776 102.829C114.643 103.624 114.312 104.354 113.783 104.951C113.253 105.548 112.459 106.012 111.598 106.078C110.738 106.144 109.943 105.945 109.215 105.548C108.487 105.15 107.825 104.619 107.295 103.956C106.766 103.293 106.368 102.563 106.104 101.701C105.574 100.11 105.64 98.3853 106.037 96.7937C106.435 95.2021 107.163 93.7431 108.222 92.5494C110.274 90.0956 113.187 88.7693 115.901 88.0398C118.682 87.3103 121.462 87.1114 123.978 87.1114C126.559 87.045 128.876 87.1114 131.061 87.045C133.246 86.9787 135.165 86.7798 136.887 86.5145C138.608 86.2492 139.998 85.8513 141.123 85.3871C142.249 84.9229 143.043 84.3923 143.573 84.0608C143.838 83.8618 144.036 83.7292 144.169 83.5965C144.367 83.3313 144.433 83.265 144.433 83.265Z" fill="#FAFAFA"/>
<path d="M166.346 110.853C166.346 110.853 166.279 110.853 166.081 110.919C165.882 110.919 165.617 110.986 165.286 110.986C164.558 111.052 163.565 110.986 162.307 110.919C161.05 110.853 159.527 110.654 157.872 110.389C156.217 110.19 154.43 109.925 152.51 109.792C150.59 109.726 148.736 109.858 147.148 110.19C145.559 110.521 144.102 111.118 143.043 111.715C140.859 113.041 140.064 114.5 139.998 114.368C139.998 114.368 140.064 114.302 140.13 114.103C140.263 113.97 140.395 113.705 140.594 113.439C141.057 112.909 141.785 112.179 142.845 111.45C143.904 110.787 145.36 110.19 147.015 109.792C148.67 109.394 150.524 109.261 152.444 109.328C154.363 109.46 156.217 109.726 157.872 109.925C159.527 110.19 160.983 110.389 162.241 110.521C163.499 110.654 164.492 110.72 165.22 110.72C165.948 110.853 166.346 110.853 166.346 110.853Z" fill="#FAFAFA"/>
<path d="M150.391 140.629C150.391 140.696 149.067 140.165 146.618 140.298C145.36 140.364 143.904 140.629 142.183 141.094C140.461 141.558 138.608 142.221 136.489 142.884C134.371 143.547 131.988 144.144 129.34 144.144C126.692 144.144 123.911 143.614 121.197 142.486C118.483 141.359 115.901 139.502 113.783 137.115C112.724 135.921 111.797 134.528 111.135 133.003C110.473 131.478 110.142 129.753 110.407 128.029C110.671 126.305 111.466 124.713 112.79 123.586C113.452 123.055 114.18 122.591 115.041 122.459C115.835 122.26 116.696 122.326 117.49 122.525C118.284 122.724 119.013 123.122 119.608 123.719C120.204 124.249 120.668 124.979 120.8 125.774C120.999 126.57 120.866 127.366 120.601 128.095C120.337 128.825 119.873 129.488 119.344 130.019C118.284 131.08 117.027 131.809 115.703 132.34C115.041 132.605 114.379 132.804 113.717 132.87C113.386 132.937 113.055 133.003 112.724 133.069C112.393 133.136 112.062 133.136 111.731 133.202C109.149 133.467 106.633 133.202 104.515 132.671C102.33 132.141 100.477 131.345 98.954 130.549C97.4314 129.687 96.1736 128.825 95.2468 127.963C94.982 127.764 94.7834 127.565 94.5848 127.366C94.3862 127.167 94.1876 126.968 94.0552 126.835C93.7242 126.504 93.4594 126.172 93.2608 125.973C93.0622 125.708 92.9298 125.575 92.7974 125.376C92.665 125.244 92.665 125.178 92.665 125.178C92.665 125.178 92.7312 125.244 92.8636 125.376C92.996 125.509 93.1284 125.708 93.3932 125.907C93.5918 126.172 93.8566 126.438 94.2538 126.769C94.4524 126.968 94.5848 127.101 94.7834 127.3C94.982 127.499 95.2468 127.698 95.4454 127.897C96.3722 128.692 97.63 129.554 99.1526 130.417C100.675 131.212 102.529 132.008 104.713 132.472C106.832 132.937 109.281 133.202 111.863 132.937C112.194 132.87 112.525 132.87 112.856 132.804C113.187 132.738 113.518 132.671 113.849 132.605C114.511 132.472 115.173 132.273 115.769 132.075C117.027 131.61 118.284 130.881 119.277 129.82C119.741 129.289 120.204 128.692 120.469 128.029C120.734 127.366 120.8 126.636 120.601 125.907C120.27 124.448 119.013 123.321 117.49 122.923C116.762 122.724 115.967 122.657 115.173 122.856C114.445 122.989 113.717 123.387 113.121 123.917C111.929 124.979 111.135 126.504 110.87 128.162C110.605 129.82 111.002 131.478 111.598 132.937C112.26 134.462 113.121 135.788 114.18 136.982C116.232 139.369 118.814 141.16 121.462 142.287C124.11 143.481 126.89 143.945 129.472 144.012C132.054 144.078 134.437 143.481 136.556 142.818C138.674 142.155 140.594 141.558 142.249 141.094C143.97 140.629 145.493 140.364 146.684 140.364C147.28 140.298 147.876 140.364 148.339 140.364C148.803 140.431 149.2 140.497 149.531 140.563C149.862 140.629 150.06 140.696 150.259 140.762C150.325 140.563 150.391 140.629 150.391 140.629Z" fill="#FAFAFA"/>
<path d="M92.2681 133.533C92.2019 133.533 91.9371 132.804 91.2751 131.743C90.6131 130.682 89.6201 129.223 88.2299 127.963C86.8397 126.636 85.3171 125.708 84.2579 125.177C83.1325 124.581 82.4043 124.382 82.4043 124.315C82.4043 124.315 82.6029 124.315 82.9339 124.448C83.2649 124.514 83.7283 124.713 84.3241 124.979C85.5157 125.509 87.0383 126.438 88.4285 127.764C89.8849 129.09 90.8779 130.549 91.4737 131.677C91.8047 132.207 92.0033 132.738 92.1357 133.069C92.2019 133.335 92.2681 133.533 92.2681 133.533Z" fill="#FAFAFA"/>
<path d="M66.5825 161.917C66.5825 161.917 66.5163 161.851 66.4501 161.785C66.3839 161.652 66.3177 161.519 66.1853 161.254C65.9205 160.79 65.5895 160.127 65.1923 159.331C64.3317 157.607 63.1401 155.153 62.1471 151.837C61.6837 150.179 61.2865 148.322 61.2203 146.333C61.1541 145.338 61.2203 144.277 61.3527 143.216C61.4851 142.155 61.7499 141.094 62.1471 139.966C62.9415 137.844 64.1331 135.722 66.0529 134.064C67.9065 132.472 70.4221 131.345 73.1363 131.61C74.4603 131.743 75.7843 132.274 76.6449 133.335C77.5055 134.329 77.9027 135.722 77.6379 136.982C77.5055 137.579 77.1745 138.176 76.7111 138.64C76.2477 139.104 75.6519 139.369 75.1223 139.502C73.9307 139.834 72.6729 139.635 71.6799 139.104C70.6207 138.574 69.8263 137.778 69.1643 136.916C68.5023 136.054 67.9727 135.125 67.5755 134.197C66.7811 132.34 66.5825 130.417 66.7149 128.692C66.8473 126.968 67.3769 125.509 68.0389 124.315C68.7009 123.122 69.4291 122.193 70.0911 121.53C70.7531 120.867 71.3489 120.403 71.8123 120.137C72.0109 120.005 72.2095 119.938 72.2757 119.872C72.4081 119.806 72.4743 119.806 72.4743 119.806C72.4743 119.806 72.2757 119.938 71.8785 120.27C71.4813 120.535 70.8855 121 70.2235 121.663C69.5615 122.326 68.8333 123.254 68.2375 124.448C67.6417 125.642 67.1121 127.101 66.9797 128.759C66.8473 130.417 67.1121 132.34 67.9065 134.13C68.3037 135.059 68.8333 135.921 69.4953 136.717C70.1573 137.513 70.9517 138.308 71.9447 138.773C72.9377 139.303 74.0631 139.436 75.1885 139.171C76.2477 138.905 77.2407 138.043 77.5055 136.916C77.7703 135.788 77.3731 134.528 76.5787 133.6C75.7843 132.671 74.5927 132.141 73.3349 132.008C70.8193 131.743 68.3037 132.804 66.5163 134.396C64.6627 135.987 63.4711 138.043 62.7429 140.165C62.4119 141.226 62.1471 142.287 61.9485 143.349C61.8161 144.41 61.7499 145.404 61.8161 146.399C61.8823 148.389 62.2795 150.246 62.7429 151.837C63.6697 155.087 64.8613 157.607 65.6557 159.331C66.0529 160.193 66.3839 160.856 66.5825 161.32C66.7149 161.519 66.7811 161.718 66.8473 161.851C66.5163 161.851 66.5825 161.917 66.5825 161.917Z" fill="#FAFAFA"/>
<path d="M58.3737 103.359C58.3737 103.359 58.3737 103.425 58.4399 103.624C58.4399 103.823 58.5061 104.089 58.5061 104.42C58.5723 105.15 58.5723 106.144 58.5061 107.404C58.3075 109.924 57.4469 113.373 55.2623 116.623C53.0777 119.806 50.0987 121.928 47.8479 122.989C46.7225 123.52 45.7295 123.851 45.0675 124.05C44.7365 124.183 44.4717 124.183 44.2731 124.249C44.0745 124.315 44.0083 124.315 44.0083 124.315C44.0083 124.315 44.3393 124.183 45.0013 123.917C45.6633 123.719 46.5901 123.321 47.7155 122.724C49.9001 121.596 52.8129 119.541 54.9313 116.424C57.1159 113.307 57.9765 109.858 58.2413 107.404C58.3737 106.144 58.3737 105.15 58.3737 104.486C58.3737 103.757 58.3737 103.359 58.3737 103.359Z" fill="#FAFAFA"/>
<path d="M172.106 132.141C172.172 132.207 170.848 132.738 169.524 134.462C168.862 135.324 168.2 136.452 167.472 137.645C166.743 138.839 165.75 140.165 164.625 141.425C162.374 143.879 159.792 145.603 157.873 146.532C156.88 146.996 156.085 147.328 155.489 147.526C154.893 147.725 154.562 147.792 154.562 147.792C154.562 147.792 154.894 147.659 155.423 147.394C155.953 147.129 156.813 146.797 157.74 146.266C159.66 145.272 162.176 143.547 164.36 141.16C165.486 139.966 166.412 138.706 167.141 137.446C167.935 136.253 168.597 135.125 169.325 134.263C169.987 133.401 170.715 132.804 171.245 132.472C171.51 132.34 171.708 132.207 171.841 132.141C172.039 132.141 172.106 132.141 172.106 132.141Z" fill="#FAFAFA"/>
<path d="M136.357 81.7396C136.357 81.7396 136.225 81.8059 136.026 81.8059C135.762 81.8722 135.497 81.8722 135.166 81.9386C134.371 82.0712 133.312 82.2038 131.922 82.4028C129.142 82.8007 125.368 83.1986 121.131 83.5302C119.013 83.6628 117.027 83.7955 115.173 83.7291C113.32 83.6628 111.665 83.3312 110.341 82.9333C109.017 82.4691 108.024 81.8722 107.362 81.4743C107.031 81.2754 106.832 81.0764 106.634 80.8775C106.501 80.7448 106.435 80.6785 106.435 80.6785C106.435 80.6785 106.766 80.9438 107.428 81.3417C108.09 81.7396 109.083 82.2701 110.407 82.7344C111.731 83.1323 113.32 83.3975 115.173 83.4639C117.027 83.5302 119.013 83.3975 121.131 83.1986C125.368 82.867 129.142 82.4691 131.922 82.2038C133.246 82.0712 134.371 81.9386 135.166 81.8059C135.894 81.8059 136.357 81.7396 136.357 81.7396Z" fill="#263238"/>
<path d="M119.873 162.514L118.682 180.884H165.948C169.126 180.884 172.304 180.022 175.018 178.364C181.373 174.518 184.683 167.09 183.227 159.795C182.763 156.811 181.638 153.296 180.181 149.582L156.416 153.495L157.144 156.479L119.873 162.514Z" fill="#85BC91"/>
<path d="M168.133 154.954C168.133 154.954 168.001 155.02 167.67 155.087C167.339 155.153 166.875 155.219 166.28 155.352C165.022 155.551 163.301 155.816 161.182 156.214C156.879 156.877 150.921 157.872 144.367 158.867C137.814 159.862 131.922 160.79 127.553 161.453C125.434 161.785 123.713 161.984 122.455 162.183C121.859 162.249 121.396 162.315 121.065 162.382C120.734 162.448 120.602 162.448 120.602 162.448C120.602 162.448 120.734 162.382 121.065 162.315C121.396 162.249 121.859 162.183 122.455 162.05C123.713 161.851 125.434 161.586 127.553 161.188C131.856 160.525 137.814 159.53 144.367 158.535C150.921 157.54 156.813 156.612 161.182 155.949C163.301 155.617 165.022 155.418 166.28 155.219C166.875 155.153 167.339 155.087 167.67 155.02C168.001 154.954 168.133 154.954 168.133 154.954Z" fill="#263238"/>
<path d="M50.2204 42.8087C49.833 41.5853 49.6489 40.5782 49.668 39.7872C49.687 38.9961 49.9462 38.0393 50.4454 36.9168L51.7601 34.1733C52.2932 32.9143 52.373 31.7277 51.9994 30.6134C51.6396 29.5401 51.0774 28.7961 50.313 28.3815C49.5452 27.9566 48.6246 27.9241 47.5512 28.284C46.5085 28.6336 45.7628 29.1906 45.3141 29.9551C44.8654 30.7196 44.797 31.5669 45.1088 32.4972L42.2721 33.4482C41.7374 31.7853 41.8779 30.2543 42.6938 28.855C43.5164 27.442 44.8579 26.4237 46.7184 25.8C48.6504 25.1522 50.3279 25.1698 51.7508 25.8526C53.1805 26.5218 54.1987 27.7611 54.8053 29.5704C55.4051 31.3593 55.1682 33.4003 54.0948 35.6933L52.9787 37.9096C52.51 38.9878 52.5362 40.3038 53.0571 41.8576L50.2204 42.8087ZM51.7274 47.7105C51.5731 47.2505 51.5826 46.8209 51.7558 46.4217C51.9358 46.0088 52.3018 45.7099 52.8538 45.5248C53.4058 45.3398 53.878 45.3577 54.2705 45.5786C54.6595 45.7893 54.9312 46.1247 55.0854 46.5847C55.2396 47.0447 55.225 47.476 55.0416 47.8787C54.8548 48.2711 54.4854 48.5598 53.9333 48.7449C53.3813 48.9299 52.9125 48.9222 52.5269 48.7217C52.1481 48.5076 51.8816 48.1705 51.7274 47.7105Z" fill="black"/>
<path d="M175.756 58.2075C176.366 57.3475 176.935 56.7277 177.463 56.3483C177.991 55.9689 178.746 55.6646 179.729 55.4356L182.179 54.9379C183.268 54.6634 184.085 54.1277 184.63 53.3308C185.155 52.5631 185.365 51.8261 185.257 51.1196C185.155 50.4059 184.721 49.7864 183.953 49.2613C183.207 48.7511 182.473 48.5384 181.749 48.6231C181.026 48.7078 180.437 49.0828 179.981 49.7482L177.953 48.3602C178.777 47.1858 179.851 46.5193 181.172 46.3606C182.505 46.1997 183.838 46.5743 185.168 47.4846C186.55 48.4299 187.37 49.538 187.627 50.8089C187.897 52.0775 187.589 53.3588 186.704 54.6529C185.829 55.9324 184.374 56.7885 182.339 57.2211L180.334 57.5878C179.395 57.8149 178.545 58.4841 177.785 59.5954L175.756 58.2075ZM173.29 61.624C173.515 61.295 173.802 61.0883 174.149 61.004C174.509 60.9174 174.886 61.0092 175.281 61.2793C175.676 61.5493 175.898 61.8677 175.948 62.2344C176.002 62.5938 175.917 62.938 175.692 63.267C175.467 63.596 175.177 63.8001 174.822 63.8794C174.472 63.9514 174.1 63.8524 173.705 63.5823C173.311 63.3122 173.083 63.0011 173.024 62.6491C172.976 62.2947 173.065 61.953 173.29 61.624Z" fill="black"/>
<path d="M160.218 17.1099C160.513 16.1154 160.846 15.3578 161.217 14.8368C161.588 14.3159 162.194 13.7927 163.037 13.2672L165.159 12.0259C166.087 11.4244 166.677 10.6661 166.932 9.75097C167.177 8.86943 167.137 8.11678 166.813 7.49304C166.492 6.86089 165.89 6.42225 165.009 6.17712C164.152 5.93898 163.401 5.97422 162.754 6.28284C162.108 6.59146 161.678 7.12777 161.466 7.89177L159.136 7.24391C159.531 5.88849 160.318 4.9271 161.498 4.35974C162.689 3.78633 164.048 3.71207 165.576 4.13697C167.163 4.57822 168.278 5.34959 168.921 6.45108C169.575 7.54651 169.696 8.83724 169.283 10.3233C168.874 11.7925 167.791 13.0517 166.034 14.1007L164.283 15.0791C163.481 15.5887 162.903 16.4816 162.548 17.7577L160.218 17.1099ZM159.007 21.074C159.112 20.6962 159.313 20.4128 159.61 20.224C159.918 20.0291 160.298 19.9947 160.751 20.1208C161.205 20.2468 161.513 20.4727 161.675 20.7983C161.84 21.1156 161.87 21.4631 161.765 21.8409C161.66 22.2187 161.455 22.5009 161.15 22.6873C160.847 22.8655 160.469 22.8915 160.016 22.7654C159.563 22.6393 159.252 22.4219 159.085 22.113C158.928 21.7981 158.902 21.4518 159.007 21.074Z" fill="black"/>
</g>
<defs>
<filter id="filter0_d" x="-4" y="0" width="225" height="165" filterUnits="userSpaceOnUse" color-interpolation-filters="sRGB">
<feFlood flood-opacity="0" result="BackgroundImageFix"/>
<feColorMatrix in="SourceAlpha" type="matrix" values="0 0 0 0 0 0 0 0 0 0 0 0 0 0 0 0 0 0 127 0"/>
<feOffset dy="4"/>
<feGaussianBlur stdDeviation="2"/>
<feColorMatrix type="matrix" values="0 0 0 0 0 0 0 0 0 0 0 0 0 0 0 0 0 0 0.25 0"/>
<feBlend mode="normal" in2="BackgroundImageFix" result="effect1_dropShadow"/>
<feBlend mode="normal" in="SourceGraphic" in2="effect1_dropShadow" result="shape"/>
</filter>
<clipPath id="clip0">
<rect width="217" height="157" fill="white"/>
</clipPath>
</defs>
</svg>
