<svg width="193" height="175" viewBox="0 0 193 175" fill="none" xmlns="http://www.w3.org/2000/svg">
<g clip-path="url(#clip0)">
<path d="M105.114 14.9072C83.6955 11.2529 81.7166 30.5104 81.8913 36.0789C82.0077 41.5893 83.9284 46.5197 85.9072 51.6821C87.8861 56.8445 86.6057 63.9211 84.976 69.1995C83.0553 75.406 76.944 81.0905 79.0975 87.181C80.8436 91.9954 87.1877 94.3155 87.9443 99.3619C88.5846 103.364 85.3252 106.787 84.1612 110.673C81.9495 117.923 87.0713 125.232 91.9021 131.09C93.881 133.527 96.3255 136.137 99.4685 136.195C103.834 136.253 106.395 131.555 108.373 127.668C113.786 116.995 121.935 107.657 131.771 100.754" fill="#263238"/>
<path d="M91.9604 43.7935C91.9604 43.7935 91.4948 44.0835 90.6217 44.2575C89.7487 44.4316 88.5264 44.5476 87.246 44.3735C85.9073 44.1415 84.8014 43.6775 84.0448 43.2135C83.2882 42.7494 82.939 42.4014 82.939 42.3434C82.9972 42.2854 83.4046 42.6334 84.1612 43.0394C84.9179 43.4455 86.0237 43.8515 87.3042 44.0835C88.5846 44.2575 89.7487 44.1995 90.6217 44.0835C91.4366 43.9095 91.9022 43.7355 91.9604 43.7935Z" fill="#455A64"/>
<path d="M85.5 92.8654C85.5 92.8654 84.9761 92.3434 84.2777 91.2413C83.5793 90.1392 82.7644 88.4571 82.2988 86.1369C81.8332 83.8747 81.775 81.0325 82.8226 78.0742C83.2883 76.6241 84.1031 75.174 84.9761 73.7819C85.8492 72.3898 86.8968 70.9977 87.8281 69.4896C89.6906 66.5313 90.7964 63.3411 91.2038 60.3248C91.4366 58.8167 91.4948 57.3666 91.4366 56.0325C91.3784 54.6984 91.2038 53.4223 91.0292 52.3202C90.5636 50.058 89.9234 48.3179 89.3413 47.1578C89.1085 46.5777 88.8175 46.1137 88.7011 45.8237C88.5265 45.5336 88.4683 45.3596 88.4683 45.3596C88.4683 45.3596 88.5847 45.5336 88.7593 45.8237C88.9339 46.1137 89.2249 46.5197 89.4577 47.1578C90.0398 48.3179 90.7382 50.058 91.2038 52.3202C91.4366 53.4803 91.6112 54.6984 91.6694 56.0905C91.7276 57.4246 91.6694 58.9327 91.4948 60.4408C91.1456 63.4571 89.9816 66.7633 88.1191 69.7216C87.1878 71.2297 86.1402 72.6218 85.2672 74.0139C84.3941 75.406 83.5793 76.7981 83.1137 78.2482C82.1242 81.0905 82.1242 83.9327 82.5316 86.1369C82.9391 88.3991 83.7539 90.0812 84.3941 91.1833C85.0925 92.2854 85.5582 92.8074 85.5 92.8654Z" fill="#455A64"/>
<path d="M156.274 71.8098C156.274 71.8098 166.984 71.8098 174.317 87.413C179.73 98.9559 195.212 138.399 192.767 149.42C192.243 151.914 190.672 157.425 186.656 157.483C179.905 157.599 175.132 157.251 175.132 157.251L166.46 137.297L158.078 108.759C158.078 108.759 144.634 74.478 156.274 71.8098Z" fill="#85BC91"/>
<path d="M169.661 156.613L166.983 138.515L156.274 71.7517L142.946 70.7656L117.86 75.754C117.86 75.754 103.077 78.1322 95.4521 83.5266C95.4521 83.5266 97.7221 120.07 97.8385 123.898C98.1295 132.251 103.31 139.675 108.548 146.288L109.945 148.028L109.246 158.527L169.661 156.613Z" fill="#85BC91"/>
<path d="M106.976 78.3643C106.976 78.3643 96.4417 80.6264 89.632 89.3851C84.161 96.4617 58.61 127.842 58.61 127.842C58.61 127.842 45.5144 135.151 43.0699 142.691C40.6254 150.232 43.1281 156.961 48.7738 156.961C54.4194 156.961 69.1447 153.074 69.1447 153.074L97.7222 120.476L98.3624 126.102L104.881 97.6218L106.976 78.3643Z" fill="#85BC91"/>
<path d="M155.285 100.638C155.285 100.638 155.343 100.754 155.401 100.986C155.459 101.276 155.576 101.566 155.692 102.03C155.983 102.958 156.332 104.234 156.798 105.8C157.729 108.933 159.01 113.283 160.523 118.097C161.978 122.854 163.317 127.204 164.306 130.394C164.772 131.961 165.179 133.179 165.47 134.107C165.587 134.513 165.703 134.861 165.761 135.151C165.819 135.383 165.878 135.499 165.819 135.499C165.819 135.499 165.761 135.383 165.703 135.151C165.587 134.919 165.47 134.571 165.354 134.165C165.063 133.237 164.655 132.019 164.131 130.452C163.084 127.32 161.745 122.97 160.232 118.213C158.777 113.399 157.496 109.049 156.623 105.858C156.216 104.292 155.867 102.958 155.634 102.088C155.517 101.682 155.459 101.334 155.401 101.044C155.285 100.754 155.285 100.638 155.285 100.638Z" fill="#263238"/>
<path d="M145.39 136.949C145.39 136.949 145.158 137.007 144.634 137.123C144.401 137.181 144.11 137.239 143.761 137.239C143.412 137.297 143.004 137.355 142.597 137.355C141.724 137.413 140.676 137.413 139.512 137.297C138.348 137.181 137.126 136.949 135.787 136.601C134.507 136.253 133.342 135.789 132.295 135.267C131.247 134.745 130.374 134.223 129.617 133.701C129.268 133.469 128.919 133.237 128.686 133.005C128.395 132.773 128.162 132.599 127.988 132.425C127.639 132.077 127.406 131.902 127.464 131.902C127.522 131.844 128.279 132.599 129.734 133.527C130.432 133.991 131.364 134.513 132.411 134.977C133.459 135.441 134.623 135.905 135.903 136.253C137.184 136.601 138.406 136.833 139.57 136.949C140.734 137.065 141.724 137.123 142.597 137.065C144.343 137.065 145.39 136.891 145.39 136.949Z" fill="#263238"/>
<path d="M99.8755 101.856C99.8755 101.856 99.8755 101.972 99.8173 102.204C99.7591 102.436 99.7009 102.784 99.5845 103.132C99.4681 103.538 99.3517 104.002 99.2353 104.582C99.1188 105.162 98.9442 105.8 98.8278 106.554C98.5368 108.005 98.304 109.745 98.0712 111.717C97.8966 113.689 97.7802 115.835 97.7802 118.097C97.7802 120.36 97.9548 122.506 98.1876 124.478C98.4204 126.45 98.7114 128.19 99.0606 129.64C99.177 130.394 99.3517 131.032 99.5263 131.612C99.6427 132.192 99.7591 132.657 99.8755 133.063C99.9919 133.411 100.05 133.759 100.108 133.991C100.167 134.223 100.167 134.339 100.167 134.339C100.167 134.339 100.108 134.223 100.05 134.049C99.9919 133.817 99.8755 133.527 99.7591 133.121C99.6427 132.715 99.4681 132.251 99.3517 131.67C99.177 131.09 99.0024 130.452 98.886 129.698C98.5368 128.248 98.2458 126.508 97.9548 124.536C97.722 122.564 97.5474 120.418 97.5474 118.097C97.5474 115.835 97.6638 113.631 97.8966 111.659C98.1294 109.687 98.4204 107.947 98.7114 106.496C98.8278 105.742 99.0024 105.104 99.177 104.524C99.2934 103.944 99.4681 103.48 99.5845 103.074C99.7009 102.726 99.8173 102.378 99.8755 102.146C99.8173 101.914 99.8755 101.798 99.8755 101.856Z" fill="#263238"/>
<path d="M158.602 74.2459C158.602 74.3039 157.729 74.7099 156.448 75.696C155.168 76.6821 153.655 78.3062 152.665 80.5104C151.676 82.7146 151.501 84.9767 151.618 86.5429C151.734 88.109 152.025 89.0951 151.967 89.0951C151.967 89.0951 151.85 88.8631 151.734 88.457C151.618 88.051 151.443 87.3549 151.385 86.6009C151.21 84.9768 151.385 82.7146 152.374 80.3944C153.422 78.1322 154.993 76.4501 156.332 75.522C156.972 75.058 157.554 74.7099 157.962 74.5359C158.311 74.3039 158.544 74.2459 158.602 74.2459Z" fill="#263238"/>
<path d="M157.205 108.237C157.205 108.237 157.147 108.469 156.914 108.817C156.681 109.165 156.274 109.687 155.634 110.209C154.993 110.731 154.062 111.195 152.898 111.485C151.734 111.775 150.395 111.833 148.94 111.543C147.485 111.311 145.972 110.789 144.342 110.151C142.713 109.513 141.025 108.817 139.162 108.353C138.231 108.121 137.242 108.005 136.252 108.005C135.263 108.005 134.215 108.179 133.226 108.469C131.247 109.107 129.384 110.209 127.522 111.485C125.717 112.761 123.971 114.095 122.109 115.139C120.246 116.183 118.326 116.937 116.347 117.053C115.357 117.111 114.426 116.995 113.495 116.763C112.622 116.531 111.749 116.183 110.992 115.777C109.421 114.965 108.14 114.037 106.918 113.283C104.473 111.659 102.262 110.731 100.632 110.615C99.0024 110.441 98.1294 110.789 98.1294 110.731C98.1294 110.731 98.1876 110.731 98.304 110.673C98.4204 110.673 98.595 110.615 98.7696 110.557C99.177 110.499 99.8173 110.383 100.632 110.499C102.262 110.615 104.59 111.485 107.034 113.109C108.257 113.921 109.595 114.791 111.109 115.603C111.865 116.009 112.68 116.299 113.553 116.531C114.426 116.763 115.357 116.821 116.289 116.763C118.209 116.647 120.13 115.893 121.934 114.849C123.739 113.805 125.485 112.471 127.347 111.195C129.21 109.919 131.072 108.759 133.109 108.121C134.099 107.831 135.146 107.657 136.194 107.599C137.242 107.599 138.231 107.773 139.162 107.947C141.083 108.411 142.771 109.165 144.342 109.803C145.914 110.441 147.427 110.963 148.882 111.195C150.337 111.485 151.618 111.427 152.782 111.137C153.888 110.905 154.819 110.441 155.459 109.919C156.099 109.455 156.507 108.933 156.739 108.585C157.089 108.469 157.205 108.237 157.205 108.237Z" fill="#FAFAFA"/>
<path d="M179.497 99.7679C179.497 99.7679 179.439 99.8259 179.381 100C179.322 100.174 179.148 100.348 178.973 100.58C178.566 101.102 177.867 101.682 176.82 102.204C175.772 102.726 174.433 103.074 172.92 103.132C171.407 103.19 169.777 102.958 168.031 102.668C166.343 102.378 164.714 102.088 163.2 102.088C161.745 102.088 160.407 102.32 159.359 102.726C158.311 103.132 157.555 103.654 157.089 104.06C156.623 104.466 156.449 104.756 156.391 104.756C156.391 104.756 156.449 104.698 156.507 104.524C156.623 104.408 156.74 104.176 156.973 103.944C157.438 103.48 158.195 102.9 159.243 102.494C160.29 102.088 161.687 101.798 163.2 101.798C164.714 101.798 166.343 102.03 168.089 102.32C169.777 102.61 171.407 102.842 172.92 102.784C174.375 102.726 175.714 102.436 176.762 101.972C177.809 101.508 178.508 100.928 178.915 100.464C179.264 100.058 179.439 99.7679 179.497 99.7679Z" fill="#FAFAFA"/>
<path d="M184.27 114.095C184.27 114.095 184.27 114.211 184.153 114.327C184.095 114.501 183.979 114.733 183.804 114.965C183.455 115.545 182.931 116.299 182.058 117.111C181.651 117.517 181.127 117.923 180.545 118.271C179.963 118.619 179.322 118.968 178.566 119.258C177.111 119.838 175.365 120.128 173.619 119.896C171.814 119.722 170.185 119.258 168.73 118.91C167.216 118.561 165.878 118.387 164.714 118.445C163.549 118.503 162.676 118.735 162.036 118.968C161.454 119.2 161.105 119.374 161.105 119.374C161.105 119.374 161.163 119.316 161.338 119.2C161.454 119.084 161.687 118.968 161.978 118.852C162.56 118.561 163.491 118.329 164.655 118.213C165.819 118.155 167.216 118.271 168.73 118.619C170.243 118.91 171.872 119.374 173.619 119.548C175.365 119.722 177.053 119.49 178.449 118.968C179.148 118.677 179.788 118.387 180.37 118.039C180.952 117.691 181.418 117.285 181.883 116.937C182.756 116.183 183.28 115.429 183.688 114.907C184.095 114.385 184.211 114.037 184.27 114.095Z" fill="#FAFAFA"/>
<path d="M99.8174 131.845C99.8174 131.787 100.807 131.729 102.087 130.626C102.728 130.104 103.426 129.292 104.241 128.422C105.056 127.552 106.103 126.682 107.442 125.87C108.781 125.116 110.352 124.478 112.098 124.246C112.971 124.13 113.902 124.13 114.892 124.246C115.823 124.362 116.813 124.652 117.744 125.058C119.606 125.812 121.411 126.914 123.331 127.784C124.321 128.19 125.368 128.596 126.474 128.712C126.998 128.77 127.58 128.77 128.104 128.77C128.686 128.712 129.21 128.596 129.734 128.48C131.945 127.842 133.808 126.566 135.728 125.58C137.649 124.594 139.628 123.84 141.549 123.318C145.39 122.216 149.057 121.984 152.083 122.158C155.11 122.332 157.496 122.854 159.126 123.318C159.941 123.55 160.581 123.782 160.988 123.898C161.163 123.956 161.338 124.014 161.454 124.072C161.57 124.13 161.629 124.13 161.629 124.13C161.629 124.13 161.57 124.13 161.454 124.072C161.338 124.014 161.163 124.014 160.988 123.898C160.581 123.782 159.941 123.55 159.126 123.376C157.496 122.97 155.11 122.448 152.083 122.332C149.057 122.216 145.448 122.506 141.665 123.55C139.744 124.072 137.824 124.826 135.903 125.812C133.982 126.798 132.062 128.074 129.85 128.712C129.268 128.886 128.744 129.002 128.162 129.06C127.58 129.118 126.998 129.118 126.416 129.002C125.31 128.828 124.204 128.48 123.215 128.074C121.236 127.204 119.432 126.044 117.627 125.29C116.696 124.942 115.765 124.652 114.892 124.478C113.961 124.362 113.029 124.362 112.215 124.478C110.468 124.71 108.897 125.348 107.617 126.044C106.336 126.798 105.288 127.668 104.415 128.538C103.601 129.408 102.902 130.162 102.204 130.684C101.563 131.206 100.923 131.496 100.516 131.671C100.05 131.845 99.8174 131.845 99.8174 131.845Z" fill="#FAFAFA"/>
<path d="M92.7748 125.58C92.7748 125.638 92.542 125.232 91.8436 125.058C91.4944 125 91.087 125 90.5631 125.058C90.0393 125.116 89.5155 125.29 88.8752 125.348C88.235 125.406 87.4784 125.406 86.7218 125.174C85.9651 124.942 85.2667 124.536 84.5683 123.956C83.928 123.376 83.2878 122.738 82.764 121.926C82.2401 121.114 81.8327 120.244 81.4835 119.373C80.7269 117.575 80.2031 115.777 79.33 114.327C78.5152 112.819 77.4093 111.775 76.3035 111.137C75.7797 110.789 75.1976 110.615 74.732 110.499C74.2664 110.383 73.8008 110.325 73.4515 110.383C72.7531 110.441 72.3457 110.557 72.3457 110.557C72.3457 110.557 72.4621 110.499 72.6367 110.441C72.8113 110.383 73.1023 110.325 73.4515 110.267C73.8008 110.209 74.2664 110.267 74.7902 110.325C75.314 110.441 75.8379 110.673 76.4199 110.963C77.5257 111.601 78.748 112.703 79.5628 114.211C80.4359 115.719 81.0179 117.517 81.7163 119.315C82.0655 120.244 82.473 121.056 82.9968 121.868C83.5206 122.622 84.0444 123.318 84.6847 123.84C85.3249 124.362 86.0233 124.768 86.7218 125.058C87.4202 125.29 88.1186 125.348 88.7588 125.29C89.9811 125.116 91.087 124.884 91.7854 125.058C92.1346 125.116 92.3674 125.29 92.542 125.464C92.7748 125.522 92.7748 125.58 92.7748 125.58Z" fill="#FAFAFA"/>
<path d="M98.3041 108.527C98.3041 108.527 98.2459 108.585 98.1295 108.643C98.013 108.701 97.7802 108.759 97.5474 108.817C97.0236 108.933 96.2088 108.933 95.3357 108.643C94.4045 108.353 93.415 107.831 92.4838 106.961C91.5525 106.148 90.7377 105.046 89.8647 103.886C88.9916 102.784 88.1768 101.682 87.1874 100.928C86.2561 100.174 85.2085 99.71 84.3354 99.4779C83.4624 99.3039 82.6475 99.3619 82.1819 99.4779C81.6581 99.594 81.4253 99.768 81.4253 99.71C81.4253 99.71 81.4835 99.652 81.5999 99.594C81.7163 99.5359 81.8909 99.4199 82.1819 99.3619C82.7058 99.1879 83.4624 99.0719 84.3936 99.2459C85.3249 99.4199 86.3725 99.884 87.362 100.696C88.3514 101.45 89.2245 102.552 90.0975 103.712C90.9705 104.872 91.7854 105.916 92.6584 106.729C93.5314 107.541 94.5209 108.121 95.3939 108.411C96.267 108.701 97.0236 108.759 97.5474 108.701C98.0713 108.585 98.3041 108.469 98.3041 108.527Z" fill="#FAFAFA"/>
<path d="M125.718 24.1879C118.908 8.99072 99.0609 17.9814 99.0609 17.9814C89.6903 21.4037 88.3517 31.9026 90.5052 39.0951C92.8915 47.0418 96.1508 56.6705 99.2356 62.123C105.463 73.0858 114.95 71.2877 114.95 71.2877L118.151 79.1183C120.945 85.9629 128.802 89.2111 135.612 86.3689C142.247 83.5847 145.448 76.1021 142.888 69.4315L125.718 24.1879Z" fill="#FFBE9D"/>
<path d="M96.0345 46.8678C96.3256 47.6798 97.1986 48.0859 98.0716 47.8538C98.8865 47.5638 99.4103 46.7517 99.1193 45.9397C98.8283 45.1276 97.9552 44.7216 97.0822 44.9536C96.2674 45.1856 95.8017 46.0557 96.0345 46.8678Z" fill="#263238"/>
<path d="M94.6378 44.8376C94.8706 44.9536 95.7436 43.6775 97.3151 43.0975C98.9447 42.4594 100.4 42.8654 100.516 42.6334C100.574 42.5174 100.225 42.2274 99.585 42.0534C98.9447 41.8794 97.9553 41.8214 96.9077 42.2274C95.9182 42.6334 95.2198 43.2715 94.8706 43.8515C94.5795 44.3736 94.5213 44.8376 94.6378 44.8376Z" fill="#263238"/>
<path d="M111.167 42.0534C111.458 42.8654 112.331 43.2715 113.204 43.0394C114.019 42.7494 114.543 41.9374 114.252 41.1253C113.961 40.3132 113.088 39.9072 112.215 40.1392C111.4 40.3712 110.876 41.2413 111.167 42.0534Z" fill="#263238"/>
<path d="M110.527 38.9791C110.76 39.0951 111.633 37.819 113.204 37.2389C114.834 36.6009 116.289 37.0069 116.405 36.7749C116.464 36.6589 116.114 36.3689 115.474 36.1949C114.834 36.0209 113.844 35.9628 112.797 36.3689C111.807 36.7749 111.109 37.413 110.76 37.993C110.469 38.515 110.411 38.9211 110.527 38.9791Z" fill="#263238"/>
<path d="M109.537 53.1323C109.537 53.0163 108.432 53.2483 106.744 53.6543C106.336 53.7703 105.871 53.8283 105.696 53.5963C105.463 53.3063 105.521 52.8422 105.521 52.2622C105.521 51.1021 105.58 49.942 105.58 48.6659C105.638 43.5615 105.463 39.4432 105.289 39.4432C105.056 39.4432 104.881 43.5615 104.881 48.6659C104.881 49.942 104.881 51.1021 104.881 52.2622C104.881 52.7842 104.823 53.4223 105.289 53.9443C105.521 54.2344 105.929 54.3504 106.22 54.2924C106.511 54.2924 106.744 54.1764 106.977 54.1183C108.548 53.5963 109.537 53.2483 109.537 53.1323Z" fill="#263238"/>
<path d="M115.008 71.2877C115.008 71.2877 123.098 68.9095 129.152 61.3109C129.152 61.3109 128.22 70.7657 116.114 74.0139L115.008 71.2877Z" fill="#EB996E"/>
<path d="M112.273 58.4107C111.807 58.0626 111.574 57.3666 111.749 56.7865C111.923 56.2065 112.447 55.7424 113.088 55.6844C112.797 55.1624 113.029 54.4663 113.495 54.0603C113.961 53.6543 114.601 53.5963 115.183 53.7703C116.289 54.0603 117.104 55.2204 117.045 56.3225C116.987 57.4826 116.172 58.5267 115.066 58.8747C113.961 59.2227 112.68 58.8747 111.865 58.0626" fill="#EB996E"/>
<path d="M114.659 52.4942C114.368 52.5522 115.066 54.3504 114.019 56.1485C112.971 57.9467 111.051 58.4687 111.109 58.7007C111.109 58.8167 111.633 58.8747 112.447 58.6427C113.204 58.4107 114.252 57.7147 114.892 56.6126C115.532 55.5105 115.532 54.3504 115.358 53.5963C115.183 52.7843 114.775 52.4362 114.659 52.4942Z" fill="#263238"/>
<path d="M108.082 36.7169C108.431 37.123 109.945 36.3109 111.923 35.8469C113.902 35.3248 115.648 35.3248 115.707 34.8608C115.765 34.6288 115.357 34.3388 114.543 34.1067C113.786 33.9327 112.622 33.8747 111.458 34.1647C110.294 34.4548 109.304 35.0348 108.722 35.5569C108.14 36.0209 107.907 36.4849 108.082 36.7169Z" fill="#263238"/>
<path d="M92.4257 39.7911C92.8331 40.0232 93.8226 39.2691 95.1612 38.7471C96.4999 38.167 97.7222 38.051 97.8386 37.587C97.8968 37.355 97.5476 37.0649 96.9655 36.8909C96.3253 36.7169 95.4523 36.7749 94.521 37.1229C93.5898 37.471 92.9496 38.109 92.6003 38.6891C92.2511 39.2111 92.2511 39.6171 92.4257 39.7911Z" fill="#263238"/>
<path d="M117.453 43.0974C117.453 43.3295 117.278 43.4455 117.104 43.4455C116.929 43.4455 116.754 43.2714 116.754 43.0974C116.754 42.9234 116.929 42.7494 117.104 42.7494C117.278 42.6914 117.453 42.8654 117.453 43.0974Z" fill="#263238"/>
<path d="M156.274 71.8097C156.274 71.8097 155.11 59.4548 145.507 50.9281C135.903 42.4014 148.882 39.0951 140.559 27.8422C137.824 24.1299 134.739 20.7657 130.839 18.3295C130.141 17.9234 129.501 17.4014 128.861 16.8794C127.231 15.4292 125.834 13.8051 124.03 12.529C122.691 11.6009 121.12 10.9049 119.49 10.9049C118.5 10.4988 117.511 10.2088 116.463 10.0348C111.807 9.33875 107.151 11.1949 102.844 13.051C98.6534 14.8492 87.3039 14.3852 90.9125 25.9281C91.6691 24.0139 94.521 22.4478 96.8491 24.3039C98.4206 25.6381 99.2354 26.7981 99.6428 28.8283C100.167 31.4965 100.923 34.5128 104.183 35.2088C104.997 35.3828 105.812 35.3248 106.627 35.1508C109.363 34.5128 111.516 30.4524 116.754 31.4385C116.754 31.4385 121.818 33.0046 122.109 36.1949C122.4 39.3852 120.654 45.2436 123.739 48.0858C126.882 50.8701 127.405 50.8121 127.289 53.2483C127.289 53.8283 127.289 54.1763 127.231 54.4664C126.823 58.2947 126.183 75 143.237 72.1578L148.999 71.8097H156.274Z" fill="#263238"/>
<path d="M120.421 12.529C121.178 9.04874 122.866 5.68447 125.485 3.24827C128.104 0.812078 131.829 -0.464024 135.379 0.116023C138.93 0.696069 142.131 3.36428 142.946 6.84456C143.761 10.3248 141.898 14.3852 138.522 15.6033C135.961 16.5313 133.168 15.9513 130.432 15.8933C127.697 15.8353 124.554 16.7053 123.564 19.2576" fill="#263238"/>
<path d="M131.305 15.0232C131.247 14.3272 130.607 13.7471 129.967 13.5151C129.326 13.2251 128.57 13.1671 127.929 12.9351C126.94 12.6451 126.009 12.065 125.31 11.3109C124.728 10.6729 124.321 9.91883 123.739 9.28078C123.157 8.64273 122.4 8.06268 121.527 8.06268C120.829 8.06268 120.189 8.41071 119.781 9.04876C119.432 9.62881 119.374 10.3829 119.723 11.0209C121.935 12.8191 124.146 14.7332 126.591 16.0673C127.464 16.5314 128.395 16.9954 129.385 16.9374C130.374 16.8214 131.363 16.0093 131.305 15.0232Z" fill="#85BC91"/>
<path d="M162.909 73.6659C162.909 73.6659 162.909 73.4919 162.967 73.2018C163.025 72.9118 163.025 72.4478 163.084 71.8097C163.142 70.5916 163.084 68.8515 162.56 66.8213C162.036 64.7912 160.988 62.355 159.184 60.2088C157.38 58.0046 154.761 56.2645 152.025 54.5243C149.231 52.7842 146.612 51.0441 144.633 48.8979C143.644 47.8538 142.887 46.6937 142.364 45.5336C141.84 44.3735 141.549 43.2134 141.432 42.1113C141.258 39.9652 141.84 38.167 142.48 37.181C142.829 36.6589 143.12 36.3109 143.353 36.0789C143.586 35.8468 143.702 35.7308 143.702 35.7308C143.76 35.7888 143.178 36.1949 142.596 37.181C142.014 38.225 141.432 39.9072 141.665 42.0533C141.781 43.0974 142.014 44.2575 142.596 45.3596C143.12 46.4617 143.935 47.5638 144.866 48.6079C146.787 50.696 149.406 52.3782 152.2 54.1183C154.993 55.8584 157.613 57.6566 159.417 59.8608C161.279 62.0649 162.269 64.5011 162.793 66.5893C163.316 68.6775 163.316 70.4756 163.258 71.6357C163.2 72.2158 163.142 72.6798 163.084 73.0278C162.909 73.5499 162.909 73.6659 162.909 73.6659Z" fill="#263238"/>
<path d="M126.009 15.5452C126.009 15.5452 125.95 15.7192 125.834 16.0093C125.718 16.2993 125.485 16.7053 125.194 17.2274C124.612 18.2714 123.622 19.7216 122.167 21.2877C120.712 22.8538 118.792 24.5939 116.347 26.0441C115.125 26.7401 113.786 27.4362 112.331 27.9002C110.876 28.3642 109.246 28.6543 107.558 28.3643C106.744 28.1902 105.987 27.9002 105.289 27.3782C104.648 26.9141 104.066 26.3341 103.601 25.696C102.669 24.4199 102.087 23.0858 101.389 21.8677C101.04 21.2297 100.691 20.6496 100.283 20.1276C99.8757 19.6056 99.4101 19.1415 98.9445 18.7355C97.955 17.9814 96.9074 17.5174 95.8597 17.2274C93.8226 16.7053 92.0183 16.9953 90.9125 17.3434C89.8066 17.7494 89.2246 18.1554 89.2246 18.0974C89.2246 18.0974 89.341 17.9814 89.632 17.8074C89.7484 17.6914 89.923 17.6334 90.1558 17.5174C90.3887 17.4014 90.6215 17.2854 90.9125 17.2274C92.0183 16.8213 93.8226 16.4733 95.9179 16.9953C96.9656 17.2854 98.0714 17.7494 99.0609 18.5035C99.5265 18.9095 100.05 19.3735 100.458 19.8956C100.865 20.4176 101.214 20.9977 101.564 21.6357C102.262 22.8538 102.844 24.2459 103.775 25.464C104.241 26.0441 104.765 26.6241 105.405 27.0881C106.045 27.5522 106.744 27.8422 107.558 28.0162C109.13 28.3062 110.701 28.0162 112.156 27.6102C113.612 27.1462 114.892 26.4501 116.114 25.754C118.559 24.3619 120.479 22.6798 121.876 21.1137C123.331 19.5475 124.321 18.1554 124.961 17.1114C125.252 16.5893 125.485 16.1833 125.659 15.9513C125.95 15.7192 126.009 15.5452 126.009 15.5452Z" fill="#455A64"/>
<path d="M127.697 16.7053C127.697 16.7053 127.755 16.9953 127.813 17.5174C127.813 17.8074 127.813 18.0974 127.871 18.4455C127.871 18.7935 127.871 19.2575 127.755 19.7216C127.58 21.5777 126.707 24.1879 124.845 26.3921C123.914 27.4942 122.866 28.4223 121.818 29.0603C120.771 29.6984 119.723 30.1624 118.85 30.5104C117.977 30.8585 117.278 31.1485 116.813 31.3805C116.347 31.6125 116.056 31.7285 116.056 31.7285C116.056 31.7285 116.289 31.5545 116.755 31.2645C117.22 31.0325 117.919 30.6844 118.733 30.2784C119.607 29.8724 120.596 29.4663 121.644 28.7703C122.691 28.1322 123.681 27.2622 124.612 26.1601C126.416 23.9559 127.289 21.4617 127.522 19.6636C127.871 17.8654 127.638 16.7053 127.697 16.7053Z" fill="#455A64"/>
<path d="M146.787 70.7656C146.787 70.7656 146.787 70.5916 146.787 70.3016C146.787 69.9536 146.845 69.4895 146.787 68.9095C146.787 67.6914 146.613 65.8933 146.03 63.8051C145.739 62.761 145.332 61.6589 144.75 60.4988C144.168 59.3387 143.47 58.1786 142.597 57.0185C141.724 55.8585 140.676 54.8144 139.454 53.8283C138.231 52.8422 136.834 51.9721 135.554 50.9281C134.914 50.406 134.274 49.826 133.75 49.1879C133.226 48.5499 132.76 47.8538 132.469 47.1578C131.829 45.7076 131.538 44.1415 131.363 42.7494C131.189 41.2993 131.131 39.9072 131.014 38.6311C130.898 37.355 130.665 36.1949 130.316 35.1508C129.676 33.0626 128.57 31.6125 127.638 30.8585C126.649 30.1044 126.009 29.9304 126.009 29.8724C126.009 29.8724 126.183 29.9304 126.474 30.0464C126.765 30.1624 127.231 30.3944 127.697 30.7424C128.686 31.4965 129.85 32.9466 130.49 35.0928C130.84 36.1369 131.072 37.355 131.189 38.6311C131.305 39.9072 131.422 41.2993 131.596 42.6914C131.771 44.1415 132.062 45.5916 132.702 47.0417C133.342 48.4919 134.448 49.71 135.729 50.754C137.009 51.7981 138.406 52.6682 139.628 53.6543C140.85 54.6404 141.956 55.7424 142.829 56.9025C143.702 58.0626 144.401 59.2807 144.983 60.4408C145.507 61.6009 145.914 62.761 146.205 63.8051C146.787 65.9513 146.845 67.7494 146.845 68.9675C146.845 69.6056 146.787 70.0696 146.787 70.3596C146.845 70.5916 146.787 70.7656 146.787 70.7656Z" fill="#455A64"/>
<path d="M142.364 4.8144C142.306 4.87241 141.432 4.06034 139.57 3.65431C137.766 3.19027 135.03 3.24828 132.527 4.58238C130.025 5.91649 128.337 8.06266 127.406 9.62879C126.94 10.4409 126.591 11.0789 126.358 11.5429C126.125 12.007 126.009 12.297 126.009 12.297C126.009 12.297 126.067 12.007 126.3 11.5429C126.474 11.0789 126.824 10.3828 127.289 9.51278C128.22 7.88865 129.908 5.74248 132.469 4.35036C135.088 2.95825 137.882 2.95825 139.686 3.48029C140.618 3.71231 141.316 4.06034 141.724 4.35036C141.956 4.46637 142.131 4.64039 142.247 4.69839C142.306 4.7564 142.364 4.8144 142.364 4.8144Z" fill="#455A64"/>
<path d="M141.374 11.949C141.316 12.007 140.676 11.4849 139.512 11.0209C138.348 10.4988 136.544 10.0348 134.565 10.1508C132.586 10.2668 130.84 10.9049 129.734 11.5429C128.57 12.181 127.988 12.761 127.988 12.703C127.988 12.703 128.104 12.529 128.395 12.297C128.686 12.065 129.094 11.7169 129.676 11.3689C130.782 10.6729 132.528 9.91879 134.565 9.80278C136.602 9.68677 138.406 10.2088 139.628 10.7889C140.21 11.0789 140.676 11.3689 140.967 11.5429C141.258 11.7749 141.433 11.891 141.374 11.949Z" fill="#455A64"/>
<path d="M103.543 175L52.0332 170.65L96.3836 157.773L142.946 157.831L103.543 175Z" fill="white"/>
<path d="M103.543 175C103.543 175 103.776 174.884 104.241 174.652C104.707 174.42 105.405 174.13 106.336 173.724C108.199 172.912 110.876 171.752 114.31 170.244C121.178 167.227 131.014 162.935 142.888 157.715L142.946 157.947C129.559 157.947 113.554 157.889 96.3256 157.889H96.3838C95.1616 158.237 93.7647 158.643 92.426 159.049C77.8172 163.283 64.0231 167.285 52.0334 170.766V170.476C67.3407 171.81 80.2035 172.912 89.2831 173.666C93.8229 174.072 97.3733 174.362 99.8178 174.594C101.04 174.71 101.971 174.768 102.612 174.826C102.903 174.884 103.135 174.884 103.31 174.884C103.485 175 103.543 175 103.543 175C103.543 175 103.485 175 103.31 175C103.135 175 102.903 175 102.612 174.942C101.971 174.884 101.04 174.826 99.8178 174.71C97.3733 174.536 93.8229 174.246 89.2831 173.84C80.2035 173.086 67.3407 172.042 52.0334 170.766L51.335 170.708L52.0334 170.476C64.0231 166.995 77.8172 162.993 92.3678 158.701C93.7065 158.295 95.0452 157.889 96.3256 157.541C113.554 157.599 129.501 157.599 142.946 157.657H143.528L142.946 157.889C131.014 163.051 121.178 167.343 114.31 170.302C110.876 171.81 108.199 172.97 106.336 173.724C105.405 174.13 104.707 174.42 104.241 174.594C103.776 174.942 103.543 175 103.543 175Z" fill="#263238"/>
<path d="M52.0334 170.65L2.50293 167.053L49.7635 158.121H94.5213L52.0334 170.65Z" fill="#E0E0E0"/>
<path d="M52.0332 170.65C52.0332 170.65 52.3242 170.534 52.7898 170.418C53.3136 170.244 54.0703 170.012 55.0597 169.722C57.0386 169.142 59.9487 168.271 63.6737 167.169C71.1237 164.965 81.7165 161.833 94.4629 158.005L94.5211 158.237C81.5419 158.237 66.2346 158.237 49.7633 158.237C48.4246 158.469 46.9696 158.759 45.5145 159.049C29.9162 162.007 15.1909 164.733 2.50273 167.111V166.821C17.2862 167.923 29.6834 168.851 38.3556 169.49C42.7208 169.838 46.0965 170.07 48.4828 170.244C49.6469 170.36 50.5199 170.418 51.1601 170.476C51.4512 170.476 51.684 170.534 51.8586 170.534C51.975 170.65 52.0332 170.65 52.0332 170.65C52.0332 170.65 51.975 170.65 51.8004 170.65C51.6258 170.65 51.393 170.65 51.1019 170.592C50.4617 170.534 49.5887 170.476 48.4246 170.418C46.0965 170.244 42.6626 170.012 38.3556 169.722C29.6834 169.083 17.2862 168.213 2.50273 167.111L1.45508 167.053L2.44452 166.879C15.0745 164.501 29.7998 161.717 45.4563 158.759C46.9114 158.469 48.3664 158.237 49.7051 157.947C66.1764 157.947 81.5419 157.947 94.4629 157.947H95.336L94.4629 158.179C81.6583 161.949 71.0072 165.081 63.6155 167.227C59.8905 168.329 56.9804 169.142 55.0015 169.722C54.0121 170.012 53.2554 170.244 52.7316 170.36C52.3242 170.592 52.0332 170.65 52.0332 170.65Z" fill="#263238"/>
<path d="M52.033 170.65C52.033 170.65 50.8689 159.919 41.9639 160.789C33.0589 161.659 21.1856 167.633 11.4657 167.633L0.989258 166.821L23.2809 162.239C23.2809 162.239 78.6316 150.58 78.6316 150.928C78.6316 151.276 97.2564 146.81 96.558 157.831L52.033 170.65Z" fill="white"/>
<path d="M52.0332 170.651C52.0332 170.651 52.3242 170.535 52.848 170.419C53.3718 170.245 54.1867 170.013 55.2343 169.723C57.3296 169.143 60.3562 168.215 64.2557 167.113C71.9967 164.851 83.1134 161.66 96.5582 157.774L96.4418 157.89C96.5 156.904 96.4418 155.86 96.0344 154.932C95.6852 154.004 95.0449 153.134 94.2301 152.496C92.5422 151.22 90.3305 150.756 88.177 150.582C85.9653 150.408 83.7536 150.524 81.4837 150.814C80.9017 150.872 80.3197 150.93 79.7958 151.046C79.5048 151.104 79.2138 151.104 78.9228 151.162C78.8646 151.162 78.8064 151.162 78.69 151.162H78.6318C78.6318 151.162 78.5736 151.104 78.5154 151.104C78.5154 151.046 78.4572 151.046 78.5154 151.104C78.5736 151.162 78.5736 151.162 78.5736 151.162H78.4572L78.0498 151.22C76.8857 151.394 75.7217 151.626 74.5576 151.858C65.2452 153.714 55.4089 155.744 45.1653 157.89C37.2497 159.514 29.5087 161.138 22.117 162.705C14.7253 164.213 7.62455 165.663 0.989445 167.055V166.765C4.59801 167.055 8.09017 167.345 11.4659 167.577C15.0163 167.519 18.3338 166.881 21.4768 166.069C24.6197 165.257 27.5299 164.329 30.2654 163.517C33.0009 162.705 35.62 161.951 38.0645 161.428C39.2868 161.196 40.4508 160.964 41.6149 160.848C42.7207 160.732 43.8848 160.732 44.8742 160.964C46.9113 161.37 48.4828 162.647 49.4141 163.923C50.4035 165.199 50.9273 166.475 51.3347 167.519C51.684 168.563 51.8586 169.375 51.975 169.955C52.0332 170.361 52.0332 170.651 52.0332 170.651C52.0332 170.651 52.0332 170.593 51.975 170.419C51.975 170.303 51.9168 170.071 51.8586 169.781C51.7422 169.201 51.5676 168.389 51.1601 167.403C50.7527 166.359 50.2289 165.141 49.2394 163.865C48.25 162.647 46.7367 161.428 44.7578 161.022C43.7684 160.79 42.6625 160.79 41.5567 160.964C40.4508 161.08 39.2286 161.312 38.0645 161.544C35.62 162.067 33.0591 162.821 30.3236 163.691C27.5881 164.503 24.6779 165.431 21.535 166.301C18.392 167.113 15.0163 167.809 11.4659 167.867C8.14837 167.635 4.65621 167.345 0.989445 167.055L0 166.939L0.931242 166.765C7.56634 165.373 14.6671 163.923 22.0588 162.415C29.4505 160.848 37.1915 159.224 45.1071 157.6C55.3507 155.454 65.187 153.424 74.4994 151.626C75.6635 151.394 76.8275 151.162 77.9916 150.988C79.1556 150.988 80.2615 150.756 81.4255 150.64C83.6954 150.408 85.9653 150.234 88.177 150.466C90.3887 150.64 92.6004 151.104 94.3465 152.438C95.2195 153.076 95.8598 153.946 96.2672 154.99C96.6746 155.976 96.7328 157.02 96.6746 158.064V158.18H96.6164C83.1716 162.009 71.9967 165.199 64.1975 167.403C60.298 168.505 57.2714 169.375 55.1761 169.955C54.1285 170.245 53.3718 170.477 52.7898 170.593C52.3242 170.593 52.0332 170.651 52.0332 170.651Z" fill="#263238"/>
<path d="M102.437 171.404C101.505 171.404 68.3882 168.793 68.3882 168.793L102.437 171.404Z" fill="white"/>
<path d="M68.3882 168.853C68.3882 168.853 68.5046 168.853 68.7374 168.853C68.9702 168.853 69.3194 168.853 69.7268 168.911C70.6581 168.969 71.8803 169.027 73.3936 169.143C76.5366 169.375 80.7271 169.665 85.4416 170.013C90.0978 170.361 94.3466 170.709 97.4895 170.999C99.0028 171.115 100.225 171.231 101.156 171.347C101.564 171.405 101.913 171.405 102.146 171.463C102.379 171.463 102.495 171.521 102.495 171.521C102.495 171.521 102.379 171.521 102.146 171.521C101.913 171.521 101.564 171.521 101.156 171.463C100.283 171.405 99.0028 171.347 97.4895 171.231C94.3466 170.999 90.156 170.709 85.4416 170.361C80.7854 170.013 76.5366 169.665 73.3936 169.375C71.8803 169.259 70.6581 169.143 69.7268 169.027C69.3194 168.969 68.9702 168.969 68.7374 168.911C68.5046 168.853 68.3882 168.853 68.3882 168.853Z" fill="#263238"/>
<path d="M107.908 169.2C106.977 169.2 73.8594 166.589 73.8594 166.589L107.908 169.2Z" fill="white"/>
<path d="M73.8594 166.589C73.8594 166.589 73.9758 166.589 74.2086 166.589C74.4414 166.589 74.7906 166.589 75.198 166.647C76.1293 166.705 77.3515 166.763 78.8648 166.879C82.0077 167.111 86.1983 167.401 90.9128 167.749C95.569 168.097 99.8178 168.446 102.961 168.736C104.474 168.852 105.696 168.968 106.627 169.084C107.035 169.142 107.384 169.142 107.617 169.2C107.85 169.2 107.966 169.258 107.966 169.258C107.966 169.258 107.85 169.258 107.617 169.258C107.384 169.258 107.035 169.258 106.627 169.2C105.754 169.142 104.474 169.084 102.961 168.968C99.8178 168.736 95.6272 168.445 90.9128 168.097C86.2565 167.749 82.0077 167.401 78.8648 167.111C77.3515 166.995 76.1293 166.879 75.198 166.763C74.7906 166.705 74.4414 166.705 74.2086 166.647C73.9758 166.647 73.8594 166.589 73.8594 166.589Z" fill="#263238"/>
<path d="M116.639 166.589C115.708 166.589 81.019 164.501 81.019 164.501L116.639 166.589Z" fill="white"/>
<path d="M80.96 164.501C80.96 164.501 81.0764 164.501 81.3092 164.501C81.6002 164.501 81.9494 164.501 82.3568 164.559C83.2881 164.617 84.5685 164.675 86.1982 164.733C89.4575 164.907 93.8809 165.139 98.77 165.429C103.659 165.719 108.082 166.009 111.342 166.183C112.913 166.299 114.194 166.357 115.183 166.473C115.591 166.531 115.94 166.531 116.231 166.589C116.464 166.589 116.58 166.647 116.58 166.647C116.58 166.647 116.464 166.647 116.231 166.647C115.94 166.647 115.591 166.647 115.183 166.589C114.252 166.531 112.971 166.473 111.342 166.415C108.082 166.241 103.659 166.009 98.77 165.719C93.8809 165.429 89.4575 165.139 86.1982 164.965C84.6267 164.849 83.3463 164.791 82.3568 164.675C81.9494 164.617 81.6002 164.617 81.3092 164.559C81.1346 164.559 80.96 164.559 80.96 164.501Z" fill="#263238"/>
<path d="M124.088 163.747C123.157 163.747 88.1187 162.471 88.1187 162.471L124.088 163.747Z" fill="white"/>
<path d="M88.1187 162.471C88.1187 162.471 88.2351 162.471 88.4679 162.471C88.7589 162.471 89.1081 162.471 89.5155 162.471C90.4468 162.471 91.7854 162.529 93.3569 162.587C96.6744 162.703 101.156 162.819 106.103 162.993C111.051 163.167 115.532 163.341 118.85 163.515C120.421 163.573 121.76 163.631 122.691 163.689C123.098 163.689 123.448 163.747 123.739 163.747C123.971 163.747 124.088 163.805 124.088 163.805C124.088 163.805 123.971 163.805 123.739 163.805C123.448 163.805 123.098 163.805 122.691 163.805C121.76 163.805 120.421 163.747 118.85 163.689C115.532 163.573 111.051 163.457 106.103 163.283C101.156 163.109 96.6744 162.935 93.3569 162.761C91.7854 162.703 90.4468 162.645 89.5155 162.587C89.1081 162.587 88.7589 162.529 88.4679 162.529C88.2351 162.471 88.1187 162.471 88.1187 162.471Z" fill="#263238"/>
<path d="M130.723 160.558C129.792 160.558 95.2197 160.442 95.2197 160.442L130.723 160.558Z" fill="white"/>
<path d="M95.2197 160.383C95.2197 160.325 103.193 160.267 112.972 160.325C122.808 160.383 130.723 160.441 130.723 160.557C130.723 160.615 122.75 160.673 112.972 160.615C103.135 160.557 95.2197 160.499 95.2197 160.383Z" fill="#263238"/>
<path d="M43.7686 158.121C43.7686 158.121 44.0014 158.005 44.467 157.889C44.9326 157.773 45.5728 157.657 46.4459 157.657C48.1338 157.599 50.5201 158.005 52.7318 159.397C54.9435 160.789 56.2821 162.761 56.9806 164.327C57.3298 165.081 57.5044 165.719 57.6208 166.183C57.7372 166.647 57.7372 166.879 57.7372 166.879C57.679 166.879 57.5044 165.835 56.806 164.385C56.1075 162.935 54.7107 160.963 52.6154 159.629C50.4619 158.295 48.1338 157.889 46.5041 157.831C44.8162 157.889 43.7686 158.237 43.7686 158.121Z" fill="#263238"/>
<path d="M49.2393 156.729C49.2393 156.729 49.4721 156.612 49.9377 156.496C50.4033 156.38 51.0435 156.264 51.9166 156.264C53.6045 156.206 55.9908 156.612 58.2025 158.005C60.4142 159.397 61.7528 161.369 62.4513 162.935C62.8005 163.689 62.9751 164.327 63.0915 164.791C63.2079 165.255 63.2079 165.487 63.2079 165.487C63.1497 165.487 62.9751 164.443 62.2767 162.993C61.5782 161.543 60.1814 159.571 58.0861 158.237C55.9326 156.903 53.6045 156.497 51.9748 156.438C50.2287 156.497 49.2393 156.787 49.2393 156.729Z" fill="#263238"/>
<path d="M54.8853 155.684C54.8853 155.684 55.1181 155.568 55.5837 155.452C56.0493 155.336 56.6895 155.22 57.5044 155.162C58.3192 155.104 59.3087 155.104 60.4145 155.278C61.5204 155.452 62.6844 155.916 63.7321 156.612C65.8856 158.005 67.2242 159.977 67.8644 161.485C68.2137 162.239 68.3883 162.877 68.5047 163.341C68.6211 163.805 68.6211 164.037 68.6211 164.037C68.5629 164.037 68.3883 163.051 67.6898 161.543C66.9914 160.093 65.6527 158.179 63.5575 156.845C61.4622 155.452 59.134 155.278 57.5044 155.336C55.8747 155.51 54.8853 155.742 54.8853 155.684Z" fill="#263238"/>
<path d="M60.8799 154.466C60.8799 154.466 61.1127 154.35 61.5201 154.234C61.9275 154.118 62.5678 154.002 63.3826 153.886C64.1974 153.77 65.1287 153.77 66.1763 153.944C67.224 154.118 68.3298 154.64 69.3193 155.336C71.3564 156.729 72.6368 158.643 73.2771 160.151C73.5681 160.905 73.8009 161.485 73.8591 161.949C73.9755 162.413 73.9755 162.645 73.9755 162.645C73.9173 162.645 73.7427 161.659 73.1024 160.267C72.4622 158.875 71.1818 157.019 69.2029 155.626C68.2134 154.93 67.1658 154.466 66.1763 154.292C65.1869 154.06 64.1974 154.06 63.4408 154.118C61.8693 154.292 60.8799 154.524 60.8799 154.466Z" fill="#263238"/>
<path d="M67.0493 153.538C67.0493 153.538 67.2821 153.422 67.6895 153.306C68.097 153.19 68.679 153.016 69.4356 152.842C70.1923 152.668 71.1235 152.552 72.1129 152.726C73.1606 152.9 74.15 153.422 75.0813 154.118C77.002 155.51 78.166 157.367 78.7481 158.759C79.0391 159.455 79.2137 160.093 79.2719 160.499C79.3301 160.905 79.3883 161.137 79.3883 161.137C79.3301 161.137 79.1555 160.209 78.5734 158.817C77.9332 157.483 76.7692 155.684 74.9067 154.292C73.9754 153.596 72.986 153.074 72.0547 152.9C71.0653 152.726 70.1923 152.784 69.4356 152.958C67.9806 153.306 67.0493 153.538 67.0493 153.538Z" fill="#263238"/>
<path d="M64.2559 137.181C65.8273 137.471 67.3988 137.065 69.0285 136.949C70.5999 136.891 72.4042 137.297 73.2773 138.631C73.9175 139.675 73.8011 141.009 73.2773 142.053C72.7534 143.155 71.9386 144.026 71.1238 144.896" fill="#FFBE9D"/>
<path d="M75.3723 149.362L50.6944 117.807C50.5198 117.575 50.1705 117.517 49.8795 117.691L47.8424 119.258C47.6096 119.432 47.5514 119.78 47.726 120.07L72.404 151.624C72.5786 151.856 72.9278 151.914 73.2188 151.74L75.2559 150.174C75.5469 149.942 75.6051 149.594 75.3723 149.362Z" fill="#263238"/>
<path d="M50.1124 118.562L48.2499 116.183C48.1917 116.067 48.0171 116.067 47.9007 116.125L46.9695 116.821C46.8531 116.879 46.8531 117.053 46.9113 117.169L48.7738 119.548C48.832 119.664 49.0066 119.664 49.123 119.606L50.0542 118.91C50.1706 118.794 50.2288 118.678 50.1124 118.562Z" fill="#263238"/>
<path d="M71.9385 150.87L76.0127 153.944L76.4201 153.654L75.1978 149.362L71.9385 150.87Z" fill="#263238"/>
<path d="M56.2238 132.425C56.1656 132.425 56.1656 132.425 56.2238 132.425L48.3082 122.448C47.377 121.23 47.4352 119.606 48.4828 118.794L48.8321 118.504C48.8903 118.504 48.8903 118.504 48.9485 118.504C48.9485 118.562 48.9485 118.562 48.9485 118.62L48.5992 118.91C47.6098 119.664 47.5516 121.23 48.4828 122.39L56.282 132.367C56.282 132.367 56.282 132.425 56.2238 132.425Z" fill="#263238"/>
<path d="M60.6473 134.049C60.6473 134.049 58.0864 131.903 56.2239 132.135C54.3614 132.367 47.9592 139.211 47.7263 143.271C47.4935 147.332 45.8057 149.71 48.7158 151.392C51.6259 153.016 56.2239 155.684 59.2505 154.814C59.2505 154.814 64.6051 155.452 65.2453 154.002C65.2453 154.002 69.9598 155.51 70.309 152.32C70.309 152.32 73.6847 151.798 73.5101 149.71C73.2773 147.622 60.6473 134.049 60.6473 134.049Z" fill="#FFBE9D"/>
<path d="M70.3086 152.262C70.2504 152.32 67.282 149.594 63.7317 146.172C60.1813 142.749 57.3294 139.907 57.3876 139.849C57.4458 139.791 60.4141 142.517 63.9645 145.94C67.5149 149.362 70.3668 152.204 70.3086 152.262Z" fill="#EB996E"/>
<path d="M65.245 153.944C65.245 153.944 65.0122 153.886 64.7212 153.712C64.372 153.538 63.9064 153.306 63.3243 152.958C62.1603 152.262 60.647 151.16 59.0755 149.826C57.5041 148.492 56.1654 147.216 55.176 146.23C54.7103 145.766 54.3611 145.418 54.0119 145.128C53.7209 144.838 53.6045 144.722 53.6045 144.664C53.6045 144.664 53.7791 144.78 54.0701 145.012C54.3611 145.244 54.7685 145.592 55.2924 146.056C56.2818 146.926 57.6787 148.202 59.2502 149.536C60.8216 150.87 62.3349 151.972 63.4407 152.668C64.5466 153.538 65.245 153.944 65.245 153.944Z" fill="#EB996E"/>
<path d="M59.4247 154.582C59.4247 154.64 58.8427 154.408 57.9697 154.002C57.0966 153.596 55.9326 152.9 54.7685 152.088C53.5463 151.276 52.4986 150.406 51.8002 149.768C51.1018 149.13 50.6943 148.666 50.6943 148.666C50.7525 148.608 51.16 149.014 51.9166 149.594C52.6732 150.174 53.7209 150.986 54.9431 151.798C56.1654 152.61 57.2712 153.306 58.0861 153.828C58.9009 154.292 59.4247 154.524 59.4247 154.582Z" fill="#EB996E"/>
<path d="M179.73 135.905C179.73 135.905 174.55 133.063 167.624 134.455C160.697 135.789 146.205 139.269 141.141 139.849C136.136 140.429 114.95 145.128 114.95 145.128L117.162 157.657L186.307 157.483C187.645 149.942 189.973 140.603 179.73 135.905Z" fill="#FFBE9D"/>
<path d="M112.564 157.657H117.22L124.67 142.981C123.739 142.807 103.717 139.849 102.553 140.197L97.7803 157.193C97.7803 157.193 112.156 157.657 112.564 157.657Z" fill="#FFBE9D"/>
<path d="M98.8862 157.483C98.8862 157.483 99.0026 157.541 99.2354 157.541C100.865 157.715 108.49 157.251 108.49 157.251C108.839 156.265 108.199 153.306 107.209 153.132C106.278 152.958 98.1295 153.48 98.1295 153.48C98.1295 153.48 96.8491 153.654 96.558 155.801C96.3834 157.135 98.8862 157.483 98.8862 157.483Z" fill="#FFBE9D"/>
<path d="M96.3251 153.132C96.3251 153.132 96.4415 153.19 96.6743 153.19C98.304 153.364 105.521 153.306 105.812 152.436C106.161 151.45 105.579 149.014 104.648 148.84C103.717 148.666 95.5685 149.188 95.5685 149.188C95.5685 149.188 94.288 149.362 93.997 151.508C93.8224 152.842 96.3251 153.132 96.3251 153.132Z" fill="#FFBE9D"/>
<path d="M95.0448 148.956C95.0448 148.956 95.1612 149.014 95.3941 149.014C97.0237 149.188 104.241 149.13 104.532 148.26C104.881 147.274 104.299 144.838 103.368 144.664C102.437 144.49 94.2882 145.012 94.2882 145.012C94.2882 145.012 93.0078 145.186 92.7167 147.332C92.5421 148.608 95.0448 148.956 95.0448 148.956Z" fill="#FFBE9D"/>
<path d="M93.8808 144.722C93.8808 144.722 93.9972 144.78 94.23 144.78C95.8597 144.954 103.077 144.896 103.368 144.026C103.717 143.04 103.135 140.603 102.204 140.429C101.273 140.255 93.1241 140.777 93.1241 140.777C93.1241 140.777 91.8437 140.951 91.5527 143.098C91.3781 144.432 93.8808 144.722 93.8808 144.722Z" fill="#FFBE9D"/>
<path d="M105.172 153.132C105.172 153.248 103.601 153.422 101.68 153.48C99.7595 153.538 98.188 153.48 98.188 153.364C98.188 153.248 99.7595 153.074 101.68 153.016C103.601 152.958 105.172 153.016 105.172 153.132Z" fill="#EB996E"/>
<path d="M105.172 148.898C105.172 149.014 102.96 149.188 100.167 149.304C97.431 149.42 95.1611 149.362 95.1611 149.246C95.1611 149.13 97.3728 148.956 100.167 148.84C102.96 148.724 105.172 148.782 105.172 148.898Z" fill="#EB996E"/>
<path d="M104.823 144.606C104.823 144.722 102.611 144.896 99.8174 145.012C97.0819 145.128 94.812 145.07 94.812 144.954C94.812 144.838 97.0237 144.664 99.8174 144.548C102.611 144.432 104.823 144.49 104.823 144.606Z" fill="#EB996E"/>
<path d="M116.405 141.937C116.405 141.937 102.786 135.905 101.971 136.775C101.098 137.645 99.8174 140.429 99.8174 140.429L116.405 141.937Z" fill="#FFBE9D"/>
</g>
<defs>
<clipPath id="clip0">
<rect width="193" height="175" fill="white"/>
</clipPath>
</defs>
</svg>
