<svg width="203" height="175" viewBox="0 0 203 175" fill="none" xmlns="http://www.w3.org/2000/svg">
<g clip-path="url(#clip0)">
<path d="M28.4185 134.261C28.4185 134.261 26.2112 131.508 23.2452 130.889C20.2792 130.269 16.6924 131.921 15.3128 130.889C13.9333 129.856 9.51875 129.237 8.96693 130.751C8.41511 132.265 9.17386 134.054 12.1399 134.261C15.1059 134.467 17.865 135.224 17.865 135.224C17.865 135.224 2.0692 144.927 1.24148 145.959C0.41375 146.992 -0.482954 148.093 0.275796 148.919C1.03455 149.744 3.86261 147.68 3.86261 147.68L11.0362 146.854C11.0362 146.854 14.761 147.68 17.934 147.405C21.1069 147.061 24.4868 144.79 24.4868 144.79L31.8674 143.62C31.8674 143.551 33.4538 136.05 28.4185 134.261Z" fill="#FFBE9D"/>
<path d="M4.20755 147.542C4.27653 147.542 4.20755 147.336 4.20755 147.061C4.20755 146.785 4.3455 146.372 4.69039 145.959C5.38016 145.203 6.75971 144.583 8.27721 144.308C9.86368 144.033 11.3122 144.101 12.4158 144.17C13.5195 144.239 14.1403 144.308 14.1403 144.239C14.1403 144.17 13.5195 144.033 12.4158 143.895C11.3812 143.757 9.86368 143.62 8.13925 143.895C6.4838 144.17 5.03528 144.927 4.3455 145.822C4.00062 146.304 3.93164 146.785 3.93164 147.061C4.0696 147.405 4.20755 147.542 4.20755 147.542Z" fill="#8B4A41"/>
<path d="M9.17416 143.482C9.24313 143.62 10.4157 143.069 11.7953 142.312C13.1748 141.555 14.2095 140.798 14.1405 140.729C14.0715 140.592 12.8989 141.142 11.5194 141.899C10.1398 142.656 9.10518 143.344 9.17416 143.482Z" fill="#8B4A41"/>
<path d="M16.7613 137.908C16.6923 137.839 15.6577 138.665 15.3128 140.248C14.9679 141.831 15.5197 143.069 15.6577 143C15.7956 142.932 15.4507 141.762 15.7956 140.385C16.0715 138.94 16.8993 137.977 16.7613 137.908Z" fill="#8B4A41"/>
<path d="M151.681 86.0892L128.919 80.7215L126.781 77.1431L103.949 77.4871L98.6379 83.1301L83.4629 90.6311L96.2237 144.101L139.059 146.304L151.681 86.0892Z" fill="#263238"/>
<path d="M31.5229 129.168L48.7672 130.82C48.7672 130.82 52.2161 129.719 55.527 130.82C58.8379 131.921 64.1491 127.998 64.1491 127.998L71.5987 116.781C71.5987 116.781 74.9096 93.7966 78.7723 91.3881C82.635 88.9795 82.9799 88.8419 82.9799 88.8419L89.8087 131.095L80.7726 145.891C80.7726 145.891 72.7023 153.323 69.3914 153.047C66.0805 152.772 26.3496 147.336 26.3496 147.336L31.5229 129.168Z" fill="#85BC91"/>
<path d="M134.161 81.685L126.573 76.3861L128.505 84.5753L116.848 127.998C116.848 127.998 117.951 160.48 117.537 174.931H156.785L146.37 157.177L152.026 85.5387L134.161 81.685Z" fill="#85BC91"/>
<path d="M118.986 175L117.262 126.622C117.262 126.622 106.501 113.96 104.777 101.298C102.984 88.5666 102.432 81.7538 102.432 81.7538L104.018 76.8678L98.0862 82.8548C98.0862 82.8548 94.5683 84.0935 93.8096 84.3688C87.8776 86.5709 82.3594 89.3924 82.3594 89.3924L90.9815 156.007C90.9815 156.007 85.8772 166.604 82.3594 175.069H118.986V175Z" fill="#85BC91"/>
<path d="M90.2916 149.538C90.7055 151.671 91.0504 153.392 91.2573 154.562C91.3953 155.112 91.4643 155.594 91.5332 155.938C91.6022 156.282 91.6712 156.42 91.6712 156.42C91.6712 156.42 91.6712 156.282 91.6022 155.938C91.5332 155.594 91.4643 155.112 91.3953 154.562C91.1884 153.323 90.9124 151.602 90.5676 149.469C89.8088 145.134 88.8431 139.284 87.7395 132.747C86.6358 126.209 85.6012 120.291 84.8424 116.093C84.4286 113.96 84.0837 112.239 83.8768 111.07C83.7388 110.519 83.6698 110.037 83.6008 109.693C83.5319 109.349 83.4629 109.212 83.4629 109.212C83.4629 109.212 83.4629 109.349 83.5319 109.693C83.6008 110.037 83.6698 110.519 83.7388 111.07C83.9457 112.308 84.2216 114.029 84.5665 116.162C85.3253 120.497 86.291 126.347 87.3946 132.884" fill="#263238"/>
<path d="M117.813 136.669C117.813 136.669 117.951 136.532 118.227 136.256C118.503 135.981 118.848 135.568 119.331 135.086C120.297 134.054 121.607 132.54 123.332 130.682C126.712 126.897 131.402 121.598 136.782 115.543L136.851 115.474V115.336C136.161 112.859 135.472 110.313 134.713 107.629C134.368 106.459 134.092 105.358 133.747 104.257L133.54 104.532C136.644 104.394 139.679 104.326 142.438 104.188H142.714L142.576 103.913C140.162 97.4439 138.093 91.8698 136.575 87.8784C135.817 85.9516 135.265 84.3688 134.851 83.2677C134.644 82.786 134.506 82.3731 134.368 82.029C134.23 81.7538 134.161 81.6161 134.161 81.6161C134.161 81.6161 134.161 81.7538 134.299 82.029C134.437 82.3731 134.575 82.786 134.713 83.2677C135.127 84.3688 135.679 85.9516 136.368 87.9473C137.817 91.9386 139.817 97.5127 142.162 104.05L142.369 103.775C139.541 103.844 136.575 103.981 133.471 104.119H133.195L133.264 104.394C133.609 105.495 133.885 106.665 134.23 107.766C134.989 110.381 135.679 112.996 136.368 115.474L136.437 115.267C131.126 121.323 126.436 126.622 123.125 130.476C121.469 132.334 120.159 133.848 119.262 134.949C118.848 135.431 118.503 135.843 118.227 136.188C117.882 136.532 117.813 136.669 117.813 136.669Z" fill="#263238"/>
<path d="M118.917 175C119.055 175 118.779 163.989 118.365 150.433C117.951 136.876 117.468 125.934 117.399 125.934C117.261 125.934 117.537 136.945 117.951 150.501C118.296 163.989 118.779 175 118.917 175Z" fill="#263238"/>
<path d="M98.0856 82.5796C98.0856 82.5796 98.0166 82.786 98.0166 83.0613C97.9476 83.4742 97.8787 83.9559 97.8097 84.5753C97.6027 85.9516 97.3958 87.8096 97.0509 90.0806C96.4301 94.8289 95.6714 101.435 94.7057 109.005L94.6367 109.28L94.9126 109.212C96.4991 108.936 98.1546 108.661 99.879 108.386L99.6031 108.042C99.3272 108.73 98.9823 109.418 98.6374 110.175C98.0166 111.62 97.3958 112.996 96.775 114.304L96.706 114.442L96.775 114.579C102.224 120.841 106.984 126.416 110.501 130.476C112.226 132.403 113.605 133.985 114.64 135.155C115.123 135.706 115.468 136.119 115.744 136.394C116.02 136.669 117.675 137.977 117.744 137.908C117.744 137.908 116.089 136.6 115.813 136.325C115.537 135.981 115.192 135.568 114.778 135.018C113.812 133.848 112.433 132.265 110.777 130.269C107.329 126.209 102.569 120.635 97.1889 114.304L97.2579 114.579C97.8787 113.272 98.4994 111.827 99.1202 110.45C99.4651 109.762 99.741 109.005 100.086 108.317L100.293 107.904L99.879 107.973C98.1546 108.248 96.4991 108.523 94.9126 108.799L95.1885 109.074C96.0852 101.504 96.844 94.8977 97.3958 90.1494C97.6717 87.8096 97.8787 85.9516 98.0166 84.5753C98.0856 83.9559 98.0856 83.4742 98.1546 83.0613C98.0856 82.7172 98.0856 82.5796 98.0856 82.5796Z" fill="#263238"/>
<g opacity="0.3">
<g opacity="0.3">
<g opacity="0.3">
<path opacity="0.3" d="M142.369 104.05C142.231 104.532 138.989 105.014 138.438 106.39C137.886 107.766 138.162 109.28 138.576 110.657C138.989 112.033 139.472 113.478 139.403 114.923C139.196 117.538 137.127 119.603 135.196 121.323C129.816 126.278 123.194 131.646 117.813 136.6C122.573 130.476 128.85 124.213 134.161 118.571C134.92 117.745 135.748 116.85 136.092 115.749C136.506 114.373 136.092 112.928 135.679 111.551C135.127 109.693 134.575 107.904 134.023 106.046C133.885 105.564 133.609 104.807 133.54 104.532C133.54 104.532 135.058 104.257 135.541 104.257C135.541 104.394 140.3 103.844 142.369 104.05Z" fill="black"/>
</g>
</g>
</g>
<path d="M152.095 85.5387C152.095 85.5387 159.613 88.1537 161.958 96.2052C164.304 104.188 166.097 115.336 168.442 122.355C170.788 129.375 168.994 129.856 170.236 132.747C171.546 135.568 176.995 144.17 172.857 150.501C168.718 156.832 164.511 160.48 156.716 157.383C148.922 154.286 144.576 149.4 144.576 149.4L152.095 85.5387Z" fill="#85BC91"/>
<path d="M156.717 100.197C156.717 100.197 156.717 100.403 156.648 100.816C156.648 101.229 156.648 101.848 156.579 102.536C156.579 102.88 156.579 103.362 156.579 103.775C156.579 104.257 156.51 104.738 156.441 105.22C156.372 106.252 156.303 107.491 156.096 108.799C156.027 109.487 155.889 110.175 155.82 110.863C155.682 111.551 155.544 112.308 155.406 113.134C155.13 114.717 154.716 116.3 154.371 118.02C153.544 121.461 152.509 125.246 151.405 129.168C150.302 133.091 149.267 136.876 148.508 140.317C148.163 142.037 147.818 143.689 147.543 145.271C147.405 146.028 147.267 146.785 147.198 147.542C147.129 148.299 147.06 148.987 146.991 149.607C146.853 150.914 146.853 152.153 146.784 153.185C146.784 153.736 146.715 154.217 146.715 154.699C146.715 155.181 146.784 155.594 146.784 155.938C146.853 156.626 146.853 157.245 146.853 157.658C146.853 158.071 146.922 158.278 146.922 158.278C146.922 158.278 146.922 158.071 146.922 157.658C146.922 157.245 146.922 156.626 146.922 155.938C146.922 155.594 146.922 155.112 146.922 154.699C146.922 154.217 146.991 153.736 146.991 153.254C147.06 152.222 147.06 150.983 147.267 149.676C147.336 148.987 147.405 148.299 147.543 147.611C147.612 146.923 147.818 146.166 147.887 145.34C148.094 143.757 148.508 142.175 148.853 140.385C149.681 136.945 150.647 133.16 151.75 129.237C152.854 125.315 153.888 121.53 154.716 118.089C155.061 116.368 155.475 114.717 155.751 113.134C155.889 112.377 156.027 111.62 156.165 110.863C156.234 110.106 156.372 109.418 156.441 108.799C156.648 107.491 156.648 106.252 156.717 105.22C156.717 104.67 156.786 104.188 156.786 103.706C156.786 103.225 156.786 102.812 156.786 102.468C156.786 101.779 156.717 101.16 156.717 100.747C156.717 100.403 156.717 100.197 156.717 100.197Z" fill="#263238"/>
<path d="M149.957 129.168C149.957 129.237 151.061 128.962 152.854 128.755C154.647 128.549 157.131 128.549 159.89 129.168C162.58 129.719 164.856 130.751 166.443 131.646C168.029 132.54 168.857 133.228 168.926 133.16C168.926 133.16 168.719 132.953 168.374 132.609C167.96 132.265 167.408 131.852 166.65 131.37C165.132 130.407 162.787 129.306 160.028 128.687C157.269 128.136 154.716 128.136 152.923 128.411C152.026 128.549 151.268 128.687 150.785 128.824C150.233 129.031 149.957 129.168 149.957 129.168Z" fill="#263238"/>
<path d="M62.9073 129.099C62.8384 129.168 63.6661 129.65 64.9077 130.476C66.0803 131.37 67.6668 132.747 69.0463 134.467C70.4259 136.256 71.4605 138.046 72.0123 139.422C72.6331 140.798 72.909 141.693 72.978 141.624C72.978 141.624 72.978 141.418 72.8401 141.005C72.7711 140.592 72.5642 140.041 72.2882 139.284C71.7364 137.908 70.7707 135.981 69.3222 134.192C67.8737 132.403 66.2182 131.026 64.9766 130.2C64.3559 129.788 63.804 129.512 63.4591 129.306C63.1143 129.099 62.9073 129.031 62.9073 129.099Z" fill="#263238"/>
<path d="M121.4 26.976C123.745 25.462 124.297 22.0212 123.055 19.6126C121.814 17.1352 119.054 15.6213 116.364 15.2084C112.364 14.589 108.156 15.9654 105.328 18.8557C103.81 20.4384 102.569 22.4341 100.569 23.1223C98.7752 23.7416 96.7748 23.1911 94.8435 23.3975C92.2913 23.7416 90.153 25.5308 88.8424 27.733C87.5319 29.9351 86.98 32.4813 86.7041 35.0275C86.4282 37.3673 86.2213 39.9135 84.6348 41.6339C83.0483 43.2855 80.5652 43.6295 78.5648 44.7994C74.8401 47.0015 73.6674 52.5069 76.0816 56.0853C76.8404 57.1864 77.944 58.2874 78.082 59.5949C78.151 60.8336 77.3232 61.9347 76.9783 63.1734C76.0127 66.2701 78.4958 69.9174 81.7378 70.055C83.3932 70.1238 85.1177 69.5045 86.5662 70.2615C88.0147 70.9496 88.5665 72.7389 89.4632 74.0464C91.2566 76.6614 95.1194 77.6248 97.9474 76.2485C99.12 75.6292 100.293 74.6657 101.603 74.8034C102.914 74.8722 103.948 76.0421 105.259 76.2485C106.983 76.5926 108.57 75.3539 109.605 73.9087C110.639 72.4636 111.329 70.812 112.64 69.7109C114.364 68.197 116.709 67.8529 118.917 67.0959C123.676 65.4443 127.677 61.6594 129.539 57.0487C131.401 52.3692 131.194 46.9327 128.849 42.4597" fill="#263238"/>
<path d="M126.504 81.685L126.849 64.9626L130.022 36.8167C130.091 34.821 128.642 33.0318 126.642 32.7565L106.156 26.976C99.6029 26.0814 94.9815 34.0641 94.3607 40.6704C93.6709 47.965 93.1881 56.9799 93.8778 62.4852C95.3264 73.5646 103.742 75.2162 103.742 75.2162C103.742 75.1474 103.466 82.2355 103.466 82.2355L116.157 92.4203L126.504 81.685Z" fill="#FFBE9D"/>
<path d="M96.8431 48.9285C96.7742 49.6854 97.395 50.3048 98.1537 50.3736C98.9125 50.4424 99.6022 49.8919 99.6712 49.1349C99.7402 48.3779 99.1194 47.7586 98.3606 47.6898C97.6019 47.621 96.9121 48.1715 96.8431 48.9285Z" fill="#263238"/>
<path d="M96.2226 45.4188C96.3606 45.6253 97.4642 44.8683 98.9817 44.8683C100.499 44.8683 101.603 45.6941 101.741 45.5564C101.81 45.4876 101.672 45.1435 101.189 44.7995C100.706 44.4554 99.8784 44.0425 98.9817 44.0425C98.016 44.0425 97.2573 44.3177 96.7744 44.6618C96.2916 45.0059 96.0847 45.35 96.2226 45.4188Z" fill="#263238"/>
<path d="M111.191 49.2725C111.122 50.0295 111.743 50.6488 112.501 50.7177C113.26 50.7865 113.95 50.2359 114.019 49.479C114.088 48.722 113.467 48.1026 112.708 48.0338C111.95 47.965 111.26 48.5155 111.191 49.2725Z" fill="#263238"/>
<path d="M111.19 46.1758C111.328 46.3822 112.432 45.6252 113.949 45.6252C115.467 45.6252 116.571 46.451 116.709 46.3134C116.778 46.2446 116.64 45.9005 116.157 45.5564C115.674 45.2123 114.846 44.7994 113.949 44.7994C112.984 44.7994 112.225 45.0747 111.742 45.4188C111.259 45.7629 111.052 46.0381 111.19 46.1758Z" fill="#263238"/>
<path d="M105.327 57.2552C105.327 57.1864 104.362 56.9799 102.844 56.7735C102.43 56.7047 102.086 56.6359 102.017 56.3606C101.948 56.0853 102.086 55.6724 102.292 55.1907C102.706 54.2961 103.12 53.2639 103.534 52.3004C105.258 48.1715 106.5 44.7306 106.362 44.6618C106.224 44.593 104.638 47.8962 102.982 52.094C102.568 53.1262 102.154 54.0897 101.81 55.0531C101.672 55.466 101.396 56.0165 101.534 56.567C101.603 56.8423 101.879 57.0488 102.154 57.1864C102.43 57.2552 102.637 57.2552 102.844 57.324C104.362 57.324 105.327 57.324 105.327 57.2552Z" fill="#263238"/>
<path d="M103.741 75.2163C103.741 75.2163 111.122 75.9045 118.64 71.7067C118.64 71.7067 114.847 79.1388 103.81 77.8313L103.741 75.2163Z" fill="#8B4A41"/>
<path d="M110.639 39.9135C110.777 40.3264 112.294 40.1887 114.088 40.464C115.881 40.6705 117.329 41.2898 117.536 40.8769C117.674 40.6705 117.398 40.3264 116.847 39.9135C116.295 39.5006 115.398 39.0877 114.294 38.9501C113.191 38.8124 112.225 38.9501 111.604 39.1565C110.915 39.363 110.639 39.707 110.639 39.9135Z" fill="#263238"/>
<path d="M96.912 40.2576C97.1879 40.6016 98.2226 40.2576 99.4642 40.3264C100.706 40.3264 101.809 40.6016 102.016 40.2576C102.154 40.0511 101.947 39.707 101.534 39.3629C101.051 39.0189 100.292 38.7436 99.4642 38.7436C98.5675 38.7436 97.8087 39.0189 97.3949 39.3629C96.912 39.707 96.7741 40.0511 96.912 40.2576Z" fill="#263238"/>
<path d="M110.088 60.3519C110.639 61.1089 110.846 62.0723 110.57 62.9669C110.295 63.8616 109.536 64.5497 108.639 64.825C108.294 64.9626 107.88 64.9626 107.535 64.825C106.915 64.6185 106.639 63.9304 106.363 63.311C106.156 62.8293 105.949 62.2788 105.742 61.7971C105.673 61.6594 105.604 61.453 105.673 61.2465C105.742 61.0401 105.949 60.9713 106.156 60.9713C107.398 60.696 108.639 60.3519 109.881 60.0767" fill="#8B4A41"/>
<path d="M107.259 64.8938C107.259 64.9626 108.018 65.0315 109.121 64.6874C109.673 64.4809 110.363 64.068 110.777 63.3799C110.984 63.0358 111.053 62.5541 111.053 62.1412C111.053 61.7283 110.915 61.2466 110.708 60.8337C110.501 60.4208 110.225 60.0767 109.949 59.8014L109.811 59.7326L109.673 59.8014C106.983 60.7648 104.845 61.2466 104.845 61.3842C104.845 61.5218 107.052 61.1777 109.811 60.2831L109.535 60.2143C109.811 60.4896 110.018 60.7648 110.225 61.1089C110.57 61.8659 110.639 62.6917 110.363 63.2422C110.018 63.8616 109.466 64.2057 108.983 64.4809C108.018 64.7562 107.259 64.825 107.259 64.8938Z" fill="#263238"/>
<path d="M86.9111 38.3995C87.3939 36.7479 88.3596 35.1651 89.8081 34.2017C90.6359 33.6512 91.5326 33.3759 92.2913 32.7566C93.8778 31.449 94.2227 29.2469 95.2573 27.4577C96.4989 25.1179 98.9821 23.5352 101.603 23.2599C103.811 23.0534 106.018 23.6728 108.156 23.1223C109.743 22.7094 111.122 21.6771 112.709 21.4019C115.813 20.7825 118.71 23.0534 120.986 25.2556C120.986 27.4577 119.192 28.9717 117.537 30.4168C115.813 31.8619 113.467 32.4813 111.26 32.0684C109.536 31.7243 107.673 30.8985 106.225 31.7931C104.707 32.7566 104.638 35.0963 103.259 36.2662C101.327 37.9866 98.1544 36.4038 95.6712 37.092C93.7398 37.6425 92.5672 39.5006 91.2567 41.0145C89.9461 42.5285 88.0837 44.0424 86.1523 43.4231C86.2903 41.7715 86.4283 40.0511 86.9111 38.3995Z" fill="#263238"/>
<path d="M110.294 29.0405C111.673 28.6276 114.571 27.733 115.26 26.5631C116.916 23.9481 119.744 22.1589 122.641 22.2965C125.538 22.4341 128.366 24.7739 128.987 27.8706C132.505 27.8706 135.954 30.1415 137.678 33.4447C137.885 33.8576 138.092 34.2705 138.23 34.7522C139.333 36.6791 139.54 39.0877 138.713 41.221C138.23 42.4597 137.402 43.9048 138.023 45.0747C138.713 46.2446 140.368 46.3134 141.679 46.7263C143.955 47.4833 145.403 50.0983 144.921 52.438C144.714 53.2638 144.369 54.0896 144.507 54.9154C144.714 55.8101 145.403 56.4294 146.024 57.0487C147.473 58.7692 147.887 61.1777 147.128 63.311C146.369 65.3755 144.438 67.0271 142.299 67.3712C141.334 67.5776 140.23 67.5088 139.402 68.0594C138.437 68.6787 137.954 69.8486 137.264 70.7432C135.953 72.5324 133.401 73.2894 131.332 72.6012C130.918 72.4636 130.504 72.2572 130.159 71.9819C129.47 72.8765 128.435 73.4959 126.642 73.4959L127.055 50.3047C126.848 50.7865 126.435 51.2682 125.676 51.4058C121.951 52.2316 121.399 44.593 122.227 42.4597C120.847 41.2898 119.537 40.0511 118.502 38.5371C117.468 37.0232 116.571 32.8942 116.778 31.0362C115.398 31.105 109.673 29.1781 110.294 29.0405Z" fill="#263238"/>
<path d="M126.021 52.1628C126.159 49.823 129.056 49.2725 131.056 50.5112C132.16 51.1306 133.057 52.4381 132.919 54.9843C132.643 61.6595 125.952 60.0079 125.952 59.8014C126.021 59.6638 125.883 54.9155 126.021 52.1628Z" fill="#FFBE9D"/>
<path d="M128.228 57.324C128.228 57.324 128.366 57.3928 128.504 57.5304C128.711 57.5993 128.987 57.6681 129.401 57.5993C130.09 57.3928 130.78 56.2918 130.849 55.0531C130.918 54.4337 130.78 53.8832 130.573 53.4015C130.366 52.9197 130.09 52.5757 129.746 52.438C129.401 52.3692 129.125 52.5757 129.056 52.7133C128.987 52.9197 128.987 53.0574 128.987 53.0574C128.987 53.0574 128.849 52.9198 128.918 52.6445C128.918 52.5069 129.056 52.3692 129.194 52.2316C129.332 52.094 129.608 52.0251 129.814 52.094C130.297 52.1628 130.78 52.6445 130.987 53.195C131.263 53.7455 131.332 54.3649 131.332 55.0531C131.263 56.4294 130.504 57.5993 129.539 57.8745C129.056 58.0122 128.642 57.8057 128.504 57.6681C128.228 57.5305 128.159 57.324 128.228 57.324Z" fill="#8B4A41"/>
<path d="M119.538 27.2513C119.469 27.3201 120.227 27.4577 120.848 28.3523C121.538 29.2469 121.745 31.0362 121.331 32.963L121.262 33.1007L121.4 33.1695C123.055 33.5824 124.849 34.8899 125.746 36.9544C125.952 37.4361 126.09 38.0554 126.09 38.606C126.09 39.1565 126.021 39.7758 125.883 40.3952C125.746 41.0145 125.677 41.6339 125.608 42.322C125.539 42.9414 125.746 43.7672 126.159 44.3177C126.987 45.5564 128.298 46.1758 129.47 46.7951C130.643 47.4145 131.747 47.965 132.574 48.8596C134.299 50.5112 135.057 52.6445 135.057 54.4337C135.126 56.2229 134.644 57.6681 134.161 58.5627C133.747 59.4573 133.333 59.939 133.402 59.939C133.402 59.939 133.54 59.8702 133.678 59.6638C133.816 59.4573 134.092 59.1132 134.368 58.7003C134.851 57.8057 135.471 56.3606 135.402 54.5025C135.402 52.6445 134.644 50.3736 132.85 48.5843C131.953 47.6897 130.85 47.0016 129.677 46.451C128.505 45.8317 127.263 45.2123 126.573 44.1113C125.815 43.079 126.159 41.7715 126.366 40.6016C126.504 39.9823 126.573 39.3629 126.573 38.7436C126.573 38.1242 126.366 37.5049 126.159 36.9544C125.263 34.7522 123.262 33.3759 121.538 32.963L121.676 33.1695C122.09 31.105 121.745 29.3158 120.986 28.3523C120.641 27.8706 120.227 27.5953 119.951 27.5265C119.676 27.2513 119.538 27.1824 119.538 27.2513Z" fill="#455A64"/>
<path d="M151.405 123.525C151.405 123.525 147.68 126.209 146.645 126.691C145.542 127.173 142.713 129.719 142.024 132.334C141.334 134.949 139.472 136.256 138.851 137.495C138.23 138.734 138.23 143.826 138.299 144.996C138.368 146.235 134.574 149.125 134.367 149.676C134.16 150.226 133.815 151.534 134.85 151.809C135.885 152.084 136.919 151.946 137.471 151.396C138.023 150.845 140.23 148.919 140.23 148.919C140.23 148.919 140.023 151.327 140.782 151.465C141.541 151.602 142.782 151.465 142.782 151.465L145.611 147.267C145.611 147.267 146.3 150.295 147.542 149.951C148.783 149.676 149.542 149.331 149.68 147.473C149.818 145.615 150.715 143.413 150.715 143.413V141.899C150.715 141.899 152.301 143.895 153.543 143.62C154.785 143.344 155.336 142.725 155.405 142.243C155.474 141.762 154.991 138.803 154.647 137.426C154.233 136.05 153.129 133.573 153.129 133.573C153.129 133.573 152.439 130.2 153.198 128.893C153.957 127.585 158.302 123.869 158.854 122.7C159.406 121.461 160.165 119.603 158.302 118.915C156.44 118.158 154.095 121.667 151.405 123.525Z" fill="#FFBE9D"/>
<path d="M142.369 133.985C142.369 134.054 142.645 134.329 143.197 134.605C143.749 134.88 144.645 135.155 145.611 135.224C146.577 135.293 147.473 135.086 148.094 134.88C148.715 134.674 148.991 134.398 148.991 134.398C148.922 134.261 147.542 134.949 145.68 134.811C143.749 134.674 142.438 133.848 142.369 133.985Z" fill="#8B4A41"/>
<path d="M140.507 149.263C140.576 149.331 141.196 148.574 141.61 147.473C142.024 146.372 142.024 145.409 141.886 145.409C141.748 145.409 141.541 146.304 141.196 147.336C140.782 148.368 140.369 149.194 140.507 149.263Z" fill="#8B4A41"/>
<path d="M145.542 147.405C145.68 147.473 146.093 146.648 146.369 145.478C146.576 144.377 146.438 143.413 146.369 143.413C146.231 143.413 146.162 144.308 145.955 145.409C145.68 146.51 145.404 147.336 145.542 147.405Z" fill="#8B4A41"/>
<path d="M150.646 47.965L156.027 38.5372C153.681 34.6834 152.302 30.1416 152.302 25.3244C152.302 11.4235 163.614 0.137634 177.548 0.137634C191.481 0.137634 202.793 11.4235 202.793 25.3244C202.793 39.2253 191.481 50.5112 177.548 50.5112C171.685 50.5112 166.373 48.5155 162.097 45.2123L150.646 47.965Z" fill="#FAFAFA"/>
<path d="M150.646 47.965C151.198 47.8274 154.785 47.0016 162.097 45.35H162.235L162.166 45.2812L162.028 45.4188C163.476 46.5199 165.201 47.6209 167.201 48.5156C169.201 49.4102 171.547 50.1672 174.168 50.5112C175.478 50.6489 176.789 50.7865 178.168 50.7177C178.858 50.6489 179.548 50.6489 180.238 50.5801C180.928 50.4424 181.686 50.3736 182.376 50.236C185.273 49.6854 188.17 48.5844 190.929 46.864C193.688 45.2124 196.171 42.8726 198.241 40.0511C200.241 37.2297 201.828 33.9265 202.517 30.2792C203.207 26.7008 203.138 22.7782 202.241 19.0622C201.276 15.3461 199.482 11.6988 196.792 8.67088L195.758 7.56982C195.413 7.15692 194.999 6.88166 194.654 6.53758C194.24 6.19349 193.895 5.84941 193.481 5.57415L192.24 4.67953C191.826 4.33545 191.412 4.129 190.998 3.85374C190.584 3.57847 190.17 3.30321 189.688 3.09676C189.205 2.89031 188.791 2.68386 188.377 2.47741C187.894 2.27096 187.48 1.9957 186.998 1.85806C183.342 0.412919 179.41 -0.137612 175.685 0.137654C171.96 0.412919 168.374 1.44516 165.27 3.23439C162.166 4.9548 159.614 7.22574 157.544 9.77194C155.544 12.3182 154.095 15.1396 153.268 17.9611C152.371 20.7826 152.164 23.604 152.164 26.1502C152.233 28.7653 152.716 31.105 153.406 33.2383C154.095 35.3716 154.992 37.1609 155.958 38.6748V38.606C152.578 44.5242 150.922 47.4833 150.646 47.965C150.922 47.4833 152.578 44.593 156.096 38.606V38.5372V38.4684C155.199 36.9544 154.302 35.1652 153.613 33.0319C152.923 30.9674 152.509 28.5588 152.44 26.0126C152.44 23.4664 152.716 20.6449 153.544 17.8923C154.44 15.1396 155.82 12.3182 157.82 9.77194C159.82 7.22574 162.373 5.02362 165.408 3.30321C168.443 1.5828 171.96 0.550552 175.685 0.275287C179.41 2.11447e-05 183.273 0.550552 186.86 1.9957C187.342 2.13333 187.756 2.40859 188.17 2.61504C188.584 2.82149 189.067 3.02794 189.481 3.23439C189.895 3.50966 190.308 3.7161 190.722 3.99137C191.136 4.26664 191.55 4.47308 191.964 4.81717L193.136 5.71178C193.55 5.98704 193.895 6.39994 194.24 6.67521C194.585 7.01929 194.999 7.36337 195.344 7.70745L196.378 8.80852C199 11.7676 200.793 15.3461 201.759 19.0622C202.724 22.7782 202.793 26.5631 202.035 30.1416C201.345 33.72 199.827 37.0232 197.827 39.7759C195.827 42.5285 193.343 44.7995 190.653 46.5199C187.963 48.1715 185.066 49.2725 182.238 49.8231C181.548 49.9607 180.79 50.0295 180.1 50.1672C179.41 50.236 178.72 50.236 178.03 50.3048C176.651 50.3736 175.34 50.3048 174.03 50.0983C171.478 49.7543 169.132 49.0661 167.132 48.1715C165.132 47.2769 163.407 46.1758 161.959 45.0747L161.476 44.7307L161.821 45.2124L161.89 45.0747C154.854 47.0016 151.198 47.8274 150.646 47.965Z" fill="#263238"/>
<path d="M184.722 25.3245C184.722 26.7696 185.894 27.8707 187.274 27.8707C188.722 27.8707 189.826 26.7008 189.826 25.3245C189.826 23.8793 188.653 22.7783 187.274 22.7783C185.825 22.7783 184.722 23.9481 184.722 25.3245Z" fill="#263238"/>
<path d="M174.443 25.3245C174.443 26.7696 175.616 27.8707 176.996 27.8707C178.444 27.8707 179.548 26.7008 179.548 25.3245C179.548 23.8793 178.375 22.7783 176.996 22.7783C175.547 22.7783 174.443 23.9481 174.443 25.3245Z" fill="#263238"/>
<path d="M164.166 24.0864C163.476 25.3251 163.89 26.9079 165.132 27.5961C166.374 28.2842 167.96 27.8713 168.65 26.6327C169.34 25.394 168.926 23.8112 167.684 23.123C166.443 22.4349 164.856 22.8478 164.166 24.0864Z" fill="#263238"/>
</g>
<defs>
<clipPath id="clip0">
<rect width="203" height="175" fill="white"/>
</clipPath>
</defs>
</svg>
