<svg width="166" height="173" viewBox="0 0 166 173" fill="none" xmlns="http://www.w3.org/2000/svg">
<path d="M110.312 157.145C110.312 157.145 136.274 164.344 137.267 164.654C138.82 165.212 138.572 170.921 136.149 170.859C134.969 170.797 116.212 171.542 113.852 171.418C111.492 171.294 105.095 168.749 105.095 168.749L110.312 157.145Z" fill="#85BC91"/>
<path d="M121.119 167.074C121.243 167.074 121.429 165.709 122.237 164.281C123.044 162.854 124.162 161.986 124.1 161.923C124.038 161.799 122.796 162.544 121.864 164.095C120.995 165.585 120.995 167.074 121.119 167.074Z" fill="#263238"/>
<path d="M118.386 165.833C118.511 165.833 118.759 164.654 119.442 163.289C120.125 161.923 120.933 160.993 120.871 160.869C120.809 160.807 119.815 161.613 119.069 163.04C118.386 164.53 118.262 165.833 118.386 165.833Z" fill="#263238"/>
<path d="M115.84 165.15C115.964 165.15 115.902 163.847 116.461 162.42C117.02 160.993 117.952 160.062 117.89 160C117.828 159.876 116.647 160.682 116.088 162.296C115.467 163.785 115.778 165.212 115.84 165.15Z" fill="#263238"/>
<path d="M116.337 161.799C116.399 161.799 116.585 161.117 116.585 159.876C116.585 159.255 116.523 158.573 116.337 157.766C116.212 157.394 116.088 156.959 115.964 156.587C115.902 156.401 115.778 156.153 115.529 155.966C115.281 155.78 114.846 155.78 114.66 156.028C114.411 156.215 114.349 156.525 114.287 156.773C114.287 157.021 114.225 157.207 114.225 157.456C114.225 157.89 114.287 158.324 114.411 158.697C114.597 159.503 114.908 160.124 115.219 160.682C115.84 161.737 116.337 162.296 116.399 162.234C116.461 162.172 116.026 161.613 115.529 160.558C115.281 160 115.032 159.379 114.846 158.635C114.784 158.262 114.722 157.89 114.722 157.456C114.722 157.083 114.722 156.587 114.97 156.339C115.094 156.215 115.219 156.215 115.343 156.339C115.467 156.401 115.529 156.587 115.653 156.773C115.84 157.145 115.964 157.518 116.026 157.89C116.212 158.635 116.337 159.317 116.399 159.938C116.399 161.055 116.274 161.799 116.337 161.799Z" fill="#263238"/>
<path d="M116.274 161.551C116.274 161.489 115.653 161.303 114.597 161.303C114.101 161.303 113.417 161.365 112.734 161.551C112.424 161.613 112.051 161.737 111.678 161.923C111.306 162.11 110.933 162.606 111.119 163.102C111.244 163.599 111.616 163.909 112.051 164.033C112.486 164.157 112.858 164.095 113.231 164.033C113.914 163.847 114.473 163.537 114.908 163.227C115.715 162.606 116.15 162.048 116.088 162.048C116.026 161.986 115.529 162.42 114.722 162.978C114.287 163.227 113.79 163.537 113.107 163.661C112.796 163.723 112.424 163.723 112.175 163.661C111.865 163.599 111.616 163.351 111.554 163.04C111.492 162.73 111.678 162.482 111.927 162.296C112.175 162.11 112.548 162.048 112.858 161.923C113.48 161.737 114.101 161.675 114.597 161.613C115.653 161.489 116.274 161.613 116.274 161.551Z" fill="#263238"/>
<path d="M125.094 167.322C125.218 167.322 125.094 166.205 125.591 164.964C126.087 163.723 126.957 163.04 126.833 162.916C126.771 162.792 125.715 163.413 125.156 164.778C124.659 166.205 124.969 167.384 125.094 167.322Z" fill="#263238"/>
<path d="M107.02 168.501C107.02 168.501 107.393 168.687 108.014 168.997C108.697 169.246 109.629 169.618 110.871 169.866C113.356 170.487 116.896 170.859 120.747 170.797C124.659 170.735 128.138 170.549 130.684 170.487C131.864 170.425 132.92 170.363 133.665 170.301C134.348 170.239 134.783 170.239 134.783 170.176C134.783 170.176 134.411 170.114 133.665 170.114C132.858 170.114 131.864 170.114 130.684 170.114C128.075 170.177 124.597 170.239 120.747 170.301C116.896 170.363 113.356 170.052 110.933 169.494C108.449 169.06 107.02 168.439 107.02 168.501Z" fill="#263238"/>
<path d="M106.213 169.122C106.275 169.184 106.958 168.749 108.138 168.253C109.318 167.756 111.119 167.136 113.045 167.446C114.97 167.756 116.399 169.06 117.268 169.99C118.2 170.921 118.697 171.542 118.759 171.542C118.821 171.48 118.386 170.797 117.517 169.804C117.082 169.308 116.523 168.749 115.778 168.191C115.032 167.632 114.163 167.198 113.107 167.074C110.995 166.764 109.194 167.446 108.014 168.067C106.834 168.563 106.213 169.06 106.213 169.122Z" fill="#263238"/>
<path d="M132.237 170.239C132.299 170.177 132.051 169.866 131.864 169.246C131.678 168.625 131.492 167.756 131.678 166.826C131.864 165.895 132.299 165.088 132.734 164.592C133.168 164.095 133.479 163.847 133.417 163.785C133.417 163.723 132.982 163.909 132.547 164.406C132.051 164.902 131.554 165.709 131.367 166.702C131.181 167.756 131.367 168.687 131.678 169.308C131.926 169.99 132.237 170.239 132.237 170.239Z" fill="#263238"/>
<path d="M83.2326 157.952C83.2326 157.952 56.6499 161.986 55.532 162.234C53.9171 162.606 53.4824 168.315 55.9046 168.501C57.0226 168.625 75.5932 171.542 77.9534 171.666C80.3135 171.79 87.7666 169.866 87.7666 169.866L83.2326 157.952Z" fill="#85BC91"/>
<path d="M71.3081 166.453C71.1839 166.453 71.1839 165.088 70.5007 163.537C69.8796 161.986 68.8858 161.055 68.9479 160.931C69.01 160.807 70.1901 161.737 70.8733 163.351C71.6186 165.026 71.4323 166.515 71.3081 166.453Z" fill="#263238"/>
<path d="M74.1644 165.585C74.0402 165.585 73.916 164.344 73.4191 162.916C72.9223 161.489 72.1769 160.434 72.3012 160.372C72.3633 160.31 73.2949 161.241 73.8539 162.792C74.3508 164.282 74.2887 165.585 74.1644 165.585Z" fill="#263238"/>
<path d="M76.773 165.212C76.6488 165.212 76.8972 163.909 76.5246 162.42C76.1519 160.931 75.2824 159.938 75.4066 159.876C75.4687 159.814 76.5246 160.744 76.9593 162.358C77.332 163.909 76.8351 165.274 76.773 165.212Z" fill="#263238"/>
<path d="M76.7113 161.799C76.6492 161.799 76.525 161.055 76.6492 159.876C76.7113 159.255 76.8977 158.573 77.1461 157.828C77.2703 157.456 77.4567 157.083 77.643 156.649C77.7672 156.463 77.8914 156.215 78.1399 156.091C78.3883 155.904 78.8231 156.028 79.0094 156.215C79.1957 156.463 79.2578 156.773 79.2578 156.959C79.2578 157.207 79.2578 157.394 79.1957 157.642C79.1336 158.076 79.0094 158.511 78.8852 158.883C78.5746 159.628 78.202 160.248 77.8293 160.744C77.084 161.737 76.525 162.172 76.4629 162.172C76.4008 162.11 76.8977 161.551 77.5809 160.558C77.8914 160.062 78.2641 159.441 78.5125 158.697C78.6367 158.324 78.6988 157.952 78.7609 157.518C78.8231 157.145 78.8852 156.649 78.6367 156.401C78.5125 156.277 78.3883 156.277 78.3262 156.339C78.202 156.401 78.0777 156.587 78.0156 156.773C77.8293 157.145 77.643 157.518 77.5188 157.89C77.2082 158.635 77.0219 159.255 76.9598 159.876C76.7735 161.055 76.7735 161.799 76.7113 161.799Z" fill="#263238"/>
<path d="M76.7734 161.551C76.7734 161.489 77.3945 161.365 78.4504 161.489C78.9473 161.551 79.5684 161.675 80.2516 161.924C80.5621 162.048 80.9348 162.172 81.2453 162.42C81.5559 162.668 81.8664 163.165 81.6801 163.661C81.4937 164.095 81.059 164.406 80.6242 164.468C80.1895 164.53 79.8168 164.468 79.4441 164.344C78.7609 164.095 78.2641 163.661 77.8914 163.351C77.1461 162.606 76.7734 162.048 76.8356 162.048C76.8977 161.986 77.3324 162.482 78.0777 163.165C78.4504 163.475 78.9473 163.847 79.5684 164.033C79.8789 164.157 80.1895 164.219 80.5 164.157C80.8105 164.095 81.1211 163.909 81.1832 163.599C81.3074 163.351 81.1211 163.04 80.8727 162.854C80.6242 162.668 80.3137 162.482 80.0031 162.358C79.382 162.11 78.823 161.924 78.3262 161.861C77.3945 161.613 76.7734 161.613 76.7734 161.551Z" fill="#263238"/>
<path d="M67.333 166.267C67.2088 166.267 67.4572 165.15 67.0845 163.909C66.774 162.606 65.9666 161.861 66.0908 161.737C66.1529 161.613 67.1467 162.358 67.5193 163.785C67.9541 165.212 67.4572 166.329 67.333 166.267Z" fill="#263238"/>
<path d="M85.1582 169.618C85.1582 169.618 84.7856 169.742 84.1024 169.99C83.4192 170.177 82.4254 170.425 81.1211 170.549C78.5746 170.859 75.0344 170.797 71.1837 170.301C67.3329 169.804 63.8548 169.184 61.3704 168.811C60.1904 168.625 59.1966 168.439 58.3892 168.315C57.706 168.191 57.3333 168.067 57.3333 168.067C57.3333 168.067 57.706 168.067 58.4513 168.129C59.2587 168.253 60.2525 168.377 61.4325 168.501C64.0411 168.873 67.4571 169.37 71.2458 169.866C75.0965 170.363 78.5746 170.487 81.1211 170.239C83.6676 169.99 85.1582 169.556 85.1582 169.618Z" fill="#263238"/>
<path d="M85.8414 170.301C85.7793 170.363 85.1582 169.866 84.0403 169.184C82.9223 168.563 81.2454 167.694 79.2579 167.819C77.2704 167.881 75.7798 168.998 74.7239 169.804C73.7302 170.611 73.1091 171.169 73.047 171.169C72.9849 171.107 73.5438 170.487 74.5376 169.618C75.0345 169.184 75.6556 168.687 76.463 168.253C77.2083 167.819 78.202 167.508 79.2579 167.446C81.3696 167.384 83.1086 168.315 84.2266 168.998C85.2825 169.68 85.9036 170.239 85.8414 170.301Z" fill="#263238"/>
<path d="M0.503006 48.7385C0.689331 48.2421 1.31041 47.9939 1.31041 47.9939L0.689323 46.7528C0.689323 46.7528 0.751438 46.0082 1.06198 45.4497C1.37253 44.8912 2.42839 44.9533 2.42839 44.9533L2.24205 44.581C1.99361 44.0845 2.05573 43.464 2.36628 43.0296C2.42839 42.9676 2.49049 42.9055 2.5526 42.8435C2.98736 42.285 3.91901 42.1609 3.91901 42.1609C3.91901 42.1609 3.29791 40.9819 3.54634 40.4855C3.919 39.8029 5.22329 39.1203 6.21703 39.4306C7.27288 39.8029 9.50882 40.8578 11.0616 41.7265C11.6826 42.0368 12.4279 41.7886 12.6764 41.106C13.1111 39.8649 13.9807 38.0033 15.0365 36.7002C16.2166 35.273 17.2725 35.3971 17.9557 35.6453C18.2662 35.7694 18.3904 36.1417 18.2041 36.39C17.7072 37.1966 16.7756 38.81 16.5271 39.4926C16.2166 40.2993 15.9061 46.4426 15.9061 46.4426L17.583 49.6073L34.5388 76.3522C34.5388 76.3522 60.0656 59.1635 60.0035 58.7291L61.1836 78.462L41.9298 91.2449C38.5759 93.4789 34.4146 94.0994 30.5638 92.9204C26.713 91.8034 23.6076 89.011 21.9927 85.3499L9.01195 57.2398L7.45922 54.9439L1.37253 51.0345C1.24831 50.9724 0.254566 49.235 0.503006 48.7385Z" fill="#FFBE9D"/>
<path d="M3.29833 42.1609C3.29833 42.1609 3.36043 42.2229 3.42254 42.285C3.54676 42.3471 3.67098 42.4712 3.7952 42.5953C4.10574 42.8435 4.60262 43.2158 5.1616 43.6502C5.72059 44.0845 6.46589 44.643 7.2112 45.2015C7.58385 45.5118 7.95651 45.822 8.45338 46.0702C8.88814 46.3185 9.50924 46.5046 10.0682 46.2564C10.3167 46.1323 10.5651 45.8841 10.6893 45.6359C10.8135 45.3877 10.8756 45.0774 10.8135 44.8292C10.8135 44.2707 10.503 43.7743 10.1924 43.464C9.88189 43.0917 9.50924 42.7814 9.19869 42.5332C8.88815 42.285 8.5776 41.9747 8.26706 41.7886C7.70808 41.3542 7.27331 40.9819 6.90065 40.6716C6.77643 40.5475 6.65221 40.4855 6.52799 40.3614C6.46588 40.2993 6.40379 40.2372 6.40379 40.2372C6.40379 40.2372 6.46588 40.2993 6.52799 40.3614C6.5901 40.4234 6.71432 40.5475 6.90065 40.6716C7.2112 40.9819 7.64596 41.3542 8.20495 41.7886C8.45338 42.0368 8.76393 42.285 9.13658 42.5953C9.44713 42.9055 9.81979 43.1537 10.1303 43.5261C10.4409 43.8984 10.6893 44.3328 10.7514 44.8292C10.8135 45.3256 10.5651 45.8841 10.0682 46.1323C9.81978 46.2564 9.57135 46.2564 9.32291 46.1944C9.07447 46.1323 8.82604 46.0702 8.5776 45.9461C8.14284 45.6979 7.77019 45.3256 7.33542 45.0774C6.59011 44.5189 5.84479 43.9604 5.28581 43.5261C4.72683 43.0917 4.22997 42.7814 3.91942 42.5332C3.79521 42.4091 3.60887 42.3471 3.54676 42.285C3.36044 42.1609 3.29833 42.0988 3.29833 42.1609Z" fill="#EB996E"/>
<path d="M1.93184 45.0153C1.93184 45.0153 2.05605 45.0774 2.24238 45.2635C2.42871 45.3876 2.67716 45.6358 3.04981 45.822C3.73301 46.3184 4.72676 46.939 5.84472 47.6216C6.09316 47.8077 6.40369 47.9318 6.65213 48.0559C6.96268 48.18 7.27322 48.2421 7.52165 48.2421C8.14275 48.18 8.51541 47.7457 8.70173 47.3113C8.82595 46.8769 8.70173 46.5046 8.63962 46.3184C8.57751 46.1943 8.5154 46.1323 8.5154 46.0702C8.4533 46.0082 8.45329 46.0082 8.45329 46.0082C8.45329 46.0082 8.5154 46.1323 8.63962 46.3184C8.70173 46.5046 8.82595 46.8769 8.63962 47.2492C8.5154 47.6215 8.14275 47.9939 7.58377 48.0559C7.33533 48.0559 7.02478 47.9939 6.77635 47.8698C6.52791 47.7457 6.21736 47.5595 5.96893 47.4354C4.85096 46.7528 3.85722 46.1323 3.17402 45.6979C2.86347 45.5117 2.55293 45.3256 2.36661 45.1394C2.05606 45.0774 1.93184 45.0153 1.93184 45.0153Z" fill="#EB996E"/>
<path d="M1.12405 47.8077C1.12405 47.8077 1.24827 47.8698 1.4346 47.9939C1.68303 48.118 1.93146 48.2421 2.24201 48.4283C2.92521 48.8006 3.91895 49.235 4.9748 49.7314C5.22324 49.8555 5.5338 49.9796 5.78223 50.1037C6.03067 50.1658 6.34121 50.2278 6.58964 50.1658C6.83808 50.1037 7.08652 49.9175 7.21074 49.7314C7.33495 49.4832 7.33496 49.297 7.33496 49.0488C7.27285 48.6144 7.02441 48.3662 6.83809 48.2421C6.65176 48.118 6.52753 48.0559 6.52753 48.0559C6.52753 48.0559 6.58965 48.118 6.77597 48.3042C6.90019 48.4283 7.14863 48.6765 7.21074 49.0488C7.21074 49.235 7.21074 49.4211 7.08652 49.6073C6.9623 49.7934 6.77597 49.9175 6.52753 49.9796C6.27909 50.0417 6.03067 49.9796 5.78223 49.9175C5.5338 49.8555 5.28535 49.6693 4.9748 49.5452C3.91895 49.0488 2.9252 48.6144 2.17989 48.2421C1.86935 48.118 1.55881 47.9939 1.31037 47.8698C1.24826 47.8077 1.18616 47.8077 1.12405 47.8077Z" fill="#EB996E"/>
<path d="M0.689095 50.414C0.689095 50.414 1.06175 50.5381 1.68284 50.6622C2.30393 50.7863 3.11134 50.9724 4.04298 51.1586C4.29142 51.2207 4.47775 51.2207 4.72618 51.2827C4.91251 51.3448 5.16095 51.3448 5.40939 51.3448C5.59571 51.3448 5.84415 51.2827 5.96836 51.1586C6.15469 51.0345 6.2168 50.8483 6.2168 50.6622C6.2168 50.2899 5.96838 50.1037 5.84416 50.0416C5.71994 49.9175 5.59571 49.9175 5.59571 49.9175C5.59571 49.9175 5.65783 49.9796 5.78204 50.1037C5.90626 50.2278 6.09259 50.414 6.09259 50.7242C6.09259 50.8483 6.03047 51.0345 5.90625 51.0965C5.78203 51.2207 5.59571 51.2827 5.40939 51.2827C5.22306 51.2827 5.03673 51.2207 4.7883 51.2207C4.53986 51.1586 4.35353 51.1586 4.10509 51.0965C3.17346 50.9104 2.36605 50.7242 1.74496 50.6622C1.12387 50.414 0.689095 50.414 0.689095 50.414Z" fill="#EB996E"/>
<path d="M7.33537 49.1729C7.33537 49.235 8.08067 48.9247 9.07442 48.9868C10.0682 49.0488 10.7514 49.3591 10.8135 49.297C10.8135 49.297 10.1303 48.8627 9.13653 48.8006C8.08068 48.8006 7.33537 49.1109 7.33537 49.1729Z" fill="#EB996E"/>
<path d="M98.5735 43.3399C98.5735 43.3399 107.145 36.0797 105.157 31.1154C103.17 26.1512 97.6418 23.669 94.909 14.6093C92.7352 7.34906 79.8165 -6.6129 64.5377 3.87408C64.5377 3.87408 59.3826 3.06739 56.4014 5.42541C53.4202 7.78343 52.737 12.4995 51.4948 17.8981C49.5694 26.2753 48.5135 32.7288 52.2401 36.8243C55.9666 40.9198 57.333 42.0368 57.1467 46.6908C56.8983 52.772 54.2276 51.9653 56.5256 56.3711L69.3822 52.2135L69.5064 48.6765L70.8107 52.0273L78.2638 49.3591L98.5735 43.3399Z" fill="#263238"/>
<path d="M55.8437 12.7477C56.6511 14.6713 55.9679 16.8432 55.2226 18.8289C54.4151 20.7525 53.4835 22.8003 53.9183 24.848C54.6015 28.5092 59.1354 30.4949 59.6323 34.156C59.8807 36.1417 58.887 38.1274 59.3218 40.0511C59.6944 41.9127 61.2471 43.3399 62.9241 44.2707C64.601 45.2015 66.4643 45.822 68.017 46.939C68.017 46.939 71.4951 49.7934 77.3955 45.0774" fill="#263238"/>
<path d="M80.2521 8.03166C81.867 7.65934 83.4818 8.59014 83.9787 10.1415L96.3384 51.0345C97.9532 55.8126 91.9287 60.901 86.7736 62.5764C81.5564 64.2518 80.5627 61.7697 78.8857 57.3019C76.1529 49.7934 75.1592 46.939 75.1592 47.0011C75.1592 47.0011 68.2651 48.1801 63.9796 40.1752C61.8678 36.2038 59.6319 29.1918 58.0171 23.4208C56.5886 18.2084 57.7686 10.8241 63.0479 9.58299L80.2521 8.03166Z" fill="#FFBE9D"/>
<path d="M62.365 27.6405C62.5513 28.1989 63.1724 28.5713 63.7935 28.3851C64.4146 28.1989 64.7252 27.5784 64.6009 27.0199C64.4146 26.4615 63.7935 26.0891 63.1724 26.2753C62.4892 26.4615 62.1787 27.082 62.365 27.6405Z" fill="#263238"/>
<path d="M60.626 26.1512C60.8123 26.2753 61.4334 25.3445 62.6135 24.9722C63.7936 24.5378 64.8494 24.8481 64.9115 24.6619C64.9736 24.5999 64.7252 24.3517 64.2283 24.2276C63.7936 24.1034 63.0482 24.0414 62.3029 24.2896C61.5576 24.5378 61.0608 25.0342 60.8123 25.4066C60.5639 25.8409 60.5639 26.1512 60.626 26.1512Z" fill="#263238"/>
<path d="M73.9793 23.9793C74.1656 24.5378 74.7867 24.9101 75.4078 24.724C76.0289 24.5378 76.3394 23.9173 76.2152 23.3588C76.0289 22.8003 75.4078 22.428 74.7867 22.6142C74.1035 22.7383 73.7929 23.3588 73.9793 23.9793Z" fill="#263238"/>
<path d="M72.3018 22.6762C72.4881 22.8003 73.1092 21.8695 74.2893 21.4972C75.4693 21.0628 76.5252 21.3731 76.5873 21.1869C76.6494 21.1249 76.401 20.8767 75.9041 20.7526C75.4693 20.6285 74.724 20.5664 73.9787 20.8146C73.2334 21.0628 72.7365 21.5593 72.4881 21.9316C72.3018 22.3039 72.2397 22.6142 72.3018 22.6762Z" fill="#263238"/>
<path d="M71.1221 32.8529C71.1221 32.7909 70.3146 32.915 69.0725 33.1632C68.7619 33.2253 68.4514 33.2873 68.3272 33.1012C68.2029 32.915 68.2029 32.5427 68.2029 32.1704C68.2029 31.3637 68.265 30.4949 68.265 29.5641C68.3893 25.903 68.3272 22.9244 68.2029 22.9244C68.0787 22.9244 67.8303 25.903 67.7682 29.5641C67.7682 30.4949 67.7061 31.3016 67.7061 32.1704C67.7061 32.5427 67.644 32.9771 67.9545 33.4114C68.1408 33.5976 68.3893 33.7217 68.5756 33.6596C68.7619 33.6596 68.9483 33.5976 69.1346 33.5355C70.3768 33.1632 71.1221 32.915 71.1221 32.8529Z" fill="#263238"/>
<path d="M75.0971 46.939C75.0971 46.939 80.9354 45.3256 85.4072 39.927C85.4072 39.927 84.5377 46.7528 75.7803 48.9247L75.0971 46.939Z" fill="#EB996E"/>
<path d="M72.5513 35.4591C72.7997 34.7765 73.4208 34.2181 74.1661 34.0319C74.663 33.9078 75.2841 33.9699 75.7189 34.2801C76.1536 34.5904 76.4642 35.1489 76.2778 35.6453C76.0915 36.2038 75.4704 36.514 74.8493 36.5761C74.2282 36.6381 73.6071 36.3899 73.0482 36.2038C72.8618 36.1417 72.7376 36.0797 72.6134 35.9556C72.5513 35.8315 72.4892 35.7073 72.5513 35.4591Z" fill="#EB996E"/>
<path d="M71.4329 19.3254C71.6192 19.6356 72.7993 19.2633 74.2899 19.1392C75.7805 19.0151 76.9606 19.2013 77.1469 18.891C77.209 18.7048 76.9606 18.4566 76.4016 18.2084C75.9048 17.9602 75.0973 17.8361 74.2278 17.8981C73.3583 17.9602 72.613 18.2705 72.1161 18.5807C71.5571 18.891 71.3708 19.2013 71.4329 19.3254Z" fill="#263238"/>
<path d="M58.9488 22.3039C59.2594 22.49 60.191 21.9315 61.3711 21.6213C62.5512 21.2489 63.607 21.1869 63.7934 20.8146C63.8555 20.6284 63.607 20.4423 63.1102 20.3182C62.6133 20.194 61.8059 20.194 60.9984 20.4423C60.191 20.6905 59.5699 21.1248 59.1973 21.5592C58.8246 21.8695 58.8246 22.1797 58.9488 22.3039Z" fill="#263238"/>
<path d="M94.5996 34.8386C92.3016 27.082 90.0035 19.3874 87.6434 11.6307C87.1465 10.0174 86.6496 8.34193 85.2832 7.34908C84.0411 6.41828 82.3641 6.29417 80.8114 6.23212C74.0415 6.10802 67.2716 6.7906 60.688 8.21783C60.3775 9.76915 61.7439 11.2584 63.2345 11.8169C64.7872 12.3133 66.4021 12.1272 68.0169 12.1892C69.6318 12.1892 71.3708 12.4995 72.4888 13.6785C73.6688 14.9196 73.731 16.9053 74.8489 18.2084C76.7122 20.4423 80.6872 20.0079 82.5504 22.2418C83.979 23.9793 83.6063 26.4614 84.0411 28.6333C84.6 31.1154 84.6 31.1154 86.5254 34.7145C87.7055 36.9484 84.7243 41.1681 87.7055 46.6908L93.4816 45.0774L90.9352 36.5761L94.3512 44.581L94.5996 34.8386Z" fill="#263238"/>
<path d="M74.6007 32.6668C74.4765 32.7288 74.5386 33.0391 74.5386 33.4735C74.5386 33.9078 74.4765 34.5284 74.228 35.0869C73.9175 35.6453 73.4827 36.0177 73.1101 36.2659C72.7374 36.5141 72.4269 36.6382 72.489 36.7623C72.489 36.8864 72.8616 37.0105 73.4206 36.8864C73.9796 36.7623 74.7249 36.3279 75.1597 35.5212C75.5944 34.7145 75.5323 33.8458 75.2839 33.3494C74.9733 32.8529 74.6628 32.6047 74.6007 32.6668Z" fill="#263238"/>
<path d="M76.2763 14.0508C76.2763 14.0508 76.4005 14.1128 76.5869 14.2369C76.8353 14.361 77.0837 14.4852 77.5185 14.7334C78.2638 15.2298 79.3818 15.9744 80.3755 17.2775C81.3693 18.5186 82.3009 20.3182 82.6114 22.428C82.7978 23.4829 82.7357 24.5998 82.6114 25.7788C82.4872 26.9578 82.3009 28.1369 82.363 29.44C82.4251 30.0605 82.5493 30.681 82.7357 31.3016C82.9841 31.86 83.2325 32.4185 83.5431 32.9149C84.1642 33.9078 84.7231 34.9006 84.8474 35.9556C85.0337 37.0105 84.9095 38.0033 84.7853 38.9341C84.661 39.8649 84.4747 40.7336 84.4126 41.6024C84.2884 43.2158 84.5368 44.5809 84.9716 45.4497C85.1579 45.8841 85.4064 46.1323 85.5927 46.3184C85.779 46.5046 85.8411 46.5666 85.9032 46.5666C85.9653 46.5666 85.5306 46.1943 85.0958 45.3876C84.7232 44.5809 84.4747 43.2778 84.661 41.6644C84.7232 40.8577 84.9095 39.989 85.0337 39.0582C85.1579 38.1274 85.2821 37.0725 85.1579 35.9556C84.9095 33.6596 82.7357 31.9841 82.6735 29.502C82.6114 28.261 82.7357 27.082 82.8599 25.9029C82.9841 24.7239 83.0462 23.5449 82.8599 22.49C82.5493 20.3182 81.5556 18.5186 80.4997 17.2775C79.4439 15.9744 78.3259 15.2298 77.5185 14.7954C77.1458 14.5472 76.7732 14.4231 76.5869 14.361C76.4005 14.0508 76.2763 14.0508 76.2763 14.0508Z" fill="#263238"/>
<path d="M48.4514 48.9247C48.4514 48.9247 48.5135 48.9867 48.5756 48.9867C48.6377 49.0488 48.7619 49.1109 48.8861 49.235C49.1967 49.4211 49.6314 49.6693 50.3146 49.7934C50.9357 49.9796 51.8053 50.0416 52.7369 49.8555C53.6685 49.7314 54.7244 49.297 55.5939 48.4283C56.4634 47.6216 57.1466 46.3805 57.333 44.9533C57.3951 44.2707 57.3951 43.5261 57.2087 42.7814C57.0224 42.0368 56.6498 41.3542 56.215 40.7337C55.2834 39.4306 53.9791 38.3757 52.799 37.2587C52.1779 36.7002 51.6189 36.0797 51.1221 35.3351C50.6252 34.6525 50.2525 33.8458 49.942 32.977C49.383 31.3016 49.2588 29.5641 49.2588 27.8887C49.3209 26.2132 49.5072 24.5999 49.7557 23.0485C50.2525 20.0079 51.06 17.2776 51.8053 15.1057C52.6127 12.8718 53.4201 11.1964 53.9791 10.0174C54.2896 9.45888 54.476 8.96245 54.6623 8.65219C54.8486 8.34192 54.9107 8.15576 54.9107 8.15576C54.9107 8.15576 54.7865 8.27987 54.6002 8.59014C54.4138 8.9004 54.1654 9.33477 53.8549 9.89325C53.2338 11.0723 52.3642 12.7477 51.5568 14.9816C50.7494 17.2155 49.942 19.8838 49.383 22.9865C49.1346 24.5378 48.8861 26.1512 48.8861 27.8887C48.824 29.5641 48.9483 31.3636 49.5693 33.1011C49.8799 33.9699 50.2525 34.7766 50.7494 35.5212C51.2463 36.2659 51.8674 36.8864 52.4885 37.4449C53.7306 38.6239 54.9728 39.6167 55.9045 40.9198C56.3392 41.5404 56.7119 42.2229 56.8982 42.9055C57.0845 43.5881 57.1466 44.3328 57.0224 44.9533C56.8361 46.3185 56.215 47.4975 55.4076 48.3042C54.6002 49.1109 53.6064 49.5452 52.6748 49.7314C51.7432 49.9175 50.9357 49.8555 50.3146 49.6693C49.0725 49.4211 48.4514 48.8626 48.4514 48.9247Z" fill="#263238"/>
<path d="M101.307 40.4854C101.307 40.4234 100.437 40.4234 99.3191 39.4926C98.2012 38.6238 96.959 36.7623 96.6485 34.156C96.4621 32.8529 96.5242 31.4257 96.5242 29.9364C96.5242 28.3851 96.5863 26.7096 96.1516 25.0342C95.9653 24.1655 95.5926 23.3588 95.1578 22.5521C94.661 21.7454 94.0399 21.0628 93.1704 20.5664C91.4934 19.5115 89.4438 19.5735 87.5805 18.953C86.6489 18.6427 85.8415 18.0843 85.2204 17.4017C84.5372 16.7191 84.0403 15.9124 83.5434 15.1057C82.5497 13.5544 81.6181 11.8789 80.0653 10.9481C79.32 10.4517 78.4505 10.2035 77.6431 10.0794C76.8357 9.95529 76.0282 9.95529 75.2208 9.95529C73.6681 10.0173 72.2396 10.1414 70.9974 9.89323C68.4509 9.52091 66.5256 8.46601 65.3455 7.65932C64.7244 7.22495 64.3517 6.85263 64.0412 6.60441C63.917 6.48031 63.7927 6.3562 63.7306 6.29415C63.6685 6.2321 63.6064 6.17004 63.6064 6.17004C63.6064 6.17004 64.1033 6.85263 65.2834 7.72137C66.4634 8.59012 68.3267 9.70708 70.9353 10.0794C72.2396 10.2656 73.6681 10.2035 75.2208 10.1414C76.7114 10.1414 78.4505 10.1414 79.879 11.0722C81.3075 12.003 82.2392 13.6164 83.2329 15.1678C83.7298 15.9744 84.2888 16.7811 84.972 17.4637C85.6552 18.1463 86.5247 18.7668 87.4563 19.0771C89.3817 19.7597 91.4313 19.6976 92.984 20.6905C94.5367 21.6213 95.4063 23.3588 95.841 24.9722C96.2758 26.6476 96.2758 28.261 96.2137 29.8123C96.2137 31.3636 96.2137 32.7908 96.3379 34.094C96.6485 36.7002 97.9527 38.6238 99.1328 39.4926C99.7539 39.927 100.251 40.1752 100.623 40.2372C100.81 40.2993 100.934 40.2993 101.058 40.3613C101.245 40.4854 101.307 40.5475 101.307 40.4854Z" fill="#85BC91"/>
<path d="M95.0339 14.7955C95.0339 14.7334 94.5991 14.9816 93.7917 15.1057C92.9843 15.2298 91.7421 15.1678 90.4378 14.5473C89.0714 13.9267 87.7671 12.8098 86.4007 11.3826C85.7175 10.7 85.0343 9.95533 84.2269 9.27274C83.4194 8.59016 82.4878 7.90757 81.432 7.4732C80.3761 7.03883 79.2581 6.91472 78.1402 6.85267C77.0843 6.85267 76.0285 6.91472 75.0968 7.03883C74.1031 7.10088 73.2336 7.22499 72.364 7.22499C71.4945 7.22499 70.6871 7.16294 70.0039 7.03883C68.5754 6.79062 67.5195 6.23213 66.8984 5.67366C66.2773 5.11518 66.0289 4.74286 66.0289 4.74286C66.0289 4.74286 66.091 4.86697 66.2152 5.05312C66.2773 5.17723 66.3395 5.23928 66.4637 5.36339C66.5879 5.4875 66.7121 5.61161 66.8363 5.73571C67.4574 6.29419 68.5133 6.91472 70.0039 7.22499C70.7492 7.34909 71.5566 7.4732 72.4261 7.4732C73.2957 7.4732 74.2273 7.41115 75.221 7.28704C76.2148 7.22499 77.2085 7.10088 78.2644 7.16293C79.3203 7.16293 80.3761 7.34909 81.432 7.72141C83.4816 8.59016 84.9722 10.2035 86.3386 11.5687C87.705 12.9339 89.0714 14.1129 90.4999 14.7334C91.8663 15.354 93.1706 15.354 93.978 15.2298C94.4128 15.1678 94.7233 15.0437 94.9096 14.9196C94.9717 14.8575 95.096 14.7955 95.0339 14.7955Z" fill="#85BC91"/>
<path d="M50.1282 32.2324C50.1903 32.2324 49.8797 31.86 49.8176 31.0534C49.6934 30.2467 49.9418 29.1297 50.6872 27.8886C51.4325 26.6476 52.7368 25.5927 54.1032 24.2896C54.7864 23.607 55.4696 22.8623 55.9043 21.9315C56.4012 21.0007 56.5875 19.8838 56.6496 18.8289C56.7738 16.595 56.4012 14.5472 56.4633 12.6856C56.4633 10.824 56.8981 9.14859 57.8297 8.03163C58.6992 6.91467 59.8172 6.41825 60.5625 6.29414C61.3699 6.17003 61.8047 6.29414 61.8047 6.29414C61.8047 6.29414 61.6805 6.23209 61.4941 6.23209C61.3078 6.17003 60.9973 6.17003 60.5625 6.23209C59.7551 6.29414 58.6371 6.85262 57.7055 7.96958C56.7117 9.08653 56.2149 10.824 56.2149 12.7477C56.1528 14.6713 56.5254 16.7191 56.4012 18.8909C56.3391 19.9458 56.0906 21.0007 55.6559 21.8695C55.2211 22.8003 54.6 23.5449 53.9168 24.1655C52.6125 25.4686 51.2461 26.5855 50.5008 27.8886C49.7555 29.1297 49.5692 30.3708 49.6934 31.1775C49.7555 31.5498 49.8797 31.86 49.9418 32.0462C50.0661 32.1083 50.1282 32.2324 50.1282 32.2324Z" fill="#85BC91"/>
<path d="M105.095 35.9556C105.095 35.9556 105.219 35.8935 105.468 35.7074C105.716 35.5212 106.089 35.273 106.461 34.8386C107.207 33.9699 107.952 32.3565 107.642 30.3087C107.517 29.8123 107.393 29.3159 107.083 28.8195C106.772 28.323 106.399 27.8887 105.965 27.4543C105.095 26.6476 103.915 26.0271 102.735 25.4686C101.555 24.9101 100.313 24.2896 99.2568 23.2967C98.2631 22.3039 97.7041 20.8767 97.3315 19.4494C96.9588 17.9602 96.7104 16.4709 96.2135 15.1057C95.7166 13.7405 95.0955 12.4374 94.4123 11.3205C92.9838 9.02451 91.3069 7.28702 89.692 6.10801C88.0772 4.86695 86.6487 4.12231 85.5928 3.68793C85.096 3.43972 84.6612 3.31562 84.3507 3.25356C84.0401 3.19151 83.9159 3.12946 83.9159 3.12946C83.9159 3.19151 84.4749 3.37767 85.5307 3.81204C86.5245 4.24641 88.0151 5.0531 89.5678 6.29417C91.1206 7.53523 92.7975 9.27272 94.1639 11.5066C94.8471 12.6236 95.4682 13.8647 95.903 15.2298C96.3998 16.595 96.6483 18.0222 97.0209 19.5735C97.3936 21.0628 98.0147 22.5521 99.0705 23.607C100.126 24.6619 101.431 25.2824 102.611 25.8409C103.791 26.3994 104.909 27.0199 105.778 27.7646C106.213 28.1369 106.586 28.5713 106.834 29.0677C107.083 29.5641 107.269 29.9985 107.331 30.4949C107.517 31.4878 107.393 32.3565 107.207 33.1011C106.958 33.8458 106.648 34.4663 106.275 34.9007C105.654 35.6453 105.033 35.8935 105.095 35.9556Z" fill="#263238"/>
<path d="M48.3893 32.7909C48.3893 32.7909 48.1408 32.4806 47.7061 31.9221C47.3334 31.3637 46.8366 30.4329 46.5881 29.1918C46.3397 27.9507 46.3397 26.3994 46.7123 24.786C47.085 23.1726 47.8924 21.4972 48.9483 19.8838C49.942 18.2084 51.06 16.7191 51.9916 15.3539C52.9232 13.9267 53.6686 12.6236 54.1654 11.4446C54.6623 10.2656 54.9728 9.27273 55.035 8.52809C55.0971 8.15577 55.1592 7.90756 55.1592 7.7214C55.1592 7.53524 55.1592 7.41113 55.1592 7.41113C55.0971 7.41113 55.0971 7.78345 54.9107 8.46603C54.7865 9.14862 54.476 10.1415 53.917 11.3205C53.358 12.4995 52.6127 13.8026 51.6811 15.1678C50.7494 16.5329 49.6315 18.0222 48.5756 19.6977C47.5198 21.3731 46.7123 23.0485 46.3397 24.724C45.967 26.3994 45.967 27.9507 46.2776 29.1918C46.5881 30.4329 47.085 31.4257 47.5198 31.9842C47.7682 32.2944 47.9545 32.4806 48.0787 32.6047C48.2651 32.7288 48.3893 32.7909 48.3893 32.7909Z" fill="#263238"/>
<path d="M112.859 119.293L117.952 128.167C117.952 128.167 143.292 118.921 158.137 121.589C163.788 122.644 169.875 135.427 161.615 143.618C153.603 151.623 139.255 162.978 112.362 166.64C111.679 166.702 100.686 169.122 101.369 168.998C102.052 168.936 85.9036 171.48 85.9036 171.48L82.115 157.145L52.0542 161.861C34.3531 160.682 25.6578 141.756 36.3406 135.613C46.278 129.904 64.9729 129.47 64.9729 129.47L71.7428 118.859L112.859 119.293Z" fill="#263238"/>
<path d="M85.2823 171.976C85.2202 171.48 84.9717 170.177 84.537 167.508C84.2885 166.081 83.978 164.344 83.6053 162.358C83.419 161.365 83.2327 160.31 82.9221 159.193C82.7979 158.635 82.6737 158.076 82.4874 157.456C82.4253 157.145 82.301 156.897 82.2389 156.587C82.1147 156.277 82.0526 155.966 81.8042 155.718L81.7421 155.904C88.1393 153.608 96.1514 150.63 104.66 147.031C109.877 144.797 114.846 142.563 119.194 140.205C121.368 139.026 123.417 137.847 125.156 136.482C126.895 135.179 128.51 133.875 130.001 132.758C132.92 130.463 135.591 128.973 137.578 128.353C138.075 128.167 138.51 128.042 138.882 127.98C139.255 127.856 139.628 127.794 139.876 127.794C140.125 127.732 140.311 127.732 140.497 127.67C140.621 127.67 140.684 127.608 140.684 127.608C140.684 127.608 140.621 127.608 140.497 127.608C140.311 127.608 140.125 127.67 139.876 127.67C139.628 127.732 139.255 127.732 138.882 127.856C138.51 127.918 138.013 128.042 137.516 128.229C136.522 128.539 135.342 129.035 134.038 129.78C132.734 130.525 131.367 131.455 129.877 132.572C128.386 133.689 126.833 134.992 125.032 136.296C123.293 137.599 121.243 138.778 119.07 139.957C114.722 142.253 109.753 144.487 104.536 146.72C96.0272 150.32 88.0151 153.298 81.68 155.656L81.4936 155.718L81.6178 155.842C81.8042 156.028 81.9284 156.339 81.9905 156.649C82.1147 156.959 82.1768 157.207 82.2389 157.518C82.4253 158.076 82.5495 158.697 82.6737 159.193C82.9221 160.31 83.1706 161.365 83.3569 162.358C83.7296 164.344 84.0401 166.081 84.3507 167.508C84.5991 168.935 84.8475 170.052 84.9717 170.797C85.0339 171.169 85.096 171.48 85.1581 171.666C85.2823 171.914 85.2823 171.976 85.2823 171.976Z" fill="#85BC91"/>
<path d="M42.1792 137.412C42.1792 137.412 42.2413 137.412 42.3655 137.412C42.4897 137.412 42.6139 137.35 42.8624 137.35C43.2971 137.288 43.8561 137.164 44.6635 137.04C46.2163 136.792 48.5143 136.668 51.3092 136.792C54.1041 136.916 57.458 137.475 61.0603 138.405C62.8615 138.902 64.7248 139.46 66.6502 140.143C68.5755 140.825 70.5009 141.57 72.5505 142.377C74.538 143.183 76.5876 143.804 78.5751 144.362C80.5626 144.921 82.488 145.355 84.2891 145.666C87.9536 146.41 91.3075 146.845 94.1024 147.155C96.8973 147.465 99.1953 147.713 100.748 147.899C101.493 147.962 102.114 148.024 102.549 148.086C102.736 148.086 102.922 148.086 103.046 148.148C103.17 148.148 103.232 148.148 103.232 148.148C103.232 148.148 103.17 148.148 103.046 148.086C102.922 148.086 102.798 148.024 102.549 148.024C102.114 147.962 101.493 147.899 100.748 147.775C99.1332 147.589 96.8973 147.279 94.1024 146.969C91.3075 146.596 87.9536 146.162 84.2891 145.417C82.488 145.045 80.5626 144.611 78.5751 144.052C76.6497 143.494 74.6001 142.873 72.6126 142.066C70.6251 141.26 68.6376 140.515 66.7123 139.833C64.7869 139.15 62.9236 138.591 61.0603 138.157C57.458 137.226 54.1041 136.73 51.2471 136.606C48.3901 136.482 46.092 136.668 44.5393 136.916C43.7319 137.04 43.1729 137.164 42.7382 137.288C42.5518 137.35 42.4276 137.35 42.3034 137.412C42.2413 137.35 42.1792 137.35 42.1792 137.412Z" fill="#85BC91"/>
<path d="M88.4502 132.262C88.4502 132.448 89.8166 132.821 92.0526 133.007C94.2885 133.193 97.456 133.255 100.872 132.883C104.288 132.51 107.394 131.828 109.505 131.145C111.679 130.463 112.921 129.842 112.859 129.656C112.735 129.221 107.394 130.649 100.686 131.331C94.04 132.014 88.5123 131.766 88.4502 132.262Z" fill="#263238"/>
<path d="M64.7245 129.718C64.7245 129.718 65.0972 129.842 65.7183 129.966C66.0288 130.028 66.4015 130.152 66.8983 130.276C67.3331 130.4 67.8921 130.525 68.3889 130.711C69.5069 131.083 70.8112 131.579 72.2397 132.262C73.6682 132.945 75.1588 133.751 76.7116 134.62C79.817 136.482 82.4256 138.467 84.2268 139.895C85.1584 140.639 85.9037 141.26 86.4006 141.632C86.8975 142.066 87.208 142.253 87.208 142.253C87.208 142.253 86.9596 142.004 86.4627 141.508C85.9658 141.074 85.2826 140.391 84.351 139.646C82.5498 138.157 79.9412 136.109 76.8358 134.248C75.2831 133.317 73.7303 132.51 72.3018 131.89C70.8733 131.269 69.569 130.773 68.3889 130.4C67.83 130.214 67.3331 130.09 66.8362 129.966C66.4015 129.842 65.9667 129.78 65.6561 129.718C65.0972 129.78 64.7245 129.718 64.7245 129.718Z" fill="#85BC91"/>
<path d="M92.8596 142.315C92.8596 142.377 93.5428 142.191 94.6608 141.818C95.7166 141.446 97.2073 140.763 98.6979 139.957C100.188 139.15 101.555 138.467 102.611 137.909C103.604 137.413 104.226 137.102 104.226 137.04C104.226 136.978 103.542 137.226 102.487 137.723C101.431 138.219 100.064 138.902 98.5116 139.708C96.9588 140.515 95.5303 141.198 94.5366 141.632C93.5428 142.066 92.8596 142.315 92.8596 142.315Z" fill="#85BC91"/>
<path d="M90.127 120.348C90.0649 120.348 90.1891 121.279 90.2512 122.768C90.3754 124.257 90.4376 126.305 90.3754 128.601C90.3133 130.897 90.1891 132.945 90.0028 134.434C89.8786 135.923 89.7544 136.854 89.7544 136.854C89.7544 136.854 89.8165 136.606 89.9407 136.234C90.0028 135.799 90.127 135.241 90.2512 134.496C90.4376 133.007 90.686 130.959 90.686 128.663C90.7481 126.367 90.6239 124.257 90.4376 122.768C90.3754 122.023 90.3133 121.403 90.1891 121.03C90.1891 120.596 90.1891 120.348 90.127 120.348Z" fill="#85BC91"/>
<path d="M87.3324 121.279C87.3324 121.279 87.4566 121.403 87.5808 121.589C87.7671 121.775 87.8913 122.085 87.9534 122.52C88.0156 122.954 87.9534 123.451 87.5808 123.885C87.2081 124.319 86.5249 124.443 85.966 124.195C85.3449 123.947 84.9101 123.451 84.9101 122.892C84.9101 122.334 85.2206 121.899 85.5312 121.589C85.8417 121.279 86.2144 121.217 86.4007 121.155C86.6492 121.092 86.7734 121.155 86.7734 121.093C86.7734 121.093 86.6492 121.03 86.4007 121.03C86.1523 121.03 85.7175 121.155 85.3449 121.403C84.9722 121.713 84.5996 122.209 84.5996 122.892C84.5996 123.575 85.0964 124.257 85.8417 124.505C86.5249 124.754 87.3945 124.63 87.7671 124.071C88.2019 123.575 88.264 122.954 88.1398 122.458C88.0156 121.961 87.8292 121.651 87.5808 121.465C87.4566 121.279 87.3324 121.279 87.3324 121.279Z" fill="#85BC91"/>
<path d="M79.6305 111.04C79.6305 111.04 79.8169 111.288 80.1274 111.66C80.438 112.033 80.9348 112.591 81.618 113.212C82.3012 113.832 83.1086 114.577 84.1024 115.26C85.0961 115.942 86.2141 116.687 87.4563 117.307C88.6985 117.928 89.9407 118.424 91.1207 118.797C92.3008 119.169 93.3567 119.417 94.2883 119.541C95.2199 119.665 95.9031 119.789 96.4621 119.789C96.959 119.789 97.2695 119.789 97.2695 119.789C97.2695 119.727 96.1516 119.665 94.3504 119.293C93.4809 119.107 92.425 118.859 91.2449 118.486C90.127 118.114 88.8848 117.618 87.6426 116.997C86.4004 116.376 85.2825 115.694 84.2887 115.011C83.295 114.329 82.4876 113.646 81.8044 113.026C80.3758 111.847 79.6305 110.978 79.6305 111.04Z" fill="#263238"/>
<path d="M68.2646 117.928C68.2646 118.052 69.3826 118.052 70.6869 118.362C71.9912 118.672 72.9849 119.169 73.047 119.107C73.1092 119.045 72.1154 118.362 70.749 118.052C69.3826 117.68 68.2646 117.866 68.2646 117.928Z" fill="#263238"/>
<g opacity="0.3">
<g opacity="0.3">
<path opacity="0.3" d="M94.3506 119.479C89.0092 118.548 84.0405 115.632 80.5003 111.474C79.8171 113.398 80.376 115.756 81.8667 117.183C80.3139 117.928 78.4507 117.431 76.7116 117.183C74.9726 116.935 72.8608 117.183 72.0534 118.735C79.755 119.479 87.5186 119.665 95.2822 119.417" fill="black"/>
</g>
</g>
<path d="M109.754 107.317C109.816 107.379 110.561 106.324 112.424 105.579C113.356 105.207 114.536 104.959 115.84 105.021C117.145 105.083 118.573 105.393 119.877 106.138C122.61 107.565 124.163 109.923 125.405 111.474C125.964 112.281 126.337 113.026 126.647 113.522C126.896 114.018 127.082 114.267 127.082 114.267C127.082 114.267 127.02 113.956 126.771 113.46C126.523 112.964 126.213 112.219 125.654 111.35C125.095 110.543 124.349 109.613 123.48 108.558C122.61 107.565 121.43 106.572 120.064 105.827C118.697 105.083 117.207 104.773 115.84 104.71C114.474 104.71 113.294 104.959 112.362 105.393C111.431 105.765 110.747 106.324 110.375 106.696C110.188 106.882 110.002 107.068 109.94 107.193C109.816 107.255 109.754 107.317 109.754 107.317Z" fill="#263238"/>
<path d="M93.4805 47.8077L102.176 49.6693L97.8281 65.8652L82.4872 69.154L71.9286 61.7076L70.5001 52.772L79.506 49.3591L93.4805 47.8077Z" fill="#FFBE9D"/>
<path d="M99.6292 48.9868C99.6292 48.9868 93.791 65.9893 82.9219 64.438C72.0528 62.8867 72.9844 51.8412 72.9844 51.8412C72.9844 51.8412 61.6805 55.3162 58.1403 58.9773C54.6622 62.6385 56.7118 70.6433 56.7118 70.6433L59.631 85.0396L66.0282 112.591C66.0282 112.591 63.6059 120.1 69.8168 121.961L71.8043 118.859L109.256 119.914C109.256 119.914 117.268 129.159 119.753 125.933C122.237 122.768 124.659 116.563 124.659 116.563L107.455 50.9725L99.6292 48.9868Z" fill="#85BC91"/>
<path d="M61.1217 56.7434C60.8112 56.9296 34.539 75.9799 34.539 75.9799C34.539 75.9799 36.5886 91.6793 23.9805 89.1972C23.9805 89.1972 29.0734 102.29 35.9675 99.5601C37.955 98.7534 62.1155 83.4883 62.1155 83.4883L67.2705 72.5049L61.1217 56.7434Z" fill="#85BC91"/>
<path d="M99.6292 49.7935C99.6292 49.7935 100.25 49.7935 101.244 49.9176C106.399 50.414 125.342 54.3233 127.144 67.7268C128.075 74.7388 128.324 95.2164 129.317 103.78C129.317 103.78 127.703 115.694 127.144 117.928C126.088 121.837 107.082 115.57 107.082 115.57L107.02 77.7174L100.25 49.8555" fill="#85BC91"/>
<path d="M111.617 84.2329C111.617 84.2329 111.617 84.357 111.617 84.5432C111.617 84.7293 111.617 85.0396 111.554 85.4119C111.492 86.1566 111.244 87.2735 110.747 88.5146C110.25 89.8177 109.505 91.2449 108.76 92.9204C108.387 93.727 108.014 94.6578 107.766 95.5886C107.517 96.5815 107.331 97.5743 107.269 98.6292C107.083 100.739 107.269 102.725 107.393 104.524C107.58 106.324 107.704 107.937 107.952 109.302C108.201 110.668 108.449 111.722 108.697 112.467C108.822 112.839 108.946 113.088 109.008 113.274C109.07 113.46 109.132 113.584 109.132 113.522C109.132 113.522 109.008 113.088 108.822 112.405C108.635 111.66 108.387 110.606 108.201 109.24C108.014 107.875 107.89 106.262 107.766 104.462C107.642 102.663 107.455 100.677 107.642 98.5672C107.704 97.5123 107.89 96.5194 108.138 95.5886C108.387 94.6578 108.76 93.7891 109.07 92.9204C109.815 91.2449 110.499 89.8177 110.996 88.5146C111.492 87.2115 111.679 86.0945 111.679 85.3499C111.679 84.9776 111.679 84.6673 111.679 84.4811C111.617 84.295 111.617 84.2329 111.617 84.2329Z" fill="#263238"/>
<path d="M110.747 79.4548C110.685 79.4548 110.623 80.4477 110.436 81.937C110.25 83.4883 109.815 85.5981 109.07 87.832C108.884 88.3905 108.697 88.949 108.449 89.4454C108.387 89.5695 108.325 89.7557 108.325 89.8177C108.263 89.9418 108.2 90.0659 108.076 90.19C107.952 90.4382 107.766 90.6244 107.704 90.8726C107.207 91.8034 107.02 92.7342 107.02 93.5409C107.02 94.3476 107.207 94.9681 107.393 95.4025C107.579 95.7748 107.704 96.023 107.766 96.023C107.828 96.023 107.269 95.1543 107.269 93.6029C107.269 92.8583 107.517 91.9275 108.014 91.0588C108.138 90.8106 108.263 90.6244 108.387 90.3762C108.449 90.2521 108.511 90.128 108.635 90.0659C108.759 89.8798 108.759 89.8177 108.821 89.6315C109.008 89.1351 109.256 88.5766 109.443 88.0182C110.188 85.7222 110.623 83.6124 110.747 82.0611C110.809 81.2544 110.871 80.6338 110.871 80.1995C110.809 79.703 110.809 79.4548 110.747 79.4548Z" fill="#263238"/>
<path d="M110.002 73.746C110.064 73.746 110.312 73.0013 110.871 71.7603C111.43 70.5192 112.3 68.9058 113.48 67.2304C114.66 65.555 115.964 64.1898 116.896 63.259C117.89 62.3282 118.511 61.8318 118.511 61.7697C118.511 61.7697 118.324 61.8938 118.014 62.08C117.703 62.3282 117.269 62.6385 116.772 63.0728C115.716 63.9416 114.412 65.3067 113.231 67.0442C112.051 68.7197 111.182 70.4572 110.685 71.6982C110.437 72.3188 110.25 72.8772 110.126 73.1875C110.002 73.5598 109.94 73.746 110.002 73.746Z" fill="#263238"/>
<path d="M56.1525 62.6384C56.0904 62.6384 56.1525 63.1969 56.2768 64.1277C56.401 65.0585 56.5252 66.2996 56.7115 67.7268C56.8357 69.154 56.96 70.3951 57.0221 71.3259C57.0842 72.2567 57.1463 72.8151 57.2084 72.8151C57.2705 72.8151 57.2705 72.2567 57.2705 71.3259C57.2705 70.3951 57.1463 69.092 57.0221 67.6647C56.8979 66.2375 56.7115 64.9964 56.5252 64.0657C56.3389 63.1969 56.2146 62.6384 56.1525 62.6384Z" fill="#263238"/>
<path d="M50.7489 78.5861C50.7489 78.6482 51.5563 78.7102 52.8606 79.0825C54.1028 79.4549 55.8418 80.1995 57.2082 81.6267C57.8914 82.3714 58.4504 83.116 58.8852 83.9227C59.3199 84.6673 59.6305 85.412 59.8168 86.0325C59.941 86.3428 60.0031 86.591 60.1274 86.9012C60.1895 87.1495 60.2516 87.3356 60.3137 87.5218C60.4379 87.8941 60.5 88.0802 60.5 88.0802C60.5 88.0802 60.5 87.8941 60.4379 87.5218C60.3758 87.3356 60.3758 87.0874 60.3137 86.8392C60.2516 86.591 60.1273 86.2807 60.0652 85.9704C59.8789 85.3499 59.5684 84.6053 59.1336 83.7986C58.6988 82.9919 58.1399 82.1852 57.4567 81.4406C56.0282 79.9513 54.227 79.2066 52.9227 78.8964C52.6122 78.8343 52.3016 78.7723 52.0532 78.7102C51.8047 78.6482 51.5563 78.6482 51.37 78.6482C50.9352 78.5241 50.7489 78.5241 50.7489 78.5861Z" fill="#263238"/>
<path d="M33.3588 95.8369C33.3588 95.8369 33.5452 95.5887 33.7936 95.1543C33.9178 94.9061 34.1041 94.6579 34.2283 94.2855C34.3526 93.9753 34.601 93.5409 34.7252 93.1065C35.0979 92.2378 35.4084 91.1829 35.719 89.9418C36.0295 88.7628 36.2158 87.3976 36.3401 85.9704C36.4022 84.5432 36.4022 83.178 36.278 81.937C36.1537 80.6959 35.9674 79.5789 35.719 78.7102C35.5948 78.2758 35.4705 77.8415 35.3463 77.4691C35.2221 77.0968 35.16 76.7865 35.0358 76.5383C34.8494 76.0419 34.7252 75.7937 34.7252 75.7937C34.6631 75.7937 35.0979 76.9107 35.4705 78.7102C35.6569 79.641 35.8432 80.6959 35.9674 81.937C36.0916 83.178 36.0916 84.4811 36.0295 85.9084C35.9053 87.3356 35.719 88.6387 35.4705 89.8177C35.16 90.9967 34.8494 92.0516 34.5389 92.9204C33.8557 94.782 33.2967 95.7748 33.3588 95.8369Z" fill="#263238"/>
<path d="M40.1911 91.1829C40.1911 91.1829 40.3154 90.9346 40.4396 90.5003C40.5638 90.0659 40.7501 89.4454 40.8122 88.6387C41.0607 87.0253 40.9986 84.7293 40.2533 82.3093C39.508 79.8892 38.2037 78.0276 37.0857 76.8486C36.5267 76.2901 35.8435 75.9178 35.4087 75.9178C35.1603 75.9178 34.974 75.9798 34.8498 76.0419C34.7255 76.104 34.6634 76.166 34.7255 76.166C34.7255 76.2281 34.974 76.0419 35.4087 76.1039C35.8435 76.166 36.4025 76.4763 36.9615 77.0347C38.0173 78.2138 39.2595 80.1374 40.0048 82.4334C40.7501 84.7914 40.8122 87.0253 40.688 88.6387C40.4396 90.19 40.129 91.1208 40.1911 91.1829Z" fill="#263238"/>
<path d="M82.9219 88.0803C82.9219 88.0803 82.984 88.3285 83.0462 88.8249C83.1083 89.0731 83.1704 89.3213 83.2946 89.6936C83.4188 90.0039 83.543 90.3762 83.7294 90.8106C84.0399 91.6173 84.5368 92.5481 85.1579 93.4789C85.7789 94.4097 86.5864 95.4646 87.4559 96.3954C88.3875 97.3262 89.3813 98.1329 90.3129 98.8155C91.2445 99.436 92.1762 99.9324 92.9836 100.305C93.3563 100.491 93.7289 100.615 94.0395 100.739C94.35 100.863 94.6605 100.925 94.909 100.987C95.4059 101.111 95.6543 101.173 95.6543 101.173C95.6543 101.111 94.6605 100.801 93.1078 100.057C92.3625 99.6842 91.4309 99.1878 90.4992 98.5672C89.5676 97.8847 88.636 97.14 87.7043 96.2092C86.7727 95.2784 86.0274 94.2856 85.4063 93.3548C84.7852 92.424 84.2883 91.4932 83.9778 90.7485C83.2325 89.0731 82.984 88.0803 82.9219 88.0803Z" fill="#263238"/>
<g opacity="0.3">
<g opacity="0.3">
<path opacity="0.3" d="M104.412 94.2235C105.592 89.8798 106.772 85.5361 108.014 81.1924C108.201 80.5718 108.449 79.8272 109.132 79.7031C109.753 79.579 110.312 80.1375 110.375 80.758C110.499 81.3785 110.437 82.0611 110.437 82.6816C110.126 85.5361 109.94 87.4597 108.635 89.6316C106.089 93.9133 107.766 95.961 107.766 95.961C107.58 101.173 108.014 108.31 109.629 113.646L108.076 120.1C106.648 115.322 103.294 111.288 102.735 106.324C102.238 102.228 103.294 98.1949 104.412 94.2235Z" fill="black"/>
</g>
</g>
<g opacity="0.3">
<g opacity="0.3">
<path opacity="0.3" d="M59.6309 85.1017C55.4074 87.3356 51.6188 90.3762 47.4575 92.7342C49.0723 89.3834 51.8051 86.0325 55.0969 84.233C55.9664 83.7365 56.9602 83.3022 57.9539 83.4883C58.9477 83.6124 59.693 84.1709 59.5066 85.1638" fill="black"/>
</g>
</g>
<g opacity="0.3">
<g opacity="0.3">
<path opacity="0.3" d="M35.2218 75.7317C36.6503 75.6696 37.7682 77.0348 38.5136 78.2759C40.501 81.8749 41.3706 86.0325 40.8737 90.128C40.8116 90.8726 40.501 91.7414 39.8178 91.8655C39.321 91.9896 38.762 91.5552 38.5136 91.1209C38.2651 90.6244 38.2651 90.066 38.2651 89.5695C38.2651 87.0874 38.4514 84.6053 38.0788 82.1231C37.7061 79.641 36.7745 77.1589 34.9733 75.4835" fill="black"/>
</g>
</g>
<path d="M100.933 80.3856C100.933 80.3856 100.871 80.3856 100.809 80.3856C100.685 80.3856 100.56 80.3856 100.374 80.3856C100.001 80.3856 99.4424 80.3236 98.6971 80.3236C97.2065 80.2615 95.0326 80.1374 92.362 80.0133C86.8964 79.7651 79.0706 79.4548 69.8164 79.0825H69.6921V79.2066C69.5058 86.7771 69.3195 95.4646 69.071 104.71C69.071 105.021 69.071 105.331 69.071 105.641V105.827H69.2574C79.4433 105.952 89.0081 106.758 97.0201 107.875H97.1444L97.2065 107.751C99.4424 99.6221 100.25 92.6722 100.498 87.77C100.622 85.3499 100.685 83.4262 100.685 82.1231C100.685 81.4405 100.685 80.9441 100.685 80.6338C100.685 80.4477 100.685 80.3236 100.685 80.2615C100.685 80.1995 100.685 80.1374 100.685 80.1374C100.685 80.1374 100.685 80.1995 100.685 80.2615C100.685 80.3856 100.685 80.5097 100.685 80.6338C100.685 81.0062 100.685 81.5026 100.685 82.1231C100.685 83.4262 100.622 85.3499 100.436 87.77C100.126 92.6101 99.2561 99.6221 97.0201 107.689L97.1444 107.565C89.1323 106.448 79.5675 105.579 69.3816 105.455L69.5679 105.641C69.5679 105.331 69.5679 105.021 69.5679 104.71C69.7542 95.4646 70.0027 86.7771 70.1269 79.2066L70.0027 79.3307C79.2569 79.703 87.0206 79.9513 92.5483 80.1995C95.2811 80.2615 97.4549 80.3856 98.8834 80.3856C99.6287 80.3856 100.188 80.4477 100.56 80.4477C100.747 80.4477 100.871 80.4477 100.995 80.4477C100.871 80.3856 100.933 80.3856 100.933 80.3856Z" fill="white"/>
<path d="M92.7354 99.1877C92.7975 99.1877 93.6049 95.0302 94.4744 89.8177C95.344 84.6052 95.9651 80.3856 95.903 80.3856C95.8408 80.3856 95.0334 84.5432 94.1639 89.7556C93.2944 94.9681 92.6733 99.1877 92.7354 99.1877Z" fill="white"/>
<path d="M91.8036 107.193C91.8657 107.193 92.1763 105.703 92.4868 103.78C92.7974 101.918 92.9216 100.367 92.8595 100.367C92.7974 100.367 92.4868 101.856 92.1763 103.78C91.9278 105.641 91.7415 107.193 91.8036 107.193Z" fill="white"/>
<path d="M86.4619 95.0302C86.4619 95.0302 86.524 94.844 86.6482 94.4717C86.7104 94.0994 86.8346 93.5409 86.9588 92.8583C87.2072 91.4932 87.5178 89.6316 87.7041 87.5218C87.8904 85.412 88.0146 83.4883 88.0146 82.1231C88.0146 81.4405 88.0146 80.8821 88.0146 80.5098C88.0146 80.1374 87.9525 79.8892 87.9525 79.8892C87.8904 79.8892 87.8904 80.758 87.7662 82.1231C87.7041 83.4883 87.5799 85.4119 87.3936 87.4597C87.2072 89.5695 86.8967 91.4311 86.7104 92.7963C86.5861 94.1614 86.3998 95.0302 86.4619 95.0302Z" fill="white"/>
<path d="M87.207 106.386C87.2691 106.386 87.6418 104.462 87.8902 101.98C88.2007 99.5601 88.3871 97.5744 88.2628 97.5744C88.2007 97.5744 87.8281 99.498 87.5796 101.98C87.2691 104.4 87.0828 106.324 87.207 106.386Z" fill="white"/>
<path d="M80.1887 105.89C80.1887 105.89 80.2508 105.517 80.3129 104.897C80.375 104.152 80.4371 103.221 80.5613 102.104C80.7477 99.7463 81.0582 96.5195 81.493 92.9204C81.9277 89.3213 82.3625 86.0946 82.673 83.7365C82.8594 82.6196 82.9836 81.6888 83.0457 80.9441C83.1078 80.2616 83.1699 79.9513 83.1699 79.9513C83.1699 79.9513 83.0457 80.3236 82.9215 80.9441C82.7973 81.5647 82.6109 82.5575 82.4246 83.6745C82.052 86.0325 81.5551 89.2593 81.1203 92.8584C80.6856 96.4574 80.4371 99.6842 80.3129 102.042C80.2508 103.221 80.1887 104.152 80.1887 104.835C80.1266 105.517 80.1266 105.89 80.1887 105.89Z" fill="white"/>
<path d="M74.1641 106.2C74.1641 106.2 74.2262 105.827 74.2262 105.145C74.2262 104.4 74.2262 103.469 74.2262 102.29C74.2262 99.8703 74.2883 96.5815 74.4746 92.9204C74.6609 89.2592 74.9094 85.9704 75.0957 83.5503C75.2199 82.3713 75.282 81.4405 75.3441 80.6959C75.4063 80.0133 75.4062 79.641 75.4062 79.641C75.4062 79.641 75.3441 80.0133 75.2199 80.6959C75.0957 81.3785 75.0336 82.3093 74.8473 83.4883C74.5988 85.8463 74.2883 89.1972 74.102 92.8583C73.9156 96.5195 73.9156 99.8083 73.9156 102.228C73.9156 103.407 73.9777 104.4 73.9777 105.083C74.1641 105.827 74.1641 106.2 74.1641 106.2Z" fill="white"/>
<g opacity="0.3">
<g opacity="0.3">
<path opacity="0.3" d="M95.157 101.173C94.2254 101.794 93.0453 102.042 91.8653 101.98C90.7473 101.918 89.6293 101.546 88.5735 101.111C87.145 100.553 85.8407 99.7462 84.7848 98.6293C83.729 97.3882 83.17 95.8369 82.8594 94.2235C82.611 92.6101 82.6731 90.9967 82.6731 89.3834C82.6731 89.3213 82.6731 89.2593 82.7352 89.1972C82.7973 89.0731 82.9837 89.0731 83.1079 89.1972C83.2321 89.2593 83.2321 89.3834 83.2942 89.5695C85.1575 94.9681 89.7535 99.3739 95.2812 100.863" fill="black"/>
</g>
</g>
<path d="M99.008 153.112L102.797 145.976L111.306 106.076C111.306 106.076 119.131 101.546 125.591 111.474C125.839 111.847 116.771 140.453 114.225 148.396L113.852 156.028C113.852 156.028 114.287 165.026 113.852 165.833C113.417 166.64 112.299 167.074 112.299 167.074C112.299 167.074 112.61 169.308 110.063 169.556C110.063 169.556 109.815 172.038 107.952 171.666C106.026 171.356 105.343 170.115 105.343 170.115C105.343 170.115 105.343 173.279 103.666 172.907C101.989 172.597 101.679 171.231 101.368 170.797C101.058 170.363 100.685 165.709 100.685 165.709V158.076L96.2752 161.613C95.033 162.234 93.1697 163.04 92.1139 162.11L99.008 153.112Z" fill="#FFBE9D"/>
<path d="M100.685 157.704C100.623 157.704 100.312 159.566 100.436 161.799C100.498 162.854 100.56 163.785 100.56 164.716C100.623 165.461 100.623 165.895 100.685 165.895C100.809 165.895 100.871 164.033 100.747 161.799C100.685 159.566 100.809 157.704 100.685 157.704Z" fill="#EB996E"/>
<path d="M105.529 163.04C105.467 163.04 105.343 164.716 105.343 166.826C105.343 168.936 105.343 170.611 105.467 170.611C105.529 170.611 105.653 168.936 105.653 166.826C105.715 164.716 105.653 163.04 105.529 163.04Z" fill="#EB996E"/>
<path d="M109.628 164.406C109.566 164.406 109.38 165.585 109.566 167.074C109.691 168.563 110.063 169.68 110.125 169.68C110.187 169.68 110.001 168.501 109.877 167.074C109.691 165.585 109.691 164.406 109.628 164.406Z" fill="#EB996E"/>
<path d="M112.238 163.537C112.175 163.537 112.175 164.281 112.238 165.274C112.3 166.205 112.486 166.95 112.548 166.95C112.61 166.95 112.61 166.205 112.548 165.212C112.486 164.281 112.3 163.537 112.238 163.537Z" fill="#EB996E"/>
</svg>
