<svg width="452" height="486" viewBox="0 0 452 486" fill="none" xmlns="http://www.w3.org/2000/svg">
<path d="M267.04 342.795V46.5053" stroke="#333333" stroke-miterlimit="10" stroke-linecap="round" stroke-linejoin="round"/>
<path d="M451.37 345.825H272.461L0.630474 437.387" stroke="#333333" stroke-miterlimit="10" stroke-linecap="round" stroke-linejoin="round"/>
<path d="M369.921 338.843H382.277V125.288H356.809L367.778 83.7885H400.811L411.78 125.288H386.312V338.843H398.668C405.224 338.843 410.646 344.376 410.772 351.227C410.772 351.227 410.772 351.227 410.772 351.359V351.49C410.393 354.52 398.668 356.892 384.295 356.892C369.921 356.892 358.196 354.52 357.818 351.49H357.692C357.818 344.508 363.239 338.843 369.921 338.843Z" fill="#333333"/>
<path d="M205.26 31.7501V283.247L24.0815 314.339V0.658707L205.26 31.7501ZM28.8726 103.813L120.912 109.215V21.8693L28.8726 6.58714V103.813ZM120.912 118.437L28.8726 114.089V201.962L120.912 197.483V118.437ZM128.35 196.956L202.234 193.399V122.258L128.35 118.7V196.956ZM128.35 23.1868V109.742L202.234 114.089V35.4389L128.35 23.1868ZM202.234 201.699L128.35 206.178V291.943L202.234 279.69V201.699ZM120.912 293.128V206.573L28.8726 212.106V308.41L120.912 293.128Z" fill="#333333" stroke="#333333" stroke-miterlimit="10" stroke-linecap="round" stroke-linejoin="round"/>
<path d="M267.796 467.951C187.788 467.951 122.929 446.835 122.929 420.787C122.929 394.739 187.788 373.623 267.796 373.623C347.803 373.623 412.663 394.739 412.663 420.787C412.663 446.835 347.803 467.951 267.796 467.951Z" fill="#85BC91"/>
<path opacity="0.5" d="M267.796 467.951C187.788 467.951 122.929 446.835 122.929 420.787C122.929 394.739 187.788 373.623 267.796 373.623C347.803 373.623 412.663 394.739 412.663 420.787C412.663 446.835 347.803 467.951 267.796 467.951Z" fill="white"/>
<path d="M280.025 212.765C280.025 212.765 312.806 208.681 334.492 226.335C356.052 243.988 374.712 317.501 374.208 352.808C373.83 387.983 361.221 405.637 329.701 420.129C298.181 434.62 239.427 429.219 206.52 418.284C173.613 407.349 162.896 369.539 163.274 349.251C163.653 328.962 185.339 305.512 192.651 300.506C199.964 295.5 220.767 285.092 231.106 268.888C241.571 252.551 256.7 217.244 280.025 212.765Z" fill="#85BC91"/>
<path opacity="0.13" d="M200.468 415.781C212.824 414.068 227.576 410.511 238.797 403.397C262.374 388.51 268.174 360.317 276.621 349.778C285.069 339.238 300.198 340.16 306.881 328.699C313.563 317.237 302.72 232.922 322.01 227.652C327.18 226.203 331.088 225.808 334.114 225.808C334.24 225.939 334.366 225.939 334.492 226.071C356.052 243.725 374.712 317.237 374.208 352.544C373.83 387.72 361.221 405.373 329.701 419.865C298.181 434.357 239.427 428.955 206.52 418.021C204.377 417.494 202.36 416.703 200.468 415.781Z" fill="#333333"/>
<path d="M280.025 212.765C280.025 212.765 312.806 208.681 334.492 226.335C356.052 243.988 374.712 317.501 374.208 352.808C373.83 387.983 361.221 405.637 329.701 420.129C298.181 434.62 239.427 429.219 206.52 418.284C173.613 407.349 162.896 369.539 163.274 349.251C163.653 328.962 185.339 305.512 192.651 300.506C199.964 295.5 220.767 285.092 231.106 268.888C241.571 252.551 256.7 217.244 280.025 212.765Z" stroke="#333333" stroke-miterlimit="10" stroke-linecap="round" stroke-linejoin="round"/>
<path d="M292.886 228.706C292.886 228.706 314.32 232.922 318.102 236.874C321.884 240.826 337.645 302.745 337.645 302.745C337.645 302.745 330.71 300.769 324.406 303.404C318.102 306.039 317.472 312.89 316.841 316.315C316.211 319.74 315.833 328.172 315.833 328.172C315.833 328.172 252.162 322.243 238.545 318.95C224.928 315.656 204.377 314.207 204.377 314.207C204.377 314.207 239.175 232.131 244.597 229.101C250.018 226.071 272.335 225.808 275.487 226.466C278.639 227.125 292.886 228.706 292.886 228.706Z" fill="#333333" stroke="#333333" stroke-miterlimit="10" stroke-linecap="round" stroke-linejoin="round"/>
<path d="M314.067 304.722L308.646 259.007" stroke="white" stroke-miterlimit="10" stroke-linecap="round" stroke-linejoin="round"/>
<path d="M309.907 271.127L302.72 261.246" stroke="white" stroke-miterlimit="10" stroke-linecap="round" stroke-linejoin="round"/>
<path d="M288.221 277.056C288.221 277.056 267.796 270.205 254.179 270.205" stroke="white" stroke-miterlimit="10" stroke-linecap="round" stroke-linejoin="round"/>
<path d="M268.805 258.216L270.191 269.151C270.191 269.151 266.661 269.151 266.409 270.732C266.157 272.313 267.67 274.025 267.67 274.025C267.67 274.025 257.835 279.559 256.575 286.146" stroke="white" stroke-miterlimit="10" stroke-linecap="round" stroke-linejoin="round"/>
<path d="M281.159 216.454C281.159 216.454 292.884 220.406 294.649 223.436C296.288 226.466 295.028 248.072 295.028 250.707C295.028 253.342 293.515 249.126 292.254 246.096C290.993 243.066 286.58 238.455 285.067 238.85C283.554 239.245 282.798 241.09 282.798 243.856C282.798 246.755 279.394 250.707 276.494 252.815C273.594 255.055 270.82 257.162 270.82 257.162C270.82 257.162 264.768 247.94 263.255 245.569C261.742 243.198 261.994 238.06 261.742 236.347C261.49 234.634 257.708 241.221 256.951 239.377C256.069 237.664 258.842 236.084 261.742 231.209C264.642 226.335 263.886 221.328 268.299 217.771C272.711 214.478 277.755 215.532 281.159 216.454Z" fill="white"/>
<path d="M294.651 223.436C295.786 225.544 295.534 235.688 295.282 243.197C292.634 239.64 287.086 232.79 283.808 234.107C279.774 235.688 278.135 247.94 278.135 247.94L280.908 216.585H281.034C281.16 216.453 292.886 220.406 294.651 223.436Z" fill="#85BC91"/>
<path opacity="0.5" d="M294.651 223.436C295.786 225.544 295.534 235.688 295.282 243.197C292.634 239.64 287.086 232.79 283.808 234.107C279.774 235.688 278.135 247.94 278.135 247.94L280.908 216.585H281.034C281.16 216.453 292.886 220.406 294.651 223.436Z" fill="white"/>
<path d="M281.159 216.454C281.159 216.454 292.884 220.406 294.649 223.436C296.288 226.466 295.028 248.072 295.028 250.707C295.028 253.342 293.515 249.126 292.254 246.096C290.993 243.066 286.58 238.455 285.067 238.85C283.554 239.245 282.798 241.09 282.798 243.856C282.798 246.755 279.394 250.707 276.494 252.815C273.594 255.055 270.82 257.162 270.82 257.162C270.82 257.162 264.768 247.94 263.255 245.569C261.742 243.198 261.994 238.06 261.742 236.347C261.49 234.634 257.708 241.221 256.951 239.377C256.069 237.664 258.842 236.084 261.742 231.209C264.642 226.335 263.886 221.328 268.299 217.771C272.711 214.478 277.755 215.532 281.159 216.454Z" stroke="#333333" stroke-miterlimit="10" stroke-linecap="round" stroke-linejoin="round"/>
<path d="M309.024 305.38C309.024 305.38 316.337 294.577 325.163 293.523C333.988 292.469 344.705 300.111 345.083 302.745C345.462 305.38 347.605 319.609 346.092 321.453C344.579 323.297 338.527 325.142 326.928 321.19C315.328 317.237 310.285 312.363 309.024 305.38Z" fill="white"/>
<path d="M338.527 321.19C338.527 321.19 341.049 313.68 339.788 311.045C338.527 308.41 333.484 304.458 330.332 300.506C327.18 296.554 337.644 302.745 338.149 300.506C338.527 298.661 332.601 295.104 330.332 293.787C337.644 295.236 344.705 300.638 344.957 302.745C345.209 305.38 347.479 319.609 345.966 321.453C345.209 322.507 343.192 323.429 339.788 323.561C338.905 322.243 338.527 321.19 338.527 321.19Z" fill="#85BC91"/>
<path opacity="0.5" d="M338.527 321.19C338.527 321.19 341.049 313.68 339.788 311.045C338.527 308.41 333.484 304.458 330.332 300.506C327.18 296.554 337.644 302.745 338.149 300.506C338.527 298.661 332.601 295.104 330.332 293.787C337.644 295.236 344.705 300.638 344.957 302.745C345.209 305.38 347.479 319.609 345.966 321.453C345.209 322.507 343.192 323.429 339.788 323.561C338.905 322.243 338.527 321.19 338.527 321.19Z" fill="white"/>
<path d="M309.024 305.38C309.024 305.38 316.337 294.577 325.163 293.523C333.988 292.469 344.705 300.111 345.083 302.745C345.462 305.38 347.605 319.609 346.092 321.453C344.579 323.297 338.527 325.142 326.928 321.19C315.328 317.237 310.285 312.363 309.024 305.38Z" stroke="#333333" stroke-miterlimit="10" stroke-linecap="round" stroke-linejoin="round"/>
<path d="M333.61 308.41C333.61 308.41 345.462 313.285 345.966 322.902C346.218 328.172 337.771 330.543 328.945 330.543C320.12 330.543 307.511 318.95 299.316 314.075C291.121 309.201 272.209 297.607 269.939 296.685C267.67 295.763 260.105 298.266 257.079 299.32C254.053 300.374 248.001 300.374 248.001 300.374C248.001 300.374 243.588 307.62 241.445 307.62C239.302 307.62 246.236 296.817 247.119 294.446C248.001 292.074 263.509 286.805 265.4 286.805C267.292 286.805 311.42 298.398 318.102 301.033C324.785 303.668 333.61 308.41 333.61 308.41Z" fill="white"/>
<path d="M308.898 307.093C290.869 297.739 265.274 286.673 265.274 286.673C267.165 286.673 311.294 298.266 317.976 300.901C324.658 303.536 333.736 308.542 333.736 308.542C333.736 308.542 345.588 313.417 346.092 323.034C346.344 328.304 337.897 330.675 329.071 330.675C320.246 330.675 307.637 319.082 299.442 314.207C298.055 313.417 296.29 312.363 294.525 311.177C306.251 312.626 322.389 314.075 308.898 307.093Z" fill="#85BC91"/>
<path opacity="0.5" d="M308.898 307.093C290.869 297.739 265.274 286.673 265.274 286.673C267.165 286.673 311.294 298.266 317.976 300.901C324.658 303.536 333.736 308.542 333.736 308.542C333.736 308.542 345.588 313.417 346.092 323.034C346.344 328.304 337.897 330.675 329.071 330.675C320.246 330.675 307.637 319.082 299.442 314.207C298.055 313.417 296.29 312.363 294.525 311.177C306.251 312.626 322.389 314.075 308.898 307.093Z" fill="white"/>
<path d="M333.61 308.41C333.61 308.41 345.462 313.285 345.966 322.902C346.218 328.172 337.771 330.543 328.945 330.543C320.12 330.543 307.511 318.95 299.316 314.075C291.121 309.201 272.209 297.607 269.939 296.685C267.67 295.763 260.105 298.266 257.079 299.32C254.053 300.374 248.001 300.374 248.001 300.374C248.001 300.374 243.588 307.62 241.445 307.62C239.302 307.62 246.236 296.817 247.119 294.446C248.001 292.074 263.509 286.805 265.4 286.805C267.292 286.805 311.42 298.398 318.102 301.033C324.785 303.668 333.61 308.41 333.61 308.41Z" stroke="#333333" stroke-miterlimit="10" stroke-linecap="round" stroke-linejoin="round"/>
<path d="M241.445 235.161L251.027 291.679L181.682 291.943L171.344 238.455C170.966 236.479 172.352 234.503 174.37 234.503L238.167 232.526C239.68 232.395 241.066 233.58 241.445 235.161Z" fill="white" stroke="#333333" stroke-miterlimit="10" stroke-linecap="round" stroke-linejoin="round"/>
<path d="M251.027 291.547L284.816 316.578L207.529 314.207L181.682 291.943L251.027 291.547Z" fill="white"/>
<path d="M251.027 291.547L284.816 316.578L207.529 314.207L181.682 291.943L251.027 291.547Z" fill="#85BC91"/>
<path opacity="0.5" d="M251.027 291.547L284.816 316.578L207.529 314.207L181.682 291.943L251.027 291.547Z" fill="white"/>
<path d="M251.027 291.547L284.816 316.578L207.529 314.207L181.682 291.943L251.027 291.547Z" stroke="#333333" stroke-miterlimit="10" stroke-linecap="round" stroke-linejoin="round"/>
<path d="M225.433 316.315C225.433 316.315 197.695 291.02 170.209 282.325C142.723 273.63 137.176 275.079 137.68 287.859C138.185 300.638 151.549 367.958 160.375 385.085C169.2 402.211 180.296 433.566 179.917 439.363C179.539 445.16 168.822 462.813 159.492 469.005C150.162 475.197 150.919 482.838 156.971 484.156C163.023 485.473 169.831 487.844 190.382 473.88C210.933 459.915 219.381 440.285 218.12 435.411C216.859 430.536 203.621 423.817 198.199 414.068C192.778 404.319 184.078 367.3 183.322 350.568C182.565 333.837 177.018 319.609 177.018 319.609C177.018 319.609 211.69 326.196 221.776 332.783L225.433 316.315Z" fill="white"/>
<path d="M225.433 316.315C225.433 316.315 197.695 291.02 170.209 282.325C142.723 273.63 137.176 275.079 137.68 287.859C138.185 300.638 151.549 367.958 160.375 385.085C169.2 402.211 180.296 433.566 179.917 439.363C179.539 445.16 168.822 462.813 159.492 469.005C150.162 475.197 150.919 482.838 156.971 484.156C163.023 485.473 169.831 487.844 190.382 473.88C210.933 459.915 219.381 440.285 218.12 435.411C216.859 430.536 203.621 423.817 198.199 414.068C192.778 404.319 184.078 367.3 183.322 350.568C182.565 333.837 177.018 319.609 177.018 319.609C177.018 319.609 211.69 326.196 221.776 332.783L225.433 316.315Z" fill="#85BC91"/>
<path opacity="0.5" d="M225.433 316.315C225.433 316.315 197.695 291.02 170.209 282.325C142.723 273.63 137.176 275.079 137.68 287.859C138.185 300.638 151.549 367.958 160.375 385.085C169.2 402.211 180.296 433.566 179.917 439.363C179.539 445.16 168.822 462.813 159.492 469.005C150.162 475.197 150.919 482.838 156.971 484.156C163.023 485.473 169.831 487.844 190.382 473.88C210.933 459.915 219.381 440.285 218.12 435.411C216.859 430.536 203.621 423.817 198.199 414.068C192.778 404.319 184.078 367.3 183.322 350.568C182.565 333.837 177.018 319.609 177.018 319.609C177.018 319.609 211.69 326.196 221.776 332.783L225.433 316.315Z" fill="white"/>
<path d="M225.433 316.315C225.433 316.315 197.695 291.02 170.209 282.325C142.723 273.63 137.176 275.079 137.68 287.859C138.185 300.638 151.549 367.958 160.375 385.085C169.2 402.211 180.296 433.566 179.917 439.363C179.539 445.16 168.822 462.813 159.492 469.005C150.162 475.197 150.919 482.838 156.971 484.156C163.023 485.473 169.831 487.844 190.382 473.88C210.933 459.915 219.381 440.285 218.12 435.411C216.859 430.536 203.621 423.817 198.199 414.068C192.778 404.319 184.078 367.3 183.322 350.568C182.565 333.837 177.018 319.609 177.018 319.609C177.018 319.609 211.69 326.196 221.776 332.783L225.433 316.315Z" stroke="#333333" stroke-miterlimit="10" stroke-linecap="round" stroke-linejoin="round"/>
<path d="M198.325 414.068C198.703 414.859 199.208 415.517 199.712 416.176C194.795 416.703 187.86 418.548 181.935 423.949C180.17 425.53 178.783 426.979 177.648 428.297C173.992 416.044 166.679 397.073 160.501 385.085C151.675 367.958 138.437 300.769 137.806 287.858C137.176 274.948 142.85 273.63 170.335 282.325C197.821 291.02 225.559 316.315 225.559 316.315L222.028 332.783C211.942 326.196 177.27 319.609 177.27 319.609C177.27 319.609 182.943 333.837 183.574 350.568C184.204 367.3 193.03 404.188 198.325 414.068Z" fill="white" stroke="#333333" stroke-miterlimit="10" stroke-linecap="round" stroke-linejoin="round"/>
<path d="M198.325 414.068C198.703 414.859 199.208 415.518 199.712 416.176C194.795 416.703 187.86 418.548 181.935 423.949C180.17 425.53 178.783 426.979 177.648 428.297C171.596 419.865 164.788 393.121 157.097 382.055C137.302 353.598 138.437 300.769 137.806 287.99C137.176 275.211 142.85 273.762 170.335 282.457C197.821 291.152 225.559 316.447 225.559 316.447L222.028 332.915C211.942 326.327 177.27 319.74 177.27 319.74C177.27 319.74 182.943 333.969 183.574 350.7C184.204 367.431 193.03 404.188 198.325 414.068Z" fill="#333333"/>
<path opacity="0.53" d="M198.325 414.068C198.703 414.859 199.208 415.518 199.712 416.176C194.795 416.703 187.86 418.548 181.935 423.949C180.17 425.53 178.783 426.979 177.648 428.297C171.596 419.865 164.788 393.121 157.097 382.055C137.302 353.598 138.437 300.769 137.806 287.99C137.176 275.211 142.85 273.762 170.335 282.457C197.821 291.152 225.559 316.447 225.559 316.447L222.028 332.915C211.942 326.327 177.27 319.74 177.27 319.74C177.27 319.74 182.943 333.969 183.574 350.7C184.204 367.431 193.03 404.188 198.325 414.068Z" fill="white"/>
<path opacity="0.14" d="M151.171 286.278C151.675 281.535 200.469 303.141 221.02 312.494C223.92 314.866 225.559 316.315 225.559 316.315L222.028 332.783C211.942 326.196 177.27 319.609 177.27 319.609C177.27 319.609 182.943 333.837 183.574 350.568C184.204 367.3 193.03 404.319 198.451 414.068C198.829 414.859 199.334 415.517 199.838 416.176C196.938 416.571 193.408 417.23 189.752 418.943C182.061 402.08 173.992 382.582 170.209 367.168C163.149 339.633 150.54 292.206 151.171 286.278Z" fill="#333333"/>
<path d="M177.27 319.609C177.27 319.609 167.814 299.584 159.619 291.284" stroke="#333333" stroke-miterlimit="10" stroke-linecap="round" stroke-linejoin="round"/>
<path d="M198.325 414.068C198.703 414.859 199.208 415.518 199.712 416.176C194.795 416.703 187.86 418.548 181.935 423.949C180.17 425.53 178.783 426.979 177.648 428.297C171.596 419.865 164.788 393.121 157.097 382.055C137.302 353.598 138.437 300.769 137.806 287.99C137.176 275.211 142.85 273.762 170.335 282.457C197.821 291.152 225.559 316.447 225.559 316.447L222.028 332.915C211.942 326.327 177.27 319.74 177.27 319.74C177.27 319.74 182.943 333.969 183.574 350.7C184.204 367.431 193.03 404.188 198.325 414.068Z" stroke="#333333" stroke-miterlimit="10" stroke-linecap="round" stroke-linejoin="round"/>
<path d="M267.039 342.795C267.039 342.795 251.531 342.4 237.158 336.867C222.911 331.465 248.883 321.453 258.718 326.986C268.804 332.388 267.039 342.795 267.039 342.795Z" fill="#333333" stroke="#333333" stroke-miterlimit="10" stroke-linecap="round" stroke-linejoin="round"/>
<path d="M308.015 321.585C308.015 321.585 318.102 327.513 321.632 334.1C325.162 340.688 310.159 351.622 294.399 350.963C278.638 350.305 249.766 332.388 249.766 332.388C249.766 332.388 249.514 361.371 244.092 371.911C238.671 382.45 214.211 408.14 204.377 414.727C194.542 421.314 161.761 446.082 156.718 450.034C151.675 453.987 142.219 461.232 140.075 461.628C137.932 462.023 114.859 432.644 109.438 422.763C104.016 412.883 99.3513 392.199 101.243 387.456C103.134 382.714 106.916 386.798 110.699 390.091C114.481 393.385 149.153 417.494 152.305 419.075C155.457 420.656 157.601 421.446 157.601 421.446C157.601 421.446 185.969 393.121 201.099 371.384C216.228 349.646 217.489 321.585 223.163 311.045C228.836 300.506 237.032 295.895 249.262 297.212C261.491 298.53 287.212 305.38 308.015 321.585Z" fill="white"/>
<path d="M174.622 436.465C166.174 442.788 158.861 448.321 156.718 450.034C151.675 453.986 142.219 461.232 140.075 461.628C139.319 461.759 135.915 458.07 131.628 452.932L167.687 428.692L174.622 436.465Z" fill="#85BC91"/>
<path opacity="0.5" d="M174.622 436.465C166.174 442.788 158.861 448.321 156.718 450.034C151.675 453.986 142.219 461.232 140.075 461.628C139.319 461.759 135.915 458.07 131.628 452.932L167.687 428.692L174.622 436.465Z" fill="white"/>
<path d="M308.015 321.585C308.015 321.585 318.102 327.513 321.632 334.1C325.162 340.688 310.159 351.622 294.399 350.963C278.638 350.305 249.766 332.388 249.766 332.388C249.766 332.388 249.514 361.371 244.092 371.911C238.671 382.45 214.211 408.14 204.377 414.727C194.542 421.314 161.761 446.082 156.718 450.034C151.675 453.987 142.219 461.232 140.075 461.628C137.932 462.023 114.859 432.644 109.438 422.763C104.016 412.883 99.3513 392.199 101.243 387.456C103.134 382.714 106.916 386.798 110.699 390.091C114.481 393.385 149.153 417.494 152.305 419.075C155.457 420.656 157.601 421.446 157.601 421.446C157.601 421.446 185.969 393.121 201.099 371.384C216.228 349.646 217.489 321.585 223.163 311.045C228.836 300.506 237.032 295.895 249.262 297.212C261.491 298.53 287.212 305.38 308.015 321.585Z" stroke="#333333" stroke-miterlimit="10" stroke-linecap="round" stroke-linejoin="round"/>
<path d="M159.618 419.338C166.301 412.487 191.265 377.444 201.099 357.287C215.598 327.777 217.111 317.632 222.785 307.093C228.459 296.554 237.032 295.763 249.262 297.081C261.492 298.398 283.556 300.769 310.537 316.71C310.537 316.71 321.885 323.166 325.289 329.753C328.693 336.34 316.085 352.94 294.147 350.832C278.387 349.383 249.514 332.256 249.514 332.256C249.514 332.256 249.262 361.239 243.84 371.779C238.419 382.318 213.959 408.008 204.125 414.595C197.947 418.811 182.439 430.273 170.714 439.1C167.94 428.297 162.77 422.236 159.618 419.338Z" fill="#333333"/>
<path opacity="0.53" d="M159.618 419.338C166.301 412.487 191.265 377.444 201.099 357.287C215.598 327.777 217.111 317.632 222.785 307.093C228.459 296.554 237.032 295.763 249.262 297.081C261.492 298.398 283.556 300.769 310.537 316.71C310.537 316.71 321.885 323.166 325.289 329.753C328.693 336.34 316.085 352.94 294.147 350.832C278.387 349.383 249.514 332.256 249.514 332.256C249.514 332.256 249.262 361.239 243.84 371.779C238.419 382.318 213.959 408.008 204.125 414.595C197.947 418.811 182.439 430.273 170.714 439.1C167.94 428.297 162.77 422.236 159.618 419.338Z" fill="white"/>
<path opacity="0.14" d="M223.037 372.569C232.493 347.538 226.82 297.476 253.297 304.063C272.587 308.806 307.89 325.932 325.667 334.759C323.524 342.268 311.924 352.676 294.399 350.963C278.639 349.514 249.766 332.388 249.766 332.388C249.766 332.388 249.514 361.371 244.093 371.911C238.671 382.45 214.211 408.14 204.377 414.727C198.199 418.943 182.691 430.404 170.966 439.231C169.831 434.752 168.192 431.195 166.553 428.165C190.004 410.116 217.742 386.534 223.037 372.569Z" fill="#333333"/>
<path d="M249.766 332.388L250.649 315.261" stroke="#333333" stroke-miterlimit="10" stroke-linecap="round" stroke-linejoin="round"/>
<path d="M159.618 419.338C166.301 412.487 191.265 377.444 201.099 357.287C215.598 327.777 217.111 317.632 222.785 307.093C228.459 296.554 237.032 295.763 249.262 297.081C261.492 298.398 283.556 300.769 310.537 316.71C310.537 316.71 321.885 323.166 325.289 329.753C328.693 336.34 316.085 352.94 294.147 350.832C278.387 349.383 249.514 332.256 249.514 332.256C249.514 332.256 249.262 361.239 243.84 371.779C238.419 382.318 213.959 408.008 204.125 414.595C197.947 418.811 182.439 430.273 170.714 439.1C167.94 428.297 162.77 422.236 159.618 419.338Z" stroke="#333333" stroke-miterlimit="10" stroke-linecap="round" stroke-linejoin="round"/>
<path d="M156.718 450.034C151.675 453.986 142.219 461.232 140.076 461.627C137.932 462.023 114.86 432.644 109.438 422.763C104.017 412.883 99.3516 392.199 101.243 387.456C103.134 382.713 106.916 386.797 110.699 390.091C114.481 393.385 149.154 417.494 152.306 419.074C153.188 419.47 153.945 419.865 154.575 420.128C155.458 421.973 156.592 424.739 155.836 426.584C154.575 429.482 149.28 433.434 149.28 433.434L158.862 448.321C157.853 449.112 157.223 449.639 156.718 450.034Z" fill="#333333" stroke="#333333" stroke-miterlimit="10" stroke-linecap="round" stroke-linejoin="round"/>
<path d="M109.438 422.632C104.143 412.751 99.3516 392.067 101.243 387.325C102.378 384.69 104.017 384.821 106.034 386.139C104.647 392.331 106.034 404.188 112.59 416.967C118.39 428.428 136.293 448.585 145.371 458.334C142.976 460.047 140.832 461.232 139.95 461.364C137.806 461.891 114.86 432.512 109.438 422.632Z" fill="white"/>
<path d="M139.697 461.496C139.571 461.496 139.571 461.364 139.445 461.364C139.445 461.364 139.445 461.364 139.319 461.364C139.193 461.232 139.067 461.232 138.941 461.1L138.815 460.969C138.689 460.837 138.563 460.705 138.437 460.705C138.31 460.705 138.31 460.574 138.184 460.574C138.058 460.442 137.806 460.31 137.68 460.047C137.554 459.915 137.428 459.783 137.428 459.783C137.302 459.651 137.176 459.52 137.05 459.388C136.924 459.256 136.797 459.124 136.671 458.993C136.545 458.861 136.419 458.729 136.293 458.597C136.041 458.334 135.663 457.939 135.411 457.675L135.285 457.543C135.158 457.28 134.906 457.148 134.78 456.885C134.654 456.753 134.654 456.753 134.528 456.621C133.898 455.831 133.141 455.04 132.385 454.25C132.385 454.25 132.385 454.25 132.385 454.118C132.133 453.855 131.88 453.459 131.628 453.196L137.176 449.507C140.328 453.064 143.228 456.226 145.497 458.729C145.245 458.993 144.867 459.124 144.615 459.256C144.615 459.256 144.488 459.256 144.488 459.388C144.236 459.52 143.984 459.783 143.732 459.915C143.354 460.178 142.849 460.442 142.471 460.705C142.345 460.837 142.219 460.837 142.093 460.969C141.967 461.1 141.841 461.1 141.715 461.1C141.589 461.232 141.462 461.232 141.336 461.364C141.21 461.364 141.21 461.496 141.084 461.496C140.958 461.496 140.832 461.627 140.706 461.627C140.58 461.627 140.58 461.627 140.454 461.759C140.328 461.759 140.076 461.891 139.95 461.891C139.95 461.627 139.95 461.496 139.697 461.496C139.697 461.496 139.823 461.496 139.697 461.496Z" fill="#85BC91"/>
<path opacity="0.5" d="M139.697 461.496C139.571 461.496 139.571 461.364 139.445 461.364C139.445 461.364 139.445 461.364 139.319 461.364C139.193 461.232 139.067 461.232 138.941 461.1L138.815 460.969C138.689 460.837 138.563 460.705 138.437 460.705C138.31 460.705 138.31 460.574 138.184 460.574C138.058 460.442 137.806 460.31 137.68 460.047C137.554 459.915 137.428 459.783 137.428 459.783C137.302 459.651 137.176 459.52 137.05 459.388C136.924 459.256 136.797 459.124 136.671 458.993C136.545 458.861 136.419 458.729 136.293 458.597C136.041 458.334 135.663 457.939 135.411 457.675L135.285 457.543C135.158 457.28 134.906 457.148 134.78 456.885C134.654 456.753 134.654 456.753 134.528 456.621C133.898 455.831 133.141 455.04 132.385 454.25C132.385 454.25 132.385 454.25 132.385 454.118C132.133 453.855 131.88 453.459 131.628 453.196L137.176 449.507C140.328 453.064 143.228 456.226 145.497 458.729C145.245 458.993 144.867 459.124 144.615 459.256C144.615 459.256 144.488 459.256 144.488 459.388C144.236 459.52 143.984 459.783 143.732 459.915C143.354 460.178 142.849 460.442 142.471 460.705C142.345 460.837 142.219 460.837 142.093 460.969C141.967 461.1 141.841 461.1 141.715 461.1C141.589 461.232 141.462 461.232 141.336 461.364C141.21 461.364 141.21 461.496 141.084 461.496C140.958 461.496 140.832 461.627 140.706 461.627C140.58 461.627 140.58 461.627 140.454 461.759C140.328 461.759 140.076 461.891 139.95 461.891C139.95 461.627 139.95 461.496 139.697 461.496C139.823 461.496 139.697 461.496 139.697 461.496Z" fill="white"/>
<path d="M109.438 422.632C104.143 412.751 99.3516 392.067 101.243 387.325C102.378 384.69 104.017 384.821 106.034 386.139C104.647 392.331 106.034 404.188 112.59 416.967C118.39 428.428 136.293 448.585 145.371 458.334C142.976 460.047 140.832 461.232 139.95 461.364C137.806 461.891 114.86 432.512 109.438 422.632Z" stroke="#333333" stroke-miterlimit="10" stroke-linecap="round" stroke-linejoin="round"/>
<path d="M159.618 469.137C169.074 462.813 179.791 445.423 180.043 439.495C180.043 438.968 180.043 438.309 179.917 437.519C182.943 437.519 185.087 439.495 185.087 439.495C185.087 439.495 192.021 432.908 197.443 429.219C201.225 426.584 206.268 425.925 208.79 425.662C213.329 429.614 217.616 432.776 218.246 435.411C219.507 440.417 210.933 460.178 190.508 473.88C170.083 487.581 163.023 485.473 157.097 484.156C151.171 482.838 150.162 475.329 159.618 469.137Z" fill="#333333" stroke="#333333" stroke-miterlimit="10" stroke-linecap="round" stroke-linejoin="round"/>
<path d="M159.618 469.137C162.392 467.293 165.292 464.394 168.066 461.232C174.622 458.334 183.195 454.645 190.886 449.639C199.082 444.369 197.19 441.076 201.981 436.201C205.638 432.381 212.698 431.854 215.85 431.854C217.111 433.171 217.994 434.357 218.372 435.542C219.633 440.549 211.059 460.31 190.634 474.011C170.209 487.713 163.149 485.605 157.223 484.287C151.297 482.97 150.162 475.329 159.618 469.137Z" fill="white"/>
<path d="M159.618 469.137C162.392 467.293 165.292 464.394 168.066 461.232C174.622 458.334 183.195 454.645 190.886 449.639C199.082 444.369 197.19 441.076 201.981 436.201C205.638 432.381 212.698 431.854 215.85 431.854C217.111 433.171 217.994 434.357 218.372 435.542C219.633 440.549 211.059 460.31 190.634 474.011C170.209 487.713 163.149 485.605 157.223 484.287C151.297 482.97 150.162 475.329 159.618 469.137Z" fill="#85BC91"/>
<path opacity="0.5" d="M159.618 469.137C162.392 467.293 165.292 464.394 168.066 461.232C174.622 458.334 183.195 454.645 190.886 449.639C199.082 444.369 197.19 441.076 201.981 436.201C205.638 432.381 212.698 431.854 215.85 431.854C217.111 433.171 217.994 434.357 218.372 435.542C219.633 440.549 211.059 460.31 190.634 474.011C170.209 487.713 163.149 485.605 157.223 484.287C151.297 482.97 150.162 475.329 159.618 469.137Z" fill="white"/>
<path d="M159.618 469.137C162.392 467.293 165.292 464.394 168.066 461.232C174.622 458.334 183.195 454.645 190.886 449.639C199.082 444.369 197.19 441.076 201.981 436.201C205.638 432.381 212.698 431.854 215.85 431.854C217.111 433.171 217.994 434.357 218.372 435.542C219.633 440.549 211.059 460.31 190.634 474.011C170.209 487.713 163.149 485.605 157.223 484.287C151.297 482.97 150.162 475.329 159.618 469.137Z" stroke="#333333" stroke-miterlimit="10" stroke-linecap="round" stroke-linejoin="round"/>
<path d="M157.979 471.377C166.174 466.37 182.943 463.208 193.534 455.567C204.125 447.926 201.351 441.339 209.294 436.069C212.95 433.698 215.976 434.225 218.12 435.542C219.254 440.68 210.681 460.178 190.382 474.011C169.957 487.844 162.896 485.605 156.97 484.287C152.936 483.365 151.297 479.808 153.314 475.592C154.701 474.011 156.214 472.562 157.979 471.377Z" fill="#333333"/>
<path opacity="0.53" d="M157.979 471.377C166.174 466.37 182.943 463.208 193.534 455.567C204.125 447.926 201.351 441.339 209.294 436.069C212.95 433.698 215.976 434.225 218.12 435.542C219.254 440.68 210.681 460.178 190.382 474.011C169.957 487.844 162.896 485.605 156.97 484.287C152.936 483.365 151.297 479.808 153.314 475.592C154.701 474.011 156.214 472.562 157.979 471.377Z" fill="white"/>
<path d="M157.979 471.377C166.174 466.37 182.943 463.208 193.534 455.567C204.125 447.926 201.351 441.339 209.294 436.069C212.95 433.698 215.976 434.225 218.12 435.542C219.254 440.68 210.681 460.178 190.382 474.011C169.957 487.844 162.896 485.605 156.97 484.287C152.936 483.365 151.297 479.808 153.314 475.592C154.701 474.011 156.214 472.562 157.979 471.377Z" stroke="#333333" stroke-miterlimit="10" stroke-linecap="round" stroke-linejoin="round"/>
<path d="M315.076 408.403C315.076 408.403 309.024 400.762 308.141 406.559C307.259 412.487 308.519 423.29 312.932 427.374C317.219 431.458 319.362 425.135 319.362 425.135L316.715 421.578C316.715 421.578 314.571 426.057 312.806 418.811C311.041 411.565 316.21 412.487 316.21 412.487L315.076 408.403Z" fill="white" stroke="#333333" stroke-miterlimit="10" stroke-linecap="round" stroke-linejoin="round"/>
<path d="M319.741 437.387C323.271 440.153 334.997 440.153 338.527 437.387C346.092 431.59 344.831 403.265 344.831 403.265H313.437C313.437 403.134 312.176 431.458 319.741 437.387Z" fill="white" stroke="#333333" stroke-miterlimit="10" stroke-linecap="round" stroke-linejoin="round"/>
<path d="M341.427 397.6C341.427 394.043 338.275 394.043 338.275 390.486C338.275 386.929 341.427 386.929 341.427 383.372C341.427 379.815 338.275 379.815 338.275 376.258C338.275 372.701 341.427 372.701 341.427 369.144C341.427 365.587 338.275 365.587 338.275 362.03" stroke="#333333" stroke-miterlimit="10" stroke-linecap="round" stroke-linejoin="round"/>
<path d="M330.583 397.6C330.583 394.834 327.432 394.834 327.432 392.199C327.432 389.432 330.583 389.432 330.583 386.797C330.583 384.031 327.432 384.031 327.432 381.396C327.432 378.629 330.583 378.629 330.583 375.995C330.583 373.228 327.432 373.228 327.432 370.593" stroke="#333333" stroke-miterlimit="10" stroke-linecap="round" stroke-linejoin="round"/>
<path d="M318.606 397.6C318.606 394.043 315.454 394.043 315.454 390.486C315.454 386.929 318.606 386.929 318.606 383.372C318.606 379.815 315.454 379.815 315.454 376.258C315.454 372.701 318.606 372.701 318.606 369.144C318.606 365.587 315.454 365.587 315.454 362.03" stroke="#333333" stroke-miterlimit="10" stroke-linecap="round" stroke-linejoin="round"/>
<path d="M313.437 403.134C313.437 403.924 320.497 404.583 329.071 404.583C337.77 404.583 344.705 403.924 344.705 403.134C344.705 402.343 337.644 401.684 329.071 401.684C320.497 401.684 313.437 402.343 313.437 403.134Z" fill="white" stroke="#333333" stroke-miterlimit="10" stroke-linecap="round" stroke-linejoin="round"/>
<path d="M284.564 199.327C284.564 199.327 283.051 215.927 282.421 221.197C281.791 226.466 280.404 241.485 278.891 246.491C277.378 251.498 269.561 260.193 268.804 258.216C268.048 256.24 264.139 242.671 265.652 234.634C267.165 226.598 267.67 219.616 266.661 217.508C265.652 215.532 262.248 213.16 262.248 213.16C262.248 213.16 268.426 209.867 274.1 205.914C279.773 201.962 283.808 197.483 284.564 199.327Z" fill="white"/>
<path d="M264.266 213.951L265.526 211.448C267.796 210.13 271.074 208.154 274.1 206.046C279.773 202.094 283.682 197.615 284.438 199.459C284.438 199.459 282.925 216.059 282.295 221.328C281.665 226.598 280.278 241.617 278.765 246.623C278.387 247.809 277.63 249.258 276.748 250.707C278.261 240.826 276.621 222.777 276.621 222.777L264.266 213.951Z" fill="#85BC91"/>
<path opacity="0.5" d="M264.266 213.951L265.526 211.448C267.796 210.13 271.074 208.154 274.1 206.046C279.773 202.094 283.682 197.615 284.438 199.459C284.438 199.459 282.925 216.059 282.295 221.328C281.665 226.598 280.278 241.617 278.765 246.623C278.387 247.809 277.63 249.258 276.748 250.707C278.261 240.826 276.621 222.777 276.621 222.777L264.266 213.951Z" fill="white"/>
<path d="M284.564 199.327C284.564 199.327 283.051 215.927 282.421 221.197C281.791 226.466 280.404 241.485 278.891 246.491C277.378 251.498 269.561 260.193 268.804 258.216C268.048 256.24 264.139 242.671 265.652 234.634C267.165 226.598 267.67 219.616 266.661 217.508C265.652 215.532 262.248 213.16 262.248 213.16C262.248 213.16 268.426 209.867 274.1 205.914C279.773 201.962 283.808 197.483 284.564 199.327Z" stroke="#333333" stroke-miterlimit="10" stroke-linecap="round" stroke-linejoin="round"/>
<path d="M285.069 201.699C285.069 201.699 275.991 209.603 269.057 212.502C262.122 215.4 251.406 215.268 249.893 211.448C248.38 207.627 252.54 177.721 256.071 169.817C259.601 161.912 263.509 161.78 269.813 161.253C276.117 160.595 288.852 165.996 291.121 172.452C293.39 178.907 290.869 187.866 288.978 193.267C287.212 198.668 285.069 201.699 285.069 201.699Z" fill="white"/>
<path d="M268.805 201.303C272.083 191.291 272.839 175.613 272.839 171.529C272.839 168.236 264.77 164.811 261.114 163.361C263.509 161.78 266.283 161.649 269.939 161.253C276.243 160.595 288.978 165.996 291.247 172.452C293.516 178.907 290.995 187.866 289.104 193.267C287.212 198.668 285.195 201.699 285.195 201.699C285.195 201.699 276.117 209.603 269.183 212.501C264.518 214.346 258.214 215.005 254.179 214.082C258.97 212.106 266.661 208.022 268.805 201.303Z" fill="#85BC91"/>
<path opacity="0.5" d="M268.805 201.303C272.083 191.291 272.839 175.613 272.839 171.529C272.839 168.236 264.77 164.811 261.114 163.361C263.509 161.78 266.283 161.649 269.939 161.253C276.243 160.595 288.978 165.996 291.247 172.452C293.516 178.907 290.995 187.866 289.104 193.267C287.212 198.668 285.195 201.699 285.195 201.699C285.195 201.699 276.117 209.603 269.183 212.501C264.518 214.346 258.214 215.005 254.179 214.082C258.97 212.106 266.661 208.022 268.805 201.303Z" fill="white"/>
<path d="M285.069 201.699C285.069 201.699 275.991 209.603 269.057 212.502C262.122 215.4 251.406 215.268 249.893 211.448C248.38 207.627 252.54 177.721 256.071 169.817C259.601 161.912 263.509 161.78 269.813 161.253C276.117 160.595 288.852 165.996 291.121 172.452C293.39 178.907 290.869 187.866 288.978 193.267C287.212 198.668 285.069 201.699 285.069 201.699Z" stroke="#333333" stroke-miterlimit="10" stroke-linecap="round" stroke-linejoin="round"/>
<path d="M255.44 182.201C255.314 186.021 257.583 189.183 260.483 189.315C263.383 189.446 265.905 186.416 266.031 182.728C266.157 178.907 263.887 175.745 260.987 175.613C258.088 175.35 255.566 178.38 255.44 182.201Z" stroke="#333333" stroke-miterlimit="10" stroke-linecap="round" stroke-linejoin="round"/>
<path d="M248.254 180.751C248.128 184.572 249.262 187.734 250.901 187.734C252.54 187.734 253.927 184.835 254.053 181.015C254.18 177.194 253.045 174.033 251.406 174.033C249.893 173.901 248.506 176.931 248.254 180.751Z" stroke="#333333" stroke-miterlimit="10" stroke-linecap="round" stroke-linejoin="round"/>
<path d="M255.062 180.751C255.062 180.751 244.597 182.859 245.605 185.494C246.614 188.129 253.675 190.896 253.675 190.896" fill="white"/>
<path d="M255.062 180.751C255.062 180.751 244.597 182.859 245.605 185.494C246.614 188.129 253.675 190.896 253.675 190.896" stroke="#333333" stroke-miterlimit="10" stroke-linecap="round" stroke-linejoin="round"/>
<path d="M255.692 179.566C255.692 179.566 255.566 178.248 253.927 179.039" stroke="#333333" stroke-miterlimit="10" stroke-linecap="round" stroke-linejoin="round"/>
<path d="M266.409 183.255L285.321 191.027" stroke="#333333" stroke-miterlimit="10" stroke-linecap="round" stroke-linejoin="round"/>
<path d="M266.157 176.799C266.157 176.799 265.022 173.637 261.492 173.769" stroke="#333333" stroke-width="2" stroke-miterlimit="10" stroke-linecap="round" stroke-linejoin="round"/>
<path d="M253.549 173.901L256.449 175.086" stroke="#333333" stroke-width="2" stroke-miterlimit="10" stroke-linecap="round" stroke-linejoin="round"/>
<path d="M262.627 196.034C262.627 196.034 258.845 194.98 256.701 197.351" stroke="#333333" stroke-miterlimit="10" stroke-linecap="round" stroke-linejoin="round"/>
<path d="M260.105 182.859C259.979 184.177 260.105 185.362 260.609 185.362C261.114 185.362 261.618 184.44 261.744 183.123C261.87 181.805 261.744 180.62 261.24 180.62C260.862 180.488 260.357 181.542 260.105 182.859Z" fill="#333333"/>
<path d="M283.556 191.027C283.556 191.027 284.817 193.662 281.286 193.794C277.756 193.926 275.361 192.081 277 189.842C278.765 187.602 281.286 185.494 278.639 182.464C275.991 179.434 270.948 176.931 273.722 173.637C276.621 170.344 287.212 173.374 284.565 170.607C281.917 167.972 269.687 165.074 264.139 165.469C258.592 165.864 248.379 161.385 246.11 155.589C243.84 149.792 246.992 138.989 254.431 139.648C261.87 140.175 267.291 147.025 270.57 147.42C273.848 147.816 280.53 144.127 286.204 147.552C291.877 150.978 292.003 160.463 292.508 161.517C293.012 162.703 300.577 164.415 301.964 172.452C303.351 180.488 299.82 186.943 296.668 190.632C293.516 194.189 292.129 195.638 292.129 195.638L283.556 191.027Z" fill="#333333" stroke="#333333" stroke-miterlimit="10" stroke-linecap="round" stroke-linejoin="round"/>
<path d="M299.694 176.404C299.82 178.38 298.938 179.961 298.938 179.961" stroke="white" stroke-width="0.75" stroke-miterlimit="10" stroke-linecap="round" stroke-linejoin="round"/>
<path d="M267.543 155.589C267.543 155.589 270.317 149.265 263.257 149.265C256.196 149.265 255.187 158.487 262.5 161.78C269.813 165.206 285.573 165.996 294.02 169.949C296.164 170.871 297.551 172.056 298.307 173.11" stroke="white" stroke-width="0.75" stroke-miterlimit="10" stroke-linecap="round" stroke-linejoin="round"/>
<path d="M280.152 177.853C282.673 178.775 285.951 180.093 289.229 181.674C296.29 185.099 294.777 188.524 294.777 188.524" stroke="white" stroke-width="0.75" stroke-miterlimit="10" stroke-linecap="round" stroke-linejoin="round"/>
<path d="M275.486 176.272C275.486 176.272 276.117 176.404 277.125 176.799" stroke="white" stroke-width="0.75" stroke-miterlimit="10" stroke-linecap="round" stroke-linejoin="round"/>
<path d="M282.421 193.794C282.421 193.794 286.456 187.602 290.743 190.105C295.029 192.608 291.751 201.303 289.104 204.333C286.582 207.363 281.539 201.699 281.034 200.249" fill="white"/>
<path d="M282.421 193.794C282.421 193.794 286.456 187.602 290.743 190.105C295.029 192.608 291.751 201.303 289.104 204.333C286.582 207.363 281.539 201.699 281.034 200.249" fill="#85BC91"/>
<path opacity="0.5" d="M282.421 193.794C282.421 193.794 286.456 187.602 290.743 190.105C295.029 192.608 291.751 201.303 289.104 204.333C286.582 207.363 281.539 201.699 281.034 200.249" fill="white"/>
<path d="M282.421 193.794C282.421 193.794 286.456 187.602 290.743 190.105C295.029 192.608 291.751 201.303 289.104 204.333C286.582 207.363 281.539 201.699 281.034 200.249" stroke="#333333" stroke-miterlimit="10" stroke-linecap="round" stroke-linejoin="round"/>
<path d="M333.862 270.732H424.262C427.793 270.732 430.692 267.702 430.692 264.013V194.98C430.692 191.291 427.793 188.261 424.262 188.261H333.862C330.332 188.261 327.432 191.291 327.432 194.98V264.013C327.432 267.702 330.206 270.732 333.862 270.732Z" fill="white" stroke="#333333" stroke-miterlimit="10" stroke-linecap="round" stroke-linejoin="round"/>
<path d="M329.323 247.677L268.804 264.145L329.323 233.185" fill="white"/>
<path d="M329.323 247.677L268.804 264.145L329.323 233.185" stroke="#333333" stroke-miterlimit="10" stroke-linecap="round" stroke-linejoin="round"/>
<path d="M397.912 196.165H422.245V262.827H397.912V196.165Z" fill="#85BC91" stroke="#333333" stroke-miterlimit="10" stroke-linecap="round" stroke-linejoin="round"/>
<path d="M332.728 196.165H335.753V262.827H332.728V196.165Z" fill="#85BC91" stroke="#333333" stroke-miterlimit="10" stroke-linecap="round" stroke-linejoin="round"/>
<path d="M332.728 226.73H335.753V232.395H332.728V226.73Z" fill="#333333" stroke="#333333" stroke-miterlimit="10" stroke-linecap="round" stroke-linejoin="round"/>
<path d="M390.473 197.746H342.562" stroke="#333333" stroke-miterlimit="10" stroke-linecap="round" stroke-linejoin="round"/>
<path d="M390.473 204.86H342.562" stroke="#333333" stroke-miterlimit="10" stroke-linecap="round" stroke-linejoin="round"/>
<path d="M390.473 212.106H342.562" stroke="#333333" stroke-miterlimit="10" stroke-linecap="round" stroke-linejoin="round"/>
<path d="M390.473 219.22H342.562" stroke="#333333" stroke-miterlimit="10" stroke-linecap="round" stroke-linejoin="round"/>
<path d="M390.473 236.611H342.562" stroke="#333333" stroke-miterlimit="10" stroke-linecap="round" stroke-linejoin="round"/>
<path d="M390.473 243.066H342.562" stroke="#333333" stroke-miterlimit="10" stroke-linecap="round" stroke-linejoin="round"/>
<path d="M390.473 249.39H342.562" stroke="#333333" stroke-miterlimit="10" stroke-linecap="round" stroke-linejoin="round"/>
<path d="M390.473 262.564H342.562" stroke="#333333" stroke-miterlimit="10" stroke-linecap="round" stroke-linejoin="round"/>
<path d="M422.245 262.827L398.038 196.165" stroke="#333333" stroke-miterlimit="10" stroke-linecap="round" stroke-linejoin="round"/>
<path d="M56.1061 447.268C44.4775 447.268 35.0506 442.844 35.0506 437.387C35.0506 431.93 44.4775 427.506 56.1061 427.506C67.7347 427.506 77.1616 431.93 77.1616 437.387C77.1616 442.844 67.7347 447.268 56.1061 447.268Z" fill="#85BC91"/>
<path opacity="0.5" d="M56.1061 447.268C44.4775 447.268 35.0506 442.844 35.0506 437.387C35.0506 431.93 44.4775 427.506 56.1061 427.506C67.7347 427.506 77.1616 431.93 77.1616 437.387C77.1616 442.844 67.7347 447.268 56.1061 447.268Z" fill="white"/>
<path d="M80.8179 291.284C78.5484 292.338 73.0009 292.206 73.0009 292.206C73.0009 292.206 74.1356 288.385 74.2617 288.254C75.5225 285.619 79.3049 281.271 82.4569 281.667C84.7264 281.93 85.9872 284.301 85.4829 286.541C84.9786 288.649 82.7091 290.362 80.8179 291.284Z" fill="#333333"/>
<path d="M8.44757 271.654C11.5996 271.259 15.2559 275.738 16.3907 278.505C16.5167 278.768 17.6515 282.589 17.5254 282.589C17.5254 282.589 17.5254 282.589 17.3993 282.589C18.0297 283.247 18.6601 284.038 19.2905 284.96C20.5513 286.541 21.9382 288.254 23.199 290.362C24.5859 292.469 25.9728 294.709 27.3597 297.212C28.6205 299.715 29.8813 302.482 30.89 305.512V305.644C30.89 304.722 30.89 301.955 30.89 301.823C31.2682 298.925 33.5377 293.523 36.6897 292.865C38.9592 292.469 40.8504 294.314 40.9764 296.554C41.1025 298.925 39.5896 301.165 37.9505 302.614C36.1854 304.195 31.2682 305.907 30.89 306.039C31.7725 308.937 32.4029 311.836 32.9073 314.998C33.1594 316.71 33.4116 318.555 33.6638 320.267C33.6638 319.477 33.6638 318.686 33.6638 318.555C34.042 315.656 36.3114 310.255 39.4635 309.596C41.7329 309.201 43.6242 311.045 43.7502 313.285C43.8763 315.656 42.3633 317.896 40.7243 319.345C39.0852 320.794 34.9245 322.243 33.9159 322.639C34.042 323.297 34.042 323.956 34.1681 324.747C34.5463 328.04 34.9246 331.334 35.3028 334.496C35.4289 335.681 35.681 336.735 35.8071 337.789C35.8071 336.999 35.8071 336.472 35.8071 336.34C36.1854 333.442 38.4548 328.04 41.6068 327.381C43.8763 326.986 45.7675 328.831 45.8936 331.07C46.0197 333.442 44.5067 335.681 42.8677 337.13C41.3547 338.58 37.5723 339.897 36.1854 340.424C36.4375 341.61 36.6897 342.664 36.9418 343.718C37.194 344.508 37.3201 345.167 37.5722 345.957C37.8244 346.748 38.0766 347.406 38.2026 348.065C38.707 349.383 39.2113 350.832 39.5895 352.149C39.9678 353.071 40.22 353.994 40.5982 354.784C40.4721 353.598 40.0939 351.49 40.0939 351.227C40.0939 349.251 40.7243 346.089 41.9851 343.849C41.9851 343.586 41.9851 343.322 41.9851 342.927C42.3633 340.687 44.3806 338.975 46.524 339.634C49.5499 340.424 51.4412 346.089 51.6933 348.987C51.6933 349.119 51.5672 351.095 51.5672 352.281C51.6933 351.622 51.8194 350.963 52.0715 350.173C52.4498 348.724 52.702 347.406 53.0802 345.825C53.3324 345.167 53.4585 344.376 53.7106 343.718C53.9628 342.927 54.215 342.268 54.4671 341.478C55.0975 339.765 55.7279 338.053 56.4844 336.34C55.3497 336.076 51.189 334.891 49.4239 333.573C47.7848 332.256 46.0197 330.016 46.0197 327.777C46.0197 325.537 47.7848 323.561 50.0543 323.824C53.2063 324.22 55.854 329.358 56.4844 332.256C56.4844 332.388 56.7366 334.496 56.7366 335.681C57.2409 334.627 57.6191 333.573 58.1235 332.651C59.5103 329.753 61.0233 326.723 62.5363 323.824C63.0406 322.902 63.4189 321.98 63.9232 321.189C63.5449 321.058 58.5017 319.872 56.6105 318.423C54.9714 317.105 53.2063 314.866 53.2063 312.626C53.2063 310.387 54.9714 308.41 57.2409 308.674C60.3929 309.069 63.0406 314.207 63.671 317.105C63.671 317.369 63.9232 320.399 64.0492 321.189C65.0579 319.213 65.9405 317.237 66.823 315.261C68.0838 312.494 69.0925 309.728 69.849 306.961C69.5968 306.961 64.4275 305.644 62.5363 304.195C60.8972 302.877 59.1321 300.638 59.1321 298.398C59.1321 296.158 60.8972 294.182 63.1667 294.446C66.3187 294.841 68.9664 299.979 69.5968 302.877C69.5968 303.141 69.9751 306.434 69.9751 306.961C69.9751 306.829 70.1011 306.698 70.1011 306.434C70.9837 303.536 71.3619 300.506 71.7402 297.739C71.8663 296.158 71.9924 294.577 71.9924 292.996C70.9837 292.865 66.4448 292.206 64.5536 291.02C62.7885 289.835 60.7712 287.858 60.519 285.619C60.2668 283.379 61.7798 281.14 64.0492 281.14C67.2013 281.14 70.4794 286.014 71.362 288.781C71.362 288.912 71.7402 290.493 71.9924 291.679C71.9924 291.02 71.9924 290.23 71.9924 289.571C71.9924 287.068 71.8663 284.828 71.7402 282.852C71.6141 281.667 71.488 280.613 71.488 279.69C70.6055 279.032 66.9491 276.397 65.8144 274.421C64.6797 272.576 63.7971 269.81 64.6796 267.702C65.4361 265.594 67.8317 264.408 69.849 265.462C72.6228 266.911 73.3792 272.84 72.8749 275.738C72.8749 276.002 71.7402 279.822 71.7402 279.822C71.8663 280.744 71.9924 281.798 72.1185 282.852C72.3706 284.828 72.4967 287.2 72.6228 289.703C72.6228 292.206 72.6228 294.841 72.4967 297.739C72.2445 300.638 71.8663 303.536 71.1098 306.698V306.829C71.6141 306.039 73.001 303.799 73.2532 303.668C75.1444 301.428 79.9355 298.266 82.8353 299.584C84.9787 300.506 85.483 303.141 84.4744 305.117C83.4657 307.093 80.818 308.147 78.8007 308.41C76.4052 308.806 71.488 307.225 71.1098 307.093C70.3533 309.991 69.3447 312.89 68.0838 315.788C67.4534 317.369 66.6969 319.082 65.9405 320.663C66.4448 320.004 66.823 319.345 66.823 319.345C68.7142 317.105 73.5053 313.944 76.4052 315.261C78.5486 316.183 79.0529 318.818 78.0442 320.794C77.0356 322.77 74.3879 323.824 72.3706 324.088C70.2272 324.351 66.0665 323.166 64.9318 322.902C64.6797 323.561 64.3014 324.088 64.0492 324.747C62.6623 327.777 61.1494 330.675 59.8886 333.573C59.3843 334.627 59.006 335.681 58.6278 336.735C59.006 336.076 59.3843 335.549 59.3843 335.549C61.2755 333.31 66.0666 330.148 68.9664 331.465C71.1098 332.388 71.6141 335.023 70.6055 336.999C69.5968 338.975 66.9491 340.029 64.9318 340.292C62.9145 340.556 59.006 339.502 57.7452 339.107C57.3669 340.16 56.9887 341.214 56.6105 342.268C56.3583 343.059 56.1061 343.718 55.9801 344.376C55.7279 345.167 55.6018 345.825 55.3497 346.616C54.9714 348.065 54.7193 349.514 54.4671 350.832C54.215 351.754 54.0888 352.676 53.9628 353.598C54.4671 352.544 55.3497 350.568 55.4757 350.436C56.9887 347.933 61.2755 344.113 64.3014 344.903C66.4448 345.43 67.4534 347.933 66.6969 350.041C65.9405 352.281 63.5449 353.598 61.5276 354.257C59.2582 354.916 54.4671 354.257 53.8367 354.257C53.5846 355.838 53.3324 357.287 53.0802 358.736C52.1977 363.611 51.6933 367.695 51.4411 370.593C51.4411 371.12 51.3151 371.515 51.3151 372.042H60.7712L57.7452 434.093C57.493 438.836 53.8367 442.525 49.2978 442.525C44.7589 442.525 41.1025 438.836 40.8504 434.093L37.8244 372.042H46.6501C46.524 371.911 46.524 371.779 46.3979 371.647C45.1371 369.012 43.4981 365.192 41.7329 360.581C41.1025 359.132 40.5982 357.551 39.9678 355.97C39.3374 356.101 34.5463 357.155 32.2769 356.628C30.2596 356.101 27.7379 354.916 26.8554 352.808C25.9728 350.7 26.7293 348.197 28.8727 347.406C31.8986 346.352 36.4375 349.91 38.0766 352.281C38.2027 352.413 39.0852 353.994 39.5895 355.047C39.3374 354.389 39.0852 353.73 38.833 353.071C38.3287 351.754 37.9505 350.305 37.4462 348.856C37.194 348.197 37.0679 347.406 36.8158 346.616C36.5636 345.957 36.4375 345.167 36.3114 344.376C35.9332 342.532 35.555 340.819 35.3028 338.975C34.1681 339.37 30.1335 340.819 27.9901 340.687C25.8467 340.556 23.3251 339.765 22.0643 337.789C20.9296 335.945 21.3078 333.178 23.3251 332.124C26.0989 330.675 31.1421 333.442 33.1594 335.418C33.2855 335.55 34.5463 337.262 35.1767 338.184C35.0506 337.13 34.7985 335.945 34.6724 334.891C34.2942 331.597 34.042 328.304 33.6638 325.01C33.5377 323.956 33.4116 323.034 33.4116 321.98C33.0333 322.112 28.2423 323.956 25.8467 323.824C23.7034 323.693 21.1817 322.902 19.9209 320.926C18.7862 319.082 19.1644 316.315 21.1817 315.261C23.9555 313.812 28.9988 316.578 31.0161 318.555C31.1421 318.686 33.0333 321.058 33.4116 321.716C33.1594 319.477 32.9073 317.237 32.6551 315.129C32.1508 312.099 31.6465 309.201 30.89 306.434C30.7639 306.566 25.7206 308.41 23.3251 308.279C21.1817 308.147 18.6601 307.356 17.3993 305.38C16.2646 303.536 16.6428 300.769 18.6601 299.715C21.4339 298.266 26.4771 301.033 28.4944 303.009C28.6205 303.141 30.6378 305.776 30.89 306.171C30.89 306.039 30.7639 305.776 30.7639 305.644C29.8813 302.745 28.7466 299.979 27.4858 297.476C26.7293 296.027 25.9728 294.709 25.2163 293.392C24.3338 293.919 20.1731 295.895 18.0297 296.027C15.8863 296.158 13.2386 295.631 11.8517 293.787C10.4648 292.074 10.5909 289.308 12.4821 287.99C15.1298 286.146 20.4252 288.385 22.5686 290.23C22.6947 290.362 23.8294 291.416 24.5859 292.338C24.2077 291.811 23.8294 291.152 23.5773 290.625C22.3165 288.517 20.9296 286.805 19.7949 285.092C19.1645 284.17 18.534 283.379 17.9036 282.589C16.7689 282.589 12.356 282.457 10.4648 281.535C8.57362 280.613 6.43027 278.9 5.92595 276.66C4.9173 274.157 6.17812 271.786 8.44757 271.654ZM43.1198 359.395C45.011 364.006 46.7762 367.695 48.037 370.198C48.2891 370.725 48.5413 371.12 48.6674 371.647H48.9195C48.9195 371.12 49.0456 370.593 49.1717 369.934C49.5499 367.036 50.1804 362.952 51.0629 357.946C51.3151 356.365 51.6933 354.784 52.0715 353.071C51.6933 352.94 49.676 352.017 47.7848 350.963C46.1458 352.808 42.1112 354.916 41.4808 355.179C41.9851 356.628 42.6155 358.078 43.1198 359.395Z" fill="#333333"/>
<path d="M24.9641 292.469C24.9641 292.469 23.9555 288.649 23.9555 288.385C23.5773 285.487 24.4598 279.559 27.2336 278.241C29.2508 277.187 31.5203 278.505 32.2767 280.613C33.0332 282.852 32.0246 285.487 30.8899 287.332C29.6291 289.439 24.9641 292.469 24.9641 292.469Z" fill="#333333"/>
</svg>
