<svg width="130" height="171" viewBox="0 0 130 171" fill="none" xmlns="http://www.w3.org/2000/svg">
<path d="M30.6665 122.62L20.8331 78.0761L20.2498 70.7356C20.2498 70.7356 17.9998 54.2195 17.9998 52.6347C17.9998 50.7995 17.0831 50.299 16.4165 50.3825C15.3331 50.4659 14.5831 51.8005 14.5831 53.3854C14.5831 53.9693 14.7498 62.6444 14.7498 62.6444C14.7498 62.6444 14.3331 61.8937 12.9998 60.3088C11.6665 58.7239 8.66647 57.8064 5.49981 57.8898C2.41647 58.0566 1.49981 58.3069 1.49981 59.5581C1.49981 60.0586 1.74981 60.3922 2.08314 60.7259C2.66647 61.2264 3.41647 61.3932 4.16647 61.3932C9.16648 61.2264 10.4998 63.8956 10.4998 63.8956L10.5831 64.8966C10.5831 64.8966 7.49981 62.7278 5.16647 63.7288C4.74981 63.8956 4.49981 64.0625 4.24981 64.3127C2.91647 64.3127 1.66647 65.0634 0.916474 66.2312C0.249808 67.399 0.166474 68.9839 0.916474 70.1517C1.24981 70.7356 1.83314 71.2361 2.49981 71.1527C2.83314 71.0693 3.08314 70.819 3.41647 70.5688C3.58314 70.4854 3.66647 70.3186 3.83314 70.2351L4.41647 72.9044C4.41647 72.9044 6.08314 78.8268 6.49981 81.4961L9.16648 125.622C9.49981 131.712 14.8331 136.383 20.9165 135.882C27.4998 135.382 32.1665 129.126 30.6665 122.62Z" fill="#FFBE9D"/>
<path d="M19.333 77.4922C18.4163 77.7425 17.4997 77.0751 16.9997 76.3244C16.4997 75.4903 16.2497 74.5727 15.833 73.7386C14.4997 71.2361 11.333 70.0683 10.1663 67.4825C9.99967 67.1488 9.91634 66.6483 10.2497 66.3981C10.4997 66.1478 10.9163 66.3146 11.2497 66.4815C13.9997 67.9829 16.7497 69.4844 19.4997 70.9859" fill="#FFBE9D"/>
<path d="M19.4997 70.9859C19.4997 70.9859 19.2497 70.7356 18.6663 70.402C18.083 70.0683 17.2497 69.5678 16.2497 68.9839C15.1663 68.4 13.9997 67.7327 12.6663 66.982C12.333 66.8151 11.9997 66.5649 11.6663 66.398C11.333 66.2312 10.9163 65.8976 10.333 66.0644C9.99967 66.1478 9.83301 66.4815 9.83301 66.8151C9.83301 67.0654 9.91634 67.3156 9.99967 67.5659C10.1663 67.9829 10.4163 68.4 10.7497 68.7337C11.9163 70.2351 13.4163 71.1527 14.4163 72.1537C14.9997 72.6541 15.4163 73.2381 15.7497 73.822C16.083 74.4059 16.2497 74.9898 16.4997 75.5737C16.9163 76.6581 17.7497 77.4088 18.4163 77.5756C19.083 77.7424 19.4997 77.5756 19.4163 77.4922C19.4163 77.4088 18.9997 77.5756 18.4163 77.3254C17.833 77.0751 17.1663 76.4078 16.7497 75.3234C16.4997 74.8229 16.333 74.1556 15.9997 73.4883C15.6663 72.821 15.1663 72.2371 14.6663 71.6532C13.583 70.4854 12.083 69.5678 10.9997 68.2332C10.7497 67.8995 10.4997 67.5659 10.333 67.1488C10.1663 66.8151 10.1663 66.398 10.4163 66.398C10.6663 66.3146 10.9997 66.5649 11.333 66.7317C11.6663 66.8985 11.9997 67.0654 12.4163 67.3156C13.7497 67.9829 14.9997 68.6502 16.083 69.2341C17.083 69.7346 17.9997 70.1517 18.583 70.4854C19.1663 70.819 19.4997 70.9859 19.4997 70.9859Z" fill="#EB996E"/>
<path d="M10.7503 64.98C10.667 64.98 10.7503 64.2293 10.167 63.3117C9.83366 62.8946 9.33366 62.4776 8.66699 62.2273C8.00032 61.9771 7.16699 61.8936 6.33366 61.8936C5.50033 61.8936 4.58366 61.8937 3.83366 61.7268C3.08366 61.56 2.41699 61.2263 2.00033 60.8093C1.58366 60.3922 1.41699 59.8083 1.50033 59.558C1.58366 59.2244 1.66699 59.0576 1.66699 59.0576C1.66699 59.0576 1.66699 59.2244 1.66699 59.558C1.66699 59.8917 1.75033 60.3088 2.16699 60.6424C2.58366 60.9761 3.16699 61.2263 3.91699 61.3932C4.66699 61.56 5.41699 61.56 6.33366 61.56C7.16699 61.56 8.08366 61.6434 8.83366 61.8936C9.58366 62.1439 10.167 62.6444 10.5003 63.1449C10.8337 63.6454 10.917 64.1458 10.917 64.4795C10.8337 64.8132 10.7503 64.98 10.7503 64.98Z" fill="#EB996E"/>
<path d="M14.5 52.7181C14.5833 52.7181 14.5833 53.3854 14.5833 54.4698C14.5833 55.6376 14.5833 57.0556 14.5833 58.6405C14.5833 60.2254 14.6667 61.6434 14.6667 62.8112C14.6667 63.8956 14.6667 64.563 14.6667 64.563C14.5833 64.563 14.5 63.8956 14.4167 62.8112C14.3333 61.7269 14.25 60.2254 14.25 58.6405C14.25 56.9722 14.25 55.5542 14.3333 54.4698C14.4167 53.3854 14.5 52.7181 14.5 52.7181Z" fill="#EB996E"/>
<path d="M8.7502 66.982C8.7502 66.982 8.58353 66.8986 8.2502 66.8152C7.91686 66.7317 7.41686 66.4815 6.91686 66.7317C6.66686 66.8152 6.5002 67.1488 6.5002 67.4825C6.5002 67.8161 6.5002 68.2332 6.58353 68.6503C6.66686 68.9839 6.66686 69.4844 6.41686 69.9015C6.16686 70.3186 5.58353 70.5688 5.08353 70.5688C4.58353 70.5688 4.08353 70.3186 3.7502 69.9849C3.41686 69.6513 3.16686 69.2342 3.08353 68.8171C2.91686 67.983 3.0002 67.2322 3.08353 66.5649C3.16686 65.8976 3.33353 65.3971 3.5002 65.1469C3.66686 64.8132 3.83353 64.7298 3.83353 64.7298C3.83353 64.7298 3.7502 64.8966 3.58353 65.2303C3.41686 65.5639 3.33353 66.0644 3.2502 66.6483C3.16686 67.2322 3.16686 67.983 3.33353 68.8171C3.5002 69.5678 4.16686 70.3186 5.0002 70.3186C5.41686 70.3186 5.83353 70.0683 6.08353 69.7347C6.33353 69.401 6.33353 68.9839 6.2502 68.5669C6.16686 68.1498 6.16686 67.7327 6.16686 67.3991C6.16686 66.982 6.41686 66.6483 6.7502 66.4815C7.41686 66.2313 8.0002 66.4815 8.2502 66.6483C8.66686 66.8152 8.83353 66.8986 8.7502 66.982Z" fill="#EB996E"/>
<path d="M3.83333 69.8181C3.83333 69.8181 3.91667 69.9849 3.75 70.3186C3.66667 70.6522 3.33333 71.0693 2.75 71.2361C2.16667 71.403 1.41667 71.2361 0.833333 70.6522C0.333333 70.0683 0 69.2342 0 68.3166C0 67.3991 0.25 66.5649 0.75 65.981C1.16667 65.3137 1.75 64.98 2.33333 64.7298C2.83333 64.4795 3.33333 64.3961 3.66667 64.3961C4 64.3961 4.16667 64.3961 4.16667 64.4795C4.16667 64.563 3.41667 64.4795 2.5 64.98C2 65.2303 1.5 65.6473 1.08333 66.2312C0.666667 66.8152 0.416667 67.5659 0.416667 68.4C0.416667 69.2342 0.666667 69.9849 1.16667 70.4854C1.66667 70.9859 2.33333 71.1527 2.83333 71.0693C3.33333 70.9859 3.66667 70.5688 3.75 70.3186C3.83333 69.9849 3.83333 69.8181 3.83333 69.8181Z" fill="#EB996E"/>
<path d="M9.91699 75.5737C9.91699 75.5737 10.2503 75.4903 10.7503 75.5737C11.2503 75.6571 12.0003 75.9908 12.5837 76.6581L12.2503 76.7415C12.2503 76.4079 12.3337 75.9908 12.417 75.5737C12.917 73.3215 14.0837 71.82 14.167 71.9035C14.2503 71.9869 13.167 73.4883 12.7503 75.6571C12.667 76.0742 12.5837 76.4078 12.5837 76.8249L12.5003 77.242L12.2503 76.9083C11.7503 76.3244 11.0837 75.9908 10.5837 75.8239C10.2503 75.6571 9.91699 75.5737 9.91699 75.5737Z" fill="#EB996E"/>
<path d="M9.58366 60.7259C9.66699 60.7259 9.33366 61.3932 8.58366 61.7269C7.83366 62.0605 7.16699 61.8937 7.16699 61.8103C7.16699 61.7269 7.75033 61.7269 8.41699 61.3932C9.08366 61.0595 9.50033 60.6425 9.58366 60.7259Z" fill="#EB996E"/>
<path d="M109.917 84.8327C113.5 84.8327 122.25 95.0927 123.75 110.775C124.417 117.948 128 147.227 129.75 161.324C130.417 166.412 128.167 171.417 124 174.42C114.667 181.26 95.917 191.937 71.0003 191.603L55.917 178.924L104.917 158.238V157.153L107.084 154.818L101 117.281C100.917 117.198 95.2503 84.8327 109.917 84.8327Z" fill="#85BC91"/>
<path d="M97.167 18.7683C97.3337 23.8566 104.084 26.9429 104 32.0312C104 34.2 102.584 36.202 102.334 38.3707C102 41.2903 103.584 44.0429 104.167 46.879C105.417 52.8015 102 59.0576 96.917 62.2273C91.8337 65.4805 85.417 66.0644 79.417 65.2303" fill="#263238"/>
<path d="M56.3337 17.5171C56.5004 20.2698 54.7504 22.6888 52.917 24.6907C51.0837 26.7761 49.0837 28.8615 48.667 31.5307C48.0004 36.2854 52.667 40.7898 51.667 45.5444C51.167 48.0468 49.0837 50.1322 48.667 52.7181C48.3337 55.2205 49.667 57.6395 51.2504 59.5581C52.917 61.4766 54.8337 61.1429 56.2504 63.2283C57.7504 65.3971 60.2504 67.5659 62.5837 68.8171C67.8337 71.7366 74.167 67.5659 76.667 66.8151" fill="#263238"/>
<path d="M98.1673 21.6879C98.2506 19.1854 95.9173 17.2669 93.6673 16.4327C91.3339 15.5152 88.8339 15.1815 86.7506 13.8469C84.9173 12.5957 83.7506 10.6771 82.1673 9.17566C78.4173 5.25517 72.5006 3.67029 67.3339 5.08834C62.1673 6.50639 57.9173 10.8439 56.5839 16.0991C55.6673 19.6025 56.3339 23.7732 59.0839 26.1088C62.3339 28.8615 67.0839 28.1942 71.1673 27.36C75.2506 26.5259 79.9173 25.6918 83.4173 28.1108C85.5006 29.6122 86.6673 31.9479 87.9173 34.1166C89.1673 36.2854 90.7506 38.5376 93.1673 39.3718C95.5839 40.2059 98.8339 38.7879 98.9173 36.202" fill="#263238"/>
<path d="M65.3335 79.244C65.3335 73.5718 65.2501 68.0664 65.2501 68.0664C65.2501 68.0664 56.2501 66.5649 54.4168 54.8035C53.5001 48.9644 53.8335 39.3718 54.3335 31.5308C54.8335 24.4405 59.5001 15.8488 66.5001 16.5996L88.4168 22.1883C90.5835 22.4386 92.1668 24.2737 92.0835 26.3591L90.0835 79.5776C89.8335 86.3342 84.2501 91.6727 77.5001 91.5059C70.7501 91.4225 65.3335 86.0005 65.3335 79.244Z" fill="#FFBE9D"/>
<path d="M58.084 38.2874C58.084 39.1215 58.6673 39.7888 59.5007 39.7888C60.334 39.8723 61.0007 39.2049 61.084 38.4542C61.084 37.6201 60.5007 36.9527 59.6673 36.9527C58.834 36.8693 58.084 37.4532 58.084 38.2874Z" fill="#263238"/>
<path d="M56.4169 36.5357C56.5836 36.7025 57.7503 35.8683 59.3336 35.8683C60.9169 35.8683 62.167 36.7025 62.3336 36.4522C62.417 36.3688 62.2503 36.0352 61.7503 35.6181C61.2503 35.201 60.3336 34.8674 59.3336 34.8674C58.3336 34.8674 57.5003 35.201 57.0003 35.6181C56.5003 36.1186 56.3336 36.4522 56.4169 36.5357Z" fill="#263238"/>
<path d="M73.834 38.7044C73.834 39.5386 74.4173 40.2059 75.2507 40.2059C76.084 40.2893 76.7507 39.622 76.834 38.8713C76.834 38.0371 76.2507 37.3698 75.4173 37.3698C74.5007 37.2864 73.834 37.8703 73.834 38.7044Z" fill="#263238"/>
<path d="M72.3339 36.8693C72.5006 37.0362 73.6673 36.202 75.2506 36.202C76.8339 36.202 78.0839 37.0362 78.2506 36.7859C78.3339 36.7025 78.1673 36.3689 77.6673 35.9518C77.1673 35.5347 76.2506 35.201 75.2506 35.201C74.2506 35.201 73.4173 35.5347 72.9173 35.9518C72.4173 36.4523 72.2506 36.7859 72.3339 36.8693Z" fill="#263238"/>
<path d="M66.4166 48.881C66.4166 48.7976 65.4166 48.6308 63.7499 48.3805C63.3333 48.2971 62.9166 48.2137 62.9166 47.9635C62.8333 47.6298 63 47.2127 63.1666 46.7123C63.5833 45.7113 64 44.6269 64.4166 43.5425C66.1666 39.0381 67.3333 35.3679 67.1666 35.2844C66.9999 35.201 65.4166 38.7879 63.7499 43.2923C63.3333 44.3766 62.9166 45.461 62.5833 46.462C62.4166 46.9625 62.1666 47.463 62.3333 48.0469C62.4166 48.3805 62.7499 48.5474 62.9999 48.6308C63.2499 48.7142 63.4999 48.7142 63.6666 48.7142C65.4166 48.9644 66.4166 48.9644 66.4166 48.881Z" fill="#263238"/>
<path d="M65.25 68.0664C65.25 68.0664 73.1667 68.5669 81 63.8956C80.8333 63.8956 76.6667 72.0703 65.4167 70.8191L65.25 68.0664Z" fill="#EB996E"/>
<path d="M67.083 52.8015C67.6663 52.0508 68.6663 51.6337 69.6663 51.7171C70.333 51.8005 71.083 52.1342 71.4997 52.7181C71.9164 53.302 71.9997 54.1362 71.583 54.6366C71.1664 55.2205 70.2497 55.3874 69.4163 55.1371C68.6663 54.8869 67.9997 54.3864 67.333 53.8859C67.1663 53.7191 66.9997 53.6357 66.833 53.3854C66.9163 53.302 66.9163 53.0518 67.083 52.8015Z" fill="#85BC91"/>
<path d="M71.1667 50.0488C70.9167 50.0488 70.9167 51.8005 69.4167 53.0518C67.9167 54.303 66 54.1361 66 54.3864C66 54.4698 66.4167 54.72 67.25 54.72C68 54.72 69.1667 54.4698 70.0833 53.7191C71 52.9683 71.4167 51.9674 71.5 51.2166C71.5 50.4659 71.3333 50.0488 71.1667 50.0488Z" fill="#263238"/>
<path d="M71.584 34.0332C71.7507 34.4503 73.334 34.2835 75.2507 34.5337C77.1673 34.7005 78.6673 35.2844 78.9173 34.8674C79.0006 34.7005 78.7507 34.2835 78.1673 33.8664C77.584 33.4493 76.584 33.0322 75.4173 32.8654C74.2506 32.6986 73.2506 32.9488 72.5006 33.1991C71.9173 33.4493 71.584 33.8664 71.584 34.0332Z" fill="#263238"/>
<path d="M56.9998 31.8644C57.2498 32.1981 58.4165 31.8644 59.7498 31.8644C61.0832 31.781 62.2498 32.1147 62.4998 31.6976C62.5832 31.5308 62.4165 31.1137 61.9165 30.78C61.4165 30.4464 60.5832 30.1127 59.6665 30.1961C58.7498 30.1961 57.9165 30.5298 57.4998 30.9469C56.9998 31.2805 56.9165 31.6976 56.9998 31.8644Z" fill="#263238"/>
<path d="M93.4169 61.56C90.1669 62.2274 89.9169 60.5591 87.5003 58.3069C85.0836 56.0547 83.8336 52.6347 84.2503 49.3815C84.5836 46.462 86.1669 43.5425 85.1669 40.7898C83.8336 37.203 78.7503 36.0352 77.4169 32.4483C76.6669 30.363 77.3336 27.8605 76.4169 25.8586C75.5836 23.94 73.5836 22.8556 71.5836 22.1049C69.5836 21.3542 67.5003 20.9371 65.8336 19.6025C64.1669 18.3513 63.1669 15.8488 64.2503 14.0971C73.0003 15.1815 81.6669 17.2669 89.9169 20.3532C91.8336 21.1039 93.8336 21.9381 95.0003 23.6064C96.1669 25.4415 96.1669 27.7771 96.0003 29.9459C95.5003 40.5395 95.0003 51.0498 94.5003 61.6434" fill="#263238"/>
<path d="M100.75 37.5367C101.084 33.6996 104.25 30.1962 108.084 29.5288C111.917 28.8615 116.084 30.9469 117.834 34.4503C119.5 37.7869 118.917 41.7908 117.417 45.2108C115.584 49.2147 111.917 52.8849 107.5 52.7181C103.334 52.5513 100.084 48.881 98.8336 44.9606C97.6669 40.9567 98.0836 36.7859 98.5836 32.6152" fill="#263238"/>
<path d="M103.084 53.6357C103.084 53.6357 103.334 53.4689 103.667 52.9684C104.001 52.4679 104.417 51.6337 104.584 50.6328C104.751 49.5484 104.751 48.2971 104.501 46.8791C104.251 45.461 103.834 44.043 103.417 42.5415C103.084 41.0401 102.917 39.5386 103.167 38.204C103.417 36.8693 104.001 35.7849 104.334 34.784C104.667 33.783 104.584 32.8654 104.417 32.2815C104.251 31.6976 104.001 31.4474 104.001 31.4474C104.001 31.4474 104.167 31.781 104.251 32.2815C104.334 32.8654 104.334 33.6996 104.001 34.6171C103.667 35.6181 103.084 36.7025 102.751 38.1206C102.417 39.5386 102.584 41.1235 103.001 42.7084C103.334 44.2932 103.834 45.7113 104.084 47.0459C104.334 48.3806 104.417 49.6318 104.334 50.6328C104.001 52.6347 103.001 53.6357 103.084 53.6357Z" fill="#455A64"/>
<path d="M103.25 39.5386C103.25 39.5386 103.75 40.3727 105.083 41.2903C106.333 42.2078 108.417 43.1254 110.833 43.2088C113.25 43.2088 115.417 42.3747 116.667 41.5405C118 40.7064 118.583 39.8722 118.5 39.8722C118.417 39.7888 117.75 40.5395 116.417 41.2903C115.083 42.041 113.083 42.7917 110.75 42.7917C108.417 42.7083 106.417 41.9576 105.167 41.1234C104 40.2059 103.333 39.4552 103.25 39.5386Z" fill="#455A64"/>
<path d="M103.834 41.3737C103.75 41.3737 104.084 42.1245 104.834 43.2088C105.584 44.2932 106.834 45.6279 108.584 46.6288C110.334 47.6298 112.084 48.1303 113.334 48.2971C114.667 48.464 115.417 48.3806 115.417 48.2971C115.417 48.2137 114.584 48.2137 113.417 47.9635C112.167 47.7132 110.5 47.1293 108.834 46.2118C107.167 45.2108 105.917 43.9596 105.084 43.042C104.334 42.041 103.917 41.3737 103.834 41.3737Z" fill="#455A64"/>
<path d="M100.834 57.6395C100.834 57.6395 100.917 57.5561 101 57.4727C101.084 57.3893 101.167 57.2225 101.334 56.9722C101.584 56.5552 101.917 55.8878 102.084 54.8869C102.25 53.9693 102.25 52.7181 101.917 51.3834C101.584 50.0488 100.667 48.6308 99.167 47.7132C97.7503 46.7122 96.0003 46.0449 94.8337 44.46C94.2503 43.7093 94.0003 42.7083 94.167 41.7073C94.3337 40.7064 94.7503 39.7054 95.167 38.621C96.0837 36.5356 96.0837 33.8664 95.0003 31.6142C94.5003 30.4464 93.667 29.4454 92.5837 28.6112C91.5003 27.7771 90.2503 27.4434 89.0003 27.1098C87.7503 26.8595 86.5003 26.6093 85.2503 26.2756C84.0837 25.942 82.917 25.3581 82.167 24.6073C81.3337 23.7732 81.0003 22.6888 80.8337 21.521C80.667 20.3532 80.5837 19.1854 80.2503 18.101C79.667 15.9322 78.5837 13.9303 77.0837 12.5122C75.5837 11.0942 73.8337 10.26 72.0837 10.0098C70.3337 9.75954 68.7503 10.0932 67.5837 10.6771C66.3337 11.261 65.5003 12.1786 64.917 12.9293C64.3337 13.7634 64.0837 14.4308 64.0003 14.9312C63.917 15.4317 63.917 15.682 63.917 15.682C64.0003 15.682 64.0003 14.5976 65.0837 13.0127C65.667 12.262 66.5003 11.4278 67.667 10.8439C68.8337 10.26 70.417 10.0098 72.0003 10.26C73.667 10.5103 75.3337 11.3444 76.7503 12.6791C78.167 14.0137 79.2503 15.9322 79.7503 18.0176C80.0003 19.102 80.0837 20.1864 80.2503 21.3542C80.417 22.522 80.8337 23.7732 81.7503 24.6908C82.667 25.6083 83.8337 26.1922 85.0837 26.5259C86.3337 26.8595 87.5837 27.0264 88.8337 27.36C90.0837 27.6103 91.2503 28.0273 92.2503 28.7781C93.2503 29.5288 94.0003 30.4464 94.5003 31.5308C95.5003 33.6995 95.5003 36.1186 94.667 38.2039C94.2503 39.2049 93.8337 40.2893 93.667 41.3737C93.5003 42.4581 93.7503 43.6259 94.417 44.46C95.667 46.1283 97.5837 46.7956 98.917 47.7132C100.334 48.6308 101.167 49.882 101.584 51.2166C102 52.4678 102 53.6356 101.834 54.5532C101.584 56.722 100.834 57.5561 100.834 57.6395Z" fill="#455A64"/>
<path d="M100.084 24.7742C100.084 24.7742 100.167 24.6074 100.251 24.1903C100.251 23.8567 100.251 23.2728 99.8341 22.6054C99.5007 22.0215 98.8341 21.3542 97.8341 21.0206C96.8341 20.6869 95.6674 20.6869 94.5007 20.9371C93.2507 21.1874 92.0007 21.6879 90.5841 21.9381C89.2507 22.1884 87.5841 22.2718 86.3341 21.2708C85.0841 20.3532 84.5007 18.685 83.8341 17.0167C83.1674 15.3484 82.3341 13.6801 81.0841 12.1786C78.6674 9.17568 75.4174 7.17373 72.1674 6.423C70.5007 6.08934 68.9174 6.08934 67.5007 6.50641C66.0841 6.92349 64.9174 7.75763 64.0841 8.75861C63.2507 9.75959 62.8341 10.844 62.7507 11.845C62.6674 12.8459 62.8341 13.6801 63.1674 14.3474C63.4174 15.0147 63.7507 15.4318 64.0841 15.682C64.3341 15.9323 64.5007 16.0157 64.5007 16.0157C64.5841 15.9323 63.8341 15.5152 63.3341 14.264C63.0841 13.5967 62.9174 12.7625 63.0841 11.845C63.1674 10.9274 63.5841 9.843 64.3341 8.92544C65.0841 8.00788 66.2507 7.25715 67.5841 6.84007C68.9174 6.423 70.5007 6.423 72.0841 6.75666C75.1674 7.50739 78.3341 9.50934 80.6674 12.3454C81.8341 13.7635 82.6674 15.4318 83.3341 17.0167C84.0007 18.6015 84.6674 20.3532 86.0007 21.4376C86.6674 21.9381 87.5007 22.2718 88.3341 22.2718C89.1674 22.3552 89.9174 22.2718 90.6674 22.105C92.0841 21.7713 93.3341 21.2708 94.5841 21.0206C95.7507 20.7703 96.9174 20.7703 97.7507 21.0206C98.6674 21.3542 99.2507 21.9381 99.6674 22.522C100.084 23.1059 100.167 23.6064 100.084 23.9401C100.167 24.6074 100.084 24.7742 100.084 24.7742Z" fill="#455A64"/>
<path d="M110.917 84.9995L90.0833 79.661H65.25C65.25 79.661 52.4167 80.4117 45.25 86.7513C45.0833 86.9181 42.8333 88.92 41.3333 93.1742L30.25 118.449L24.5833 86.7513L4.75 89.5874L7.91667 144.141C9.08333 155.735 17.5833 165.244 29 167.663L40.25 154.984C41.5833 165.328 42.6667 174.253 42.8333 174.086C43.0833 173.836 104.583 170.082 104.583 170.082L98.3333 149.062L110.917 84.9995Z" fill="#85BC91"/>
<path d="M32.1662 14.3473C32.2496 6.50636 25.9162 0.083435 18.0829 2.03757e-05C10.2496 -0.0833943 3.83291 6.25612 3.74957 14.0971C3.66624 19.7693 6.99958 24.6908 11.7496 27.0264C11.7496 28.6947 11.7496 30.6132 11.7496 30.6132L24.1662 30.78C24.1662 30.78 24.2496 28.7781 24.3329 26.9429C28.9162 24.6073 32.0829 19.8527 32.1662 14.3473Z" fill="#85BC91"/>
<path d="M19.6663 30.6132C19.6663 30.6132 19.6663 30.5298 19.6663 30.4464C19.6663 30.3629 19.6663 30.1127 19.7496 29.9459C19.833 29.5288 19.9163 28.8615 19.9996 27.9439C20.1663 27.1098 20.333 26.0254 20.583 24.8576C20.833 23.6898 21.2496 22.3551 21.9163 20.9371C22.2496 20.2698 22.583 19.519 23.083 18.8517C23.333 18.5181 23.6663 18.1844 24.083 18.0176C24.4996 17.8507 24.9996 17.8507 25.4163 18.101C25.583 18.1844 25.833 18.4346 25.833 18.6849C25.9163 18.9351 25.9163 19.1854 25.7496 19.4356C25.4996 19.8527 25.083 20.1864 24.6663 20.3532C23.7496 20.6868 22.6663 20.6034 21.7496 20.1029C20.833 19.6025 20.083 18.7683 19.7496 17.6839C19.583 17.1834 19.4996 16.5995 19.6663 16.0156C19.833 15.4317 20.333 15.0146 20.9996 15.0146C21.333 15.0146 21.583 15.2649 21.7496 15.5151C21.9163 15.7654 21.9163 16.099 21.833 16.4327C21.6663 17.0166 21.2496 17.4337 20.833 17.8507C19.9163 18.6015 18.6663 19.0186 17.4996 18.7683C16.333 18.6015 15.2496 17.7673 14.7496 16.6829C14.4996 16.1825 14.4163 15.5151 14.6663 14.9312C14.7496 14.681 14.9996 14.4307 15.333 14.3473C15.583 14.2639 15.9163 14.2639 16.1663 14.4307C16.4163 14.5976 16.6663 14.7644 16.7496 15.0981C16.9163 15.3483 16.9163 15.682 16.9163 15.9322C16.9163 16.5161 16.833 17.0166 16.6663 17.5171C16.333 18.5181 15.583 19.4356 14.6663 19.8527C13.7496 20.3532 12.6663 20.4366 11.7496 20.1864C11.2496 20.1029 10.833 19.8527 10.4996 19.519C10.1663 19.102 10.083 18.5181 10.4163 18.1844C10.583 18.0176 10.833 17.9342 11.083 17.8507C11.333 17.8507 11.583 17.8507 11.7496 18.0176C12.1663 18.2678 12.4163 18.6015 12.583 19.0186C12.9163 19.7693 13.2496 20.52 13.4996 21.2707C14.583 24.1903 15.4163 26.5259 15.9163 28.1942C16.1663 29.0283 16.333 29.6956 16.4996 30.1127C16.583 30.3629 16.583 30.5298 16.6663 30.6132C16.6663 30.6966 16.7496 30.78 16.7496 30.78C16.7496 30.78 16.7496 30.6966 16.6663 30.6132C16.6663 30.5298 16.583 30.3629 16.4996 30.1127C16.333 29.6956 16.1663 29.0283 15.9163 28.1942C15.333 26.5259 14.583 24.1903 13.4163 21.3542C13.1663 20.6034 12.833 19.8527 12.4996 19.102C12.333 18.7683 12.083 18.3512 11.6663 18.1844C11.333 18.0176 10.833 18.0176 10.4996 18.3512C10.2496 18.6849 10.333 19.1854 10.583 19.519C10.833 19.8527 11.333 20.0195 11.7496 20.1864C12.6663 20.4366 13.6663 20.2698 14.583 19.8527C15.4996 19.4356 16.1663 18.6015 16.4996 17.6005C16.6663 17.1 16.7496 16.5995 16.7496 16.0156C16.7496 15.5151 16.4996 14.9312 15.9996 14.681C15.7496 14.5976 15.4996 14.5142 15.2496 14.5976C14.9996 14.681 14.833 14.8478 14.7496 15.0981C14.583 15.5986 14.583 16.1825 14.833 16.6829C15.2496 17.6839 16.333 18.4346 17.4163 18.6849C18.583 18.8517 19.7496 18.5181 20.583 17.7673C20.9996 17.4337 21.4163 17.0166 21.4996 16.4327C21.583 16.1825 21.4996 15.9322 21.4163 15.682C21.333 15.4317 21.083 15.2649 20.833 15.2649C20.583 15.2649 20.333 15.3483 20.083 15.5151C19.9163 15.682 19.7496 15.9322 19.6663 16.1825C19.4996 16.6829 19.583 17.2668 19.7496 17.7673C20.083 18.7683 20.7496 19.6025 21.6663 20.1029C22.583 20.52 23.583 20.6034 24.4996 20.3532C24.9163 20.1864 25.333 19.8527 25.4996 19.519C25.7496 19.102 25.583 18.6015 25.1663 18.4347C24.833 18.1844 24.333 18.1844 23.9163 18.3512C23.4996 18.5181 23.2496 18.8517 22.9996 19.1854C22.4996 19.8527 22.1663 20.6034 21.833 21.2707C21.1663 22.6888 20.7496 24.0234 20.4996 25.1912C20.1663 26.359 19.9996 27.4434 19.833 28.2776C19.6663 29.1117 19.583 29.779 19.4996 30.1961C19.4996 30.4464 19.4163 30.6132 19.4163 30.6966C19.6663 30.6132 19.6663 30.6132 19.6663 30.6132Z" fill="#263238"/>
<path d="M23.166 33.0322L12.4993 32.9488C12.0827 32.9488 11.666 32.6152 11.666 32.1147C11.666 31.6976 11.9993 31.2805 12.4993 31.2805L23.166 31.3639C23.5827 31.3639 23.9993 31.6976 23.9993 32.1981C23.9993 32.6986 23.666 33.0322 23.166 33.0322Z" fill="#263238"/>
<path d="M23.166 33.7829L12.4993 33.6161C12.0827 33.6161 11.666 33.9497 11.666 34.4502C11.666 34.8673 11.9993 35.2844 12.4993 35.2844H13.666L15.166 38.2873C15.3327 38.621 15.666 38.8712 16.0827 38.8712H19.916C20.3327 38.8712 20.666 38.621 20.8327 38.2873L22.416 35.3678H23.2493C23.666 35.3678 24.0827 35.0341 24.0827 34.5337C23.9993 34.1166 23.666 33.7829 23.166 33.7829Z" fill="#263238"/>
<g opacity="0.2">
<path opacity="0.2" d="M8.91634 5.08834C9.91634 4.2542 10.9163 3.58688 11.7497 3.25322C12.6663 2.83615 13.4163 2.66932 13.9163 2.66932C14.4163 2.5859 14.7497 2.66932 14.7497 2.75273C14.833 3.00298 13.7497 3.42005 12.2497 4.33761C10.833 5.25517 8.99967 6.92346 7.83301 9.25907C6.74967 11.5947 6.58301 14.0971 6.74967 15.7654C6.91634 17.5171 7.33301 18.6015 7.08301 18.6849C6.99967 18.7683 6.74967 18.5181 6.41634 18.101C6.08301 17.684 5.74967 16.9332 5.49967 16.0157C5.41634 15.0147 5.33301 13.8469 5.33301 12.5122C5.41634 11.1776 5.74967 9.75956 6.33301 8.42493" fill="white"/>
</g>
<g opacity="0.2">
<path opacity="0.2" d="M18.25 3.33661C17.3333 3.33661 16.5833 3.08636 16.5 2.58588C16.5 2.33563 16.6667 2.08539 17 1.91856C17.3333 1.75173 17.8333 1.5849 18.3333 1.5849C18.8333 1.5849 19.3333 1.75173 19.6667 1.91856C20 2.08539 20.1667 2.41905 20.0833 2.58588" fill="white"/>
</g>
<path d="M20.6667 38.5376C20.6667 38.5376 20.4167 38.4541 19.9167 38.2873C19.5 38.1205 18.8333 38.0371 18.0833 38.0371C17.3333 38.0371 16.75 38.2039 16.25 38.3707C15.8333 38.5376 15.5 38.621 15.5 38.621C15.5 38.621 15.75 38.4541 16.1667 38.2039C16.5833 38.0371 17.25 37.8702 18 37.8702C18.75 37.8702 19.4167 38.0371 19.8333 38.2039C20.4167 38.3707 20.6667 38.5376 20.6667 38.5376Z" fill="#455A64"/>
<path d="M22.4167 35.3678C22.4167 35.4512 20.5 35.4512 18.0833 35.4512C15.6667 35.4512 13.75 35.3678 13.75 35.2844C13.75 35.201 15.6667 35.201 18.0833 35.201C20.5 35.2844 22.4167 35.3678 22.4167 35.3678Z" fill="#455A64"/>
<path d="M21.7494 36.619C21.7494 36.619 21.3327 36.7024 20.666 36.7024C19.9994 36.7024 19.0827 36.7858 18.0827 36.7858C17.0827 36.7858 16.166 36.7858 15.4994 36.7024C14.8327 36.7024 14.416 36.619 14.416 36.619C14.416 36.619 14.8327 36.619 15.4994 36.619C16.166 36.619 17.0827 36.619 18.0827 36.619C19.0827 36.619 19.916 36.619 20.666 36.619C21.3327 36.619 21.7494 36.619 21.7494 36.619Z" fill="#455A64"/>
<path d="M42.6668 133.213C42.6668 133.213 42.4168 132.963 42.0001 132.462C41.6668 131.962 41.1668 131.128 40.9168 129.96C40.2501 127.708 40.3335 124.455 41.4168 121.118C42.5001 117.781 44.0001 115.029 44.8335 112.943C45.2501 111.859 45.5835 111.025 45.7501 110.441C45.9168 109.857 46.0835 109.523 46.0835 109.523C46.0835 109.523 46.0835 109.857 45.9168 110.524C45.7501 111.108 45.5001 112.026 45.0835 113.11C44.3335 115.279 42.9168 118.115 41.8335 121.368C40.7501 124.621 40.6668 127.791 41.1668 129.96C41.8335 132.129 42.7501 133.213 42.6668 133.213Z" fill="#263238"/>
<path d="M100.25 111.692C100.25 111.692 100.333 111.859 100.333 112.109C100.417 112.443 100.5 112.86 100.583 113.36C100.833 114.528 101.083 116.03 101.417 117.948C102.083 121.869 103 127.207 104 133.13C105 139.052 105.75 144.474 106.333 148.395C106.583 150.313 106.833 151.898 106.917 153.066C107 153.566 107 153.983 107 154.317C107 154.567 107 154.734 107 154.734C107 154.734 106.917 154.567 106.917 154.317C106.833 153.983 106.833 153.566 106.75 153.066C106.583 151.898 106.333 150.313 106 148.478C105.333 144.558 104.5 139.136 103.583 133.297C102.667 127.374 101.75 122.036 101.167 118.115C100.833 116.197 100.667 114.612 100.417 113.527C100.333 113.027 100.25 112.61 100.25 112.276C100.25 111.859 100.25 111.692 100.25 111.692Z" fill="#263238"/>
<path d="M29.7505 134.047C29.6671 134.047 29.7505 133.13 29.9171 131.712C30.0005 130.294 30.1671 128.292 30.2505 126.123C30.3338 123.954 30.2505 121.952 30.2505 120.534C30.1671 119.116 30.1671 118.199 30.2505 118.199C30.3338 118.199 30.4171 119.033 30.5838 120.534C30.7505 121.952 30.8338 123.954 30.7505 126.123C30.6671 128.292 30.5005 130.294 30.3338 131.712C30.0005 133.213 29.8338 134.047 29.7505 134.047Z" fill="#263238"/>
<path d="M114.417 160.323C114.334 160.323 114.25 159.739 113.834 158.988C113.417 158.154 112.75 157.153 111.667 156.319C110.584 155.485 109.334 155.151 108.417 154.984C107.5 154.818 106.917 154.901 106.917 154.818C106.917 154.734 107.5 154.651 108.417 154.651C109.334 154.734 110.667 155.068 111.834 155.902C113 156.736 113.75 157.904 114.084 158.821C114.417 159.656 114.5 160.323 114.417 160.323Z" fill="#263238"/>
<path d="M109.833 162.742C109.75 162.825 109.083 161.324 107.667 159.989C106.25 158.655 104.75 158.154 104.75 158.071C104.75 157.987 106.417 158.321 107.917 159.656C109.5 161.074 109.917 162.742 109.833 162.742Z" fill="#263238"/>
<path d="M94.5001 162.742C94.4168 162.659 96.8335 161.658 99.6668 160.406C102.583 159.155 104.833 158.071 104.917 158.154C105 158.238 102.75 159.572 99.8335 160.823C97.0001 162.075 94.5001 162.909 94.5001 162.742Z" fill="#263238"/>
<path d="M13.5 127.624C13.5 127.624 25.5 184.68 25.5 183.929C25.5 183.262 85.9167 186.515 96.6667 187.016L98.9167 186.432L116 170.75L96.4167 169.165L89.4167 129.042L13.5 127.624Z" fill="#E0E0E0"/>
<path d="M89.2505 128.959C89.3338 128.959 91.5838 141.805 94.2505 157.654C96.9171 173.502 98.9171 186.348 98.8338 186.432C98.7505 186.432 96.5005 173.586 93.8338 157.737C91.2505 141.888 89.1671 129.042 89.2505 128.959Z" fill="#455A64"/>
<path d="M89.4996 129.042C89.4996 129.042 89.3329 129.209 89.0829 129.459C88.8329 129.71 88.3329 130.043 87.8329 130.627C87.5829 130.878 87.3329 131.295 87.4996 131.712C87.5829 132.212 87.6663 132.629 87.7496 133.213C87.9163 134.298 88.1663 135.465 88.4163 136.8C89.3329 142.139 90.5829 149.479 91.9163 157.57C93.2496 165.661 94.4163 173.002 95.3329 178.34C95.7496 181.01 96.0829 183.095 96.3329 184.68C96.4163 185.431 96.4996 185.931 96.5829 186.432C96.6663 186.849 96.6663 187.016 96.6663 187.016C96.6663 187.016 96.5829 186.849 96.4996 186.432C96.4163 186.015 96.3329 185.431 96.1663 184.763C95.9163 183.262 95.4996 181.093 95.0829 178.507C94.1663 173.169 92.9163 165.828 91.5829 157.737C90.2496 149.646 89.0829 142.305 88.1663 136.967C87.9163 135.632 87.7496 134.464 87.5829 133.38C87.4996 132.879 87.4163 132.379 87.3329 131.879C87.1663 131.378 87.4996 130.961 87.7496 130.627C88.2496 130.043 88.7496 129.71 89.0829 129.459C89.3329 129.126 89.4996 129.042 89.4996 129.042Z" fill="#455A64"/>
<path d="M87.3333 131.128C87.3333 131.128 87.0833 131.128 86.5833 131.128C86.0833 131.128 85.3333 131.128 84.4167 131.128C82.5 131.128 79.8333 131.044 76.5833 131.044C69.9167 130.961 60.8333 130.794 50.6667 130.627C40.5833 130.46 31.4167 130.294 24.75 130.21C21.5 130.127 18.8333 130.127 16.9167 130.127C16 130.127 15.3333 130.127 14.75 130.043C14.25 130.043 14 130.043 14 129.96C14 129.96 14.25 129.96 14.75 129.877C15.25 129.877 16 129.877 16.9167 129.877C18.75 129.877 21.4167 129.877 24.75 129.877C31.4167 129.877 40.5 129.96 50.6667 130.21C60.75 130.377 69.9167 130.627 76.5833 130.794C79.8333 130.878 82.5 130.961 84.4167 131.044C85.3333 131.044 86 131.128 86.5833 131.128C87.0833 131.044 87.3333 131.128 87.3333 131.128Z" fill="#455A64"/>
<path d="M96.25 170.75C96.25 170.75 96.6667 170.75 97.4167 170.75C98.25 170.75 99.3333 170.833 100.583 170.917C103.25 171.083 107 171.25 111.167 171.5H111.667L111.25 171.834C111 172.001 110.75 172.251 110.5 172.501C107.167 175.338 104.083 177.923 101.917 179.759C100.833 180.593 100 181.343 99.25 181.927C98.5833 182.428 98.25 182.678 98.25 182.678C98.25 182.678 98.5833 182.344 99.1667 181.844C99.8333 181.26 100.667 180.509 101.75 179.592C103.917 177.673 106.917 175.087 110.25 172.251C110.5 172.001 110.75 171.834 111 171.584L111.167 172.001C107 171.751 103.333 171.5 100.583 171.25C99.3333 171.167 98.25 171.083 97.4167 171C96.6667 170.833 96.25 170.75 96.25 170.75Z" fill="#455A64"/>
<path d="M57.583 155.151C57.9996 157.57 56.583 159.906 54.333 160.24C52.1663 160.573 50.083 158.905 49.6663 156.486C49.2496 154.067 50.6663 151.731 52.9163 151.398C55.083 150.98 57.2496 152.732 57.583 155.151Z" fill="#FAFAFA"/>
<g opacity="0.4">
<path opacity="0.4" d="M107 154.484C109.5 153.733 112.25 153.65 114.583 154.734C116.917 155.819 118.833 157.987 119.167 160.573C119.25 161.157 119.25 161.824 119 162.325C118.833 162.909 118.333 163.409 117.75 163.576C116.833 163.826 115.833 163.242 115.333 162.408C114.833 161.574 114.583 160.657 114.25 159.739C113.083 156.736 109.917 154.567 106.75 154.484C106.917 154.484 107 154.567 107.167 154.567" fill="black"/>
</g>
<path d="M63.1664 82.8308C63.6664 81.2459 63.2497 79.5776 62.9164 77.9927C62.6664 76.4079 62.583 74.4893 63.6664 73.3215C64.7497 72.0703 66.583 71.9869 68.2497 71.9035C74.9997 71.5698 81.6664 71.3196 88.4164 70.9859C89.833 70.9025 91.4164 70.9859 92.2497 72.0703C92.833 72.7376 93.1664 73.7386 92.9997 74.5727C91.9997 78.4098 92.2497 81.663 93.833 84.3323" fill="#85BC91"/>
<path d="M90.5 80.9122C90.5 80.9122 90.1667 81.1624 89.5833 81.6629C89 82.08 88.0833 82.7473 86.9167 83.3312C84.5833 84.5824 81.0833 86.0005 77 86.3342C75 86.501 73 86.501 71.25 86.2507C69.5 86.0005 68 85.5 66.8333 84.8327C65.6667 84.1654 64.8333 83.4146 64.4167 82.8307C64.1667 82.5805 64 82.3303 63.9167 82.1634C63.8333 81.9966 63.75 81.9132 63.75 81.9132C63.8333 81.8298 64.5833 83.4146 67 84.5824C68.1667 85.1664 69.6667 85.6668 71.3333 85.9171C73.0833 86.1673 75 86.1673 76.9167 86.0005C80.9167 85.6668 84.3333 84.3322 86.6667 83.1644C89.1667 81.8298 90.4167 80.8288 90.5 80.9122Z" fill="#263238"/>
<path d="M76.75 86.4175C76.6666 86.4175 76.5 85.5834 76.25 84.1654C76 82.7473 75.6666 80.8288 75.25 78.7434C75.0833 77.659 74.9166 76.658 74.7499 75.7405C74.5833 74.8229 74.5833 73.9054 74.8333 73.238C75.0833 72.5707 75.4999 72.0702 75.9166 71.9034C76.2499 71.7366 76.5 71.7366 76.5 71.7366C76.5 71.7366 76.3333 71.82 75.9999 72.0702C75.6666 72.3205 75.3333 72.7375 75.1666 73.4049C74.9999 74.0722 74.9999 74.9063 75.1666 75.7405C75.3333 76.658 75.5 77.659 75.6666 78.7434C76 80.8288 76.3333 82.7473 76.5 84.1654C76.6666 85.5 76.8333 86.3341 76.75 86.4175Z" fill="#263238"/>
<path d="M87.2503 83.1644C87.167 83.1644 87.0837 82.4971 86.8337 81.3293C86.667 80.1615 86.417 78.5766 86.2503 76.8249C86.0003 75.0732 85.917 73.4883 85.7503 72.404C85.667 71.9035 85.3337 71.4864 85.0837 71.3196C84.8337 71.1527 84.667 71.1527 84.667 71.0693C84.667 71.0693 84.8337 70.9859 85.167 71.1527C85.5003 71.3196 85.8337 71.7366 86.0003 72.3205C86.2503 73.4883 86.417 75.0732 86.667 76.8249C86.917 78.5766 87.0837 80.1615 87.167 81.3293C87.2503 82.4971 87.2503 83.1644 87.2503 83.1644Z" fill="#263238"/>
<path d="M67.9997 71.82C67.9997 71.9034 67.3331 72.0702 66.6664 72.9878C66.3331 73.4049 66.0831 73.9888 65.9164 74.7395C65.8331 75.4068 65.8331 76.241 65.8331 77.0751C65.9997 78.8268 66.1664 80.3283 66.1664 81.4961C66.2497 82.6639 66.2497 83.3312 66.1664 83.3312C66.0831 83.3312 65.9997 82.6639 65.8331 81.4961C65.6664 80.3283 65.4997 78.8268 65.3331 77.0751C65.2497 76.241 65.2497 75.3234 65.4164 74.5727C65.5831 73.8219 65.9164 73.1546 66.3331 72.7375C67.2497 71.82 68.0831 71.7366 67.9997 71.82Z" fill="#263238"/>
</svg>
